<svg width="42" height="43" viewBox="0 0 42 43" fill="none" xmlns="http://www.w3.org/2000/svg">
<path d="M38 20.4502C38 29.8799 30.3633 37.4502 21 37.4502C11.5703 37.4502 4 29.8799 4 20.4502C4 16.9307 5.0625 13.6768 6.92188 10.9541C7.38672 10.2236 8.38281 10.0244 9.11328 10.4893C9.84375 11.0205 10.043 12.0166 9.51172 12.7471C8.05078 14.9385 7.12109 17.5947 7.12109 20.4502C7.12109 28.0869 13.3633 34.2627 20.9336 34.2627C28.5703 34.2627 34.8125 28.0869 34.8125 20.4502C34.8125 13.4111 29.4336 7.56738 22.5938 6.77051V10.3564C22.5938 11.2861 21.8633 11.9502 20.9336 11.9502C20.0703 11.9502 19.3398 11.2861 19.3398 10.3564V5.04395C19.3398 4.18066 20.0703 3.4502 20.9336 3.4502C30.3633 3.4502 38 11.0869 38 20.4502ZM22.0625 19.3213C22.7266 19.9854 22.7266 20.9814 22.0625 21.5791C21.4648 22.2432 20.4688 22.2432 19.8711 21.5791L14.5586 16.2666C13.8945 15.6689 13.8945 14.6729 14.5586 14.0088C15.1562 13.4111 16.1523 13.4111 16.75 14.0088L22.0625 19.3213Z" fill="white"/>
</svg>
