<svg width="21" height="17" viewBox="0 0 21 17" fill="none" xmlns="http://www.w3.org/2000/svg">
<path d="M13.4375 1.73779L9.4375 15.7378C9.28125 16.269 8.75 16.5815 8.21875 16.4253C7.6875 16.269 7.375 15.7378 7.53125 15.2065L11.5312 1.20654C11.6875 0.675293 12.2188 0.362793 12.75 0.519043C13.2812 0.675293 13.5938 1.20654 13.4375 1.73779ZM16.6875 4.26904L20.1875 7.76904C20.5938 8.14404 20.5938 8.80029 20.1875 9.17529L16.6875 12.6753C16.3125 13.0815 15.6562 13.0815 15.2812 12.6753C14.875 12.3003 14.875 11.644 15.2812 11.269L18.0625 8.45654L15.2812 5.67529C14.875 5.30029 14.875 4.64404 15.2812 4.26904C15.6562 3.86279 16.3125 3.86279 16.6875 4.26904ZM5.6875 5.67529L2.90625 8.45654L5.6875 11.269C6.09375 11.644 6.09375 12.3003 5.6875 12.6753C5.3125 13.0815 4.65625 13.0815 4.28125 12.6753L0.78125 9.17529C0.375 8.80029 0.375 8.14404 0.78125 7.76904L4.28125 4.26904C4.65625 3.86279 5.3125 3.86279 5.6875 4.26904C6.09375 4.64404 6.09375 5.30029 5.6875 5.67529Z" fill="white"/>
</svg>
