<svg width="42" height="42" viewBox="0 0 42 42" fill="none" xmlns="http://www.w3.org/2000/svg">
<path d="M21.1992 8.96094L24.5195 10.3555L25.9141 13.6758C25.9805 13.8086 26.1133 13.9414 26.3125 13.9414C26.4453 13.9414 26.5781 13.8086 26.6445 13.6758L28.0391 10.3555L31.3594 8.96094C31.4922 8.89453 31.625 8.76172 31.625 8.62891C31.625 8.42969 31.4922 8.29688 31.3594 8.23047L28.0391 6.83594L26.6445 3.51562C26.5781 3.38281 26.4453 3.25 26.2461 3.25C26.1133 3.25 25.9805 3.38281 25.9141 3.51562L24.5195 6.83594L21.1992 8.23047C21.0664 8.29688 20.9336 8.42969 20.9336 8.62891C20.9336 8.76172 21.0664 8.89453 21.1992 8.96094ZM37.8008 17.8594L35.1445 16.7305L34.0156 14.0742C33.9492 14.0078 33.8828 13.9414 33.75 13.9414C33.5508 13.9414 33.4844 14.0078 33.418 14.0742L32.2891 16.7305L29.6328 17.8594C29.5664 17.9258 29.5 17.9922 29.5 18.1914C29.5 18.3242 29.5664 18.3906 29.6328 18.457L32.2891 19.5859L33.418 22.2422C33.4844 22.3086 33.5508 22.4414 33.75 22.4414C33.8828 22.4414 33.9492 22.3086 34.0156 22.2422L35.1445 19.5859L37.8008 18.457C37.8672 18.3906 38 18.3242 38 18.1914C38 17.9922 37.8672 17.9258 37.8008 17.8594ZM28.1719 21.0469L21.1992 20.0508L18.0781 13.6758C17.8125 13.2109 17.3477 12.8125 16.75 12.8125L16.6836 12.8789C16.0859 12.8789 15.5547 13.2109 15.3555 13.6758L12.2344 20.0508L5.26172 21.0469C4 21.2461 3.53516 22.7734 4.39844 23.6367L9.44531 28.5508L8.25 35.5234C8.11719 36.4531 8.91406 37.25 9.77734 37.25C10.043 37.25 10.3086 37.25 10.5078 37.1172L16.6836 33.7969L22.9258 37.1172C23.1914 37.25 23.3906 37.25 23.6562 37.25C24.5195 37.25 25.1836 36.5859 25.1836 35.7891C25.1836 35.6562 25.1836 35.5898 25.1836 35.5234L23.9883 28.5508L29.0352 23.6367C29.8984 22.7734 29.4336 21.2461 28.1719 21.0469ZM20.5352 27.4219L21.4648 32.7344L16.6836 30.2109L11.9688 32.7344L12.8984 27.4219L9.04688 23.7031L14.3594 22.9062L16.6836 18.125L19.0742 22.9062L24.3867 23.7031L20.5352 27.4219Z" fill="#ACAEB0"/>
</svg>
