<svg width="36" height="31" viewBox="0 0 36 31" fill="none" xmlns="http://www.w3.org/2000/svg">
<path d="M23.2461 12.793C22.6484 13.2578 21.7852 13.2578 21.1875 12.793L13.6172 6.15234L3.45703 12.8594C2.72656 13.3906 1.73047 13.1914 1.26562 12.4609C0.734375 11.7305 0.933594 10.7344 1.66406 10.2031L12.8203 2.83203C13.418 2.43359 14.2148 2.43359 14.7461 2.89844L22.25 9.47266L32.3438 0.773438C33.0078 0.242188 34.0039 0.308594 34.6016 0.972656C35.1328 1.63672 35.0664 2.63281 34.4023 3.23047L23.2461 12.793ZM16.9375 16.3125V26.9375C16.9375 28.7305 15.4766 30.125 13.75 30.125C11.957 30.125 10.5625 28.7305 10.5625 26.9375V16.3125C10.5625 14.5859 11.957 13.125 13.75 13.125C15.4766 13.125 16.9375 14.5859 16.9375 16.3125ZM14.2812 26.9375V16.3125C14.2812 16.0469 14.0156 15.7812 13.75 15.7812C13.418 15.7812 13.2188 16.0469 13.2188 16.3125V26.9375C13.2188 27.2695 13.418 27.4688 13.75 27.4688C14.0156 27.4688 14.2812 27.2695 14.2812 26.9375ZM8.4375 22.6875V26.9375C8.4375 28.7305 6.97656 30.125 5.25 30.125C3.45703 30.125 2.0625 28.7305 2.0625 26.9375V22.6875C2.0625 20.9609 3.45703 19.5 5.25 19.5C6.97656 19.5 8.4375 20.9609 8.4375 22.6875ZM5.78125 26.9375V22.6875C5.78125 22.4219 5.51562 22.1562 5.25 22.1562C4.91797 22.1562 4.71875 22.4219 4.71875 22.6875V26.9375C4.71875 27.2695 4.91797 27.4688 5.25 27.4688C5.51562 27.4688 5.78125 27.2695 5.78125 26.9375ZM19.0625 20.5625C19.0625 18.8359 20.457 17.375 22.25 17.375C23.9766 17.375 25.4375 18.8359 25.4375 20.5625V26.9375C25.4375 28.7305 23.9766 30.125 22.25 30.125C20.457 30.125 19.0625 28.7305 19.0625 26.9375V20.5625ZM22.25 20.0312C21.918 20.0312 21.7188 20.2969 21.7188 20.5625V26.9375C21.7188 27.2695 21.918 27.4688 22.25 27.4688C22.5156 27.4688 22.7812 27.2695 22.7812 26.9375V20.5625C22.7812 20.2969 22.5156 20.0312 22.25 20.0312ZM33.9375 16.3125V26.9375C33.9375 28.7305 32.4766 30.125 30.75 30.125C28.957 30.125 27.5625 28.7305 27.5625 26.9375V16.3125C27.5625 14.5859 28.957 13.125 30.75 13.125C32.4766 13.125 33.9375 14.5859 33.9375 16.3125ZM31.2812 26.9375V16.3125C31.2812 16.0469 31.0156 15.7812 30.75 15.7812C30.418 15.7812 30.2188 16.0469 30.2188 16.3125V26.9375C30.2188 27.2695 30.418 27.4688 30.75 27.4688C31.0156 27.4688 31.2812 27.2695 31.2812 26.9375Z" fill="#ACAEB0"/>
</svg>
