<svg width="42" height="43" viewBox="0 0 42 43" fill="none" xmlns="http://www.w3.org/2000/svg">
<path d="M40.125 6.66895C40.125 7.59864 39.3945 8.2627 38.5312 8.2627L30.5625 8.2627L30.5625 16.2314C30.5625 17.1611 29.832 17.8252 28.9687 17.8252L22.0625 17.8252L22.0625 24.7314C22.0625 25.6611 21.332 26.3252 20.4687 26.3252L13.5625 26.3252L13.5625 33.2314C13.5625 34.1611 12.832 34.8252 11.9687 34.8252L3.46875 34.8252C2.53906 34.8252 1.875 34.1611 1.875 33.2314C1.875 32.3682 2.53906 31.6377 3.46875 31.6377L10.375 31.6377L10.375 24.7314C10.375 23.8682 11.0391 23.1377 11.9687 23.1377L18.875 23.1377L18.875 16.2314C18.875 15.3682 19.5391 14.6377 20.4687 14.6377L27.375 14.6377L27.375 6.66895C27.375 5.80567 28.0391 5.0752 28.9687 5.0752L38.5312 5.0752C39.3945 5.0752 40.125 5.80567 40.125 6.66895Z" fill="#ACAEB0"/>
</svg>
