<svg width="35" height="33" viewBox="0 0 35 33" fill="none" xmlns="http://www.w3.org/2000/svg">
<path d="M30.25 6.71387H26V4.58887C26 2.26465 24.0742 0.338867 21.75 0.338867H13.25C10.8594 0.338867 9 2.26465 9 4.58887V6.71387H4.75C2.35938 6.71387 0.5 8.63965 0.5 10.9639V27.9639C0.5 30.3545 2.35938 32.2139 4.75 32.2139H30.25C32.5742 32.2139 34.5 30.3545 34.5 27.9639V10.9639C34.5 8.63965 32.5742 6.71387 30.25 6.71387ZM13.25 3.52637H21.75C22.2812 3.52637 22.8125 4.05762 22.8125 4.58887V6.71387H12.1875V4.58887C12.1875 4.05762 12.6523 3.52637 13.25 3.52637ZM4.75 9.90137H30.25C30.7812 9.90137 31.3125 10.4326 31.3125 10.9639V17.3389H3.6875V10.9639C3.6875 10.4326 4.15234 9.90137 4.75 9.90137ZM30.25 29.0264H4.75C4.15234 29.0264 3.6875 28.5615 3.6875 27.9639V20.5264H13.25V21.5889C13.25 22.7842 14.1797 23.7139 15.375 23.7139H19.625C20.7539 23.7139 21.75 22.7842 21.75 21.5889V20.5264H31.3125V27.9639C31.3125 28.5615 30.7812 29.0264 30.25 29.0264Z" fill="#ACAEB0"/>
</svg>
