<svg width="16" height="17" viewBox="0 0 16 17" fill="none" xmlns="http://www.w3.org/2000/svg">
<path d="M14.5625 3.25488L8.5625 0.754883C8.375 0.692383 8.1875 0.661133 8 0.661133C7.78125 0.661133 7.59375 0.692383 7.40625 0.754883L1.40625 3.25488C0.84375 3.50488 0.5 4.03613 0.5 4.62988C0.5 10.8486 4.0625 15.1299 7.40625 16.5361C7.78125 16.6924 8.1875 16.6924 8.5625 16.5361C11.25 15.4111 15.5 11.5674 15.5 4.62988C15.5 4.03613 15.125 3.50488 14.5625 3.25488ZM13.0938 6.81738L7.34375 12.5674C7.15625 12.7861 6.8125 12.7861 6.625 12.5674L3.375 9.31738C3.1875 9.12988 3.1875 8.81738 3.375 8.62988L4.09375 7.91113C4.28125 7.72363 4.59375 7.72363 4.78125 7.91113L7 10.0986L11.6875 5.41113C11.875 5.22363 12.1875 5.22363 12.375 5.41113L13.0938 6.12988C13.2812 6.31738 13.2812 6.62988 13.0938 6.81738Z" fill="white"/>
</svg>
