<svg width="74" height="60" viewBox="0 0 74 60" fill="none" xmlns="http://www.w3.org/2000/svg">
<path d="M44.282 19.8113H46.0173L50.9609 14.7852L51.204 12.6526C42.0057 4.39859 27.9638 5.28797 19.8452 14.6398C17.588 17.2377 15.9504 20.3275 15.0589 23.6718C15.6096 23.4415 16.2198 23.4052 16.7942 23.5651L26.679 21.9075C26.679 21.9075 27.182 21.0618 27.4418 21.1151C31.8396 16.2053 39.2407 15.6334 44.3178 19.8113H44.282Z" fill="#EA4335"/>
<path d="M58.0021 23.6718C56.8651 19.4188 54.5339 15.5947 51.2898 12.6697L44.3535 19.7217C47.283 22.1548 48.9515 25.8214 48.88 29.6673V30.9202C52.2909 30.9202 55.0535 33.7313 55.0535 37.1968C55.0535 40.6646 52.2886 43.4733 48.88 43.4733H36.5305L35.2982 44.7432V52.2726L36.5305 53.5255H48.88C55.9593 53.5813 62.2401 48.9162 64.3425 42.0435C66.44 35.1684 63.8657 27.7044 58.0021 23.6718Z" fill="#4285F4"/>
<path d="M24.1643 53.4552H36.5138V43.4055H24.1643C23.2848 43.4055 22.4147 43.214 21.6139 42.8408L19.8786 43.3861L14.9016 48.4122L14.4678 50.1764C17.259 52.3187 20.6652 53.4698 24.1643 53.4552Z" fill="#34A853"/>
<path d="M24.1643 20.8509C17.3043 20.8921 11.2285 25.3584 9.0403 31.967C6.85215 38.5756 9.03315 45.8699 14.4702 50.1206L21.6329 42.8383C18.5247 41.4109 17.1446 37.6934 18.5485 34.5333C19.9525 31.3733 23.6089 29.9701 26.7172 31.3975C28.0854 32.0276 29.1818 33.1423 29.8016 34.5333L36.9643 27.2511C33.9157 23.2016 29.1794 20.834 24.1643 20.8509Z" fill="#FBBC05"/>
</svg>
