<svg width="14" height="17" viewBox="0 0 14 17" fill="none" xmlns="http://www.w3.org/2000/svg">
<path d="M2 7.54338H2.40625C3.1875 9.32463 4.9375 10.5434 7 10.5434C9.03125 10.5434 10.7812 9.32463 11.5625 7.54338H12C12.25 7.54338 12.5 7.32463 12.5 7.04338V4.04338C12.5 3.79338 12.25 3.54338 12 3.54338H11.5625C10.7812 1.79338 9.03125 0.543381 7 0.543381C4.9375 0.543381 3.1875 1.79338 2.40625 3.54338H2C1.71875 3.54338 1.5 3.79338 1.5 4.04338V7.04338C1.5 7.32463 1.71875 7.54338 2 7.54338ZM3.25 4.79338C3.25 4.10588 3.90625 3.54338 4.75 3.54338H9.25C10.0625 3.54338 10.75 4.10588 10.75 4.79338V5.54338C10.75 7.19963 9.40625 8.54338 7.75 8.54338H6.25C4.59375 8.54338 3.25 7.19963 3.25 5.54338V4.79338ZM5.5 7.04338L5.875 5.91838L7 5.54338L5.875 5.16838L5.5 4.04338L5.125 5.16838L4 5.54338L5.125 5.91838L5.5 7.04338ZM10.2188 10.6059C9.28125 11.1996 8.1875 11.5434 7 11.5434C5.78125 11.5434 4.6875 11.1996 3.75 10.6059C1.625 10.8246 0 12.5746 0 14.7621V15.0434C0 15.8871 0.65625 16.5434 1.5 16.5434H4V14.5434C4 14.0121 4.4375 13.5434 5 13.5434H9C9.53125 13.5434 10 14.0121 10 14.5434V16.5434H12.5C13.3125 16.5434 14 15.8871 14 15.0434V14.7621C14 12.5746 12.3438 10.8246 10.2188 10.6059ZM8.5 14.5434C8.21875 14.5434 8 14.7934 8 15.0434C8 15.3246 8.21875 15.5434 8.5 15.5434C8.75 15.5434 9 15.3246 9 15.0434C9 14.7934 8.75 14.5434 8.5 14.5434ZM5.5 14.5434C5.21875 14.5434 5 14.7934 5 15.0434V16.5434H6V15.0434C6 14.7934 5.75 14.5434 5.5 14.5434Z" fill="white"/>
</svg>
