<svg width="14" height="17" viewBox="0 0 14 17" fill="none" xmlns="http://www.w3.org/2000/svg">
<path d="M13.625 15.6301H13V1.38013C13 0.973877 12.6562 0.630127 12.25 0.630127H1.75C1.3125 0.630127 1 0.973877 1 1.38013V15.6301H0.375C0.15625 15.6301 0 15.8176 0 16.0051V16.6301H14V16.0051C14 15.8176 13.8125 15.6301 13.625 15.6301ZM4 3.00513C4 2.81763 4.15625 2.63013 4.375 2.63013H5.625C5.8125 2.63013 6 2.81763 6 3.00513V4.25513C6 4.47388 5.8125 4.63013 5.625 4.63013H4.375C4.15625 4.63013 4 4.47388 4 4.25513V3.00513ZM4 6.00513C4 5.81763 4.15625 5.63013 4.375 5.63013H5.625C5.8125 5.63013 6 5.81763 6 6.00513V7.25513C6 7.47388 5.8125 7.63013 5.625 7.63013H4.375C4.15625 7.63013 4 7.47388 4 7.25513V6.00513ZM5.625 10.6301H4.375C4.15625 10.6301 4 10.4739 4 10.2551V9.00513C4 8.81763 4.15625 8.63013 4.375 8.63013H5.625C5.8125 8.63013 6 8.81763 6 9.00513V10.2551C6 10.4739 5.8125 10.6301 5.625 10.6301ZM8 15.6301H6V13.0051C6 12.8176 6.15625 12.6301 6.375 12.6301H7.625C7.8125 12.6301 8 12.8176 8 13.0051V15.6301ZM10 10.2551C10 10.4739 9.8125 10.6301 9.625 10.6301H8.375C8.15625 10.6301 8 10.4739 8 10.2551V9.00513C8 8.81763 8.15625 8.63013 8.375 8.63013H9.625C9.8125 8.63013 10 8.81763 10 9.00513V10.2551ZM10 7.25513C10 7.47388 9.8125 7.63013 9.625 7.63013H8.375C8.15625 7.63013 8 7.47388 8 7.25513V6.00513C8 5.81763 8.15625 5.63013 8.375 5.63013H9.625C9.8125 5.63013 10 5.81763 10 6.00513V7.25513ZM10 4.25513C10 4.47388 9.8125 4.63013 9.625 4.63013H8.375C8.15625 4.63013 8 4.47388 8 4.25513V3.00513C8 2.81763 8.15625 2.63013 8.375 2.63013H9.625C9.8125 2.63013 10 2.81763 10 3.00513V4.25513Z" fill="white"/>
</svg>
