<svg width="14" height="17" viewBox="0 0 14 17" fill="none" xmlns="http://www.w3.org/2000/svg">
<path d="M14 11.9668V1.4668C14 1.06055 13.6562 0.716797 13.25 0.716797H3C1.34375 0.716797 0 2.06055 0 3.7168V13.7168C0 15.373 1.34375 16.7168 3 16.7168H13.25C13.6562 16.7168 14 16.4043 14 15.9668V15.4668C14 15.248 13.875 15.0293 13.7188 14.9043C13.5625 14.4043 13.5625 13.0293 13.7188 12.5605C13.875 12.4355 14 12.2168 14 11.9668ZM4 4.9043C4 4.81055 4.0625 4.7168 4.1875 4.7168H10.8125C10.9062 4.7168 11 4.81055 11 4.9043V5.5293C11 5.6543 10.9062 5.7168 10.8125 5.7168H4.1875C4.0625 5.7168 4 5.6543 4 5.5293V4.9043ZM4 6.9043C4 6.81055 4.0625 6.7168 4.1875 6.7168H10.8125C10.9062 6.7168 11 6.81055 11 6.9043V7.5293C11 7.6543 10.9062 7.7168 10.8125 7.7168H4.1875C4.0625 7.7168 4 7.6543 4 7.5293V6.9043ZM11.9062 14.7168H3C2.4375 14.7168 2 14.2793 2 13.7168C2 13.1855 2.4375 12.7168 3 12.7168H11.9062C11.8438 13.2793 11.8438 14.1855 11.9062 14.7168Z" fill="white"/>
</svg>
