<svg width="46" height="60" viewBox="0 0 46 60" fill="none" xmlns="http://www.w3.org/2000/svg">
<path d="M15.1802 46.3828C15.1802 46.3828 12.91 47.7137 16.7959 48.164C21.5038 48.7054 23.9098 48.6279 29.0979 47.6379C29.0979 47.6379 30.462 48.5001 32.3667 49.247C20.7366 54.2719 6.04521 48.9558 15.1802 46.3828ZM13.759 39.8254C13.759 39.8254 11.2127 41.7257 15.1016 42.1311C20.1306 42.6541 24.1021 42.6969 30.9744 41.3629C30.9744 41.3629 31.9249 42.3343 33.4196 42.8657C19.3579 47.0109 3.69584 43.1925 13.759 39.8254Z" fill="#5BB0E9"/>
<path d="M25.7395 28.7022C28.6052 32.0282 24.9866 35.0212 24.9866 35.0212C24.9866 35.0212 32.263 31.2345 28.9212 26.4924C25.8002 22.0704 23.4066 19.873 36.364 12.2974C36.364 12.2974 16.0253 17.4182 25.7395 28.702" fill="#E76F00"/>
<path d="M41.1217 51.2328C41.1217 51.2328 42.8018 52.6282 39.2714 53.7079C32.5584 55.7581 11.3308 56.3772 5.43377 53.7896C3.31403 52.8601 7.28928 51.5699 8.53966 51.299C9.8437 51.0139 10.589 51.0672 10.589 51.0672C8.23158 49.3929 -4.64851 54.3545 4.04664 55.7753C27.7593 59.652 47.2725 54.0297 41.1217 51.2328ZM16.2719 33.0313C16.2719 33.0313 5.47436 35.6168 12.4483 36.5555C15.3929 36.9529 21.2629 36.8631 26.7307 36.4011C31.1993 36.0214 35.6863 35.2133 35.6863 35.2133C35.6863 35.2133 34.1106 35.8936 32.9707 36.6783C22.0058 39.5855 0.82361 38.2331 6.92169 35.2592C12.0789 32.7462 16.272 33.0313 16.272 33.0313H16.2719ZM35.6417 43.9461C46.7882 38.107 41.6345 32.4958 38.0374 33.2518C37.1556 33.4367 36.7626 33.5969 36.7626 33.5969C36.7626 33.5969 37.0899 33.0802 37.715 32.8565C44.8312 30.3342 50.3042 40.2953 35.4178 44.2403C35.4178 44.2405 35.5903 44.0851 35.6417 43.9461Z" fill="#5BB0E9"/>
<path d="M28.9212 0.0643824C28.9212 0.0643824 35.0942 6.28981 23.0663 15.8622C13.4213 23.5412 20.8669 27.9195 23.0624 32.9218C17.4323 27.801 13.3005 23.293 16.0726 19.0976C20.1409 12.9385 31.4118 9.95259 28.9212 0.064209" fill="#E76F00"/>
<path d="M17.367 59.7687C28.0661 60.4592 44.4957 59.3856 44.8848 54.282C44.8848 54.282 44.1369 56.2169 36.0426 57.7533C26.9107 59.4857 15.6479 59.2835 8.9677 58.1731C8.96788 58.1731 10.3352 59.3142 17.3672 59.7687" fill="#5BB0E9"/>
</svg>
