<svg width="60" height="60" viewBox="0 0 60 60" fill="none" xmlns="http://www.w3.org/2000/svg">
<g clip-path="url(#clip0_1807_31166)">
<path d="M0 0H60V60H0V0Z" fill="#F0DB4F"/>
<path d="M55.0893 45.6901C54.6502 42.9524 52.8649 40.6538 47.5779 38.5094C45.7414 37.6654 43.6939 37.0607 43.0836 35.6692C42.8668 34.8592 42.8383 34.4029 42.9753 33.9124C43.3687 32.3212 45.268 31.825 46.7737 32.2813C47.7433 32.6063 48.6616 33.3536 49.2148 34.5455C51.8041 32.8688 51.7984 32.8801 53.6064 31.7281C52.9449 30.7015 52.5912 30.2281 52.1578 29.7889C50.6007 28.0493 48.4791 27.154 45.0855 27.2224C44.4981 27.2965 43.905 27.3763 43.3174 27.4505C41.6236 27.8783 40.0095 28.768 39.0627 29.96C36.2224 33.1825 37.0323 38.8231 40.4886 41.1445C43.8936 43.6996 48.8953 44.2813 49.5342 46.6711C50.1559 49.597 47.3841 50.5436 44.6292 50.2072C42.5988 49.7851 41.4696 48.7528 40.249 46.8764C38.0019 48.1768 38.0019 48.1768 35.692 49.5056C36.2395 50.7034 36.8155 51.2452 37.7338 52.2832C42.0799 56.692 52.9563 56.4752 54.9069 49.8022C54.9867 49.574 55.5114 48.0455 55.0893 45.6901ZM32.6178 27.5759H27.0057C27.0057 32.4239 26.9829 37.2376 26.9829 42.0854C26.9829 45.1711 27.1426 47.9999 26.6407 48.8668C25.8195 50.5721 23.692 50.3611 22.7224 50.0303C21.7357 49.5455 21.2338 48.8554 20.6521 47.8801C20.4924 47.6006 20.3727 47.3839 20.3326 47.3668C18.81 48.2965 17.2927 49.2317 15.7699 50.1616C16.5285 51.7186 17.6464 53.0702 19.0779 53.9485C21.2167 55.2317 24.0912 55.6253 27.097 54.9352C29.0533 54.3649 30.7414 53.1844 31.6254 51.3877C32.9031 49.0322 32.6292 46.1806 32.6178 43.0265C32.6464 37.882 32.6178 32.7376 32.6178 27.5759Z" fill="#3E3E3E"/>
</g>
<defs>
<clipPath id="clip0_1807_31166">
<rect width="60" height="60" fill="white"/>
</clipPath>
</defs>
</svg>
