<svg width="288" height="59" viewBox="0 0 288 59" fill="none" xmlns="http://www.w3.org/2000/svg">
    <path d="M7.50857 36.5563C8.62373 36.5563 8.02674 35.7702 8.84453 35.5052C8.91887 35.439 8.99321 35.439 9.06756 35.3727C9.811 34.9091 9.58797 34.1142 10.1827 33.5843C10.3314 33.518 10.4801 33.3856 10.6288 33.3193C11.4466 32.8556 11.4466 32.8556 10.5544 32.5244C10.4057 32.4582 10.2571 32.392 10.1827 32.3257C9.58797 31.862 9.06757 31.3321 8.47282 30.8022C7.65504 30.5372 11.4466 30.4537 11.4466 30.0563C11.4466 29.5926 8.54716 29.0799 8.99322 29.0799C9.73666 29.0137 10.2571 28.6163 10.7775 28.3513C10.9262 28.2851 11.1492 28.2851 11.2979 28.2188C11.5209 28.0863 11.8926 27.9539 11.8926 27.6889C11.8926 26.8278 12.4874 26.3641 13.5282 26.0991C13.6769 26.0329 13.8999 25.9666 13.8256 25.8342C13.4539 25.3705 14.0486 25.1718 14.346 24.9068C14.569 24.7081 15.0151 24.4431 14.7177 24.2444C13.6769 23.5158 15.0151 23.5158 15.3124 23.1846C15.4611 23.0521 15.9072 23.0521 16.2046 22.9196C16.502 22.7871 16.6506 22.5884 16.5763 22.3235C16.502 22.0585 16.2046 22.1247 15.9072 22.191C15.5355 22.2572 15.3124 22.191 15.0151 22.0585C13.5282 21.5286 12.0413 20.7337 10.1827 21.1311C10.034 21.1311 9.88534 21.0649 9.73666 20.9987C9.36494 20.6675 8.84453 20.3362 8.62149 19.8726C10.5544 19.8726 12.1865 19.6888 11.8148 19.5563C11.1457 19.2251 15.9815 18.7272 10.1827 18.0563C10.3314 17.6588 8.02676 17.3554 8.69585 17.5542C8.84454 17.6204 13.3052 17.0905 13.3795 17.0243C13.4539 16.958 9.2906 17.3555 9.36495 17.2892C9.43929 17.223 9.43928 17.0905 9.51362 17.0243C10.2571 16.5606 14.0486 16.2422 14.346 15.4473C14.4204 15.1824 14.1973 15.1631 14.4947 14.9644C15.3868 14.3683 16.3533 13.7721 15.9816 12.7123C15.9072 12.5136 16.2046 12.4473 16.2789 12.3148C16.5763 11.8511 14.818 11.5862 14.9667 11.0563C15.1154 10.2614 13.2568 9.73787 14.1489 9.80411C14.2233 9.80411 14.372 9.80411 14.4463 9.80411C14.7437 9.40667 15.2641 9.14168 15.7102 8.94296C15.7102 8.87672 15.7102 8.81051 15.7102 8.81051C16.6023 8.54555 14.1675 7.64603 14.6135 7.24859C15.2826 6.78491 16.3234 6.5862 16.3978 5.72508C16.3978 5.72508 16.5465 5.65881 16.6208 5.65881C16.6952 5.65881 16.6952 5.65883 16.7695 5.59259C16.7695 5.39387 16.8438 5.19516 16.8438 5.06268C16.7695 4.2678 22.1521 4.17369 23.1929 4.10745C23.9364 4.04121 24.0107 3.8425 24.0107 3.37882C24.2337 3.1801 24.3081 2.78267 24.8285 2.84891C25.5719 2.98139 26.4641 2.38522 27.1331 3.04762C27.2075 3.1801 27.6535 3.11385 27.8766 3.11385C28.397 3.11385 28.9917 3.18011 29.5121 3.18011C32.7089 3.04763 35.9801 2.8489 39.1769 2.71642C51.2206 2.05402 63.2643 1.7228 75.308 1.32536C82.1476 1.0604 89.0616 0.861701 95.9013 0.729221C104.674 0.596741 113.446 0.530485 122.219 0.464245C126.382 0.464245 130.546 0.397996 134.709 0.331756C140.582 0.265516 146.577 1.12679 152.376 1.19303C162.115 1.25927 171.854 1.25925 181.593 1.25925C191.852 1.32549 202.064 0.596733 212.324 0.596733C217.379 0.596733 222.435 0.927933 227.49 1.25913C232.545 1.59033 237.601 1.78906 242.656 2.05402C245.258 2.1865 247.935 2.31898 250.537 2.38522C255.592 2.45146 260.647 2.51769 265.703 2.91513C266.372 2.98137 267.041 3.04761 267.561 3.44505C268.008 3.77625 268.585 3.15884 268.957 3.55628C268.957 3.62252 270.261 3.55628 270.187 3.55628C270.187 3.49004 270.802 3.62252 270.802 3.55628C273.999 3.755 275.062 3.5926 278.184 4.05628C279.523 4.255 279.922 3.85756 281.26 4.05628C281.781 4.12252 283.694 5.29979 283.917 5.49851C284.586 5.96219 285.553 6.09465 286.073 6.75705C286.445 7.28697 287.114 7.41944 287.857 7.28696C288.452 7.15448 286.966 7.22508 287.412 7.55628C287.933 7.95372 285.031 8.74427 284.66 9.14171C284.585 9.34043 285.864 9.4238 285.566 9.55628C285.641 10.0862 285.924 9.96012 286.073 10.5563C284.958 11.0862 285.33 11.6289 284.809 12.5563C284.512 13.02 284.289 13.4174 283.545 13.5499C283.174 13.6161 282.802 13.7486 283.174 14.1461C283.62 14.6097 283.545 14.9409 282.728 15.2721C282.282 15.4046 279.936 15.5563 279.415 15.5563C278.82 15.5563 278.374 15.755 278.597 16.2849C278.82 16.8148 279.861 17.3084 279.043 17.6396C278.82 17.7721 278.672 18.037 278.969 18.1033C279.936 18.2358 282.356 19.0777 283.397 19.2102C284.14 19.2764 284.809 19.4751 285.553 19.5414C286.147 19.6076 281.092 20.0926 281.018 20.5563C280.869 21.4174 285.553 21.7935 285.032 22.4559C284.958 22.4559 284.884 22.4559 284.809 22.4559C284.214 22.9859 283.099 23.0521 282.876 23.7807C282.802 23.847 282.728 23.847 282.653 23.9132C282.505 24.0457 282.356 24.1119 282.282 24.2444C282.059 24.9731 281.538 25.503 280.497 25.7679C280.126 25.8342 279.754 26.0991 279.828 26.4966C279.903 26.9602 280.423 26.7615 280.795 26.9603C280.126 27.159 279.68 27.6889 278.862 27.3577C278.713 27.2915 278.49 27.4239 278.341 27.5564C277.97 27.8214 277.598 28.0864 277.226 28.3513C277.747 28.55 278.267 28.7487 277.97 29.2124C277.747 29.6761 277.152 29.6761 276.557 29.4774C275.888 29.2786 280.159 29.3576 279.415 29.5563C279.267 29.8212 278.726 29.6588 278.8 30.0563C278.8 30.4537 276.096 30.7913 275.724 31.0563C276.096 31.6524 278.193 31.1588 278.862 31.5563C279.68 31.49 276.483 32.3919 277.3 32.4582C277.821 32.4582 277.97 32.7232 277.97 32.9881C277.97 33.2531 279.713 33.2913 279.415 33.5563C279.49 34.2187 276.929 34.9091 276.557 35.5052C276.557 35.5052 276.557 35.5052 276.557 35.5715C276.483 35.6377 272.63 35.7039 272.556 35.8364C272.556 35.9027 274.266 36.0747 274.117 36.1409C273.968 36.4059 271.44 36.1676 271.292 36.4988C270.92 37.1612 271.515 37.3276 271.292 38.0563C271.217 38.255 269.359 38.6185 268.987 38.6185C268.244 38.6848 271.812 38.6588 272.11 39.0563C272.63 39.7187 269.731 40.3408 270.92 40.2745C272.779 40.142 276.78 40.407 276.334 41.6655C276.26 41.798 276.26 41.9305 276.185 42.063C275.814 42.5929 276.111 42.8578 276.854 42.7254C277.524 42.6591 277.672 42.9241 277.598 43.2553C277.524 43.8515 274.178 44.0926 273.732 44.5563C273.286 45.02 274.845 45.8576 273.878 46.0563C273.283 46.6524 271.397 46.9601 270.802 47.5563C270.728 48.02 273.212 48.9519 272.468 49.0182C271.873 48.9519 270.485 49.2913 270.187 49.5563C270.187 49.6888 270.579 49.5563 270.802 49.5563C271.1 49.6225 270.187 49.7913 270.187 50.0563C270.187 50.3212 269.795 50.3576 269.572 50.5563C268.977 51.02 270.187 51.5563 270.187 51.5563C269.89 51.8212 269.423 51.6588 269.572 52.0563C269.572 52.0563 269.085 52.8212 268.342 52.5563C267.524 52.2913 266.744 52.6614 265.926 52.5951C264.662 52.7276 263.324 52.5952 262.06 52.5289C260.796 52.4627 262.385 52.4793 261.939 53.6054C261.865 53.6717 261.79 53.6716 261.716 53.7379C261.493 54.1353 260.75 54.0029 260.452 54.3341C260.229 54.599 259.263 54.9965 260.675 54.9965C260.973 54.9965 260.973 55.1952 260.973 55.3939C260.378 55.6588 259.932 56.0563 259.114 56.0563C258.222 56.0563 255.072 56.3708 255.369 57.0332C255.666 57.5632 255.146 58.0268 254.328 58.0268C250.314 58.0268 246.299 58.0931 242.21 58.0268C235.519 57.9606 228.903 57.8281 222.212 57.7619C215 57.6956 207.715 57.8281 200.503 57.6294C187.493 57.2982 174.409 56.702 161.398 56.2383C156.046 56.0396 150.618 55.8409 145.266 55.7084C138.129 55.6422 130.917 55.5097 123.78 55.6422C119.914 55.7084 116.123 55.576 112.257 55.5097C103.038 55.4435 93.8197 55.4435 84.601 55.3772C78.9509 55.311 73.3007 55.1123 67.7249 54.9798C65.1972 54.9135 62.6695 54.9136 60.1418 55.046C59.9931 55.1123 59.7701 55.1785 59.6214 55.1785C58.5806 55.1123 57.5398 55.1785 56.499 55.2447C55.6069 55.2447 54.6404 55.2448 53.7483 55.3772C53.5996 55.3772 53.5252 55.3772 53.3765 55.3772C52.8561 55.576 52.3357 55.311 51.741 55.311C49.585 55.5097 47.429 55.5097 45.2731 55.5759C42.0763 55.6422 38.8795 55.7084 35.6084 55.8409C33.0063 55.9734 30.3299 56.2383 27.7279 56.2383C24.3824 56.2383 21.0369 56.3708 17.6915 56.3708C17.3197 56.3708 16.7362 56.5563 16.6671 56.2383C16.5927 56.1721 16.4811 56.626 16.4811 56.2383C16.1837 56.1721 17.0335 56.6225 16.7362 56.5563C15.7697 56.1588 16.0058 56.1059 14.8907 56.2383C13.6268 56.4371 9.36493 55.7747 8.84453 55.1785C8.77018 55.1123 2.00491 53.9238 1.93057 53.9238C1.63319 53.7251 1.2615 53.5264 0.964121 53.3939C0.295025 53.0627 0.592381 52.5328 0.518037 52.1353C0.443693 51.7379 1.11278 51.8041 1.4845 51.7379C1.85622 51.6716 2.22793 51.7379 2.52531 51.4729C2.67399 51.4067 2.82271 51.2742 3.12009 51.3405C3.41746 51.208 3.64048 51.0755 3.93786 50.943C3.93786 50.943 3.93786 50.943 3.86352 50.943C4.45827 50.3468 4.3096 49.4857 5.05304 48.9558C4.90435 48.4259 4.23524 48.6246 3.86352 48.6909C2.74836 48.8896 2.07925 48.5584 1.55884 47.896C1.4845 47.8297 1.41017 47.7635 1.41017 47.7635C1.41017 47.6972 1.41017 47.631 1.41017 47.4985C1.26148 47.2998 1.11278 47.1011 0.889744 47.0349C-0.076727 46.5712 -0.0767155 45.975 0.0719724 45.2464C0.9641 45.4451 1.70754 45.4451 2.1536 44.8489C2.52532 44.2528 3.64048 44.319 3.93786 43.6566C3.93786 43.5903 3.93786 43.5904 3.93786 43.5241C3.78917 42.9942 4.23522 42.7293 4.75563 42.5305C5.49907 42.2656 6.31685 42.1331 5.87079 41.3382C5.87079 41.2719 7.97506 40.6888 8.12375 40.5563C8.27243 40.4238 11.0005 40.5767 10.7775 40.3117C10.5544 40.113 14.4203 40.4732 14.123 40.5395C12.8591 41.0031 12.0413 40.2083 11.2235 39.8108C10.8518 39.6121 10.4801 39.4134 10.1084 39.4796C9.43929 39.5459 8.77019 39.3472 8.10109 39.6121C7.87806 39.6784 10.0436 39.1888 9.96925 39.0563C9.52319 38.3939 11.4466 38.52 10.7775 38.0563C10.5544 37.5926 11.3744 36.5563 7.50857 36.5563Z" fill="#343434"/>
    <path d="M19.2861 56.135C32.5783 56.135 45.8705 56.135 59.1627 56.135C67.8371 56.135 76.5115 56.135 85.1859 56.135C95.6168 56.135 105.971 56.6481 116.4 56.6481C148.946 56.6481 181.493 56.6481 214.04 56.6481" stroke="#343434" stroke-width="3" stroke-linecap="round"/>
</svg>
