<svg width="22" height="18" viewBox="0 0 22 18" fill="none" xmlns="http://www.w3.org/2000/svg">
<path d="M13.9375 2.28125L9.9375 16.2812C9.78125 16.8125 9.25 17.125 8.71875 16.9688C8.1875 16.8125 7.875 16.2812 8.03125 15.75L12.0312 1.75C12.1875 1.21875 12.7188 0.90625 13.25 1.0625C13.7812 1.21875 14.0938 1.75 13.9375 2.28125ZM17.1875 4.8125L20.6875 8.3125C21.0938 8.6875 21.0938 9.34375 20.6875 9.71875L17.1875 13.2188C16.8125 13.625 16.1562 13.625 15.7812 13.2188C15.375 12.8438 15.375 12.1875 15.7812 11.8125L18.5625 9L15.7812 6.21875C15.375 5.84375 15.375 5.1875 15.7812 4.8125C16.1562 4.40625 16.8125 4.40625 17.1875 4.8125ZM6.1875 6.21875L3.40625 9L6.1875 11.8125C6.59375 12.1875 6.59375 12.8438 6.1875 13.2188C5.8125 13.625 5.15625 13.625 4.78125 13.2188L1.28125 9.71875C0.875 9.34375 0.875 8.6875 1.28125 8.3125L4.78125 4.8125C5.15625 4.40625 5.8125 4.40625 6.1875 4.8125C6.59375 5.1875 6.59375 5.84375 6.1875 6.21875Z" fill="#EF5D5D"/>
</svg>
