<svg width="286" height="249" viewBox="0 0 286 249" fill="none" xmlns="http://www.w3.org/2000/svg">
<path d="M1.79641 109.693C1.6049 109.317 0.902193 109.96 0.722972 110.004C1.34095 110.437 1.99307 109.54 1.79641 109.693Z" fill="#BDFF00"/>
<path d="M7.87407 113.685L7.47838 113.813L8.89425 114.055L7.87407 113.685Z" fill="#BDFF00"/>
<path d="M12.006 118.482C12.905 117.103 10.2716 116.898 9.98614 115.716L10.1654 115.366L8.77617 115.715C9.85182 116.645 11.722 117.496 12.006 118.482Z" fill="#BDFF00"/>
<path d="M11.4017 123.066C11.7639 122.537 12.3288 123.304 11.0226 122.354C11.0158 122.454 11.004 122.493 10.9879 122.558C11.0927 122.656 11.2083 122.805 11.4017 123.066Z" fill="#BDFF00"/>
<path d="M10.9814 122.566C10.5014 122.08 10.8611 123.208 10.9814 122.566V122.566Z" fill="#BDFF00"/>
<path d="M13.4057 124.632L12.3391 124.308C12.177 124.664 12.6609 125.298 12.2373 125.243C13.1223 125.734 13.2829 125.376 13.4057 124.632Z" fill="#BDFF00"/>
<path d="M14.9374 124.528L14.4325 124.328C14.3626 124.482 14.4043 124.601 14.9374 124.528Z" fill="#BDFF00"/>
<path d="M13.3595 123.915L14.4343 124.334C14.5444 124.089 14.9521 123.766 13.9755 124.112C14.4158 123.887 13.9143 124.019 13.3595 123.915Z" fill="#BDFF00"/>
<path d="M13.1862 123.376C13.1185 122.805 12.8587 122.202 13.9136 122.527C12.5614 121.414 11.8279 122.26 13.1862 123.376Z" fill="#BDFF00"/>
<path d="M13.5768 117.728L13.5184 116.959L12.7053 116.845C13.1133 116.905 13.1942 118.053 13.5768 117.728Z" fill="#BDFF00"/>
<path d="M16.584 129.148C16.8928 128.978 17.0743 128.38 17.3729 128.064L16.6042 127.82C16.6571 128.212 16.9414 128.81 16.584 129.148Z" fill="#BDFF00"/>
<path d="M17.3804 128.052L18.5493 128.392C17.9672 127.728 17.6352 127.782 17.3804 128.052Z" fill="#BDFF00"/>
<path d="M16.4797 123.567L14.383 123.122L16.7096 123.783L16.4797 123.567Z" fill="#BDFF00"/>
<path d="M19.2419 131.827L18.2117 131.922L19.8693 131.89L19.2419 131.827Z" fill="#BDFF00"/>
<path d="M21.1258 133.494C20.3221 133.608 20.6873 134.597 20.0619 134.538C20.6387 134.953 21.5011 135.012 22.2848 135.048C21.6387 134.845 21.2623 134.378 21.1258 133.494Z" fill="#BDFF00"/>
<path d="M23.5033 135.163C23.1829 135.068 22.751 135.046 22.2841 135.02C22.6213 135.129 23.0066 135.193 23.5033 135.163Z" fill="#BDFF00"/>
<path d="M19.6065 129.662C19.4976 129.85 19.1881 130.285 19.4082 130.817L19.8685 129.95C19.7938 129.861 19.7009 129.763 19.6065 129.662Z" fill="#BDFF00"/>
<path d="M19.8928 129.914L19.8766 129.946C20.1521 130.259 20.3507 130.472 20.4335 130.568C20.3687 130.482 20.2061 130.288 19.8928 129.914Z" fill="#BDFF00"/>
<path d="M19.5435 129.595C19.5753 129.62 19.5905 129.639 19.6177 129.663C19.6606 129.578 19.6649 129.546 19.5435 129.595Z" fill="#BDFF00"/>
<path d="M17.539 125.924C18.3696 126.02 19.658 126.552 19.5049 125.196C18.694 125.295 18.7834 126.069 17.539 125.924Z" fill="#BDFF00"/>
<path d="M20.1583 128.516L19.5747 127.642C19.3902 127.811 19.2358 128.172 18.8246 128.13L20.1583 128.516Z" fill="#BDFF00"/>
<path d="M20.763 128.676L20.1586 128.503L20.3711 128.828L20.763 128.676Z" fill="#BDFF00"/>
<path d="M22.8759 133.351C23.5201 133.404 23.9226 133.72 24.3884 134.061C24.0956 133.521 23.6934 133.05 23.2751 132.631C22.9858 132.764 22.3898 132.919 22.8759 133.351Z" fill="#BDFF00"/>
<path d="M21.4865 131.634C21.5302 131.64 21.5665 131.66 21.6042 131.67C21.626 131.569 21.6046 131.521 21.4865 131.634Z" fill="#BDFF00"/>
<path d="M28.48 137.764L28.5454 137.59L28.4067 137.684L28.48 137.764Z" fill="#BDFF00"/>
<path d="M23.3553 132.453C23.1729 132.021 22.8022 131.977 22.3927 131.981C22.7072 132.16 23.0099 132.373 23.289 132.637C23.421 132.579 23.4899 132.528 23.3553 132.453Z" fill="#BDFF00"/>
<path d="M25.0052 135.908C24.9789 135.619 24.9076 135.329 24.8228 135.036C24.7593 135.386 24.7595 136.008 25.0052 135.908Z" fill="#BDFF00"/>
<path d="M21.5032 131.938C21.4729 131.934 21.4426 131.931 21.4183 131.917C21.3702 132.152 21.4362 132.077 21.5032 131.938Z" fill="#BDFF00"/>
<path d="M21.5068 131.932C21.7782 132.014 22.0927 131.996 22.3906 131.991C22.1294 131.848 21.8698 131.726 21.6001 131.66C21.5916 131.744 21.55 131.846 21.5068 131.932Z" fill="#BDFF00"/>
<path d="M34.372 134.827C33.6486 135.361 32.1221 135.129 32.0954 133.804C30.8468 133.558 29.1254 135.895 28.5731 137.57C28.8887 137.336 29.1498 137.112 30.331 137.471C30.4027 136.913 29.4601 135.155 30.7181 135.233C32.0761 135.872 31.3162 136.203 31.4843 136.954C31.8724 135.856 34.0257 137.039 35.0063 135.764L33.6592 135.359C33.8203 135.175 34.4568 135.194 34.372 134.827Z" fill="#BDFF00"/>
<path d="M27.1384 136.203L26.732 135.984C26.9835 136.412 26.9794 136.878 26.9395 137.766C27.7943 137.973 28.1485 137.861 28.4062 137.702L26.9291 136.187L27.1384 136.203Z" fill="#BDFF00"/>
<path d="M25.3286 134.685C26.3123 134.299 27.3869 134.732 27.707 133.635C26.7279 132.823 26.4474 133.554 25.5694 133.31C27.2599 134.539 24.7247 133.257 25.4021 134.603C24.9787 134.437 24.6729 134.222 24.3869 134.019C24.5739 134.341 24.7262 134.673 24.8408 135.015C24.8406 134.989 24.842 134.971 24.8493 134.944L24.8417 134.938L24.8538 134.932C24.8755 134.798 24.9173 134.729 24.9348 134.842C24.9514 134.836 24.9727 134.851 24.9879 134.856C25.0872 134.783 25.2094 134.733 25.3286 134.685C25.6065 135.22 25.2032 134.912 24.9849 134.858C24.9382 134.886 24.8929 134.904 24.8523 134.936L24.8479 134.948L26.761 136.004C26.5507 135.617 26.1289 135.266 25.3286 134.685Z" fill="#BDFF00"/>
<path d="M21.8951 124.671C21.8731 124.766 21.8174 124.806 21.7633 124.855C21.9511 124.872 22.0479 124.86 21.8951 124.671Z" fill="#BDFF00"/>
<path d="M22.0039 125.611C21.7923 125.593 21.4038 125.744 21.138 125.352C21.0771 124.882 21.5044 125.068 21.74 124.858C21.3348 124.813 20.5097 124.554 20.7539 125.497L20.958 125.515C21.2719 126.284 21.0761 127.761 20.8721 127.743C21.3773 127.047 21.7192 126.515 22.0039 125.611Z" fill="#BDFF00"/>
<path d="M23.8379 130.023L25.4043 130.909L25.4397 129.782L25.0796 130.129C24.5521 129.333 24.2281 129.861 23.8379 130.023Z" fill="#BDFF00"/>
<path d="M28.2511 138.207L27.3195 138.721L29.1412 138.445L28.2511 138.207Z" fill="#BDFF00"/>
<path d="M30.0209 139.569L29.306 140.094L30.1525 140.128L30.0209 139.569Z" fill="#BDFF00"/>
<path d="M155.097 171.602L155.652 171.357C155.389 171.437 155.224 171.519 155.097 171.602Z" fill="#BDFF00"/>
<path d="M151.19 171.702L151.051 172.089C151.254 171.877 151.342 171.72 151.19 171.702Z" fill="#BDFF00"/>
<path d="M77.4407 168.682C77.7339 169.637 77.9023 171 78.3116 170.172L78.576 169.304C77.9898 169.229 77.6628 168.984 77.4407 168.682Z" fill="#BDFF00"/>
<path d="M118.219 174.375C118.174 174.276 118.124 174.176 118.074 174.08C117.794 174.335 117.529 174.575 117.281 174.796C117.568 174.664 117.89 174.523 118.219 174.375Z" fill="#BDFF00"/>
<path d="M119.957 170.974L120.781 171.659C120.621 171.437 120.348 171.227 119.957 170.974Z" fill="#BDFF00"/>
<path d="M176.521 168.5L177.095 167.549C176.117 167.693 176.576 168.065 176.521 168.5Z" fill="#BDFF00"/>
<path d="M48.5161 153.079C48.8039 153.708 49.1185 154.11 49.4682 154.393C49.1833 153.562 49.2137 152.616 48.5161 153.079Z" fill="#BDFF00"/>
<path d="M152.622 180.713C152.992 180.54 153.152 180.36 153.16 180.169C152.783 180.332 152.567 180.506 152.622 180.713Z" fill="#BDFF00"/>
<path d="M51.0248 155.415C50.9877 155.284 50.9283 155.187 50.8837 155.063C50.386 154.917 49.9047 154.746 49.464 154.381C49.6673 155.002 50.0597 155.555 51.0248 155.415Z" fill="#BDFF00"/>
<path d="M252.306 144.712C252.371 144.72 252.443 144.707 252.51 144.724C252.473 144.618 252.402 144.647 252.306 144.712Z" fill="#BDFF00"/>
<path d="M277.581 140.468C277.407 140.633 277.075 140.84 276.764 141.039C276.953 140.99 277.205 140.833 277.581 140.468Z" fill="#BDFF00"/>
<path d="M36.6397 145.504C36.2188 145.249 36.5087 145.525 36.6397 145.504V145.504Z" fill="#BDFF00"/>
<path d="M37.6278 141.468C37.7895 141.454 37.9509 141.407 38.1207 141.261C37.9279 141.396 37.759 141.458 37.6278 141.468Z" fill="#BDFF00"/>
<path d="M59.0114 153.394C59.022 153.404 59.0326 153.409 59.0432 153.419C59.0431 153.205 59.0359 153.245 59.0114 153.394Z" fill="#BDFF00"/>
<path d="M36.3895 144.761C36.446 144.95 36.5353 145.147 36.6632 145.33C36.6415 145.217 36.5598 145.039 36.3895 144.761Z" fill="#BDFF00"/>
<path d="M36.1416 145.137C36.0339 145.008 35.955 144.912 35.873 144.818C35.7172 144.889 35.6833 144.99 36.1416 145.137Z" fill="#BDFF00"/>
<path d="M37.1973 145.869C36.9725 145.711 36.8046 145.522 36.662 145.323C36.6898 145.427 36.6813 145.49 36.6363 145.495C36.7599 145.573 36.9258 145.68 37.1973 145.869Z" fill="#BDFF00"/>
<path d="M212.999 162.844C213.04 162.858 213.084 162.864 213.128 162.89C213.544 162.399 213.335 162.518 212.999 162.844Z" fill="#BDFF00"/>
<path d="M94.3474 164.804C94.3219 164.808 94.3009 164.819 94.277 164.826C94.2921 164.844 94.3178 164.859 94.3314 164.875L94.3474 164.804Z" fill="#BDFF00"/>
<path d="M96.2943 164.73C95.0711 165.508 94.7274 165.252 94.3143 164.863L93.6191 167.375L96.2943 164.73Z" fill="#BDFF00"/>
<path d="M164.968 171.043L163.707 170.372C165.273 169.013 166.358 169.308 165.194 168.355C164.959 171.068 160.284 168.978 159.984 171.67L159.167 171.164C159.412 171.181 159.458 171.014 159.696 171.028C158.134 169.835 158.374 173.016 156.264 172.733C155.543 172.558 155.055 172.191 155.583 171.852L153.879 172.587C153.413 172.537 153.567 172.074 154.032 172.115L151.514 172.367L151.543 172.284C151.144 172.709 150.258 173.371 149.824 173.656C149.23 173.279 150.181 173.363 150.057 173.031L148.58 173.703C148.099 173.016 149.332 172.327 150.277 172.414C149.306 169.748 149.042 173.131 146.47 171.517L147.806 171.2C147.177 169.669 146.103 170.203 144.804 169.234C145.05 169.732 147.373 171.661 145.782 172.311C145.389 172.105 144.852 172 143.958 172.526C144.106 171.569 143.276 171.811 142.287 171.81L142.57 170.555C141.458 170.87 141.424 171.516 140.704 172.055C139.54 171.88 139.488 170.887 139.37 170.054C137.537 169.769 140.37 171.677 138.091 171.819C136.62 171.245 135.431 171.658 133.38 172.275C132.383 171.757 133.751 171.516 133.437 171.131L132.234 172.057C132 172.018 132.151 171.713 132.227 171.562C131.318 171.874 131.861 172.814 130.483 173.017C129.77 174.36 128.366 170.715 126.363 172.11C126.07 171.713 126.766 171.364 126.783 170.863C124.337 171.603 124.73 171.351 122.528 172.482L121.266 171.449C122.089 172.529 120.306 173.477 118.747 174.146C118.999 174.665 119.212 175.129 119.382 175.346L117.139 175.658C116.962 175.411 117.313 175.018 117.815 174.564C117.641 174.641 117.479 174.719 117.342 174.797C116.777 174.208 117.401 173.558 118.143 172.957C118.303 173.243 118.459 173.548 118.606 173.851C119.355 173.183 120.086 172.426 120.221 171.678C120.043 171.801 119.757 171.879 119.461 171.903C119.655 171.721 119.798 171.548 119.778 171.416C119.76 171.269 119.458 171.512 119.029 171.771L119.05 170.307L118.754 170.836L116.494 169.518C114.164 170.611 111.823 172.243 108.63 172.197C109.762 171.353 109.444 170.594 109.97 169.419C110.26 170.844 112.427 169.357 113.809 169.93C113.084 169.63 113.473 169.097 113.743 168.941L110.641 169.521C111.093 168.559 110.371 168.671 109.844 168.124C109.574 170.178 107.35 168.918 106.028 169.233C106.236 168.576 106.78 167.986 108.008 168.469C107.202 166.671 105.176 170.239 104.289 168.668C104.615 168.727 104.747 168.869 105.017 168.58C104.008 168.972 102.392 168.038 103.078 167.594L103.399 167.67C101.425 166.836 97.0678 165.851 95.9535 167.288C96.0445 167.069 97.2075 165.463 97.4939 165.182C97.4939 165.182 95.8862 166.211 94.277 167.244C92.6343 168.261 90.9855 169.282 90.9855 169.282C92.0389 168.035 92.5552 164.405 94.6595 164.202C94.2757 163.847 93.7988 163.427 92.5154 163.569C92.7379 163.871 92.2741 165.794 91.7531 165.766C91.3287 163.842 91.3242 164.652 90.5391 162.823C90.8645 163.292 89.1237 165.197 88.3755 164.84C88.6787 164.567 89.5152 162.738 89.9182 162.627L86.7885 163.966C87.4946 163.777 87.9021 162.254 87.8192 161.518C87.7712 162.009 86.1943 160.864 85.5883 160.836L86.0893 161.642C84.1658 160.452 82.2113 163.626 80.1192 162.626C80.6543 162.317 82.4081 160.322 81.504 159.621C80.3414 160.475 76.0924 163.597 73.6412 163.506L73.6781 162.755L71.765 162.745C73.7563 161.652 78.458 159.572 80.6075 158.912C80.1458 158.092 80.8536 158.121 79.6596 157.643C79.6283 156.906 80.8519 157.098 81.2051 157.226L78.7791 155.64C78.0809 156.881 75.9008 155.883 75.3057 156.912L79.0902 157.034C78.4118 158.275 75.0621 159.637 73.2725 158.494C73.1245 157.783 75.1302 156.582 75.37 156.166C74.8423 156.448 73.0384 156.034 73.0751 155.662L74.3199 155.438C73.6158 154.472 71.4844 156.123 71.0613 154.371C70.6825 154.077 70.9085 152.227 70.3121 152.875C70.0044 154.547 67.0599 158.711 65.8098 159.457C65.6979 159.308 64.4866 156.925 64.5025 156.016C64.6118 154.597 67.4811 154.163 67.5737 152.946C67.3027 153.245 66.6101 153.417 66.3583 153.454C66.1237 152.936 67.3038 152.587 66.2349 152.187C65.1468 153.254 64.3554 150.997 64.9969 152.913C63.7838 152.711 64.1801 152.112 63.0371 151.54C62.771 152.495 59.9892 153.457 58.7696 153.205C59.0683 152.951 59.1753 152.444 59.2237 152.209C57.4148 150.923 56.7842 149.848 55.1007 148.668C55.1814 148.295 54.6465 147.421 55.4341 147.174C55.0108 147.207 54.4476 147.432 53.8925 147.107C53.7451 145.468 55.2015 147.739 55.4713 146.071C54.8215 146.671 53.2971 146.056 52.1834 145.95C51.4996 147.091 53.7543 147.302 54.865 147.402C53.6258 148.78 51.0033 149.334 48.5817 148.735C46.8263 148.092 48.7905 147.432 48.355 147.458C45.9643 145.321 43.8525 148.161 42.5898 145.603C42.5574 144.131 44.2168 143.906 44.6302 143.157C46.0824 143.655 45.8431 144.954 46.6472 145.48L46.0909 144.395C46.7269 144.373 47.6875 144.708 47.8631 145.248C47.8868 143.959 43.5719 141.938 42.3843 139.685C41.7543 139.69 40.8617 139.511 40.8005 140.059L41.5321 140.428C41.4114 141.54 39.4156 140.435 39.8705 141.363C38.5573 141.175 36.834 141.173 36.0681 139.865L36.8478 138.762C36.5722 139.061 37.0054 139.934 37.6428 139.901C36.6912 139.941 37.2399 137.208 35.4102 137.981L35.5096 139.293C34.2038 139.072 32.1231 139.189 31.4297 138.045C30.8898 139.334 31.7766 138.137 31.3291 139.805C32.1518 137.961 33.8665 142.069 34.3794 139.821C33.768 141.694 35.0854 141.43 34.9672 143.279C35.2623 142.947 35.2324 142.408 35.9555 143.26C36.0947 143.198 36.3115 143.157 36.4374 143.139C36.4558 143.169 36.462 143.179 36.4713 143.207C36.4711 143.181 36.4679 143.156 36.4616 143.132C36.5511 143.114 36.5677 143.108 36.4584 143.108C36.3893 142.806 36.3962 142.51 36.5069 142.284C37.6899 141.92 39.0662 143.034 39.918 143.035C40.2836 143.596 39.3288 143.224 39.2723 143.78L40.5461 143.779C39.9019 144.527 40.7604 146.03 39.1118 145.462L40.1936 146.366C40.4811 147.251 41.2693 148.085 42.1342 148.212C42.53 148.763 44.2751 148.428 43.2624 148.636L45.4887 149.506L45.3383 149.694C47.0522 151.081 50.2175 151.035 51.1218 153.777C51.9069 154.01 52.7631 154.189 53.6563 155.056L53.3129 155.826C54.3277 156.105 55.2438 157.996 56.171 157.538C55.5737 159.872 59.9677 160.288 61.2092 161.445L61.9454 160.612C62.928 161.251 64.1145 161.547 65.7018 161.852L66.2028 161.036C67.7995 160.964 68.6732 163.074 70.5437 163.884C70.1979 164.134 69.7993 163.828 69.613 163.48C70.5256 166.32 75.1095 164.324 76.1997 166.55C76.8929 166.471 77.1969 166.722 77.4212 167.066C77.3725 167.053 77.3224 167.05 77.2678 167.059C77.3151 167.09 77.3837 167.13 77.4675 167.161C77.6043 167.389 77.7307 167.647 77.8995 167.881C77.8093 167.597 77.7103 167.352 77.5832 167.205C77.9836 167.35 78.6375 167.495 79.3469 167.534L79.0445 168.508C79.1037 168.513 79.1358 168.532 79.1965 168.539C79.5682 169.096 79.9145 168.317 80.0194 167.533C80.3989 167.514 80.7689 167.453 81.1065 167.327C80.7101 168.921 82.9009 167.497 82.6422 169.229C83.4834 168.645 85.9501 169.787 87.1569 168.337C87.0552 168.552 87.1779 168.712 86.8583 168.605C87.4035 169.032 87.9639 169.45 88.7972 169.225L88.4512 170.456L90.7451 169.422C91.249 170.403 91.4139 170.932 90.0518 171.509C92.9105 170.867 92.0625 171.578 94.5591 170.834L94.0968 171.542C94.7511 171.74 96.3021 171.038 96.3911 171.771C96.7761 172.69 98.5811 173.269 100.684 173.914C102.81 174.483 105.227 175.147 106.91 176.255C107.055 173.86 108.328 177.645 109.176 175.947C109.196 176.522 109.63 176.938 108.811 177.265C111.021 177.16 111.516 178.78 113.459 177.537C113.504 178.114 112.74 178.242 112.838 178.591C113.041 178.508 113.653 178.244 113.755 178.593C113.849 178.948 113.297 178.988 112.89 179.164C115.022 179.451 115.792 177.835 116.468 176.316C117.255 177.233 117.823 177.219 118.899 176.335C119.098 176.892 119.543 177.522 118.191 177.502C118.883 177.696 122.419 178.885 122.858 177.654C122.994 177.999 123.853 177.888 124.078 177.769C125.687 178.056 125.807 178.161 127.452 178.225L127.065 177.969C128.098 176.527 128.484 177.78 129.832 177.736L129.753 177.889C132.482 179.255 131.156 177.476 133.834 178.956L133.883 178.002C134.583 175.992 136.234 179.421 138.134 178.696L137.621 178.126C138.674 177.473 139.745 181.009 140.677 181.31C140.862 181.492 140.295 181.579 139.98 181.696C142.306 183.004 140.517 180.488 142.441 180.246C142.681 180.924 141.724 181.936 142.977 182.084C143.55 182.621 146.965 179.998 148.526 181.241C148.203 180.731 147.893 180.221 148.811 179.82C150.141 179.617 152.232 181.727 153.594 180.063C153.75 180.198 153.799 180.331 153.802 180.459C154.861 180 157.181 179.623 157.85 178.713C158.218 180.342 159.842 179.843 161.325 179.307C162.809 178.777 164.158 178.224 164.118 179.729C164.118 179.729 164.909 179.626 165.698 179.506C166.491 179.386 167.278 179.276 167.278 179.276L167.194 179.591C169.218 179.59 169.926 178.816 170.618 178.003C171.082 178.147 170.752 178.469 170.716 178.631C173.667 178.867 173.985 178.735 176.352 176.904L176.66 177.834C177.279 177.17 181.029 178.753 183.817 177.102C183.797 177.22 183.751 177.414 183.536 177.594C184.32 177.173 185.214 177.045 186.123 177.036C187.037 177.007 187.968 177.085 188.837 177.108C190.57 177.151 192.024 176.94 192.349 175.073L194.325 173.765C191.559 174.087 194.489 172.181 193.282 171.846C194.298 171.42 196.201 172.296 194.923 172.754L194.688 172.628C194.508 174.547 198.17 172.507 198.319 173.73C203.656 172.393 209.087 171.96 214.097 170.518L213.154 169.329L214.899 168.888C215.442 169.07 215.813 169.77 214.554 170.088C215.428 170.663 216.448 168.812 216.388 168.505C218.951 168.286 215.909 170.383 216.656 170.182L217.637 169.758L217.36 169.675C218.011 168.861 217.909 168.251 219.402 167.846C220.417 167.819 220.138 168.525 220.524 168.456C220.553 168.557 220.69 168.563 221.101 168.307L223.305 167.69L222.094 166.923C222.877 166.074 224.133 166.292 222.751 165.431C224.834 166.821 230.952 163.264 232.033 163.481C233.059 162.241 234.352 161.735 235.993 161.2C235.506 161.141 234.801 160.07 236.225 159.679C236.718 162.277 239.161 159.7 241.017 160.95C239.539 160.241 244.795 159.028 242.531 158.082C243.758 157.784 242.994 158.938 244.111 159.122C246.41 157.055 250.365 157.1 253.541 155.234C253.435 154.905 252.647 154.706 253.124 153.923L255.65 154.606C256.225 154.152 255.331 152.584 257.07 153.05C256.771 152.879 256.315 152.617 256.695 152.312C260.298 151.484 263.396 149.524 266.534 147.668C269.681 145.807 272.859 144.056 276.892 143.488C275.662 143.448 276.195 143.057 276.826 142.656C276.311 142.775 276.35 141.956 276.003 141.621L279.35 141.105C279.061 139.779 282.083 139.298 281.598 138.132L280.926 138.827C281.103 136.996 277.471 137.195 276.533 135.575C276.323 137.653 272.035 135.474 271.428 138.544C270.782 138.484 271.458 137.833 270.985 137.61C270.942 138.561 270.428 139.048 269.11 139.388L269.131 139.148C266.085 141.087 264.305 141.175 260.459 142.61L261.193 143.263C260.355 143.56 260.047 143.394 259.567 143.381C259.381 145.047 261.784 142.325 261.754 144.063C259.788 142.999 256.234 146.868 254.496 145.345C253.284 145.923 255.359 146.104 254.146 146.68L253.553 146.333L253.598 147.133C252.746 147.411 252.009 146.975 251.752 146.558C251.974 146.519 252.238 146.169 252.423 146.037C251.089 145.94 249.627 147.618 249.176 147.592L250.498 147.356C247.429 149.408 243.033 150.564 240.245 152.995L240.669 153.285C238.487 155.082 238.473 153.698 235.86 155.17L235.923 155.03C235.539 155.656 234.87 156.16 234.094 156.407C234.602 155.667 232.406 156.017 233.11 155.138C230.69 157.001 232.021 156.301 230.771 158.486L230.09 157.977C229.697 158.817 229.765 159.156 228.425 159.854C229.361 158.846 227.151 159.167 228.159 157.924C224.703 157.539 224.307 160.99 222.208 159.313C221.488 161.663 225.123 159.455 224.5 160.118C225.351 160.499 223.862 161.922 222.852 162.056C221.883 162.33 220.434 160.202 218.084 161.027C218.322 160.962 218.293 160.811 218.533 160.741C217.497 160.553 216.987 161.956 215.652 161.524C215.377 162.869 214.215 161.913 214.46 163.435L216.559 162.393C215.44 163.168 214.756 165.276 212.437 165.054C212.517 164.712 213.027 164.133 213.384 163.79C212.663 163.536 212.299 164.424 211.55 164.171C211.322 162.636 214.155 163.058 215.15 161.5C214.33 161.092 212.942 163.348 213.157 161.551C212.755 163.868 210.738 161.997 209.531 164.035L209.405 163.117C209.189 163.336 208.758 163.899 208.279 164.011L208.848 162.62C207.78 163.968 206.103 162.465 204.981 163.351C207.606 162.587 205.835 164.259 207.1 164.599C204.112 166.71 204.676 162.792 201.142 164.163C201.603 163.911 203.11 164.223 202.429 164.844C201.686 164.836 200.694 164.731 200.18 164.368C197.797 165.154 200.74 165.205 199.819 166.012C198.769 165.114 198.717 166.744 197.702 167.353L197.529 166.432C194.642 166.498 197.137 168.542 194.489 168.395L195.331 166.883L194.082 167.499L194.173 166.392C192.888 167.479 192.398 167.378 190.971 167.379C191.395 167.954 191.04 169.113 189.797 169.379C188.875 168.994 190.144 168.411 188.403 168.883C188.726 168.223 189.055 167.41 189.937 168.121C189.974 167.801 190.245 167.462 190.28 167.147C189.29 166.699 187.994 167.442 187.356 167.578C187.605 167.563 187.901 167.559 188.07 167.664L185.69 169.446C185.249 169.169 185.535 168.829 185.811 168.493C185.313 168.692 185.004 169.185 184.253 169.392C184.368 168.598 184.238 167.831 185.263 167.283L182.945 168.54C182.744 168.24 181.621 167.843 181.91 167.508C180.548 167.307 178.758 169.518 176.936 169.179C176.851 169.342 176.679 169.508 176.305 169.673C174.616 169.766 173.113 168.963 171.17 170.266L170.022 169.025C168.48 169.5 171.578 170.607 168.992 171.383C167.152 172.002 168.299 170.279 167.658 169.951C166.762 170.721 165.143 172.334 163.485 171.306C164.016 171.009 164.444 171.2 164.968 171.043ZM145.815 172.326C146.216 172.133 147.03 171.523 147.226 172.089C146.658 173.177 146.401 172.648 145.815 172.326ZM116.603 171.859C116.978 171.597 117.339 171.823 117.684 172.258C117.32 172.276 116.946 172.172 116.603 171.859ZM41.5145 146.566C41.5433 146.561 41.5554 146.561 41.5872 146.547C41.9285 147.31 41.8186 147.027 41.5145 146.566ZM40.5346 145.271C40.3023 145.274 40.209 145.384 40.1524 145.534C40.4324 145.413 40.7286 145.632 41.0177 145.924C41.125 145.653 41.0806 145.405 40.5346 145.271ZM220.594 168.066L220.18 167.944C220.864 167.438 220.722 167.738 220.594 168.066Z" fill="#BDFF00"/>
<path d="M119.744 171.371C119.789 171.548 119.762 171.724 119.731 171.902C119.923 171.772 119.982 171.589 119.744 171.371Z" fill="#BDFF00"/>
<path d="M176.408 168.671C176.427 168.674 176.448 168.67 176.466 168.673C176.49 168.614 176.505 168.553 176.512 168.499L176.408 168.671Z" fill="#BDFF00"/>
<path d="M67.1503 153.293C67.3354 153.568 67.3807 153.803 67.3613 154.018C67.5324 153.83 67.5321 153.59 67.1503 153.293Z" fill="#BDFF00"/>
<path d="M32.4559 142.777L33.4453 143.252C33.0226 142.969 33.0582 142.696 32.9913 142.418C32.8314 142.601 32.7137 142.974 32.4559 142.777Z" fill="#BDFF00"/>
<path d="M30.8835 132.647C30.6748 132.634 30.6462 132.451 30.4375 132.438L30.0849 132.791C30.5747 133.188 31.1978 133.222 30.8835 132.647Z" fill="#BDFF00"/>
<path d="M34.4007 139.768C35.0057 139.111 34.2961 138.903 33.6291 138.556C33.661 138.582 33.6974 138.602 33.7218 138.635C32.6325 139.339 33.5189 139.554 34.4007 139.768Z" fill="#BDFF00"/>
<path d="M33.4885 138.481C33.2931 138.365 33.1021 138.237 32.9741 138.069C32.5312 138.351 33.0951 138.311 33.4885 138.481Z" fill="#BDFF00"/>
<path d="M38.3994 145.938C38.2903 145.565 37.4057 146.601 37.5121 146.225C36.3871 146.786 40.3159 146.686 38.3994 145.938Z" fill="#BDFF00"/>
<path d="M36.1822 137.385L35.5583 138.293L36.5186 137.95L36.1822 137.385Z" fill="#BDFF00"/>
<path d="M39.8716 141.423L39.2116 140.514C39.0895 140.652 38.8972 140.638 38.7 140.583C39.217 141.04 39.6602 141.663 39.8716 141.423Z" fill="#BDFF00"/>
<path d="M38.6997 140.597C38.4223 140.362 38.1331 140.165 37.8484 140.157C38.0089 140.275 38.3647 140.515 38.6997 140.597Z" fill="#BDFF00"/>
<path d="M37.6044 138.133L37.6846 138.502L38.2226 139.069L37.6044 138.133Z" fill="#BDFF00"/>
<path d="M49.4946 148.732L50.7475 149.2C51.109 148.998 50.9808 148.641 50.4941 148.49C50.0662 148.513 49.5826 148.36 49.4946 148.732Z" fill="#BDFF00"/>
<path d="M48.5725 144.406C48.689 144.765 48.5296 144.958 48.4307 145.327L49.4116 144.368L48.5725 144.406Z" fill="#BDFF00"/>
<path d="M51.707 146.223C52.0719 146.019 53.9344 146.424 52.5807 145.618C52.2219 145.825 50.9782 145.361 51.707 146.223Z" fill="#BDFF00"/>
<path d="M66.5016 157.132L66.2147 156.987L64.8994 158.758L66.5016 157.132Z" fill="#BDFF00"/>
<path d="M84.5863 159.781C83.5033 158.775 83.5456 160.774 82.6546 159.715C82.057 160.011 83.3821 160.581 82.8128 160.819C83.9359 160.709 84.2103 161.148 84.5863 159.781Z" fill="#BDFF00"/>
<path d="M82.8007 160.829C82.6213 160.846 82.4223 160.877 82.199 160.928C82.5123 160.919 82.6839 160.876 82.8007 160.829Z" fill="#BDFF00"/>
<path d="M281.668 139.17L282.87 138.896L281.859 138.754L281.668 139.17Z" fill="#BDFF00"/>
<path d="M282.608 136.842L283.612 137.689C283.612 137.689 283.572 137.371 283.544 137.053C283.494 136.739 283.487 136.403 283.487 136.403C283.275 136.617 282.947 136.962 282.608 136.842Z" fill="#BDFF00"/>
<path d="M142.946 169.635L142.826 169.933C142.925 170.275 143.149 170.302 143.608 170.36L142.946 169.635Z" fill="#BDFF00"/>
<path d="M156.487 170.288L156.252 170.275L156.608 171.404L156.487 170.288Z" fill="#BDFF00"/>
<path d="M168.08 167.851C167.611 167.849 167.062 168.159 166.592 168.154C167.611 167.849 168.224 169.266 168.08 167.851Z" fill="#BDFF00"/>
</svg>
