<svg width="25" height="25" viewBox="0 0 25 25" fill="none" xmlns="http://www.w3.org/2000/svg">
<path d="M11.3364 24.9311L24.6172 13.3413C24.7373 13.2365 24.8337 13.107 24.8998 12.9615C24.9658 12.816 25 12.6579 25 12.4979C25 12.338 24.9658 12.1799 24.8998 12.0344C24.8337 11.8889 24.7373 11.7594 24.6172 11.6546L11.3364 0.0683043C11.2964 0.0332927 11.2472 0.0105912 11.1947 0.00290407C11.1422 -0.00478302 11.0886 0.00286819 11.0403 0.0249462C10.992 0.0470243 10.951 0.0825987 10.9223 0.127432C10.8935 0.172265 10.8782 0.224468 10.8781 0.277822L10.8781 3.10631C10.8781 3.26694 10.9475 3.42059 11.069 3.52884L19.8291 11.1727L0.277767 11.1727C0.124996 11.1727 1.34733e-07 11.2985 1.36565e-07 11.4521L1.6155e-07 13.5473C1.63382e-07 13.7009 0.124996 13.8266 0.277767 13.8266L19.8291 13.8266L11.069 21.4705C10.9475 21.5753 10.8781 21.7289 10.8781 21.8931L10.8781 24.7216C10.8781 24.959 11.1558 25.0882 11.3364 24.9311Z" fill="#BDFF00"/>
</svg>
