<svg width="16" height="16" viewBox="0 0 16 16" fill="none" xmlns="http://www.w3.org/2000/svg">
<path d="M15.25 7.82092L12.25 6.66467V3.28967C12.25 2.82092 11.9375 2.41467 11.5 2.22717L8.375 1.07092C8.125 0.977173 7.84375 0.977173 7.59375 1.07092L4.46875 2.22717C4.03125 2.41467 3.71875 2.82092 3.71875 3.28967V6.66467L0.71875 7.82092C0.28125 7.97717 0 8.38342 0 8.85217V12.2897C0 12.7272 0.21875 13.1334 0.59375 13.3209L3.71875 14.8834C4.0625 15.0397 4.4375 15.0397 4.75 14.8834L8 13.2584L11.2188 14.8834C11.5625 15.0397 11.9375 15.0397 12.25 14.8834L15.375 13.3209C15.75 13.1334 16 12.7272 16 12.2897V8.85217C16 8.38342 15.6875 7.97717 15.25 7.82092ZM11.1875 6.69592L8.53125 7.69592V5.57092L11.1875 4.41467V6.69592ZM4.8125 3.25842L8 2.03967L11.1875 3.25842L8 4.57092L4.8125 3.25842ZM7.4375 12.3522L4.78125 13.6647V11.1959L7.4375 9.97717V12.3522ZM7.4375 8.85217L4.25 10.1334L1.0625 8.85217V8.82092L4.25 7.63342L7.4375 8.82092V8.85217ZM14.9375 12.3522L12.2812 13.6647V11.1959L14.9375 9.97717V12.3522ZM14.9375 8.85217L11.75 10.1334L8.5625 8.85217V8.82092L11.75 7.63342L14.9375 8.82092V8.85217Z" fill="white"/>
</svg>
