<svg width="17" height="15" viewBox="0 0 17 15" fill="none" xmlns="http://www.w3.org/2000/svg">
<path d="M10.5 7.3418L8.9375 10.4668C8.75 10.8418 8.21875 10.8105 8.03125 10.4355L6.25 6.49805L5.3125 8.7168H2.375L8.09375 14.5605C8.3125 14.7793 8.65625 14.7793 8.875 14.5605L14.5938 8.7168H11.1875L10.5 7.3418ZM15.2812 2.0293L15.2188 1.9668C13.5938 0.310547 10.9688 0.310547 9.34375 1.9668L8.5 2.8418L7.625 1.9668C6 0.310547 3.375 0.310547 1.75 1.9668L1.6875 2.0293C0.15625 3.5918 0.09375 6.06055 1.46875 7.7168H4.65625L5.78125 5.0293C5.9375 4.62305 6.5 4.62305 6.6875 5.0293L8.5 9.06055L10.0312 5.99805C10.2188 5.62305 10.75 5.62305 10.9375 5.99805L11.8125 7.7168H15.5312C16.875 6.06055 16.8125 3.5918 15.2812 2.0293Z" fill="white"/>
</svg>
