<svg width="23" height="16" viewBox="0 0 23 16" fill="none" xmlns="http://www.w3.org/2000/svg">
<path d="M1.09766 3.92517L11.0469 0.374389C11.5391 0.198607 12.0664 0.198607 12.5586 0.374389L22.4375 3.92517C22.7891 4.0658 23 4.3822 23 4.73376C23 5.12048 22.7891 5.43689 22.4375 5.57751L20.3281 6.3158C20.75 6.8783 21.0664 7.51111 21.207 8.21423C21.5937 8.39001 21.875 8.77673 21.875 9.23376C21.875 9.58533 21.7344 9.90173 21.4883 10.1127L22.332 15.351C22.4023 15.7025 22.1211 15.9838 21.8047 15.9838L19.7305 15.9838C19.4141 15.9838 19.1328 15.7025 19.2031 15.351L20.0469 10.1127C19.8008 9.90173 19.625 9.58533 19.625 9.23376C19.625 8.8822 19.8359 8.5658 20.082 8.39001C19.9414 7.7572 19.625 7.1947 19.2031 6.73767L12.5234 9.12829C12.0312 9.30408 11.5039 9.30408 11.0117 9.12829L1.09766 5.57751C0.746093 5.43689 0.499999 5.12048 0.499999 4.73376C0.499999 4.3822 0.746093 4.06579 1.09766 3.92517ZM10.6602 10.183C11.0117 10.3236 11.3984 10.3588 11.75 10.3588C12.1367 10.3588 12.5234 10.3236 12.875 10.183L18.0078 8.35486L18.5 13.3822C18.5 14.8236 15.5117 15.9838 11.75 15.9838C8.05859 15.9838 5 14.8236 5 13.3822L5.52734 8.35486L10.6602 10.183Z" fill="#BABFC9"/>
</svg>
