<svg width="17" height="17" viewBox="0 0 17 17" fill="none" xmlns="http://www.w3.org/2000/svg">
<path d="M6.27441 7.51709L6.30566 11.0171C6.30566 11.5796 5.83691 12.0171 5.30566 12.0171H4.80566C3.68066 12.0171 2.80566 11.1421 2.80566 10.0171V8.54834C2.80566 7.42334 3.68066 6.51709 4.80566 6.51709H5.27441C5.80566 6.51709 6.27441 6.98584 6.27441 7.51709ZM8.30566 0.51709C12.7744 0.51709 16.1494 4.26709 16.3057 8.51709V13.0171C16.3057 14.5483 15.0557 15.7671 13.5557 15.7671H10.0869C9.83691 16.2358 9.33691 16.5171 8.80566 16.5171H7.77441C6.86816 16.5171 6.14941 15.7046 6.30566 14.7358C6.46191 14.0171 7.11816 13.5171 7.83691 13.5171H8.80566C9.33691 13.5171 9.83691 13.8296 10.0869 14.2671H13.5557C14.2432 14.2671 14.8057 13.7358 14.8057 13.0171V8.51709C14.8057 4.95459 11.8682 2.04834 8.30566 2.04834C4.71191 2.04834 1.80566 4.95459 1.80566 8.51709V9.76709C1.80566 10.2046 1.39941 10.5171 1.02441 10.5171C0.618164 10.5171 0.305664 10.2046 0.305664 9.76709V8.51709C0.430664 4.26709 3.80566 0.51709 8.30566 0.51709ZM11.8057 12.0171H11.3057C10.7432 12.0171 10.3057 11.5796 10.3057 11.0171V7.54834C10.3057 6.98584 10.7432 6.51709 11.3057 6.51709H11.8057C12.8994 6.51709 13.8057 7.42334 13.8057 8.54834V10.0171C13.8057 11.1421 12.8994 12.0171 11.8057 12.0171Z" fill="#737373"/>
</svg>
