<svg width="16" height="15" viewBox="0 0 16 15" fill="none" xmlns="http://www.w3.org/2000/svg">
<path d="M15 3.54333V2.54333H15.625C15.8125 2.54333 16 2.38708 16 2.16833V0.918335C16 0.730835 15.8125 0.543335 15.625 0.543335H14.375C14.1562 0.543335 14 0.730835 14 0.918335V1.54333H2V0.918335C2 0.730835 1.8125 0.543335 1.625 0.543335H0.375C0.15625 0.543335 0 0.730835 0 0.918335V2.16833C0 2.38708 0.15625 2.54333 0.375 2.54333H1V12.5433H0.375C0.15625 12.5433 0 12.7308 0 12.9183V14.1683C0 14.3871 0.15625 14.5433 0.375 14.5433H1.625C1.8125 14.5433 2 14.3871 2 14.1683V13.5433H14V14.1683C14 14.3871 14.1562 14.5433 14.375 14.5433H15.625C15.8125 14.5433 16 14.3871 16 14.1683V12.9183C16 12.7308 15.8125 12.5433 15.625 12.5433H15V3.54333ZM3 8.16833V3.91833C3 3.73083 3.15625 3.54333 3.375 3.54333H8.625C8.8125 3.54333 9 3.73083 9 3.91833V8.16833C9 8.38708 8.8125 8.54333 8.625 8.54333H3.375C3.15625 8.54333 3 8.38708 3 8.16833ZM13 11.1683C13 11.3871 12.8125 11.5433 12.625 11.5433H7.375C7.15625 11.5433 7 11.3871 7 11.1683V9.54333H9.25C9.65625 9.54333 10 9.23083 10 8.79333V6.54333H12.625C12.8125 6.54333 13 6.73083 13 6.91833V11.1683Z" fill="white"/>
</svg>
