<svg width="50" height="50" viewBox="0 0 50 50" fill="none" xmlns="http://www.w3.org/2000/svg">
<path d="M49.1378 41.3466H0.862108C0.386034 41.3466 0 40.9613 0 40.4862V9.51466C0 9.03955 0.386034 8.6543 0.862108 8.6543H49.1379C49.614 8.6543 50 9.03955 50 9.51466V40.4862C49.9999 40.9614 49.6139 41.3466 49.1378 41.3466Z" fill="#41479B"/>
<path d="M24.1378 8.6543H22.6403L14.655 13.8755V8.6543H10.3447V13.8755L2.35937 8.6543H0.862106C0.386034 8.6543 0 9.03945 0 9.51456V10.197L6.85105 14.6765H0V18.9781H6.85105L0 23.4577V24.1401C0 24.6152 0.386034 25.0005 0.862106 25.0005H2.35956L10.3449 19.7792V25.0005H14.6552V19.7792L22.6404 25.0005H24.1379C24.614 25.0005 25 24.6152 25 24.1401V23.4577L18.149 18.9782H24.9999V14.6766H18.1489L24.9999 10.1971V9.51466C24.9999 9.03945 24.6139 8.6543 24.1378 8.6543Z" fill="#F5F5F5"/>
<path d="M25 15.5369H13.7931V8.6543H11.2069V15.5369H0V18.1178H11.2069V25.0005H13.7931V18.1178H25V15.5369Z" fill="#FF4B55"/>
<path d="M9.61539 14.4235L0.416588 8.6543C0.171804 8.80393 0 9.05546 0 9.35606V9.39988L8.00983 14.4235H9.61539Z" fill="#FF4B55"/>
<path d="M16.0626 14.4235L24.9998 9.06762C24.8444 8.82497 24.5704 8.6543 24.2428 8.6543H24.0498L14.4229 14.4235H16.0626Z" fill="#FF4B55"/>
<path d="M8.93447 19.2314L0 24.5771C0.154065 24.8256 0.432821 25.0007 0.765667 25.0007H0.934318L10.5769 19.2314H8.93447Z" fill="#FF4B55"/>
<path d="M25.0001 24.3117L16.9615 19.2314H15.3848L24.5134 25.0007C24.7868 24.8771 24.9744 24.6182 25.0001 24.3117Z" fill="#FF4B55"/>
<path d="M12.682 29.9456L13.3195 32.1015L15.3625 31.2679C15.5368 31.1968 15.6952 31.4004 15.5889 31.5586L14.3409 33.4133L16.2507 34.5298C16.4137 34.625 16.3571 34.8789 16.17 34.8923L13.9762 35.0492L14.315 37.275C14.3439 37.4649 14.1149 37.578 13.988 37.4363L12.5005 35.7772L11.0129 37.4363C10.886 37.5779 10.657 37.4648 10.6859 37.275L11.0247 35.0492L8.83092 34.8923C8.64378 34.8789 8.58723 34.625 8.75017 34.5298L10.66 33.4133L9.41205 31.5586C9.30566 31.4004 9.4641 31.1968 9.63842 31.2679L11.6814 32.1015L12.3189 29.9456C12.3735 29.7616 12.6277 29.7616 12.682 29.9456Z" fill="#F5F5F5"/>
<path d="M38.5531 14.4918L38.8719 15.5698L39.8932 15.153C39.9803 15.1175 40.0596 15.2192 40.0063 15.2984L39.3824 16.2258L40.3373 16.7841C40.4188 16.8316 40.3905 16.9586 40.2968 16.9653L39.2001 17.0437L39.3694 18.1565C39.3839 18.2515 39.2693 18.308 39.2059 18.2372L38.4621 17.4077L37.7184 18.2372C37.655 18.3079 37.5405 18.2514 37.5549 18.1565L37.7242 17.0437L36.6274 16.9653C36.5338 16.9586 36.5055 16.8316 36.587 16.7841L37.5418 16.2258L36.918 15.2984C36.8647 15.2192 36.944 15.1175 37.0311 15.153L38.0524 15.5698L38.3712 14.4918C38.3988 14.3999 38.526 14.3999 38.5531 14.4918Z" fill="#F5F5F5"/>
<path d="M30.8607 22.1842L31.1795 23.2621L32.2008 22.8454C32.2879 22.8099 32.3672 22.9116 32.3139 22.9908L31.69 23.9182L32.6449 24.4765C32.7264 24.524 32.6981 24.651 32.6045 24.6577L31.5077 24.7361L31.677 25.8489C31.6915 25.9439 31.5769 26.0004 31.5135 25.9296L30.7698 25.1001L30.026 25.9296C29.9626 26.0003 29.8481 25.9438 29.8625 25.8489L30.0318 24.7361L28.935 24.6577C28.8414 24.651 28.8131 24.524 28.8946 24.4765L29.8495 23.9182L29.2256 22.9908C29.1723 22.9116 29.2516 22.8099 29.3387 22.8454L30.36 23.2621L30.6788 22.1842C30.7064 22.0922 30.8335 22.0922 30.8607 22.1842Z" fill="#F5F5F5"/>
<path d="M45.2835 19.2995L45.6023 20.3774L46.6237 19.9607C46.7107 19.9251 46.79 20.0269 46.7368 20.106L46.1129 21.0334L47.0678 21.5917C47.1492 21.6393 47.1209 21.7663 47.0273 21.7729L45.9305 21.8513L46.0998 22.9642C46.1143 23.0592 45.9998 23.1156 45.9364 23.0448L45.1927 22.2153L44.4489 23.0448C44.3854 23.1155 44.271 23.0591 44.2854 22.9642L44.4547 21.8513L43.3579 21.7729C43.2643 21.7663 43.236 21.6393 43.3175 21.5917L44.2723 21.0334L43.6485 20.106C43.5952 20.0269 43.6745 19.9251 43.7616 19.9607L44.7829 20.3774L45.1017 19.2995C45.1292 19.2075 45.2563 19.2075 45.2835 19.2995Z" fill="#F5F5F5"/>
<path d="M38.5531 32.7614L38.8719 33.8393L39.8932 33.4225C39.9803 33.387 40.0596 33.4887 40.0063 33.5679L39.3824 34.4953L40.3373 35.0536C40.4188 35.1011 40.3905 35.2281 40.2968 35.2348L39.2001 35.3132L39.3694 36.4261C39.3839 36.5211 39.2693 36.5776 39.2059 36.5067L38.4621 35.6772L37.7184 36.5067C37.655 36.5775 37.5405 36.521 37.5549 36.4261L37.7242 35.3132L36.6274 35.2348C36.5338 35.2281 36.5055 35.1011 36.587 35.0536L37.5418 34.4953L36.918 33.5679C36.8647 33.4887 36.944 33.387 37.0311 33.4225L38.0524 33.8393L38.3712 32.7614C38.3988 32.6694 38.526 32.6694 38.5531 32.7614Z" fill="#F5F5F5"/>
<path d="M40.7493 24.1263L40.4601 25.0339L39.5462 25.0413C39.428 25.0423 39.3788 25.2003 39.4741 25.2739L40.2093 25.8422L39.9335 26.7543C39.8979 26.8725 40.0264 26.9701 40.1225 26.8981L40.8661 26.3418L41.6097 26.8981C41.706 26.9701 41.8344 26.8724 41.7987 26.7543L41.523 25.8422L42.2582 25.2739C42.3534 25.2002 42.3043 25.0423 42.186 25.0413L41.2721 25.0339L40.983 24.1263C40.9455 24.0087 40.7867 24.0087 40.7493 24.1263Z" fill="#F5F5F5"/>
</svg>
