<svg width="331" height="304" viewBox="0 0 331 304" fill="none" xmlns="http://www.w3.org/2000/svg">
<path fill-rule="evenodd" clip-rule="evenodd" d="M78.9464 56.1424L65.1542 82.3001L8.81569 104.498L2 141.098L18.1329 173.177L17.0092 183.802L24.1685 191.847L23.3741 207.983L18.6204 210.701L17.9136 216.076L31.4382 224.765L43.2535 222.292L56.6823 213.206L87.3204 213.066L93.7785 204.753L104.856 197.774L117.464 198.297L132.6 191.542L146.567 191.853L166.579 196.944L177.922 211.789L183.527 222.499L190.208 225.644L188.543 232.084L208.499 228.94L224.137 250.359L248.452 257.872L256.503 254.102L270.822 257.668L283.239 247.594L299.238 246.866L305.71 219.389L321.43 198.01L329.907 163.829L320.557 133.712L297.832 103.326L290.933 89.0692L271.432 78.3097L267.367 58.1407L262.448 56.1626L261.456 40.3557L251.621 36.3544L242.55 3.22682L236.609 2L228.27 60.6324L222.501 66.6816L182.544 39.5128L195.346 17.9659L190.892 13.4285L173.403 15.7458L158.943 5.34382L148.916 6.92766L138.372 9.75187L144.726 17.1216L135.66 32.1558L135.49 40.5263L125.215 42.2063L113.163 29.073L78.9464 56.1424ZM259.585 269.499L255.449 270.464L254.908 290.486L266.248 302L281.757 301.536L289.094 286.409L287.618 268.337L279.845 269.502L277.555 276.703L267.084 277.291L259.585 269.499Z" fill="#EBF3F7"/>
<path d="M65.1542 82.3001L65.5208 83.2304L65.8658 83.0945L66.0388 82.7665L65.1542 82.3001ZM78.9464 56.1424L78.326 55.3581L78.1604 55.4891L78.0619 55.676L78.9464 56.1424ZM8.81569 104.498L8.4491 103.568L7.93396 103.771L7.83259 104.315L8.81569 104.498ZM2 141.098L1.0169 140.915L0.955205 141.247L1.10662 141.548L2 141.098ZM18.1329 173.177L19.1273 173.282L19.1582 172.99L19.0262 172.728L18.1329 173.177ZM17.0092 183.802L16.0147 183.697L15.9682 184.137L16.2621 184.467L17.0092 183.802ZM24.1685 191.847L25.1673 191.897L25.1874 191.488L24.9156 191.183L24.1685 191.847ZM23.3741 207.983L23.8704 208.851L24.346 208.58L24.3729 208.032L23.3741 207.983ZM18.6204 210.701L18.1241 209.833L17.6936 210.079L17.6289 210.57L18.6204 210.701ZM17.9136 216.076L16.9221 215.945L16.8394 216.574L17.373 216.917L17.9136 216.076ZM31.4382 224.765L30.8977 225.606L31.2423 225.828L31.6431 225.744L31.4382 224.765ZM43.2535 222.292L43.4584 223.27L43.651 223.23L43.8139 223.12L43.2535 222.292ZM56.6823 213.206L56.6777 212.206L56.3737 212.207L56.1219 212.377L56.6823 213.206ZM87.3204 213.066L87.3249 214.066L87.8116 214.064L88.1101 213.68L87.3204 213.066ZM93.7785 204.753L93.2454 203.907L93.0966 204.001L92.9888 204.14L93.7785 204.753ZM104.856 197.774L104.897 196.775L104.586 196.762L104.323 196.928L104.856 197.774ZM117.464 198.297L117.423 199.297L117.657 199.306L117.872 199.211L117.464 198.297ZM132.6 191.542L132.622 190.542L132.397 190.537L132.192 190.628L132.6 191.542ZM146.567 191.853L146.814 190.884L146.703 190.856L146.589 190.853L146.567 191.853ZM166.579 196.944L167.373 196.337L167.162 196.061L166.825 195.975L166.579 196.944ZM177.922 211.789L178.808 211.325L178.769 211.25L178.717 211.182L177.922 211.789ZM183.527 222.499L182.641 222.963L182.797 223.261L183.101 223.404L183.527 222.499ZM190.208 225.644L191.176 225.894L191.383 225.092L190.634 224.739L190.208 225.644ZM188.543 232.084L187.575 231.834L187.193 233.309L188.699 233.072L188.543 232.084ZM208.499 228.94L209.307 228.35L208.946 227.857L208.343 227.952L208.499 228.94ZM224.137 250.359L223.329 250.948L223.525 251.216L223.842 251.314L224.137 250.359ZM248.452 257.872L248.157 258.827L248.526 258.941L248.876 258.778L248.452 257.872ZM256.503 254.102L256.745 253.132L256.401 253.046L256.079 253.196L256.503 254.102ZM270.822 257.668L270.581 258.638L271.065 258.759L271.452 258.444L270.822 257.668ZM283.239 247.594L283.194 246.595L282.865 246.61L282.609 246.818L283.239 247.594ZM299.238 246.866L299.284 247.865L300.039 247.83L300.212 247.095L299.238 246.866ZM305.71 219.389L304.905 218.796L304.784 218.961L304.737 219.159L305.71 219.389ZM321.43 198.01L322.235 198.603L322.353 198.443L322.4 198.251L321.43 198.01ZM329.907 163.829L330.877 164.07L330.945 163.799L330.862 163.533L329.907 163.829ZM320.557 133.712L321.512 133.416L321.461 133.251L321.357 133.113L320.557 133.712ZM297.832 103.326L296.932 103.761L296.974 103.848L297.031 103.925L297.832 103.326ZM290.933 89.0692L291.833 88.6337L291.695 88.3473L291.416 88.1937L290.933 89.0692ZM271.432 78.3097L270.452 78.5073L270.544 78.9615L270.949 79.1853L271.432 78.3097ZM267.367 58.1407L268.347 57.9431L268.241 57.4142L267.74 57.2129L267.367 58.1407ZM262.448 56.1626L261.45 56.2252L261.49 56.8549L262.075 57.0903L262.448 56.1626ZM261.456 40.3557L262.454 40.293L262.415 39.6661L261.833 39.4294L261.456 40.3557ZM251.621 36.3544L250.656 36.6185L250.787 37.0947L251.244 37.2807L251.621 36.3544ZM242.55 3.22682L243.515 2.96274L243.353 2.37145L242.753 2.24748L242.55 3.22682ZM236.609 2L236.811 1.02066L235.768 0.805431L235.618 1.8592L236.609 2ZM228.27 60.6324L228.994 61.3225L229.215 61.0906L229.26 60.7732L228.27 60.6324ZM222.501 66.6816L221.938 67.5085L222.639 67.9851L223.224 67.3717L222.501 66.6816ZM182.544 39.5128L181.684 39.002L181.204 39.8107L181.981 40.3397L182.544 39.5128ZM195.346 17.9659L196.206 18.4767L196.599 17.8148L196.06 17.2654L195.346 17.9659ZM190.892 13.4285L191.606 12.728L191.256 12.3716L190.761 12.4372L190.892 13.4285ZM173.403 15.7458L172.819 16.5576L173.141 16.7892L173.534 16.7371L173.403 15.7458ZM158.943 5.34382L159.527 4.53204L159.193 4.29191L158.787 4.35607L158.943 5.34382ZM148.916 6.92766L148.76 5.93991L148.708 5.94811L148.657 5.96171L148.916 6.92766ZM138.372 9.75187L138.114 8.78593L136.575 9.19817L137.615 10.4049L138.372 9.75187ZM144.726 17.1216L145.583 17.638L145.957 17.0175L145.484 16.4686L144.726 17.1216ZM135.66 32.1558L134.803 31.6394L134.665 31.8683L134.66 32.1356L135.66 32.1558ZM135.49 40.5263L135.652 41.5132L136.473 41.3788L136.49 40.5465L135.49 40.5263ZM125.215 42.2063L124.478 42.8824L124.844 43.2803L125.377 43.1932L125.215 42.2063ZM113.163 29.073L113.9 28.3968L113.271 27.7121L112.543 28.2887L113.163 29.073ZM255.449 270.464L255.221 269.49L254.47 269.666L254.449 270.437L255.449 270.464ZM259.585 269.499L260.305 268.806L259.911 268.396L259.357 268.525L259.585 269.499ZM254.908 290.486L253.908 290.459L253.896 290.885L254.195 291.188L254.908 290.486ZM266.248 302L265.536 302.702L265.842 303.013L266.278 303L266.248 302ZM281.757 301.536L281.787 302.535L282.392 302.517L282.657 301.972L281.757 301.536ZM289.094 286.409L289.993 286.845L290.113 286.599L290.09 286.327L289.094 286.409ZM287.618 268.337L288.615 268.256L288.527 267.19L287.47 267.348L287.618 268.337ZM279.845 269.502L279.696 268.513L279.08 268.606L278.892 269.199L279.845 269.502ZM277.555 276.703L277.611 277.702L278.3 277.663L278.508 277.006L277.555 276.703ZM267.084 277.291L266.364 277.984L266.682 278.315L267.14 278.289L267.084 277.291ZM66.0388 82.7665L79.831 56.6088L78.0619 55.676L64.2696 81.8337L66.0388 82.7665ZM9.18228 105.429L65.5208 83.2304L64.7876 81.3697L8.4491 103.568L9.18228 105.429ZM2.9831 141.281L9.79879 104.681L7.83259 104.315L1.0169 140.915L2.9831 141.281ZM19.0262 172.728L2.89338 140.649L1.10662 141.548L17.2395 173.626L19.0262 172.728ZM18.0036 183.907L19.1273 173.282L17.1384 173.072L16.0147 183.697L18.0036 183.907ZM24.9156 191.183L17.7562 183.137L16.2621 184.467L23.4215 192.512L24.9156 191.183ZM24.3729 208.032L25.1673 191.897L23.1697 191.798L22.3753 207.934L24.3729 208.032ZM19.1167 211.569L23.8704 208.851L22.8778 207.115L18.1241 209.833L19.1167 211.569ZM18.905 216.206L19.6119 210.831L17.6289 210.57L16.9221 215.945L18.905 216.206ZM31.9788 223.924L18.4541 215.234L17.373 216.917L30.8977 225.606L31.9788 223.924ZM43.0486 221.313L31.2333 223.786L31.6431 225.744L43.4584 223.27L43.0486 221.313ZM56.1219 212.377L42.6931 221.463L43.8139 223.12L57.2427 214.034L56.1219 212.377ZM87.3159 212.066L56.6777 212.206L56.6868 214.206L87.3249 214.066L87.3159 212.066ZM92.9888 204.14L86.5307 212.453L88.1101 213.68L94.5682 205.367L92.9888 204.14ZM104.323 196.928L93.2454 203.907L94.3116 205.599L105.389 198.62L104.323 196.928ZM117.506 197.298L104.897 196.775L104.814 198.773L117.423 199.297L117.506 197.298ZM132.192 190.628L117.057 197.384L117.872 199.211L133.007 192.455L132.192 190.628ZM146.589 190.853L132.622 190.542L132.577 192.541L146.545 192.853L146.589 190.853ZM166.825 195.975L146.814 190.884L146.321 192.822L166.332 197.913L166.825 195.975ZM178.717 211.182L167.373 196.337L165.784 197.552L177.128 212.396L178.717 211.182ZM184.413 222.035L178.808 211.325L177.036 212.253L182.641 222.963L184.413 222.035ZM190.634 224.739L183.953 221.594L183.101 223.404L189.782 226.548L190.634 224.739ZM189.511 232.335L191.176 225.894L189.24 225.393L187.575 231.834L189.511 232.335ZM208.343 227.952L188.387 231.096L188.699 233.072L208.655 229.928L208.343 227.952ZM224.945 249.769L209.307 228.35L207.691 229.529L223.329 250.948L224.945 249.769ZM248.747 256.917L224.432 249.403L223.842 251.314L248.157 258.827L248.747 256.917ZM256.079 253.196L248.028 256.966L248.876 258.778L256.927 255.008L256.079 253.196ZM271.064 256.697L256.745 253.132L256.262 255.072L270.581 258.638L271.064 256.697ZM282.609 246.818L270.192 256.891L271.452 258.444L283.869 248.371L282.609 246.818ZM299.193 245.867L283.194 246.595L283.285 248.593L299.284 247.865L299.193 245.867ZM304.737 219.159L298.265 246.637L300.212 247.095L306.684 219.618L304.737 219.159ZM320.624 197.418L304.905 218.796L306.516 219.981L322.235 198.603L320.624 197.418ZM328.936 163.589L320.459 197.77L322.4 198.251L330.877 164.07L328.936 163.589ZM319.602 134.009L328.952 164.126L330.862 163.533L321.512 133.416L319.602 134.009ZM297.031 103.925L319.756 134.311L321.357 133.113L298.633 102.727L297.031 103.925ZM290.033 89.5048L296.932 103.761L298.732 102.89L291.833 88.6337L290.033 89.5048ZM270.949 79.1853L290.45 89.9448L291.416 88.1937L271.915 77.4342L270.949 79.1853ZM266.387 58.3383L270.452 78.5073L272.413 78.1121L268.347 57.9431L266.387 58.3383ZM262.075 57.0903L266.994 59.0685L267.74 57.2129L262.822 55.2348L262.075 57.0903ZM260.458 40.4183L261.45 56.2252L263.446 56.0999L262.454 40.293L260.458 40.4183ZM251.244 37.2807L261.079 41.2819L261.833 39.4294L251.998 35.4282L251.244 37.2807ZM241.586 3.49091L250.656 36.6185L252.585 36.0903L243.515 2.96274L241.586 3.49091ZM236.406 2.97934L242.348 4.20617L242.753 2.24748L236.811 1.02066L236.406 2.97934ZM229.26 60.7732L237.599 2.1408L235.618 1.8592L227.28 60.4916L229.26 60.7732ZM223.224 67.3717L228.994 61.3225L227.547 59.9422L221.777 65.9914L223.224 67.3717ZM181.981 40.3397L221.938 67.5085L223.063 65.8546L183.106 38.6858L181.981 40.3397ZM194.487 17.4551L181.684 39.002L183.403 40.0236L196.206 18.4767L194.487 17.4551ZM190.178 14.1291L194.633 18.6664L196.06 17.2654L191.606 12.728L190.178 14.1291ZM173.534 16.7371L191.023 14.4199L190.761 12.4372L173.271 14.7544L173.534 16.7371ZM158.359 6.1556L172.819 16.5576L173.987 14.934L159.527 4.53204L158.359 6.1556ZM149.072 7.91541L159.099 6.33157L158.787 4.35607L148.76 5.93991L149.072 7.91541ZM138.631 10.7178L149.175 7.89361L148.657 5.96171L138.114 8.78593L138.631 10.7178ZM145.484 16.4686L139.13 9.09889L137.615 10.4049L143.969 17.7746L145.484 16.4686ZM136.516 32.6722L145.583 17.638L143.87 16.6052L134.803 31.6394L136.516 32.6722ZM136.49 40.5465L136.659 32.176L134.66 32.1356L134.49 40.506L136.49 40.5465ZM125.377 43.1932L135.652 41.5132L135.329 39.5394L125.054 41.2194L125.377 43.1932ZM112.426 29.7491L124.478 42.8824L125.952 41.5301L113.9 28.3968L112.426 29.7491ZM79.5669 56.9266L113.783 29.8572L112.543 28.2887L78.326 55.3581L79.5669 56.9266ZM255.676 271.438L259.812 270.473L259.357 268.525L255.221 269.49L255.676 271.438ZM255.907 290.513L256.448 270.491L254.449 270.437L253.908 290.459L255.907 290.513ZM266.961 301.298L255.62 289.785L254.195 291.188L265.536 302.702L266.961 301.298ZM281.727 300.536L266.218 301L266.278 303L281.787 302.535L281.727 300.536ZM288.194 285.972L280.857 301.099L282.657 301.972L289.993 286.845L288.194 285.972ZM286.621 268.419L288.097 286.49L290.09 286.327L288.615 268.256L286.621 268.419ZM279.993 270.491L287.766 269.326L287.47 267.348L279.696 268.513L279.993 270.491ZM278.508 277.006L280.798 269.805L278.892 269.199L276.602 276.4L278.508 277.006ZM267.14 278.289L277.611 277.702L277.499 275.705L267.028 276.292L267.14 278.289ZM258.864 270.193L266.364 277.984L267.805 276.597L260.305 268.806L258.864 270.193Z" fill="#5D81FF"/>
</svg>
