<svg width="340" height="272" viewBox="0 0 340 272" fill="none" xmlns="http://www.w3.org/2000/svg">
<path d="M76.0616 13.6997V28.2332L83.3313 39.6091H87.1283L90.6145 32.0252L96.9383 29.1778L120.355 39.2987L163.406 23.4967L166.244 6.73655L175.108 6.10232L178.905 12.1074L185.242 13.6997L195.052 2L199.471 2.63424L202.957 11.4866L214.348 13.3758L220.685 3.26848L225.739 2.94461L229.225 23.4967L235.238 26.9648V30.7567L238.711 34.2383L260.236 30.4463L261.817 44.3456L284.923 43.7114L290.612 48.4614L290.301 61.4161L283.653 66.1527L279.221 92.0755L289.355 101.238L308.016 102.507L309.921 107.243L325.785 110.9L327.042 116.244L322.326 121.898L324.839 134.151L333.325 136.351L338.676 144.205L339 157.416L318.866 182.542L299.476 185.93L296.625 188.466L292.517 207.102L286.504 210.894L289.977 265.574L268.141 270L211.497 234.914L197.89 206.158L179.229 213.431L141.881 204.579L152.001 196.995L151.38 190.68L145.043 189.721L147.894 178.669L139.354 163.178L125.747 158.117L108.019 164.757L93.4656 142.95L68.7784 136L62.1303 105.664L53.5905 101.238L39.9834 107.878L9.91828 91.4278L2 53.8322L76.0616 13.6997Z" fill="#EBF3F7" stroke="#5D81FF" stroke-width="2"/>
</svg>
