<svg width="50" height="50" viewBox="0 0 50 50" fill="none" xmlns="http://www.w3.org/2000/svg">
<g clip-path="url(#clip0_1552_32492)">
<path d="M49.1388 41.3787H0.863084C0.387011 41.3787 0.000976562 40.9927 0.000976562 40.5166V9.48222C0.000976562 9.00615 0.387011 8.62012 0.863084 8.62012H49.1389C49.6149 8.62012 50.001 9.00615 50.001 9.48222V40.5166C50.0009 40.9928 49.6148 41.3787 49.1388 41.3787Z" fill="#F5F5F5"/>
<path d="M38.7949 8.62012H11.209V41.3788H38.7949V8.62012Z" fill="#F5F5F5"/>
<path d="M0.863084 8.62012C0.387011 8.62012 0.000976562 9.00605 0.000976562 9.48213V40.5165C0.000976562 40.9926 0.387011 41.3787 0.863084 41.3787H11.2079V8.62012H0.863084Z" fill="#FF4B55"/>
<path d="M49.1397 8.62012H38.7949V41.3787H49.1397C49.6158 41.3787 50.0018 40.9926 50.0018 40.5165V9.48213C50.0018 9.00605 49.6158 8.62012 49.1397 8.62012Z" fill="#FF4B55"/>
<path d="M30.2332 28.7843L35.3487 25.8612L34.1749 25.2743C33.8457 25.1097 33.6572 24.7542 33.7059 24.3892L34.0879 21.5258L31.9221 22.1558C31.4437 22.2951 30.9472 22.0008 30.8396 21.5143L30.6322 20.5768L28.5987 22.9567C28.3168 23.2866 27.7798 23.0347 27.8533 22.6069L28.7218 17.5573L27.3922 17.921C27.0038 18.0272 26.5936 17.8505 26.4043 17.4952L25.0042 14.8711V14.8672L25.0032 14.8691L25.0021 14.8672V14.8711L23.602 17.4952C23.4125 17.8504 23.0023 18.0271 22.614 17.921L21.2843 17.5573L22.1527 22.6069C22.2263 23.0345 21.6891 23.2865 21.4072 22.9567L19.3737 20.5768L19.1663 21.5143C19.0587 22.0009 18.5622 22.295 18.0838 22.1558L15.9181 21.5258L16.3 24.3892C16.3487 24.7541 16.1603 25.1097 15.8311 25.2743L14.6572 25.8612L19.7727 28.7844C20.3026 29.0872 20.5349 29.7294 20.3211 30.3009L19.8838 31.4706L24.2671 31.0964C24.5096 31.0757 24.7161 31.271 24.709 31.5142L24.5709 36.206H25.433L25.2948 31.514C25.2877 31.2707 25.4941 31.0755 25.7367 31.0962L30.122 31.4706L29.6847 30.3009C29.4712 29.7293 29.7033 29.087 30.2332 28.7843Z" fill="#FF4B55"/>
</g>
<defs>
<clipPath id="clip0_1552_32492">
<rect width="50" height="50" fill="white"/>
</clipPath>
</defs>
</svg>
