<svg width="366" height="304" viewBox="0 0 366 304" fill="none" xmlns="http://www.w3.org/2000/svg">
<path fill-rule="evenodd" clip-rule="evenodd" d="M110.741 50.2424L100.551 56.262L116.167 74.325L136.05 69.5952L151.261 72.0252L169.924 71.7768L178.056 68.9105L180.266 62.8342L174.371 58.7851L179.507 52.9884L177.236 46.824L178.075 37.6962L175.7 33.2722L178.08 29.3651L179.866 16.1791L178.073 2L164.333 5.50244L149.21 20.5237L146.787 30.6656L142.415 32.9569L140.734 38.794L133.999 39.5068L131.664 46.2223L127.069 41.9078L118.099 45.0155L116.373 50.2431L110.741 50.2424ZM52.2335 90.7772L43.6501 79.9905L4.15037 134.6L9.09286 137.357L9.36122 151.001L19.5194 147.912L19.5897 174.973L23.7214 182.793L14.6756 196.113L11.6047 191.265L3.59766 188.964L2 197.269L3.36325 203.985L5.79192 205.645L8.90006 199.455L13.0878 200.6L18.9362 200.946L19.8366 212.31L11.977 223.004L24.1533 246.977L32.0218 242.237L76.9504 256.257L128.356 262.218L167.464 260.832L193.397 264.96L201.4 257.194L209.743 257.489L217.347 261.42L226.617 271.898L243.996 269.942L241.034 274.608L242.026 287.976L235.93 299.281L240.058 301.999L260.819 288.331L257.432 280.932L273.938 264.633L294.282 253.97L292.581 234.53L300.077 234.183L311.469 245.122L315.861 240.062L319.232 242.799L318.119 247.076L324.316 251.342L339.837 217.443L331.403 213.244L319.942 220.802L309.536 217.07L308.079 210.205L317.432 209.164L319.018 203.377L304.821 205.533L305.901 202.301L320.526 192.133L324.016 180L327.519 181.854L333.525 206.974L354.605 193.567L363.53 192.279L359.086 185.548L347.425 179.262L334.975 182.059L326.818 170.518L319.661 163.272L314.984 165.886L306.749 160.552L296.408 162.941L286.506 161.715L286.064 156.655L260.973 141.729L264.672 154.687L260.748 160.961L252.536 161.142L245.817 149.417L239.356 149.609L228.871 145.612L223.653 148.923L216.095 147.805L214.228 151.571L221.846 166.422L221.794 175.839L232.916 182.605L235.122 194.768L227.948 205.315L237.416 219.378L237.492 225.717L232.612 229.391L222.119 223.163L215.367 205.729L198.527 205.862L181.413 197.462L172.384 199.971L167.483 189.071L161.994 188.714L161.74 169.509L177.437 150.288L181.091 139.261L184.239 140.705L183.669 150.554L189.839 153.928L194.276 145.191L199.344 148.489L202.74 142.743L198.728 139.268L185.545 133.766L193.723 122.379L188.104 117.075L190.191 104.703L201.835 107.444L204.001 117.101L210.225 110.118L216.233 111.109L214.712 127.378L206.544 132.29L212.13 136.6L222.488 131.734L235.515 139.499L251.938 138.399L251.672 135.359L239.524 130.016L240.977 127.879L252.126 127.26L246.882 119.905L233.702 115.293L231.774 108.783L246.649 113.643L245.467 99.4927L232.792 95.4795L229.595 98.5566L221.235 98.1427L222.547 91.2538L206.478 82.8831L202.225 85.2458L186.727 73.5573L173.966 78.5176L161.2 79.0798L147.083 78.6878L140.317 79.8782L135.213 86.4182L144.602 97.9638L149.279 98.3691L150.474 106.724L145.181 110.143L139.773 107.594L131.435 99.7994L131.246 84.2958L130.121 80.3996L117.946 86.3108L109.625 78.5492L100.093 67.5968L93.7317 67.1618L92.9513 70.9074L85.2092 82.6723L87.6576 86.1014L87.8298 90.3064L96.8791 90.7526L100.003 99.5624L97.0702 104.688L85.8018 101.887L76.1102 90.5171L59.262 89.3598L52.2335 90.7772Z" fill="#EBF3F7"/>
<path d="M100.551 56.262L100.043 55.401L99.0115 56.0101L99.7947 56.916L100.551 56.262ZM110.741 50.2424L110.741 49.2424L110.468 49.2424L110.232 49.3814L110.741 50.2424ZM116.167 74.325L115.411 74.979L115.808 75.4384L116.399 75.2979L116.167 74.325ZM136.05 69.5952L136.207 68.6078L136.011 68.5764L135.818 68.6224L136.05 69.5952ZM151.261 72.0252L151.103 73.0127L151.188 73.0262L151.274 73.0251L151.261 72.0252ZM169.924 71.7768L169.937 72.7768L170.102 72.7746L170.256 72.72L169.924 71.7768ZM178.056 68.9105L178.388 69.8536L178.834 69.6965L178.996 69.2523L178.056 68.9105ZM180.266 62.8342L181.206 63.176L181.47 62.4484L180.832 62.01L180.266 62.8342ZM174.371 58.7851L173.623 58.1219L172.872 58.9687L173.805 59.6093L174.371 58.7851ZM179.507 52.9884L180.255 53.6516L180.652 53.2039L180.445 52.6428L179.507 52.9884ZM177.236 46.824L176.24 46.7325L176.22 46.9576L176.298 47.1697L177.236 46.824ZM178.075 37.6962L179.071 37.7878L179.098 37.4882L178.956 37.2232L178.075 37.6962ZM175.7 33.2722L174.846 32.7519L174.548 33.2408L174.819 33.7453L175.7 33.2722ZM178.08 29.3651L178.934 29.8854L179.043 29.7067L179.071 29.4993L178.08 29.3651ZM179.866 16.1791L180.857 16.3133L180.875 16.1835L180.858 16.0536L179.866 16.1791ZM178.073 2L179.065 1.87455L178.923 0.75134L177.826 1.03099L178.073 2ZM164.333 5.50244L164.086 4.53343L163.821 4.60078L163.628 4.79295L164.333 5.50244ZM149.21 20.5237L148.505 19.8142L148.303 20.0147L148.237 20.2913L149.21 20.5237ZM146.787 30.6656L147.251 31.5513L147.654 31.3402L147.759 30.8979L146.787 30.6656ZM142.415 32.9569L141.951 32.0711L141.572 32.2695L141.454 32.6801L142.415 32.9569ZM140.734 38.794L140.839 39.7884L141.509 39.7176L141.695 39.0707L140.734 38.794ZM133.999 39.5068L133.893 38.5124L133.262 38.5792L133.054 39.1785L133.999 39.5068ZM131.664 46.2223L130.98 46.9513L132.103 48.0058L132.609 46.5506L131.664 46.2223ZM127.069 41.9078L127.753 41.1788L127.313 40.765L126.742 40.9629L127.069 41.9078ZM118.099 45.0155L117.772 44.0706L117.305 44.2325L117.15 44.702L118.099 45.0155ZM116.373 50.2431L116.373 51.2431L117.096 51.2431L117.323 50.5566L116.373 50.2431ZM43.6501 79.9905L44.4325 79.3679L43.6121 78.3368L42.8398 79.4044L43.6501 79.9905ZM52.2335 90.7772L51.451 91.3998L51.8318 91.8783L52.4312 91.7575L52.2335 90.7772ZM4.15037 134.6L3.34011 134.014L2.6808 134.926L3.66332 135.474L4.15037 134.6ZM9.09286 137.357L10.0927 137.337L10.0814 136.763L9.57991 136.483L9.09286 137.357ZM9.36122 151.001L8.36141 151.02L8.3874 152.342L9.65211 151.957L9.36122 151.001ZM19.5194 147.912L20.5194 147.909L20.5159 146.564L19.2285 146.955L19.5194 147.912ZM19.5897 174.973L18.5897 174.975L18.5903 175.222L18.7055 175.44L19.5897 174.973ZM23.7214 182.793L24.5487 183.355L24.8864 182.858L24.6056 182.326L23.7214 182.793ZM14.6756 196.113L13.8308 196.648L14.6465 197.935L15.5028 196.674L14.6756 196.113ZM11.6047 191.265L12.4495 190.73L12.2461 190.409L11.8809 190.304L11.6047 191.265ZM3.59766 188.964L3.87382 188.003L2.82233 187.701L2.61566 188.775L3.59766 188.964ZM2 197.269L1.01801 197.08L0.980662 197.274L1.01999 197.468L2 197.269ZM3.36325 203.985L2.38324 204.184L2.46395 204.581L2.7989 204.81L3.36325 203.985ZM5.79192 205.645L5.22757 206.471L6.17218 207.116L6.6856 206.094L5.79192 205.645ZM8.90006 199.455L9.16385 198.49L8.37387 198.274L8.00638 199.006L8.90006 199.455ZM13.0878 200.6L12.8241 201.565L12.9247 201.592L13.0288 201.598L13.0878 200.6ZM18.9362 200.946L19.933 200.867L19.8643 199.999L18.9952 199.947L18.9362 200.946ZM19.8366 212.31L20.6424 212.902L20.8629 212.602L20.8335 212.231L19.8366 212.31ZM11.977 223.004L11.1712 222.412L10.8066 222.908L11.0854 223.457L11.977 223.004ZM24.1533 246.977L23.2617 247.43L23.7485 248.388L24.6693 247.833L24.1533 246.977ZM32.0218 242.237L32.3197 241.282L31.8907 241.149L31.5058 241.38L32.0218 242.237ZM76.9504 256.257L76.6525 257.211L76.7421 257.239L76.8352 257.25L76.9504 256.257ZM128.356 262.218L128.24 263.211L128.315 263.22L128.391 263.217L128.356 262.218ZM167.464 260.832L167.621 259.844L167.525 259.829L167.429 259.833L167.464 260.832ZM193.397 264.96L193.24 265.948L193.734 266.027L194.093 265.678L193.397 264.96ZM201.4 257.194L201.435 256.195L201.009 256.179L200.703 256.476L201.4 257.194ZM209.743 257.489L210.203 256.601L210.003 256.498L209.779 256.49L209.743 257.489ZM217.347 261.42L218.096 260.757L217.972 260.617L217.806 260.532L217.347 261.42ZM226.617 271.898L225.868 272.56L226.212 272.95L226.729 272.892L226.617 271.898ZM243.996 269.942L244.84 270.478L245.959 268.715L243.884 268.949L243.996 269.942ZM241.034 274.608L240.19 274.072L240.012 274.351L240.037 274.682L241.034 274.608ZM242.026 287.976L242.907 288.451L243.045 288.194L243.024 287.902L242.026 287.976ZM235.93 299.281L235.05 298.806L234.615 299.612L235.38 300.116L235.93 299.281ZM240.058 301.999L239.508 302.835L240.058 303.197L240.608 302.835L240.058 301.999ZM260.819 288.331L261.369 289.167L262.085 288.695L261.728 287.915L260.819 288.331ZM257.432 280.932L256.729 280.22L256.231 280.712L256.522 281.348L257.432 280.932ZM273.938 264.633L273.474 263.747L273.342 263.817L273.236 263.921L273.938 264.633ZM294.282 253.97L294.746 254.855L295.336 254.546L295.278 253.882L294.282 253.97ZM292.581 234.53L292.535 233.531L291.494 233.58L291.585 234.618L292.581 234.53ZM300.077 234.183L300.769 233.461L300.459 233.164L300.03 233.184L300.077 234.183ZM311.469 245.122L310.777 245.844L311.535 246.572L312.224 245.778L311.469 245.122ZM315.861 240.062L316.491 239.285L315.74 238.675L315.106 239.406L315.861 240.062ZM319.232 242.799L320.199 243.051L320.361 242.428L319.862 242.023L319.232 242.799ZM318.119 247.076L317.151 246.824L316.975 247.502L317.552 247.899L318.119 247.076ZM324.316 251.342L323.749 252.166L324.729 252.841L325.225 251.758L324.316 251.342ZM339.837 217.443L340.746 217.859L341.149 216.979L340.282 216.548L339.837 217.443ZM331.403 213.244L331.849 212.349L331.333 212.092L330.852 212.409L331.403 213.244ZM319.942 220.802L319.604 221.743L320.075 221.912L320.493 221.637L319.942 220.802ZM309.536 217.07L308.558 217.278L308.674 217.823L309.199 218.011L309.536 217.07ZM308.079 210.205L307.968 209.212L306.871 209.334L307.1 210.413L308.079 210.205ZM317.432 209.164L317.542 210.158L318.217 210.083L318.396 209.429L317.432 209.164ZM319.018 203.377L319.982 203.641L320.389 202.157L318.868 202.388L319.018 203.377ZM304.821 205.533L303.873 205.216L303.354 206.767L304.971 206.521L304.821 205.533ZM305.901 202.301L305.33 201.48L305.058 201.669L304.953 201.984L305.901 202.301ZM320.526 192.133L321.097 192.955L321.389 192.752L321.487 192.41L320.526 192.133ZM324.016 180L324.483 179.116L323.395 178.54L323.055 179.724L324.016 180ZM327.519 181.854L328.492 181.621L328.386 181.181L327.987 180.97L327.519 181.854ZM333.525 206.974L332.553 207.207L332.879 208.571L334.062 207.818L333.525 206.974ZM354.605 193.567L354.463 192.578L354.25 192.608L354.069 192.724L354.605 193.567ZM363.53 192.279L363.673 193.269L365.233 193.044L364.364 191.728L363.53 192.279ZM359.086 185.548L359.921 184.997L359.782 184.788L359.561 184.668L359.086 185.548ZM347.425 179.262L347.899 178.382L347.57 178.204L347.205 178.286L347.425 179.262ZM334.975 182.059L334.159 182.636L334.544 183.181L335.194 183.035L334.975 182.059ZM326.818 170.518L327.634 169.941L327.587 169.874L327.529 169.816L326.818 170.518ZM319.661 163.272L320.372 162.569L319.838 162.028L319.173 162.399L319.661 163.272ZM314.984 165.886L314.441 166.725L314.946 167.052L315.472 166.758L314.984 165.886ZM306.749 160.552L307.293 159.713L306.937 159.482L306.524 159.578L306.749 160.552ZM296.408 162.941L296.286 163.933L296.461 163.955L296.634 163.915L296.408 162.941ZM286.506 161.715L285.51 161.802L285.581 162.608L286.384 162.707L286.506 161.715ZM286.064 156.655L287.06 156.568L287.016 156.058L286.575 155.796L286.064 156.655ZM260.973 141.729L261.485 140.869L259.321 139.582L260.012 142.003L260.973 141.729ZM264.672 154.687L265.52 155.217L265.756 154.84L265.634 154.412L264.672 154.687ZM260.748 160.961L260.77 161.961L261.309 161.949L261.595 161.491L260.748 160.961ZM252.536 161.142L251.669 161.639L251.964 162.155L252.559 162.142L252.536 161.142ZM245.817 149.417L246.685 148.919L246.387 148.399L245.788 148.417L245.817 149.417ZM239.356 149.609L239 150.543L239.186 150.614L239.386 150.608L239.356 149.609ZM228.871 145.612L229.227 144.678L228.758 144.499L228.335 144.768L228.871 145.612ZM223.653 148.923L223.506 149.912L223.874 149.966L224.188 149.767L223.653 148.923ZM216.095 147.805L216.241 146.815L215.522 146.709L215.199 147.361L216.095 147.805ZM214.228 151.571L213.332 151.126L213.108 151.578L213.338 152.027L214.228 151.571ZM221.846 166.422L222.846 166.427L222.847 166.183L222.736 165.965L221.846 166.422ZM221.794 175.839L220.794 175.834L220.791 176.399L221.275 176.693L221.794 175.839ZM232.916 182.605L233.9 182.427L233.819 181.984L233.435 181.751L232.916 182.605ZM235.122 194.768L235.949 195.33L236.179 194.992L236.106 194.589L235.122 194.768ZM227.948 205.315L227.121 204.753L226.74 205.312L227.118 205.873L227.948 205.315ZM237.416 219.378L238.416 219.365L238.412 219.067L238.245 218.819L237.416 219.378ZM237.492 225.717L238.094 226.516L238.498 226.212L238.492 225.705L237.492 225.717ZM232.612 229.391L232.101 230.251L232.678 230.593L233.213 230.19L232.612 229.391ZM222.119 223.163L221.186 223.524L221.311 223.846L221.608 224.023L222.119 223.163ZM215.367 205.729L216.299 205.367L216.05 204.723L215.359 204.729L215.367 205.729ZM198.527 205.862L198.086 206.76L198.299 206.864L198.535 206.862L198.527 205.862ZM181.413 197.462L181.854 196.565L181.512 196.397L181.145 196.499L181.413 197.462ZM172.384 199.971L171.472 200.381L171.824 201.165L172.652 200.935L172.384 199.971ZM167.483 189.071L168.396 188.661L168.149 188.112L167.548 188.073L167.483 189.071ZM161.994 188.714L160.995 188.727L161.007 189.651L161.93 189.712L161.994 188.714ZM161.74 169.509L160.966 168.877L160.736 169.159L160.741 169.522L161.74 169.509ZM177.437 150.288L178.212 150.92L178.328 150.777L178.386 150.602L177.437 150.288ZM181.091 139.261L181.508 138.352L180.493 137.886L180.142 138.947L181.091 139.261ZM184.239 140.705L185.237 140.763L185.276 140.081L184.656 139.796L184.239 140.705ZM183.669 150.554L182.671 150.496L182.634 151.128L183.189 151.431L183.669 150.554ZM189.839 153.928L189.359 154.805L190.264 155.3L190.731 154.38L189.839 153.928ZM194.276 145.191L194.821 144.352L193.888 143.745L193.384 144.738L194.276 145.191ZM199.344 148.489L198.799 149.327L199.674 149.897L200.205 148.998L199.344 148.489ZM202.74 142.743L203.601 143.252L204.026 142.533L203.395 141.987L202.74 142.743ZM198.728 139.268L199.383 138.513L199.261 138.407L199.113 138.346L198.728 139.268ZM185.545 133.766L184.733 133.183L183.999 134.205L185.16 134.689L185.545 133.766ZM193.723 122.379L194.535 122.963L195.045 122.252L194.409 121.652L193.723 122.379ZM188.104 117.075L187.118 116.909L187.029 117.436L187.418 117.802L188.104 117.075ZM190.191 104.703L190.42 103.73L189.383 103.486L189.205 104.537L190.191 104.703ZM201.835 107.444L202.811 107.225L202.674 106.614L202.064 106.47L201.835 107.444ZM204.001 117.101L203.025 117.32L203.451 119.22L204.747 117.766L204.001 117.101ZM210.225 110.118L210.388 109.132L209.845 109.042L209.479 109.453L210.225 110.118ZM216.233 111.109L217.229 111.202L217.315 110.274L216.396 110.122L216.233 111.109ZM214.712 127.378L215.227 128.235L215.66 127.974L215.707 127.471L214.712 127.378ZM206.544 132.29L206.029 131.433L204.775 132.187L205.934 133.082L206.544 132.29ZM212.13 136.6L211.519 137.392L212.003 137.765L212.556 137.505L212.13 136.6ZM222.488 131.734L223 130.875L222.543 130.603L222.063 130.829L222.488 131.734ZM235.515 139.499L235.003 140.358L235.271 140.517L235.582 140.496L235.515 139.499ZM251.938 138.399L252.005 139.397L253.023 139.329L252.934 138.312L251.938 138.399ZM251.672 135.359L252.668 135.272L252.617 134.682L252.075 134.444L251.672 135.359ZM239.524 130.016L238.697 129.453L238.022 130.447L239.122 130.931L239.524 130.016ZM240.977 127.879L240.922 126.88L240.428 126.907L240.151 127.316L240.977 127.879ZM252.126 127.26L252.182 128.258L253.995 128.158L252.941 126.679L252.126 127.26ZM246.882 119.905L247.696 119.325L247.512 119.066L247.212 118.961L246.882 119.905ZM233.702 115.293L232.744 115.577L232.889 116.067L233.372 116.237L233.702 115.293ZM231.774 108.783L232.084 107.832L230.274 107.241L230.815 109.067L231.774 108.783ZM246.649 113.643L246.338 114.593L247.771 115.062L247.645 113.56L246.649 113.643ZM245.467 99.4927L246.464 99.4094L246.408 98.7416L245.769 98.5393L245.467 99.4927ZM232.792 95.4795L233.094 94.5261L232.527 94.3466L232.099 94.759L232.792 95.4795ZM229.595 98.5566L229.546 99.5554L229.978 99.5767L230.289 99.277L229.595 98.5566ZM221.235 98.1427L220.253 97.9557L220.038 99.0847L221.185 99.1415L221.235 98.1427ZM222.547 91.2538L223.529 91.4408L223.668 90.7104L223.009 90.3669L222.547 91.2538ZM206.478 82.8831L206.94 81.9962L206.463 81.7477L205.993 82.0089L206.478 82.8831ZM202.225 85.2458L201.623 86.0442L202.142 86.4357L202.71 86.12L202.225 85.2458ZM186.727 73.5573L187.329 72.7589L186.884 72.4233L186.364 72.6252L186.727 73.5573ZM173.966 78.5176L174.01 79.5167L174.174 79.5094L174.328 79.4497L173.966 78.5176ZM161.2 79.0798L161.172 80.0794L161.208 80.0804L161.244 80.0788L161.2 79.0798ZM147.083 78.6878L147.11 77.6882L147.009 77.6853L146.909 77.7029L147.083 78.6878ZM140.317 79.8782L140.144 78.8933L139.765 78.96L139.529 79.263L140.317 79.8782ZM135.213 86.4182L134.425 85.8029L133.935 86.431L134.437 87.0491L135.213 86.4182ZM144.602 97.9638L143.826 98.5947L144.094 98.9235L144.516 98.9601L144.602 97.9638ZM149.279 98.3691L150.268 98.2275L150.156 97.4414L149.365 97.3729L149.279 98.3691ZM150.474 106.724L151.016 107.564L151.555 107.216L151.464 106.582L150.474 106.724ZM145.181 110.143L144.754 111.047L145.257 111.284L145.723 110.983L145.181 110.143ZM139.773 107.594L139.09 108.325L139.204 108.432L139.346 108.499L139.773 107.594ZM131.435 99.7994L130.435 99.8115L130.44 100.238L130.752 100.53L131.435 99.7994ZM131.246 84.2958L132.246 84.2836L132.244 84.1484L132.207 84.0185L131.246 84.2958ZM130.121 80.3996L131.082 80.1222L130.753 78.9813L129.684 79.5L130.121 80.3996ZM117.946 86.3108L117.264 87.0421L117.766 87.51L118.383 87.2104L117.946 86.3108ZM109.625 78.5492L108.87 79.2057L108.904 79.245L108.943 79.2805L109.625 78.5492ZM100.093 67.5968L100.847 66.9403L100.575 66.6275L100.161 66.5992L100.093 67.5968ZM93.7317 67.1618L93.7999 66.1641L92.9304 66.1047L92.7527 66.9578L93.7317 67.1618ZM92.9513 70.9074L93.7866 71.4572L93.8914 71.298L93.9302 71.1114L92.9513 70.9074ZM85.2092 82.6723L84.3738 82.1226L83.9969 82.6954L84.3953 83.2534L85.2092 82.6723ZM87.6576 86.1014L88.6568 86.0605L88.6446 85.7627L88.4715 85.5203L87.6576 86.1014ZM87.8298 90.3064L86.8306 90.3473L86.868 91.2602L87.7805 91.3052L87.8298 90.3064ZM96.8791 90.7526L97.8216 90.4184L97.5976 89.7868L96.9283 89.7538L96.8791 90.7526ZM100.003 99.5624L100.871 100.059L101.099 99.6607L100.946 99.2281L100.003 99.5624ZM97.0702 104.688L96.8289 105.658L97.5626 105.841L97.9381 105.185L97.0702 104.688ZM85.8018 101.887L85.0408 102.536L85.249 102.78L85.5606 102.857L85.8018 101.887ZM76.1102 90.5171L76.8712 89.8684L76.5984 89.5483L76.1787 89.5195L76.1102 90.5171ZM59.262 89.3598L59.3305 88.3622L59.1962 88.353L59.0643 88.3796L59.262 89.3598ZM101.06 57.123L111.25 51.1034L110.232 49.3814L100.043 55.401L101.06 57.123ZM116.924 73.671L101.308 55.608L99.7947 56.916L115.411 74.979L116.924 73.671ZM135.818 68.6224L115.936 73.3522L116.399 75.2979L136.281 70.5681L135.818 68.6224ZM151.419 71.0377L136.207 68.6078L135.892 70.5827L151.103 73.0127L151.419 71.0377ZM169.911 70.7769L151.248 71.0253L151.274 73.0251L169.937 72.7768L169.911 70.7769ZM177.723 67.9674L169.592 70.8337L170.256 72.72L178.388 69.8536L177.723 67.9674ZM179.326 62.4924L177.116 68.5687L178.996 69.2523L181.206 63.176L179.326 62.4924ZM173.805 59.6093L179.7 63.6585L180.832 62.01L174.937 57.9608L173.805 59.6093ZM178.758 52.3253L173.623 58.1219L175.12 59.4482L180.255 53.6516L178.758 52.3253ZM176.298 47.1697L178.568 53.3341L180.445 52.6428L178.174 46.4784L176.298 47.1697ZM177.079 37.6047L176.24 46.7325L178.232 46.9156L179.071 37.7878L177.079 37.6047ZM174.819 33.7453L177.194 38.1693L178.956 37.2232L176.581 32.7992L174.819 33.7453ZM177.226 28.8448L174.846 32.7519L176.554 33.7925L178.934 29.8854L177.226 28.8448ZM178.875 16.0449L177.089 29.2309L179.071 29.4993L180.857 16.3133L178.875 16.0449ZM177.081 2.12545L178.874 16.3045L180.858 16.0536L179.065 1.87455L177.081 2.12545ZM164.58 6.47146L178.32 2.96901L177.826 1.03099L164.086 4.53343L164.58 6.47146ZM149.914 21.2332L165.037 6.21193L163.628 4.79295L148.505 19.8142L149.914 21.2332ZM147.759 30.8979L150.182 20.756L148.237 20.2913L145.814 30.4332L147.759 30.8979ZM142.879 33.8426L147.251 31.5513L146.323 29.7798L141.951 32.0711L142.879 33.8426ZM141.695 39.0707L143.376 33.2336L141.454 32.6801L139.773 38.5173L141.695 39.0707ZM134.104 40.5013L140.839 39.7884L140.629 37.7995L133.893 38.5124L134.104 40.5013ZM132.609 46.5506L134.943 39.8352L133.054 39.1785L130.72 45.8939L132.609 46.5506ZM126.385 42.6368L130.98 46.9513L132.349 45.4932L127.753 41.1788L126.385 42.6368ZM118.427 45.9604L127.396 42.8527L126.742 40.9629L117.772 44.0706L118.427 45.9604ZM117.323 50.5566L119.049 45.3291L117.15 44.702L115.424 49.9295L117.323 50.5566ZM110.741 51.2424L116.373 51.2431L116.373 49.2431L110.741 49.2424L110.741 51.2424ZM42.8676 80.6132L51.451 91.3998L53.016 90.1545L44.4325 79.3679L42.8676 80.6132ZM4.96063 135.186L44.4603 80.5766L42.8398 79.4044L3.34011 134.014L4.96063 135.186ZM9.57991 136.483L4.63742 133.727L3.66332 135.474L8.6058 138.23L9.57991 136.483ZM10.361 150.981L10.0927 137.337L8.09305 137.376L8.36141 151.02L10.361 150.981ZM19.2285 146.955L9.07032 150.044L9.65211 151.957L19.8103 148.869L19.2285 146.955ZM20.5897 174.97L20.5194 147.909L18.5194 147.915L18.5897 174.975L20.5897 174.97ZM24.6056 182.326L20.4739 174.506L18.7055 175.44L22.8372 183.261L24.6056 182.326ZM15.5028 196.674L24.5487 183.355L22.8942 182.232L13.8483 195.551L15.5028 196.674ZM10.7599 191.8L13.8308 196.648L15.5204 195.577L12.4495 190.73L10.7599 191.8ZM3.32149 189.925L11.3285 192.226L11.8809 190.304L3.87382 188.003L3.32149 189.925ZM2.98199 197.458L4.57965 189.153L2.61566 188.775L1.01801 197.08L2.98199 197.458ZM4.34327 203.786L2.98001 197.07L1.01999 197.468L2.38324 204.184L4.34327 203.786ZM6.35628 204.82L3.92761 203.159L2.7989 204.81L5.22757 206.471L6.35628 204.82ZM8.00638 199.006L4.89824 205.196L6.6856 206.094L9.79374 199.903L8.00638 199.006ZM13.3516 199.635L9.16385 198.49L8.63628 200.419L12.8241 201.565L13.3516 199.635ZM18.9952 199.947L13.1469 199.602L13.0288 201.598L18.8772 201.944L18.9952 199.947ZM20.8335 212.231L19.933 200.867L17.9393 201.025L18.8398 212.389L20.8335 212.231ZM12.7828 223.597L20.6424 212.902L19.0308 211.718L11.1712 222.412L12.7828 223.597ZM25.0449 246.524L12.8686 222.552L11.0854 223.457L23.2617 247.43L25.0449 246.524ZM31.5058 241.38L23.6373 246.12L24.6693 247.833L32.5378 243.094L31.5058 241.38ZM77.2483 255.302L32.3197 241.282L31.7239 243.192L76.6525 257.211L77.2483 255.302ZM128.471 261.224L77.0656 255.263L76.8352 257.25L128.24 263.211L128.471 261.224ZM167.429 259.833L128.32 261.218L128.391 263.217L167.499 261.831L167.429 259.833ZM193.554 263.973L167.621 259.844L167.307 261.82L193.24 265.948L193.554 263.973ZM200.703 256.476L192.7 264.243L194.093 265.678L202.096 257.912L200.703 256.476ZM209.779 256.49L201.435 256.195L201.364 258.193L209.708 258.489L209.779 256.49ZM217.806 260.532L210.203 256.601L209.284 258.378L216.887 262.308L217.806 260.532ZM227.366 271.235L218.096 260.757L216.598 262.082L225.868 272.56L227.366 271.235ZM243.884 268.949L226.505 270.904L226.729 272.892L244.108 270.936L243.884 268.949ZM241.879 275.144L244.84 270.478L243.152 269.406L240.19 274.072L241.879 275.144ZM243.024 287.902L242.032 274.534L240.037 274.682L241.029 288.05L243.024 287.902ZM236.81 299.755L242.907 288.451L241.146 287.501L235.05 298.806L236.81 299.755ZM240.608 301.164L236.48 298.445L235.38 300.116L239.508 302.835L240.608 301.164ZM260.269 287.496L239.509 301.164L240.608 302.835L261.369 289.167L260.269 287.496ZM256.522 281.348L259.91 288.748L261.728 287.915L258.341 280.516L256.522 281.348ZM273.236 263.921L256.729 280.22L258.134 281.643L274.641 265.345L273.236 263.921ZM293.817 253.084L273.474 263.747L274.402 265.519L294.746 254.855L293.817 253.084ZM291.585 234.618L293.285 254.057L295.278 253.882L293.577 234.443L291.585 234.618ZM300.03 233.184L292.535 233.531L292.627 235.529L300.123 235.182L300.03 233.184ZM312.162 244.401L300.769 233.461L299.384 234.904L310.777 245.844L312.162 244.401ZM315.106 239.406L310.714 244.467L312.224 245.778L316.616 240.717L315.106 239.406ZM319.862 242.023L316.491 239.285L315.231 240.838L318.601 243.575L319.862 242.023ZM319.087 247.327L320.199 243.051L318.264 242.547L317.151 246.824L319.087 247.327ZM324.883 250.518L318.686 246.252L317.552 247.899L323.749 252.166L324.883 250.518ZM338.928 217.026L323.406 250.926L325.225 251.758L340.746 217.859L338.928 217.026ZM330.957 214.139L339.391 218.338L340.282 216.548L331.849 212.349L330.957 214.139ZM320.493 221.637L331.953 214.079L330.852 212.409L319.392 219.967L320.493 221.637ZM309.199 218.011L319.604 221.743L320.28 219.861L309.874 216.129L309.199 218.011ZM307.1 210.413L308.558 217.278L310.515 216.862L309.057 209.998L307.1 210.413ZM317.321 208.17L307.968 209.212L308.189 211.199L317.542 210.158L317.321 208.17ZM318.053 203.112L316.467 208.9L318.396 209.429L319.982 203.641L318.053 203.112ZM304.971 206.521L319.168 204.365L318.868 202.388L304.671 204.544L304.971 206.521ZM304.953 201.984L303.873 205.216L305.77 205.849L306.85 202.618L304.953 201.984ZM319.955 191.312L305.33 201.48L306.472 203.122L321.097 192.955L319.955 191.312ZM323.055 179.724L319.565 191.857L321.487 192.41L324.977 180.277L323.055 179.724ZM327.987 180.97L324.483 179.116L323.548 180.884L327.051 182.738L327.987 180.97ZM334.498 206.742L328.492 181.621L326.546 182.086L332.553 207.207L334.498 206.742ZM354.069 192.724L332.989 206.13L334.062 207.818L355.142 194.411L354.069 192.724ZM363.387 191.289L354.463 192.578L354.748 194.557L363.673 193.269L363.387 191.289ZM358.251 186.099L362.695 192.83L364.364 191.728L359.921 184.997L358.251 186.099ZM346.95 180.142L358.611 186.429L359.561 184.668L347.899 178.382L346.95 180.142ZM335.194 183.035L347.644 180.238L347.205 178.286L334.756 181.083L335.194 183.035ZM326.001 171.096L334.159 182.636L335.792 181.482L327.634 169.941L326.001 171.096ZM318.949 163.975L326.106 171.221L327.529 169.816L320.372 162.569L318.949 163.975ZM315.472 166.758L320.149 164.145L319.173 162.399L314.497 165.013L315.472 166.758ZM306.206 161.391L314.441 166.725L315.528 165.046L307.293 159.713L306.206 161.391ZM296.634 163.915L306.974 161.526L306.524 159.578L296.183 161.967L296.634 163.915ZM286.384 162.707L296.286 163.933L296.531 161.949L286.629 160.723L286.384 162.707ZM285.068 156.742L285.51 161.802L287.503 161.628L287.06 156.568L285.068 156.742ZM260.462 142.588L285.553 157.515L286.575 155.796L261.485 140.869L260.462 142.588ZM265.634 154.412L261.935 141.454L260.012 142.003L263.711 154.961L265.634 154.412ZM261.595 161.491L265.52 155.217L263.824 154.156L259.9 160.431L261.595 161.491ZM252.559 162.142L260.77 161.961L260.726 159.961L252.514 160.142L252.559 162.142ZM244.95 149.914L251.669 161.639L253.404 160.645L246.685 148.919L244.95 149.914ZM239.386 150.608L245.847 150.416L245.788 148.417L239.326 148.609L239.386 150.608ZM228.515 146.547L239 150.543L239.712 148.674L229.227 144.678L228.515 146.547ZM224.188 149.767L229.406 146.457L228.335 144.768L223.117 148.078L224.188 149.767ZM215.949 148.794L223.506 149.912L223.799 147.934L216.241 146.815L215.949 148.794ZM215.124 152.015L216.991 148.249L215.199 147.361L213.332 151.126L215.124 152.015ZM222.736 165.965L215.118 151.114L213.338 152.027L220.956 166.878L222.736 165.965ZM222.794 175.845L222.846 166.427L220.846 166.416L220.794 175.834L222.794 175.845ZM233.435 181.751L222.314 174.985L221.275 176.693L232.396 183.459L233.435 181.751ZM236.106 194.589L233.9 182.427L231.932 182.783L234.138 194.946L236.106 194.589ZM228.775 205.877L235.949 195.33L234.295 194.205L227.121 204.753L228.775 205.877ZM238.245 218.819L228.777 204.756L227.118 205.873L236.586 219.936L238.245 218.819ZM238.492 225.705L238.416 219.365L236.416 219.39L236.492 225.729L238.492 225.705ZM233.213 230.19L238.094 226.516L236.891 224.918L232.01 228.592L233.213 230.19ZM221.608 224.023L232.101 230.251L233.122 228.531L222.629 222.303L221.608 224.023ZM214.434 206.09L221.186 223.524L223.051 222.802L216.299 205.367L214.434 206.09ZM198.535 206.862L215.375 206.729L215.359 204.729L198.519 204.862L198.535 206.862ZM180.972 198.36L198.086 206.76L198.968 204.964L181.854 196.565L180.972 198.36ZM172.652 200.935L181.681 198.426L181.145 196.499L172.116 199.008L172.652 200.935ZM166.571 189.481L171.472 200.381L173.296 199.561L168.396 188.661L166.571 189.481ZM161.93 189.712L167.419 190.069L167.548 188.073L162.059 187.716L161.93 189.712ZM160.741 169.522L160.995 188.727L162.994 188.7L162.74 169.496L160.741 169.522ZM176.663 149.655L160.966 168.877L162.515 170.142L178.212 150.92L176.663 149.655ZM180.142 138.947L176.488 149.973L178.386 150.602L182.041 139.576L180.142 138.947ZM184.656 139.796L181.508 138.352L180.674 140.17L183.822 141.614L184.656 139.796ZM184.667 150.611L185.237 140.763L183.24 140.648L182.671 150.496L184.667 150.611ZM190.319 153.05L184.149 149.676L183.189 151.431L189.359 154.805L190.319 153.05ZM193.384 144.738L188.948 153.475L190.731 154.38L195.167 145.643L193.384 144.738ZM199.89 147.651L194.821 144.352L193.73 146.029L198.799 149.327L199.89 147.651ZM201.88 142.234L198.484 147.98L200.205 148.998L203.601 143.252L201.88 142.234ZM198.073 140.024L202.086 143.499L203.395 141.987L199.383 138.513L198.073 140.024ZM185.16 134.689L198.343 140.191L199.113 138.346L185.93 132.843L185.16 134.689ZM192.911 121.796L184.733 133.183L186.357 134.35L194.535 122.963L192.911 121.796ZM187.418 117.802L193.037 123.107L194.409 121.652L188.791 116.348L187.418 117.802ZM189.205 104.537L187.118 116.909L189.09 117.242L191.177 104.87L189.205 104.537ZM202.064 106.47L190.42 103.73L189.962 105.677L201.606 108.417L202.064 106.47ZM204.977 116.882L202.811 107.225L200.859 107.662L203.025 117.32L204.977 116.882ZM209.479 109.453L203.255 116.435L204.747 117.766L210.972 110.784L209.479 109.453ZM216.396 110.122L210.388 109.132L210.063 111.105L216.07 112.095L216.396 110.122ZM215.707 127.471L217.229 111.202L215.237 111.016L213.716 127.285L215.707 127.471ZM207.06 133.147L215.227 128.235L214.196 126.521L206.029 131.433L207.06 133.147ZM212.741 135.808L207.155 131.498L205.934 133.082L211.519 137.392L212.741 135.808ZM222.063 130.829L211.705 135.695L212.556 137.505L222.913 132.639L222.063 130.829ZM236.027 138.64L223 130.875L221.976 132.593L235.003 140.358L236.027 138.64ZM251.871 137.401L235.448 138.501L235.582 140.496L252.005 139.397L251.871 137.401ZM250.676 135.446L250.942 138.486L252.934 138.312L252.668 135.272L250.676 135.446ZM239.122 130.931L251.269 136.274L252.075 134.444L239.927 129.1L239.122 130.931ZM240.151 127.316L238.697 129.453L240.351 130.578L241.804 128.441L240.151 127.316ZM252.071 126.261L240.922 126.88L241.033 128.877L252.182 128.258L252.071 126.261ZM246.068 120.486L251.312 127.84L252.941 126.679L247.696 119.325L246.068 120.486ZM233.372 116.237L246.552 120.849L247.212 118.961L234.033 114.349L233.372 116.237ZM230.815 109.067L232.744 115.577L234.661 115.009L232.733 108.499L230.815 109.067ZM246.959 112.692L232.084 107.832L231.463 109.733L246.338 114.593L246.959 112.692ZM244.47 99.5759L245.652 113.726L247.645 113.56L246.464 99.4094L244.47 99.5759ZM232.49 96.4328L245.165 100.446L245.769 98.5393L233.094 94.5261L232.49 96.4328ZM230.289 99.277L233.486 96.1999L232.099 94.759L228.902 97.8361L230.289 99.277ZM221.185 99.1415L229.546 99.5554L229.645 97.5578L221.284 97.144L221.185 99.1415ZM221.564 91.0667L220.253 97.9557L222.217 98.3298L223.529 91.4408L221.564 91.0667ZM206.016 83.77L222.085 92.1406L223.009 90.3669L206.94 81.9962L206.016 83.77ZM202.71 86.12L206.964 83.7573L205.993 82.0089L201.739 84.3716L202.71 86.12ZM186.124 74.3557L201.623 86.0442L202.827 84.4474L187.329 72.7589L186.124 74.3557ZM174.328 79.4497L187.089 74.4893L186.364 72.6252L173.603 77.5856L174.328 79.4497ZM161.244 80.0788L174.01 79.5167L173.922 77.5186L161.156 78.0808L161.244 80.0788ZM147.055 79.6874L161.172 80.0794L161.227 78.0802L147.11 77.6882L147.055 79.6874ZM140.491 80.8631L147.256 79.6726L146.909 77.7029L140.144 78.8933L140.491 80.8631ZM136.001 87.0334L141.106 80.4935L139.529 79.263L134.425 85.8029L136.001 87.0334ZM145.378 97.3329L135.989 85.7872L134.437 87.0491L143.826 98.5947L145.378 97.3329ZM149.365 97.3729L144.689 96.9675L144.516 98.9601L149.192 99.3654L149.365 97.3729ZM151.464 106.582L150.268 98.2275L148.289 98.5108L149.484 106.865L151.464 106.582ZM145.723 110.983L151.016 107.564L149.931 105.884L144.638 109.303L145.723 110.983ZM139.346 108.499L144.754 111.047L145.607 109.238L140.199 106.689L139.346 108.499ZM130.752 100.53L139.09 108.325L140.456 106.864L132.118 99.0689L130.752 100.53ZM130.246 84.308L130.435 99.8115L132.435 99.7872L132.246 84.2836L130.246 84.308ZM129.16 80.6769L130.285 84.5731L132.207 84.0185L131.082 80.1222L129.16 80.6769ZM118.383 87.2104L130.558 81.2991L129.684 79.5L117.509 85.4113L118.383 87.2104ZM108.943 79.2805L117.264 87.0421L118.628 85.5795L110.307 77.8179L108.943 79.2805ZM99.3387 68.2533L108.87 79.2057L110.379 77.8927L100.847 66.9403L99.3387 68.2533ZM93.6634 68.1595L100.025 68.5945L100.161 66.5992L93.7999 66.1641L93.6634 68.1595ZM93.9302 71.1114L94.7106 67.3658L92.7527 66.9578L91.9723 70.7035L93.9302 71.1114ZM86.0445 83.222L93.7866 71.4572L92.1159 70.3577L84.3738 82.1226L86.0445 83.222ZM88.4715 85.5203L86.023 82.0912L84.3953 83.2534L86.8438 86.6825L88.4715 85.5203ZM88.8289 90.2655L88.6568 86.0605L86.6585 86.1423L86.8306 90.3473L88.8289 90.2655ZM96.9283 89.7538L87.879 89.3076L87.7805 91.3052L96.8298 91.7514L96.9283 89.7538ZM100.946 99.2281L97.8216 90.4184L95.9366 91.0868L99.0605 99.8966L100.946 99.2281ZM97.9381 105.185L100.871 100.059L99.135 99.0657L96.2022 104.191L97.9381 105.185ZM85.5606 102.857L96.8289 105.658L97.3114 103.718L86.0431 100.916L85.5606 102.857ZM75.3491 91.1658L85.0408 102.536L86.5629 101.238L76.8712 89.8684L75.3491 91.1658ZM59.1935 90.3575L76.0417 91.5148L76.1787 89.5195L59.3305 88.3622L59.1935 90.3575ZM52.4312 91.7575L59.4597 90.3401L59.0643 88.3796L52.0358 89.7969L52.4312 91.7575Z" fill="#5D81FF"/>
</svg>
