<svg width="375" height="303" viewBox="0 0 375 303" fill="none" xmlns="http://www.w3.org/2000/svg">
<path d="M111.244 101.438H119.028V96.2396L115.129 91.3317L116.428 79.788L120.756 72.2811L122.207 62.4792L129.134 51.5023V25.8157L124.516 19.47L129.134 6.48848L132.88 3.59907V1H131.152L115.571 16.3041L111.244 18.0322L102.576 17.1613L97.1013 20.341L78.6313 51.2119L67.0875 60.1705L27.9769 63.917L10.3779 89.6036L11.235 96.5299L17.871 106.484L20.3318 107.203L23.788 112.111L26.0968 112.829L28.4055 111.53L28.9861 108.364L25.5299 105.613L22.9309 105.475L22.212 102.737L23.0691 96.3778L31.447 83.8248L31.8755 79.788L35.4838 78.6405L37.9308 78.917L44 75.3087L46.447 75.4608L51.3548 72.1428L59.7188 71.8525L62.1797 75.0322L75.3133 67.6635L76.4608 70.4147L80.94 70.1244L84.258 63.917L86.4147 67.3732L89.1658 64.6359L92.9124 64.3456L96.9492 67.3732L99.8386 66.8064L102.866 68.3824L100.558 70.5529L87.2857 70.4147L80.2073 81.5161L79.0599 74.4516L76.7511 73L71.6221 72.8617L61.7373 79.0691L60.1612 86.1336L61.8893 87.5852V89.894L58.9999 92.0506V96.2396L62.8986 98.9769V100.705L59.152 103.594L59.4285 105.613L64.6267 102.876L66.6451 105.613L66.9354 112.829L69.1059 114.848V118.456L65.6359 119.617L63.0368 116.299L63.1889 110.092L58.5714 110.23L57.7004 111.682L54.811 111.972L54.5345 115.581L52.2258 115.428L52.5023 110.092L57.2718 104.604L58.2811 101.286L54.811 94.0691L51.6451 93.5022L53.0829 90.0322L47.6083 90.1843L49.4746 93.2119L46.1566 94.3594L44.5668 98.8386L42.7004 100.276L45.1474 102.005L44.7189 103.456L39.2304 104.756L36.6313 108.654L33.894 109.221L32.8848 110.673L36.7834 113.7L36.4931 123.226L33.7557 125.092L26.0968 121.498L20.7603 115.29L14.1244 115L12.9769 115.857L7.91704 110.23L10.5161 104.894L9.50691 103.014L6.90783 103.456L3.74193 127.691L8.78801 128.7L8.49769 131.009L6.18894 131.88V134.617L13.6958 138.945L10.8064 142.705L9.50691 139.525L3.74193 137.369L5.60829 181.954H7.48847L5.02764 161.604L6.05069 159.447L13.5438 163.912L14.8433 170.991L17.3041 172.567L17.5945 176.617L16.1428 180.074L6.47925 187.428L2 210.378L5.76036 214.567H10.3779L10.5161 207.06L12.106 207.35L21.7696 220.041L31.0046 222.35L32.7327 228.848L31.7235 234.475L27.106 236.783L31.2949 237.945L30.1474 272.714L50.0553 270.696L66.5069 279.06H70.6958L74.3041 276.032L79.7787 275.175L92.7741 280.359L91.9031 277.332L88.1566 273.143L85.9861 267.226L79.1981 259.871L73.281 261.17L72.5622 259.442L76.7511 256.124L76.3225 253.235L73.0045 250.788L74.152 247.746L78.6313 245.88L80.4976 242.991L85.2672 244.58L86.705 239.811L91.3225 237.074L85.5575 236.493L80.94 223.221L83.6773 220.332L81.7972 215.147L77.3317 216.004L79.6405 211.968L89.4423 212.977L90.4654 209.507L95.2211 205.76L95.8018 204.032L88.7234 203.88L87.8663 200.272L82.3778 196.816L83.8156 195.087H87.2857L88.5852 197.825L96.2303 198.834L102.728 197.244L105.604 192.779L103.295 191.037L103.585 188.161L106.336 187.152L104.028 184.263L97.8202 184.553L95.94 182.092H100.419L101.719 179.935H108.203L107.346 183.392L109.074 186.571L113.829 187.871L114.12 190.76L118.447 191.908L116.581 184.691L111.521 182.673L115.571 170.991L113.401 152.659L121.627 142.843L124.806 141.834L126.673 142.124L127.405 142.843L127.253 159.004L131.733 154.387L132.88 149.922L135.479 147.613L137.788 148.332L138.507 157.138L141.687 154.097V149.203L152.359 127.553L151.212 124.083L147.604 122.064L145.433 118.899L127.115 120.765L120.617 117.157L120.189 114.129H117.88L117.438 116.147L115.419 118.456L116.138 124.083L114.7 125.382L112.972 124.235L112.82 118.028L120.479 106.912L118.599 104.894H114.12L112.101 103.746L111.244 101.438Z" fill="#EBF3F7" stroke="#5D81FF" stroke-width="2"/>
<path d="M41.9676 96.6681L40.8202 85.8433H43.4192L45.728 82.235V78.917H41.4008L39.2303 83.9769L34.3225 84.5437L26.0967 96.6681L28.5575 100.138L30.2856 100.995L31.0045 104.037L35.9123 104.894L41.9676 96.6681Z" fill="#EBF3F7" stroke="#5D81FF" stroke-width="2"/>
<path d="M14.5527 220.332L20.0412 230.286L22.4882 231.309V223.94L17.7325 220.332H14.5527Z" fill="#EBF3F7" stroke="#5D81FF" stroke-width="2"/>
<path d="M124.516 280.36L111.673 268.968H100.267L83.9678 258.281L85.9862 254.825H91.7512L129.272 273.724L124.516 280.36Z" fill="#EBF3F7" stroke="#5D81FF" stroke-width="2"/>
<path d="M137.498 283.387L136.199 278.632L133.6 276.323L136.489 274.885L137.498 272.715H140.678L138.95 269.397L139.088 266.507L152.36 246.447L153.521 253.526L142.116 285.129L140.097 286.138L137.65 284.687L137.498 283.387Z" fill="#EBF3F7" stroke="#5D81FF" stroke-width="2"/>
<path d="M132.299 266.299L137.787 264.917L136.917 259.152L135.05 258.571L129.99 262.442V264.64L132.299 266.299Z" fill="#EBF3F7" stroke="#5D81FF" stroke-width="2"/>
<path d="M140.967 253.664L145.585 242.7L144.714 230.009L138.506 220.332V210.24L136.198 206.189L134.898 213.115L132.451 213.267L122.055 205.18L105.175 210.088L102.437 213.115L92.0409 212.839L88.4326 215.424L87.2852 217.456L92.193 222.35L93.0501 228.129L96.2298 229.429L96.3681 235.926L99.1192 241.263L101.718 243.129L108.645 244.581L111.52 248.189L107.483 252.087L107.774 254.825H110.663L111.81 253.816L118.018 253.664L126.534 258.571L140.387 254.825L140.967 253.664Z" fill="#EBF3F7" stroke="#5D81FF" stroke-width="2"/>
<path d="M194.636 292.913L190.018 291.765L183.535 292.913L181.654 295.512H177.756L164.774 285.129L161.028 286.139L154.82 283.111V280.36L157.267 279.06H159.438L160.585 277.761L158.138 273.434H156.687L157.267 268.968L163.046 265.498L169.682 266.3L181.806 278.341L185.124 278.051L183.673 274.595L187.281 273.434L189.3 273.724L188.152 270.834H189.88L199.696 284.41V290.756L197.968 292.484L194.636 292.913Z" fill="#EBF3F7" stroke="#5D81FF" stroke-width="2"/>
<path d="M201.133 287.576V295.512L203.732 301L205.46 299.563L206.179 286.139L214.405 278.341L215.566 275.604L214.405 272.576L209.788 268.526H205.903L199.82 265.498H194.359L192.188 267.599V269.687L194.635 271.125L201.423 286.139L201.133 287.576Z" fill="#EBF3F7" stroke="#5D81FF" stroke-width="2"/>
<path d="M214.406 264.641L217.157 263.632L218.885 264.13L220.475 266.3V271.706L218.885 272.715L205.752 263.632L204.895 261.461L193.061 256.263H196.088L196.517 254.106L192.19 252.517L193.489 249.627H196.517L197.968 247.747L197.678 246.447H193.918L193.779 245.438L196.088 243.42L195.508 241.83H192.19L191.319 243.42L186.563 244V242.991L182.236 243.13L180.065 240.683H177.314L176.609 242.411L167.664 241.401V235.484L160.876 229.719V228.13L163.475 227.259L166.074 223.941L166.503 221.203L164.485 216.295L173.139 210.088L173.001 207.351L175.019 204.171L176.609 205.18L177.314 207.931L181.226 209.507L184.835 208.789L200.554 214.858L201.286 213.558L186.853 206.922L180.936 207.06L178.766 206.189L178.047 203.162L175.448 201.572L166.932 210.807L163.475 210.53L162.038 205.18L159.867 203.162L152.36 200.563L153.521 199.125H160.005L158.858 197.397L154.821 196.664L153.521 194.507H148.323L153.521 188.881L154.821 192.047L161.167 192.779L163.766 192.047L169.973 193.208L174.01 190.028L174.729 182.535L181.074 183.254L182.374 180.503L182.236 177.475L179.346 173.729H175.019L171.701 172.001L170.54 169.982L190.89 173.438L194.498 169.982L197.097 171.848L194.927 174.6L194.498 177.337L192.19 176.328L190.309 176.466L190.019 177.766L193.918 184.401V186.282L190.461 185.411L186.991 187.153V189.6L189.452 189.89L190.461 188.729L194.789 188.881L194.208 191.48L190.309 192.489L190.6 194.646H194.637L196.226 196.526L195.508 198.544L196.088 200.563L198.107 199.844L200.996 194.217L200.706 186.572L203.872 183.392V176.037L206.332 176.618L210.521 191.48L209.941 193.346L207.203 192.047L205.461 194.079L205.614 196.954L203.872 198.696L206.042 199.415L207.342 197.825L208.931 199.125L210.66 205.18L212.097 204.171L211.959 198.406L214.13 194.507L210.369 179.217L208.931 177.185L208.351 172.001H205.033L202.862 173.867L200.706 173.01L200.554 170.839L218.595 158.286L224.65 157.567L234.618 160.595L236.927 162.766L242.111 208.36L238.655 209.231L235.766 208.498L233.885 205.18L230.429 203.742L221.332 207.931L218.305 219.475L219.176 221.632L229.13 226.111L230.429 234.337L226.959 239.383L221.775 239.093L214.268 243.572L212.83 245.438L209.512 245.3L208.641 247.318L209.65 249.199L212.54 250.346H216.286L216.715 253.097L214.268 257.853L215.567 262.443H213.839L214.406 264.641Z" fill="#EBF3F7" stroke="#5D81FF" stroke-width="2"/>
<path d="M348.756 234.862L346.834 252.171L361.834 262.443H371.843L373.378 251.024L348.756 234.862Z" fill="#EBF3F7" stroke="#5D81FF" stroke-width="2"/>
</svg>
