<svg xmlns="http://www.w3.org/2000/svg" width="245" height="330" viewBox="0 0 245 330" fill="none">
    <path fill-rule="evenodd" clip-rule="evenodd" d="M74.5483 2L77.372 2.50844L75.4726 6.54112L77.459 11.9956L83.0058 13.3502L81.4737 6.84312L88.0427 8.57682L90.1554 7.14966L94.9758 10.3974L101.846 10.3777L112.902 13.926L112.755 17.3854L115.021 21.8149L109.53 25.7588L111.155 28.0352L117.211 26.5246L117.627 29.6903L120.635 28.2289L131.25 33.8859L136.397 30.0227L138.848 30.3292L139.975 27.9961L137.077 25.5201L139.826 23.3054L143.508 25.7588L144.174 29.4901L139.975 33.2895L139.552 38.1276L134.551 42.8495L130.42 44.081L132.453 50.5684L137.552 46.2473L142.62 44.6963L142.996 49.7778L147.359 48.2922L146.723 42.7159L155.378 40.1767L159.062 42.4792L168.025 36.379L174.483 28.2947L185.848 28.8716L188.898 20.52L196.248 17.5162L197.126 22.0025L202.785 22.9348L201.433 29.092L204.811 32.1204L204.62 37.0477L200.648 33.0145L195.832 33.9665L196.53 42.342L203.714 40.025L209.064 41.7039L218.724 52.0973L218.187 61.456L223.343 75.729L222.365 81.2169L214.988 90.056L216.438 96.5948L227.429 105.188L226.215 114.506L231.049 122.218L230.505 126.031L234.066 126.559L233.771 135.847L230.121 138.856L235.625 147.71L233.292 149.015L234.547 151.615L240.656 154.195L243 161.325L242.052 171.416L240.081 176.612L233.071 178.646L228.98 173.388L220.522 168.765L219.367 170.92L224.544 174.243L211.788 179.009L211.034 182.453L203.026 183.545L200.058 187.681L189.29 192.564L186.184 197.436L182.122 194.707L178.695 196.972L174.989 196.83L170.573 201.595L169.694 207.824L164.579 198.782L162.524 201.595L166.024 210.685L174.473 217.07L171.544 225.505L181.683 242.27L185.653 241.19L196.912 253.59L196.941 256.935L200.456 257.99L202.296 255.929L209.767 265.825L207.189 276.68L201.162 274.471L196.518 285.323L183.432 290.223L179.956 295.552L187.431 303.481L185.338 311.018L189.707 311.853L188.717 320.704L180.754 316.906L182.13 312.712L176.42 310.918L173.24 313.82L170.817 311.356L164.697 311.438L164.936 314.893L147.729 314.658L146.777 318.3L142.574 321.404L128.837 321.634L127.078 317.826L115.66 315.708L116.047 321.01L108.135 328L99.2083 315.122L80.3433 312.572L75.46 308.892L72.1391 309.879L69.9829 305.408L63.393 303.584L58.8794 307.879L63.5273 309.02L58.4478 313.051L52.8497 310.81L49.2292 313.263L45.417 312.81L43.5854 310.875L40.2012 311.059L36.8644 313.145L32.9987 307.465L37.1567 295.925L36.247 291.634L42.9068 272.75L57.1806 254.778L38.0241 247.199L34.7812 243.542L27.8992 245.904L21.5126 240.385L18.0557 243.688L11.2573 236.828L12.2032 232.341L6.4189 227.383L11.5255 217.637L4.73631 211.84L3.2398 208.333L3.94029 194.947L7.72371 195.185L12.0829 190.51L11.1019 184.848L8.34885 184.395L7.00894 181.939L9.59338 179.178L4.71018 174.321L3.75453 170.967L6.15398 168.54L1.75911 164.83L1.38672 160.482L5.00134 161.089L8.35752 156.425L11.8803 145.568L5.64852 132.44L6.58104 129.15L11.7616 126.327L17.0244 129.678L23.0419 127.716L25.1942 129.605L29.2647 125.06L26.0906 123.188L26.3448 120.649L35.0269 115.928L35.1153 105.908L28.2527 104.11L28.8231 98.2232L36.7476 97.646L38.225 89.9803L42.3095 84.6214L41.4649 76.697L45.1878 69.8004L37.4946 68.2194L39.6616 60.2586L44.5448 55.398L62.8845 55.992L65.2243 62.2053L69.2702 63.3774L73.5064 62.6802L74.6633 57.6091L77.9873 49.0692L85.0043 51.6136L86.829 48.5028L82.4604 46.0014L87.841 42.7861L87.661 38.5088L83.2385 38.8739L86.2591 33.2895L86.6336 26.9995L83.2864 23.9686L79.5345 24.6139L77.3027 17.0209L73.8259 18.8215L70.1256 12.4114L74.5483 2Z" fill="#EBF3F7" stroke="#5D81FF" stroke-width="2"/>
</svg>
