<svg width="18" height="16" viewBox="0 0 18 16" fill="none" xmlns="http://www.w3.org/2000/svg">
<path d="M4 5C4 4.46875 4.4375 4 5 4H9C9.53125 4 10 4.46875 10 5V8C10 8.5625 9.53125 9 9 9H5C4.4375 9 4 8.5625 4 8V5ZM9 10C10.0938 10 11 9.125 11 8V7H13C13.5312 7 14 7.46875 14 8V11C14 11.5625 13.5312 12 13 12H9C8.4375 12 8 11.5625 8 11V10H9ZM1 3.75C0.375 3.40625 0 2.75 0 2C0 0.90625 0.875 0 2 0C2.71875 0 3.375 0.40625 3.71875 1H14.25C14.5938 0.40625 15.25 0 16 0C17.0938 0 18 0.90625 18 2C18 2.75 17.5938 3.40625 17 3.75V12.2812C17.5938 12.625 18 13.2812 18 14C18 15.125 17.0938 16 16 16C15.25 16 14.5938 15.625 14.25 15H3.71875C3.375 15.625 2.71875 16 2 16C0.875 16 0 15.125 0 14C0 13.2812 0.375 12.625 1 12.2812V3.75ZM3.71875 3C3.53125 3.3125 3.28125 3.5625 3 3.75V12.2812C3.28125 12.4688 3.53125 12.7188 3.71875 13H14.25C14.4375 12.7188 14.6875 12.4688 15 12.2812V3.75C14.6875 3.5625 14.4375 3.3125 14.25 3H3.71875Z" fill="#ECD821"/>
</svg>
