<svg width="20" height="16" viewBox="0 0 20 16" fill="none" xmlns="http://www.w3.org/2000/svg">
<path d="M6 0C7.09375 0 8 0.90625 8 2V6C8 7.125 7.09375 8 6 8H2C0.875 8 0 7.125 0 6V2C0 0.90625 0.875 0 2 0H6ZM6 2H2V6H6V2ZM18 8C19.0938 8 20 8.90625 20 10V14C20 15.125 19.0938 16 18 16H14C12.875 16 12 15.125 12 14V10C12 8.90625 12.875 8 14 8H18ZM18 10H14V14H18V10ZM6 9C7.65625 9 9 7.65625 9 6V3H13C14.0938 3 15 3.90625 15 5V7H14C12.3125 7 11 8.34375 11 10V13H7C5.875 13 5 12.125 5 11V9H6Z" fill="#3EDF7E"/>
</svg>
