<svg width="270" height="304" viewBox="0 0 270 304" fill="none" xmlns="http://www.w3.org/2000/svg">
<path d="M266.348 28.2693L258.311 36.7812L249.555 94.1916L227.183 100.273L225.961 114.88L246.881 125.089L247.369 137.985L242.998 146.009L229.368 153.556L226.45 159.638L230.101 169.847L222.798 176.906L186.796 174.232L177.063 181.766L189.959 220.211L183.144 251.585L189.715 257.422L188.506 261.562L182.669 262.051L174.877 271.051V275.179L186.796 285.645L180.367 302L165.928 301.023L158.097 293.926L161.518 273.854L166.661 270.19L166.905 260.161L162.508 256.483L144.635 256.972L143.414 246.21L126.776 249.142L124.088 246.454V243.523L119.434 240.823L116.746 224.917L112.825 225.162L107.939 232.992L99.1183 231.526L96.431 224.673L93.0108 224.185L85.4247 233.236L80.5259 232.015L77.5943 227.373L70.741 227.862L68.5423 240.823L35.2533 253.063L17.1495 245.233L12.2506 247.432L9.56333 253.308H6.63174L1 244.5V231.771L23.5141 233.236L24.4913 241.311L27.4229 242.044L27.6672 237.891L41.8623 233.481L59.7218 237.647L59.2332 209.012L47.7383 198.006V193.107L43.8167 188.954L33.0546 189.198L32.566 185.277L42.1066 182.345L71.7182 203.882L82.9688 203.638L105.239 187.231L109.893 189.931L107.939 186.01L103.284 183.567L88.8449 188.465L51.4028 169.127L92.7665 63.9113L98.1411 65.6214L102.796 71.9861L111.359 71.0089L118.701 85.2039L128.486 85.9368L130.684 87.8912L122.61 99.3862L113.313 96.6989L115.769 115.78L117.724 116.269V117.747L111.115 124.343L112.092 128.021L142.681 139.516L169.348 113.337L168.859 101.842L166.661 99.8747H158.586L151.977 95.2331L151 80.0608L159.319 75.8948L158.586 73.4519L136.56 64.8885L136.316 59.2568L138.27 56.0809L136.316 49.4719L148.557 26.4692L186.487 13.0071V22.059H194.807L198.471 17.9059V13.0071L228.327 6.65527L242.278 21.3261L246.675 18.3945L265.769 19.8603L268.701 24.2705L266.348 28.2693Z" fill="#EBF3F7" stroke="#5D81FF" stroke-width="2" stroke-miterlimit="10"/>
<path d="M10.7852 210.967L3.44336 217.576L10.7852 221.986L21.8044 220.276L20.3257 214.644L16.6612 210.967H10.7852Z" fill="#EBF3F7" stroke="#5D81FF" stroke-width="2" stroke-miterlimit="10"/>
<path d="M21.8037 209.501L24.2467 213.422H35.9859V210.967L29.1713 208.279L21.8037 209.501Z" fill="#EBF3F7" stroke="#5D81FF" stroke-width="2" stroke-miterlimit="10"/>
<path d="M26.4463 218.797L29.1721 222.963L43.8173 221.986V218.797H26.4463Z" fill="#EBF3F7" stroke="#5D81FF" stroke-width="2" stroke-miterlimit="10"/>
<path d="M43.3281 210.967L56.546 220.327L57.7675 212.201L47.2498 208.279L43.3281 210.967Z" fill="#EBF3F7" stroke="#5D81FF" stroke-width="2" stroke-miterlimit="10"/>
<path d="M52.8816 184.055L56.7904 180.391L54.836 177.202L49.4485 175.98L46.0283 178.423L51.4029 186.01L52.8816 184.055Z" fill="#EBF3F7" stroke="#5D81FF" stroke-width="2" stroke-miterlimit="10"/>
<path d="M56.79 185.032L59.7216 180.995L67.0634 184.055L59.7216 188.466L55.3242 186.01L56.79 185.032Z" fill="#EBF3F7" stroke="#5D81FF" stroke-width="2" stroke-miterlimit="10"/>
<path d="M62.1777 189.687L90.7993 190.908L89.5778 193.595L79.793 198.006L63.8878 192.618L62.1777 189.687Z" fill="#EBF3F7" stroke="#5D81FF" stroke-width="2" stroke-miterlimit="10"/>
<path d="M149.778 126.066L163.973 118.235L165.928 108.438L151.733 102.086L141.703 108.193L139.749 116.512L142.192 122.144L149.778 126.066Z" fill="#EBF3F7" stroke="#5D81FF" stroke-width="2" stroke-miterlimit="10"/>
<path d="M94.2321 58.7681L104.75 44.573V38.9541H99.4909L91.7891 48.8547L93.0106 57.3023L94.2321 58.7681Z" fill="#EBF3F7" stroke="#5D81FF" stroke-width="2" stroke-miterlimit="10"/>
<path d="M104.749 33.3221L114.779 24.7587H117.479L113.801 22.0586L101.085 33.3221H104.749Z" fill="#EBF3F7" stroke="#5D81FF" stroke-width="2" stroke-miterlimit="10"/>
<path d="M120.899 15.7062L122.365 22.058L147.091 9.83019V6.6543L120.899 15.7062Z" fill="#EBF3F7" stroke="#5D81FF" stroke-width="2" stroke-miterlimit="10"/>
<path d="M152.839 6.6543V11.296L175.713 6.6543H152.839Z" fill="#EBF3F7" stroke="#5D81FF" stroke-width="2" stroke-miterlimit="10"/>
<path d="M186.487 3.71009V6.65454L198.471 3.71009L197.005 2L186.487 3.71009Z" fill="#EBF3F7" stroke="#5D81FF" stroke-width="2" stroke-miterlimit="10"/>
</svg>
