<svg width="210" height="329" viewBox="0 0 210 329" fill="none" xmlns="http://www.w3.org/2000/svg">
<path fill-rule="evenodd" clip-rule="evenodd" d="M95.5242 9.23378L99.2155 2.55619L109.976 2L106.416 9.32639L95.5242 9.23378ZM28.902 29.8703L10.3838 76.2001L18.4291 83.6884L50.078 27.5368L48.8989 21.2556L28.902 29.8703ZM13.3989 159.946L3.95601 165.498L2 173.2L5.53215 179.042L18.8538 173.87L21.9016 182.334L38.362 184.728L55.5693 168.084L39.4945 140.342L26.8468 141.701L23.6093 151.667L16.5457 151.601L13.3989 159.946ZM72.6913 21.1255L65.2378 21.4713L59.6024 37.7376L53.1912 53.421L44.8468 56.5469L39.0791 64.634L51.9768 72.1349L49.5838 81.0502L34.5061 83.1642L31.1856 91.8093L46.1844 96.0736L54.672 92.1033L56.8278 95.8246L51.845 102.591L53.9635 109.349L49.4435 111.505L46.6243 108.984L36.78 116.479L35.8769 123.429L31.8629 126.087L34.105 128.531L46.6243 126.087L49.7357 140.481L52.2874 139.621L55.6133 133.813L60.7442 136.685L65.8958 131.71L67.3271 139.561L59.3584 150.553L64.3771 164.174L66.9108 164.302L70.0717 158.507L74.5279 163.844L94.0823 152.382L97.9719 155.656L91.8771 161.271L96.9385 183.079L99.3494 184.926L105.192 179.11L98.4947 211.981L69.4675 206.296L67.2259 212.064L72.8874 216.3L73.6959 222.332L66.4147 225.27L65.9991 229.629L77.9434 228.208L78.0737 243.294L68.5998 246.907L65.2798 253.258L56.377 256.317L61.9302 266.462L51.7344 266.951L50.5512 269.995L64.8928 271.741L68.0197 267.082L79.2034 269.022L88.6988 276.599L99.5017 277.921L107.614 271.107L111.982 273.391L103.876 281.084L102.935 285.979L98.0333 286.63L72.217 286.2L73.4655 289.478L65.2718 291.718L61.8833 301.255L36.8682 323.509L44.0215 328L50.4551 327.897L70.3086 315.703L84.2565 324.315L85.1414 321.805L82.8775 316.957L93.8504 306.269L124.236 309.138L131.73 300.841L149.367 302.048L159.061 298.583L169.147 303.638L188.185 297L197.687 287.796L199.419 279.031L182.364 279.482L182.862 273.429L197.589 261.273L207.958 240.87L203.054 230.888L182.029 221.29L176.5 229.663L165.229 226.223L173.341 216.608L173.692 210.537L163.172 201.063L168.314 195.642L162.696 189.783L163.487 183.536L154.936 175.482L152.974 164.06L138.439 161.125L129.508 143.388L131.935 125.421L126.396 117.434L113.873 112.888L104.445 115.592L100.409 112.843L109.801 106.968L111.625 102.894L108.862 99.0203L117.951 88.7657L127.957 59.3857L123.063 53.909L115.63 54.8946L109.891 51.0887L106.196 55.0487L97.3082 51.9942L87.6934 56.7927L84.7233 52.121L90.2726 49.0572L87.008 45.4599L106.095 26.4302L103.696 19.4902L80.4228 24.7709L72.6913 21.1255Z" fill="#EBF3F7"/>
<path d="M99.2155 2.55619L99.1639 1.55752L98.6091 1.58619L98.3404 2.07239L99.2155 2.55619ZM95.5242 9.23378L94.649 8.74999L93.8367 10.2195L95.5157 10.2337L95.5242 9.23378ZM109.976 2L110.876 2.43711L111.616 0.913915L109.925 1.00133L109.976 2ZM106.416 9.32639L106.407 10.3264L107.039 10.3317L107.315 9.7635L106.416 9.32639ZM10.3838 76.2001L9.4552 75.8289L9.20088 76.4652L9.70246 76.932L10.3838 76.2001ZM28.902 29.8703L28.5064 28.9519L28.1268 29.1154L27.9735 29.4992L28.902 29.8703ZM18.4291 83.6884L17.7478 84.4204L18.677 85.2853L19.3003 84.1794L18.4291 83.6884ZM50.078 27.5368L50.9492 28.0278L51.1281 27.7104L51.0608 27.3522L50.078 27.5368ZM48.8989 21.2556L49.8817 21.0711L49.6511 19.8427L48.5032 20.3372L48.8989 21.2556ZM3.95601 165.498L3.44917 164.636L3.08948 164.847L2.98677 165.252L3.95601 165.498ZM13.3989 159.946L13.9057 160.808L14.21 160.629L14.3346 160.299L13.3989 159.946ZM2 173.2L1.03076 172.954L0.927788 173.36L1.14426 173.718L2 173.2ZM5.53215 179.042L4.6764 179.56L5.11101 180.279L5.89406 179.975L5.53215 179.042ZM18.8538 173.87L19.7946 173.532L19.4474 172.567L18.4919 172.938L18.8538 173.87ZM21.9016 182.334L20.9607 182.673L21.164 183.237L21.7576 183.324L21.9016 182.334ZM38.362 184.728L38.218 185.718L38.7041 185.789L39.0572 185.447L38.362 184.728ZM55.5693 168.084L56.2645 168.803L56.8265 168.26L56.4345 167.583L55.5693 168.084ZM39.4945 140.342L40.3597 139.841L40.0339 139.279L39.3877 139.348L39.4945 140.342ZM26.8468 141.701L26.7399 140.707L26.0958 140.776L25.8957 141.393L26.8468 141.701ZM23.6093 151.667L23.6 152.667L24.3337 152.674L24.5604 151.976L23.6093 151.667ZM16.5457 151.601L16.5551 150.601L15.8565 150.595L15.61 151.248L16.5457 151.601ZM65.2378 21.4713L65.1915 20.4724L64.5147 20.5038L64.2929 21.144L65.2378 21.4713ZM72.6913 21.1255L73.1178 20.221L72.8931 20.1151L72.645 20.1266L72.6913 21.1255ZM59.6024 37.7376L60.5281 38.116L60.5384 38.0907L60.5473 38.065L59.6024 37.7376ZM53.1912 53.421L53.542 54.3575L53.9514 54.2041L54.1169 53.7994L53.1912 53.421ZM44.8468 56.5469L44.496 55.6105L44.21 55.7176L44.0326 55.9663L44.8468 56.5469ZM39.0791 64.634L38.2649 64.0533L37.6277 64.9467L38.5763 65.4984L39.0791 64.634ZM51.9768 72.1349L52.9426 72.3941L53.1409 71.6551L52.4795 71.2704L51.9768 72.1349ZM49.5838 81.0502L49.7227 82.0405L50.3781 81.9486L50.5496 81.3094L49.5838 81.0502ZM34.5061 83.1642L34.3673 82.1739L33.7839 82.2557L33.5726 82.8056L34.5061 83.1642ZM31.1856 91.8093L30.2521 91.4507L29.8598 92.472L30.9121 92.7711L31.1856 91.8093ZM46.1844 96.0736L45.9109 97.0355L46.27 97.1375L46.6081 96.9794L46.1844 96.0736ZM54.672 92.1033L55.5373 91.602L55.0781 90.8093L54.2483 91.1975L54.672 92.1033ZM56.8278 95.8246L57.6331 96.4176L58.0215 95.8901L57.6931 95.3233L56.8278 95.8246ZM51.845 102.591L51.0398 101.998L50.7392 102.406L50.8908 102.89L51.845 102.591ZM53.9635 109.349L54.3941 110.251L55.1773 109.877L54.9177 109.049L53.9635 109.349ZM49.4435 111.505L48.7769 112.25L49.2732 112.694L49.8741 112.407L49.4435 111.505ZM46.6243 108.984L47.2909 108.238L46.6754 107.688L46.0184 108.188L46.6243 108.984ZM36.78 116.479L36.1741 115.684L35.8421 115.937L35.7883 116.351L36.78 116.479ZM35.8769 123.429L36.4291 124.262L36.8097 124.01L36.8685 123.558L35.8769 123.429ZM31.8629 126.087L31.3107 125.254L30.3343 125.9L31.1261 126.763L31.8629 126.087ZM34.105 128.531L33.3681 129.207L33.7468 129.62L34.2966 129.513L34.105 128.531ZM46.6243 126.087L47.6017 125.876L47.3946 124.918L46.4327 125.106L46.6243 126.087ZM49.7357 140.481L48.7583 140.692L48.9948 141.786L50.0551 141.428L49.7357 140.481ZM52.2874 139.621L52.6068 140.568L52.9665 140.447L53.1551 140.118L52.2874 139.621ZM55.6133 133.813L56.1017 132.94L55.2376 132.457L54.7455 133.316L55.6133 133.813ZM60.7442 136.685L60.2557 137.558L60.9042 137.921L61.4388 137.405L60.7442 136.685ZM65.8958 131.71L66.8796 131.531L66.5446 129.693L65.2011 130.991L65.8958 131.71ZM67.3271 139.561L68.1367 140.148L68.3875 139.803L68.3109 139.382L67.3271 139.561ZM59.3584 150.553L58.5488 149.966L58.2355 150.398L58.42 150.898L59.3584 150.553ZM64.3771 164.174L63.4388 164.52L63.6671 165.139L64.3267 165.173L64.3771 164.174ZM66.9108 164.302L66.8604 165.301L67.4878 165.332L67.7887 164.781L66.9108 164.302ZM70.0717 158.507L70.8394 157.866L69.8976 156.738L69.1938 158.028L70.0717 158.507ZM74.5279 163.844L73.7603 164.485L74.303 165.135L75.0336 164.707L74.5279 163.844ZM94.0823 152.382L94.7263 151.617L94.1859 151.162L93.5766 151.519L94.0823 152.382ZM97.9719 155.656L98.6495 156.392L99.4846 155.622L98.616 154.891L97.9719 155.656ZM91.8771 161.271L91.1996 160.535L90.7714 160.929L90.903 161.497L91.8771 161.271ZM96.9385 183.079L95.9644 183.305L96.0456 183.655L96.3305 183.873L96.9385 183.079ZM99.3494 184.926L98.7414 185.719L99.4354 186.251L100.055 185.634L99.3494 184.926ZM105.192 179.11L106.172 179.309L106.833 176.065L104.486 178.401L105.192 179.11ZM98.4947 211.981L98.3025 212.962L99.2764 213.153L99.4745 212.181L98.4947 211.981ZM69.4675 206.296L69.6597 205.315L68.8385 205.154L68.5354 205.934L69.4675 206.296ZM67.2259 212.064L66.2939 211.702L66.0187 212.409L66.6268 212.864L67.2259 212.064ZM72.8874 216.3L73.8786 216.167L73.8228 215.751L73.4865 215.499L72.8874 216.3ZM73.6959 222.332L74.0701 223.259L74.7902 222.969L74.6871 222.199L73.6959 222.332ZM66.4147 225.27L66.0406 224.343L65.4769 224.57L65.4193 225.175L66.4147 225.27ZM65.9991 229.629L65.0037 229.534L64.886 230.768L66.1173 230.622L65.9991 229.629ZM77.9434 228.208L78.9433 228.199L78.9337 227.083L77.8252 227.215L77.9434 228.208ZM78.0737 243.294L78.43 244.228L79.0796 243.981L79.0736 243.285L78.0737 243.294ZM68.5998 246.907L68.2435 245.973L67.8892 246.108L67.7136 246.444L68.5998 246.907ZM65.2798 253.258L65.6048 254.203L65.9815 254.074L66.166 253.721L65.2798 253.258ZM56.377 256.317L56.052 255.372L54.9303 255.757L55.4998 256.798L56.377 256.317ZM61.9302 266.462L61.9781 267.461L63.575 267.384L62.8073 265.982L61.9302 266.462ZM51.7344 266.951L51.6865 265.952L51.0376 265.983L50.8023 266.589L51.7344 266.951ZM50.5512 269.995L49.6192 269.633L49.153 270.832L50.4304 270.988L50.5512 269.995ZM64.8928 271.741L64.7719 272.734L65.3811 272.808L65.7231 272.299L64.8928 271.741ZM68.0197 267.082L68.1906 266.097L67.551 265.986L67.1893 266.525L68.0197 267.082ZM79.2034 269.022L79.8271 268.241L79.6268 268.081L79.3743 268.037L79.2034 269.022ZM88.6988 276.599L88.0751 277.38L88.2963 277.557L88.5773 277.591L88.6988 276.599ZM99.5017 277.921L99.3802 278.913L99.8119 278.966L100.145 278.687L99.5017 277.921ZM107.614 271.107L108.078 270.221L107.484 269.911L106.971 270.342L107.614 271.107ZM111.982 273.391L112.671 274.116L113.686 273.153L112.446 272.505L111.982 273.391ZM103.876 281.084L103.188 280.359L102.955 280.58L102.894 280.895L103.876 281.084ZM102.935 285.979L103.066 286.97L103.781 286.876L103.917 286.168L102.935 285.979ZM98.0333 286.63L98.0166 287.629L98.0911 287.631L98.1648 287.621L98.0333 286.63ZM72.217 286.2L72.2337 285.2L70.7568 285.175L71.2825 286.556L72.217 286.2ZM73.4655 289.478L73.7292 290.443L74.7923 290.152L74.4 289.122L73.4655 289.478ZM65.2718 291.718L65.0081 290.753L64.5044 290.891L64.3295 291.383L65.2718 291.718ZM61.8833 301.255L62.5479 302.002L62.7396 301.832L62.8255 301.59L61.8833 301.255ZM36.8682 323.509L36.2036 322.762L35.2081 323.647L36.3365 324.356L36.8682 323.509ZM44.0215 328L43.4898 328.847L43.741 329.005L44.0376 329L44.0215 328ZM50.4551 327.897L50.4712 328.897L50.745 328.892L50.9784 328.749L50.4551 327.897ZM70.3086 315.703L70.8339 314.853L70.31 314.529L69.7852 314.851L70.3086 315.703ZM84.2565 324.315L83.7311 325.166L84.7869 325.818L85.1995 324.647L84.2565 324.315ZM85.1414 321.805L86.0845 322.138L86.2204 321.753L86.0475 321.382L85.1414 321.805ZM82.8775 316.957L82.1797 316.24L81.6708 316.736L81.9714 317.38L82.8775 316.957ZM93.8504 306.269L93.9445 305.273L93.484 305.23L93.1527 305.552L93.8504 306.269ZM124.236 309.138L124.142 310.134L124.642 310.181L124.978 309.809L124.236 309.138ZM131.73 300.841L131.798 299.844L131.314 299.811L130.988 300.171L131.73 300.841ZM149.367 302.048L149.298 303.045L149.507 303.06L149.703 302.989L149.367 302.048ZM159.061 298.583L159.51 297.689L159.127 297.498L158.725 297.642L159.061 298.583ZM169.147 303.638L168.699 304.532L169.077 304.721L169.476 304.582L169.147 303.638ZM188.185 297L188.515 297.945L188.723 297.872L188.881 297.719L188.185 297ZM197.687 287.796L198.383 288.514L198.607 288.296L198.668 287.989L197.687 287.796ZM199.419 279.031L200.4 279.225L200.642 277.999L199.392 278.032L199.419 279.031ZM182.364 279.482L181.367 279.4L181.276 280.511L182.39 280.481L182.364 279.482ZM182.862 273.429L182.225 272.657L181.9 272.926L181.865 273.347L182.862 273.429ZM197.589 261.273L198.225 262.044L198.386 261.912L198.48 261.726L197.589 261.273ZM207.958 240.87L208.85 241.323L209.076 240.877L208.856 240.429L207.958 240.87ZM203.054 230.888L203.952 230.447L203.794 230.127L203.47 229.978L203.054 230.888ZM182.029 221.29L182.444 220.381L181.666 220.025L181.195 220.739L182.029 221.29ZM176.5 229.663L176.208 230.619L176.923 230.837L177.335 230.214L176.5 229.663ZM165.229 226.223L164.465 225.579L163.487 226.737L164.937 227.18L165.229 226.223ZM173.341 216.608L174.105 217.253L174.32 216.998L174.339 216.666L173.341 216.608ZM173.692 210.537L174.69 210.595L174.718 210.116L174.361 209.794L173.692 210.537ZM163.172 201.063L162.447 200.374L161.74 201.119L162.503 201.806L163.172 201.063ZM168.314 195.642L169.039 196.331L169.696 195.639L169.036 194.95L168.314 195.642ZM162.696 189.783L161.704 189.658L161.644 190.131L161.974 190.476L162.696 189.783ZM163.487 183.536L164.479 183.662L164.543 183.157L164.173 182.808L163.487 183.536ZM154.936 175.482L153.95 175.651L154.007 175.981L154.25 176.21L154.936 175.482ZM152.974 164.06L153.959 163.89L153.843 163.215L153.171 163.079L152.974 164.06ZM138.439 161.125L137.546 161.575L137.764 162.009L138.241 162.105L138.439 161.125ZM129.508 143.388L128.517 143.254L128.475 143.561L128.614 143.837L129.508 143.388ZM131.935 125.421L132.926 125.555L132.978 125.17L132.757 124.851L131.935 125.421ZM126.396 117.434L127.217 116.864L127.036 116.602L126.737 116.494L126.396 117.434ZM113.873 112.888L114.214 111.948L113.909 111.838L113.597 111.927L113.873 112.888ZM104.445 115.592L103.882 116.419L104.269 116.683L104.72 116.553L104.445 115.592ZM100.409 112.843L99.8787 111.995L98.5806 112.807L99.846 113.669L100.409 112.843ZM109.801 106.968L110.331 107.815L110.589 107.654L110.713 107.376L109.801 106.968ZM111.625 102.894L112.537 103.303L112.772 102.78L112.439 102.313L111.625 102.894ZM108.862 99.0203L108.114 98.357L107.586 98.9528L108.048 99.6009L108.862 99.0203ZM117.951 88.7657L118.7 89.429L118.833 89.2784L118.898 89.0881L117.951 88.7657ZM127.957 59.3857L128.904 59.7081L129.092 59.155L128.703 58.7194L127.957 59.3857ZM123.063 53.909L123.809 53.2427L123.456 52.8481L122.932 52.9177L123.063 53.909ZM115.63 54.8946L115.077 55.728L115.389 55.9352L115.761 55.8859L115.63 54.8946ZM109.891 51.0887L110.444 50.2553L109.738 49.7871L109.16 50.4064L109.891 51.0887ZM106.196 55.0487L105.871 55.9944L106.484 56.2053L106.927 55.731L106.196 55.0487ZM97.3082 51.9942L97.6333 51.0484L97.2368 50.9122L96.8617 51.0994L97.3082 51.9942ZM87.6934 56.7927L86.8495 57.3292L87.3332 58.0901L88.14 57.6875L87.6934 56.7927ZM84.7233 52.121L84.24 51.2455L83.3087 51.7597L83.8794 52.6575L84.7233 52.121ZM90.2726 49.0572L90.756 49.9327L91.8629 49.3215L91.0131 48.3852L90.2726 49.0572ZM87.008 45.4599L86.3019 44.7517L85.6262 45.4254L86.2674 46.1319L87.008 45.4599ZM106.095 26.4302L106.801 27.1384L107.245 26.6958L107.04 26.1035L106.095 26.4302ZM103.696 19.4902L104.641 19.1635L104.349 18.3167L103.475 18.515L103.696 19.4902ZM80.4228 24.7709L79.9963 25.6754L80.308 25.8224L80.6441 25.7461L80.4228 24.7709ZM98.3404 2.07239L94.649 8.74999L96.3994 9.71758L100.091 3.03998L98.3404 2.07239ZM109.925 1.00133L99.1639 1.55752L99.2672 3.55485L110.028 2.99867L109.925 1.00133ZM107.315 9.7635L110.876 2.43711L109.077 1.56289L105.516 8.88927L107.315 9.7635ZM95.5157 10.2337L106.407 10.3264L106.424 8.32642L95.5327 8.23382L95.5157 10.2337ZM11.3123 76.5712L29.8306 30.2415L27.9735 29.4992L9.4552 75.8289L11.3123 76.5712ZM19.1104 82.9564L11.0651 75.4681L9.70246 76.932L17.7478 84.4204L19.1104 82.9564ZM49.2068 27.0457L17.558 83.1974L19.3003 84.1794L50.9492 28.0278L49.2068 27.0457ZM47.916 21.4401L49.0952 27.7213L51.0608 27.3522L49.8817 21.0711L47.916 21.4401ZM29.2977 30.7887L49.2945 22.174L48.5032 20.3372L28.5064 28.9519L29.2977 30.7887ZM4.46285 166.36L13.9057 160.808L12.8921 159.084L3.44917 164.636L4.46285 166.36ZM2.96924 173.447L4.92525 165.744L2.98677 165.252L1.03076 172.954L2.96924 173.447ZM6.38789 178.525L2.85574 172.683L1.14426 173.718L4.6764 179.56L6.38789 178.525ZM18.4919 172.938L5.17023 178.11L5.89406 179.975L19.2157 174.803L18.4919 172.938ZM22.8424 181.995L19.7946 173.532L17.9129 174.209L20.9607 182.673L22.8424 181.995ZM38.5059 183.739L22.0455 181.344L21.7576 183.324L38.218 185.718L38.5059 183.739ZM54.874 167.366L37.6667 184.009L39.0572 185.447L56.2645 168.803L54.874 167.366ZM38.6293 140.844L54.704 168.586L56.4345 167.583L40.3597 139.841L38.6293 140.844ZM26.9536 142.696L39.6013 141.337L39.3877 139.348L26.7399 140.707L26.9536 142.696ZM24.5604 151.976L27.7978 142.01L25.8957 141.393L22.6583 151.358L24.5604 151.976ZM16.5364 152.601L23.6 152.667L23.6187 150.667L16.5551 150.601L16.5364 152.601ZM14.3346 160.299L17.4814 151.954L15.61 151.248L12.4632 159.593L14.3346 160.299ZM65.2842 22.4702L72.7377 22.1244L72.645 20.1266L65.1915 20.4724L65.2842 22.4702ZM60.5473 38.065L66.1827 21.7987L64.2929 21.144L58.6575 37.4102L60.5473 38.065ZM54.1169 53.7994L60.5281 38.116L58.6768 37.3592L52.2656 53.0426L54.1169 53.7994ZM45.1976 57.4834L53.542 54.3575L52.8404 52.4846L44.496 55.6105L45.1976 57.4834ZM39.8932 65.2146L45.6609 57.1276L44.0326 55.9663L38.2649 64.0533L39.8932 65.2146ZM52.4795 71.2704L39.5818 63.7695L38.5763 65.4984L51.474 72.9993L52.4795 71.2704ZM50.5496 81.3094L52.9426 72.3941L51.0109 71.8757L48.618 80.791L50.5496 81.3094ZM34.645 84.1545L49.7227 82.0405L49.445 80.0599L34.3673 82.1739L34.645 84.1545ZM32.1191 92.1678L35.4396 83.5227L33.5726 82.8056L30.2521 91.4507L32.1191 92.1678ZM46.4579 95.1117L31.459 90.8474L30.9121 92.7711L45.9109 97.0355L46.4579 95.1117ZM54.2483 91.1975L45.7607 95.1678L46.6081 96.9794L55.0957 93.0091L54.2483 91.1975ZM57.6931 95.3233L55.5373 91.602L53.8067 92.6045L55.9625 96.3259L57.6931 95.3233ZM52.6503 103.184L57.6331 96.4176L56.0226 95.2316L51.0398 101.998L52.6503 103.184ZM54.9177 109.049L52.7992 102.292L50.8908 102.89L53.0093 109.648L54.9177 109.049ZM49.8741 112.407L54.3941 110.251L53.5329 108.446L49.0129 110.602L49.8741 112.407ZM45.9576 109.729L48.7769 112.25L50.1101 110.76L47.2909 108.238L45.9576 109.729ZM37.3858 117.275L47.2301 109.779L46.0184 108.188L36.1741 115.684L37.3858 117.275ZM36.8685 123.558L37.7716 116.608L35.7883 116.351L34.8852 123.3L36.8685 123.558ZM32.4152 126.921L36.4291 124.262L35.3246 122.595L31.3107 125.254L32.4152 126.921ZM34.8419 127.855L32.5998 125.411L31.1261 126.763L33.3681 129.207L34.8419 127.855ZM46.4327 125.106L33.9134 127.55L34.2966 129.513L46.8158 127.069L46.4327 125.106ZM50.7132 140.269L47.6017 125.876L45.6468 126.299L48.7583 140.692L50.7132 140.269ZM51.968 138.673L49.4164 139.533L50.0551 141.428L52.6068 140.568L51.968 138.673ZM54.7455 133.316L51.4196 139.124L53.1551 140.118L56.481 134.31L54.7455 133.316ZM61.2326 135.813L56.1017 132.94L55.1248 134.686L60.2557 137.558L61.2326 135.813ZM65.2011 130.991L60.0495 135.966L61.4388 137.405L66.5905 132.429L65.2011 130.991ZM68.3109 139.382L66.8796 131.531L64.912 131.889L66.3433 139.741L68.3109 139.382ZM60.168 151.14L68.1367 140.148L66.5175 138.975L58.5488 149.966L60.168 151.14ZM65.3154 163.828L60.2967 150.207L58.42 150.898L63.4388 164.52L65.3154 163.828ZM66.9612 163.303L64.4275 163.175L64.3267 165.173L66.8604 165.301L66.9612 163.303ZM69.1938 158.028L66.0329 163.823L67.7887 164.781L70.9496 158.986L69.1938 158.028ZM75.2955 163.204L70.8394 157.866L69.3041 159.148L73.7603 164.485L75.2955 163.204ZM93.5766 151.519L74.0222 162.982L75.0336 164.707L94.588 153.244L93.5766 151.519ZM98.616 154.891L94.7263 151.617L93.4383 153.147L97.3279 156.421L98.616 154.891ZM92.5546 162.006L98.6495 156.392L97.2944 154.921L91.1996 160.535L92.5546 162.006ZM97.9126 182.853L92.8512 161.044L90.903 161.497L95.9644 183.305L97.9126 182.853ZM99.9575 184.132L97.5466 182.285L96.3305 183.873L98.7414 185.719L99.9575 184.132ZM104.486 178.401L98.6439 184.217L100.055 185.634L105.897 179.818L104.486 178.401ZM99.4745 212.181L106.172 179.309L104.212 178.91L97.5148 211.781L99.4745 212.181ZM69.2753 207.278L98.3025 212.962L98.6869 211L69.6597 205.315L69.2753 207.278ZM68.158 212.426L70.3995 206.658L68.5354 205.934L66.2939 211.702L68.158 212.426ZM73.4865 215.499L67.8251 211.263L66.6268 212.864L72.2883 217.101L73.4865 215.499ZM74.6871 222.199L73.8786 216.167L71.8963 216.433L72.7048 222.465L74.6871 222.199ZM66.7889 226.197L74.0701 223.259L73.3218 221.405L66.0406 224.343L66.7889 226.197ZM66.9946 229.723L67.4102 225.365L65.4193 225.175L65.0037 229.534L66.9946 229.723ZM77.8252 227.215L65.881 228.636L66.1173 230.622L78.0615 229.201L77.8252 227.215ZM79.0736 243.285L78.9433 228.199L76.9434 228.216L77.0737 243.303L79.0736 243.285ZM68.9561 247.841L78.43 244.228L77.7173 242.36L68.2435 245.973L68.9561 247.841ZM66.166 253.721L69.486 247.37L67.7136 246.444L64.3936 252.794L66.166 253.721ZM56.702 257.263L65.6048 254.203L64.9548 252.312L56.052 255.372L56.702 257.263ZM62.8073 265.982L57.2542 255.837L55.4998 256.798L61.053 266.942L62.8073 265.982ZM51.7823 267.95L61.9781 267.461L61.8823 265.463L51.6865 265.952L51.7823 267.95ZM51.4833 270.357L52.6665 267.313L50.8023 266.589L49.6192 269.633L51.4833 270.357ZM65.0137 270.749L50.6721 269.002L50.4304 270.988L64.7719 272.734L65.0137 270.749ZM67.1893 266.525L64.0624 271.184L65.7231 272.299L68.85 267.639L67.1893 266.525ZM79.3743 268.037L68.1906 266.097L67.8487 268.067L79.0325 270.008L79.3743 268.037ZM89.3224 275.817L79.8271 268.241L78.5797 269.804L88.0751 277.38L89.3224 275.817ZM99.6232 276.928L88.8202 275.606L88.5773 277.591L99.3802 278.913L99.6232 276.928ZM106.971 270.342L98.8586 277.155L100.145 278.687L108.258 271.873L106.971 270.342ZM112.446 272.505L108.078 270.221L107.151 271.993L111.519 274.277L112.446 272.505ZM104.565 281.809L112.671 274.116L111.294 272.665L103.188 280.359L104.565 281.809ZM103.917 286.168L104.858 281.273L102.894 280.895L101.953 285.79L103.917 286.168ZM98.1648 287.621L103.066 286.97L102.803 284.988L97.9017 285.638L98.1648 287.621ZM72.2004 287.2L98.0166 287.629L98.0499 285.63L72.2337 285.2L72.2004 287.2ZM74.4 289.122L73.1515 285.844L71.2825 286.556L72.531 289.834L74.4 289.122ZM65.5355 292.683L73.7292 290.443L73.2018 288.514L65.0081 290.753L65.5355 292.683ZM62.8255 301.59L66.2141 292.053L64.3295 291.383L60.941 300.92L62.8255 301.59ZM37.5329 324.256L62.5479 302.002L61.2186 300.508L36.2036 322.762L37.5329 324.256ZM44.5533 327.154L37.4 322.662L36.3365 324.356L43.4898 328.847L44.5533 327.154ZM50.439 326.897L44.0054 327.001L44.0376 329L50.4712 328.897L50.439 326.897ZM69.7852 314.851L49.9317 327.045L50.9784 328.749L70.8319 316.556L69.7852 314.851ZM84.7818 323.464L70.8339 314.853L69.7832 316.554L83.7311 325.166L84.7818 323.464ZM84.1983 321.473L83.3134 323.982L85.1995 324.647L86.0845 322.138L84.1983 321.473ZM81.9714 317.38L84.2353 322.228L86.0475 321.382L83.7836 316.534L81.9714 317.38ZM93.1527 305.552L82.1797 316.24L83.5752 317.673L94.5482 306.985L93.1527 305.552ZM124.33 308.143L93.9445 305.273L93.7564 307.264L124.142 310.134L124.33 308.143ZM130.988 300.171L123.494 308.468L124.978 309.809L132.472 301.512L130.988 300.171ZM149.435 301.05L131.798 299.844L131.662 301.839L149.298 303.045L149.435 301.05ZM158.725 297.642L149.03 301.106L149.703 302.989L159.398 299.525L158.725 297.642ZM169.595 302.744L159.51 297.689L158.613 299.477L168.699 304.532L169.595 302.744ZM187.856 296.056L168.818 302.693L169.476 304.582L188.515 297.945L187.856 296.056ZM196.991 287.077L187.49 296.282L188.881 297.719L198.383 288.514L196.991 287.077ZM198.438 278.837L196.706 287.602L198.668 287.989L200.4 279.225L198.438 278.837ZM182.39 280.481L199.445 280.031L199.392 278.032L182.337 278.482L182.39 280.481ZM181.865 273.347L181.367 279.4L183.36 279.564L183.858 273.511L181.865 273.347ZM196.952 260.502L182.225 272.657L183.498 274.2L198.225 262.044L196.952 260.502ZM207.067 240.417L196.697 260.82L198.48 261.726L208.85 241.323L207.067 240.417ZM202.157 231.329L207.061 241.311L208.856 240.429L203.952 230.447L202.157 231.329ZM181.614 222.2L202.639 231.798L203.47 229.978L182.444 220.381L181.614 222.2ZM177.335 230.214L182.864 221.841L181.195 220.739L175.666 229.112L177.335 230.214ZM164.937 227.18L176.208 230.619L176.792 228.706L165.521 225.267L164.937 227.18ZM172.576 215.963L164.465 225.579L165.994 226.868L174.105 217.253L172.576 215.963ZM172.694 210.479L172.342 216.55L174.339 216.666L174.69 210.595L172.694 210.479ZM162.503 201.806L173.023 211.28L174.361 209.794L163.841 200.32L162.503 201.806ZM167.588 194.954L162.447 200.374L163.898 201.751L169.039 196.331L167.588 194.954ZM161.974 190.476L167.592 196.335L169.036 194.95L163.417 189.091L161.974 190.476ZM162.495 183.411L161.704 189.658L163.688 189.909L164.479 183.662L162.495 183.411ZM154.25 176.21L162.801 184.264L164.173 182.808L155.621 174.754L154.25 176.21ZM151.988 164.229L153.95 175.651L155.921 175.313L153.959 163.89L151.988 164.229ZM138.241 162.105L152.776 165.04L153.171 163.079L138.637 160.145L138.241 162.105ZM128.614 143.837L137.546 161.575L139.332 160.675L130.401 142.938L128.614 143.837ZM130.944 125.287L128.517 143.254L130.499 143.522L132.926 125.555L130.944 125.287ZM125.574 118.004L131.114 125.991L132.757 124.851L127.217 116.864L125.574 118.004ZM113.532 113.828L126.055 118.374L126.737 116.494L114.214 111.948L113.532 113.828ZM104.72 116.553L114.149 113.85L113.597 111.927L104.169 114.631L104.72 116.553ZM99.846 113.669L103.882 116.419L105.008 114.766L100.972 112.016L99.846 113.669ZM109.27 106.12L99.8787 111.995L100.939 113.69L110.331 107.815L109.27 106.12ZM110.712 102.485L108.888 106.559L110.713 107.376L112.537 103.303L110.712 102.485ZM108.048 99.6009L110.811 103.474L112.439 102.313L109.676 98.4397L108.048 99.6009ZM117.203 88.1024L108.114 98.357L109.611 99.6836L118.7 89.429L117.203 88.1024ZM127.01 59.0633L117.005 88.4433L118.898 89.0881L128.904 59.7081L127.01 59.0633ZM122.317 54.5753L127.211 60.052L128.703 58.7194L123.809 53.2427L122.317 54.5753ZM115.761 55.8859L123.194 54.9003L122.932 52.9177L115.498 53.9033L115.761 55.8859ZM109.339 51.922L115.077 55.728L116.182 54.0613L110.444 50.2553L109.339 51.922ZM106.927 55.731L110.622 51.7709L109.16 50.4064L105.465 54.3665L106.927 55.731ZM96.9832 52.9399L105.871 55.9944L106.521 54.103L97.6333 51.0484L96.9832 52.9399ZM88.14 57.6875L97.7548 52.8889L96.8617 51.0994L87.2468 55.898L88.14 57.6875ZM83.8794 52.6575L86.8495 57.3292L88.5373 56.2562L85.5672 51.5845L83.8794 52.6575ZM89.7893 48.1818L84.24 51.2455L85.2067 52.9964L90.756 49.9327L89.7893 48.1818ZM86.2674 46.1319L89.5321 49.7293L91.0131 48.3852L87.7485 44.7879L86.2674 46.1319ZM105.389 25.722L86.3019 44.7517L87.714 46.1681L106.801 27.1384L105.389 25.722ZM102.751 19.8169L105.15 26.7569L107.04 26.1035L104.641 19.1635L102.751 19.8169ZM80.6441 25.7461L103.917 20.4654L103.475 18.515L80.2015 23.7957L80.6441 25.7461ZM72.2648 22.03L79.9963 25.6754L80.8493 23.8664L73.1178 20.221L72.2648 22.03Z" fill="#5D81FF"/>
</svg>
