<svg width="50" height="50" viewBox="0 0 50 50" fill="none" xmlns="http://www.w3.org/2000/svg">
<g clip-path="url(#clip0_1552_32483)">
<path d="M49.1387 41.3787H0.863083C0.38701 41.3787 0.000976562 40.9926 0.000976562 40.5166V9.48222C0.000976562 9.00615 0.38701 8.62012 0.863083 8.62012H49.1388C49.6148 8.62012 50.0009 9.00615 50.0009 9.48222V40.5166C50.0008 40.9926 49.6147 41.3787 49.1387 41.3787Z" fill="#41479B"/>
<path d="M50.0008 9.48222C50.0008 9.00615 49.6147 8.62012 49.1387 8.62012H45.2818L29.3111 19.0837V8.62012H20.6904V19.0837L4.7199 8.62012H0.863083C0.38701 8.62012 0.000976562 9.00615 0.000976562 9.48222V11.7118L13.703 20.689H0.000976562V29.3097H13.703L0.000976562 38.287V40.5166C0.000976562 40.9926 0.38701 41.3787 0.863083 41.3787H4.72L20.6906 30.9151V41.3787H29.3113V30.9151L45.2819 41.3787H49.1389C49.6149 41.3787 50.001 40.9926 50.001 40.5166V38.287L36.299 29.3098H50.0008V20.6891H36.2988L50.0008 11.7118V9.48222Z" fill="#F5F5F5"/>
<path d="M50.0008 22.4132H27.5871V8.62012H22.4147V22.4132H0.000976562V27.5856H22.4147V41.3787H27.5871V27.5856H50.0008V22.4132Z" fill="#FF4B55"/>
<path d="M17.4763 29.3096L0.0253906 40.6374C0.0864255 41.0537 0.429686 41.3786 0.862985 41.3786H2.05038L20.6431 29.3097H17.4763V29.3096Z" fill="#FF4B55"/>
<path d="M33.8289 29.3096H30.6621L49.2278 41.3607C49.6605 41.3146 50.002 40.9613 50.002 40.5164V39.8076L33.8289 29.3096Z" fill="#FF4B55"/>
<path d="M0.00195312 10.4338L15.8006 20.689H18.9674L0.504197 8.7041C0.209277 8.84111 0.00195312 9.13554 0.00195312 9.48213V10.4338Z" fill="#FF4B55"/>
<path d="M32.4783 20.689L49.9711 9.33388C49.8985 8.93135 49.5625 8.62012 49.139 8.62012H47.9039L29.3115 20.689H32.4783Z" fill="#FF4B55"/>
</g>
<defs>
<clipPath id="clip0_1552_32483">
<rect width="50" height="50" fill="white"/>
</clipPath>
</defs>
</svg>
