<svg width="50" height="50" viewBox="0 0 50 50" fill="none" xmlns="http://www.w3.org/2000/svg">
<g clip-path="url(#clip0_1552_32430)">
<path d="M49.1378 41.3797H0.862108C0.386034 41.3797 0 40.9937 0 40.5176V9.4832C0 9.00713 0.386034 8.62109 0.862108 8.62109H49.1379C49.614 8.62109 50 9.00713 50 9.4832V40.5176C49.9999 40.9938 49.6139 41.3797 49.1378 41.3797Z" fill="#F5F5F5"/>
<path d="M49.9999 11.1411H0V9.4832C0 9.00713 0.386034 8.62109 0.862108 8.62109H49.1379C49.614 8.62109 50 9.00713 50 9.4832L49.9999 11.1411Z" fill="#FF4B55"/>
<path d="M49.9999 18.7002H0V21.2201H49.9999V18.7002Z" fill="#FF4B55"/>
<path d="M49.9999 13.6602H0V16.1801H49.9999V13.6602Z" fill="#FF4B55"/>
<path d="M49.9999 26.2603H0.862108C0.386034 26.2603 0 25.8742 0 25.3981V23.7402H49.9999V26.2603Z" fill="#FF4B55"/>
<path d="M49.9999 33.8203H0V36.3402H49.9999V33.8203Z" fill="#FF4B55"/>
<path d="M49.1378 41.3793H0.862108C0.386034 41.3793 0 40.9933 0 40.5172V38.8594H49.9999V40.5173C49.9999 40.9934 49.6139 41.3793 49.1378 41.3793Z" fill="#FF4B55"/>
<path d="M49.9999 28.7803H0V31.3002H49.9999V28.7803Z" fill="#FF4B55"/>
<path d="M22.4137 8.62109H0.862108C0.386034 8.62109 0 9.00703 0 9.4831V25.3981C0 25.8742 0.386034 26.2602 0.862108 26.2602H22.4138C22.8899 26.2602 23.2759 25.8742 23.2759 25.3981V9.4831C23.2758 9.00703 22.8898 8.62109 22.4137 8.62109Z" fill="#41479B"/>
<path d="M2.42152 10.5995L2.61234 11.1718L3.21556 11.1764C3.29368 11.1771 3.32601 11.2767 3.26321 11.3231L2.77796 11.6815L2.95999 12.2566C2.98363 12.331 2.89876 12.3927 2.83519 12.3472L2.34447 11.9965L1.85375 12.3473C1.79017 12.3927 1.7055 12.3311 1.72894 12.2566L1.91097 11.6816L1.42572 11.3232C1.36293 11.2767 1.39525 11.1772 1.47337 11.1765L2.0766 11.1719L2.26742 10.5996C2.29203 10.5254 2.39671 10.5254 2.42152 10.5995Z" fill="#F5F5F5"/>
<path d="M2.42152 13.5926L2.61234 14.1649L3.21556 14.1695C3.29368 14.1702 3.32601 14.2698 3.26321 14.3161L2.77796 14.6745L2.95999 15.2496C2.98363 15.3241 2.89876 15.3858 2.83519 15.3403L2.34447 14.9896L1.85375 15.3404C1.79017 15.3858 1.7055 15.3242 1.72894 15.2497L1.91097 14.6746L1.42572 14.3162C1.36293 14.2698 1.39525 14.1703 1.47337 14.1696L2.0766 14.165L2.26742 13.5927C2.29203 13.5186 2.39671 13.5186 2.42152 13.5926Z" fill="#F5F5F5"/>
<path d="M2.42152 16.5868L2.61234 17.159L3.21556 17.1636C3.29368 17.1643 3.32601 17.2639 3.26321 17.3103L2.77796 17.6687L2.95999 18.2438C2.98363 18.3182 2.89876 18.3799 2.83519 18.3344L2.34447 17.9837L1.85375 18.3345C1.79017 18.3799 1.7055 18.3183 1.72894 18.2439L1.91097 17.6688L1.42572 17.3104C1.36293 17.2639 1.39525 17.1644 1.47337 17.1637L2.0766 17.1591L2.26742 16.5869C2.29203 16.5127 2.39671 16.5127 2.42152 16.5868Z" fill="#F5F5F5"/>
<path d="M2.42152 19.58L2.61234 20.1523L3.21556 20.1568C3.29368 20.1575 3.32601 20.2571 3.26321 20.3035L2.77796 20.6619L2.95999 21.237C2.98363 21.3114 2.89876 21.3732 2.83519 21.3276L2.34447 20.977L1.85375 21.3277C1.79017 21.3732 1.7055 21.3115 1.72894 21.2371L1.91097 20.662L1.42572 20.3036C1.36293 20.2571 1.39525 20.1576 1.47337 20.1569L2.0766 20.1524L2.26742 19.5801C2.29203 19.5059 2.39671 19.5059 2.42152 19.58Z" fill="#F5F5F5"/>
<path d="M2.42152 22.5742L2.61234 23.1465L3.21556 23.1511C3.29368 23.1517 3.32601 23.2514 3.26321 23.2977L2.77796 23.6561L2.95999 24.2312C2.98363 24.3056 2.89876 24.3674 2.83519 24.3219L2.34447 23.9712L1.85375 24.322C1.79017 24.3674 1.7055 24.3057 1.72894 24.2313L1.91097 23.6562L1.42572 23.2978C1.36293 23.2514 1.39525 23.1518 1.47337 23.1512L2.0766 23.1466L2.26742 22.5743C2.29203 22.5 2.39671 22.5 2.42152 22.5742Z" fill="#F5F5F5"/>
<path d="M4.74476 12.0672L4.93558 12.6395L5.5388 12.6441C5.61693 12.6448 5.64925 12.7444 5.58646 12.7908L5.1012 13.1492L5.28323 13.7243C5.30687 13.7987 5.222 13.8604 5.15843 13.8149L4.66771 13.4641L4.17699 13.8149C4.11341 13.8603 4.02875 13.7987 4.05218 13.7243L4.23421 13.1492L3.74896 12.7908C3.68617 12.7443 3.71849 12.6448 3.79662 12.6441L4.39984 12.6395L4.59066 12.0672C4.61517 11.9932 4.72005 11.9932 4.74476 12.0672Z" fill="#F5F5F5"/>
<path d="M4.74476 15.0605L4.93558 15.6327L5.5388 15.6373C5.61693 15.638 5.64925 15.7376 5.58646 15.784L5.1012 16.1424L5.28323 16.7175C5.30687 16.7919 5.222 16.8536 5.15843 16.8081L4.66771 16.4573L4.17699 16.8081C4.11341 16.8535 4.02875 16.792 4.05218 16.7175L4.23421 16.1424L3.74896 15.784C3.68617 15.7375 3.71849 15.638 3.79662 15.6373L4.39984 15.6327L4.59066 15.0605C4.61517 14.9864 4.72005 14.9864 4.74476 15.0605Z" fill="#F5F5F5"/>
<path d="M4.74476 18.0546L4.93558 18.6269L5.5388 18.6315C5.61693 18.6322 5.64925 18.7318 5.58646 18.7781L5.1012 19.1365L5.28323 19.7116C5.30687 19.7861 5.222 19.8478 5.15843 19.8023L4.66771 19.4515L4.17699 19.8023C4.11341 19.8477 4.02875 19.7861 4.05218 19.7116L4.23421 19.1365L3.74896 18.7781C3.68617 18.7317 3.71849 18.6322 3.79662 18.6315L4.39984 18.6269L4.59066 18.0546C4.61517 17.9805 4.72005 17.9805 4.74476 18.0546Z" fill="#F5F5F5"/>
<path d="M4.74476 21.0477L4.93558 21.62L5.5388 21.6246C5.61693 21.6252 5.64925 21.7249 5.58646 21.7712L5.1012 22.1296L5.28323 22.7047C5.30687 22.7791 5.222 22.8409 5.15843 22.7954L4.66771 22.4446L4.17699 22.7954C4.11341 22.8408 4.02875 22.7791 4.05218 22.7047L4.23421 22.1296L3.74896 21.7712C3.68617 21.7248 3.71849 21.6252 3.79662 21.6246L4.39984 21.62L4.59066 21.0477C4.61517 20.9737 4.72005 20.9737 4.74476 21.0477Z" fill="#F5F5F5"/>
<path d="M7.06898 10.5995L7.2598 11.1718L7.86302 11.1764C7.94114 11.1771 7.97347 11.2767 7.91068 11.3231L7.42542 11.6815L7.60745 12.2566C7.63109 12.331 7.54622 12.3927 7.48265 12.3472L6.99193 11.9964L6.50121 12.3472C6.43763 12.3926 6.35296 12.331 6.3764 12.2566L6.55843 11.6815L6.07318 11.3231C6.01039 11.2766 6.04271 11.1771 6.12084 11.1764L6.72406 11.1718L6.91488 10.5995C6.93949 10.5254 7.04427 10.5254 7.06898 10.5995Z" fill="#F5F5F5"/>
<path d="M7.06898 13.5926L7.2598 14.1649L7.86302 14.1695C7.94114 14.1702 7.97347 14.2698 7.91068 14.3162L7.42542 14.6746L7.60745 15.2497C7.63109 15.3241 7.54622 15.3858 7.48265 15.3403L6.99193 14.9895L6.50121 15.3403C6.43763 15.3857 6.35296 15.3241 6.3764 15.2497L6.55843 14.6746L6.07318 14.3162C6.01039 14.2697 6.04271 14.1702 6.12084 14.1695L6.72406 14.1649L6.91488 13.5926C6.93949 13.5186 7.04427 13.5186 7.06898 13.5926Z" fill="#F5F5F5"/>
<path d="M7.06898 16.5868L7.2598 17.159L7.86302 17.1636C7.94114 17.1643 7.97347 17.2639 7.91068 17.3103L7.42542 17.6687L7.60745 18.2438C7.63109 18.3182 7.54622 18.3799 7.48265 18.3344L6.99193 17.9836L6.50121 18.3344C6.43763 18.3798 6.35296 18.3182 6.3764 18.2438L6.55843 17.6687L6.07318 17.3103C6.01039 17.2638 6.04271 17.1643 6.12084 17.1636L6.72406 17.159L6.91488 16.5868C6.93949 16.5127 7.04427 16.5127 7.06898 16.5868Z" fill="#F5F5F5"/>
<path d="M7.06898 19.58L7.2598 20.1523L7.86302 20.1569C7.94114 20.1575 7.97347 20.2572 7.91068 20.3035L7.42542 20.6619L7.60745 21.237C7.63109 21.3114 7.54622 21.3732 7.48265 21.3277L6.99193 20.9769L6.50121 21.3277C6.43763 21.3731 6.35296 21.3114 6.3764 21.237L6.55843 20.6619L6.07318 20.3035C6.01039 20.2571 6.04271 20.1575 6.12084 20.1569L6.72406 20.1523L6.91488 19.58C6.93949 19.5059 7.04427 19.5059 7.06898 19.58Z" fill="#F5F5F5"/>
<path d="M7.06898 22.5742L7.2598 23.1465L7.86302 23.1511C7.94114 23.1518 7.97347 23.2514 7.91068 23.2978L7.42542 23.6561L7.60745 24.2312C7.63109 24.3057 7.54622 24.3674 7.48265 24.3219L6.99193 23.9711L6.50121 24.3219C6.43763 24.3673 6.35296 24.3057 6.3764 24.2312L6.55843 23.6561L6.07318 23.2978C6.01039 23.2513 6.04271 23.1518 6.12084 23.1511L6.72406 23.1465L6.91488 22.5742C6.93949 22.5 7.04427 22.5 7.06898 22.5742Z" fill="#F5F5F5"/>
<path d="M9.39222 12.0672L9.58304 12.6395L10.1863 12.6441C10.2644 12.6448 10.2967 12.7444 10.2339 12.7908L9.74866 13.1492L9.9307 13.7243C9.95433 13.7987 9.86947 13.8604 9.80589 13.8149L9.31517 13.4641L8.82445 13.8149C8.76087 13.8603 8.67621 13.7987 8.69964 13.7243L8.88167 13.1492L8.39642 12.7908C8.33363 12.7443 8.36595 12.6448 8.44408 12.6441L9.0473 12.6395L9.23812 12.0672C9.26263 11.9932 9.36751 11.9932 9.39222 12.0672Z" fill="#F5F5F5"/>
<path d="M9.39222 15.0605L9.58304 15.6327L10.1863 15.6373C10.2644 15.638 10.2967 15.7376 10.2339 15.784L9.74866 16.1424L9.9307 16.7175C9.95433 16.7919 9.86947 16.8536 9.80589 16.8081L9.31517 16.4573L8.82445 16.8081C8.76087 16.8535 8.67621 16.792 8.69964 16.7175L8.88167 16.1424L8.39642 15.784C8.33363 15.7375 8.36595 15.638 8.44408 15.6373L9.0473 15.6327L9.23812 15.0605C9.26263 14.9864 9.36751 14.9864 9.39222 15.0605Z" fill="#F5F5F5"/>
<path d="M9.39222 18.0546L9.58304 18.6269L10.1863 18.6315C10.2644 18.6322 10.2967 18.7318 10.2339 18.7781L9.74866 19.1365L9.9307 19.7116C9.95433 19.7861 9.86947 19.8478 9.80589 19.8023L9.31517 19.4515L8.82445 19.8023C8.76087 19.8477 8.67621 19.7861 8.69964 19.7116L8.88167 19.1365L8.39642 18.7781C8.33363 18.7317 8.36595 18.6322 8.44408 18.6315L9.0473 18.6269L9.23812 18.0546C9.26263 17.9805 9.36751 17.9805 9.39222 18.0546Z" fill="#F5F5F5"/>
<path d="M9.39222 21.0477L9.58304 21.62L10.1863 21.6246C10.2644 21.6252 10.2967 21.7249 10.2339 21.7712L9.74866 22.1296L9.9307 22.7047C9.95433 22.7791 9.86947 22.8409 9.80589 22.7954L9.31517 22.4446L8.82445 22.7954C8.76087 22.8408 8.67621 22.7791 8.69964 22.7047L8.88167 22.1296L8.39642 21.7712C8.33363 21.7248 8.36595 21.6252 8.44408 21.6246L9.0473 21.62L9.23812 21.0477C9.26263 20.9737 9.36751 20.9737 9.39222 21.0477Z" fill="#F5F5F5"/>
<path d="M11.7156 10.5995L11.9064 11.1718L12.5096 11.1764C12.5877 11.1771 12.62 11.2767 12.5573 11.3231L12.072 11.6815L12.254 12.2566C12.2777 12.331 12.1928 12.3927 12.1292 12.3472L11.6384 11.9964L11.1477 12.3472C11.0841 12.3926 10.9994 12.331 11.0229 12.2566L11.2049 11.6815L10.7197 11.3231C10.6569 11.2766 10.6892 11.1771 10.7673 11.1764L11.3705 11.1718L11.5614 10.5995C11.5861 10.5254 11.6909 10.5254 11.7156 10.5995Z" fill="#F5F5F5"/>
<path d="M11.7156 13.5926L11.9064 14.1649L12.5096 14.1695C12.5877 14.1702 12.62 14.2698 12.5573 14.3162L12.072 14.6746L12.254 15.2497C12.2777 15.3241 12.1928 15.3858 12.1292 15.3403L11.6384 14.9895L11.1477 15.3403C11.0841 15.3857 10.9994 15.3241 11.0229 15.2497L11.2049 14.6746L10.7197 14.3162C10.6569 14.2697 10.6892 14.1702 10.7673 14.1695L11.3705 14.1649L11.5614 13.5926C11.5861 13.5186 11.6909 13.5186 11.7156 13.5926Z" fill="#F5F5F5"/>
<path d="M11.7156 16.5868L11.9064 17.159L12.5096 17.1636C12.5877 17.1643 12.62 17.2639 12.5573 17.3103L12.072 17.6687L12.254 18.2438C12.2777 18.3182 12.1928 18.3799 12.1292 18.3344L11.6384 17.9836L11.1477 18.3344C11.0841 18.3798 10.9994 18.3182 11.0229 18.2438L11.2049 17.6687L10.7197 17.3103C10.6569 17.2638 10.6892 17.1643 10.7673 17.1636L11.3705 17.159L11.5614 16.5868C11.5861 16.5127 11.6909 16.5127 11.7156 16.5868Z" fill="#F5F5F5"/>
<path d="M11.7156 19.58L11.9064 20.1523L12.5096 20.1569C12.5877 20.1575 12.62 20.2572 12.5573 20.3035L12.072 20.6619L12.254 21.237C12.2777 21.3114 12.1928 21.3732 12.1292 21.3277L11.6384 20.9769L11.1477 21.3277C11.0841 21.3731 10.9994 21.3114 11.0229 21.237L11.2049 20.6619L10.7197 20.3035C10.6569 20.2571 10.6892 20.1575 10.7673 20.1569L11.3705 20.1523L11.5614 19.58C11.5861 19.5059 11.6909 19.5059 11.7156 19.58Z" fill="#F5F5F5"/>
<path d="M11.7156 22.5742L11.9064 23.1465L12.5096 23.1511C12.5877 23.1518 12.62 23.2514 12.5573 23.2978L12.072 23.6561L12.254 24.2312C12.2777 24.3057 12.1928 24.3674 12.1292 24.3219L11.6384 23.9711L11.1477 24.3219C11.0841 24.3673 10.9994 24.3057 11.0229 24.2312L11.2049 23.6561L10.7197 23.2978C10.6569 23.2513 10.6892 23.1518 10.7673 23.1511L11.3705 23.1465L11.5614 22.5742C11.5861 22.5 11.6909 22.5 11.7156 22.5742Z" fill="#F5F5F5"/>
<path d="M14.0397 12.0672L14.2305 12.6395L14.8337 12.6441C14.9118 12.6448 14.9442 12.7444 14.8814 12.7908L14.3961 13.1492L14.5782 13.7243C14.6018 13.7987 14.5169 13.8604 14.4534 13.8149L13.9626 13.4641L13.4719 13.8149C13.4083 13.8603 13.3237 13.7987 13.3471 13.7243L13.5291 13.1492L13.0439 12.7908C12.9811 12.7443 13.0134 12.6448 13.0915 12.6441L13.6948 12.6395L13.8856 12.0672C13.9103 11.9932 14.015 11.9932 14.0397 12.0672Z" fill="#F5F5F5"/>
<path d="M14.0397 15.0605L14.2305 15.6327L14.8337 15.6373C14.9118 15.638 14.9442 15.7376 14.8814 15.784L14.3961 16.1424L14.5782 16.7175C14.6018 16.7919 14.5169 16.8536 14.4534 16.8081L13.9626 16.4573L13.4719 16.8081C13.4083 16.8535 13.3237 16.792 13.3471 16.7175L13.5291 16.1424L13.0439 15.784C12.9811 15.7375 13.0134 15.638 13.0915 15.6373L13.6948 15.6327L13.8856 15.0605C13.9103 14.9864 14.015 14.9864 14.0397 15.0605Z" fill="#F5F5F5"/>
<path d="M14.0397 18.0546L14.2305 18.6269L14.8337 18.6315C14.9118 18.6322 14.9442 18.7318 14.8814 18.7781L14.3961 19.1365L14.5782 19.7116C14.6018 19.7861 14.5169 19.8478 14.4534 19.8023L13.9626 19.4515L13.4719 19.8023C13.4083 19.8477 13.3237 19.7861 13.3471 19.7116L13.5291 19.1365L13.0439 18.7781C12.9811 18.7317 13.0134 18.6322 13.0915 18.6315L13.6948 18.6269L13.8856 18.0546C13.9103 17.9805 14.015 17.9805 14.0397 18.0546Z" fill="#F5F5F5"/>
<path d="M14.0397 21.0477L14.2305 21.62L14.8337 21.6246C14.9118 21.6252 14.9442 21.7249 14.8814 21.7712L14.3961 22.1296L14.5782 22.7047C14.6018 22.7791 14.5169 22.8409 14.4534 22.7954L13.9626 22.4446L13.4719 22.7954C13.4083 22.8408 13.3237 22.7791 13.3471 22.7047L13.5291 22.1296L13.0439 21.7712C12.9811 21.7248 13.0134 21.6252 13.0915 21.6246L13.6948 21.62L13.8856 21.0477C13.9103 20.9737 14.015 20.9737 14.0397 21.0477Z" fill="#F5F5F5"/>
<path d="M16.3629 10.5995L16.5537 11.1718L17.157 11.1764C17.2351 11.1771 17.2674 11.2767 17.2046 11.3231L16.7194 11.6815L16.9014 12.2566C16.925 12.331 16.8402 12.3927 16.7766 12.3472L16.2859 11.9964L15.7952 12.3472C15.7316 12.3926 15.6469 12.331 15.6703 12.2566L15.8524 11.6815L15.3671 11.3231C15.3043 11.2766 15.3367 11.1771 15.4148 11.1764L16.018 11.1718L16.2088 10.5995C16.2333 10.5254 16.3382 10.5254 16.3629 10.5995Z" fill="#F5F5F5"/>
<path d="M16.3629 13.5926L16.5537 14.1649L17.157 14.1695C17.2351 14.1702 17.2674 14.2698 17.2046 14.3162L16.7194 14.6746L16.9014 15.2497C16.925 15.3241 16.8402 15.3858 16.7766 15.3403L16.2859 14.9895L15.7952 15.3403C15.7316 15.3857 15.6469 15.3241 15.6703 15.2497L15.8524 14.6746L15.3671 14.3162C15.3043 14.2697 15.3367 14.1702 15.4148 14.1695L16.018 14.1649L16.2088 13.5926C16.2333 13.5186 16.3382 13.5186 16.3629 13.5926Z" fill="#F5F5F5"/>
<path d="M16.3629 16.5868L16.5537 17.159L17.157 17.1636C17.2351 17.1643 17.2674 17.2639 17.2046 17.3103L16.7194 17.6687L16.9014 18.2438C16.925 18.3182 16.8402 18.3799 16.7766 18.3344L16.2859 17.9836L15.7952 18.3344C15.7316 18.3798 15.6469 18.3182 15.6703 18.2438L15.8524 17.6687L15.3671 17.3103C15.3043 17.2638 15.3367 17.1643 15.4148 17.1636L16.018 17.159L16.2088 16.5868C16.2333 16.5127 16.3382 16.5127 16.3629 16.5868Z" fill="#F5F5F5"/>
<path d="M16.3629 19.58L16.5537 20.1523L17.157 20.1569C17.2351 20.1575 17.2674 20.2572 17.2046 20.3035L16.7194 20.6619L16.9014 21.237C16.925 21.3114 16.8402 21.3732 16.7766 21.3277L16.2859 20.9769L15.7952 21.3277C15.7316 21.3731 15.6469 21.3114 15.6703 21.237L15.8524 20.6619L15.3671 20.3035C15.3043 20.2571 15.3367 20.1575 15.4148 20.1569L16.018 20.1523L16.2088 19.58C16.2333 19.5059 16.3382 19.5059 16.3629 19.58Z" fill="#F5F5F5"/>
<path d="M16.3629 22.5742L16.5537 23.1465L17.157 23.1511C17.2351 23.1518 17.2674 23.2514 17.2046 23.2978L16.7194 23.6561L16.9014 24.2312C16.925 24.3057 16.8402 24.3674 16.7766 24.3219L16.2859 23.9711L15.7952 24.3219C15.7316 24.3673 15.6469 24.3057 15.6703 24.2312L15.8524 23.6561L15.3671 23.2978C15.3043 23.2513 15.3367 23.1518 15.4148 23.1511L16.018 23.1465L16.2088 22.5742C16.2333 22.5 16.3382 22.5 16.3629 22.5742Z" fill="#F5F5F5"/>
<path d="M18.6862 12.0672L18.877 12.6395L19.4802 12.6441C19.5583 12.6448 19.5907 12.7444 19.5279 12.7908L19.0426 13.1492L19.2246 13.7243C19.2483 13.7987 19.1634 13.8604 19.0998 13.8149L18.6091 13.4641L18.1184 13.8149C18.0548 13.8603 17.9702 13.7987 17.9936 13.7243L18.1756 13.1492L17.6904 12.7908C17.6276 12.7443 17.6599 12.6448 17.738 12.6441L18.3412 12.6395L18.5321 12.0672C18.5567 11.9932 18.6616 11.9932 18.6862 12.0672Z" fill="#F5F5F5"/>
<path d="M18.6862 15.0605L18.877 15.6327L19.4802 15.6373C19.5583 15.638 19.5907 15.7376 19.5279 15.784L19.0426 16.1424L19.2246 16.7175C19.2483 16.7919 19.1634 16.8536 19.0998 16.8081L18.6091 16.4573L18.1184 16.8081C18.0548 16.8535 17.9702 16.792 17.9936 16.7175L18.1756 16.1424L17.6904 15.784C17.6276 15.7375 17.6599 15.638 17.738 15.6373L18.3412 15.6327L18.5321 15.0605C18.5567 14.9864 18.6616 14.9864 18.6862 15.0605Z" fill="#F5F5F5"/>
<path d="M18.6862 18.0546L18.877 18.6269L19.4802 18.6315C19.5583 18.6322 19.5907 18.7318 19.5279 18.7781L19.0426 19.1365L19.2246 19.7116C19.2483 19.7861 19.1634 19.8478 19.0998 19.8023L18.6091 19.4515L18.1184 19.8023C18.0548 19.8477 17.9702 19.7861 17.9936 19.7116L18.1756 19.1365L17.6904 18.7781C17.6276 18.7317 17.6599 18.6322 17.738 18.6315L18.3412 18.6269L18.5321 18.0546C18.5567 17.9805 18.6616 17.9805 18.6862 18.0546Z" fill="#F5F5F5"/>
<path d="M18.6862 21.0477L18.877 21.62L19.4802 21.6246C19.5583 21.6252 19.5907 21.7249 19.5279 21.7712L19.0426 22.1296L19.2246 22.7047C19.2483 22.7791 19.1634 22.8409 19.0998 22.7954L18.6091 22.4446L18.1184 22.7954C18.0548 22.8408 17.9702 22.7791 17.9936 22.7047L18.1756 22.1296L17.6904 21.7712C17.6276 21.7248 17.6599 21.6252 17.738 21.6246L18.3412 21.62L18.5321 21.0477C18.5567 20.9737 18.6616 20.9737 18.6862 21.0477Z" fill="#F5F5F5"/>
<path d="M21.0104 10.5995L21.2012 11.1718L21.8044 11.1764C21.8826 11.1771 21.9149 11.2767 21.8521 11.3231L21.3668 11.6815L21.5489 12.2566C21.5725 12.331 21.4876 12.3927 21.4241 12.3472L20.9333 11.9964L20.4426 12.3472C20.379 12.3926 20.2944 12.331 20.3178 12.2566L20.4998 11.6815L20.0146 11.3231C19.9518 11.2766 19.9841 11.1771 20.0622 11.1764L20.6655 11.1718L20.8563 10.5995C20.8809 10.5254 20.9856 10.5254 21.0104 10.5995Z" fill="#F5F5F5"/>
<path d="M21.0104 13.5926L21.2012 14.1649L21.8044 14.1695C21.8826 14.1702 21.9149 14.2698 21.8521 14.3162L21.3668 14.6746L21.5489 15.2497C21.5725 15.3241 21.4876 15.3858 21.4241 15.3403L20.9333 14.9895L20.4426 15.3403C20.379 15.3857 20.2944 15.3241 20.3178 15.2497L20.4998 14.6746L20.0146 14.3162C19.9518 14.2697 19.9841 14.1702 20.0622 14.1695L20.6655 14.1649L20.8563 13.5926C20.8809 13.5186 20.9856 13.5186 21.0104 13.5926Z" fill="#F5F5F5"/>
<path d="M21.0104 16.5868L21.2012 17.159L21.8044 17.1636C21.8826 17.1643 21.9149 17.2639 21.8521 17.3103L21.3668 17.6687L21.5489 18.2438C21.5725 18.3182 21.4876 18.3799 21.4241 18.3344L20.9333 17.9836L20.4426 18.3344C20.379 18.3798 20.2944 18.3182 20.3178 18.2438L20.4998 17.6687L20.0146 17.3103C19.9518 17.2638 19.9841 17.1643 20.0622 17.1636L20.6655 17.159L20.8563 16.5868C20.8809 16.5127 20.9856 16.5127 21.0104 16.5868Z" fill="#F5F5F5"/>
<path d="M21.0104 19.58L21.2012 20.1523L21.8044 20.1569C21.8826 20.1575 21.9149 20.2572 21.8521 20.3035L21.3668 20.6619L21.5489 21.237C21.5725 21.3114 21.4876 21.3732 21.4241 21.3277L20.9333 20.9769L20.4426 21.3277C20.379 21.3731 20.2944 21.3114 20.3178 21.237L20.4998 20.6619L20.0146 20.3035C19.9518 20.2571 19.9841 20.1575 20.0622 20.1569L20.6655 20.1523L20.8563 19.58C20.8809 19.5059 20.9856 19.5059 21.0104 19.58Z" fill="#F5F5F5"/>
<path d="M21.0104 22.5742L21.2012 23.1465L21.8044 23.1511C21.8826 23.1518 21.9149 23.2514 21.8521 23.2978L21.3668 23.6561L21.5489 24.2312C21.5725 24.3057 21.4876 24.3674 21.4241 24.3219L20.9333 23.9711L20.4426 24.3219C20.379 24.3673 20.2944 24.3057 20.3178 24.2312L20.4998 23.6561L20.0146 23.2978C19.9518 23.2513 19.9841 23.1518 20.0622 23.1511L20.6655 23.1465L20.8563 22.5742C20.8809 22.5 20.9856 22.5 21.0104 22.5742Z" fill="#F5F5F5"/>
</g>
<defs>
<clipPath id="clip0_1552_32430">
<rect width="50" height="50" fill="white"/>
</clipPath>
</defs>
</svg>
