<svg width="453" height="304" viewBox="0 0 453 304" fill="none" xmlns="http://www.w3.org/2000/svg">
<path fill-rule="evenodd" clip-rule="evenodd" d="M56.6598 24.5306L45.9797 18.9949L45.4738 39.2369L30.6117 74.6578L27.8927 94.05L30.5765 122.167L42.9306 162.659L53.8484 166.778L67.4115 182.522L69.2737 189.54L88.947 192.167L119.405 211.3L146.163 213.728L146.696 209.445L160.111 210.102L171.807 220.474L177.063 234.161L191.188 239.599L197.149 233.126L206.112 234.24L222.055 254.914L229.426 269.337L246.224 271.489L241.986 257.495L250.346 243.777L266.835 235.212L296.788 228.562L301.091 233.192L317.657 230.25L312.053 219.141L327.647 214.293L350.44 215.066L360.705 212.042L371.841 220.661L374.782 233.198L396.024 257.335L400.608 253.383L402.194 239.338L382.165 202.558L382.373 188.652L386.117 179.838L414.479 144.34L419.289 131.654L408.558 120.051L402.07 101.02L405.731 98.1421L412.971 117.585L414.805 116.056L418.019 83.9335L443.534 58.8122L431.548 52.2022L433.239 41.0323L450.598 19.2711L440.995 13.9671L435.17 2L427.73 6.00942L423.823 4.91475L422.113 29.7409L393.445 43.131L389.451 52.697L392.9 59.8963L383.036 65.0689L373.486 67.4035L374.138 73.6534L350.628 94.1814L343.337 92.1827L348.537 81.9225L343.676 69.48L340.19 68.3806L338.148 73.3436L334.946 71.6597L338.265 62.3389L332.755 55.6612L326.473 54.7166L315.732 71.2915L321.555 88.8567L316.381 98.5227L310.584 96.6216L303.52 68.9772L313.716 56.6639L327.894 50.3602L326.397 47.1283L311.492 50.7162L300.612 40.3856L288.368 52.0744L274.299 51.6081L289.43 38.7248L274.385 38.7933L247.194 31.6143L213.995 34.9288L139.848 31.5398L61.0729 14.8075L63.1203 23.4129L59.2294 33.0211L54.9402 31.1073L56.6598 24.5306ZM36.5396 204.529L17.0399 213.482L24.8354 221.123L19.5593 224.81L12.7693 221.832L8.77143 226.294L12.5058 230.419L19.848 230.951L17.3443 236.312L7.39782 237.864L2 245.882L18.9939 261.014L2.75712 265.642L2.40297 268.31L17.4831 268.572L29.5104 260.17L34.1471 256.053L41.3035 254.22L42.9501 250.043L47.8439 250.533L54.099 255.688L58.7726 254.637L83.0317 276.272L86.9368 270.247L68.414 254.367L57.1976 246.336L58.2149 209.999L47.5075 209.586L36.5396 204.529ZM118.762 259.393L124.083 258.459L125.036 265.715L115.965 264.919L118.762 259.393ZM147.63 270.899L139.706 262.913L136.415 267.687L141.519 274.128L147.63 270.899ZM149.609 272.143L158.289 269.345L169.565 277.084L158.075 282.374L149.609 272.143ZM185.892 291.821L169.564 281.879L170.786 300.501L176.712 302L185.892 291.821Z" fill="#EBF3F7"/>
<path d="M45.9797 18.9949L46.4399 18.1071L45.02 17.3711L44.98 18.9699L45.9797 18.9949ZM56.6598 24.5306L57.6273 24.7836L57.8294 24.0105L57.12 23.6428L56.6598 24.5306ZM45.4738 39.2369L46.396 39.6238L46.4688 39.4501L46.4735 39.2618L45.4738 39.2369ZM30.6117 74.6578L29.6896 74.2709L29.6394 74.3905L29.6214 74.5189L30.6117 74.6578ZM27.8927 94.05L26.9024 93.9111L26.8861 94.0277L26.8973 94.145L27.8927 94.05ZM30.5765 122.167L29.581 122.262L29.5906 122.362L29.62 122.458L30.5765 122.167ZM42.9306 162.659L41.9742 162.951L42.1176 163.421L42.5776 163.594L42.9306 162.659ZM53.8484 166.778L54.6061 166.125L54.4398 165.932L54.2014 165.842L53.8484 166.778ZM67.4115 182.522L68.378 182.266L68.3191 182.044L68.1691 181.87L67.4115 182.522ZM69.2737 189.54L68.3072 189.796L68.4787 190.443L69.1414 190.531L69.2737 189.54ZM88.947 192.167L89.479 191.32L89.2949 191.204L89.0794 191.176L88.947 192.167ZM119.405 211.3L118.873 212.147L119.076 212.274L119.315 212.296L119.405 211.3ZM146.163 213.728L146.073 214.724L147.037 214.811L147.156 213.851L146.163 213.728ZM146.696 209.445L146.745 208.447L145.818 208.401L145.703 209.322L146.696 209.445ZM160.111 210.102L160.774 209.354L160.511 209.121L160.16 209.104L160.111 210.102ZM171.807 220.474L172.741 220.116L172.654 219.888L172.471 219.726L171.807 220.474ZM177.063 234.161L176.13 234.519L176.289 234.934L176.704 235.094L177.063 234.161ZM191.188 239.599L190.829 240.532L191.463 240.776L191.923 240.276L191.188 239.599ZM197.149 233.126L197.273 232.133L196.762 232.07L196.414 232.448L197.149 233.126ZM206.112 234.24L206.904 233.629L206.649 233.299L206.236 233.248L206.112 234.24ZM222.055 254.914L222.945 254.459L222.903 254.377L222.847 254.303L222.055 254.914ZM229.426 269.337L228.536 269.793L228.776 270.262L229.299 270.329L229.426 269.337ZM246.224 271.489L246.097 272.481L247.629 272.677L247.182 271.199L246.224 271.489ZM241.986 257.495L241.132 256.975L240.899 257.357L241.029 257.785L241.986 257.495ZM250.346 243.777L249.885 242.89L249.637 243.018L249.492 243.257L250.346 243.777ZM266.835 235.212L266.618 234.235L266.49 234.264L266.374 234.324L266.835 235.212ZM296.788 228.562L297.521 227.881L297.131 227.462L296.571 227.586L296.788 228.562ZM301.091 233.192L300.359 233.873L300.73 234.272L301.266 234.177L301.091 233.192ZM317.657 230.25L317.832 231.235L319.155 231L318.55 229.8L317.657 230.25ZM312.053 219.141L311.756 218.186L310.628 218.536L311.16 219.591L312.053 219.141ZM327.647 214.293L327.681 213.293L327.512 213.287L327.35 213.338L327.647 214.293ZM350.44 215.066L350.406 216.066L350.568 216.071L350.723 216.025L350.44 215.066ZM360.705 212.042L361.317 211.251L360.912 210.938L360.422 211.083L360.705 212.042ZM371.841 220.661L372.815 220.433L372.734 220.087L372.453 219.87L371.841 220.661ZM374.782 233.198L373.808 233.426L373.866 233.67L374.031 233.859L374.782 233.198ZM396.024 257.335L395.274 257.996L395.928 258.739L396.677 258.093L396.024 257.335ZM400.608 253.383L401.261 254.14L401.558 253.884L401.602 253.495L400.608 253.383ZM402.194 239.338L403.188 239.451L403.223 239.137L403.072 238.86L402.194 239.338ZM382.165 202.558L381.165 202.543L381.161 202.806L381.287 203.036L382.165 202.558ZM382.373 188.652L381.453 188.261L381.376 188.441L381.374 188.637L382.373 188.652ZM386.117 179.838L385.336 179.213L385.25 179.32L385.197 179.447L386.117 179.838ZM414.479 144.34L415.26 144.964L415.358 144.841L415.414 144.694L414.479 144.34ZM419.289 131.654L420.224 132.009L420.443 131.43L420.023 130.975L419.289 131.654ZM408.558 120.051L407.611 120.374L407.68 120.574L407.824 120.73L408.558 120.051ZM402.07 101.02L401.452 100.234L400.895 100.672L401.124 101.343L402.07 101.02ZM405.731 98.1421L406.669 97.7932L406.191 96.5092L405.113 97.3559L405.731 98.1421ZM412.971 117.585L412.034 117.933L412.526 119.257L413.611 118.353L412.971 117.585ZM414.805 116.056L415.445 116.824L415.759 116.562L415.8 116.155L414.805 116.056ZM418.019 83.9335L417.318 83.2209L417.06 83.4744L417.024 83.8339L418.019 83.9335ZM443.534 58.8122L444.236 59.5248L445.191 58.5841L444.017 57.9366L443.534 58.8122ZM431.548 52.2022L430.559 52.0525L430.455 52.7414L431.065 53.0779L431.548 52.2022ZM433.239 41.0323L432.457 40.4087L432.29 40.6179L432.25 40.8826L433.239 41.0323ZM450.598 19.2711L451.38 19.8947L452.118 18.9686L451.081 18.3958L450.598 19.2711ZM440.995 13.9671L440.096 14.4048L440.234 14.6894L440.511 14.8425L440.995 13.9671ZM435.17 2L436.069 1.56236L435.613 0.625304L434.696 1.11968L435.17 2ZM427.73 6.00942L427.46 6.97233L427.849 7.08127L428.204 6.88974L427.73 6.00942ZM423.823 4.91475L424.093 3.95184L422.91 3.62033L422.825 4.84605L423.823 4.91475ZM422.113 29.7409L422.537 30.647L423.071 30.3976L423.111 29.8096L422.113 29.7409ZM393.445 43.131L393.022 42.2249L392.671 42.3887L392.522 42.7457L393.445 43.131ZM389.451 52.697L388.528 52.3117L388.355 52.7252L388.549 53.1292L389.451 52.697ZM392.9 59.8963L393.365 60.7819L394.219 60.334L393.802 59.4642L392.9 59.8963ZM383.036 65.0689L383.274 66.0403L383.392 66.0113L383.501 65.9546L383.036 65.0689ZM373.486 67.4035L373.249 66.4321L372.401 66.6394L372.492 67.5073L373.486 67.4035ZM374.138 73.6534L374.796 74.4067L375.187 74.0655L375.133 73.5496L374.138 73.6534ZM350.628 94.1814L350.364 95.1459L350.882 95.2878L351.286 94.9347L350.628 94.1814ZM343.337 92.1827L342.445 91.7307L341.892 92.8233L343.073 93.1472L343.337 92.1827ZM348.537 81.9225L349.429 82.3746L349.632 81.9754L349.469 81.5586L348.537 81.9225ZM343.676 69.48L344.608 69.1162L344.434 68.6703L343.977 68.5263L343.676 69.48ZM340.19 68.3806L340.49 67.4268L339.614 67.1506L339.265 68.0001L340.19 68.3806ZM338.148 73.3436L337.682 74.2287L338.655 74.74L339.073 73.7241L338.148 73.3436ZM334.946 71.6597L334.004 71.3242L333.713 72.1412L334.48 72.5448L334.946 71.6597ZM338.265 62.3389L339.207 62.6744L339.397 62.14L339.036 61.7025L338.265 62.3389ZM332.755 55.6612L333.527 55.0248L333.283 54.7293L332.904 54.6723L332.755 55.6612ZM326.473 54.7166L326.622 53.7277L325.985 53.6318L325.634 54.1727L326.473 54.7166ZM315.732 71.2915L314.892 70.7477L314.631 71.1505L314.782 71.6062L315.732 71.2915ZM321.555 88.8567L322.437 89.3286L322.64 88.9498L322.505 88.542L321.555 88.8567ZM316.381 98.5227L316.07 99.4729L316.867 99.7343L317.263 98.9946L316.381 98.5227ZM310.584 96.6216L309.615 96.8692L309.751 97.4008L310.272 97.5718L310.584 96.6216ZM303.52 68.9772L302.749 68.3394L302.425 68.7315L302.551 69.2248L303.52 68.9772ZM313.716 56.6639L313.31 55.7502L313.096 55.8455L312.946 56.0261L313.716 56.6639ZM327.894 50.3602L328.3 51.2739L329.228 50.8613L328.801 49.9399L327.894 50.3602ZM326.397 47.1283L327.304 46.708L326.96 45.9642L326.163 46.1561L326.397 47.1283ZM311.492 50.7162L310.803 51.4414L311.197 51.8156L311.726 51.6884L311.492 50.7162ZM300.612 40.3856L301.301 39.6604L300.61 39.0048L299.922 39.6623L300.612 40.3856ZM288.368 52.0744L288.335 53.0739L288.755 53.0878L289.059 52.7977L288.368 52.0744ZM274.299 51.6081L273.651 50.8467L271.683 52.5219L274.266 52.6075L274.299 51.6081ZM289.43 38.7248L290.079 39.4862L292.162 37.7124L289.426 37.7248L289.43 38.7248ZM274.385 38.7933L274.13 39.7601L274.258 39.7939L274.39 39.7933L274.385 38.7933ZM247.194 31.6143L247.449 30.6474L247.274 30.6013L247.094 30.6192L247.194 31.6143ZM213.995 34.9288L213.949 35.9277L214.022 35.9311L214.094 35.9238L213.995 34.9288ZM139.848 31.5398L139.64 32.518L139.72 32.5351L139.802 32.5388L139.848 31.5398ZM61.0729 14.8075L61.2807 13.8294L59.7341 13.5009L60.1001 15.039L61.0729 14.8075ZM63.1203 23.4129L64.0472 23.7882L64.1671 23.4922L64.0932 23.1814L63.1203 23.4129ZM59.2294 33.0211L58.8219 33.9343L59.7676 34.3563L60.1563 33.3964L59.2294 33.0211ZM54.9402 31.1073L53.9728 30.8544L53.7582 31.675L54.5328 32.0206L54.9402 31.1073ZM17.0399 213.482L16.6227 212.573L15.3026 213.179L16.3399 214.196L17.0399 213.482ZM36.5396 204.529L36.9583 203.621L36.5405 203.428L36.1223 203.62L36.5396 204.529ZM24.8354 221.123L25.4082 221.943L26.396 221.252L25.5354 220.409L24.8354 221.123ZM19.5593 224.81L19.1577 225.726L19.6719 225.951L20.1321 225.63L19.5593 224.81ZM12.7693 221.832L13.1709 220.917L12.5077 220.626L12.0245 221.165L12.7693 221.832ZM8.77143 226.294L8.02669 225.626L7.4256 226.297L8.03011 226.965L8.77143 226.294ZM12.5058 230.419L11.7644 231.09L12.0336 231.387L12.4335 231.416L12.5058 230.419ZM19.848 230.951L20.7541 231.374L21.3684 230.058L19.9203 229.953L19.848 230.951ZM17.3443 236.312L17.4985 237.3L18.025 237.218L18.2504 236.735L17.3443 236.312ZM7.39782 237.864L7.24371 236.876L6.81216 236.943L6.56826 237.305L7.39782 237.864ZM2 245.882L1.17044 245.324L0.682748 246.048L1.335 246.629L2 245.882ZM18.9939 261.014L19.268 261.976L21.0177 261.477L19.6589 260.267L18.9939 261.014ZM2.75712 265.642L2.48304 264.68L1.85214 264.86L1.76582 265.51L2.75712 265.642ZM2.40297 268.31L1.41167 268.178L1.26408 269.29L2.38558 269.31L2.40297 268.31ZM17.4831 268.572L17.4657 269.572L17.7899 269.578L18.0558 269.392L17.4831 268.572ZM29.5104 260.17L30.0831 260.99L30.1308 260.956L30.1744 260.918L29.5104 260.17ZM34.1471 256.053L33.899 255.084L33.6643 255.144L33.4831 255.305L34.1471 256.053ZM41.3035 254.22L41.5515 255.189L42.0465 255.062L42.2338 254.587L41.3035 254.22ZM42.9501 250.043L43.0497 249.048L42.2971 248.972L42.0197 249.676L42.9501 250.043ZM47.8439 250.533L48.4799 249.761L48.2456 249.568L47.9436 249.538L47.8439 250.533ZM54.099 255.688L53.463 256.459L53.8407 256.771L54.3183 256.663L54.099 255.688ZM58.7726 254.637L59.4382 253.891L59.0547 253.549L58.5533 253.662L58.7726 254.637ZM83.0317 276.272L82.3661 277.018L83.2365 277.795L83.8709 276.816L83.0317 276.272ZM86.9368 270.247L87.776 270.791L88.2516 270.057L87.5877 269.488L86.9368 270.247ZM68.414 254.367L69.0649 253.608L69.0317 253.579L68.9962 253.554L68.414 254.367ZM57.1976 246.336L56.198 246.308L56.1831 246.84L56.6155 247.149L57.1976 246.336ZM58.2149 209.999L59.2145 210.027L59.2422 209.038L58.2535 209L58.2149 209.999ZM47.5075 209.586L47.0887 210.494L47.2698 210.578L47.4689 210.586L47.5075 209.586ZM124.083 258.459L125.074 258.328L124.938 257.293L123.91 257.474L124.083 258.459ZM118.762 259.393L118.589 258.408L118.096 258.494L117.87 258.941L118.762 259.393ZM125.036 265.715L124.948 266.712L126.189 266.821L126.027 265.585L125.036 265.715ZM115.965 264.919L115.073 264.467L114.405 265.785L115.877 265.915L115.965 264.919ZM139.706 262.913L140.415 262.208L139.566 261.353L138.882 262.345L139.706 262.913ZM147.63 270.899L148.097 271.783L149.29 271.152L148.339 270.194L147.63 270.899ZM136.415 267.687L135.591 267.119L135.171 267.728L135.631 268.308L136.415 267.687ZM141.519 274.128L140.735 274.749L141.251 275.4L141.986 275.012L141.519 274.128ZM158.289 269.345L158.855 268.52L158.45 268.242L157.982 268.393L158.289 269.345ZM149.609 272.143L149.302 271.191L147.898 271.643L148.838 272.78L149.609 272.143ZM169.565 277.084L169.983 277.992L171.582 277.256L170.131 276.26L169.565 277.084ZM158.075 282.374L157.305 283.011L157.795 283.604L158.494 283.282L158.075 282.374ZM169.564 281.879L170.084 281.025L168.44 280.024L168.566 281.945L169.564 281.879ZM185.892 291.821L186.634 292.49L187.442 291.594L186.412 290.967L185.892 291.821ZM170.786 300.501L169.788 300.566L169.835 301.292L170.54 301.47L170.786 300.501ZM176.712 302L176.466 302.97L177.051 303.118L177.454 302.67L176.712 302ZM45.5195 19.8827L56.1996 25.4185L57.12 23.6428L46.4399 18.1071L45.5195 19.8827ZM46.4735 39.2618L46.9794 19.0199L44.98 18.9699L44.4742 39.2119L46.4735 39.2618ZM31.5338 75.0447L46.396 39.6238L44.5517 38.85L29.6896 74.2709L31.5338 75.0447ZM28.8831 94.1888L31.602 74.7966L29.6214 74.5189L26.9024 93.9111L28.8831 94.1888ZM31.5719 122.072L28.8882 93.9549L26.8973 94.145L29.581 122.262L31.5719 122.072ZM43.8871 162.367L31.5329 121.875L29.62 122.458L41.9742 162.951L43.8871 162.367ZM54.2014 165.842L43.2836 161.723L42.5776 163.594L53.4954 167.714L54.2014 165.842ZM68.1691 181.87L54.6061 166.125L53.0908 167.431L66.6538 183.175L68.1691 181.87ZM70.2403 189.283L68.378 182.266L66.4449 182.779L68.3072 189.796L70.2403 189.283ZM89.0794 191.176L69.4061 188.549L69.1414 190.531L88.8147 193.158L89.0794 191.176ZM119.937 210.453L89.479 191.32L88.4151 193.014L118.873 212.147L119.937 210.453ZM146.254 212.732L119.495 210.304L119.315 212.296L146.073 214.724L146.254 212.732ZM145.703 209.322L145.171 213.604L147.156 213.851L147.688 209.569L145.703 209.322ZM160.16 209.104L146.745 208.447L146.647 210.444L160.062 211.101L160.16 209.104ZM172.471 219.726L160.774 209.354L159.447 210.851L171.144 221.223L172.471 219.726ZM177.997 233.803L172.741 220.116L170.874 220.833L176.13 234.519L177.997 233.803ZM191.547 238.666L177.423 233.228L176.704 235.094L190.829 240.532L191.547 238.666ZM196.414 232.448L190.452 238.922L191.923 240.276L197.885 233.803L196.414 232.448ZM206.236 233.248L197.273 232.133L197.026 234.118L205.989 235.232L206.236 233.248ZM222.847 254.303L206.904 233.629L205.32 234.851L221.263 255.525L222.847 254.303ZM230.317 268.882L222.945 254.459L221.164 255.369L228.536 269.793L230.317 268.882ZM246.352 270.497L229.553 268.346L229.299 270.329L246.097 272.481L246.352 270.497ZM241.029 257.785L245.267 271.779L247.182 271.199L242.943 257.206L241.029 257.785ZM249.492 243.257L241.132 256.975L242.84 258.016L251.2 244.297L249.492 243.257ZM266.374 234.324L249.885 242.89L250.807 244.664L267.296 236.099L266.374 234.324ZM296.571 227.586L266.618 234.235L267.052 236.188L297.005 229.538L296.571 227.586ZM301.824 232.511L297.521 227.881L296.056 229.243L300.359 233.873L301.824 232.511ZM317.482 229.265L300.916 232.207L301.266 234.177L317.832 231.235L317.482 229.265ZM311.16 219.591L316.764 230.7L318.55 229.8L312.946 218.69L311.16 219.591ZM327.35 213.338L311.756 218.186L312.35 220.096L327.944 215.248L327.35 213.338ZM350.474 214.067L327.681 213.293L327.613 215.292L350.406 216.066L350.474 214.067ZM360.422 211.083L350.158 214.107L350.723 216.025L360.987 213.001L360.422 211.083ZM372.453 219.87L361.317 211.251L360.092 212.833L371.229 221.452L372.453 219.87ZM375.756 232.969L372.815 220.433L370.868 220.889L373.808 233.426L375.756 232.969ZM396.775 256.675L375.533 232.537L374.031 233.859L395.274 257.996L396.775 256.675ZM399.955 252.625L395.371 256.578L396.677 258.093L401.261 254.14L399.955 252.625ZM401.2 239.226L399.615 253.271L401.602 253.495L403.188 239.451L401.2 239.226ZM381.287 203.036L401.316 239.817L403.072 238.86L383.043 202.08L381.287 203.036ZM381.374 188.637L381.165 202.543L383.165 202.573L383.373 188.667L381.374 188.637ZM385.197 179.447L381.453 188.261L383.294 189.043L387.038 180.229L385.197 179.447ZM413.697 143.715L385.336 179.213L386.898 180.462L415.26 144.964L413.697 143.715ZM418.354 131.3L413.544 143.985L415.414 144.694L420.224 132.009L418.354 131.3ZM407.824 120.73L418.555 132.333L420.023 130.975L409.292 119.372L407.824 120.73ZM401.124 101.343L407.611 120.374L409.504 119.728L403.017 100.698L401.124 101.343ZM405.113 97.3559L401.452 100.234L402.688 101.806L406.349 98.9283L405.113 97.3559ZM413.908 117.236L406.669 97.7932L404.794 98.491L412.034 117.933L413.908 117.236ZM414.164 115.288L412.33 116.816L413.611 118.353L415.445 116.824L414.164 115.288ZM417.024 83.8339L413.81 115.956L415.8 116.155L419.014 84.033L417.024 83.8339ZM442.833 58.0996L417.318 83.2209L418.721 84.646L444.236 59.5248L442.833 58.0996ZM431.065 53.0779L443.051 59.6879L444.017 57.9366L432.031 51.3265L431.065 53.0779ZM432.25 40.8826L430.559 52.0525L432.536 52.3519L434.228 41.182L432.25 40.8826ZM449.816 18.6475L432.457 40.4087L434.021 41.6559L451.38 19.8947L449.816 18.6475ZM440.511 14.8425L450.114 20.1465L451.081 18.3958L441.478 13.0918L440.511 14.8425ZM434.271 2.43764L440.096 14.4048L441.894 13.5295L436.069 1.56236L434.271 2.43764ZM428.204 6.88974L435.644 2.88032L434.696 1.11968L427.255 5.1291L428.204 6.88974ZM423.553 5.87766L427.46 6.97233L427.999 5.04651L424.093 3.95184L423.553 5.87766ZM423.111 29.8096L424.821 4.98345L422.825 4.84605L421.116 29.6722L423.111 29.8096ZM393.868 44.037L422.537 30.647L421.69 28.8349L393.022 42.2249L393.868 44.037ZM390.373 53.0823L394.368 43.5163L392.522 42.7457L388.528 52.3117L390.373 53.0823ZM393.802 59.4642L390.352 52.2649L388.549 53.1292L391.998 60.3284L393.802 59.4642ZM383.501 65.9546L393.365 60.7819L392.436 59.0107L382.572 64.1833L383.501 65.9546ZM373.724 68.3749L383.274 66.0403L382.799 64.0975L373.249 66.4321L373.724 68.3749ZM375.133 73.5496L374.481 67.2998L372.492 67.5073L373.144 73.7572L375.133 73.5496ZM351.286 94.9347L374.796 74.4067L373.481 72.9001L349.971 93.4282L351.286 94.9347ZM343.073 93.1472L350.364 95.1459L350.893 93.217L343.602 91.2183L343.073 93.1472ZM347.645 81.4704L342.445 91.7307L344.229 92.6348L349.429 82.3746L347.645 81.4704ZM342.745 69.8439L347.606 82.2864L349.469 81.5586L344.608 69.1162L342.745 69.8439ZM339.889 69.3343L343.376 70.4337L343.977 68.5263L340.49 67.4268L339.889 69.3343ZM339.073 73.7241L341.114 68.761L339.265 68.0001L337.223 72.9632L339.073 73.7241ZM334.48 72.5448L337.682 74.2287L338.613 72.4585L335.411 70.7746L334.48 72.5448ZM337.323 62.0035L334.004 71.3242L335.888 71.9952L339.207 62.6744L337.323 62.0035ZM331.984 56.2976L337.493 62.9753L339.036 61.7025L333.527 55.0248L331.984 56.2976ZM326.325 55.7054L332.607 56.6501L332.904 54.6723L326.622 53.7277L326.325 55.7054ZM316.571 71.8353L327.312 55.2604L325.634 54.1727L314.892 70.7477L316.571 71.8353ZM322.505 88.542L316.681 70.9768L314.782 71.6062L320.606 89.1714L322.505 88.542ZM317.263 98.9946L322.437 89.3286L320.674 88.3847L315.5 98.0508L317.263 98.9946ZM310.272 97.5718L316.07 99.4729L316.693 97.5725L310.895 95.6714L310.272 97.5718ZM302.551 69.2248L309.615 96.8692L311.553 96.374L304.488 68.7296L302.551 69.2248ZM312.946 56.0261L302.749 68.3394L304.29 69.615L314.486 57.3017L312.946 56.0261ZM327.488 49.4464L313.31 55.7502L314.122 57.5777L328.3 51.2739L327.488 49.4464ZM325.49 47.5486L326.987 50.7805L328.801 49.9399L327.304 46.708L325.49 47.5486ZM311.726 51.6884L326.631 48.1005L326.163 46.1561L311.258 49.744L311.726 51.6884ZM299.924 41.1108L310.803 51.4414L312.18 49.991L301.301 39.6604L299.924 41.1108ZM289.059 52.7977L301.303 41.1089L299.922 39.6623L287.678 51.3511L289.059 52.7977ZM274.266 52.6075L288.335 53.0739L288.401 51.075L274.332 50.6086L274.266 52.6075ZM288.782 37.9634L273.651 50.8467L274.948 52.3695L290.079 39.4862L288.782 37.9634ZM274.39 39.7933L289.435 39.7248L289.426 37.7248L274.381 37.7933L274.39 39.7933ZM246.938 32.5811L274.13 39.7601L274.64 37.8264L247.449 30.6474L246.938 32.5811ZM214.094 35.9238L247.293 32.6093L247.094 30.6192L213.896 33.9337L214.094 35.9238ZM139.802 32.5388L213.949 35.9277L214.041 33.9298L139.894 30.5409L139.802 32.5388ZM60.8652 15.7857L139.64 32.518L140.056 30.5617L61.2807 13.8294L60.8652 15.7857ZM64.0932 23.1814L62.0458 14.5761L60.1001 15.039L62.1475 23.6443L64.0932 23.1814ZM60.1563 33.3964L64.0472 23.7882L62.1934 23.0375L58.3025 32.6457L60.1563 33.3964ZM54.5328 32.0206L58.8219 33.9343L59.6369 32.1079L55.3477 30.1941L54.5328 32.0206ZM55.6923 24.2777L53.9728 30.8544L55.9077 31.3603L57.6273 24.7836L55.6923 24.2777ZM17.4572 214.391L36.9568 205.438L36.1223 203.62L16.6227 212.573L17.4572 214.391ZM25.5354 220.409L17.7399 212.768L16.3399 214.196L24.1354 221.837L25.5354 220.409ZM20.1321 225.63L25.4082 221.943L24.2625 220.303L18.9864 223.99L20.1321 225.63ZM12.3677 222.748L19.1577 225.726L19.9608 223.894L13.1709 220.917L12.3677 222.748ZM9.51617 226.961L13.514 222.5L12.0245 221.165L8.02669 225.626L9.51617 226.961ZM13.2471 229.748L9.51276 225.623L8.03011 226.965L11.7644 231.09L13.2471 229.748ZM19.9203 229.953L12.578 229.421L12.4335 231.416L19.7757 231.948L19.9203 229.953ZM18.2504 236.735L20.7541 231.374L18.9419 230.528L16.4383 235.889L18.2504 236.735ZM7.55193 238.852L17.4985 237.3L17.1902 235.324L7.24371 236.876L7.55193 238.852ZM2.82956 246.441L8.22738 238.422L6.56826 237.305L1.17044 245.324L2.82956 246.441ZM19.6589 260.267L2.665 245.136L1.335 246.629L18.3289 261.761L19.6589 260.267ZM3.03121 266.603L19.268 261.976L18.7199 260.052L2.48304 264.68L3.03121 266.603ZM3.39428 268.441L3.74843 265.773L1.76582 265.51L1.41167 268.178L3.39428 268.441ZM17.5005 267.572L2.42037 267.31L2.38558 269.31L17.4657 269.572L17.5005 267.572ZM28.9377 259.35L16.9104 267.752L18.0558 269.392L30.0831 260.99L28.9377 259.35ZM33.4831 255.305L28.8464 259.422L30.1744 260.918L34.8111 256.8L33.4831 255.305ZM41.0555 253.252L33.899 255.084L34.3951 257.021L41.5515 255.189L41.0555 253.252ZM42.0197 249.676L40.3732 253.854L42.2338 254.587L43.8804 250.41L42.0197 249.676ZM47.9436 249.538L43.0497 249.048L42.8505 251.038L47.7443 251.528L47.9436 249.538ZM54.735 254.916L48.4799 249.761L47.208 251.304L53.463 256.459L54.735 254.916ZM58.5533 253.662L53.8798 254.712L54.3183 256.663L58.9918 255.613L58.5533 253.662ZM83.6973 275.526L59.4382 253.891L58.107 255.384L82.3661 277.018L83.6973 275.526ZM86.0977 269.703L82.1926 275.728L83.8709 276.816L87.776 270.791L86.0977 269.703ZM67.7631 255.126L86.2859 271.007L87.5877 269.488L69.0649 253.608L67.7631 255.126ZM56.6155 247.149L67.8319 255.18L68.9962 253.554L57.7798 245.523L56.6155 247.149ZM57.2153 209.971L56.198 246.308L58.1972 246.364L59.2145 210.027L57.2153 209.971ZM47.4689 210.586L58.1764 210.998L58.2535 209L47.546 208.587L47.4689 210.586ZM36.1209 205.437L47.0887 210.494L47.9262 208.678L36.9583 203.621L36.1209 205.437ZM123.91 257.474L118.589 258.408L118.935 260.378L124.256 259.444L123.91 257.474ZM126.027 265.585L125.074 258.328L123.091 258.589L124.044 265.846L126.027 265.585ZM115.877 265.915L124.948 266.712L125.123 264.719L116.052 263.922L115.877 265.915ZM117.87 258.941L115.073 264.467L116.857 265.37L119.655 259.844L117.87 258.941ZM138.996 263.617L146.92 271.603L148.339 270.194L140.415 262.208L138.996 263.617ZM137.238 268.254L140.529 263.48L138.882 262.345L135.591 267.119L137.238 268.254ZM142.302 273.507L137.198 267.066L135.631 268.308L140.735 274.749L142.302 273.507ZM147.162 270.014L141.051 273.244L141.986 275.012L148.097 271.783L147.162 270.014ZM157.982 268.393L149.302 271.191L149.915 273.094L158.596 270.297L157.982 268.393ZM170.131 276.26L158.855 268.52L157.723 270.169L168.999 277.909L170.131 276.26ZM158.494 283.282L169.983 277.992L169.147 276.176L157.657 281.466L158.494 283.282ZM148.838 272.78L157.305 283.011L158.846 281.736L150.379 271.505L148.838 272.78ZM169.044 282.733L185.372 292.675L186.412 290.967L170.084 281.025L169.044 282.733ZM171.784 300.436L170.562 281.814L168.566 281.945L169.788 300.566L171.784 300.436ZM176.957 301.031L171.031 299.532L170.54 301.47L176.466 302.97L176.957 301.031ZM185.149 291.151L175.969 301.331L177.454 302.67L186.634 292.49L185.149 291.151Z" fill="#5D81FF"/>
</svg>
