<svg width="41" height="40" viewBox="0 0 41 40" fill="none" xmlns="http://www.w3.org/2000/svg">
<path d="M10.9492 3.73438L10.9642 2.48438L12.2142 2.49938L12.1992 3.74938L10.9492 3.73438Z" fill="#363636" fill-opacity="0.5"/>
<path d="M8.4502 3.73438L8.4652 2.48438L9.7152 2.49938L9.7002 3.74938L8.4502 3.73438Z" fill="#363636" fill-opacity="0.5"/>
<path d="M9.69922 2.48438L9.71422 1.23438L10.9642 1.24937L10.9492 2.49937L9.69922 2.48438Z" fill="#363636" fill-opacity="0.5"/>
<path d="M9.69922 4.98438L9.71422 3.73438L10.9642 3.74938L10.9492 4.99938L9.69922 4.98438Z" fill="#363636" fill-opacity="0.5"/>
<path d="M28.4541 2.49219L29.7041 2.47594L29.7204 3.72594L28.4704 3.74219L28.4541 2.49219Z" fill="#363636" fill-opacity="0.5"/>
<path d="M30.9531 2.50781L32.2031 2.49281L32.2181 3.74281L30.9681 3.75781L30.9531 2.50781Z" fill="#363636" fill-opacity="0.5"/>
<path d="M29.7041 1.24219L30.9541 1.22594L30.9704 2.47594L29.7204 2.49219L29.7041 1.24219Z" fill="#363636" fill-opacity="0.5"/>
<path d="M29.7041 3.74219L30.9541 3.72594L30.9704 4.97594L29.7204 4.99219L29.7041 3.74219Z" fill="#363636" fill-opacity="0.5"/>
<path d="M39.0838 26.875V17.5C39.0841 17.4295 39.0714 17.3596 39.0463 17.2938L35.5901 7.50001C35.4608 7.13428 35.2212 6.81767 34.9044 6.59379C34.5877 6.36992 34.2092 6.2498 33.8213 6.25001H33.2526C32.9614 6.24923 32.674 6.31665 32.4135 6.44689C32.1531 6.57713 31.9267 6.76656 31.7526 7.00001C31.5781 7.23415 31.4602 7.50555 31.4081 7.7929C31.3561 8.08026 31.3713 8.37577 31.4526 8.65626L34.0838 17.5875V22.3375L32.2088 25.7125V20.625C32.2074 20.1282 32.0093 19.6521 31.658 19.3008C31.3067 18.9495 30.8307 18.7515 30.3338 18.75H30.0213C29.6168 18.7511 29.2234 18.8824 28.8992 19.1244C28.5751 19.3664 28.3374 19.7062 28.2213 20.0938L25.3588 29.825C25.3409 29.8816 25.3325 29.9407 25.3338 30V33.75H24.0838C23.9351 33.7496 23.7911 33.8022 23.6777 33.8984C23.5643 33.9947 23.4889 34.1282 23.4651 34.275L22.8401 38.025C22.8256 38.1145 22.8307 38.2061 22.8552 38.2935C22.8796 38.3808 22.9228 38.4618 22.9816 38.5307C23.0405 38.5997 23.1137 38.6551 23.1961 38.6929C23.2785 38.7308 23.3681 38.7503 23.4588 38.75H38.4588C38.5495 38.7503 38.6392 38.7308 38.7216 38.6929C38.804 38.6551 38.8772 38.5997 38.936 38.5307C38.9949 38.4618 39.0381 38.3808 39.0625 38.2935C39.087 38.2061 39.0921 38.1145 39.0776 38.025L38.4526 34.275C38.4288 34.1282 38.3534 33.9947 38.24 33.8984C38.1266 33.8022 37.9826 33.7496 37.8338 33.75H36.8276L39.0526 27.075C39.0721 27.0101 39.0826 26.9428 39.0838 26.875ZM37.3026 35L37.7213 37.5H24.1963L24.6151 35H37.3026ZM37.8338 26.775L35.5088 33.75H26.5838V30.0875L29.4213 20.45C29.4592 20.3202 29.5382 20.2061 29.6463 20.125C29.7545 20.0439 29.8861 20 30.0213 20H30.3338C30.4996 20 30.6586 20.0659 30.7758 20.1831C30.893 20.3003 30.9588 20.4592 30.9588 20.625V28.125C30.9593 28.2629 31.0052 28.3967 31.0896 28.5057C31.174 28.6147 31.2921 28.6927 31.4254 28.7277C31.5588 28.7626 31.6999 28.7525 31.8269 28.6989C31.9539 28.6453 32.0596 28.5512 32.1276 28.4313L35.2526 22.8063C35.307 22.7135 35.3351 22.6076 35.3338 22.5V17.5C35.3352 17.4407 35.3267 17.3816 35.3088 17.325L32.6526 8.30001C32.6254 8.20686 32.6203 8.10867 32.6377 8.0132C32.655 7.91774 32.6944 7.82763 32.7526 7.75001C32.8108 7.67238 32.8863 7.60938 32.9731 7.56599C33.0599 7.5226 33.1556 7.50001 33.2526 7.50001H33.8213C33.9516 7.49922 34.0789 7.53916 34.1853 7.61424C34.2918 7.68932 34.3721 7.79579 34.4151 7.91876L37.8338 17.6063V26.775Z" fill="#363636" fill-opacity="0.5"/>
<path d="M17.2026 34.275C17.1788 34.1282 17.1034 33.9947 16.99 33.8984C16.8766 33.8022 16.7326 33.7496 16.5838 33.75H15.3338V30C15.3352 29.9407 15.3267 29.8816 15.3088 29.825L12.4463 20.0938C12.3303 19.7062 12.0926 19.3664 11.7684 19.1244C11.4443 18.8824 11.0509 18.7511 10.6463 18.75H10.3338C9.83701 18.7515 9.36096 18.9495 9.00965 19.3008C8.65834 19.6521 8.46032 20.1282 8.45883 20.625V25.7125L6.58383 22.3375V17.5875L9.21508 8.65626C9.29639 8.37577 9.31162 8.08026 9.25957 7.7929C9.20752 7.50555 9.08961 7.23415 8.91508 7.00001C8.74098 6.76656 8.51462 6.57713 8.25414 6.44689C7.99366 6.31665 7.70631 6.24923 7.41508 6.25001H6.84633C6.45843 6.2498 6.08 6.36992 5.76322 6.59379C5.44644 6.81767 5.20689 7.13428 5.07758 7.50001L1.62133 17.2938C1.59629 17.3596 1.58358 17.4295 1.58383 17.5V26.875C1.58505 26.9428 1.59556 27.0101 1.61508 27.075L3.84008 33.75H2.83383C2.6851 33.7496 2.54108 33.8022 2.42767 33.8984C2.31426 33.9947 2.23888 34.1282 2.21508 34.275L1.59008 38.025C1.57557 38.1145 1.58072 38.2061 1.60516 38.2935C1.6296 38.3808 1.67276 38.4618 1.73163 38.5307C1.7905 38.5997 1.86368 38.6551 1.94608 38.6929C2.02849 38.7308 2.11815 38.7503 2.20883 38.75H17.2088C17.2995 38.7503 17.3892 38.7308 17.4716 38.6929C17.554 38.6551 17.6272 38.5997 17.686 38.5307C17.7449 38.4618 17.7881 38.3808 17.8125 38.2935C17.837 38.2061 17.8421 38.1145 17.8276 38.025L17.2026 34.275ZM2.83383 26.775V17.6063L6.25258 7.91876C6.29557 7.79579 6.3759 7.68932 6.48236 7.61424C6.58881 7.53916 6.71607 7.49922 6.84633 7.50001H7.41508C7.51211 7.50001 7.60781 7.5226 7.69459 7.56599C7.78138 7.60938 7.85687 7.67238 7.91508 7.75001C7.9733 7.82763 8.01265 7.91774 8.03 8.0132C8.04736 8.10867 8.04225 8.20686 8.01508 8.30001L5.35883 17.325C5.34093 17.3816 5.33249 17.4407 5.33383 17.5V22.5C5.33258 22.6076 5.36067 22.7135 5.41508 22.8063L8.54008 28.4313C8.60805 28.5512 8.71376 28.6453 8.84075 28.6989C8.96775 28.7525 9.10891 28.7626 9.24226 28.7277C9.37561 28.6927 9.49366 28.6147 9.57805 28.5057C9.66243 28.3967 9.70841 28.2629 9.70883 28.125V20.625C9.70883 20.4592 9.77468 20.3003 9.89189 20.1831C10.0091 20.0659 10.1681 20 10.3338 20H10.6463C10.7816 20 10.9131 20.0439 11.0213 20.125C11.1295 20.2061 11.2085 20.3202 11.2463 20.45L14.0838 30.0875V33.75H5.15883L2.83383 26.775ZM2.94633 37.5L3.36508 35H16.0526L16.4713 37.5H2.94633Z" fill="#363636" fill-opacity="0.5"/>
<path d="M27.2085 14.3754C27.2054 12.9928 26.7866 11.6431 26.0064 10.5017C25.2261 9.36038 24.1206 8.48011 22.8335 7.97536V5.62536H24.7085C24.8402 5.62452 24.9683 5.58207 25.0745 5.50408C25.1806 5.4261 25.2594 5.31655 25.2996 5.1911C25.3398 5.06565 25.3394 4.9307 25.2983 4.80553C25.2572 4.68036 25.1777 4.57136 25.071 4.49411L20.696 1.36911C20.5904 1.29295 20.4636 1.25195 20.3335 1.25195C20.2033 1.25195 20.0765 1.29295 19.971 1.36911L15.596 4.49411C15.4892 4.57136 15.4097 4.68036 15.3686 4.80553C15.3275 4.9307 15.3271 5.06565 15.3673 5.1911C15.4075 5.31655 15.4863 5.4261 15.5925 5.50408C15.6986 5.58207 15.8267 5.62452 15.9585 5.62536H17.8335V7.97536C16.5989 8.45614 15.5297 9.28377 14.7549 10.3585C13.98 11.4332 13.5326 12.7091 13.4666 14.0323C13.4005 15.3556 13.7186 16.6697 14.3825 17.8162C15.0465 18.9628 16.0279 19.8928 17.2085 20.4941V23.1254C17.0427 23.1254 16.8837 23.1912 16.7665 23.3084C16.6493 23.4256 16.5835 23.5846 16.5835 23.7504V27.5004C16.5849 27.9972 16.783 28.4732 17.1343 28.8245C17.4856 29.1759 17.9616 29.3739 18.4585 29.3754H22.2085C22.7053 29.3739 23.1813 29.1759 23.5326 28.8245C23.884 28.4732 24.082 27.9972 24.0835 27.5004V23.7504C24.0835 23.5846 24.0176 23.4256 23.9004 23.3084C23.7832 23.1912 23.6242 23.1254 23.4585 23.1254V20.4941C24.5872 19.9195 25.535 19.0438 26.1968 17.9639C26.8587 16.884 27.2088 15.642 27.2085 14.3754ZM20.3335 2.64411L22.7585 4.37536H22.2085C22.0427 4.37536 21.8837 4.44121 21.7665 4.55842C21.6493 4.67563 21.5835 4.8346 21.5835 5.00036V7.61911C20.7576 7.46078 19.9093 7.46078 19.0835 7.61911V5.00036C19.0835 4.8346 19.0176 4.67563 18.9004 4.55842C18.7832 4.44121 18.6242 4.37536 18.4585 4.37536H17.9085L20.3335 2.64411ZM22.8335 27.5004C22.8335 27.6661 22.7676 27.8251 22.6504 27.9423C22.5332 28.0595 22.3742 28.1254 22.2085 28.1254H18.4585C18.2927 28.1254 18.1337 28.0595 18.0165 27.9423C17.8993 27.8251 17.8335 27.6661 17.8335 27.5004V26.8754H22.8335V27.5004ZM22.8335 25.6254H17.8335V24.3754H22.8335V25.6254ZM22.5835 19.5316C22.4726 19.58 22.3782 19.6595 22.3117 19.7604C22.2451 19.8614 22.2092 19.9794 22.2085 20.1004V23.1254H20.9585V15.0004H23.4585V13.7504H17.2085V15.0004H19.7085V23.1254H18.4585V20.1004C18.4577 19.9794 18.4218 19.8614 18.3553 19.7604C18.2887 19.6595 18.1943 19.58 18.0835 19.5316C16.8991 19.0147 15.9288 18.1057 15.3357 16.9575C14.7427 15.8094 14.5631 14.492 14.8271 13.227C15.0911 11.9619 15.7827 10.8264 16.7855 10.0113C17.7883 9.19618 19.0412 8.75122 20.3335 8.75122C21.6257 8.75122 22.8786 9.19618 23.8814 10.0113C24.8842 10.8264 25.5758 11.9619 25.8398 13.227C26.1038 14.492 25.9242 15.8094 25.3312 16.9575C24.7382 18.1057 23.7679 19.0147 22.5835 19.5316Z" fill="#363636" fill-opacity="0.5"/>
</svg>
