<svg width="41" height="40" viewBox="0 0 41 40" fill="none" xmlns="http://www.w3.org/2000/svg">
<path d="M1.70905 31.6251L3.36738 33.8361L1.63459 37.8787C1.52961 38.1241 1.59125 38.4088 1.78901 38.588C1.9068 38.6948 2.05756 38.75 2.20893 38.75C2.31208 38.75 2.41583 38.7247 2.50983 38.6725L15.0098 31.7975C15.21 31.6879 15.3339 31.478 15.3339 31.25C15.3339 31.022 15.21 30.8121 15.0098 30.7025L2.50983 23.8275C2.2779 23.699 1.98676 23.7323 1.78901 23.9121C1.59125 24.0912 1.52961 24.3759 1.63459 24.6213L3.36738 28.664L1.70905 30.875C1.54242 31.0971 1.54242 31.4029 1.70905 31.6251ZM4.53395 34.2864L10.4013 32.9059L3.4986 36.7023L4.53395 34.2864ZM10.4013 29.5942L4.53395 28.2136L3.4986 25.7977L10.4013 29.5942ZM4.33848 29.4522L11.9793 31.25L4.33848 33.0478L2.99018 31.25L4.33848 29.4522Z" fill="#363636" fill-opacity="0.5"/>
<path d="M29.084 1.25C23.781 1.25 19.4409 5.40256 19.1156 10.625H17.4678L15.7759 8.93311L14.8921 9.81689L15.7002 10.625H13.1465C9.52771 10.625 6.58398 13.569 6.58398 17.1875C6.58398 20.806 9.52771 23.75 13.1465 23.75H20.0752L21.7671 25.4419L22.6509 24.5581L21.8428 23.75H33.7715C35.6666 23.75 37.209 25.2921 37.209 27.1875C37.209 29.0829 35.6666 30.625 33.7715 30.625H28.0928L26.4009 28.9331L25.5171 29.8169L26.3252 30.625H16.584V31.875H26.3252L25.5171 32.6831L26.4009 33.5669L28.0928 31.875H33.7715C36.3563 31.875 38.459 29.7723 38.459 27.1875C38.459 24.6027 36.3563 22.5 33.7715 22.5H21.8428L22.6509 21.6919L21.7671 20.8081L20.0752 22.5H13.1465C10.2174 22.5 7.83398 20.1169 7.83398 17.1875C7.83398 14.2581 10.2174 11.875 13.1465 11.875H15.7002L14.8921 12.6831L15.7759 13.5669L17.4678 11.875H19.1156C19.4409 17.0974 23.781 21.25 29.084 21.25C34.5979 21.25 39.084 16.7639 39.084 11.25C39.084 5.73608 34.5979 1.25 29.084 1.25ZM29.084 20C24.4701 20 20.6883 16.4081 20.3656 11.875H22.2406C22.5578 15.3737 25.504 18.125 29.084 18.125C32.8749 18.125 35.959 15.0409 35.959 11.25C35.959 7.45911 32.8749 4.375 29.084 4.375C25.504 4.375 22.5578 7.12631 22.2406 10.625H20.3656C20.6883 6.09192 24.4701 2.5 29.084 2.5C33.9088 2.5 37.834 6.42517 37.834 11.25C37.834 16.0748 33.9088 20 29.084 20ZM27.6509 13.5669L29.5259 11.6919C29.77 11.4478 29.77 11.0522 29.5259 10.8081L27.6509 8.93311L26.7671 9.81689L27.5752 10.625H23.4959C23.808 7.81689 26.1937 5.625 29.084 5.625C32.1858 5.625 34.709 8.1485 34.709 11.25C34.709 14.3515 32.1858 16.875 29.084 16.875C26.1937 16.875 23.808 14.6831 23.4959 11.875H27.5752L26.7671 12.6831L27.6509 13.5669Z" fill="#363636" fill-opacity="0.5"/>
<path d="M32.834 11.25C32.834 9.18213 31.1519 7.5 29.084 7.5V8.75C30.4628 8.75 31.584 9.87152 31.584 11.25C31.584 12.6285 30.4628 13.75 29.084 13.75V15C31.1519 15 32.834 13.3179 32.834 11.25Z" fill="#363636" fill-opacity="0.5"/>
</svg>
