<svg width="68" height="60" viewBox="0 0 68 60" fill="none" xmlns="http://www.w3.org/2000/svg">
<g clip-path="url(#clip0_1716_31671)">
<path d="M23.13 35.7753L18.2746 37.8749L22.7713 39.8108L27.9854 37.8749L23.13 35.7753ZM15.8301 38.3998L15.6674 47.8479L22.7712 50.9973V41.1881L15.8301 38.3998ZM30.4298 38.3998L24.0101 40.8605V50.1114L30.4298 47.4869V38.3998ZM38.0884 9.00562L33.1996 11.1052L37.7296 13.0411L42.9438 11.1052L38.0884 9.00562ZM31.31 11.795V21.2431L37.3709 23.0151L37.567 14.4194L31.31 11.795ZM44.8668 12.3198L39.1313 14.7805V24.0649L44.8669 21.4405V12.3198H44.8668ZM15.1293 22.3034L10.2739 24.403L14.7706 26.3388L19.9848 24.403L15.1293 22.3034ZM7.82951 24.9278L7.66682 34.376L14.7706 37.5254V27.7161L7.82951 24.9278ZM22.4292 24.9278L16.0095 27.3885V36.6393L22.4292 34.0149V24.9278ZM30.7719 21.9548L25.9164 24.0544L30.4132 25.9902L35.6273 24.0544L30.7719 21.9548ZM23.472 24.5793L23.3093 34.0275L30.4131 37.1768V27.3686L23.472 24.5793ZM38.0717 24.5793L31.652 27.04V36.2908L38.0717 33.6663V24.5793ZM53.367 9.00562L48.5116 11.1052L53.0083 13.041L58.2224 11.1052L53.367 9.00562ZM46.0671 11.6301L45.9045 21.0782L53.0083 24.2276V14.4194L46.0671 11.6301ZM60.6668 11.6301L54.2471 14.0908V23.3416L60.6668 20.7171V11.6301Z" fill="#F7A80D"/>
</g>
<defs>
<clipPath id="clip0_1716_31671">
<rect width="53" height="42" fill="white" transform="translate(7.66664 9)"/>
</clipPath>
</defs>
</svg>
