<svg width="37" height="35" viewBox="0 0 37 35" fill="none" xmlns="http://www.w3.org/2000/svg">
<path d="M18.5625 16.1875V1.37891C18.5625 0.78125 18.9609 0.25 19.625 0.25C27.793 0.25 34.5 6.95703 34.5 15.125C34.5 15.7227 33.9688 16.1875 33.3711 16.1875H18.5625ZM31.1133 13C30.1836 8.28516 26.4648 4.56641 21.75 3.63672V13H31.1133ZM15.375 3.57031V19.375L25.7344 29.8008C26.1992 30.2656 26.1328 30.9961 25.668 31.3281C23.0117 33.1875 19.8242 34.25 16.4375 34.25C7.60547 34.25 0.5 27.1445 0.5 18.3125C0.5 10.2773 6.47656 3.63672 14.1797 2.57422C14.8438 2.44141 15.375 2.97266 15.375 3.57031ZM12.1875 20.7031V6.29297C7.20703 8.08594 3.6875 12.8008 3.6875 18.3125C3.6875 25.3516 9.33203 31.0625 16.4375 31.0625C18.2305 31.0625 19.8906 30.7305 21.4844 30.0664L12.1875 20.7031ZM35.4297 19.375C36.0273 19.375 36.5586 19.9062 36.4258 20.5039C35.9609 24.2227 34.168 27.543 31.5117 30C31.1133 30.332 30.5156 30.332 30.1172 29.9336L19.625 19.375H35.4297Z" fill="#ACAEB0"/>
</svg>
