<svg width="15" height="17" viewBox="0 0 15 17" fill="none" xmlns="http://www.w3.org/2000/svg">
<path d="M14.5 11.8804V1.38037C14.5 0.974121 14.1562 0.630371 13.75 0.630371H3.5C1.84375 0.630371 0.5 1.97412 0.5 3.63037V13.6304C0.5 15.2866 1.84375 16.6304 3.5 16.6304H13.75C14.1562 16.6304 14.5 16.3179 14.5 15.8804V15.3804C14.5 15.1616 14.375 14.9429 14.2188 14.8179C14.0625 14.3179 14.0625 12.9429 14.2188 12.4741C14.375 12.3491 14.5 12.1304 14.5 11.8804ZM4.5 4.81787C4.5 4.72412 4.5625 4.63037 4.6875 4.63037H11.3125C11.4062 4.63037 11.5 4.72412 11.5 4.81787V5.44287C11.5 5.56787 11.4062 5.63037 11.3125 5.63037H4.6875C4.5625 5.63037 4.5 5.56787 4.5 5.44287V4.81787ZM4.5 6.81787C4.5 6.72412 4.5625 6.63037 4.6875 6.63037H11.3125C11.4062 6.63037 11.5 6.72412 11.5 6.81787V7.44287C11.5 7.56787 11.4062 7.63037 11.3125 7.63037H4.6875C4.5625 7.63037 4.5 7.56787 4.5 7.44287V6.81787ZM12.4062 14.6304H3.5C2.9375 14.6304 2.5 14.1929 2.5 13.6304C2.5 13.0991 2.9375 12.6304 3.5 12.6304H12.4062C12.3438 13.1929 12.3438 14.0991 12.4062 14.6304Z" fill="white"/>
</svg>
