<svg width="117" height="43" viewBox="0 0 117 43" fill="none" xmlns="http://www.w3.org/2000/svg">
<path d="M0.111328 24.3515V2.82871H4.72336V20.2007H14.4701V24.3515H0.111328Z" fill="#E1E5ED"/>
<path d="M18.5116 24.3515V8.08642H22.8777V24.3515H18.5116ZM20.6639 4.73502C19.8235 4.73502 19.1676 4.53004 18.6961 4.12008C18.2247 3.71012 17.9889 3.12593 17.9889 2.36751C17.9889 1.67058 18.2247 1.10689 18.6961 0.676431C19.1881 0.225477 19.844 0 20.6639 0C21.5043 0 22.1603 0.215228 22.6317 0.645685C23.1032 1.05564 23.3389 1.62958 23.3389 2.36751C23.3389 3.08494 23.0929 3.65888 22.601 4.08933C22.1295 4.51979 21.4838 4.73502 20.6639 4.73502Z" fill="#E1E5ED"/>
<path d="M27.5101 24.3515V8.08642H31.7224L31.8147 11.1919L31.169 11.3148C31.3945 10.7819 31.6917 10.3002 32.0607 9.86974C32.4296 9.43928 32.8601 9.07032 33.352 8.76285C33.8645 8.45538 34.3974 8.21966 34.9509 8.05567C35.5043 7.87119 36.0578 7.77895 36.6112 7.77895C37.4516 7.77895 38.21 7.91219 38.8865 8.17866C39.5629 8.44514 40.1368 8.86534 40.6083 9.43928C41.0797 9.99273 41.4487 10.7307 41.7152 11.6531L41.0387 11.5916L41.254 11.0996C41.5204 10.6077 41.8587 10.167 42.2686 9.7775C42.6786 9.36754 43.1398 9.01908 43.6522 8.73211C44.1647 8.42464 44.6976 8.18891 45.2511 8.02493C45.8045 7.86095 46.3477 7.77895 46.8807 7.77895C48.1515 7.77895 49.2072 8.03518 50.0476 8.54763C50.888 9.03958 51.5132 9.78775 51.9231 10.7921C52.3536 11.7965 52.5688 13.0264 52.5688 14.4818V24.3515H48.2028V14.7892C48.2028 14.0513 48.1003 13.4466 47.8953 12.9752C47.6903 12.5037 47.3931 12.1553 47.0036 11.9298C46.6142 11.6838 46.112 11.5608 45.497 11.5608C45.0256 11.5608 44.5849 11.6428 44.1749 11.8068C43.7855 11.9503 43.437 12.1655 43.1295 12.4525C42.8426 12.7189 42.6171 13.0367 42.4531 13.4056C42.2891 13.7746 42.2071 14.1845 42.2071 14.6355V24.3515H37.8411V14.7585C37.8411 14.0821 37.7283 13.5081 37.5029 13.0367C37.2979 12.5447 37.0007 12.1758 36.6112 11.9298C36.2217 11.6838 35.74 11.5608 35.1661 11.5608C34.6946 11.5608 34.2539 11.6428 33.844 11.8068C33.4545 11.9503 33.1163 12.1655 32.8293 12.4525C32.5424 12.7189 32.3066 13.0367 32.1222 13.4056C31.9582 13.7746 31.8762 14.1743 31.8762 14.6048V24.3515H27.5101Z" fill="#E1E5ED"/>
<path d="M80.338 24.659C79.1492 24.659 78.1243 24.4028 77.2633 23.8903C76.4229 23.3574 75.767 22.6092 75.2955 21.6458C74.8446 20.6619 74.6191 19.4833 74.6191 18.1099V8.08642H78.9852V17.4027C78.9852 18.1406 79.1082 18.7863 79.3541 19.3398C79.6001 19.8727 79.9486 20.2827 80.3995 20.5696C80.8505 20.8566 81.4039 21.0001 82.0599 21.0001C82.5313 21.0001 82.972 20.9284 83.382 20.7849C83.7919 20.6209 84.1404 20.3954 84.4274 20.1084C84.7143 19.8215 84.9398 19.4833 85.1038 19.0938C85.2678 18.7043 85.3498 18.2841 85.3498 17.8332V8.08642H89.7158V24.3515H85.565L85.4113 21.0001L86.2107 20.6311C85.9647 21.3896 85.5547 22.0762 84.9808 22.6912C84.4069 23.3061 83.7202 23.7878 82.9208 24.1363C82.1213 24.4847 81.2604 24.659 80.338 24.659Z" fill="#E1E5ED"/>
<path d="M94.109 31.1158V8.08642H98.3213L98.4443 11.7453L97.6449 11.4686C97.7884 10.8126 98.1369 10.208 98.6903 9.65451C99.2642 9.10107 99.9714 8.65012 100.812 8.30165C101.652 7.95319 102.534 7.77895 103.456 7.77895C104.87 7.77895 106.121 8.14792 107.207 8.88584C108.314 9.60327 109.185 10.5974 109.821 11.8683C110.477 13.1187 110.805 14.5638 110.805 16.2036C110.805 17.8229 110.487 19.268 109.851 20.5389C109.216 21.8098 108.345 22.8142 107.238 23.5521C106.131 24.2695 104.87 24.6282 103.456 24.6282C102.513 24.6282 101.611 24.454 100.75 24.1055C99.9099 23.7366 99.1925 23.2549 98.5981 22.6604C98.0036 22.066 97.6347 21.4306 97.4912 20.7541L98.5058 20.3237V31.1158H94.109ZM102.472 20.8771C103.272 20.8771 103.979 20.6824 104.594 20.2929C105.209 19.9035 105.69 19.3603 106.039 18.6633C106.387 17.9459 106.561 17.126 106.561 16.2036C106.561 15.2812 106.387 14.4715 106.039 13.7746C105.69 13.0777 105.209 12.5345 104.594 12.145C103.999 11.7555 103.292 11.5608 102.472 11.5608C101.652 11.5608 100.935 11.7555 100.32 12.145C99.7049 12.514 99.2232 13.0572 98.8748 13.7746C98.5263 14.4715 98.3521 15.2812 98.3521 16.2036C98.3521 17.126 98.5263 17.9459 98.8748 18.6633C99.2232 19.3603 99.7049 19.9035 100.32 20.2929C100.935 20.6824 101.652 20.8771 102.472 20.8771Z" fill="#E1E5ED"/>
<path fill-rule="evenodd" clip-rule="evenodd" d="M59.8318 23.5828C61.1437 24.3003 62.681 24.659 64.4438 24.659C65.1817 24.659 65.9299 24.5667 66.6883 24.3823C67.4468 24.1978 68.1847 23.9313 68.9021 23.5828C69.6195 23.2139 70.2755 22.7629 70.8699 22.23L68.7791 19.309C68.1027 19.8625 67.4673 20.2519 66.8728 20.4774C66.2784 20.7029 65.6225 20.8156 64.905 20.8156C63.8596 20.8156 62.9475 20.6209 62.1686 20.2314C61.4101 19.8215 60.8157 19.2578 60.3852 18.5404H55.9076C56.0918 19.2867 56.375 19.9837 56.7571 20.6311C57.495 21.8815 58.5199 22.8654 59.8318 23.5828ZM55.6865 17.1875C55.6623 16.9066 55.6502 16.6196 55.6502 16.3266C55.6502 15.0762 55.8552 13.9283 56.2652 12.8829C56.6751 11.8375 57.2491 10.9356 57.987 10.1772C58.7249 9.39829 59.5961 8.80385 60.6005 8.39389C61.6254 7.96343 62.7323 7.74821 63.9211 7.74821C65.028 7.74821 66.0529 7.95319 66.9958 8.36314C67.9387 8.7526 68.7484 9.3163 69.4248 10.0542C70.1217 10.7716 70.6547 11.6223 71.0237 12.6062C71.3926 13.5901 71.5566 14.6662 71.5156 15.8346L71.4849 17.1875H59.8848H58.4174H55.6865ZM59.9228 14.5125C60.0038 14.1564 60.1169 13.8284 60.2623 13.5286C60.5902 12.8522 61.0617 12.3397 61.6766 11.9913C62.312 11.6428 63.0807 11.4686 63.9826 11.4686C64.5976 11.4686 65.151 11.5916 65.643 11.8375C66.1349 12.0835 66.5346 12.432 66.8421 12.8829C67.17 13.3339 67.3545 13.8361 67.3955 14.3895V14.5125H59.9228Z" fill="#E1E5ED"/>
<path d="M113.981 24.7117C113.282 24.7117 112.744 24.5239 112.367 24.1482C111.991 23.7725 111.803 23.2346 111.803 22.5344C111.803 21.9026 112 21.3903 112.394 20.9976C112.807 20.5877 113.335 20.3828 113.981 20.3828C114.662 20.3828 115.191 20.5707 115.567 20.9463C115.943 21.322 116.132 21.8514 116.132 22.5344C116.132 23.1834 115.934 23.7127 115.54 24.1226C115.146 24.5153 114.626 24.7117 113.981 24.7117Z" fill="#B4F00A"/>
<path d="M2.82189 42.2216C1.94439 42.2216 1.25312 41.9723 0.748085 41.4735C0.249362 40.9748 0 40.252 0 39.305V35.4888H1.16474V39.2577C1.16474 39.8637 1.3131 40.3309 1.6098 40.6592C1.90651 40.9874 2.31686 41.1516 2.84083 41.1516C3.36481 41.1516 3.77199 40.9937 4.06239 40.6781C4.3591 40.3625 4.50745 39.9048 4.50745 39.305V35.4888H5.67219V39.2482C5.67219 40.2141 5.41967 40.9527 4.91464 41.4641C4.4096 41.9691 3.71202 42.2216 2.82189 42.2216Z" fill="#E1E5ED"/>
<path d="M6.80224 42.1175L9.21694 38.7463L6.89693 35.4888H8.27L9.91768 37.8657L11.5748 35.4888H12.91L10.5995 38.7274L13.0047 42.1175H11.6316L9.88927 39.6081L8.13743 42.1175H6.80224Z" fill="#E1E5ED"/>
<path d="M21.7007 42.25L20.82 41.3504C20.2014 41.9249 19.5227 42.2121 18.7841 42.2121C18.1591 42.2121 17.6415 42.0385 17.2311 41.6913C16.8271 41.3378 16.6251 40.8738 16.6251 40.2993C16.6251 39.466 17.0954 38.8473 18.036 38.4433C17.6699 37.9762 17.4868 37.509 17.4868 37.0418C17.4868 36.581 17.6604 36.1896 18.0076 35.8676C18.3548 35.5394 18.8157 35.3752 19.3901 35.3752C19.9078 35.3752 20.3308 35.5299 20.6591 35.8392C20.9873 36.1486 21.1515 36.5336 21.1515 36.9945C21.1515 37.7773 20.6654 38.3518 19.6932 38.7179L20.8295 39.8732C21.0694 39.5134 21.3061 39.0872 21.5397 38.5948L22.4204 39.0588C22.1173 39.6649 21.8175 40.1699 21.5208 40.5739L22.5624 41.6345L21.7007 42.25ZM19.0777 38.0929C19.4312 37.9667 19.6932 37.8215 19.8636 37.6573C20.0341 37.4869 20.1193 37.2817 20.1193 37.0418C20.1193 36.8209 20.0467 36.641 19.9015 36.5021C19.7626 36.3632 19.5827 36.2938 19.3617 36.2938C19.1282 36.2938 18.9388 36.3695 18.7936 36.521C18.6484 36.6725 18.5758 36.8682 18.5758 37.1081C18.5758 37.3985 18.7431 37.7268 19.0777 38.0929ZM18.9072 41.2463C19.3365 41.2463 19.7531 41.0537 20.1572 40.6686L18.6799 39.163C18.0928 39.4155 17.7993 39.788 17.7993 40.2804C17.7993 40.5582 17.9034 40.7886 18.1118 40.9717C18.3201 41.1547 18.5852 41.2463 18.9072 41.2463Z" fill="#E1E5ED"/>
<path d="M28.9268 42.2121C27.8725 42.2121 26.9508 41.8586 26.1617 41.1516L26.8624 40.3183C27.5253 40.8927 28.2229 41.18 28.9552 41.18C29.315 41.18 29.5991 41.1042 29.8074 40.9527C30.0221 40.7949 30.1294 40.5866 30.1294 40.3277C30.1294 40.0815 30.0284 39.8858 29.8264 39.7406C29.6243 39.5891 29.2266 39.4439 28.6332 39.305C27.863 39.122 27.3012 38.8915 26.9476 38.6138C26.6004 38.3297 26.4268 37.8972 26.4268 37.3165C26.4268 36.7483 26.6383 36.2874 27.0613 35.9339C27.4842 35.5741 28.0272 35.3942 28.69 35.3942C29.5991 35.3942 30.4008 35.6719 31.0953 36.2275L30.4703 37.1081C29.8579 36.6536 29.2582 36.4263 28.6711 36.4263C28.3365 36.4263 28.0713 36.5021 27.8756 36.6536C27.6863 36.8051 27.5916 36.9976 27.5916 37.2312C27.5916 37.4901 27.6957 37.6921 27.9041 37.8373C28.1187 37.9762 28.5385 38.1214 29.1635 38.2729C29.8958 38.4496 30.4324 38.6864 30.7733 38.9831C31.1205 39.2798 31.2941 39.6964 31.2941 40.233C31.2941 40.8454 31.0763 41.3283 30.6407 41.6819C30.2051 42.0354 29.6338 42.2121 28.9268 42.2121Z" fill="#E1E5ED"/>
<path d="M34.9413 42.2311C34.1837 42.2311 33.5524 41.9786 33.0474 41.4735C32.5423 40.9685 32.2898 40.353 32.2898 39.627C32.2898 38.901 32.5455 38.2855 33.0568 37.7805C33.5682 37.2691 34.2026 37.0134 34.9602 37.0134C35.7177 37.0134 36.349 37.2659 36.8541 37.771C37.3654 38.276 37.6211 38.8947 37.6211 39.627C37.6211 40.3467 37.3654 40.9622 36.8541 41.4735C36.3427 41.9786 35.7051 42.2311 34.9413 42.2311ZM34.9602 41.2368C35.4147 41.2368 35.7809 41.0821 36.0586 40.7728C36.3364 40.4635 36.4753 40.0815 36.4753 39.627C36.4753 39.1788 36.3301 38.8 36.0397 38.4907C35.7493 38.175 35.3832 38.0172 34.9413 38.0172C34.493 38.0172 34.13 38.1719 33.8523 38.4812C33.5745 38.7905 33.4356 39.1725 33.4356 39.627C33.4356 40.0689 33.5808 40.4477 33.8712 40.7633C34.1616 41.079 34.5246 41.2368 34.9602 41.2368Z" fill="#E1E5ED"/>
<path d="M39.0768 42.1175V38.1024H38.4424V37.146H39.0768V36.7862C39.0768 36.2306 39.2125 35.8171 39.484 35.5457C39.7491 35.2805 40.1248 35.1479 40.6109 35.1479C40.9328 35.1479 41.2422 35.1921 41.5389 35.2805V36.2464C41.2927 36.1643 41.0685 36.1233 40.8665 36.1233C40.4246 36.1233 40.2037 36.3758 40.2037 36.8809V37.1555H41.5294V38.1024H40.2226V42.1175H39.0768Z" fill="#E1E5ED"/>
<path d="M44.0907 42.2027C43.1311 42.2027 42.6513 41.7134 42.6513 40.7349V38.1024H42.0168V37.1176H42.6513V35.7445H43.7971V37.1176H45.1418V38.1024H43.7971V40.555C43.7971 40.9717 44.0023 41.18 44.4126 41.18C44.6588 41.18 44.8956 41.1232 45.1228 41.0095V41.947C44.8198 42.1175 44.4757 42.2027 44.0907 42.2027Z" fill="#E1E5ED"/>
<path d="M47.5343 42.1553L45.915 37.1176H47.0892L48.093 40.5455L49.2009 37.0987H50.1762L51.2936 40.5455L52.3163 37.1176H53.4621L51.8239 42.1553H50.8012L49.6838 38.7369L48.557 42.1553H47.5343Z" fill="#E1E5ED"/>
<path d="M58.716 42.1175H57.5797V41.5019C57.1757 41.9817 56.6359 42.2216 55.9604 42.2216C55.4617 42.2216 55.0388 42.0859 54.6915 41.8144C54.3506 41.5367 54.1802 41.1516 54.1802 40.6592C54.1802 40.1226 54.3664 39.7154 54.7389 39.4376C55.1114 39.1598 55.6006 39.0209 56.2066 39.0209C56.6927 39.0209 57.1536 39.0904 57.5892 39.2293V39.1346C57.5892 38.7874 57.4819 38.5222 57.2672 38.3391C57.0589 38.1561 56.7559 38.0645 56.3582 38.0645C55.9036 38.0645 55.427 38.1687 54.9283 38.377L54.6158 37.4585C55.2345 37.1807 55.8689 37.0418 56.5191 37.0418C57.2451 37.0418 57.7912 37.2249 58.1574 37.5911C58.5298 37.9572 58.716 38.478 58.716 39.1535V42.1175ZM57.6081 40.3088V40.0247C57.2672 39.8921 56.8853 39.8259 56.4623 39.8259C56.1025 39.8259 55.8216 39.8953 55.6195 40.0342C55.4175 40.1731 55.3165 40.3688 55.3165 40.6213C55.3165 40.8485 55.4081 41.0285 55.5911 41.161C55.7742 41.2936 56.0046 41.3599 56.2824 41.3599C56.6675 41.3599 56.9831 41.262 57.2293 41.0663C57.4819 40.8706 57.6081 40.6181 57.6081 40.3088Z" fill="#E1E5ED"/>
<path d="M60.112 42.1175V37.1176H61.2578V38.2445C61.6113 37.3922 62.2016 36.985 63.0286 37.0229V38.235H62.9623C62.4446 38.235 62.0311 38.4054 61.7218 38.7463C61.4124 39.0809 61.2578 39.5702 61.2578 40.2141V42.1175H60.112Z" fill="#E1E5ED"/>
<path d="M66.3484 42.2311C65.6161 42.2311 65.0038 41.988 64.5113 41.5019C64.0252 41.0158 63.7822 40.3877 63.7822 39.6175C63.7822 38.8915 64.0126 38.276 64.4735 37.771C64.9343 37.2659 65.5183 37.0134 66.2253 37.0134C66.9829 37.0134 67.57 37.2723 67.9866 37.7899C68.4096 38.3013 68.6211 38.9389 68.6211 39.7027C68.6211 39.8416 68.6148 39.949 68.6021 40.0247H64.928C64.9911 40.4224 65.1521 40.7349 65.4109 40.9622C65.6698 41.1831 65.9886 41.2936 66.3673 41.2936C66.8598 41.2936 67.3111 41.0948 67.7215 40.697L68.3938 41.2936C67.8761 41.9186 67.1943 42.2311 66.3484 42.2311ZM64.9185 39.2672H67.4847C67.4469 38.8821 67.3175 38.5664 67.0965 38.3202C66.8755 38.074 66.582 37.9509 66.2158 37.9509C65.8686 37.9509 65.5782 38.074 65.3447 38.3202C65.1111 38.5601 64.969 38.8758 64.9185 39.2672Z" fill="#E1E5ED"/>
<path d="M75.1296 42.2121C74.0754 42.2121 73.1537 41.8586 72.3645 41.1516L73.0653 40.3183C73.7281 40.8927 74.4257 41.18 75.158 41.18C75.5179 41.18 75.8019 41.1042 76.0103 40.9527C76.2249 40.7949 76.3322 40.5866 76.3322 40.3277C76.3322 40.0815 76.2312 39.8858 76.0292 39.7406C75.8272 39.5891 75.4295 39.4439 74.8361 39.305C74.0659 39.122 73.504 38.8915 73.1505 38.6138C72.8033 38.3297 72.6297 37.8972 72.6297 37.3165C72.6297 36.7483 72.8412 36.2874 73.2641 35.9339C73.6871 35.5741 74.23 35.3942 74.8929 35.3942C75.8019 35.3942 76.6037 35.6719 77.2981 36.2275L76.6731 37.1081C76.0608 36.6536 75.461 36.4263 74.8739 36.4263C74.5394 36.4263 74.2742 36.5021 74.0785 36.6536C73.8891 36.8051 73.7944 36.9976 73.7944 37.2312C73.7944 37.4901 73.8986 37.6921 74.1069 37.8373C74.3216 37.9762 74.7414 38.1214 75.3664 38.2729C76.0987 38.4496 76.6353 38.6864 76.9762 38.9831C77.3234 39.2798 77.497 39.6964 77.497 40.233C77.497 40.8454 77.2792 41.3283 76.8436 41.6819C76.408 42.0354 75.8367 42.2121 75.1296 42.2121Z" fill="#E1E5ED"/>
<path d="M81.1441 42.2311C80.3866 42.2311 79.7553 41.9786 79.2502 41.4735C78.7452 40.9685 78.4927 40.353 78.4927 39.627C78.4927 38.901 78.7483 38.2855 79.2597 37.7805C79.771 37.2691 80.4055 37.0134 81.163 37.0134C81.9206 37.0134 82.5519 37.2659 83.0569 37.771C83.5683 38.276 83.824 38.8947 83.824 39.627C83.824 40.3467 83.5683 40.9622 83.0569 41.4735C82.5456 41.9786 81.908 42.2311 81.1441 42.2311ZM81.163 41.2368C81.6176 41.2368 81.9837 41.0821 82.2615 40.7728C82.5393 40.4635 82.6782 40.0815 82.6782 39.627C82.6782 39.1788 82.533 38.8 82.2426 38.4907C81.9522 38.175 81.586 38.0172 81.1441 38.0172C80.6959 38.0172 80.3329 38.1719 80.0551 38.4812C79.7774 38.7905 79.6385 39.1725 79.6385 39.627C79.6385 40.0689 79.7837 40.4477 80.0741 40.7633C80.3645 41.079 80.7275 41.2368 81.163 41.2368Z" fill="#E1E5ED"/>
<path d="M85.0903 42.1175V35.2048H86.2361V42.1175H85.0903Z" fill="#E1E5ED"/>
<path d="M89.4901 42.2216C88.9345 42.2216 88.4989 42.048 88.1833 41.7008C87.8677 41.3536 87.7098 40.8864 87.7098 40.2993V37.1176H88.8556V39.9584C88.8556 40.3498 88.9472 40.6528 89.1302 40.8675C89.3196 41.0758 89.5848 41.18 89.9257 41.18C90.2603 41.18 90.5317 41.0695 90.7401 40.8485C90.9484 40.6276 91.0525 40.3246 91.0525 39.9395V37.1176H92.1983V42.1175H91.0525V41.341C90.6548 41.9281 90.134 42.2216 89.4901 42.2216Z" fill="#E1E5ED"/>
<path d="M95.348 42.2027C94.3885 42.2027 93.9087 41.7134 93.9087 40.7349V38.1024H93.2742V37.1176H93.9087V35.7445H95.0545V37.1176H96.3991V38.1024H95.0545V40.555C95.0545 40.9717 95.2597 41.18 95.67 41.18C95.9162 41.18 96.1529 41.1232 96.3802 41.0095V41.947C96.0772 42.1175 95.7331 42.2027 95.348 42.2027Z" fill="#E1E5ED"/>
<path d="M97.608 36.3506V35.2616H98.839V36.3506H97.608ZM97.6553 42.1175V37.1176H98.8011V42.1175H97.6553Z" fill="#E1E5ED"/>
<path d="M102.709 42.2311C101.951 42.2311 101.32 41.9786 100.815 41.4735C100.31 40.9685 100.057 40.353 100.057 39.627C100.057 38.901 100.313 38.2855 100.824 37.7805C101.335 37.2691 101.97 37.0134 102.727 37.0134C103.485 37.0134 104.116 37.2659 104.621 37.771C105.133 38.276 105.388 38.8947 105.388 39.627C105.388 40.3467 105.133 40.9622 104.621 41.4735C104.11 41.9786 103.472 42.2311 102.709 42.2311ZM102.727 41.2368C103.182 41.2368 103.548 41.0821 103.826 40.7728C104.104 40.4635 104.243 40.0815 104.243 39.627C104.243 39.1788 104.097 38.8 103.807 38.4907C103.517 38.175 103.15 38.0172 102.709 38.0172C102.26 38.0172 101.897 38.1719 101.62 38.4812C101.342 38.7905 101.203 39.1725 101.203 39.627C101.203 40.0689 101.348 40.4477 101.638 40.7633C101.929 41.079 102.292 41.2368 102.727 41.2368Z" fill="#E1E5ED"/>
<path d="M106.588 42.1175V37.1176H107.734V37.8941C108.132 37.307 108.653 37.0134 109.297 37.0134C109.852 37.0134 110.288 37.187 110.603 37.5342C110.919 37.8815 111.077 38.3486 111.077 38.9357V42.1175H109.931V39.2766C109.931 38.8852 109.836 38.5854 109.647 38.377C109.464 38.1624 109.202 38.0551 108.861 38.0551C108.526 38.0551 108.255 38.1655 108.047 38.3865C107.838 38.6074 107.734 38.9105 107.734 39.2956V42.1175H106.588Z" fill="#E1E5ED"/>
<path d="M114.208 42.2121C113.425 42.2121 112.718 41.9628 112.087 41.4641L112.598 40.6876C113.141 41.0979 113.687 41.3031 114.236 41.3031C114.482 41.3031 114.672 41.2557 114.804 41.161C114.943 41.06 115.013 40.9211 115.013 40.7444C115.013 40.656 114.987 40.5802 114.937 40.5171C114.893 40.4477 114.811 40.3845 114.691 40.3277C114.571 40.2709 114.47 40.2299 114.388 40.2046C114.306 40.1794 114.17 40.1383 113.98 40.0815L113.895 40.0531C113.718 40.0026 113.567 39.9553 113.441 39.9111C113.321 39.8606 113.185 39.7943 113.033 39.7122C112.882 39.6301 112.759 39.5418 112.664 39.4471C112.569 39.3461 112.491 39.2198 112.427 39.0683C112.364 38.9168 112.333 38.7463 112.333 38.5569C112.333 38.0961 112.5 37.7268 112.835 37.449C113.176 37.1713 113.602 37.0324 114.113 37.0324C114.763 37.0324 115.376 37.2218 115.95 37.6005L115.496 38.4149C114.978 38.0993 114.508 37.9414 114.085 37.9414C113.864 37.9414 113.69 37.9888 113.564 38.0835C113.444 38.1782 113.384 38.3044 113.384 38.4623C113.384 38.5696 113.437 38.6674 113.545 38.7558C113.658 38.8442 113.769 38.9105 113.876 38.9547C113.99 38.9925 114.17 39.0525 114.416 39.1346C114.429 39.1409 114.444 39.1472 114.463 39.1535C114.482 39.1598 114.498 39.163 114.511 39.163C114.732 39.2324 114.918 39.3019 115.069 39.3713C115.221 39.4344 115.379 39.5228 115.543 39.6365C115.713 39.7501 115.843 39.8921 115.931 40.0626C116.019 40.2267 116.064 40.4193 116.064 40.6402C116.064 41.1453 115.89 41.5335 115.543 41.805C115.196 42.0764 114.751 42.2121 114.208 42.2121Z" fill="#E1E5ED"/>
</svg>
