<svg width="18" height="17" viewBox="0 0 18 17" fill="none" xmlns="http://www.w3.org/2000/svg">
<path d="M4.40625 8.45984L8.625 4.24109L7.21875 2.86609L5.3125 4.80359C5.25 4.83484 5.1875 4.86609 5.125 4.86609C5.0625 4.86609 5 4.83484 4.96875 4.80359L4.59375 4.42859C4.5 4.33484 4.5 4.17859 4.59375 4.08484L6.53125 2.14734L5.46875 1.11609C5.09375 0.709839 4.46875 0.709839 4.09375 1.11609L1.28125 3.89734C0.875 4.30359 0.875 4.92859 1.28125 5.30359L4.40625 8.45984ZM16.5312 4.80359C17.125 4.20984 17.125 3.27234 16.5312 2.67859L15.125 1.27234C14.5312 0.678589 13.5938 0.678589 13 1.27234L11.5625 2.70984L15.0938 6.24109L16.5312 4.80359ZM10.875 3.39734L1.59375 12.6786L1 16.0536C0.90625 16.4911 1.3125 16.8973 1.75 16.8036L5.125 16.2098L14.4062 6.92859L10.875 3.39734ZM16.6875 12.3348L15.6562 11.2723L13.7188 13.2098C13.625 13.3036 13.4688 13.3036 13.375 13.2098L13 12.8348C12.9062 12.7411 12.9062 12.5848 13 12.4911L14.9375 10.5848L13.5625 9.17859L9.34375 13.3973L12.5 16.5223C12.875 16.9286 13.5 16.9286 13.9062 16.5223L16.6875 13.7098C17.0938 13.3348 17.0938 12.7098 16.6875 12.3348Z" fill="white"/>
</svg>
