<svg width="24" height="25" viewBox="0 0 24 25" fill="none" xmlns="http://www.w3.org/2000/svg">
<path d="M18 11.75C18 11.4688 17.7188 11.1875 17.4375 11.1875H13.3125V7.0625C13.3125 6.78125 13.0312 6.5 12.75 6.5H11.25C10.9219 6.5 10.6875 6.78125 10.6875 7.0625V11.1875H6.5625C6.23438 11.1875 6 11.4688 6 11.75V13.25C6 13.5781 6.23438 13.8125 6.5625 13.8125H10.6875V17.9375C10.6875 18.2656 10.9219 18.5 11.25 18.5H12.75C13.0312 18.5 13.3125 18.2656 13.3125 17.9375V13.8125H17.4375C17.7188 13.8125 18 13.5781 18 13.25V11.75ZM23.625 12.5C23.625 6.07812 18.4219 0.875 12 0.875C5.57812 0.875 0.375 6.07812 0.375 12.5C0.375 18.9219 5.57812 24.125 12 24.125C18.4219 24.125 23.625 18.9219 23.625 12.5ZM21.375 12.5C21.375 17.7031 17.1562 21.875 12 21.875C6.79688 21.875 2.625 17.7031 2.625 12.5C2.625 7.34375 6.79688 3.125 12 3.125C17.1562 3.125 21.375 7.34375 21.375 12.5Z" fill="white"/>
</svg>
