<svg width="62" height="60" viewBox="0 0 62 60" fill="none" xmlns="http://www.w3.org/2000/svg">
<g clip-path="url(#clip0_1807_31001)">
<path d="M30.7421 0.0168457C15.4875 0.0168457 16.44 6.63214 16.44 6.63214L16.4569 13.4858H31.0141V15.5434H10.675C10.675 15.5434 0.913635 14.4364 0.913635 29.8281C0.913635 45.2204 9.43363 44.6745 9.43363 44.6745H14.5183V37.5319C14.5183 37.5319 14.2442 29.0119 22.9023 29.0119H37.3405C37.3405 29.0119 45.4522 29.143 45.4522 21.1721V7.99285C45.4522 7.99285 46.6842 0.0168457 30.7421 0.0168457ZM22.7153 4.62579C23.0593 4.62548 23.4 4.693 23.7178 4.8245C24.0357 4.956 24.3245 5.14889 24.5678 5.39213C24.811 5.63537 25.0039 5.92419 25.1354 6.24206C25.2669 6.55993 25.3344 6.90061 25.3341 7.24461C25.3344 7.58861 25.2669 7.92929 25.1354 8.24716C25.0039 8.56503 24.811 8.85385 24.5678 9.09709C24.3245 9.34033 24.0357 9.53322 23.7178 9.66472C23.4 9.79622 23.0593 9.86374 22.7153 9.86343C22.3713 9.86374 22.0306 9.79622 21.7127 9.66472C21.3949 9.53322 21.106 9.34033 20.8628 9.09709C20.6196 8.85385 20.4267 8.56503 20.2952 8.24716C20.1637 7.92929 20.0961 7.58861 20.0965 7.24461C20.0961 6.90061 20.1637 6.55993 20.2952 6.24206C20.4267 5.92419 20.6196 5.63537 20.8628 5.39213C21.106 5.14889 21.3949 4.956 21.7127 4.8245C22.0306 4.693 22.3713 4.62548 22.7153 4.62579Z" fill="url(#paint0_linear_1807_31001)"/>
<path d="M31.1753 59.7943C46.4299 59.7943 45.4774 53.179 45.4774 53.179L45.4605 46.3256H30.903V44.268H51.2421C51.2421 44.268 61.0035 45.375 61.0035 29.9828C61.0035 14.5908 52.4835 15.1367 52.4835 15.1367H47.3988V22.279C47.3988 22.279 47.6729 30.799 39.0148 30.799H24.5767C24.5767 30.799 16.4649 30.668 16.4649 38.639V51.8186C16.4649 51.8186 15.2332 59.7943 31.175 59.7943H31.1753ZM39.2021 55.1858C38.8581 55.1862 38.5174 55.1186 38.1996 54.9871C37.8817 54.8556 37.5929 54.6627 37.3496 54.4195C37.1064 54.1763 36.9135 53.8874 36.782 53.5696C36.6505 53.2517 36.583 52.911 36.5833 52.567C36.5829 52.223 36.6504 51.8823 36.7819 51.5644C36.9134 51.2465 37.1063 50.9577 37.3495 50.7144C37.5928 50.4711 37.8816 50.2782 38.1995 50.1467C38.5174 50.0152 38.8581 49.9477 39.2021 49.948C39.5461 49.9477 39.8868 50.0152 40.2047 50.1467C40.5225 50.2782 40.8113 50.4711 41.0546 50.7143C41.2978 50.9576 41.4907 51.2464 41.6222 51.5642C41.7537 51.8821 41.8212 52.2228 41.8209 52.5668C41.8212 52.9108 41.7537 53.2515 41.6222 53.5693C41.4907 53.8872 41.2978 54.176 41.0546 54.4193C40.8113 54.6625 40.5225 54.8554 40.2047 54.9869C39.8868 55.1184 39.5461 55.1859 39.2021 55.1856V55.1858Z" fill="url(#paint1_linear_1807_31001)"/>
</g>
<defs>
<linearGradient id="paint0_linear_1807_31001" x1="6.68825" y1="5.39347" x2="36.467" y2="34.8751" gradientUnits="userSpaceOnUse">
<stop stop-color="#387EB8"/>
<stop offset="1" stop-color="#366994"/>
</linearGradient>
<linearGradient id="paint1_linear_1807_31001" x1="24.9664" y1="24.3249" x2="56.9453" y2="54.5556" gradientUnits="userSpaceOnUse">
<stop stop-color="#FFE052"/>
<stop offset="1" stop-color="#FFC331"/>
</linearGradient>
<clipPath id="clip0_1807_31001">
<rect width="60.241" height="60" fill="white" transform="translate(0.879519)"/>
</clipPath>
</defs>
</svg>
