<svg width="30" height="19" viewBox="0 0 30 19" fill="none" xmlns="http://www.w3.org/2000/svg">
<g clip-path="url(#clip0_2660_35725)">
<rect width="30" height="19" fill="white"/>
<path fill-rule="evenodd" clip-rule="evenodd" d="M0 0H12.8571V8.86667H0V0Z" fill="#1A47B8"/>
<path fill-rule="evenodd" clip-rule="evenodd" d="M12.8571 0V1.26667H30V0H12.8571ZM12.8571 2.53333V3.8H30V2.53333H12.8571ZM12.8571 5.06667V6.33333H30V5.06667H12.8571ZM12.8571 7.6V8.86667H30V7.6H12.8571ZM0 10.1333V11.4H30V10.1333H0ZM0 12.6667V13.9333H30V12.6667H0ZM0 15.2V16.4667H30V15.2H0ZM0 17.7333V19H30V17.7333H0Z" fill="#F93939"/>
<path fill-rule="evenodd" clip-rule="evenodd" d="M1.42859 1.26667V2.53334H2.85716V1.26667H1.42859ZM4.28573 1.26667V2.53334H5.7143V1.26667H4.28573ZM7.14287 1.26667V2.53334H8.57145V1.26667H7.14287ZM10 1.26667V2.53334H11.4286V1.26667H10ZM8.57145 2.53334V3.8H10V2.53334H8.57145ZM5.7143 2.53334V3.8H7.14287V2.53334H5.7143ZM2.85716 2.53334V3.8H4.28573V2.53334H2.85716ZM1.42859 3.8V5.06667H2.85716V3.8H1.42859ZM4.28573 3.8V5.06667H5.7143V3.8H4.28573ZM7.14287 3.8V5.06667H8.57145V3.8H7.14287ZM10 3.8V5.06667H11.4286V3.8H10ZM1.42859 6.33334V7.6H2.85716V6.33334H1.42859ZM4.28573 6.33334V7.6H5.7143V6.33334H4.28573ZM7.14287 6.33334V7.6H8.57145V6.33334H7.14287ZM10 6.33334V7.6H11.4286V6.33334H10ZM8.57145 5.06667V6.33334H10V5.06667H8.57145ZM5.7143 5.06667V6.33334H7.14287V5.06667H5.7143ZM2.85716 5.06667V6.33334H4.28573V5.06667H2.85716Z" fill="white"/>
</g>
<defs>
<clipPath id="clip0_2660_35725">
<rect width="30" height="19" fill="white"/>
</clipPath>
</defs>
</svg>
