<svg width="12" height="17" viewBox="0 0 12 17" fill="none" xmlns="http://www.w3.org/2000/svg">
<path d="M10.5 0.538574C11.3125 0.538574 12 1.22607 12 2.03857V15.0386C12 15.8823 11.3125 16.5386 10.5 16.5386H7.5V14.0386C7.5 13.2261 6.8125 12.5386 6 12.5386C5.15625 12.5386 4.5 13.2261 4.5 14.0386V16.5386H1.5C0.65625 16.5386 0 15.8823 0 15.0386V2.03857C0 1.22607 0.65625 0.538574 1.5 0.538574H10.5ZM2 9.03857C2 9.31982 2.21875 9.53857 2.5 9.53857H3.5C3.75 9.53857 4 9.31982 4 9.03857V8.03857C4 7.78857 3.75 7.53857 3.5 7.53857H2.5C2.21875 7.53857 2 7.78857 2 8.03857V9.03857ZM5.5 7.53857C5.21875 7.53857 5 7.78857 5 8.03857V9.03857C5 9.31982 5.21875 9.53857 5.5 9.53857H6.5C6.75 9.53857 7 9.31982 7 9.03857V8.03857C7 7.78857 6.75 7.53857 6.5 7.53857H5.5ZM8 9.03857C8 9.31982 8.21875 9.53857 8.5 9.53857H9.5C9.75 9.53857 10 9.31982 10 9.03857V8.03857C10 7.78857 9.75 7.53857 9.5 7.53857H8.5C8.21875 7.53857 8 7.78857 8 8.03857V9.03857ZM2.5 3.53857C2.21875 3.53857 2 3.78857 2 4.03857V5.03857C2 5.31982 2.21875 5.53857 2.5 5.53857H3.5C3.75 5.53857 4 5.31982 4 5.03857V4.03857C4 3.78857 3.75 3.53857 3.5 3.53857H2.5ZM5 5.03857C5 5.31982 5.21875 5.53857 5.5 5.53857H6.5C6.75 5.53857 7 5.31982 7 5.03857V4.03857C7 3.78857 6.75 3.53857 6.5 3.53857H5.5C5.21875 3.53857 5 3.78857 5 4.03857V5.03857ZM8.5 3.53857C8.21875 3.53857 8 3.78857 8 4.03857V5.03857C8 5.31982 8.21875 5.53857 8.5 5.53857H9.5C9.75 5.53857 10 5.31982 10 5.03857V4.03857C10 3.78857 9.75 3.53857 9.5 3.53857H8.5Z" fill="#5D81FF"/>
</svg>
