<svg width="40" height="40" viewBox="0 0 40 40" fill="none" xmlns="http://www.w3.org/2000/svg">
<path fill-rule="evenodd" clip-rule="evenodd" d="M28.1491 30.5633C28.5396 30.9538 29.1728 30.9538 29.5633 30.5633C29.9538 30.1728 29.9538 29.5396 29.5633 29.1491L20.8424 20.4282L29.5635 11.7071C29.954 11.3166 29.954 10.6834 29.5635 10.2929C29.173 9.90237 28.5398 9.90237 28.1493 10.2929L19.4282 19.014L10.7071 10.2929C10.3166 9.90237 9.68342 9.90237 9.29289 10.2929C8.90237 10.6834 8.90237 11.3166 9.29289 11.7071L18.014 20.4282L9.29311 29.1491C8.90259 29.5396 8.90259 30.1728 9.29311 30.5633C9.68364 30.9538 10.3168 30.9538 10.7073 30.5633L19.4282 21.8424L28.1491 30.5633Z" fill="white"/>
</svg>
