<svg width="22" height="23" viewBox="0 0 22 23" fill="none" xmlns="http://www.w3.org/2000/svg">
<path d="M20.9688 11.4322L16.8438 9.8424V5.20178C16.8438 4.55725 16.4141 3.99865 15.8125 3.74084L11.5156 2.151C11.1719 2.0221 10.7852 2.0221 10.4414 2.151L6.14453 3.74084C5.54297 3.99865 5.11328 4.55725 5.11328 5.20178V9.8424L0.988281 11.4322C0.386719 11.6471 0 12.2057 0 12.8502V17.5768C0 18.1784 0.300781 18.7369 0.816406 18.9947L5.11328 21.1432C5.58594 21.3581 6.10156 21.3581 6.53125 21.1432L11 18.9088L15.4258 21.1432C15.8984 21.3581 16.4141 21.3581 16.8438 21.1432L21.1406 18.9947C21.6562 18.7369 22 18.1784 22 17.5768V12.8502C22 12.2057 21.5703 11.6471 20.9688 11.4322ZM15.3828 9.88537L11.7305 11.2604V8.3385L15.3828 6.74865V9.88537ZM6.61719 5.15881L11 3.48303L15.3828 5.15881L11 6.9635L6.61719 5.15881ZM10.2266 17.6628L6.57422 19.4674V16.0728L10.2266 14.3971V17.6628ZM10.2266 12.8502L5.84375 14.6119L1.46094 12.8502V12.8072L5.84375 11.1744L10.2266 12.8072V12.8502ZM20.5391 17.6628L16.8867 19.4674V16.0728L20.5391 14.3971V17.6628ZM20.5391 12.8502L16.1562 14.6119L11.7734 12.8502V12.8072L16.1562 11.1744L20.5391 12.8072V12.8502Z" fill="#BABFC9"/>
</svg>
