<svg width="24" height="19" viewBox="0 0 24 19" fill="none" xmlns="http://www.w3.org/2000/svg">
<path d="M7.28516 8.61792C7.28516 8.19604 7.46094 7.73901 7.8125 7.42261L13.9648 1.27026C14.2461 0.9187 14.7031 0.742919 15.1602 0.742919C15.582 0.742919 16.0391 0.918701 16.3555 1.27026L22.5078 7.42261C22.8594 7.73901 23.0352 8.19604 23.0352 8.61792C23.0352 9.03979 22.8594 9.49683 22.5078 9.81323L16.3555 15.9656C16.0391 16.3171 15.582 16.4929 15.1602 16.4929C14.7031 16.4929 14.2461 16.3171 13.9297 15.9656L7.77734 9.81323C7.42578 9.53198 7.28516 9.07495 7.28516 8.61792ZM19.625 9.46167C20.1172 9.46167 20.4687 9.11011 20.4687 8.65308C20.4687 8.2312 20.082 7.84448 19.625 7.84448C19.2031 7.84448 18.7812 8.16089 18.7812 8.61792C18.7812 9.11011 19.168 9.46167 19.625 9.46167ZM15.125 13.9617C15.6172 13.9617 15.9687 13.6101 15.9687 13.1531C15.9687 12.7312 15.582 12.3445 15.125 12.3445C14.7031 12.3445 14.3164 12.7312 14.3164 13.1531C14.3164 13.6101 14.668 13.9617 15.125 13.9617ZM15.125 9.46167C15.6172 9.46167 15.9687 9.11011 15.9687 8.65308C15.9687 8.2312 15.582 7.84448 15.125 7.84448C14.7031 7.84448 14.2812 8.16089 14.2812 8.61792C14.2812 9.11011 14.668 9.46167 15.125 9.46167ZM15.125 4.96167C15.6172 4.96167 15.9687 4.61011 15.9687 4.15308C15.9687 3.7312 15.582 3.34448 15.125 3.34448C14.7031 3.34448 14.3164 3.7312 14.3164 4.15308C14.3164 4.61011 14.668 4.96167 15.125 4.96167ZM10.625 9.46167C11.1172 9.46167 11.4687 9.11011 11.4687 8.65308C11.4687 8.2312 11.082 7.84448 10.625 7.84448C10.2031 7.84448 9.81641 8.2312 9.81641 8.65308C9.81641 9.11011 10.168 9.46167 10.625 9.46167ZM2.22266 7.49292L6.40625 7.49292C6.26562 7.87964 6.16016 8.26636 6.16016 8.65307C6.16016 9.3562 6.44141 10.0945 7.00391 10.657L11.7852 15.4382L11.7852 17.0554C11.75 18.0046 11.0117 18.7429 10.0625 18.7429L2.22265 18.7429C1.30859 18.7429 0.570311 18.0046 0.570311 17.0906L0.570311 9.18042C0.535155 8.26636 1.27344 7.49292 2.22266 7.49292ZM6.16015 13.9617C6.65234 13.9617 6.96875 13.6101 6.96875 13.1531C6.96875 12.7312 6.61719 12.3445 6.16015 12.3445C5.73828 12.3445 5.35156 12.7312 5.35156 13.1531C5.35156 13.6101 5.66797 13.9617 6.16015 13.9617Z" fill="#BABFC9"/>
</svg>
