<svg width="21" height="19" viewBox="0 0 21 19" fill="none" xmlns="http://www.w3.org/2000/svg">
<path d="M20.2148 9.92847C20.2148 10.5613 19.6875 11.0535 19.0898 11.0535H17.9648L18 16.6785C18 16.7839 18 16.8894 18 16.9597V17.5222C18 18.3308 17.3672 18.9285 16.5938 18.9285H16.0312C15.9609 18.9285 15.9258 18.9285 15.8906 18.9285C15.8555 18.9285 15.7852 18.9285 15.75 18.9285H13.7812C12.9727 18.9285 12.375 18.3308 12.375 17.5222V14.4285C12.375 13.8308 11.8477 13.3035 11.25 13.3035H9C8.36719 13.3035 7.875 13.8308 7.875 14.4285V17.5222C7.875 18.3308 7.24219 18.9285 6.46875 18.9285H4.5C4.42969 18.9285 4.39453 18.9285 4.32422 18.9285C4.28906 18.9285 4.25391 18.9285 4.21875 18.9285H3.65625C2.84766 18.9285 2.25 18.3308 2.25 17.5222V13.5847C2.25 13.5847 2.25 13.5496 2.25 13.5144V11.0535H1.125C0.492188 11.0535 0 10.5613 0 9.92847C0 9.61206 0.105469 9.33081 0.351562 9.08472L9.35156 1.24487C9.59766 0.998779 9.87891 0.928467 10.125 0.928467C10.3711 0.928467 10.6523 1.03394 10.8633 1.20972L19.8281 9.08472C20.1094 9.33081 20.25 9.61206 20.2148 9.92847Z" fill="#BABFC9"/>
</svg>
