<svg width="17" height="18" viewBox="0 0 17 18" fill="none" xmlns="http://www.w3.org/2000/svg">
<path d="M7.75 1.1875C8.21875 0.96875 8.75 0.96875 9.21875 1.1875L16.0625 4.34375C16.3125 4.46875 16.5 4.71875 16.5 5C16.5 5.3125 16.3125 5.5625 16.0625 5.6875L9.21875 8.84375C8.75 9.0625 8.21875 9.0625 7.75 8.84375L0.90625 5.6875C0.65625 5.5625 0.5 5.3125 0.5 5C0.5 4.71875 0.65625 4.46875 0.90625 4.34375L7.75 1.1875ZM16.0625 8.34375C16.3125 8.46875 16.5 8.71875 16.5 9C16.5 9.3125 16.3125 9.5625 16.0625 9.6875L9.21875 12.8438C8.75 13.0625 8.21875 13.0625 7.75 12.8438L0.90625 9.6875C0.65625 9.5625 0.5 9.3125 0.5 9C0.5 8.71875 0.65625 8.46875 0.90625 8.34375L2.59375 7.5625L7.34375 9.75C8.0625 10.0938 8.90625 10.0938 9.625 9.75L14.375 7.5625L16.0625 8.34375ZM9.625 13.75L14.375 11.5625L16.0625 12.3438C16.3125 12.4688 16.5 12.7188 16.5 13C16.5 13.3125 16.3125 13.5625 16.0625 13.6875L9.21875 16.8438C8.75 17.0625 8.21875 17.0625 7.75 16.8438L0.90625 13.6875C0.65625 13.5625 0.5 13.3125 0.5 13C0.5 12.7188 0.65625 12.4688 0.90625 12.3438L2.59375 11.5625L7.34375 13.75C8.0625 14.0938 8.90625 14.0938 9.625 13.75Z" fill="#DD54FF"/>
</svg>
