<svg width="19" height="34" viewBox="0 0 19 34" fill="none" xmlns="http://www.w3.org/2000/svg">
<path d="M18.4895 17.7883L0.781859 33.2414C0.541127 33.4509 0.170769 33.2787 0.170769 32.9621L0.170769 29.1908C0.170769 28.9719 0.263359 28.7671 0.425391 28.6274L12.1055 18.4355L14.1871 16.6639L12.1055 14.897L0.42539 4.70512C0.263359 4.56078 0.170769 4.35592 0.170769 4.14175L0.170769 0.370429C0.170893 0.299291 0.191347 0.229687 0.229694 0.169909C0.268042 0.110132 0.322664 0.062699 0.387058 0.0332616C0.451452 0.00382425 0.522902 -0.00637736 0.592897 0.0038721C0.662893 0.0141215 0.728485 0.0443903 0.781858 0.0910724L18.4895 15.5395C18.6498 15.6792 18.7783 15.8519 18.8663 16.0459C18.9544 16.2399 19 16.4507 19 16.6639C19 16.8772 18.9544 17.088 18.8663 17.282C18.7783 17.476 18.6498 17.6486 18.4895 17.7883Z" fill="#B4F00A"/>
</svg>
