<svg width="19" height="34" viewBox="0 0 19 34" fill="none" xmlns="http://www.w3.org/2000/svg">
<path d="M0.510457 16.2117L18.2181 0.758574C18.4589 0.549055 18.8292 0.721327 18.8292 1.03793L18.8292 4.80925C18.8292 5.02808 18.7366 5.23294 18.5746 5.37262L6.89448 15.5645L4.81287 17.3361L6.89448 19.103L18.5746 29.2949C18.7366 29.4392 18.8292 29.6441 18.8292 29.8583L18.8292 33.6296C18.8291 33.7007 18.8087 33.7703 18.7703 33.8301C18.732 33.8899 18.6773 33.9373 18.6129 33.9667C18.5485 33.9962 18.4771 34.0064 18.4071 33.9961C18.3371 33.9859 18.2715 33.9556 18.2181 33.9089L0.510458 18.4605C0.350226 18.3208 0.221721 18.1481 0.13365 17.9541C0.0455786 17.7601 -1.63433e-06 17.5493 -1.65552e-06 17.3361C-1.67671e-06 17.1228 0.0455785 16.912 0.13365 16.718C0.221721 16.524 0.350226 16.3514 0.510457 16.2117Z" fill="#B4F00A"/>
</svg>
