<svg width="288" height="59" viewBox="0 0 288 59" fill="none" xmlns="http://www.w3.org/2000/svg">
    <path fill-rule="evenodd" clip-rule="evenodd" d="M144 0.583302C143.679 0.583302 143.382 0.683971 143.138 0.855437C137.349 0.801832 131.553 0.799418 125.756 0.815812C119.379 0.815812 112.961 0.872963 106.585 0.95869C99.6696 1.04442 92.7546 1.18729 85.8396 1.47305C82.4391 1.62048 79.0463 1.78377 75.6545 1.947C71.1578 2.16341 66.6629 2.37973 62.1547 2.55891C56.8545 2.78752 51.5958 2.95897 46.2957 3.0447C45.3939 3.06183 44.4922 3.07439 43.5908 3.08695C39.9804 3.13726 36.3754 3.18749 32.7969 3.53049C32.093 3.61621 31.4718 3.70193 31.0992 4.07341C30.8507 4.31345 30.4234 4.36831 29.9961 4.42317C29.7112 4.45975 29.4263 4.49633 29.1945 4.58777C29.0359 4.64614 28.8179 4.68588 28.5977 4.72602C27.9557 4.84308 27.295 4.96352 28.0351 5.55934C28.1593 5.67365 27.9937 5.78795 27.828 5.8451C27.408 6.00213 27.0619 6.2051 26.7147 6.40871C26.2406 6.68679 25.7644 6.96603 25.0951 7.131C24.4326 7.27388 23.9357 7.5882 23.7701 7.87396C23.1647 8.81398 21.6949 8.94276 20.277 9.067C20.1432 9.07872 20.0099 9.0904 19.8778 9.10272C18.0973 9.27417 17.6004 9.53134 17.7247 10.5029C17.7247 10.5886 17.766 10.7029 17.8489 10.7315C18.7429 10.9372 19.0809 11.3987 19.3922 11.8238C19.4702 11.9302 19.5465 12.0344 19.6294 12.1317C20.1677 12.8461 21.1615 12.8747 22.2381 12.8747C22.3653 12.8783 22.4925 12.8801 22.6187 12.8819C23.4782 12.8939 24.2892 12.9053 24.7225 13.5033C24.7791 13.5814 24.8728 13.651 24.9605 13.7161C25.1937 13.8892 25.3845 14.0308 24.7225 14.2177C24.5983 14.2463 24.4326 14.3892 24.474 14.4178C25.0872 15.123 24.2798 15.4162 23.5035 15.6981C23.1789 15.816 22.8597 15.9319 22.6521 16.0751C22.3417 16.2894 21.9809 16.4739 21.6177 16.6596L21.6177 16.6597C21.109 16.9198 20.5956 17.1824 20.2091 17.5325C19.588 18.104 18.0145 18.2755 16.6481 18.3326C14.909 18.3898 14.1636 18.8184 14.8262 19.9043C15.5366 20.0551 15.7963 20.3802 16.0573 20.7071C16.1918 20.8755 16.3267 21.0444 16.5238 21.1902C16.648 21.1902 16.7619 21.1973 16.8757 21.2044L16.8758 21.2045C16.9897 21.2116 17.1035 21.2187 17.2277 21.2187C17.1321 21.9672 17.8718 21.9186 18.6141 21.8699C18.8354 21.8554 19.057 21.8408 19.2567 21.8474C19.2981 21.876 19.3395 21.9045 19.4224 21.9331C19.5338 21.9771 19.6943 21.9788 19.8543 21.9805C20.1103 21.9832 20.3652 21.9859 20.4161 22.1617C20.454 22.3967 20.1114 22.5124 19.7993 22.6179L19.7993 22.6179C19.7832 22.6233 19.7671 22.6288 19.7512 22.6342C19.7381 22.6386 19.7251 22.6431 19.7122 22.6475C19.6587 22.666 19.6225 22.6963 19.5813 22.7309C19.5586 22.7499 19.5345 22.7701 19.5051 22.7904C19.3455 22.8868 19.1281 22.8969 18.9086 22.9071C18.6728 22.9181 18.4345 22.9292 18.2629 23.0476C17.3934 23.1333 16.5238 23.219 17.3934 23.8477C17.5568 23.9604 17.4695 24.0608 17.3787 24.1651C17.3315 24.2194 17.2834 24.2748 17.2692 24.3335C17.1864 24.3763 17.0932 24.4121 17 24.4478C16.9069 24.4835 16.8137 24.5192 16.7309 24.5621C16.6656 24.5733 16.5938 24.5757 16.5257 24.578C16.4213 24.5814 16.3256 24.5846 16.2754 24.6192C15.8249 24.9635 15.2055 25.23 14.5875 25.496C13.6149 25.9146 12.6455 26.3318 12.3417 27.0482C12.0161 27.0321 11.7558 27.1152 11.5021 27.1962C11.3042 27.2595 11.1102 27.3214 10.8925 27.3339C9.9291 27.3083 9.03206 27.4658 8.14198 27.6221C8.03737 27.6404 7.93285 27.6588 7.82833 27.6768C7.1244 27.7911 6.91734 28.7341 7.49704 28.9913C8.17239 29.2709 8.5129 29.66 8.85198 30.0475C9.03265 30.2539 9.21291 30.4599 9.44321 30.6487C9.65024 30.8201 9.77446 30.9058 10.1471 30.9344C11.1823 30.963 12.2589 31.0201 13.2941 31.0773C13.5601 31.4945 14.1933 31.7168 14.8226 31.9377C15.2708 32.095 15.7169 32.2517 16.027 32.4775H16.0276C16.8141 32.4775 17.5592 32.4775 18.3458 32.5061C18.4012 32.5061 18.4628 32.5018 18.5265 32.4974C18.7481 32.482 18.9946 32.465 19.0911 32.6204C19.2153 32.8204 19.0083 32.9919 18.7185 33.049C17.5591 33.2205 16.7723 33.6205 16.0684 34.1349C15.8614 34.2777 15.5278 34.2748 15.1881 34.2719C15.052 34.2708 14.915 34.2696 14.7848 34.2778C14.6321 34.2865 14.4756 34.2845 14.3176 34.2825C13.9611 34.2779 13.5969 34.2733 13.2527 34.3921C11.1823 34.4206 9.15334 34.4492 7.08297 34.5064C6.04779 34.5349 5.71655 34.8493 6.17203 35.2207C6.26535 35.3127 6.43163 35.384 6.59626 35.4546C6.94298 35.6032 7.28238 35.7486 6.91738 36.078C6.85527 36.1066 6.78281 36.1352 6.71034 36.1637C6.63788 36.1923 6.56541 36.2209 6.5033 36.2495C6.08923 36.5352 5.55094 36.6781 4.88842 36.7638C4.26731 36.821 3.68761 37.1353 3.60479 37.4496C3.52403 37.7005 4.19155 37.8154 4.68555 37.9004L4.72278 37.9069C4.72278 38.2783 4.43294 38.5355 3.81183 38.707C3.79113 38.7213 3.78077 38.7355 3.77041 38.7498C3.76005 38.7641 3.74969 38.7784 3.72898 38.7927C3.31491 38.8784 2.85943 39.0499 2.90084 39.2213C2.99642 39.6336 2.71968 39.9888 2.44464 40.3417C2.24309 40.6004 2.04245 40.8579 1.98991 41.1359C1.94933 41.346 1.66008 41.4599 1.37566 41.572C1.07976 41.6886 0.789079 41.8032 0.789079 42.0217C0.706265 42.0789 0.664851 42.1646 0.664851 42.2218L0.624852 42.2811C0.0988409 43.0615 -0.428533 43.8439 0.540659 44.7078C0.60277 44.7364 0.67523 44.765 0.74769 44.7935L0.747717 44.7936L0.747893 44.7936C0.820287 44.8222 0.892671 44.8507 0.954724 44.8793C4.88781 45.9146 8.82088 46.8677 13.1817 47.202L13.2113 47.2225C13.2113 47.2161 13.2072 47.2098 13.2004 47.2035C13.2867 47.2101 13.3731 47.2164 13.4597 47.2225C13.4689 47.2352 13.4787 47.248 13.4884 47.2607L13.4885 47.2607C13.5656 47.3616 13.639 47.4575 13.4183 47.5082C12.3417 47.7368 12.1347 48.1655 12.2589 48.7084C12.3003 48.937 12.1761 49.1085 11.8448 49.2799C11.5135 49.4514 11.2652 49.6514 11.4722 49.9086C11.555 49.9943 11.555 50.1372 11.3479 50.1943C9.5486 50.7492 9.51905 51.6948 9.49211 52.557C9.48991 52.6274 9.48773 52.6972 9.4846 52.7661L9.36037 55.3379C9.31897 55.8809 9.98148 56.0237 10.8096 56.1095C11.3938 56.1627 11.9809 56.2079 12.5679 56.253C14.1858 56.3774 15.8024 56.5017 17.352 56.7953V56.9096C17.6004 56.9382 17.8385 56.9596 18.0766 56.981C18.3147 57.0025 18.5528 57.0239 18.8012 57.0525C19.2567 57.0239 19.6708 57.0239 20.0849 57.0239C22.1137 57.1382 24.1426 57.281 26.1715 57.4239L26.1718 57.4239C26.5112 57.4518 26.8507 57.4808 27.1904 57.5098C28.5913 57.6294 29.9975 57.7494 31.4305 57.7954C36.3901 57.9954 41.3497 58.0745 46.3092 58.1535C47.7264 58.1761 49.1435 58.1987 50.5606 58.2241C59.4675 58.3643 68.3466 58.3325 77.2434 58.3006H77.2437L77.2459 58.3006C79.2261 58.2935 81.2071 58.2864 83.1895 58.2812C87.3478 58.2812 91.5061 58.126 95.6361 57.9718L95.6367 57.9718L95.638 57.9717C96.1956 57.9509 96.7528 57.9301 97.3094 57.9097C99.0899 57.8526 100.87 57.7883 102.651 57.724L102.654 57.7239C104.433 57.6596 106.213 57.5954 107.993 57.5382C109.199 57.5017 110.404 57.4633 111.607 57.425L111.607 57.4249C115.109 57.3133 118.599 57.202 122.112 57.1382C124.529 57.0998 126.927 57.0358 129.319 56.9719C130.493 56.9405 131.665 56.9092 132.837 56.881C135.031 56.8239 137.224 56.7953 139.418 56.7667L139.421 56.7667C139.462 56.7667 139.504 56.7673 139.545 56.7679C139.792 56.7714 140.03 56.7747 140.207 56.6524C143.122 56.6096 146.048 56.5668 148.973 56.524L148.986 56.5238C151.517 56.4868 154.048 56.4498 156.572 56.4127H156.598H156.659H156.719H156.78H156.841H156.901H156.962H157.022H157.083H157.144H157.204H157.265H157.325H157.386H157.447H157.507H157.568H157.628H157.689H157.75H157.81H157.871H157.931H157.992H158.052H158.113H158.174H158.234H158.295H158.355H158.416H158.477H158.537H158.598H158.658H158.719H158.78H158.84H158.901H158.961H159.022H159.083H159.143H159.204H159.264H159.325H159.386H159.446H159.507H159.567H159.628H159.689H159.749H159.81H159.87H159.931H159.992H160.052H160.113H160.173H160.234H160.295H160.355H160.416H160.476H160.537H160.598H160.658H160.719H160.779H160.84H160.901H160.961H161.022H161.082H161.143H161.204H161.264H161.325H161.385H161.446H161.507H161.567H161.628H161.688H161.749H161.81H161.87H161.931H161.991H162.052H162.113H162.173H162.234H162.294H162.355H162.415H162.476H162.537H162.597H162.658H162.718H162.779H162.84H162.9H162.961H163.021H163.082H163.143H163.203H163.264H163.324H163.385H163.446H163.506H163.567H163.627H163.688H163.749H163.809H163.87H163.93H163.991H164.052H164.112H164.173H164.233H164.294H164.355H164.415H164.476H164.536H164.597H164.658H164.718H164.779H164.839H164.9H164.961H165.021H165.082H165.142H165.203H165.264H165.324H165.385H165.445H165.506H165.567H165.627H165.688H165.748H165.809H165.87H165.93H165.991H166.051H166.112H166.173H166.233H166.294H166.354H166.415H166.476H166.536H166.597H166.657H166.718H166.779H166.839H166.9H166.96H167.021H167.081H167.142H167.203H167.263H167.324H167.384H167.445H167.506H167.566H167.627H167.687H167.748H167.809H167.869H167.93H167.99H168.051H168.112H168.172H168.233H168.293H168.354H168.415H168.475H168.536H168.596H168.657H168.718H168.778H168.839H168.899H168.96H169.021H169.081H169.142H169.202H169.263H169.324H169.384H169.445H169.505H169.566H169.627H169.687H169.748H169.808H169.869H169.93H169.99H170.051H170.111H170.172H170.233H170.293H170.354H170.414H170.475H170.536H170.596H170.657H170.717H170.778H170.839H170.899H170.96H171.02H171.081H171.142H171.202H171.263H171.323H171.384H171.444H171.505H171.566H171.626H171.687H171.747H171.808H171.869H171.929H171.99H172.05H172.111H172.172H172.232H172.293H172.353H172.414H172.475H172.535H172.596H172.656H172.717H172.778H172.838H172.899H172.959H173.02H173.081H173.141H173.202H173.262H173.323H173.384H173.444H173.505H173.565H173.626H173.687H173.747H173.808H173.868H173.929H173.99H174.05H174.111H174.171H174.232H174.293H174.353H174.414H174.474H174.535H174.596H174.656H174.717H174.777H174.838H174.899H174.959H175.02H175.08H175.141H175.202H175.262H175.323H175.383H175.444H175.505H175.565H175.626H175.686H175.747H175.807H175.868H175.929H175.989H176.05H176.11H176.171H176.232H176.292H176.353H176.413H176.474H176.535H176.595H176.656H176.716H176.777H176.838H176.898H176.959H177.019H177.08H177.141H177.201H177.262H177.322H177.383H177.444H177.504H177.565H177.625H177.686H177.747H177.807H177.868H177.928H177.989H178.05H178.11H178.171H178.231H178.292H178.353H178.413H178.474H178.534H178.595H178.656H178.716H178.777H178.837H178.898H178.959H179.019H179.08H179.14H179.201H179.262H179.322H179.383H179.443H179.504H179.565H179.625H179.686H179.746H179.807H179.868H179.928H179.989H180.049H180.11H180.171H180.231H180.292H180.352H180.413H180.473H180.534H180.595H180.655H180.716H180.776H180.837H180.898H180.958H181.019H181.079H181.14H181.201H181.261H181.322H181.382H181.443H181.504H181.564H181.625H181.685H181.746H181.807H181.867H181.928H181.988H182.049H182.11H182.17H182.231H182.291H182.352H182.413H182.473H182.534H182.594H182.655H182.716H182.776H182.837H182.897H182.958H183.019H183.079H183.14H183.2H183.261H183.322H183.382H183.443H183.503H183.564H183.625H183.685H183.746H183.806H183.867H183.94H184.012H184.085H184.158H184.23H184.303H184.376H184.448H184.521H184.594H184.666H184.739H184.812H184.884H184.957H185.03H185.102H185.175H185.248H185.32H185.393H185.466H185.538H185.611H185.684H185.756H185.829H185.902H185.974H186.047H186.12H186.192H186.265H186.338H186.41H186.483H186.556H186.628H186.701H186.774H186.846H186.919H186.992H187.064H187.137H187.21H187.282H187.355H187.428H187.501H187.573H187.646H187.719H187.791H187.864H187.937H188.009H188.082H188.155H188.227H188.3H188.373H188.445H188.518H188.591H188.663H188.736H188.809H188.881H188.954H189.027H189.099H189.172H189.245H189.317H189.39H189.463H189.535H189.608H189.681H189.753H189.826H189.899H189.971H190.044H190.117H190.189H190.262H190.335H190.407H190.48H190.553H190.625H190.698H190.771H190.843H190.916H190.989H191.061H191.134H191.207H191.279H191.352H191.425H191.497H191.57H191.643H191.715H191.788H191.861H191.933H192.006H192.079H192.151H192.224H192.297H192.369H192.442H192.515H192.588H192.66H192.733H192.806H192.878H192.951H193.024H193.096H193.169H193.242H193.314H193.387H193.46H193.532H193.605H193.678H193.75H193.823H193.896H193.968H194.041H194.114H194.186H194.259H194.332H194.404H194.477H194.55H194.622H194.695H194.768H194.84H194.913H194.986H195.058H195.131H195.204H195.276H195.349H195.422H195.494H195.567H195.64H195.712H195.785H195.858H195.93H196.003H196.076H196.148H196.221H196.294H196.366H196.439H196.512H196.584H196.657H196.73H196.802H196.875H196.948H197.02H197.093H197.166H197.238H197.311H197.384H197.456H197.529H197.602H197.674H197.747H197.82H197.893H197.965H198.038H198.111H198.183H198.256H198.329H198.401H198.474H198.547H198.619H198.692H198.765H198.837H198.91H198.983H199.055H199.128H199.201H199.273H199.346H199.419H199.491H199.564H199.637H199.709H199.782H199.855H199.927H200H200.073H200.145H200.218H200.291H200.363H200.436H200.509H200.581H200.654H200.727H200.799H200.872H200.945H201.017H201.09H201.163H201.235H201.308H201.381H201.453H201.526H201.599H201.671H201.744H201.817H201.889H201.962H202.035H202.107H202.18H202.253H202.325H202.398H202.471H202.543H202.616H202.689H202.762H202.834H202.907H202.98H203.052H203.125H203.198H203.27H203.343H203.416H203.488H203.561H203.634H203.706H203.779H203.852H203.924H203.997H204.07H204.142H204.215H204.288H204.36H204.433H204.506H204.578H204.651H204.724H204.796H204.869H204.942H205.014H205.087H205.16H205.232H205.305H205.378H205.45H205.523H205.596H205.668H205.741H205.814H205.886H205.959H206.032H206.104H206.177H206.25H206.322H206.395H206.468H206.54H206.613H206.686H206.758H206.831H206.904H206.976H207.049H207.122H207.194H207.267H207.34H207.412H207.485H207.558H207.63H207.703H207.776H207.849H207.921H207.994H208.067H208.139H208.212H208.285H208.357H208.43H208.503H208.575H208.648H208.721H208.793H208.866H208.939H209.011H209.084H209.157H209.229H209.302H209.375H209.447H209.52H209.593H209.665H209.738H209.811H209.883H209.956H210.029H210.101H210.174H210.247H210.319H210.392H210.465H210.537H210.61H210.683H210.755H210.828H210.901H210.973H211.046H211.119H211.191H211.264H211.337H211.409H211.482H211.555H211.627H211.7H211.773H211.845H211.918H211.991H212.063H212.136H212.209H212.281H212.354H212.427H212.499H212.572H212.645H212.717H212.79H212.863H212.936H213.008H213.081H213.154H213.226H213.299H213.372H213.444H213.517H213.59H213.662H213.735H213.808H213.88H213.953H214.026H214.098H214.171H214.244H214.316H214.389H214.462H214.534H214.607H214.68H214.752H214.825H214.898H214.97H215.043H215.116H215.188H215.261H215.334H215.406H215.479H215.552H215.624H215.697H215.77H215.842H215.915H215.988H216.06H216.133H216.206H216.278H216.351H216.424H216.496H216.569H216.642H216.714H216.787H216.86H216.932H217.005H217.078H217.15H217.223H217.296H217.368H217.441H217.514H217.586H217.659H217.732H217.805H217.877H217.95H218.023H218.095H218.168H218.241H218.313H218.386H218.459H218.531H218.604H218.677H218.749H218.822H218.895H218.967H219.04H219.113H219.185H219.258H219.331H219.403H219.476H219.549H219.621H219.694H219.767H219.839H219.912H219.985H220.057H220.13H220.203H220.275H220.348H220.421H220.493H220.566H220.639H220.711H220.784H220.857H220.929H221.002H221.075C221.911 56.4127 222.801 56.436 223.722 56.46L223.722 56.46C226.25 56.526 229.007 56.598 231.514 56.2118C234.904 55.6896 237.916 55.2339 241.292 55.0155C247.932 54.5861 254.655 54.4316 261.339 54.4316C261.815 54.4316 262.24 54.2094 262.515 53.8629C262.578 53.8517 262.642 53.8405 262.705 53.8293C263.054 53.7676 263.404 53.7056 263.767 53.652C264.802 53.5091 264.595 53.109 264.264 52.7375C264.264 52.5375 264.512 52.3661 264.926 52.3661C265.446 52.3497 265.683 52.1564 265.921 51.9615C266.1 51.8152 266.28 51.6681 266.582 51.5945C266.831 51.5374 266.665 51.2516 266.375 51.1659C265.92 51.023 265.878 50.823 265.92 50.5658C265.951 50.5465 265.982 50.5272 266.014 50.5078C266.404 50.2692 266.809 50.0214 266.541 49.6514C266.417 49.4799 266.541 49.3942 266.831 49.3656C267.241 49.3323 267.581 49.2214 267.916 49.112C268.156 49.0336 268.394 48.9561 268.653 48.9084C269.646 48.7084 270.226 48.4798 270.019 47.8797C269.978 47.6511 270.226 47.5082 270.599 47.4511C271.091 47.3796 271.34 47.1966 271.589 47.0135C271.738 46.9037 271.888 46.7938 272.09 46.7081C272.214 46.651 272.297 46.5081 272.255 46.4795C271.283 45.91 271.841 45.4708 272.379 45.0485C272.596 44.8775 272.81 44.7093 272.918 44.5364C272.999 44.4142 273.112 44.292 273.227 44.1677C273.462 43.9143 273.704 43.6524 273.704 43.3648C273.704 42.7075 274.036 42.1074 274.781 41.5931C274.81 41.5728 274.84 41.5562 274.867 41.5406C274.917 41.5121 274.961 41.4871 274.988 41.4502C275.444 40.993 276.023 40.6501 277.058 40.5929C277.638 40.5358 277.762 40.3643 277.555 40.0786C277.478 39.9931 277.412 39.8995 277.345 39.804C277.232 39.6442 277.116 39.4787 276.934 39.3356C276.147 38.7641 276.354 38.3926 277.555 38.1069C277.697 38.0712 277.888 38.0634 278.078 38.0556C278.496 38.0384 278.911 38.0213 278.797 37.7068C278.673 37.2782 278.466 36.7353 277.224 36.7638C276.893 36.4209 276.291 36.2646 275.689 36.1084C275.238 35.9911 274.787 35.8739 274.45 35.678C274.346 35.6066 274.178 35.6689 274.006 35.7328C273.903 35.7712 273.798 35.8101 273.704 35.8208C273.29 35.878 272.876 35.9066 272.545 35.7637C272.29 35.6315 272.428 35.5163 272.562 35.405C272.601 35.3719 272.641 35.3392 272.669 35.3065C272.835 35.135 272.752 34.9636 272.586 34.8207C272.297 34.5635 272.504 34.3921 272.793 34.192L274.036 33.6777C274.062 33.6555 274.089 33.6339 274.116 33.6125L274.116 33.6121C274.294 33.4681 274.455 33.3373 274.491 33.1633C274.615 32.7061 275.236 32.649 275.94 32.6775C276.769 32.7347 276.934 32.4775 276.727 32.1346C276.673 32.0543 276.628 31.9714 276.581 31.8882C276.414 31.5859 276.244 31.2789 275.692 31.0773C275.669 31.0695 275.644 31.061 275.616 31.0518L275.615 31.0514C275.338 30.9599 274.868 30.8043 275.319 30.6487C275.431 30.6024 275.534 30.5334 275.638 30.4627C275.923 30.2714 276.224 30.0685 276.769 30.2772C277.459 30.5439 277.965 30.3788 278.471 30.2137C278.724 30.1311 278.977 30.0486 279.253 30.02C279.543 29.9914 279.543 29.7628 279.294 29.5914C278.508 29.0484 278.673 28.877 279.998 28.7627C280.909 28.677 281.53 28.5055 281.572 27.9626C282.648 27.2768 283.932 26.7338 285.464 26.3052C286.541 25.8194 287.286 25.1907 287.824 24.5049C288.197 24.0191 287.99 23.7334 287.079 23.4762C286.596 23.3359 286.09 23.2144 285.583 23.0928C284.438 22.8181 283.29 22.5426 282.4 22.0474C282.289 21.9855 282.181 21.9228 282.073 21.86C281.533 21.5465 280.992 21.233 280.164 21.0187C278.756 20.6472 277.307 20.4472 275.816 20.3043C275.716 20.289 275.604 20.2819 275.492 20.2747C275.185 20.2552 274.872 20.2354 274.781 20.0471C274.675 19.8646 274.89 19.822 275.114 19.7778C275.24 19.7528 275.369 19.7273 275.443 19.6757C276.121 19.2357 276.453 18.69 276.772 18.1657L276.81 18.104C276.893 17.9326 276.727 17.7325 276.437 17.5896C275.444 17.1039 275.444 16.7609 276.561 16.3037C276.603 16.2895 276.655 16.268 276.706 16.2466C276.758 16.2252 276.81 16.2037 276.851 16.1894C277.31 15.9917 277.797 15.8091 278.284 15.6267C279.907 15.0183 281.527 14.4113 282.069 13.2462C282.4 12.5318 282.317 12.3318 280.992 12.1031C280.262 11.9592 279.503 11.8354 278.763 11.7148C278.622 11.6918 278.482 11.6688 278.342 11.6459H277.845C277.742 11.5604 277.649 11.4819 277.556 11.4035C277.462 11.3248 277.369 11.246 277.265 11.1601L277.141 10.9887C277.348 10.6458 277.969 10.5029 278.549 10.3886C279.087 10.2743 279.253 9.98856 278.756 9.90283C277.669 9.70003 278.041 9.54041 278.409 9.38311C278.559 9.31876 278.708 9.25481 278.756 9.18844C279.087 9.04556 279.46 8.95984 279.874 8.95984C280.247 8.95984 280.702 8.87411 280.785 8.70265C281.014 8.29969 281.569 8.04711 282.127 7.79344C282.479 7.63337 282.832 7.47287 283.104 7.27388C283.269 7.15957 283.518 7.07384 283.766 7.01669C285.795 6.55948 286.872 5.64506 287.534 4.58777C287.866 4.01626 286.955 3.7305 285.298 3.87338C285.016 3.89506 284.739 3.94142 284.454 3.98905C283.989 4.06697 283.504 4.1483 282.938 4.13057C283.518 3.55906 283.477 2.98754 282.607 2.58748C281.253 1.93611 279.776 1.39702 277.815 1.9438C276.949 1.34345 275.809 1.1173 274.791 1.01649C273.684 0.90678 272.439 0.923582 271.24 0.976535C270.521 1.00828 269.764 1.05637 269.052 1.10165C268.599 1.13044 268.163 1.1581 267.767 1.1797C266.679 1.239 265.841 1.25573 265.289 1.19296C260.733 0.675014 256.439 0.59637 251.947 0.585099C250.292 0.395167 248.602 0.265625 246.875 0.265625C229.709 0.265625 212.561 0.345063 195.421 0.42448L195.413 0.424515C178.275 0.503925 161.143 0.583302 144 0.583302ZM13.2004 47.2035C13.1868 47.1908 13.1622 47.178 13.1376 47.1653C13.1192 47.1558 13.1008 47.1463 13.087 47.1367L13.1817 47.202L13.2004 47.2035ZM2.27973 40.8501C2.27973 40.8627 2.27973 40.8697 2.28322 40.8736C2.28768 40.8787 2.29786 40.8787 2.32108 40.8787L2.27973 40.8501ZM271.815 34.5349C271.814 34.5349 271.814 34.5349 271.814 34.5351C271.814 34.5352 271.814 34.5355 271.815 34.536C271.818 34.5381 271.827 34.5445 271.841 34.5635C271.841 34.5492 271.851 34.5421 271.862 34.5349C271.872 34.5278 271.882 34.5206 271.882 34.5064C271.841 34.5349 271.82 34.5349 271.815 34.5349ZM273.083 43.0219C273.021 43.1219 272.949 43.2147 272.876 43.3076C272.804 43.4005 272.731 43.4934 272.669 43.5934C272.959 43.3933 273.166 43.2219 273.083 43.0219Z" fill="#343434"/>
</svg>
