<svg width="14" height="17" viewBox="0 0 14 17" fill="none" xmlns="http://www.w3.org/2000/svg">
<g clip-path="url(#clip0_2969_14083)">
<path d="M3 4.53857C3 5.59944 3.42143 6.61686 4.17157 7.367C4.92172 8.11715 5.93913 8.53857 7 8.53857C8.06087 8.53857 9.07828 8.11715 9.82843 7.367C10.5786 6.61686 11 5.59944 11 4.53857C11 3.47771 10.5786 2.46029 9.82843 1.71015C9.07828 0.960002 8.06087 0.538574 7 0.538574C5.93913 0.538574 4.92172 0.960002 4.17157 1.71015C3.42143 2.46029 3 3.47771 3 4.53857ZM5.95312 10.7948L6.53438 11.7636L5.49375 15.6354L4.36875 11.0448C4.30625 10.7917 4.0625 10.6261 3.80938 10.6917C1.62188 11.2386 0 13.2198 0 15.5792C0 16.1104 0.43125 16.5386 0.959375 16.5386H5.07812C5.07812 16.5386 5.07812 16.5386 5.08125 16.5386H5.25H8.75H8.92188C8.92188 16.5386 8.92188 16.5386 8.925 16.5386H13.0406C13.5719 16.5386 14 16.1073 14 15.5792C14 13.2198 12.3781 11.2386 10.1906 10.6917C9.9375 10.6292 9.69375 10.7948 9.63125 11.0448L8.50625 15.6354L7.46562 11.7636L8.04688 10.7948C8.24687 10.4604 8.00625 10.0386 7.61875 10.0386H7H6.38438C5.99688 10.0386 5.75625 10.4636 5.95625 10.7948H5.95312Z" fill="#955DEF"/>
</g>
<defs>
<clipPath id="clip0_2969_14083">
<rect width="14" height="16" fill="white" transform="translate(0 0.538574)"/>
</clipPath>
</defs>
</svg>
