<svg width="42" height="43" viewBox="0 0 42 43" fill="none" xmlns="http://www.w3.org/2000/svg">
<path d="M27.8047 17.1611L30.8594 17.6924C30.9922 18.4229 31.125 19.1533 31.125 19.9502C31.125 25.8604 26.3437 30.5752 20.5 30.5752C14.5898 30.5752 9.875 25.8604 9.875 19.9502C9.875 14.1064 14.5898 9.3252 20.5 9.3252C21.2305 9.3252 22.0273 9.45801 22.7578 9.59082L23.2891 12.6455L22.957 12.9775C22.1602 12.7119 21.3633 12.5127 20.5 12.5127C16.3828 12.5127 13.0625 15.8994 13.0625 19.9502C13.0625 24.0674 16.3828 27.3877 20.5 27.3877C24.5508 27.3877 27.9375 24.0674 27.9375 19.9502C27.9375 19.0869 27.7383 18.29 27.4727 17.4932L27.8047 17.1611ZM36.5039 14.3721C37.1016 16.0986 37.5 18.0244 37.5 19.9502C37.5 29.3799 29.8633 36.9502 20.5 36.9502C11.0703 36.9502 3.5 29.3799 3.5 19.9502C3.5 10.5869 11.0703 2.9502 20.5 2.9502C22.4258 2.9502 24.3516 3.34863 26.0781 3.94629L23.4883 6.53613C22.4922 6.27051 21.4961 6.1377 20.5 6.1377C12.8633 6.1377 6.6875 12.3799 6.6875 19.9502C6.6875 27.5869 12.8633 33.7627 20.5 33.7627C28.0703 33.7627 34.3125 27.5869 34.3125 19.9502C34.3125 18.9541 34.1797 17.8916 33.9141 16.9619L36.5039 14.3721ZM21.5625 21.0791C20.9648 21.7432 19.9687 21.7432 19.3711 21.0791C18.707 20.4814 18.707 19.4854 19.3711 18.8213L25.4805 12.7119L24.8828 9.3916C24.8164 8.72754 25.0156 7.99707 25.4805 7.53223L28.8672 4.14551C29.3984 3.61426 30.3281 3.74707 30.6602 4.47754L32.1875 8.2627L35.9727 9.79004C36.7031 10.1221 36.8359 10.9854 36.3047 11.583L32.918 14.9697C32.4531 15.4346 31.7227 15.6338 31.0586 15.5674L27.7383 14.9697L21.5625 21.0791Z" fill="#ACAEB0"/>
</svg>
