<svg width="21" height="16" viewBox="0 0 21 16" fill="none" xmlns="http://www.w3.org/2000/svg">
<path d="M14.4688 7C14.4688 7.40625 14.3438 7.8125 14.0312 8.0625L8.5625 13.5312C8.28125 13.8438 7.875 14 7.46875 14C7.09375 14 6.6875 13.8438 6.40625 13.5312L0.9375 8.0625C0.625 7.78125 0.46875 7.375 0.46875 7C0.46875 6.625 0.625 6.21875 0.9375 5.9375L6.40625 0.46875C6.6875 0.15625 7.09375 0 7.46875 0C7.875 0 8.28125 0.15625 8.53125 0.46875L14 5.9375C14.3125 6.21875 14.4688 6.625 14.4688 7ZM3.5 7.75C3.90625 7.75 4.25 7.4375 4.25 7C4.25 6.59375 3.875 6.3125 3.5 6.3125C3.09375 6.3125 2.75 6.65625 2.75 7.03125C2.75 7.4375 3.0625 7.75 3.5 7.75ZM7.5 11.75C7.90625 11.75 8.21875 11.4375 8.21875 11.0312C8.21875 10.6562 7.875 10.3125 7.5 10.3125C7.09375 10.3125 6.75 10.6562 6.75 11.0312C6.75 11.4375 7.0625 11.75 7.5 11.75ZM7.5 7.75C7.90625 7.75 8.25 7.4375 8.25 7C8.25 6.59375 7.875 6.3125 7.5 6.3125C7.09375 6.3125 6.75 6.65625 6.75 7.03125C6.75 7.4375 7.0625 7.75 7.5 7.75ZM7.5 3.75C7.90625 3.75 8.21875 3.4375 8.21875 3.03125C8.21875 2.65625 7.875 2.3125 7.5 2.3125C7.09375 2.3125 6.75 2.65625 6.75 3.03125C6.75 3.4375 7.0625 3.75 7.5 3.75ZM11.5 7.75C11.9062 7.75 12.2188 7.4375 12.2188 7.03125C12.2188 6.65625 11.875 6.3125 11.5 6.3125C11.0938 6.3125 10.75 6.65625 10.75 7.03125C10.75 7.4375 11.0625 7.75 11.5 7.75ZM18.9688 6C19.8125 6 20.4688 6.6875 20.4375 7.5V14.5312C20.4375 15.3438 19.7812 16 18.9688 16H12C11.1562 16 10.5 15.3438 10.4688 14.5V13.0625L14.7188 8.8125C15.2188 8.3125 15.4688 7.65625 15.4688 7.03125C15.4688 6.6875 15.375 6.34375 15.25 6H18.9688ZM15.4688 11.75C15.9062 11.75 16.1875 11.4375 16.1875 11.0312C16.1875 10.6562 15.8438 10.3125 15.4688 10.3125C15.0625 10.3125 14.75 10.6562 14.75 11.0312C14.75 11.4375 15.0312 11.75 15.4688 11.75Z" fill="#DD54FF"/>
</svg>
