<svg width="16" height="15" viewBox="0 0 16 15" fill="none" xmlns="http://www.w3.org/2000/svg">
<path d="M10 10.0435C10 10.3247 9.75 10.5435 9.5 10.5435H6.5C6.21875 10.5435 6 10.3247 6 10.0435V8.54346H0V13.0435C0 13.856 0.6875 14.5435 1.5 14.5435H14.5C15.2812 14.5435 16 13.856 16 13.0435V8.54346H10V10.0435ZM14.5 3.54346H12V2.04346C12 1.26221 11.2812 0.543457 10.5 0.543457H5.5C4.6875 0.543457 4 1.26221 4 2.04346V3.54346H1.5C0.6875 3.54346 0 4.26221 0 5.04346V7.54346H16V5.04346C16 4.26221 15.2812 3.54346 14.5 3.54346ZM10 3.54346H6V2.54346H10V3.54346Z" fill="white"/>
</svg>
