<svg width="20" height="17" viewBox="0 0 20 17" fill="none" xmlns="http://www.w3.org/2000/svg">
<path d="M12.375 8.05273L10.6172 11.5684C10.4062 11.9902 9.80859 11.9551 9.59766 11.5332L7.59375 7.10352L6.53906 9.63477L3.09375 9.59961L9.28125 16.0332C9.73828 16.4902 10.4766 16.4902 10.8984 16.0332L17.1211 9.59961L13.1836 9.63477L12.375 8.05273ZM17.4023 1.68945C15.4688 0.0371094 12.5508 0.353516 10.793 2.14648L10.125 2.88477L9.42188 2.14648C7.66406 0.353516 4.74609 0.0371094 2.8125 1.68945C0.808594 3.44727 0.5625 6.43555 2.10938 8.47461H5.80078L7.06641 5.45117C7.24219 4.99414 7.875 4.99414 8.08594 5.45117L10.125 9.98633L11.8477 6.54102C12.0586 6.1543 12.6562 6.1543 12.8672 6.54102L13.8516 8.50977H18.1055C19.6523 6.43555 19.4062 3.44727 17.4023 1.68945Z" fill="#BABFC9"/>
</svg>
