<svg width="119" height="56" viewBox="0 0 119 56" fill="none" xmlns="http://www.w3.org/2000/svg">
<path d="M55.1668 24.9814C55.1668 24.9814 54.3358 25.1896 53.297 24.9814C52.2583 24.7732 51.2196 24.3569 51.2196 23.316V13.948H55.1668L54.128 9.15985H51.2196V2.08179L43.9484 3.12268V14.7807C42.4942 10.4089 38.3393 7.49443 33.3534 7.49443C28.5752 7.49443 24.4203 10.4089 22.9661 14.7807V11.2416C22.9661 11.2416 21.3041 7.91078 14.2407 7.91078C12.5787 7.91078 10.9168 8.11896 9.46253 8.53532V2.08179L2.19141 3.12268V29.3532H9.46253V13.7398C11.1245 13.5316 12.1632 13.3234 13.6175 13.5316C14.6562 13.7398 15.6949 14.1561 15.6949 15.6134V29.3532H22.9661V22.4833C24.628 26.6468 28.5752 29.7695 33.3534 29.7695C38.1315 29.7695 42.2865 26.6468 43.9484 22.2751V27.2714C43.9484 27.2714 46.6492 29.3532 51.0118 29.3532C55.3745 29.3532 56.4132 28.7286 56.4132 28.7286L55.1668 24.9814ZM33.3534 23.7323C30.2372 23.7323 28.783 21.026 28.783 18.5279C28.783 16.0297 30.2372 13.3234 33.3534 13.3234C36.4696 13.3234 37.9238 16.0297 37.9238 18.5279C37.9238 21.026 36.4696 23.7323 33.3534 23.7323Z" fill="#C9CFD4"/>
<path d="M69.2936 1.66528C67.2162 1.66528 65.5542 3.33071 65.5542 5.4125C65.5542 7.49428 67.2162 9.15971 69.2936 9.15971C71.3711 9.15971 73.0331 7.49428 73.0331 5.4125C73.0331 3.33071 71.3711 1.66528 69.2936 1.66528ZM65.7619 29.1448H73.0331V10.8251H65.7619V29.1448ZM56.6211 28.9367H63.8922V2.08164L56.6211 3.12253V28.9367ZM106.065 24.7731C103.987 24.1486 102.741 23.1077 102.325 21.6504H117.283V19.5686C117.283 12.0742 112.089 7.49428 106.273 7.49428C101.494 7.49428 97.5471 10.4088 95.8852 14.5723V11.2415C95.8852 11.2415 93.1845 7.91064 86.9521 7.70246C80.7197 7.49428 75.1105 8.74335 75.1105 8.74335V29.353H82.3817V13.7396C84.0436 13.5315 85.0824 13.3233 86.5366 13.5315C87.5753 13.7396 88.6141 14.156 88.6141 15.6132V29.353H95.6774V22.6913C97.3394 26.8549 101.287 29.7694 106.065 29.7694C110.22 29.7694 113.336 28.7285 115.206 26.0222L112.713 23.524C110.22 25.1894 107.519 24.9813 106.065 24.7731ZM106.065 12.9069C108.973 12.9069 110.22 14.9887 110.427 16.8623H101.702C101.91 14.9887 103.156 12.9069 106.065 12.9069Z" fill="#C9CFD4"/>
<path d="M117.698 53.2933C117.698 54.5424 116.659 55.5833 115.413 55.5833H4.68365C3.43717 55.5833 2.39844 54.5424 2.39844 53.2933V37.2636C2.39844 36.0145 3.43717 34.9736 4.68365 34.9736H115.413C116.659 34.9736 117.698 36.0145 117.698 37.2636V53.2933Z" fill="#C9CFD4"/>
<path d="M11.332 51.2123V39.1379H20.4729V41.6361H14.0327V44.1342H19.8496V46.6324H14.0327V51.2123H11.332Z" fill="#F1F3F3"/>
<path d="M25.668 51.2123V39.1379H28.3687V51.2123H25.668Z" fill="#F1F3F3"/>
<path d="M34.3906 51.2123V39.1379H36.8836L42.4927 46.6324V39.1379H45.1934V51.2123H42.9082L37.0913 43.5097V51.2123H34.3906Z" fill="#F1F3F3"/>
<path d="M49.7656 51.2122L54.9593 38.9297H57.4522L62.6459 51.2122H59.9452L58.9065 48.5059H53.7128L52.6741 51.2122H49.7656ZM54.5438 46.2159H57.66L56.2058 42.2605L54.5438 46.2159Z" fill="#F1F3F3"/>
<path d="M67.4219 51.2123V39.1379H69.9148L75.524 46.6324V39.1379H78.2247V51.2123H75.9395L70.1226 43.5097V51.2123H67.4219Z" fill="#F1F3F3"/>
<path d="M89.6543 51.4204C87.7846 51.4204 86.3303 50.7959 85.2916 49.5468C84.0451 48.2977 83.4219 46.8405 83.4219 45.175C83.4219 43.5096 84.0451 41.8442 85.2916 40.8033C86.5381 39.5542 87.9923 38.9297 89.862 38.9297C90.9008 38.9297 91.7317 39.1379 92.5627 39.346C93.186 39.7624 94.017 40.1788 94.6402 40.8033L92.9782 42.6769C92.5627 42.2605 91.9395 41.8442 91.524 41.636C91.1085 41.4278 90.4853 41.2196 89.862 41.2196C88.8233 41.2196 87.9923 41.636 87.3691 42.2605C86.7458 43.0933 86.3303 43.926 86.3303 44.9669C86.3303 46.0078 86.7458 46.8405 87.3691 47.6732C87.9923 48.5059 88.8233 48.7141 89.862 48.7141C90.4853 48.7141 91.1085 48.5059 91.524 48.2977C91.9395 48.0895 92.5627 47.6732 92.9782 47.2568L94.6402 49.1304C94.017 49.755 93.186 50.3795 92.5627 50.5877C91.7317 51.2122 90.693 51.4204 89.6543 51.4204Z" fill="#F1F3F3"/>
<path d="M99.625 51.2123V39.1379H108.766V41.4279H102.326V43.926H107.935V46.216H102.326V48.7141H108.974V51.0041H99.625V51.2123Z" fill="#F1F3F3"/>
</svg>
