<svg width="196" height="48" viewBox="0 0 196 48" fill="none" xmlns="http://www.w3.org/2000/svg">
<path d="M32.4193 44.8493C32.4193 46.5551 26.6573 47.938 19.5495 47.938C12.4417 47.938 6.67969 46.5551 6.67969 44.8493C6.67969 43.1434 12.4417 41.7605 19.5495 41.7605C26.6573 41.7605 32.4193 43.1434 32.4193 44.8493Z" fill="#EBEEF4"/>
<path d="M5.80834 6.02724C13.2413 -1.92607 25.8538 -1.92607 33.2868 6.02724C40.0417 13.255 40.0417 24.4803 33.2868 31.7081L24.0904 41.5482C21.6327 44.178 17.4625 44.178 15.0048 41.5482L5.80834 31.7081C-0.94653 24.4803 -0.946531 13.255 5.80834 6.02724Z" fill="#DCE4E7"/>
<path d="M28.2998 17.0359V26.3323C28.2998 28.0381 26.9169 29.421 25.2111 29.421H13.8856C12.1798 29.421 10.7969 28.0381 10.7969 26.3323V17.0359C10.7969 16.1177 11.2054 15.247 11.9116 14.6602L17.5743 9.95482C18.7186 9.00399 20.3781 9.00399 21.5224 9.95482L27.1851 14.6602C27.8913 15.247 28.2998 16.1176 28.2998 17.0359Z" fill="#C9CFD4"/>
<path d="M15.4297 18.6104C15.4297 18.0418 15.8906 17.5808 16.4593 17.5808H18.0036C18.5723 17.5808 19.0332 18.0418 19.0332 18.6104V20.1548C19.0332 20.7234 18.5723 21.1844 18.0036 21.1844H16.4593C15.8906 21.1844 15.4297 20.7234 15.4297 20.1548V18.6104Z" fill="#DCE4E7"/>
<path d="M20.0625 18.6104C20.0625 18.0418 20.5235 17.5808 21.0921 17.5808H22.6365C23.2051 17.5808 23.666 18.0418 23.666 18.6104V20.1548C23.666 20.7234 23.2051 21.1844 22.6365 21.1844H21.0921C20.5235 21.1844 20.0625 20.7234 20.0625 20.1548V18.6104Z" fill="#DCE4E7"/>
<path d="M15.4297 23.2435C15.4297 22.6748 15.8906 22.2139 16.4593 22.2139H18.0036C18.5723 22.2139 19.0332 22.6748 19.0332 23.2435V24.7878C19.0332 25.3565 18.5723 25.8174 18.0036 25.8174H16.4593C15.8906 25.8174 15.4297 25.3565 15.4297 24.7878V23.2435Z" fill="#DCE4E7"/>
<path d="M20.0625 23.2435C20.0625 22.6748 20.5235 22.2139 21.0921 22.2139H22.6365C23.2051 22.2139 23.666 22.6748 23.666 23.2435V24.7878C23.666 25.3565 23.2051 25.8174 22.6365 25.8174H21.0921C20.5235 25.8174 20.0625 25.3565 20.0625 24.7878V23.2435Z" fill="#DCE4E7"/>
<path d="M51.7422 30.6293V12.4188H56.46V19.321H63.1503V12.4188H67.8682V30.6293H63.1503V23.0395H56.46V30.6293H51.7422Z" fill="#C9CFD4"/>
<path d="M79.1464 27.3947C80.6391 27.3947 81.7763 26.8598 82.5582 25.7901C83.3578 24.7035 83.7576 23.2942 83.7576 21.5623C83.7576 19.8304 83.3578 18.4211 82.5582 17.3344C81.7763 16.2477 80.6391 15.7043 79.1464 15.7043C77.6715 15.7043 76.5254 16.2477 75.708 17.3344C74.9083 18.4211 74.5085 19.8304 74.5085 21.5623C74.5085 23.2772 74.9083 24.678 75.708 25.7647C76.5254 26.8514 77.6715 27.3947 79.1464 27.3947ZM85.97 28.388C84.2463 30.1708 81.9629 31.0623 79.1198 31.0623C76.2766 31.0623 73.9932 30.1708 72.2695 28.388C70.5636 26.6052 69.7107 24.3299 69.7107 21.5623C69.7107 18.7946 70.5636 16.5194 72.2695 14.7365C73.9932 12.9537 76.2766 12.0623 79.1198 12.0623C81.9629 12.0623 84.2463 12.9537 85.97 14.7365C87.6936 16.5194 88.5555 18.7946 88.5555 21.5623C88.5555 24.3299 87.6936 26.6052 85.97 28.388Z" fill="#C9CFD4"/>
<path d="M98.2596 30.9604C95.6297 30.9604 93.6395 30.3746 92.289 29.203C90.9385 28.0314 90.2632 26.3674 90.2632 24.211V12.4188H94.9811V24.3639C94.9811 26.3505 96.0739 27.3438 98.2596 27.3438C99.308 27.3438 100.108 27.0721 100.659 26.5287C101.209 25.9684 101.485 25.2213 101.485 24.2875V12.4188H106.203V24.211C106.203 26.3505 105.527 28.0144 104.177 29.203C102.844 30.3746 100.872 30.9604 98.2596 30.9604Z" fill="#C9CFD4"/>
<path d="M116.396 31.0623C113.82 31.0623 111.767 30.5359 110.239 29.4832C108.729 28.4135 107.947 26.8853 107.893 24.8987H112.638C112.833 26.6306 114.077 27.4966 116.37 27.4966C117.222 27.4966 117.942 27.3438 118.529 27.0381C119.133 26.7155 119.435 26.2316 119.435 25.5864C119.435 25.1449 119.248 24.7799 118.875 24.4912C118.502 24.1856 118.12 23.9733 117.729 23.8545C117.356 23.7356 116.636 23.5489 115.57 23.2942C115.517 23.2772 115.481 23.2687 115.463 23.2687C115.445 23.2517 115.419 23.2432 115.383 23.2432C115.348 23.2262 115.312 23.2178 115.277 23.2178C114.459 23.031 113.784 22.8697 113.251 22.7338C112.736 22.581 112.14 22.3603 111.465 22.0716C110.808 21.766 110.283 21.4349 109.892 21.0783C109.502 20.7218 109.164 20.2548 108.88 19.6775C108.613 19.0833 108.48 18.4211 108.48 17.6909C108.48 15.8232 109.173 14.4224 110.559 13.4885C111.963 12.5547 113.793 12.0877 116.05 12.0877C118.218 12.0877 119.986 12.5631 121.354 13.514C122.74 14.4648 123.477 15.8572 123.566 17.6909H118.955C118.866 16.9948 118.555 16.4599 118.022 16.0864C117.489 15.6959 116.778 15.5006 115.89 15.5006C115.072 15.5006 114.406 15.6619 113.891 15.9845C113.393 16.2901 113.144 16.6976 113.144 17.207C113.144 17.7843 113.446 18.2088 114.051 18.4805C114.655 18.7352 115.792 19.0408 117.462 19.3974C118.511 19.6351 119.373 19.8728 120.048 20.1105C120.723 20.3312 121.407 20.6539 122.1 21.0783C122.811 21.5028 123.335 22.0547 123.673 22.7338C124.028 23.396 124.206 24.1941 124.206 25.1279C124.206 26.9787 123.469 28.4304 121.994 29.4832C120.537 30.5359 118.671 31.0623 116.396 31.0623Z" fill="#C9CFD4"/>
<path d="M126.135 30.6293V12.4188H140.582V16.1373H130.853V19.3974H139.196V22.9121H130.853V26.8089H140.742V30.6293H126.135Z" fill="#C9CFD4"/>
<path d="M143.742 30.6802V12.4698H151.772C153.784 12.4698 155.311 13.0556 156.353 14.2271C157.215 15.178 157.646 16.3326 157.646 17.6909C157.646 19.3889 157.125 20.7048 156.083 21.6387C155.041 22.5725 153.487 23.0395 151.422 23.0395H146.167V30.6802H143.742ZM146.167 14.4564V21.1802H151.233C152.562 21.1802 153.559 20.8831 154.224 20.2888C154.907 19.6945 155.248 18.8625 155.248 17.7928C155.248 16.7061 154.907 15.8826 154.224 15.3223C153.559 14.745 152.607 14.4564 151.368 14.4564H146.167Z" fill="#C9CFD4"/>
<path d="M159.978 30.6802V12.4698H168.978C170.666 12.4698 172.031 12.9282 173.073 13.8451C174.133 14.762 174.663 15.9675 174.663 17.4617C174.663 19.7879 173.549 21.2906 171.322 21.9698V22.0462C172.274 22.3688 172.947 22.8782 173.343 23.5743C173.756 24.2535 174.007 25.2892 174.097 26.6816C174.277 29.0077 174.573 30.3067 174.986 30.5783V30.6802H172.373C172.175 30.5274 172.031 30.2048 171.941 29.7124C171.87 29.22 171.78 28.1842 171.672 26.6052C171.582 25.2808 171.232 24.3469 170.621 23.8035C170.028 23.2602 169.076 22.9885 167.765 22.9885H162.403V30.6802H159.978ZM162.403 14.4564V21.1293H168.115C169.445 21.1293 170.451 20.8406 171.133 20.2633C171.816 19.669 172.157 18.8455 172.157 17.7928C172.157 16.6552 171.852 15.8147 171.241 15.2714C170.63 14.728 169.633 14.4564 168.25 14.4564H162.403Z" fill="#C9CFD4"/>
<path d="M193.155 28.388C191.449 30.1708 189.168 31.0623 186.311 31.0623C183.455 31.0623 181.165 30.1708 179.44 28.388C177.734 26.6052 176.88 24.3299 176.88 21.5623C176.88 18.7946 177.734 16.5194 179.44 14.7365C181.165 12.9537 183.455 12.0623 186.311 12.0623C189.168 12.0623 191.449 12.9537 193.155 14.7365C194.88 16.5194 195.742 18.7946 195.742 21.5623C195.742 24.3299 194.88 26.6052 193.155 28.388ZM181.192 26.9617C182.413 28.354 184.12 29.0502 186.311 29.0502C188.503 29.0502 190.209 28.354 191.431 26.9617C192.652 25.5694 193.263 23.7696 193.263 21.5623C193.263 19.3549 192.652 17.5551 191.431 16.1628C190.209 14.7535 188.503 14.0488 186.311 14.0488C184.12 14.0488 182.413 14.7535 181.192 16.1628C179.97 17.5551 179.359 19.3549 179.359 21.5623C179.359 23.7696 179.97 25.5694 181.192 26.9617Z" fill="#C9CFD4"/>
</svg>
