<svg width="203" height="30" viewBox="0 0 203 30" fill="none" xmlns="http://www.w3.org/2000/svg">
<g clip-path="url(#clip0_2501_56966)">
<path d="M0.253906 0H29.7627V30H0.253906V0Z" fill="#DCE4E7"/>
<path d="M10.6953 9.23071H26.5847V26.3076H10.6953V9.23071Z" fill="#BFC9CE"/>
<path d="M17.9595 6.46163C17.9595 7.99101 16.74 9.23083 15.2356 9.23083C13.7312 9.23083 12.5117 7.99101 12.5117 6.46163C12.5117 4.93221 13.7312 3.69238 15.2356 3.69238C16.74 3.69238 17.9595 4.93221 17.9595 6.46163ZM13.8736 6.46163C13.8736 7.22632 14.4834 7.84623 15.2356 7.84623C15.9878 7.84623 16.5976 7.22632 16.5976 6.46163C16.5976 5.69694 15.9878 5.077 15.2356 5.077C14.4834 5.077 13.8736 5.69694 13.8736 6.46163Z" fill="#C9CFD4"/>
<path d="M25.2251 6.46163C25.2251 7.99101 24.0056 9.23083 22.5013 9.23083C20.9969 9.23083 19.7773 7.99101 19.7773 6.46163C19.7773 4.93221 20.9969 3.69238 22.5013 3.69238C24.0056 3.69238 25.2251 4.93221 25.2251 6.46163ZM21.1393 6.46163C21.1393 7.22632 21.7491 7.84623 22.5013 7.84623C23.2534 7.84623 23.8632 7.22632 23.8632 6.46163C23.8632 5.69694 23.2534 5.077 22.5013 5.077C21.7491 5.077 21.1393 5.69694 21.1393 6.46163Z" fill="#C9CFD4"/>
<path d="M15.2347 14.7693H12.9648V17.077H15.2347V14.7693Z" fill="#C9CFD4"/>
<path d="M17.5082 14.7693H15.2383V17.077H17.5082V14.7693Z" fill="#C9CFD4"/>
<path d="M12.9653 17.0769H10.6953V19.3846H12.9653V17.0769Z" fill="#C9CFD4"/>
<path d="M15.2347 17.0769H12.9648V19.3846H15.2347V17.0769Z" fill="#C9CFD4"/>
<path d="M17.5082 17.0769H15.2383V19.3846H17.5082V17.0769Z" fill="#C9CFD4"/>
<path d="M19.7777 17.0769H17.5078V19.3846H19.7777V17.0769Z" fill="#C9CFD4"/>
<path d="M10.6957 19.3848H8.42578V21.6924H10.6957V19.3848Z" fill="#C9CFD4"/>
<path d="M12.9653 19.3848H10.6953V21.6924H12.9653V19.3848Z" fill="#C9CFD4"/>
<path d="M15.2347 19.3848H12.9648V21.6924H15.2347V19.3848Z" fill="#C9CFD4"/>
<path d="M17.5082 19.3848H15.2383V21.6924H17.5082V19.3848Z" fill="#C9CFD4"/>
<path d="M19.7777 19.3848H17.5078V21.6924H19.7777V19.3848Z" fill="#C9CFD4"/>
<path d="M22.0473 19.3848H19.7773V21.6924H22.0473V19.3848Z" fill="#C9CFD4"/>
<path d="M8.42614 21.6924H6.15625V24.0001H8.42614V21.6924Z" fill="#C9CFD4"/>
<path d="M10.6957 21.6924H8.42578V24.0001H10.6957V21.6924Z" fill="#C9CFD4"/>
<path d="M12.9653 21.6924H10.6953V24.0001H12.9653V21.6924Z" fill="#C9CFD4"/>
<path d="M15.2347 21.6924H12.9648V24.0001H15.2347V21.6924Z" fill="#C9CFD4"/>
<path d="M17.5082 21.6924H15.2383V24.0001H17.5082V21.6924Z" fill="#C9CFD4"/>
<path d="M19.7777 21.6924H17.5078V24.0001H19.7777V21.6924Z" fill="#C9CFD4"/>
<path d="M22.0473 21.6924H19.7773V24.0001H22.0473V21.6924Z" fill="#C9CFD4"/>
<path d="M24.3168 21.6924H22.0469V24.0001H24.3168V21.6924Z" fill="#C9CFD4"/>
<path d="M6.15662 24H3.88672V26.3077H6.15662V24Z" fill="#C9CFD4"/>
<path d="M8.42614 24H6.15625V26.3077H8.42614V24Z" fill="#C9CFD4"/>
<path d="M10.6957 24H8.42578V26.3077H10.6957V24Z" fill="#C9CFD4"/>
<path d="M12.9653 24H10.6953V26.3077H12.9653V24Z" fill="#C9CFD4"/>
<path d="M15.2347 24H12.9648V26.3077H15.2347V24Z" fill="#C9CFD4"/>
<path d="M17.5082 24H15.2383V26.3077H17.5082V24Z" fill="#C9CFD4"/>
<path d="M19.7777 24H17.5078V26.3077H19.7777V24Z" fill="#C9CFD4"/>
<path d="M22.0473 24H19.7773V26.3077H22.0473V24Z" fill="#C9CFD4"/>
<path d="M24.3168 24H22.0469V26.3077H24.3168V24Z" fill="#C9CFD4"/>
<path d="M26.5863 24H24.3164V26.3077H26.5863V24Z" fill="#C9CFD4"/>
<path d="M150.597 0H29.7617V30H150.597V0Z" fill="#C9CFD4"/>
<path d="M45.3641 9.11646V20.8837H43.0508V9.11646H45.3641Z" fill="#F1F3F3"/>
<path d="M59.3587 9.11646V20.8837H57.1089L53.4757 13.5211V20.8837H51.2656V9.11646H53.4839L57.1486 16.5599V9.11646H59.3587Z" fill="#F1F3F3"/>
<path d="M68.751 18.3702L70.9453 9.11646H73.4571L70.1023 20.8837H68.4091L68.751 18.3702ZM66.8751 9.11646L69.0613 18.3702L69.419 20.8837H67.7176L64.3867 9.11646H66.8751Z" fill="#F1F3F3"/>
<path d="M85.1145 18.9279V20.8837H80.0822V18.9279H85.1145ZM80.8057 9.11646V20.8837H78.4766V9.11646H80.8057ZM84.4389 13.8848V15.784H80.0822V13.8848H84.4389ZM85.0987 9.11646V11.0804H80.0822V9.11646H85.0987Z" fill="#F1F3F3"/>
<path d="M98.4832 9.11646V20.8837H96.2334L92.6007 13.5211V20.8837H90.3906V9.11646H92.6084L96.2731 16.5599V9.11646H98.4832Z" fill="#F1F3F3"/>
<path d="M108.405 9.11646V20.8837H106.092V9.11646H108.405ZM111.283 9.11646V11.0804H103.27V9.11646H111.283Z" fill="#F1F3F3"/>
<path d="M124.206 14.0869V16.0507C124.206 16.8805 124.105 17.6079 123.904 18.2329C123.708 18.8525 123.427 19.3724 123.061 19.7926C122.701 20.2075 122.263 20.52 121.749 20.7301C121.241 20.9403 120.676 21.0454 120.056 21.0454C119.436 21.0454 118.869 20.9403 118.355 20.7301C117.846 20.52 117.406 20.2075 117.035 19.7926C116.669 19.3724 116.386 18.8525 116.185 18.2329C115.984 17.6079 115.883 16.8805 115.883 16.0507V14.0869C115.883 13.2355 115.98 12.492 116.177 11.8562C116.373 11.2151 116.656 10.6816 117.028 10.256C117.398 9.82499 117.838 9.50171 118.347 9.28618C118.856 9.06527 119.42 8.95483 120.04 8.95483C120.66 8.95483 121.225 9.06527 121.734 9.28618C122.242 9.50171 122.682 9.82499 123.053 10.256C123.424 10.6816 123.708 11.2151 123.904 11.8562C124.105 12.492 124.206 13.2355 124.206 14.0869ZM121.892 16.0507V14.0707C121.892 13.5103 121.853 13.0335 121.773 12.6402C121.693 12.2415 121.574 11.9155 121.416 11.6623C121.256 11.409 121.063 11.2231 120.835 11.1046C120.607 10.9861 120.342 10.9268 120.04 10.9268C119.738 10.9268 119.471 10.9861 119.237 11.1046C119.009 11.2231 118.816 11.409 118.657 11.6623C118.503 11.9155 118.386 12.2415 118.307 12.6402C118.233 13.0335 118.196 13.5103 118.196 14.0707V16.0507C118.196 16.5895 118.236 17.0502 118.315 17.4327C118.395 17.8153 118.514 18.1278 118.673 18.3702C118.832 18.6127 119.025 18.7932 119.253 18.9117C119.486 19.0249 119.754 19.0814 120.056 19.0814C120.353 19.0814 120.615 19.0249 120.843 18.9117C121.076 18.7932 121.27 18.6127 121.423 18.3702C121.577 18.1278 121.693 17.8153 121.773 17.4327C121.853 17.0502 121.892 16.5895 121.892 16.0507Z" fill="#F1F3F3"/>
<path d="M129.824 9.11646H133.537C134.31 9.11646 134.97 9.25114 135.516 9.52052C136.062 9.78996 136.48 10.1886 136.772 10.7167C137.064 11.2447 137.209 11.8966 137.209 12.6725C137.209 13.3083 137.125 13.8524 136.955 14.305C136.785 14.7522 136.544 15.1267 136.231 15.4284C135.919 15.7247 135.545 15.9618 135.11 16.1396L134.403 16.5679H131.39L131.382 14.6041H133.473C133.791 14.6041 134.053 14.534 134.26 14.3939C134.472 14.2485 134.628 14.0464 134.729 13.7878C134.835 13.5238 134.888 13.2167 134.888 12.8665C134.888 12.4947 134.84 12.1768 134.745 11.9128C134.655 11.6434 134.509 11.4387 134.308 11.2986C134.112 11.1531 133.855 11.0804 133.537 11.0804H132.153V20.8837H129.824V9.11646ZM135.079 20.8837L132.956 15.6386L135.397 15.6305L137.567 20.7705V20.8837H135.079Z" fill="#F1F3F3"/>
<path d="M203.001 0H150.598V15H203.001V0Z" fill="#DCE4E7"/>
<path d="M170.419 8.72697C170.419 8.63501 170.405 8.55251 170.377 8.47947C170.352 8.40401 170.303 8.33568 170.231 8.27439C170.159 8.21071 170.058 8.14828 169.928 8.08699C169.799 8.0257 169.63 7.96203 169.424 7.89603C169.195 7.82061 168.977 7.73573 168.771 7.64144C168.566 7.54715 168.385 7.43754 168.228 7.31263C168.072 7.18534 167.949 7.03803 167.859 6.87065C167.771 6.70327 167.727 6.50884 167.727 6.28725C167.727 6.07275 167.773 5.87827 167.866 5.7038C167.959 5.52701 168.089 5.37618 168.256 5.25121C168.423 5.12395 168.62 5.02612 168.847 4.95776C169.076 4.8894 169.328 4.85522 169.602 4.85522C169.975 4.85522 170.301 4.92358 170.579 5.0603C170.857 5.19701 171.073 5.3844 171.226 5.62249C171.381 5.86058 171.459 6.13285 171.459 6.43927H170.422C170.422 6.28844 170.391 6.15639 170.328 6.04327C170.268 5.92777 170.175 5.83699 170.05 5.77099C169.927 5.70499 169.772 5.67199 169.584 5.67199C169.403 5.67199 169.253 5.70028 169.132 5.75687C169.012 5.81108 168.921 5.88535 168.861 5.97959C168.801 6.07156 168.771 6.17527 168.771 6.29077C168.771 6.37797 168.791 6.45696 168.833 6.52766C168.877 6.59837 168.942 6.66437 169.028 6.72566C169.113 6.78696 169.219 6.84473 169.344 6.89894C169.47 6.95315 169.615 7.00616 169.779 7.05804C170.055 7.14292 170.297 7.23835 170.506 7.34444C170.717 7.45052 170.893 7.56954 171.035 7.70154C171.176 7.83359 171.283 7.98323 171.355 8.15061C171.426 8.31799 171.462 8.50771 171.462 8.71989C171.462 8.9438 171.419 9.14418 171.334 9.32097C171.248 9.49777 171.124 9.64746 170.961 9.77004C170.799 9.89263 170.606 9.98573 170.381 10.0494C170.156 10.113 169.904 10.1448 169.626 10.1448C169.375 10.1448 169.129 10.1118 168.885 10.0458C168.642 9.97746 168.42 9.87494 168.221 9.73818C168.024 9.60147 167.866 9.42706 167.748 9.21489C167.63 9.00277 167.57 8.7517 167.57 8.46178H168.617C168.617 8.62208 168.642 8.75759 168.69 8.86839C168.739 8.97918 168.808 9.06877 168.896 9.13709C168.986 9.20547 169.093 9.25497 169.216 9.28559C169.341 9.31627 169.478 9.33158 169.626 9.33158C169.807 9.33158 169.955 9.30566 170.071 9.25378C170.189 9.20196 170.276 9.13006 170.332 9.03809C170.39 8.94618 170.419 8.84247 170.419 8.72697Z" fill="#BFC9CE"/>
<path d="M174.472 4.92603V10.0742H173.432V4.92603H174.472ZM176.03 4.92603V5.75695H171.898V4.92603H176.03Z" fill="#BFC9CE"/>
<path d="M180.058 9.24683V10.0742H177.363V9.24683H180.058ZM177.704 4.92603V10.0742H176.66V4.92603H177.704ZM179.707 7.02275V7.82892H177.363V7.02275H179.707ZM180.055 4.92603V5.75695H177.363V4.92603H180.055Z" fill="#BFC9CE"/>
<path d="M181.179 4.92603H182.063L183.363 8.70585L184.664 4.92603H185.548L183.719 10.0742H183.009L181.179 4.92603ZM180.703 4.92603H181.583L181.743 8.61037V10.0742H180.703V4.92603ZM185.144 4.92603H186.028V10.0742H184.984V8.61037L185.144 4.92603Z" fill="#BFC9CE"/>
<path d="M202.967 15H150.594V30H202.967V15Z" fill="#BFC9CE"/>
<path d="M165.653 23.7287C165.653 23.6368 165.639 23.5542 165.612 23.4812C165.586 23.4057 165.537 23.3374 165.465 23.2761C165.393 23.2124 165.293 23.15 165.163 23.0887C165.033 23.0274 164.865 22.9637 164.659 22.8977C164.429 22.8223 164.211 22.7375 164.004 22.6432C163.8 22.5489 163.62 22.4393 163.462 22.3143C163.307 22.1871 163.184 22.0397 163.093 21.8724C163.005 21.705 162.961 21.5106 162.961 21.289C162.961 21.0745 163.008 20.88 163.1 20.7056C163.193 20.5288 163.323 20.3779 163.49 20.253C163.657 20.1257 163.854 20.0278 164.081 19.9595C164.311 19.8911 164.562 19.8569 164.836 19.8569C165.209 19.8569 165.535 19.9253 165.813 20.062C166.091 20.1987 166.307 20.3861 166.46 20.6242C166.615 20.8623 166.693 21.1346 166.693 21.441H165.656C165.656 21.2902 165.625 21.1582 165.563 21.045C165.502 20.9295 165.41 20.8387 165.284 20.7727C165.161 20.7067 165.006 20.6737 164.818 20.6737C164.638 20.6737 164.487 20.702 164.366 20.7586C164.246 20.8128 164.155 20.8871 164.095 20.9814C164.035 21.0733 164.004 21.177 164.004 21.2925C164.004 21.3797 164.025 21.4587 164.067 21.5294C164.111 21.6001 164.176 21.6661 164.262 21.7274C164.348 21.7887 164.453 21.8464 164.578 21.9007C164.703 21.9549 164.848 22.0079 165.013 22.0598C165.289 22.1446 165.531 22.2401 165.74 22.3462C165.951 22.4522 166.127 22.5713 166.269 22.7033C166.41 22.8353 166.517 22.985 166.589 23.1523C166.661 23.3197 166.696 23.5095 166.696 23.7216C166.696 23.9456 166.654 24.1459 166.568 24.3227C166.482 24.4995 166.358 24.6492 166.196 24.7718C166.033 24.8943 165.84 24.9875 165.615 25.0511C165.39 25.1147 165.138 25.1466 164.86 25.1466C164.61 25.1466 164.363 25.1136 164.119 25.0476C163.876 24.9792 163.654 24.8767 163.455 24.7399C163.258 24.6032 163.1 24.4288 162.982 24.2166C162.864 24.0045 162.805 23.7534 162.805 23.4635H163.852C163.852 23.6238 163.876 23.7593 163.924 23.8701C163.973 23.9809 164.042 24.0705 164.13 24.1389C164.22 24.2072 164.327 24.2567 164.45 24.2874C164.575 24.318 164.712 24.3333 164.86 24.3333C165.041 24.3333 165.189 24.3074 165.305 24.2555C165.423 24.2037 165.51 24.1318 165.566 24.0399C165.624 23.9479 165.653 23.8442 165.653 23.7287Z" fill="#DCE4E7"/>
<path d="M170.377 23.3681H171.417C171.396 23.7146 171.303 24.0223 171.136 24.291C170.971 24.5597 170.741 24.7695 170.443 24.9204C170.149 25.0712 169.794 25.1467 169.38 25.1467C169.055 25.1467 168.764 25.0901 168.507 24.9769C168.249 24.8614 168.029 24.6964 167.846 24.4819C167.665 24.2674 167.527 24.0081 167.432 23.704C167.337 23.3999 167.289 23.0593 167.289 22.6822V22.3251C167.289 21.9479 167.338 21.6073 167.435 21.3032C167.535 20.9968 167.676 20.7363 167.859 20.5218C168.045 20.3073 168.266 20.1423 168.524 20.0268C168.781 19.9113 169.069 19.8535 169.386 19.8535C169.809 19.8535 170.164 19.9313 170.454 20.0869C170.746 20.2425 170.972 20.457 171.132 20.7304C171.295 21.0039 171.392 21.315 171.424 21.6639H170.381C170.37 21.4564 170.329 21.2808 170.259 21.137C170.19 20.9909 170.084 20.8813 169.943 20.8082C169.804 20.7328 169.618 20.6951 169.386 20.6951C169.212 20.6951 169.061 20.7281 168.931 20.7941C168.801 20.8601 168.692 20.9602 168.604 21.0946C168.516 21.229 168.45 21.3987 168.405 21.6038C168.364 21.8065 168.343 22.0445 168.343 22.318V22.6822C168.343 22.9485 168.363 23.1831 168.402 23.3858C168.441 23.5862 168.502 23.7559 168.583 23.895C168.666 24.0317 168.773 24.1354 168.903 24.2061C169.035 24.2745 169.194 24.3087 169.38 24.3087C169.597 24.3087 169.777 24.2733 169.918 24.2026C170.06 24.1319 170.168 24.027 170.242 23.8879C170.318 23.7488 170.364 23.5756 170.377 23.3681Z" fill="#DCE4E7"/>
<path d="M175.518 22.0245V22.8519H172.874V22.0245H175.518ZM173.184 19.9277V25.0759H172.141V19.9277H173.184ZM176.262 19.9277V25.0759H175.222V19.9277H176.262Z" fill="#DCE4E7"/>
<path d="M181.364 22.3815V22.6255C181.364 23.0168 181.311 23.368 181.207 23.6792C181.103 23.9903 180.956 24.2555 180.765 24.4748C180.575 24.6916 180.348 24.8578 180.084 24.9733C179.822 25.0888 179.531 25.1466 179.211 25.1466C178.893 25.1466 178.602 25.0888 178.337 24.9733C178.075 24.8578 177.849 24.6916 177.656 24.4748C177.463 24.2555 177.314 23.9903 177.207 23.6792C177.103 23.368 177.051 23.0168 177.051 22.6255V22.3815C177.051 21.9879 177.103 21.6367 177.207 21.3279C177.312 21.0167 177.459 20.7515 177.649 20.5323C177.841 20.3131 178.069 20.1457 178.331 20.0302C178.595 19.9147 178.886 19.8569 179.204 19.8569C179.523 19.8569 179.814 19.9147 180.076 20.0302C180.341 20.1457 180.568 20.3131 180.758 20.5323C180.951 20.7515 181.099 21.0167 181.203 21.3279C181.31 21.6367 181.364 21.9879 181.364 22.3815ZM180.309 22.6255V22.3745C180.309 22.101 180.286 21.8606 180.237 21.6532C180.188 21.4457 180.116 21.2713 180.021 21.1299C179.926 20.9884 179.81 20.8824 179.673 20.8116C179.537 20.7386 179.38 20.702 179.204 20.702C179.027 20.702 178.871 20.7386 178.734 20.8116C178.599 20.8824 178.485 20.9884 178.39 21.1299C178.297 21.2713 178.227 21.4457 178.178 21.6532C178.129 21.8606 178.104 22.101 178.104 22.3745V22.6255C178.104 22.8966 178.129 23.137 178.178 23.3468C178.227 23.5542 178.298 23.7299 178.393 23.8737C178.489 24.0151 178.604 24.1224 178.741 24.1954C178.878 24.2685 179.034 24.305 179.211 24.305C179.387 24.305 179.543 24.2685 179.68 24.1954C179.817 24.1224 179.932 24.0151 180.025 23.8737C180.117 23.7299 180.188 23.5542 180.237 23.3468C180.286 23.137 180.309 22.8966 180.309 22.6255Z" fill="#DCE4E7"/>
<path d="M186.313 22.3815V22.6255C186.313 23.0168 186.26 23.368 186.156 23.6792C186.052 23.9903 185.905 24.2555 185.715 24.4748C185.525 24.6916 185.297 24.8578 185.033 24.9733C184.771 25.0888 184.48 25.1466 184.16 25.1466C183.842 25.1466 183.551 25.0888 183.287 24.9733C183.025 24.8578 182.798 24.6916 182.605 24.4748C182.413 24.2555 182.264 23.9903 182.157 23.6792C182.052 23.368 182 23.0168 182 22.6255V22.3815C182 21.9879 182.052 21.6367 182.157 21.3279C182.261 21.0167 182.409 20.7515 182.598 20.5323C182.791 20.3131 183.018 20.1457 183.28 20.0302C183.545 19.9147 183.836 19.8569 184.153 19.8569C184.473 19.8569 184.764 19.9147 185.026 20.0302C185.29 20.1457 185.518 20.3131 185.708 20.5323C185.9 20.7515 186.048 21.0167 186.153 21.3279C186.259 21.6367 186.313 21.9879 186.313 22.3815ZM185.259 22.6255V22.3745C185.259 22.101 185.235 21.8606 185.186 21.6532C185.137 21.4457 185.065 21.2713 184.97 21.1299C184.875 20.9884 184.76 20.8824 184.623 20.8116C184.486 20.7386 184.329 20.702 184.153 20.702C183.977 20.702 183.82 20.7386 183.684 20.8116C183.549 20.8824 183.434 20.9884 183.339 21.1299C183.246 21.2713 183.176 21.4457 183.127 21.6532C183.079 21.8606 183.054 22.101 183.054 22.3745V22.6255C183.054 22.8966 183.079 23.137 183.127 23.3468C183.176 23.5542 183.248 23.7299 183.343 23.8737C183.438 24.0151 183.554 24.1224 183.691 24.1954C183.828 24.2685 183.984 24.305 184.16 24.305C184.336 24.305 184.493 24.2685 184.629 24.1954C184.766 24.1224 184.881 24.0151 184.974 23.8737C185.066 23.7299 185.137 23.5542 185.186 23.3468C185.235 23.137 185.259 22.8966 185.259 22.6255Z" fill="#DCE4E7"/>
<path d="M190.353 24.2485V25.0759H187.803V24.2485H190.353ZM188.141 19.9277V25.0759H187.098V19.9277H188.141Z" fill="#DCE4E7"/>
</g>
<defs>
<clipPath id="clip0_2501_56966">
<rect width="203" height="30" fill="white"/>
</clipPath>
</defs>
</svg>
