<?xml version="1.0" encoding="UTF-8"?>
<!DOCTYPE svg PUBLIC "-//W3C//DTD SVG 1.1//EN" "http://www.w3.org/Graphics/SVG/1.1/DTD/svg11.dtd">
<svg xmlns="http://www.w3.org/2000/svg" version="1.1" width="870px" height="541px" style="shape-rendering:geometricPrecision; text-rendering:geometricPrecision; image-rendering:optimizeQuality; fill-rule:evenodd; clip-rule:evenodd" xmlns:xlink="http://www.w3.org/1999/xlink">
<g><path style="opacity:1" fill="#494948" d="M -0.5,-0.5 C 289.5,-0.5 579.5,-0.5 869.5,-0.5C 869.5,179.833 869.5,360.167 869.5,540.5C 579.5,540.5 289.5,540.5 -0.5,540.5C -0.5,360.167 -0.5,179.833 -0.5,-0.5 Z"/></g>
<g><path style="opacity:1" fill="#53a13e" d="M 436.5,50.5 C 435.609,51.1098 434.609,51.4431 433.5,51.5C 434.221,49.6182 435.221,49.2848 436.5,50.5 Z"/></g>
<g><path style="opacity:1" fill="#6eed48" d="M 436.5,50.5 C 438.861,54.5172 441.194,58.5172 443.5,62.5C 443.577,65.5092 442.244,67.6759 439.5,69C 425.656,78.848 411.823,88.6813 398,98.5C 396.923,97.5705 395.756,96.9038 394.5,96.5C 393.396,94.6115 392.063,92.9448 390.5,91.5C 389.89,89.5659 388.89,87.8993 387.5,86.5C 387.5,85.8333 387.5,85.1667 387.5,84.5C 402.833,73.5 418.167,62.5 433.5,51.5C 434.609,51.4431 435.609,51.1098 436.5,50.5 Z"/></g>
<g><path style="opacity:1" fill="#66dd44" d="M 443.5,62.5 C 446.916,66.3233 449.582,70.6566 451.5,75.5C 451.67,76.8221 451.337,77.9887 450.5,79C 435.833,89.6667 421.167,100.333 406.5,111C 405.135,110.857 403.802,110.357 402.5,109.5C 400.833,106.833 399.167,104.167 397.5,101.5C 396.248,99.9991 395.248,98.3325 394.5,96.5C 395.756,96.9038 396.923,97.5705 398,98.5C 411.823,88.6813 425.656,78.848 439.5,69C 442.244,67.6759 443.577,65.5092 443.5,62.5 Z"/></g>
<g><path style="opacity:1" fill="#5fd040" d="M 451.5,75.5 C 454.241,77.9754 456.241,80.9754 457.5,84.5C 457.769,86.4286 457.269,88.0953 456,89.5C 455.667,89.1667 455.333,88.8333 455,88.5C 454.047,90.4552 452.713,92.1218 451,93.5C 438.037,102.448 425.037,111.448 412,120.5C 410.923,119.571 409.756,118.904 408.5,118.5C 406.265,115.709 404.265,112.709 402.5,109.5C 403.802,110.357 405.135,110.857 406.5,111C 421.167,100.333 435.833,89.6667 450.5,79C 451.337,77.9887 451.67,76.8221 451.5,75.5 Z"/></g>
<g><path style="opacity:1" fill="#59c43d" d="M 457.5,84.5 C 459.664,86.822 461.331,89.4887 462.5,92.5C 462.649,93.552 462.483,94.552 462,95.5C 457.667,99.2371 453.667,103.237 450,107.5C 440.666,113.827 431.166,120.66 421.5,128C 419.19,128.497 416.857,128.663 414.5,128.5C 412.102,125.429 410.102,122.095 408.5,118.5C 409.756,118.904 410.923,119.571 412,120.5C 425.037,111.448 438.037,102.448 451,93.5C 452.713,92.1218 454.047,90.4552 455,88.5C 455.333,88.8333 455.667,89.1667 456,89.5C 457.269,88.0953 457.769,86.4286 457.5,84.5 Z"/></g>
<g><path style="opacity:1" fill="#627e4a" d="M 390.5,91.5 C 392.063,92.9448 393.396,94.6115 394.5,96.5C 395.248,98.3325 396.248,99.9991 397.5,101.5C 396.833,101.5 396.5,101.833 396.5,102.5C 393.742,99.322 391.742,95.6553 390.5,91.5 Z"/></g>
<g><path style="opacity:1" fill="#54b93c" d="M 462.5,92.5 C 464.664,94.822 466.331,97.4887 467.5,100.5C 469.058,103.244 468.391,105.41 465.5,107C 451.656,116.756 437.989,126.756 424.5,137C 423.207,137.49 421.873,137.657 420.5,137.5C 418.265,134.709 416.265,131.709 414.5,128.5C 416.857,128.663 419.19,128.497 421.5,128C 431.166,120.66 440.666,113.827 450,107.5C 453.667,103.237 457.667,99.2371 462,95.5C 462.483,94.552 462.649,93.552 462.5,92.5 Z"/></g>
<g><path style="opacity:1" fill="#9dcb58" d="M 387.5,86.5 C 388.89,87.8993 389.89,89.5659 390.5,91.5C 391.742,95.6553 393.742,99.322 396.5,102.5C 397.167,104.5 397.833,106.5 398.5,108.5C 395.229,110.842 391.562,111.176 387.5,109.5C 387.5,101.833 387.5,94.1667 387.5,86.5 Z"/></g>
<g><path style="opacity:1" fill="#4ead3a" d="M 467.5,100.5 C 470.579,103.65 472.913,107.317 474.5,111.5C 474.577,114.509 473.244,116.676 470.5,118C 455.817,127.814 441.817,138.314 428.5,149.5C 425.833,146.167 423.167,142.833 420.5,139.5C 420.5,138.833 420.5,138.167 420.5,137.5C 421.873,137.657 423.207,137.49 424.5,137C 437.989,126.756 451.656,116.756 465.5,107C 468.391,105.41 469.058,103.244 467.5,100.5 Z"/></g>
<g><path style="opacity:1" fill="#8abc4f" d="M 398.5,108.5 C 400.75,111.999 402.75,115.665 404.5,119.5C 404.5,120.833 404.5,122.167 404.5,123.5C 398.833,123.5 393.167,123.5 387.5,123.5C 387.5,118.833 387.5,114.167 387.5,109.5C 391.562,111.176 395.229,110.842 398.5,108.5 Z"/></g>
<g><path style="opacity:1" fill="#48a039" d="M 474.5,111.5 C 476.95,113.629 478.617,116.296 479.5,119.5C 480.434,121.239 480.434,122.905 479.5,124.5C 465.504,134.944 451.837,144.944 438.5,154.5C 436.946,156.933 436.28,159.6 436.5,162.5C 433.084,158.677 430.418,154.343 428.5,149.5C 441.817,138.314 455.817,127.814 470.5,118C 473.244,116.676 474.577,114.509 474.5,111.5 Z"/></g>
<g><path style="opacity:1" fill="#78aa47" d="M 387.5,84.5 C 387.5,85.1667 387.5,85.8333 387.5,86.5C 387.5,94.1667 387.5,101.833 387.5,109.5C 387.5,114.167 387.5,118.833 387.5,123.5C 393.167,123.5 398.833,123.5 404.5,123.5C 404.5,122.167 404.5,120.833 404.5,119.5C 406.674,122.515 408.341,125.849 409.5,129.5C 409.67,130.822 409.337,131.989 408.5,133C 401.476,133.831 394.476,133.664 387.5,132.5C 386.528,123.554 386.194,114.554 386.5,105.5C 386.175,98.3134 386.509,91.3134 387.5,84.5 Z"/></g>
<g><path style="opacity:1" fill="#419138" d="M 484.5,127.5 C 486.316,129.118 487.649,131.118 488.5,133.5C 487.969,135.544 486.802,137.211 485,138.5C 471.32,147.999 457.487,157.999 443.5,168.5C 444.052,170.003 444.052,171.669 443.5,173.5C 441.336,171.178 439.669,168.511 438.5,165.5C 439.164,162.985 440.497,160.819 442.5,159C 455.021,149.245 468.021,140.245 481.5,132C 483.439,131.092 484.439,129.592 484.5,127.5 Z"/></g>
<g><path style="opacity:1" fill="#669a3e" d="M 386.5,105.5 C 386.194,114.554 386.528,123.554 387.5,132.5C 394.476,133.664 401.476,133.831 408.5,133C 409.337,131.989 409.67,130.822 409.5,129.5C 411.22,130.751 411.553,132.251 410.5,134C 402.686,138.328 395.019,142.828 387.5,147.5C 385.558,142.944 384.892,137.944 385.5,132.5C 385.173,123.318 385.507,114.318 386.5,105.5 Z"/></g>
<g><path style="opacity:1" fill="#516640" d="M 385.5,132.5 C 384.892,137.944 385.558,142.944 387.5,147.5C 386.791,148.404 385.791,148.737 384.5,148.5C 384.179,142.974 384.512,137.64 385.5,132.5 Z"/></g>
<g><path style="opacity:1" fill="#beec4c" d="M 420.5,139.5 C 423.167,142.833 425.833,146.167 428.5,149.5C 430.418,154.343 433.084,158.677 436.5,162.5C 436.932,163.71 437.599,164.71 438.5,165.5C 439.669,168.511 441.336,171.178 443.5,173.5C 444.351,175.882 445.684,177.882 447.5,179.5C 449.622,182.957 451.289,186.623 452.5,190.5C 451.833,190.5 451.5,190.833 451.5,191.5C 450.508,191.328 449.842,191.662 449.5,192.5C 447.973,192.427 446.973,193.094 446.5,194.5C 443.489,195.669 440.822,197.336 438.5,199.5C 436.973,199.427 435.973,200.094 435.5,201.5C 433.566,202.11 431.899,203.11 430.5,204.5C 428.973,204.427 427.973,205.094 427.5,206.5C 425.566,207.11 423.899,208.11 422.5,209.5C 420.973,209.427 419.973,210.094 419.5,211.5C 417.973,211.427 416.973,212.094 416.5,213.5C 414.566,214.11 412.899,215.11 411.5,216.5C 409.973,216.427 408.973,217.094 408.5,218.5C 406.566,219.11 404.899,220.11 403.5,221.5C 401.973,221.427 400.973,222.094 400.5,223.5C 398.973,223.427 397.973,224.094 397.5,225.5C 396.508,225.328 395.842,225.662 395.5,226.5C 393.973,226.427 392.973,227.094 392.5,228.5C 390.973,228.427 389.973,229.094 389.5,230.5C 388.508,230.328 387.842,230.662 387.5,231.5C 385.973,231.427 384.973,232.094 384.5,233.5C 382.973,233.427 381.973,234.094 381.5,235.5C 380.508,235.328 379.842,235.662 379.5,236.5C 377.973,236.427 376.973,237.094 376.5,238.5C 374.973,238.427 373.973,239.094 373.5,240.5C 371.973,240.427 370.973,241.094 370.5,242.5C 369.508,242.328 368.842,242.662 368.5,243.5C 366.973,243.427 365.973,244.094 365.5,245.5C 363.973,245.427 362.973,246.094 362.5,247.5C 360.326,247.75 358.659,248.75 357.5,250.5C 356.508,250.328 355.842,250.662 355.5,251.5C 353.973,251.427 352.973,252.094 352.5,253.5C 350.973,253.427 349.973,254.094 349.5,255.5C 347.973,255.427 346.973,256.094 346.5,257.5C 345.508,257.328 344.842,257.662 344.5,258.5C 342.973,258.427 341.973,259.094 341.5,260.5C 339.973,260.427 338.973,261.094 338.5,262.5C 337.508,262.328 336.842,262.662 336.5,263.5C 334.973,263.427 333.973,264.094 333.5,265.5C 331.973,265.427 330.973,266.094 330.5,267.5C 328.973,267.427 327.973,268.094 327.5,269.5C 326.508,269.328 325.842,269.662 325.5,270.5C 323.973,270.427 322.973,271.094 322.5,272.5C 320.973,272.427 319.973,273.094 319.5,274.5C 318.508,274.328 317.842,274.662 317.5,275.5C 315.973,275.427 314.973,276.094 314.5,277.5C 312.973,277.427 311.973,278.094 311.5,279.5C 309.973,279.427 308.973,280.094 308.5,281.5C 307.508,281.328 306.842,281.662 306.5,282.5C 304.973,282.427 303.973,283.094 303.5,284.5C 301.973,284.427 300.973,285.094 300.5,286.5C 298.973,286.427 297.973,287.094 297.5,288.5C 296.508,288.328 295.842,288.662 295.5,289.5C 293.973,289.427 292.973,290.094 292.5,291.5C 290.973,291.427 289.973,292.094 289.5,293.5C 284.657,295.418 280.323,298.084 276.5,301.5C 272.517,303.806 268.517,306.139 264.5,308.5C 262.527,309.487 260.527,310.487 258.5,311.5C 257.358,310.174 256.024,309.174 254.5,308.5C 244.356,295.558 234.689,282.225 225.5,268.5C 225.884,266.071 226.551,263.737 227.5,261.5C 227.973,260.094 228.973,259.427 230.5,259.5C 232.027,259.573 233.027,258.906 233.5,257.5C 235.027,257.573 236.027,256.906 236.5,255.5C 237.899,254.11 239.566,253.11 241.5,252.5C 243.027,252.573 244.027,251.906 244.5,250.5C 245.899,249.11 247.566,248.11 249.5,247.5C 251.027,247.573 252.027,246.906 252.5,245.5C 254.027,245.573 255.027,244.906 255.5,243.5C 256.899,242.11 258.566,241.11 260.5,240.5C 262.027,240.573 263.027,239.906 263.5,238.5C 264.899,237.11 266.566,236.11 268.5,235.5C 270.027,235.573 271.027,234.906 271.5,233.5C 273.027,233.573 274.027,232.906 274.5,231.5C 275.899,230.11 277.566,229.11 279.5,228.5C 281.027,228.573 282.027,227.906 282.5,226.5C 283.899,225.11 285.566,224.11 287.5,223.5C 289.027,223.573 290.027,222.906 290.5,221.5C 291.899,220.11 293.566,219.11 295.5,218.5C 297.027,218.573 298.027,217.906 298.5,216.5C 300.027,216.573 301.027,215.906 301.5,214.5C 302.899,213.11 304.566,212.11 306.5,211.5C 308.027,211.573 309.027,210.906 309.5,209.5C 310.899,208.11 312.566,207.11 314.5,206.5C 316.027,206.573 317.027,205.906 317.5,204.5C 319.822,202.336 322.489,200.669 325.5,199.5C 327.027,199.573 328.027,198.906 328.5,197.5C 329.899,196.11 331.566,195.11 333.5,194.5C 335.027,194.573 336.027,193.906 336.5,192.5C 337.899,191.11 339.566,190.11 341.5,189.5C 343.027,189.573 344.027,188.906 344.5,187.5C 349.489,183.669 354.822,180.336 360.5,177.5C 362.027,177.573 363.027,176.906 363.5,175.5C 382.295,163.264 401.295,151.264 420.5,139.5 Z"/></g>
<g><path style="opacity:1" fill="#449938" d="M 479.5,119.5 C 481.664,121.822 483.331,124.489 484.5,127.5C 484.439,129.592 483.439,131.092 481.5,132C 468.021,140.245 455.021,149.245 442.5,159C 440.497,160.819 439.164,162.985 438.5,165.5C 437.599,164.71 436.932,163.71 436.5,162.5C 436.28,159.6 436.946,156.933 438.5,154.5C 451.837,144.944 465.504,134.944 479.5,124.5C 480.434,122.905 480.434,121.239 479.5,119.5 Z"/></g>
<g><path style="opacity:1" fill="#367b39" d="M 493.5,141.5 C 495.735,144.291 497.735,147.291 499.5,150.5C 499.719,151.675 499.386,152.675 498.5,153.5C 483.804,164.607 468.971,175.607 454,186.5C 453.51,187.793 453.343,189.127 453.5,190.5C 453.167,190.5 452.833,190.5 452.5,190.5C 451.289,186.623 449.622,182.957 447.5,179.5C 450.586,176.777 453.92,174.277 457.5,172C 459.7,169.766 461.533,167.266 463,164.5C 463.561,165.022 464.228,165.355 465,165.5C 474.413,159.433 483.579,152.933 492.5,146C 493.38,144.644 493.714,143.144 493.5,141.5 Z"/></g>
<g><path style="opacity:1" fill="#3b8538" d="M 488.5,133.5 C 490.664,135.822 492.331,138.489 493.5,141.5C 493.714,143.144 493.38,144.644 492.5,146C 483.579,152.933 474.413,159.433 465,165.5C 464.228,165.355 463.561,165.022 463,164.5C 461.533,167.266 459.7,169.766 457.5,172C 453.92,174.277 450.586,176.777 447.5,179.5C 445.684,177.882 444.351,175.882 443.5,173.5C 444.052,171.669 444.052,170.003 443.5,168.5C 457.487,157.999 471.32,147.999 485,138.5C 486.802,137.211 487.969,135.544 488.5,133.5 Z"/></g>
<g><path style="opacity:1" fill="#31723a" d="M 499.5,150.5 C 500.89,151.899 501.89,153.566 502.5,155.5C 502.719,156.675 502.386,157.675 501.5,158.5C 487.167,169 472.833,179.5 458.5,190C 456.866,190.494 455.199,190.66 453.5,190.5C 453.343,189.127 453.51,187.793 454,186.5C 468.971,175.607 483.804,164.607 498.5,153.5C 499.386,152.675 499.719,151.675 499.5,150.5 Z"/></g>
<g><path style="opacity:1" fill="#2f6d3b" d="M 502.5,155.5 C 503.906,155.973 504.573,156.973 504.5,158.5C 505.735,160.773 505.402,162.606 503.5,164C 489.391,174.563 475.058,184.896 460.5,195C 459.552,195.483 458.552,195.649 457.5,195.5C 456.163,194.685 455.163,193.518 454.5,192C 453.552,191.517 452.552,191.351 451.5,191.5C 451.5,190.833 451.833,190.5 452.5,190.5C 452.833,190.5 453.167,190.5 453.5,190.5C 455.199,190.66 456.866,190.494 458.5,190C 472.833,179.5 487.167,169 501.5,158.5C 502.386,157.675 502.719,156.675 502.5,155.5 Z"/></g>
<g><path style="opacity:1" fill="#296139" d="M 504.5,158.5 C 507.916,162.323 510.582,166.657 512.5,171.5C 514.168,173.991 513.834,176.158 511.5,178C 508.167,180 504.833,182 501.5,184C 490.864,193.082 479.697,201.582 468,209.5C 466.923,208.571 465.756,207.904 464.5,207.5C 462.139,203.483 459.806,199.483 457.5,195.5C 458.552,195.649 459.552,195.483 460.5,195C 475.058,184.896 489.391,174.563 503.5,164C 505.402,162.606 505.735,160.773 504.5,158.5 Z"/></g>
<g><path style="opacity:1" fill="#89a340" d="M 363.5,175.5 C 363.027,176.906 362.027,177.573 360.5,177.5C 360.973,176.094 361.973,175.427 363.5,175.5 Z"/></g>
<g><path style="opacity:1" fill="#255934" d="M 512.5,171.5 C 514.664,173.822 516.331,176.489 517.5,179.5C 518.028,180.847 518.195,182.181 518,183.5C 502.887,194.633 487.721,205.633 472.5,216.5C 471.583,215.873 470.583,215.539 469.5,215.5C 467.833,212.833 466.167,210.167 464.5,207.5C 465.756,207.904 466.923,208.571 468,209.5C 479.697,201.582 490.864,193.082 501.5,184C 504.833,182 508.167,180 511.5,178C 513.834,176.158 514.168,173.991 512.5,171.5 Z"/></g>
<g><path style="opacity:1" fill="#225331" d="M 517.5,179.5 C 520.241,181.975 522.241,184.975 523.5,188.5C 523.586,189.496 523.252,190.329 522.5,191C 514.98,195.802 507.48,201.302 500,207.5C 499.667,207.167 499.333,206.833 499,206.5C 492.248,213.78 484.415,219.447 475.5,223.5C 473.147,221.14 471.147,218.473 469.5,215.5C 470.583,215.539 471.583,215.873 472.5,216.5C 487.721,205.633 502.887,194.633 518,183.5C 518.195,182.181 518.028,180.847 517.5,179.5 Z"/></g>
<g><path style="opacity:1" fill="#8aa440" d="M 344.5,187.5 C 344.027,188.906 343.027,189.573 341.5,189.5C 341.973,188.094 342.973,187.427 344.5,187.5 Z"/></g>
<g><path style="opacity:1" fill="#484948" d="M 451.5,191.5 C 452.552,191.351 453.552,191.517 454.5,192C 455.163,193.518 456.163,194.685 457.5,195.5C 459.806,199.483 462.139,203.483 464.5,207.5C 466.167,210.167 467.833,212.833 469.5,215.5C 471.147,218.473 473.147,221.14 475.5,223.5C 476.917,226.669 478.583,229.669 480.5,232.5C 482.167,235.167 483.833,237.833 485.5,240.5C 486.833,242.5 488.167,244.5 489.5,246.5C 490.811,249.135 492.478,251.469 494.5,253.5C 496.087,257.683 498.421,261.35 501.5,264.5C 502.11,266.434 503.11,268.101 504.5,269.5C 506.087,273.683 508.421,277.35 511.5,280.5C 509.5,282.167 507.5,283.833 505.5,285.5C 504.508,285.328 503.842,285.662 503.5,286.5C 501.973,286.427 500.973,287.094 500.5,288.5C 498.973,288.427 497.973,289.094 497.5,290.5C 490.652,293.753 484.319,297.753 478.5,302.5C 475.489,303.669 472.822,305.336 470.5,307.5C 465.291,309.719 460.624,312.719 456.5,316.5C 444.254,323.41 432.254,330.743 420.5,338.5C 419.222,338.218 418.222,337.551 417.5,336.5C 416.89,334.566 415.89,332.899 414.5,331.5C 412.413,327.656 410.08,323.989 407.5,320.5C 406.331,317.489 404.664,314.822 402.5,312.5C 401.66,310.147 400.326,308.147 398.5,306.5C 396.913,302.317 394.579,298.65 391.5,295.5C 390.331,292.489 388.664,289.822 386.5,287.5C 385.331,284.489 383.664,281.822 381.5,279.5C 380.66,277.147 379.326,275.147 377.5,273.5C 376,269.827 374,266.494 371.5,263.5C 370.66,261.147 369.326,259.147 367.5,257.5C 366.617,254.296 364.95,251.629 362.5,249.5C 362.5,248.833 362.5,248.167 362.5,247.5C 364.027,247.573 365.027,246.906 365.5,245.5C 367.027,245.573 368.027,244.906 368.5,243.5C 368.842,242.662 369.508,242.328 370.5,242.5C 372.027,242.573 373.027,241.906 373.5,240.5C 375.027,240.573 376.027,239.906 376.5,238.5C 378.027,238.573 379.027,237.906 379.5,236.5C 379.842,235.662 380.508,235.328 381.5,235.5C 383.027,235.573 384.027,234.906 384.5,233.5C 386.027,233.573 387.027,232.906 387.5,231.5C 387.842,230.662 388.508,230.328 389.5,230.5C 391.027,230.573 392.027,229.906 392.5,228.5C 394.027,228.573 395.027,227.906 395.5,226.5C 395.842,225.662 396.508,225.328 397.5,225.5C 399.027,225.573 400.027,224.906 400.5,223.5C 402.027,223.573 403.027,222.906 403.5,221.5C 404.899,220.11 406.566,219.11 408.5,218.5C 410.027,218.573 411.027,217.906 411.5,216.5C 412.899,215.11 414.566,214.11 416.5,213.5C 418.027,213.573 419.027,212.906 419.5,211.5C 421.027,211.573 422.027,210.906 422.5,209.5C 423.899,208.11 425.566,207.11 427.5,206.5C 429.027,206.573 430.027,205.906 430.5,204.5C 431.899,203.11 433.566,202.11 435.5,201.5C 437.027,201.573 438.027,200.906 438.5,199.5C 440.822,197.336 443.489,195.669 446.5,194.5C 448.027,194.573 449.027,193.906 449.5,192.5C 449.842,191.662 450.508,191.328 451.5,191.5 Z"/></g>
<g><path style="opacity:1" fill="#87a040" d="M 336.5,192.5 C 336.027,193.906 335.027,194.573 333.5,194.5C 333.973,193.094 334.973,192.427 336.5,192.5 Z"/></g>
<g><path style="opacity:1" fill="#697541" d="M 449.5,192.5 C 449.027,193.906 448.027,194.573 446.5,194.5C 446.973,193.094 447.973,192.427 449.5,192.5 Z"/></g>
<g><path style="opacity:1" fill="#1f4d2d" d="M 523.5,188.5 C 525.664,190.822 527.331,193.489 528.5,196.5C 528.719,197.675 528.386,198.675 527.5,199.5C 519.988,204.757 512.654,210.257 505.5,216C 497.267,221.748 488.933,227.248 480.5,232.5C 478.583,229.669 476.917,226.669 475.5,223.5C 484.415,219.447 492.248,213.78 499,206.5C 499.333,206.833 499.667,207.167 500,207.5C 507.48,201.302 514.98,195.802 522.5,191C 523.252,190.329 523.586,189.496 523.5,188.5 Z"/></g>
<g><path style="opacity:1" fill="#859c3f" d="M 328.5,197.5 C 328.027,198.906 327.027,199.573 325.5,199.5C 325.973,198.094 326.973,197.427 328.5,197.5 Z"/></g>
<g><path style="opacity:1" fill="#1c4729" d="M 528.5,196.5 C 529.89,197.899 530.89,199.566 531.5,201.5C 532.323,203.455 532.49,205.455 532,207.5C 531.667,207.167 531.333,206.833 531,206.5C 528.86,207.728 527.193,209.395 526,211.5C 525.667,211.167 525.333,210.833 525,210.5C 511.347,221.421 498.18,231.421 485.5,240.5C 483.833,237.833 482.167,235.167 480.5,232.5C 488.933,227.248 497.267,221.748 505.5,216C 512.654,210.257 519.988,204.757 527.5,199.5C 528.386,198.675 528.719,197.675 528.5,196.5 Z"/></g>
<g><path style="opacity:1" fill="#677241" d="M 438.5,199.5 C 438.027,200.906 437.027,201.573 435.5,201.5C 435.973,200.094 436.973,199.427 438.5,199.5 Z"/></g>
<g><path style="opacity:1" fill="#88a040" d="M 317.5,204.5 C 317.027,205.906 316.027,206.573 314.5,206.5C 314.973,205.094 315.973,204.427 317.5,204.5 Z"/></g>
<g><path style="opacity:1" fill="#697541" d="M 430.5,204.5 C 430.027,205.906 429.027,206.573 427.5,206.5C 427.973,205.094 428.973,204.427 430.5,204.5 Z"/></g>
<g><path style="opacity:1" fill="#194126" d="M 531.5,201.5 C 533.735,204.291 535.735,207.291 537.5,210.5C 537.719,211.675 537.386,212.675 536.5,213.5C 521.655,224.089 506.989,234.923 492.5,246C 491.552,246.483 490.552,246.649 489.5,246.5C 488.167,244.5 486.833,242.5 485.5,240.5C 498.18,231.421 511.347,221.421 525,210.5C 525.333,210.833 525.667,211.167 526,211.5C 527.193,209.395 528.86,207.728 531,206.5C 531.333,206.833 531.667,207.167 532,207.5C 532.49,205.455 532.323,203.455 531.5,201.5 Z"/></g>
<g><path style="opacity:1" fill="#859d3f" d="M 309.5,209.5 C 309.027,210.906 308.027,211.573 306.5,211.5C 306.973,210.094 307.973,209.427 309.5,209.5 Z"/></g>
<g><path style="opacity:1" fill="#6c7941" d="M 422.5,209.5 C 422.027,210.906 421.027,211.573 419.5,211.5C 419.973,210.094 420.973,209.427 422.5,209.5 Z"/></g>
<g><path style="opacity:1" fill="#667241" d="M 419.5,211.5 C 419.027,212.906 418.027,213.573 416.5,213.5C 416.973,212.094 417.973,211.427 419.5,211.5 Z"/></g>
<g><path style="opacity:1" fill="#163b23" d="M 537.5,210.5 C 539.664,212.822 541.331,215.489 542.5,218.5C 540.556,219.928 538.889,221.761 537.5,224C 523.13,233.967 508.797,243.801 494.5,253.5C 492.478,251.469 490.811,249.135 489.5,246.5C 490.552,246.649 491.552,246.483 492.5,246C 506.989,234.923 521.655,224.089 536.5,213.5C 537.386,212.675 537.719,211.675 537.5,210.5 Z"/></g>
<g><path style="opacity:1" fill="#83993f" d="M 301.5,214.5 C 301.027,215.906 300.027,216.573 298.5,216.5C 298.973,215.094 299.973,214.427 301.5,214.5 Z"/></g>
<g><path style="opacity:1" fill="#add961" d="M 576.5,214.5 C 587.653,215.626 598.986,216.292 610.5,216.5C 609.942,217.79 608.942,218.623 607.5,219C 595.338,219.606 583.171,220.106 571,220.5C 565.328,220.402 559.828,219.735 554.5,218.5C 553.972,217.279 553.305,216.113 552.5,215C 560.493,214.5 568.493,214.334 576.5,214.5 Z"/></g>
<g><path style="opacity:1" fill="#7a8e53" d="M 576.5,214.5 C 588.838,214.333 601.171,214.5 613.5,215C 614.416,215.278 615.082,215.778 615.5,216.5C 613.833,216.5 612.167,216.5 610.5,216.5C 598.986,216.292 587.653,215.626 576.5,214.5 Z"/></g>
<g><path style="opacity:1" fill="#88a140" d="M 298.5,216.5 C 298.027,217.906 297.027,218.573 295.5,218.5C 295.973,217.094 296.973,216.427 298.5,216.5 Z"/></g>
<g><path style="opacity:1" fill="#697541" d="M 411.5,216.5 C 411.027,217.906 410.027,218.573 408.5,218.5C 408.973,217.094 409.973,216.427 411.5,216.5 Z"/></g>
<g><path style="opacity:1" fill="#beec4c" d="M 617.5,219.5 C 625.232,228.628 632.232,238.294 638.5,248.5C 639.08,250.749 640.413,252.415 642.5,253.5C 644.547,255.55 646.214,257.883 647.5,260.5C 648.167,262.167 648.833,263.833 649.5,265.5C 647.973,265.427 646.973,266.094 646.5,267.5C 644.973,267.427 643.973,268.094 643.5,269.5C 641.326,269.75 639.659,270.75 638.5,272.5C 636.973,272.427 635.973,273.094 635.5,274.5C 633.973,274.427 632.973,275.094 632.5,276.5C 631.508,276.328 630.842,276.662 630.5,277.5C 628.973,277.427 627.973,278.094 627.5,279.5C 625.973,279.427 624.973,280.094 624.5,281.5C 623.508,281.328 622.842,281.662 622.5,282.5C 620.973,282.427 619.973,283.094 619.5,284.5C 617.973,284.427 616.973,285.094 616.5,286.5C 614.973,286.427 613.973,287.094 613.5,288.5C 612.508,288.328 611.842,288.662 611.5,289.5C 609.973,289.427 608.973,290.094 608.5,291.5C 606.973,291.427 605.973,292.094 605.5,293.5C 604.508,293.328 603.842,293.662 603.5,294.5C 601.973,294.427 600.973,295.094 600.5,296.5C 598.973,296.427 597.973,297.094 597.5,298.5C 595.973,298.427 594.973,299.094 594.5,300.5C 593.508,300.328 592.842,300.662 592.5,301.5C 590.973,301.427 589.973,302.094 589.5,303.5C 587.973,303.427 586.973,304.094 586.5,305.5C 585.508,305.328 584.842,305.662 584.5,306.5C 582.973,306.427 581.973,307.094 581.5,308.5C 579.973,308.427 578.973,309.094 578.5,310.5C 576.973,310.427 575.973,311.094 575.5,312.5C 574.508,312.328 573.842,312.662 573.5,313.5C 571.973,313.427 570.973,314.094 570.5,315.5C 568.973,315.427 567.973,316.094 567.5,317.5C 565.973,317.427 564.973,318.094 564.5,319.5C 563.508,319.328 562.842,319.662 562.5,320.5C 560.973,320.427 559.973,321.094 559.5,322.5C 557.973,322.427 556.973,323.094 556.5,324.5C 555.508,324.328 554.842,324.662 554.5,325.5C 552.973,325.427 551.973,326.094 551.5,327.5C 549.973,327.427 548.973,328.094 548.5,329.5C 546.566,330.11 544.899,331.11 543.5,332.5C 541.973,332.427 540.973,333.094 540.5,334.5C 538.973,334.427 537.973,335.094 537.5,336.5C 536.508,336.328 535.842,336.662 535.5,337.5C 533.973,337.427 532.973,338.094 532.5,339.5C 530.973,339.427 529.973,340.094 529.5,341.5C 527.566,342.11 525.899,343.11 524.5,344.5C 522.973,344.427 521.973,345.094 521.5,346.5C 519.973,346.427 518.973,347.094 518.5,348.5C 516.566,349.11 514.899,350.11 513.5,351.5C 511.973,351.427 510.973,352.094 510.5,353.5C 508.566,354.11 506.899,355.11 505.5,356.5C 503.973,356.427 502.973,357.094 502.5,358.5C 499.489,359.669 496.822,361.336 494.5,363.5C 492.973,363.427 491.973,364.094 491.5,365.5C 489.566,366.11 487.899,367.11 486.5,368.5C 484.973,368.427 483.973,369.094 483.5,370.5C 473.028,376.571 462.694,382.905 452.5,389.5C 450.263,387.353 448.263,385.02 446.5,382.5C 445.241,378.975 443.241,375.975 440.5,373.5C 438.668,369.164 436.335,365.164 433.5,361.5C 432.525,359.205 431.192,357.205 429.5,355.5C 428.525,353.205 427.192,351.205 425.5,349.5C 424.66,347.147 423.326,345.147 421.5,343.5C 421.167,342.167 420.833,340.833 420.5,339.5C 420.5,339.167 420.5,338.833 420.5,338.5C 432.254,330.743 444.254,323.41 456.5,316.5C 460.26,316.036 463.427,314.369 466,311.5C 467.44,310.852 468.94,310.519 470.5,310.5C 470.5,309.5 470.5,308.5 470.5,307.5C 473.112,306.629 475.779,305.963 478.5,305.5C 478.5,304.5 478.5,303.5 478.5,302.5C 479.873,302.657 481.207,302.49 482.5,302C 486.239,299.86 489.739,297.36 493,294.5C 494.44,293.852 495.94,293.519 497.5,293.5C 497.5,292.5 497.5,291.5 497.5,290.5C 497.973,289.094 498.973,288.427 500.5,288.5C 502.027,288.573 503.027,287.906 503.5,286.5C 503.842,285.662 504.508,285.328 505.5,285.5C 506.873,285.657 508.207,285.49 509.5,285C 510.989,283.532 512.323,282.032 513.5,280.5C 513.973,279.094 514.973,278.427 516.5,278.5C 518.027,278.573 519.027,277.906 519.5,276.5C 521.027,276.573 522.027,275.906 522.5,274.5C 523.899,273.11 525.566,272.11 527.5,271.5C 529.027,271.573 530.027,270.906 530.5,269.5C 531.899,268.11 533.566,267.11 535.5,266.5C 537.027,266.573 538.027,265.906 538.5,264.5C 540.027,264.573 541.027,263.906 541.5,262.5C 541.842,261.662 542.508,261.328 543.5,261.5C 545.027,261.573 546.027,260.906 546.5,259.5C 548.027,259.573 549.027,258.906 549.5,257.5C 550.899,256.11 552.566,255.11 554.5,254.5C 556.027,254.573 557.027,253.906 557.5,252.5C 559.027,252.573 560.027,251.906 560.5,250.5C 561.167,249.833 561.833,249.167 562.5,248.5C 564.517,247.471 566.517,246.471 568.5,245.5C 570.027,245.573 571.027,244.906 571.5,243.5C 572.899,242.11 574.566,241.11 576.5,240.5C 578.027,240.573 579.027,239.906 579.5,238.5C 579.842,237.662 580.508,237.328 581.5,237.5C 583.027,237.573 584.027,236.906 584.5,235.5C 584.5,235.167 584.5,234.833 584.5,234.5C 589.806,231.512 595.139,228.512 600.5,225.5C 603.047,224.066 605.381,222.4 607.5,220.5C 609.855,219.906 612.022,218.906 614,217.5C 615.303,217.978 616.469,218.645 617.5,219.5 Z"/></g>
<g><path style="opacity:1" fill="#99c956" d="M 610.5,216.5 C 612.167,216.5 613.833,216.5 615.5,216.5C 616.906,216.973 617.573,217.973 617.5,219.5C 616.469,218.645 615.303,217.978 614,217.5C 612.022,218.906 609.855,219.906 607.5,220.5C 604.082,220.924 601.082,222.258 598.5,224.5C 595.833,225.5 593.167,226.5 590.5,227.5C 580.115,227.786 569.782,227.452 559.5,226.5C 557.833,223.833 556.167,221.167 554.5,218.5C 559.828,219.735 565.328,220.402 571,220.5C 583.171,220.106 595.338,219.606 607.5,219C 608.942,218.623 609.942,217.79 610.5,216.5 Z"/></g>
<g><path style="opacity:1" fill="#869e3f" d="M 290.5,221.5 C 290.027,222.906 289.027,223.573 287.5,223.5C 287.973,222.094 288.973,221.427 290.5,221.5 Z"/></g>
<g><path style="opacity:1" fill="#6b7841" d="M 403.5,221.5 C 403.027,222.906 402.027,223.573 400.5,223.5C 400.973,222.094 401.973,221.427 403.5,221.5 Z"/></g>
<g><path style="opacity:1" fill="#13351f" d="M 542.5,218.5 C 545,221.494 547,224.827 548.5,228.5C 533.397,238.562 518.397,248.895 503.5,259.5C 502.05,260.85 501.383,262.516 501.5,264.5C 498.421,261.35 496.087,257.683 494.5,253.5C 508.797,243.801 523.13,233.967 537.5,224C 538.889,221.761 540.556,219.928 542.5,218.5 Z"/></g>
<g><path style="opacity:1" fill="#748a48" d="M 607.5,220.5 C 605.381,222.4 603.047,224.066 600.5,225.5C 600.158,224.662 599.492,224.328 598.5,224.5C 601.082,222.258 604.082,220.924 607.5,220.5 Z"/></g>
<g><path style="opacity:1" fill="#677241" d="M 400.5,223.5 C 400.027,224.906 399.027,225.573 397.5,225.5C 397.973,224.094 398.973,223.427 400.5,223.5 Z"/></g>
<g><path style="opacity:1" fill="#839a3f" d="M 282.5,226.5 C 282.027,227.906 281.027,228.573 279.5,228.5C 279.973,227.094 280.973,226.427 282.5,226.5 Z"/></g>
<g><path style="opacity:1" fill="#6d7c40" d="M 395.5,226.5 C 395.027,227.906 394.027,228.573 392.5,228.5C 392.973,227.094 393.973,226.427 395.5,226.5 Z"/></g>
<g><path style="opacity:1" fill="#102e1b" d="M 548.5,228.5 C 550.326,230.147 551.66,232.147 552.5,234.5C 552.063,236.074 551.063,237.241 549.5,238C 534.344,248.331 519.344,258.831 504.5,269.5C 503.11,268.101 502.11,266.434 501.5,264.5C 501.383,262.516 502.05,260.85 503.5,259.5C 518.397,248.895 533.397,238.562 548.5,228.5 Z"/></g>
<g><path style="opacity:1" fill="#697541" d="M 392.5,228.5 C 392.027,229.906 391.027,230.573 389.5,230.5C 389.973,229.094 390.973,228.427 392.5,228.5 Z"/></g>
<g><path style="opacity:1" fill="#72a743" d="M 559.5,226.5 C 569.782,227.452 580.115,227.786 590.5,227.5C 586.5,229.833 582.5,232.167 578.5,234.5C 575.233,236.536 571.733,238.202 568,239.5C 564.67,235.509 561.836,231.176 559.5,226.5 Z"/></g>
<g><path style="opacity:1" fill="#576246" d="M 598.5,224.5 C 599.492,224.328 600.158,224.662 600.5,225.5C 595.139,228.512 589.806,231.512 584.5,234.5C 582.741,234.046 580.741,234.046 578.5,234.5C 582.5,232.167 586.5,229.833 590.5,227.5C 593.167,226.5 595.833,225.5 598.5,224.5 Z"/></g>
<g><path style="opacity:1" fill="#80973f" d="M 274.5,231.5 C 274.027,232.906 273.027,233.573 271.5,233.5C 271.973,232.094 272.973,231.427 274.5,231.5 Z"/></g>
<g><path style="opacity:1" fill="#707f40" d="M 387.5,231.5 C 387.027,232.906 386.027,233.573 384.5,233.5C 384.973,232.094 385.973,231.427 387.5,231.5 Z"/></g>
<g><path style="opacity:1" fill="#869e3f" d="M 271.5,233.5 C 271.027,234.906 270.027,235.573 268.5,235.5C 268.973,234.094 269.973,233.427 271.5,233.5 Z"/></g>
<g><path style="opacity:1" fill="#6b7841" d="M 384.5,233.5 C 384.027,234.906 383.027,235.573 381.5,235.5C 381.973,234.094 382.973,233.427 384.5,233.5 Z"/></g>
<g><path style="opacity:1" fill="#3e8b38" d="M 427.5,248.5 C 427.5,250.167 427.5,251.833 427.5,253.5C 435.703,254.224 444.036,254.89 452.5,255.5C 455.522,256.522 457.522,258.522 458.5,261.5C 458.76,268.557 458.427,275.557 457.5,282.5C 455.996,284.836 453.996,286.669 451.5,288C 439.171,288.5 426.838,288.667 414.5,288.5C 414.5,283.833 414.5,279.167 414.5,274.5C 424.5,274.5 434.5,274.5 444.5,274.5C 444.5,272.5 444.5,270.5 444.5,268.5C 436.833,268.5 429.167,268.5 421.5,268.5C 417.517,266.682 414.684,263.682 413,259.5C 412.333,253.5 412.333,247.5 413,241.5C 414.331,239.004 416.164,237.004 418.5,235.5C 431.117,234.538 443.784,234.205 456.5,234.5C 456.5,238.833 456.5,243.167 456.5,247.5C 446.652,247.173 436.986,247.506 427.5,248.5 Z"/></g>
<g><path style="opacity:1" fill="#8da740" d="M 584.5,235.5 C 584.027,236.906 583.027,237.573 581.5,237.5C 581.973,236.094 582.973,235.427 584.5,235.5 Z"/></g>
<g><path style="opacity:1" fill="#728240" d="M 379.5,236.5 C 379.027,237.906 378.027,238.573 376.5,238.5C 376.973,237.094 377.973,236.427 379.5,236.5 Z"/></g>
<g><path style="opacity:1" fill="#849b3f" d="M 263.5,238.5 C 263.027,239.906 262.027,240.573 260.5,240.5C 260.973,239.094 261.973,238.427 263.5,238.5 Z"/></g>
<g><path style="opacity:1" fill="#6d7b40" d="M 376.5,238.5 C 376.027,239.906 375.027,240.573 373.5,240.5C 373.973,239.094 374.973,238.427 376.5,238.5 Z"/></g>
<g><path style="opacity:1" fill="#859d3f" d="M 579.5,238.5 C 579.027,239.906 578.027,240.573 576.5,240.5C 576.973,239.094 577.973,238.427 579.5,238.5 Z"/></g>
<g><path style="opacity:1" fill="#697541" d="M 373.5,240.5 C 373.027,241.906 372.027,242.573 370.5,242.5C 370.973,241.094 371.973,240.427 373.5,240.5 Z"/></g>
<g><path style="opacity:1" fill="#0d2716" d="M 552.5,234.5 C 555.833,239.167 559.167,243.833 562.5,248.5C 561.833,249.167 561.167,249.833 560.5,250.5C 558.973,250.427 557.973,251.094 557.5,252.5C 555.973,252.427 554.973,253.094 554.5,254.5C 552.566,255.11 550.899,256.11 549.5,257.5C 547.973,257.427 546.973,258.094 546.5,259.5C 544.973,259.427 543.973,260.094 543.5,261.5C 542.508,261.328 541.842,261.662 541.5,262.5C 539.973,262.427 538.973,263.094 538.5,264.5C 536.973,264.427 535.973,265.094 535.5,266.5C 533.566,267.11 531.899,268.11 530.5,269.5C 528.973,269.427 527.973,270.094 527.5,271.5C 525.566,272.11 523.899,273.11 522.5,274.5C 520.973,274.427 519.973,275.094 519.5,276.5C 517.973,276.427 516.973,277.094 516.5,278.5C 514.973,278.427 513.973,279.094 513.5,280.5C 512.833,280.5 512.167,280.5 511.5,280.5C 508.421,277.35 506.087,273.683 504.5,269.5C 519.344,258.831 534.344,248.331 549.5,238C 551.063,237.241 552.063,236.074 552.5,234.5 Z"/></g>
<g><path style="opacity:1" fill="#81983f" d="M 255.5,243.5 C 255.027,244.906 254.027,245.573 252.5,245.5C 252.973,244.094 253.973,243.427 255.5,243.5 Z"/></g>
<g><path style="opacity:1" fill="#6f7e40" d="M 368.5,243.5 C 368.027,244.906 367.027,245.573 365.5,245.5C 365.973,244.094 366.973,243.427 368.5,243.5 Z"/></g>
<g><path style="opacity:1" fill="#839a40" d="M 571.5,243.5 C 571.027,244.906 570.027,245.573 568.5,245.5C 568.973,244.094 569.973,243.427 571.5,243.5 Z"/></g>
<g><path style="opacity:1" fill="#879f3f" d="M 252.5,245.5 C 252.027,246.906 251.027,247.573 249.5,247.5C 249.973,246.094 250.973,245.427 252.5,245.5 Z"/></g>
<g><path style="opacity:1" fill="#6b7841" d="M 365.5,245.5 C 365.027,246.906 364.027,247.573 362.5,247.5C 362.973,246.094 363.973,245.427 365.5,245.5 Z"/></g>
<g><path style="opacity:1" fill="#3a723c" d="M 457.5,233.5 C 457.5,238.5 457.5,243.5 457.5,248.5C 447.5,248.5 437.5,248.5 427.5,248.5C 436.986,247.506 446.652,247.173 456.5,247.5C 456.5,243.167 456.5,238.833 456.5,234.5C 443.784,234.205 431.117,234.538 418.5,235.5C 418.611,234.883 418.944,234.383 419.5,234C 432.162,233.5 444.829,233.333 457.5,233.5 Z"/></g>
<g><path style="opacity:1" fill="#425344" d="M 457.5,233.5 C 458.488,238.64 458.821,243.974 458.5,249.5C 448.5,249.5 438.5,249.5 428.5,249.5C 428.5,250.833 428.5,252.167 428.5,253.5C 428.167,253.5 427.833,253.5 427.5,253.5C 427.5,251.833 427.5,250.167 427.5,248.5C 437.5,248.5 447.5,248.5 457.5,248.5C 457.5,243.5 457.5,238.5 457.5,233.5 Z"/></g>
<g><path style="opacity:1" fill="#415f23" d="M 362.5,247.5 C 362.5,248.167 362.5,248.833 362.5,249.5C 360.784,249.629 359.117,249.962 357.5,250.5C 358.659,248.75 360.326,247.75 362.5,247.5 Z"/></g>
<g><path style="opacity:1" fill="#859c3f" d="M 244.5,250.5 C 244.027,251.906 243.027,252.573 241.5,252.5C 241.973,251.094 242.973,250.427 244.5,250.5 Z"/></g>
<g><path style="opacity:1" fill="#678a2b" d="M 560.5,250.5 C 560.027,251.906 559.027,252.573 557.5,252.5C 557.973,251.094 558.973,250.427 560.5,250.5 Z"/></g>
<g><path style="opacity:1" fill="#537626" d="M 355.5,251.5 C 355.027,252.906 354.027,253.573 352.5,253.5C 352.973,252.094 353.973,251.427 355.5,251.5 Z"/></g>
<g><path style="opacity:1" fill="#8faa41" d="M 638.5,248.5 C 640.587,249.585 641.92,251.251 642.5,253.5C 640.413,252.415 639.08,250.749 638.5,248.5 Z"/></g>
<g><path style="opacity:1" fill="#0e2917" d="M 362.5,249.5 C 364.95,251.629 366.617,254.296 367.5,257.5C 363.604,258.797 360.104,261.463 357,265.5C 356.667,265.167 356.333,264.833 356,264.5C 351.242,268.502 346.575,272.502 342,276.5C 341.667,276.167 341.333,275.833 341,275.5C 337.35,278.852 334.017,281.852 331,284.5C 330.667,284.167 330.333,283.833 330,283.5C 327.443,286.192 324.609,288.525 321.5,290.5C 320.754,291.736 320.421,293.07 320.5,294.5C 317.5,289.833 314.5,285.167 311.5,280.5C 311.5,280.167 311.5,279.833 311.5,279.5C 313.027,279.573 314.027,278.906 314.5,277.5C 316.027,277.573 317.027,276.906 317.5,275.5C 317.842,274.662 318.508,274.328 319.5,274.5C 321.027,274.573 322.027,273.906 322.5,272.5C 324.027,272.573 325.027,271.906 325.5,270.5C 325.842,269.662 326.508,269.328 327.5,269.5C 329.027,269.573 330.027,268.906 330.5,267.5C 332.027,267.573 333.027,266.906 333.5,265.5C 335.027,265.573 336.027,264.906 336.5,263.5C 336.842,262.662 337.508,262.328 338.5,262.5C 340.027,262.573 341.027,261.906 341.5,260.5C 343.027,260.573 344.027,259.906 344.5,258.5C 344.842,257.662 345.508,257.328 346.5,257.5C 348.027,257.573 349.027,256.906 349.5,255.5C 351.027,255.573 352.027,254.906 352.5,253.5C 354.027,253.573 355.027,252.906 355.5,251.5C 355.842,250.662 356.508,250.328 357.5,250.5C 359.117,249.962 360.784,249.629 362.5,249.5 Z"/></g>
<g><path style="opacity:1" fill="#3b643f" d="M 427.5,253.5 C 427.833,253.5 428.167,253.5 428.5,253.5C 436.174,253.334 443.841,253.5 451.5,254C 452.056,254.383 452.389,254.883 452.5,255.5C 444.036,254.89 435.703,254.224 427.5,253.5 Z"/></g>
<g><path style="opacity:1" fill="#6f932e" d="M 557.5,252.5 C 557.027,253.906 556.027,254.573 554.5,254.5C 554.973,253.094 555.973,252.427 557.5,252.5 Z"/></g>
<g><path style="opacity:1" fill="#4b6c23" d="M 352.5,253.5 C 352.027,254.906 351.027,255.573 349.5,255.5C 349.973,254.094 350.973,253.427 352.5,253.5 Z"/></g>
<g><path style="opacity:1" fill="#82983f" d="M 236.5,255.5 C 236.027,256.906 235.027,257.573 233.5,257.5C 233.973,256.094 234.973,255.427 236.5,255.5 Z"/></g>
<g><path style="opacity:1" fill="#446421" d="M 349.5,255.5 C 349.027,256.906 348.027,257.573 346.5,257.5C 346.973,256.094 347.973,255.427 349.5,255.5 Z"/></g>
<g><path style="opacity:1" fill="#102e1b" d="M 367.5,257.5 C 369.326,259.147 370.66,261.147 371.5,263.5C 362.14,271.699 352.14,279.199 341.5,286C 335.612,290.732 329.946,295.566 324.5,300.5C 322.808,298.795 321.475,296.795 320.5,294.5C 320.421,293.07 320.754,291.736 321.5,290.5C 324.609,288.525 327.443,286.192 330,283.5C 330.333,283.833 330.667,284.167 331,284.5C 334.017,281.852 337.35,278.852 341,275.5C 341.333,275.833 341.667,276.167 342,276.5C 346.575,272.502 351.242,268.502 356,264.5C 356.333,264.833 356.667,265.167 357,265.5C 360.104,261.463 363.604,258.797 367.5,257.5 Z"/></g>
<g><path style="opacity:1" fill="#87a040" d="M 233.5,257.5 C 233.027,258.906 232.027,259.573 230.5,259.5C 230.973,258.094 231.973,257.427 233.5,257.5 Z"/></g>
<g><path style="opacity:1" fill="#6b8f2d" d="M 549.5,257.5 C 549.027,258.906 548.027,259.573 546.5,259.5C 546.973,258.094 547.973,257.427 549.5,257.5 Z"/></g>
<g><path style="opacity:1" fill="#4e7023" d="M 344.5,258.5 C 344.027,259.906 343.027,260.573 341.5,260.5C 341.973,259.094 342.973,258.427 344.5,258.5 Z"/></g>
<g><path style="opacity:1" fill="#739830" d="M 546.5,259.5 C 546.027,260.906 545.027,261.573 543.5,261.5C 543.973,260.094 544.973,259.427 546.5,259.5 Z"/></g>
<g><path style="opacity:1" fill="#476822" d="M 341.5,260.5 C 341.027,261.906 340.027,262.573 338.5,262.5C 338.973,261.094 339.973,260.427 341.5,260.5 Z"/></g>
<g><path style="opacity:1" fill="#8ea941" d="M 647.5,260.5 C 650.192,261.591 650.858,263.257 649.5,265.5C 648.833,263.833 648.167,262.167 647.5,260.5 Z"/></g>
<g><path style="opacity:1" fill="#688b2c" d="M 541.5,262.5 C 541.027,263.906 540.027,264.573 538.5,264.5C 538.973,263.094 539.973,262.427 541.5,262.5 Z"/></g>
<g><path style="opacity:1" fill="#a4c745" d="M 227.5,261.5 C 226.551,263.737 225.884,266.071 225.5,268.5C 221.218,264.999 221.885,262.666 227.5,261.5 Z"/></g>
<g><path style="opacity:1" fill="#527425" d="M 336.5,263.5 C 336.027,264.906 335.027,265.573 333.5,265.5C 333.973,264.094 334.973,263.427 336.5,263.5 Z"/></g>
<g><path style="opacity:1" fill="#3c623f" d="M 458.5,261.5 C 459.654,267.987 459.821,274.654 459,281.5C 458.617,282.056 458.117,282.389 457.5,282.5C 458.427,275.557 458.76,268.557 458.5,261.5 Z"/></g>
<g><path style="opacity:1" fill="#70952f" d="M 538.5,264.5 C 538.027,265.906 537.027,266.573 535.5,266.5C 535.973,265.094 536.973,264.427 538.5,264.5 Z"/></g>
<g><path style="opacity:1" fill="#4a6b22" d="M 333.5,265.5 C 333.027,266.906 332.027,267.573 330.5,267.5C 330.973,266.094 331.973,265.427 333.5,265.5 Z"/></g>
<g><path style="opacity:1" fill="#728240" d="M 649.5,265.5 C 649.027,266.906 648.027,267.573 646.5,267.5C 646.973,266.094 647.973,265.427 649.5,265.5 Z"/></g>
<g><path style="opacity:1" fill="#13351f" d="M 371.5,263.5 C 374,266.494 376,269.827 377.5,273.5C 364.026,282.476 350.693,291.642 337.5,301C 334.069,303.563 331.736,306.73 330.5,310.5C 328.515,307.202 326.515,303.869 324.5,300.5C 329.946,295.566 335.612,290.732 341.5,286C 352.14,279.199 362.14,271.699 371.5,263.5 Z"/></g>
<g><path style="opacity:1" fill="#436320" d="M 330.5,267.5 C 330.027,268.906 329.027,269.573 327.5,269.5C 327.973,268.094 328.973,267.427 330.5,267.5 Z"/></g>
<g><path style="opacity:1" fill="#6d7c40" d="M 646.5,267.5 C 646.027,268.906 645.027,269.573 643.5,269.5C 643.973,268.094 644.973,267.427 646.5,267.5 Z"/></g>
<g><path style="opacity:1" fill="#6c912e" d="M 530.5,269.5 C 530.027,270.906 529.027,271.573 527.5,271.5C 527.973,270.094 528.973,269.427 530.5,269.5 Z"/></g>
<g><path style="opacity:1" fill="#4e6f23" d="M 325.5,270.5 C 325.027,271.906 324.027,272.573 322.5,272.5C 322.973,271.094 323.973,270.427 325.5,270.5 Z"/></g>
<g><path style="opacity:1" fill="#6d7a42" d="M 643.5,269.5 C 642.514,271.408 640.848,272.408 638.5,272.5C 639.659,270.75 641.326,269.75 643.5,269.5 Z"/></g>
<g><path style="opacity:1" fill="#466621" d="M 322.5,272.5 C 322.027,273.906 321.027,274.573 319.5,274.5C 319.973,273.094 320.973,272.427 322.5,272.5 Z"/></g>
<g><path style="opacity:1" fill="#163b22" d="M 377.5,273.5 C 379.326,275.147 380.66,277.147 381.5,279.5C 367.387,291.059 352.72,301.893 337.5,312C 334.882,313.361 334.215,315.194 335.5,317.5C 333.478,315.469 331.811,313.135 330.5,310.5C 331.736,306.73 334.069,303.563 337.5,301C 350.693,291.642 364.026,282.476 377.5,273.5 Z"/></g>
<g><path style="opacity:1" fill="#3e5c41" d="M 421.5,268.5 C 429.167,268.5 436.833,268.5 444.5,268.5C 444.5,270.5 444.5,272.5 444.5,274.5C 434.5,274.5 424.5,274.5 414.5,274.5C 423.986,273.506 433.652,273.173 443.5,273.5C 443.5,272.167 443.5,270.833 443.5,269.5C 435.981,269.825 428.648,269.492 421.5,268.5 Z"/></g>
<g><path style="opacity:1" fill="#6f7f40" d="M 638.5,272.5 C 638.027,273.906 637.027,274.573 635.5,274.5C 635.973,273.094 636.973,272.427 638.5,272.5 Z"/></g>
<g><path style="opacity:1" fill="#698d2d" d="M 522.5,274.5 C 522.027,275.906 521.027,276.573 519.5,276.5C 519.973,275.094 520.973,274.427 522.5,274.5 Z"/></g>
<g><path style="opacity:1" fill="#6b7940" d="M 635.5,274.5 C 635.027,275.906 634.027,276.573 632.5,276.5C 632.973,275.094 633.973,274.427 635.5,274.5 Z"/></g>
<g><path style="opacity:1" fill="#517224" d="M 317.5,275.5 C 317.027,276.906 316.027,277.573 314.5,277.5C 314.973,276.094 315.973,275.427 317.5,275.5 Z"/></g>
<g><path style="opacity:1" fill="#71962f" d="M 519.5,276.5 C 519.027,277.906 518.027,278.573 516.5,278.5C 516.973,277.094 517.973,276.427 519.5,276.5 Z"/></g>
<g><path style="opacity:1" fill="#496922" d="M 314.5,277.5 C 314.027,278.906 313.027,279.573 311.5,279.5C 311.973,278.094 312.973,277.427 314.5,277.5 Z"/></g>
<g><path style="opacity:1" fill="#718140" d="M 630.5,277.5 C 630.027,278.906 629.027,279.573 627.5,279.5C 627.973,278.094 628.973,277.427 630.5,277.5 Z"/></g>
<g><path style="opacity:1" fill="#6a793d" d="M 311.5,279.5 C 311.5,279.833 311.5,280.167 311.5,280.5C 310.609,281.11 309.609,281.443 308.5,281.5C 308.973,280.094 309.973,279.427 311.5,279.5 Z"/></g>
<g><path style="opacity:1" fill="#6d7b40" d="M 627.5,279.5 C 627.027,280.906 626.027,281.573 624.5,281.5C 624.973,280.094 625.973,279.427 627.5,279.5 Z"/></g>
<g><path style="opacity:1" fill="#194126" d="M 381.5,279.5 C 383.664,281.822 385.331,284.489 386.5,287.5C 369.967,298.356 353.967,310.023 338.5,322.5C 337.11,321.101 336.11,319.434 335.5,317.5C 334.215,315.194 334.882,313.361 337.5,312C 352.72,301.893 367.387,291.059 381.5,279.5 Z"/></g>
<g><path style="opacity:1" fill="#75863f" d="M 306.5,282.5 C 306.027,283.906 305.027,284.573 303.5,284.5C 303.973,283.094 304.973,282.427 306.5,282.5 Z"/></g>
<g><path style="opacity:1" fill="#748540" d="M 622.5,282.5 C 622.027,283.906 621.027,284.573 619.5,284.5C 619.973,283.094 620.973,282.427 622.5,282.5 Z"/></g>
<g><path style="opacity:1" fill="#a1c544" d="M 511.5,280.5 C 512.167,280.5 512.833,280.5 513.5,280.5C 512.323,282.032 510.989,283.532 509.5,285C 508.207,285.49 506.873,285.657 505.5,285.5C 507.5,283.833 509.5,282.167 511.5,280.5 Z"/></g>
<g><path style="opacity:1" fill="#707f40" d="M 303.5,284.5 C 303.027,285.906 302.027,286.573 300.5,286.5C 300.973,285.094 301.973,284.427 303.5,284.5 Z"/></g>
<g><path style="opacity:1" fill="#6f7e40" d="M 619.5,284.5 C 619.027,285.906 618.027,286.573 616.5,286.5C 616.973,285.094 617.973,284.427 619.5,284.5 Z"/></g>
<g><path style="opacity:1" fill="#6c7940" d="M 300.5,286.5 C 300.027,287.906 299.027,288.573 297.5,288.5C 297.973,287.094 298.973,286.427 300.5,286.5 Z"/></g>
<g><path style="opacity:1" fill="#1c472a" d="M 386.5,287.5 C 388.664,289.822 390.331,292.489 391.5,295.5C 390.883,295.389 390.383,295.056 390,294.5C 387.298,297.655 384.298,300.322 381,302.5C 380.667,302.167 380.333,301.833 380,301.5C 378.287,302.878 376.953,304.545 376,306.5C 375.667,306.167 375.333,305.833 375,305.5C 365.733,313.54 355.899,320.706 345.5,327C 344.395,329.12 344.395,331.287 345.5,333.5C 342.421,330.35 340.087,326.683 338.5,322.5C 353.967,310.023 369.967,298.356 386.5,287.5 Z"/></g>
<g><path style="opacity:1" fill="#88a140" d="M 503.5,286.5 C 503.027,287.906 502.027,288.573 500.5,288.5C 500.973,287.094 501.973,286.427 503.5,286.5 Z"/></g>
<g><path style="opacity:1" fill="#6b7840" d="M 616.5,286.5 C 616.027,287.906 615.027,288.573 613.5,288.5C 613.973,287.094 614.973,286.427 616.5,286.5 Z"/></g>
<g><path style="opacity:1" fill="#728240" d="M 295.5,289.5 C 295.027,290.906 294.027,291.573 292.5,291.5C 292.973,290.094 293.973,289.427 295.5,289.5 Z"/></g>
<g><path style="opacity:1" fill="#718040" d="M 611.5,289.5 C 611.027,290.906 610.027,291.573 608.5,291.5C 608.973,290.094 609.973,289.427 611.5,289.5 Z"/></g>
<g><path style="opacity:1" fill="#bdea4c" d="M 309.5,295.5 C 309.427,297.027 310.094,298.027 311.5,298.5C 311.241,300.989 312.241,302.656 314.5,303.5C 315.674,304.514 316.34,305.847 316.5,307.5C 316.427,309.027 317.094,310.027 318.5,310.5C 318.5,311.833 318.5,313.167 318.5,314.5C 314.833,314.5 311.167,314.5 307.5,314.5C 293.512,313.767 279.512,313.434 265.5,313.5C 264.391,312.71 263.058,312.21 261.5,312C 263.066,311.392 264.4,310.558 265.5,309.5C 269.138,307.831 272.472,305.831 275.5,303.5C 280.063,301.714 284.396,299.714 288.5,297.5C 294.079,296.711 298.745,294.378 302.5,290.5C 303.601,289.402 304.934,289.235 306.5,290C 307.758,291.741 308.758,293.574 309.5,295.5 Z"/></g>
<g><path style="opacity:1" fill="#6d7c40" d="M 292.5,291.5 C 292.027,292.906 291.027,293.573 289.5,293.5C 289.973,292.094 290.973,291.427 292.5,291.5 Z"/></g>
<g><path style="opacity:1" fill="#6d7a40" d="M 608.5,291.5 C 608.027,292.906 607.027,293.573 605.5,293.5C 605.973,292.094 606.973,291.427 608.5,291.5 Z"/></g>
<g><path style="opacity:1" fill="#99b843" d="M 302.5,290.5 C 298.745,294.378 294.079,296.711 288.5,297.5C 288.5,297.167 288.5,296.833 288.5,296.5C 293.167,294.5 297.833,292.5 302.5,290.5 Z"/></g>
<g><path style="opacity:1" fill="#738440" d="M 603.5,294.5 C 603.027,295.906 602.027,296.573 600.5,296.5C 600.973,295.094 601.973,294.427 603.5,294.5 Z"/></g>
<g><path style="opacity:1" fill="#7e933f" d="M 309.5,295.5 C 310.906,295.973 311.573,296.973 311.5,298.5C 310.094,298.027 309.427,297.027 309.5,295.5 Z"/></g>
<g><path style="opacity:1" fill="#a6ca46" d="M 497.5,290.5 C 497.5,291.5 497.5,292.5 497.5,293.5C 495.94,293.519 494.44,293.852 493,294.5C 489.739,297.36 486.239,299.86 482.5,302C 481.207,302.49 479.873,302.657 478.5,302.5C 484.319,297.753 490.652,293.753 497.5,290.5 Z"/></g>
<g><path style="opacity:1" fill="#6e7d40" d="M 600.5,296.5 C 600.027,297.906 599.027,298.573 597.5,298.5C 597.973,297.094 598.973,296.427 600.5,296.5 Z"/></g>
<g><path style="opacity:1" fill="#204e2e" d="M 391.5,295.5 C 394.579,298.65 396.913,302.317 398.5,306.5C 397.115,305.386 395.615,304.386 394,303.5C 393.047,305.455 391.713,307.122 390,308.5C 389.667,308.167 389.333,307.833 389,307.5C 375.428,318.71 361.928,328.543 348.5,337C 349.337,338.011 349.67,339.178 349.5,340.5C 347.929,338.365 346.596,336.032 345.5,333.5C 344.395,331.287 344.395,329.12 345.5,327C 355.899,320.706 365.733,313.54 375,305.5C 375.333,305.833 375.667,306.167 376,306.5C 376.953,304.545 378.287,302.878 380,301.5C 380.333,301.833 380.667,302.167 381,302.5C 384.298,300.322 387.298,297.655 390,294.5C 390.383,295.056 390.883,295.389 391.5,295.5 Z"/></g>
<g><path style="opacity:1" fill="#5c6344" d="M 289.5,293.5 C 288.89,294.391 288.557,295.391 288.5,296.5C 288.5,296.833 288.5,297.167 288.5,297.5C 284.396,299.714 280.063,301.714 275.5,303.5C 275.833,302.833 276.167,302.167 276.5,301.5C 280.323,298.084 284.657,295.418 289.5,293.5 Z"/></g>
<g><path style="opacity:1" fill="#6a7741" d="M 597.5,298.5 C 597.027,299.906 596.027,300.573 594.5,300.5C 594.973,299.094 595.973,298.427 597.5,298.5 Z"/></g>
<g><path style="opacity:1" fill="#96b343" d="M 311.5,298.5 C 312.89,299.899 313.89,301.566 314.5,303.5C 312.241,302.656 311.241,300.989 311.5,298.5 Z"/></g>
<g><path style="opacity:1" fill="#707f40" d="M 592.5,301.5 C 592.027,302.906 591.027,303.573 589.5,303.5C 589.973,302.094 590.973,301.427 592.5,301.5 Z"/></g>
<g><path style="opacity:1" fill="#a5c945" d="M 478.5,302.5 C 478.5,303.5 478.5,304.5 478.5,305.5C 475.779,305.963 473.112,306.629 470.5,307.5C 472.822,305.336 475.489,303.669 478.5,302.5 Z"/></g>
<g><path style="opacity:1" fill="#6c7940" d="M 589.5,303.5 C 589.027,304.906 588.027,305.573 586.5,305.5C 586.973,304.094 587.973,303.427 589.5,303.5 Z"/></g>
<g><path style="opacity:1" fill="#235432" d="M 398.5,306.5 C 400.326,308.147 401.66,310.147 402.5,312.5C 401.399,311.2 400.066,310.7 398.5,311C 384.283,322.218 369.783,333.052 355,343.5C 354.506,345.134 354.34,346.801 354.5,348.5C 352.847,345.869 351.181,343.203 349.5,340.5C 349.67,339.178 349.337,338.011 348.5,337C 361.928,328.543 375.428,318.71 389,307.5C 389.333,307.833 389.667,308.167 390,308.5C 391.713,307.122 393.047,305.455 394,303.5C 395.615,304.386 397.115,305.386 398.5,306.5 Z"/></g>
<g><path style="opacity:1" fill="#7f953f" d="M 276.5,301.5 C 276.167,302.167 275.833,302.833 275.5,303.5C 272.472,305.831 269.138,307.831 265.5,309.5C 264.833,309.5 264.5,309.167 264.5,308.5C 268.517,306.139 272.517,303.806 276.5,301.5 Z"/></g>
<g><path style="opacity:1" fill="#728340" d="M 584.5,306.5 C 584.027,307.906 583.027,308.573 581.5,308.5C 581.973,307.094 582.973,306.427 584.5,306.5 Z"/></g>
<g><path style="opacity:1" fill="#849c3f" d="M 316.5,307.5 C 317.906,307.973 318.573,308.973 318.5,310.5C 317.094,310.027 316.427,309.027 316.5,307.5 Z"/></g>
<g><path style="opacity:1" fill="#6d7c40" d="M 581.5,308.5 C 581.027,309.906 580.027,310.573 578.5,310.5C 578.973,309.094 579.973,308.427 581.5,308.5 Z"/></g>
<g><path style="opacity:1" fill="#a3c743" d="M 254.5,308.5 C 256.024,309.174 257.358,310.174 258.5,311.5C 260.527,310.487 262.527,309.487 264.5,308.5C 264.5,309.167 264.833,309.5 265.5,309.5C 264.4,310.558 263.066,311.392 261.5,312C 263.058,312.21 264.391,312.71 265.5,313.5C 262.833,313.5 260.167,313.5 257.5,313.5C 256.248,311.999 255.248,310.332 254.5,308.5 Z"/></g>
<g><path style="opacity:1" fill="#697641" d="M 578.5,310.5 C 578.027,311.906 577.027,312.573 575.5,312.5C 575.973,311.094 576.973,310.427 578.5,310.5 Z"/></g>
<g><path style="opacity:1" fill="#265a35" d="M 402.5,312.5 C 404.664,314.822 406.331,317.489 407.5,320.5C 405.962,318.478 404.128,318.145 402,319.5C 387.582,330.624 373.082,341.624 358.5,352.5C 359.246,353.736 359.579,355.07 359.5,356.5C 357.847,353.869 356.181,351.203 354.5,348.5C 354.34,346.801 354.506,345.134 355,343.5C 369.783,333.052 384.283,322.218 398.5,311C 400.066,310.7 401.399,311.2 402.5,312.5 Z"/></g>
<g><path style="opacity:1" fill="#7f943f" d="M 257.5,313.5 C 260.167,313.5 262.833,313.5 265.5,313.5C 279.512,313.434 293.512,313.767 307.5,314.5C 307.5,314.833 307.5,315.167 307.5,315.5C 307.167,315.5 306.833,315.5 306.5,315.5C 289.992,315.251 273.659,314.584 257.5,313.5 Z"/></g>
<g><path style="opacity:1" fill="#9ab941" d="M 318.5,310.5 C 319.401,311.29 320.068,312.29 320.5,313.5C 316.627,315.43 312.294,316.097 307.5,315.5C 307.5,315.167 307.5,314.833 307.5,314.5C 311.167,314.5 314.833,314.5 318.5,314.5C 318.5,313.167 318.5,311.833 318.5,310.5 Z"/></g>
<g><path style="opacity:1" fill="#707f40" d="M 573.5,313.5 C 573.027,314.906 572.027,315.573 570.5,315.5C 570.973,314.094 571.973,313.427 573.5,313.5 Z"/></g>
<g><path style="opacity:1" fill="#606941" d="M 320.5,313.5 C 321.404,314.209 321.737,315.209 321.5,316.5C 316.305,316.821 311.305,316.487 306.5,315.5C 306.833,315.5 307.167,315.5 307.5,315.5C 312.294,316.097 316.627,315.43 320.5,313.5 Z"/></g>
<g><path style="opacity:1" fill="#aacf46" d="M 470.5,307.5 C 470.5,308.5 470.5,309.5 470.5,310.5C 468.94,310.519 467.44,310.852 466,311.5C 463.427,314.369 460.26,316.036 456.5,316.5C 460.624,312.719 465.291,309.719 470.5,307.5 Z"/></g>
<g><path style="opacity:1" fill="#6b7840" d="M 570.5,315.5 C 570.027,316.906 569.027,317.573 567.5,317.5C 567.973,316.094 568.973,315.427 570.5,315.5 Z"/></g>
<g><path style="opacity:1" fill="#667241" d="M 567.5,317.5 C 567.027,318.906 566.027,319.573 564.5,319.5C 564.973,318.094 565.973,317.427 567.5,317.5 Z"/></g>
<g><path style="opacity:1" fill="#6d7a40" d="M 562.5,320.5 C 562.027,321.906 561.027,322.573 559.5,322.5C 559.973,321.094 560.973,320.427 562.5,320.5 Z"/></g>
<g><path style="opacity:1" fill="#687541" d="M 559.5,322.5 C 559.027,323.906 558.027,324.573 556.5,324.5C 556.973,323.094 557.973,322.427 559.5,322.5 Z"/></g>
<g><path style="opacity:1" fill="#2a643a" d="M 407.5,320.5 C 410.08,323.989 412.413,327.656 414.5,331.5C 398.787,341.7 383.453,352.533 368.5,364C 367.62,365.356 367.286,366.856 367.5,368.5C 364.474,364.795 361.808,360.795 359.5,356.5C 359.579,355.07 359.246,353.736 358.5,352.5C 373.082,341.624 387.582,330.624 402,319.5C 404.128,318.145 405.962,318.478 407.5,320.5 Z"/></g>
<g><path style="opacity:1" fill="#6f7d40" d="M 554.5,325.5 C 554.027,326.906 553.027,327.573 551.5,327.5C 551.973,326.094 552.973,325.427 554.5,325.5 Z"/></g>
<g><path style="opacity:1" fill="#6a7741" d="M 551.5,327.5 C 551.027,328.906 550.027,329.573 548.5,329.5C 548.973,328.094 549.973,327.427 551.5,327.5 Z"/></g>
<g><path style="opacity:1" fill="#2f6d3a" d="M 414.5,331.5 C 415.89,332.899 416.89,334.566 417.5,336.5C 402.121,346.366 387.121,356.866 372.5,368C 370.166,369.842 369.832,372.009 371.5,374.5C 369.684,372.882 368.351,370.882 367.5,368.5C 367.286,366.856 367.62,365.356 368.5,364C 383.453,352.533 398.787,341.7 414.5,331.5 Z"/></g>
<g><path style="opacity:1" fill="#6c7a40" d="M 543.5,332.5 C 543.027,333.906 542.027,334.573 540.5,334.5C 540.973,333.094 541.973,332.427 543.5,332.5 Z"/></g>
<g><path style="opacity:1" fill="#677341" d="M 540.5,334.5 C 540.027,335.906 539.027,336.573 537.5,336.5C 537.973,335.094 538.973,334.427 540.5,334.5 Z"/></g>
<g><path style="opacity:1" fill="#327339" d="M 417.5,336.5 C 418.222,337.551 419.222,338.218 420.5,338.5C 420.5,338.833 420.5,339.167 420.5,339.5C 405.045,350.449 389.712,361.615 374.5,373C 373.62,374.356 373.286,375.856 373.5,377.5C 372.094,377.027 371.427,376.027 371.5,374.5C 369.832,372.009 370.166,369.842 372.5,368C 387.121,356.866 402.121,346.366 417.5,336.5 Z"/></g>
<g><path style="opacity:1" fill="#6e7c40" d="M 535.5,337.5 C 535.027,338.906 534.027,339.573 532.5,339.5C 532.973,338.094 533.973,337.427 535.5,337.5 Z"/></g>
<g><path style="opacity:1" fill="#357939" d="M 420.5,339.5 C 420.833,340.833 421.167,342.167 421.5,343.5C 421.67,344.822 421.337,345.989 420.5,347C 406.132,357.567 391.132,368.234 375.5,379C 376.5,379.333 377.5,379.667 378.5,380C 376.401,382.816 377.401,384.316 381.5,384.5C 380.359,386.451 380.359,388.451 381.5,390.5C 378.084,386.677 375.418,382.343 373.5,377.5C 373.286,375.856 373.62,374.356 374.5,373C 389.712,361.615 405.045,350.449 420.5,339.5 Z"/></g>
<g><path style="opacity:1" fill="#697541" d="M 532.5,339.5 C 532.027,340.906 531.027,341.573 529.5,341.5C 529.973,340.094 530.973,339.427 532.5,339.5 Z"/></g>
<g><path style="opacity:1" fill="#6b7841" d="M 524.5,344.5 C 524.027,345.906 523.027,346.573 521.5,346.5C 521.973,345.094 522.973,344.427 524.5,344.5 Z"/></g>
<g><path style="opacity:1" fill="#667242" d="M 521.5,346.5 C 521.027,347.906 520.027,348.573 518.5,348.5C 518.973,347.094 519.973,346.427 521.5,346.5 Z"/></g>
<g><path style="opacity:1" fill="#687441" d="M 513.5,351.5 C 513.027,352.906 512.027,353.573 510.5,353.5C 510.973,352.094 511.973,351.427 513.5,351.5 Z"/></g>
<g><path style="opacity:1" fill="#6a7641" d="M 505.5,356.5 C 505.027,357.906 504.027,358.573 502.5,358.5C 502.973,357.094 503.973,356.427 505.5,356.5 Z"/></g>
<g><path style="opacity:1" fill="#419238" d="M 429.5,355.5 C 431.192,357.205 432.525,359.205 433.5,361.5C 432.909,364.614 431.242,367.114 428.5,369C 416.285,378.056 403.951,386.89 391.5,395.5C 390.319,396.515 389.319,397.681 388.5,399C 389.32,400.8 389.986,402.634 390.5,404.5C 388.478,402.469 386.811,400.135 385.5,397.5C 385.188,394.112 386.521,391.612 389.5,390C 403.344,380.244 417.011,370.244 430.5,360C 429.62,358.644 429.286,357.144 429.5,355.5 Z"/></g>
<g><path style="opacity:1" fill="#3c8838" d="M 425.5,349.5 C 427.192,351.205 428.525,353.205 429.5,355.5C 429.286,357.144 429.62,358.644 430.5,360C 417.011,370.244 403.344,380.244 389.5,390C 386.521,391.612 385.188,394.112 385.5,397.5C 383.412,395.664 382.079,393.331 381.5,390.5C 380.359,388.451 380.359,386.451 381.5,384.5C 384.408,383.841 384.742,383.007 382.5,382C 382.833,381.667 383.167,381.333 383.5,381C 385.447,381.536 387.447,381.202 389.5,380C 388.692,379.692 388.025,379.192 387.5,378.5C 389.61,378.706 391.61,377.873 393.5,376C 392.833,375.667 392.167,375.333 391.5,375C 392.784,374.316 393.951,374.483 395,375.5C 397.034,374.257 397.867,372.757 397.5,371C 398.931,370.535 400.097,369.701 401,368.5C 402.016,369.634 402.683,369.301 403,367.5C 403.333,367.833 403.667,368.167 404,368.5C 404.881,366.131 406.381,363.964 408.5,362C 412.776,360.19 417.109,358.19 421.5,356C 420.833,355.667 420.167,355.333 419.5,355C 420.784,354.316 421.951,354.483 423,355.5C 425.096,354.285 424.929,353.451 422.5,353C 424.063,352.241 425.063,351.074 425.5,349.5 Z"/></g>
<g><path style="opacity:1" fill="#677341" d="M 494.5,363.5 C 494.027,364.906 493.027,365.573 491.5,365.5C 491.973,364.094 492.973,363.427 494.5,363.5 Z"/></g>
<g><path style="opacity:1" fill="#388138" d="M 421.5,343.5 C 423.326,345.147 424.66,347.147 425.5,349.5C 425.063,351.074 424.063,352.241 422.5,353C 424.929,353.451 425.096,354.285 423,355.5C 421.951,354.483 420.784,354.316 419.5,355C 420.167,355.333 420.833,355.667 421.5,356C 417.109,358.19 412.776,360.19 408.5,362C 406.381,363.964 404.881,366.131 404,368.5C 403.667,368.167 403.333,367.833 403,367.5C 402.683,369.301 402.016,369.634 401,368.5C 400.097,369.701 398.931,370.535 397.5,371C 397.867,372.757 397.034,374.257 395,375.5C 393.951,374.483 392.784,374.316 391.5,375C 392.167,375.333 392.833,375.667 393.5,376C 391.61,377.873 389.61,378.706 387.5,378.5C 388.025,379.192 388.692,379.692 389.5,380C 387.447,381.202 385.447,381.536 383.5,381C 383.167,381.333 382.833,381.667 382.5,382C 384.742,383.007 384.408,383.841 381.5,384.5C 377.401,384.316 376.401,382.816 378.5,380C 377.5,379.667 376.5,379.333 375.5,379C 391.132,368.234 406.132,357.567 420.5,347C 421.337,345.989 421.67,344.822 421.5,343.5 Z"/></g>
<g><path style="opacity:1" fill="#697541" d="M 486.5,368.5 C 486.027,369.906 485.027,370.573 483.5,370.5C 483.973,369.094 484.973,368.427 486.5,368.5 Z"/></g>
<g><path style="opacity:1" fill="#4da939" d="M 440.5,373.5 C 443.241,375.975 445.241,378.975 446.5,382.5C 442.679,386.164 438.679,389.831 434.5,393.5C 422.596,401.072 411.263,409.406 400.5,418.5C 401.747,420.323 402.414,422.323 402.5,424.5C 400.847,421.869 399.181,419.203 397.5,416.5C 396.833,414.181 396.666,411.847 397,409.5C 407.078,401.878 417.244,394.378 427.5,387C 430.889,382.377 435.055,378.544 440,375.5C 440.464,374.906 440.631,374.239 440.5,373.5 Z"/></g>
<g><path style="opacity:1" fill="#469b38" d="M 433.5,361.5 C 436.335,365.164 438.668,369.164 440.5,373.5C 440.631,374.239 440.464,374.906 440,375.5C 435.055,378.544 430.889,382.377 427.5,387C 417.244,394.378 407.078,401.878 397,409.5C 396.666,411.847 396.833,414.181 397.5,416.5C 394.665,412.836 392.332,408.836 390.5,404.5C 389.986,402.634 389.32,400.8 388.5,399C 389.319,397.681 390.319,396.515 391.5,395.5C 403.951,386.89 416.285,378.056 428.5,369C 431.242,367.114 432.909,364.614 433.5,361.5 Z"/></g>
<g><path style="opacity:1" fill="#0a2214" d="M 486.5,384.5 C 486.5,386.5 486.5,388.5 486.5,390.5C 479.796,395.179 473.129,399.846 466.5,404.5C 465.326,403.486 464.66,402.153 464.5,400.5C 465.552,400.649 466.552,400.483 467.5,400C 470.236,398.476 472.236,396.309 473.5,393.5C 478.162,390.815 482.495,387.815 486.5,384.5 Z"/></g>
<g><path style="opacity:1" fill="#52b53b" d="M 446.5,382.5 C 448.263,385.02 450.263,387.353 452.5,389.5C 452.704,391.685 453.37,393.685 454.5,395.5C 452.806,394.314 451.139,394.481 449.5,396C 436.114,406.386 422.447,416.386 408.5,426C 406.963,427.11 406.297,428.61 406.5,430.5C 404.808,428.795 403.475,426.795 402.5,424.5C 402.414,422.323 401.747,420.323 400.5,418.5C 411.263,409.406 422.596,401.072 434.5,393.5C 438.679,389.831 442.679,386.164 446.5,382.5 Z"/></g>
<g><path style="opacity:1" fill="#06150d" d="M 486.5,384.5 C 482.495,387.815 478.162,390.815 473.5,393.5C 472.236,396.309 470.236,398.476 467.5,400C 466.552,400.483 465.552,400.649 464.5,400.5C 462.834,398.813 461.5,396.813 460.5,394.5C 468.675,388.749 477.341,384.082 486.5,380.5C 486.5,381.833 486.5,383.167 486.5,384.5 Z"/></g>
<g><path style="opacity:1" fill="#58c13d" d="M 454.5,395.5 C 457.241,397.975 459.241,400.975 460.5,404.5C 458.806,403.314 457.139,403.481 455.5,405C 442.114,415.386 428.447,425.386 414.5,435C 412.963,436.11 412.297,437.61 412.5,439.5C 409.769,437.054 407.769,434.054 406.5,430.5C 406.297,428.61 406.963,427.11 408.5,426C 422.447,416.386 436.114,406.386 449.5,396C 451.139,394.481 452.806,394.314 454.5,395.5 Z"/></g>
<g><path style="opacity:1" fill="#163b23" d="M 486.5,390.5 C 486.5,392.5 486.5,394.5 486.5,396.5C 482.531,401.787 477.531,406.121 471.5,409.5C 470.571,410.689 470.238,412.022 470.5,413.5C 468.93,410.686 467.597,407.686 466.5,404.5C 473.129,399.846 479.796,395.179 486.5,390.5 Z"/></g>
<g><path style="opacity:1" fill="#5ecd40" d="M 460.5,404.5 C 463.221,407.894 465.554,411.561 467.5,415.5C 466.279,414.972 465.113,414.305 464,413.5C 449.255,424.456 434.422,435.289 419.5,446C 418.663,447.011 418.33,448.178 418.5,449.5C 416,446.506 414,443.173 412.5,439.5C 412.297,437.61 412.963,436.11 414.5,435C 428.447,425.386 442.114,415.386 455.5,405C 457.139,403.481 458.806,403.314 460.5,404.5 Z"/></g>
<g><path style="opacity:1" fill="#2b5836" d="M 486.5,396.5 C 486.83,412.009 486.496,427.342 485.5,442.5C 485.5,433.833 485.5,425.167 485.5,416.5C 485.5,415.167 485.5,413.833 485.5,412.5C 484.448,412.351 483.448,412.517 482.5,413C 480.275,415.228 477.775,417.061 475,418.5C 474.174,421.212 474.674,423.545 476.5,425.5C 476.932,426.71 477.599,427.71 478.5,428.5C 479.354,430.035 479.354,431.368 478.5,432.5C 476.735,429.291 474.735,426.291 472.5,423.5C 472.5,422.833 472.5,422.167 472.5,421.5C 473.043,421.44 473.376,421.107 473.5,420.5C 472.68,418.026 471.68,415.693 470.5,413.5C 470.238,412.022 470.571,410.689 471.5,409.5C 477.531,406.121 482.531,401.787 486.5,396.5 Z"/></g>
<g><path style="opacity:1" fill="#32713a" d="M 485.5,416.5 C 480.335,417.54 477.335,420.54 476.5,425.5C 474.674,423.545 474.174,421.212 475,418.5C 477.775,417.061 480.275,415.228 482.5,413C 483.448,412.517 484.448,412.351 485.5,412.5C 485.5,413.833 485.5,415.167 485.5,416.5 Z"/></g>
<g><path style="opacity:1" fill="#64da42" d="M 467.5,415.5 C 469.167,417.5 470.833,419.5 472.5,421.5C 472.5,422.167 472.5,422.833 472.5,423.5C 471.577,422.697 470.577,422.53 469.5,423C 456.114,433.386 442.447,443.386 428.5,453C 426.254,454.257 424.921,456.09 424.5,458.5C 422.265,455.709 420.265,452.709 418.5,449.5C 418.33,448.178 418.663,447.011 419.5,446C 434.422,435.289 449.255,424.456 464,413.5C 465.113,414.305 466.279,414.972 467.5,415.5 Z"/></g>
<g><path style="opacity:1" fill="#429038" d="M 485.5,416.5 C 485.5,425.167 485.5,433.833 485.5,442.5C 485.167,442.5 484.833,442.5 484.5,442.5C 484.5,437.833 484.5,433.167 484.5,428.5C 485.215,421.97 483.381,420.97 479,425.5C 478.517,426.448 478.351,427.448 478.5,428.5C 477.599,427.71 476.932,426.71 476.5,425.5C 477.335,420.54 480.335,417.54 485.5,416.5 Z"/></g>
<g><path style="opacity:1" fill="#4ba439" d="M 484.5,428.5 C 480.478,429.877 479.478,432.544 481.5,436.5C 480.272,435.694 479.272,434.694 478.5,433.5C 478.5,433.167 478.5,432.833 478.5,432.5C 479.354,431.368 479.354,430.035 478.5,428.5C 478.351,427.448 478.517,426.448 479,425.5C 483.381,420.97 485.215,421.97 484.5,428.5 Z"/></g>
<g><path style="opacity:1" fill="#6ae646" d="M 472.5,423.5 C 474.735,426.291 476.735,429.291 478.5,432.5C 478.5,432.833 478.5,433.167 478.5,433.5C 477.127,433.343 475.793,433.51 474.5,434C 461.011,444.244 447.344,454.244 433.5,464C 432.426,464.739 431.759,465.739 431.5,467C 432.609,469.047 433.276,471.213 433.5,473.5C 430.11,468.767 427.11,463.767 424.5,458.5C 424.921,456.09 426.254,454.257 428.5,453C 442.447,443.386 456.114,433.386 469.5,423C 470.577,422.53 471.577,422.697 472.5,423.5 Z"/></g>
<g><path style="opacity:1" fill="#5cc73f" d="M 484.5,428.5 C 484.5,433.167 484.5,437.833 484.5,442.5C 484.5,443.167 484.167,443.5 483.5,443.5C 483.122,441.079 482.455,438.746 481.5,436.5C 479.478,432.544 480.478,429.877 484.5,428.5 Z"/></g>
<g><path style="opacity:1" fill="#6fef49" d="M 478.5,433.5 C 479.272,434.694 480.272,435.694 481.5,436.5C 482.455,438.746 483.122,441.079 483.5,443.5C 478.948,446.603 474.614,449.936 470.5,453.5C 468.596,453.738 467.262,454.738 466.5,456.5C 456.731,463.089 447.064,469.922 437.5,477C 435.259,477.124 433.926,475.958 433.5,473.5C 433.276,471.213 432.609,469.047 431.5,467C 431.759,465.739 432.426,464.739 433.5,464C 447.344,454.244 461.011,444.244 474.5,434C 475.793,433.51 477.127,433.343 478.5,433.5 Z"/></g>
<g><path style="opacity:1" fill="#496c41" d="M 470.5,453.5 C 469.738,455.262 468.404,456.262 466.5,456.5C 467.262,454.738 468.596,453.738 470.5,453.5 Z"/></g>
</svg>
