<svg width="126" height="32" viewBox="0 0 126 32" fill="none" xmlns="http://www.w3.org/2000/svg">
<g clip-path="url(#clip0_2501_57070)">
<path d="M19.0655 25.7479V15.6068C19.0655 14.8539 18.9938 14.2186 18.8743 13.748C18.7548 13.2774 18.5397 12.8774 18.229 12.595C17.9183 12.3127 17.512 12.1245 16.9623 12.0068C16.4364 11.8892 15.7433 11.8421 14.9307 11.8421H9.40968C8.62096 11.8421 7.95174 11.8892 7.40203 12.0068C6.87622 12.1245 6.44601 12.3127 6.1114 12.595C5.80069 12.8774 5.56169 13.2539 5.44218 13.748C5.32268 14.2186 5.25098 14.8539 5.25098 15.6068V25.7479H0.160156V15.4186C0.160156 13.9598 0.30356 12.7362 0.590367 11.7245C0.877173 10.7127 1.35519 9.9127 2.0483 9.2774C2.74142 8.66564 3.64964 8.21858 4.77297 7.93622C5.92019 7.65387 7.33033 7.5127 9.05117 7.5127H15.2414C16.9623 7.5127 18.3963 7.65387 19.5435 7.93622C20.6907 8.21858 21.599 8.66564 22.2682 9.2774C22.9613 9.88917 23.4393 10.7127 23.7261 11.7245C24.0129 12.7362 24.1563 13.9598 24.1563 15.4186V25.7479H19.0655Z" fill="#C9CFD4"/>
<path d="M46.9116 12.901C46.9116 12.2893 46.7682 11.8893 46.4575 11.701C46.1468 11.4893 45.6209 11.3952 44.8322 11.3952H36.3714C35.7261 11.3952 35.2003 11.4187 34.7701 11.4893C34.3399 11.5363 33.9814 11.6775 33.7185 11.8658C33.4556 12.0775 33.2643 12.3599 33.1448 12.7363C33.0253 13.1128 32.9775 13.6304 32.9775 14.2893V15.254H46.9116V12.901ZM32.9775 18.4775V19.3246C32.9775 19.8893 33.0253 20.3363 33.1209 20.6657C33.2165 20.9951 33.3839 21.254 33.6229 21.4657C33.8619 21.6775 34.1726 21.7951 34.5789 21.8422C34.9852 21.9128 35.4632 21.9363 36.0607 21.9363H42.0598V25.7245H36.0607C33.1209 25.7245 31.0416 25.1833 29.7749 24.0774C28.532 22.9716 27.8867 21.2305 27.8867 18.8069V14.5952C27.8867 13.2775 28.0062 12.1481 28.2691 11.254C28.532 10.3363 28.9861 9.60693 29.6315 9.06575C30.2768 8.52458 31.1372 8.12458 32.2127 7.86575C33.2882 7.63046 34.6267 7.48926 36.2758 7.48926H45.2146C46.5292 7.48926 47.6286 7.60693 48.5129 7.86575C49.3972 8.10105 50.0904 8.45396 50.5923 8.90102C51.0942 9.34808 51.4527 9.86575 51.6678 10.4775C51.8829 11.0893 51.9785 11.7716 51.9785 12.4775V18.454H32.9775V18.4775Z" fill="#C9CFD4"/>
<path d="M71.384 25.7483L65.1459 19.1599L58.7884 25.7483H52.5742L62.1822 16.2658L53.2195 7.53638H59.3381L65.361 13.6776L71.5035 7.53638H77.6459L68.3964 16.4305L77.7415 25.7483H71.384Z" fill="#C9CFD4"/>
<path d="M81.0856 25.7479V11.5833H78.4805V7.53624H81.0856V2.3833H86.2721V7.53624H92.1038V11.5833H86.2721V25.7479H81.0856Z" fill="#C9CFD4"/>
<path fill-rule="evenodd" clip-rule="evenodd" d="M124.419 16.4541C126.881 20.5011 123.798 33.4658 104.391 26.6893C122.459 25.5599 122.77 13.7247 124.419 16.4541Z" fill="#C9CFD4"/>
<path fill-rule="evenodd" clip-rule="evenodd" d="M108.189 6.6893C111.965 6.75989 113.543 8.85401 113.901 9.63048C114.26 10.3834 114.116 11.5599 114.116 11.5599C114.116 11.5599 117.271 8.03048 117.08 5.37165C116.315 -5.56952 94.7089 1.58342 95.4976 14.454C95.5932 16.1952 97.3141 20.0305 100.087 19.254C100.087 19.254 98.6764 18.3834 98.3657 17.8422C96.0474 13.7481 103.791 6.59518 108.189 6.6893Z" fill="#C9CFD4"/>
<path d="M97.4578 4.85401C85.0534 29.8892 118.036 16.9246 118.299 4.00695C118.371 1.23049 115.24 0.101074 115.24 0.101074C115.24 0.101074 118.203 1.23049 119.088 3.53636C119.972 5.84224 121.789 11.3952 118.395 17.1599C115.001 22.9246 108.882 21.7481 108.93 24.4304C108.978 27.1127 111.248 28.5716 114.523 28.3363C117.797 28.101 121.789 25.748 122.745 24.9716C123.701 24.1716 124.226 23.5598 124.226 23.5598C124.226 23.5598 122.792 26.2186 117.964 29.2069C113.137 32.1951 105.99 33.2539 99.9195 28.9245C92.8449 23.9598 90.9568 11.8187 97.4578 4.85401Z" fill="#C9CFD4"/>
</g>
<defs>
<clipPath id="clip0_2501_57070">
<rect width="125" height="32" fill="white" transform="translate(0.160156)"/>
</clipPath>
</defs>
</svg>
