<svg width="200" height="32" viewBox="0 0 200 32" fill="none" xmlns="http://www.w3.org/2000/svg">
<g clip-path="url(#clip0_2501_57023)">
<mask id="mask0_2501_57023" style="mask-type:alpha" maskUnits="userSpaceOnUse" x="79" y="25" width="9" height="7">
<path d="M79.5703 25.4612H87.4838V31.394H79.5703V25.4612Z" fill="white"/>
</mask>
<g mask="url(#mask0_2501_57023)">
<path fill-rule="evenodd" clip-rule="evenodd" d="M85.664 26.2709C85.0791 25.75 84.3173 25.4614 83.5271 25.4614C82.7369 25.4614 81.9751 25.75 81.3902 26.2709L80 27.4945C79.77 27.7007 79.6218 27.9799 79.5814 28.2829C79.5411 28.5859 79.6113 28.8931 79.7796 29.1502L80.8862 30.8334C81.1158 31.1844 81.5027 31.3941 81.9183 31.3941H85.1368C85.5515 31.3941 85.9393 31.1844 86.169 30.8334L87.2765 29.1502C87.4449 28.8931 87.5152 28.5859 87.4749 28.2829C87.4346 27.9798 87.2862 27.7006 87.0561 27.4945L85.664 26.2709Z" fill="#C9CFD4"/>
</g>
<mask id="mask1_2501_57023" style="mask-type:alpha" maskUnits="userSpaceOnUse" x="0" y="11" width="15" height="16">
<path d="M0.371094 11.4365H14.1393V26.9785H0.371094V11.4365Z" fill="white"/>
</mask>
<g mask="url(#mask1_2501_57023)">
<path fill-rule="evenodd" clip-rule="evenodd" d="M11.3271 11.6628C11.3057 11.6516 11.2817 11.6457 11.2574 11.6455L6.69249 11.6482C6.39302 11.6497 6.09845 11.7228 5.83432 11.8612C5.57019 11.9996 5.34447 12.1991 5.17674 12.4423L4.46629 13.4562C4.43243 13.5055 4.38441 13.5438 4.32831 13.5663C4.27222 13.5888 4.21058 13.5944 4.15121 13.5825C4.09184 13.5706 4.03741 13.5417 3.99484 13.4994C3.95226 13.4571 3.92345 13.4033 3.91207 13.345L3.58567 11.9254C3.56904 11.8459 3.5364 11.7705 3.48965 11.7036C3.4429 11.6367 3.38299 11.5796 3.31344 11.5357C3.24388 11.4918 3.16608 11.4619 3.0846 11.4479C3.00312 11.4339 2.91961 11.4359 2.83896 11.454L0.849886 11.9281C0.769725 11.9476 0.694326 11.9826 0.628074 12.031C0.561822 12.0793 0.506041 12.1401 0.463974 12.2098C0.377177 12.3533 0.349881 12.524 0.387722 12.6867L1.40039 17.0841C1.43294 17.2255 1.44968 17.3704 1.44968 17.5163L1.45804 26.3404C1.45711 26.6896 1.7333 26.9786 2.07643 26.9795H4.11944C4.20248 26.9783 4.28447 26.9611 4.36073 26.9288C4.43698 26.8966 4.50601 26.8499 4.56386 26.7915C4.62172 26.7331 4.66727 26.664 4.69792 26.5884C4.72856 26.5127 4.74371 26.4318 4.74248 26.3504L4.73225 19.4347C4.73225 19.0399 4.85313 18.656 5.07817 18.3351L6.86824 15.7812C7.03603 15.538 7.26176 15.3386 7.52588 15.2002C7.78999 15.0618 8.08453 14.9887 8.38399 14.9871L10.0792 14.9862C10.3675 14.9862 10.653 15.0545 10.9124 15.1868L12.3268 15.9052C12.6337 16.0602 13.0056 15.9344 13.1591 15.6226L14.0732 13.7644C14.1474 13.6153 14.16 13.4439 14.1081 13.286C14.0563 13.1281 13.9441 12.996 13.7951 12.9174L11.3271 11.6628Z" fill="#C9CFD4"/>
</g>
<path fill-rule="evenodd" clip-rule="evenodd" d="M119.66 23.4252C119.544 23.1727 119.485 22.8989 119.485 22.622V15.2959C119.485 14.8264 119.313 14.3732 119.003 14.0249L117.442 12.2725C117.271 12.0784 117.06 11.9225 116.822 11.8153C116.584 11.708 116.326 11.6519 116.064 11.6507L110.73 11.6462C110.128 11.6462 109.562 11.9416 109.213 12.4412L108.472 13.4961C108.441 13.5421 108.397 13.5778 108.345 13.5988C108.293 13.6199 108.235 13.6252 108.18 13.6141C108.125 13.6031 108.075 13.5761 108.035 13.5367C107.996 13.4974 107.969 13.4473 107.959 13.3931L107.621 11.9242C107.604 11.8449 107.571 11.7696 107.525 11.7028C107.478 11.636 107.418 11.579 107.349 11.5352C107.279 11.4914 107.201 11.4616 107.12 11.4476C107.039 11.4336 106.955 11.4357 106.875 11.4538L104.885 11.9279C104.805 11.9475 104.73 11.9824 104.664 12.0306C104.598 12.0788 104.542 12.1393 104.5 12.2087C104.413 12.3521 104.385 12.5228 104.423 12.6856L105.436 17.083C105.469 17.2252 105.485 17.3702 105.485 17.5152L105.49 26.3438C105.488 26.4252 105.503 26.5062 105.534 26.582C105.564 26.6578 105.609 26.727 105.667 26.7857C105.724 26.8444 105.793 26.8914 105.869 26.9239C105.945 26.9565 106.027 26.9741 106.11 26.9756L108.153 26.9784C108.235 26.9783 108.317 26.9619 108.392 26.9302C108.467 26.8986 108.536 26.8523 108.592 26.7942C108.71 26.674 108.775 26.5139 108.775 26.3474L108.769 19.4326C108.769 19.0387 108.89 18.6549 109.115 18.3339L110.903 15.7819C111.071 15.5385 111.297 15.339 111.562 15.2006C111.826 15.0622 112.121 14.9892 112.421 14.9878L114.607 14.9896C114.869 14.9907 115.127 15.0468 115.365 15.1541C115.602 15.2613 115.814 15.4173 115.985 15.6114C116.125 15.7693 116.201 15.9714 116.201 16.1804V23.3651C116.201 23.6431 116.26 23.9176 116.377 24.1692L117.662 26.9583C117.731 27.1097 117.857 27.2264 118.012 27.2838C118.167 27.3413 118.338 27.3331 118.486 27.2619L120.337 26.3803C120.487 26.3074 120.602 26.1793 120.657 26.0238C120.713 25.8659 120.705 25.693 120.635 25.5405L119.661 23.4252H119.66ZM43.6029 26.6018C43.2841 26.8456 42.8914 26.9781 42.487 26.9784H36.4938C36.1655 26.9761 35.8438 26.8883 35.5616 26.7239C35.2794 26.5595 35.0469 26.3245 34.8878 26.0429L33.161 23.0505C32.9926 22.7581 32.9042 22.428 32.9044 22.0922V17.1751C32.9044 16.7812 33.0252 16.3964 33.2503 16.0755L35.7982 12.4412C35.9661 12.1976 36.1921 11.9978 36.4565 11.8593C36.721 11.7207 37.016 11.6476 37.3158 11.6462L43.2719 11.6507C43.7973 11.6507 44.2985 11.8768 44.6509 12.2725L46.9543 14.8583C47.0652 14.984 47.1224 15.1467 47.1143 15.3127C47.1062 15.4787 47.0332 15.6353 46.9106 15.75L45.3967 17.145C45.3372 17.2006 45.2668 17.2437 45.1897 17.2717C45.1126 17.2996 45.0305 17.3119 44.9485 17.3077C44.8664 17.3036 44.786 17.283 44.7123 17.2473C44.6386 17.2117 44.5731 17.1617 44.5198 17.1003L43.1938 15.6114C43.0226 15.4172 42.8109 15.2611 42.573 15.1539C42.3351 15.0466 42.0766 14.9906 41.8147 14.9896L39.0064 14.9878C38.4048 14.9878 37.8394 15.2832 37.4907 15.781L36.5347 17.1441C36.3088 17.4679 36.1882 17.8513 36.1888 18.2437V21.185C36.1888 21.5215 36.2771 21.8524 36.4445 22.1424L36.7681 22.7031C36.9271 22.9847 37.1597 23.2197 37.4419 23.3841C37.7241 23.5485 38.0458 23.6363 38.3741 23.6386H41.3963C41.7971 23.6386 42.1885 23.5064 42.5103 23.262L44.8862 21.4567C44.9509 21.4071 45.0252 21.3709 45.1047 21.3504C45.1841 21.3298 45.267 21.3254 45.3482 21.3372C45.4295 21.3491 45.5074 21.377 45.5773 21.4194C45.6472 21.4617 45.7076 21.5175 45.7547 21.5835L46.9785 23.2474C47.0764 23.3826 47.118 23.5494 47.0947 23.7136C47.0713 23.8779 46.9849 24.0272 46.853 24.1309L43.6029 26.6018ZM59.0543 26.6529C58.7486 26.8642 58.3839 26.9779 58.01 26.9784H52.1953C51.8611 26.9761 51.5338 26.8851 51.248 26.7151C50.9623 26.5451 50.7289 26.3024 50.5726 26.0128L48.9192 23.0222C48.762 22.7372 48.6798 22.4181 48.6802 22.0941V17.176C48.6802 16.7821 48.8011 16.3974 49.0261 16.0764L51.5741 12.4421C51.7419 12.1984 51.9679 11.9986 52.2323 11.8601C52.4968 11.7215 52.7918 11.6484 53.0917 11.6471L59.0477 11.6516C59.3094 11.6527 59.5678 11.7088 59.8055 11.8161C60.0433 11.9234 60.2548 12.0793 60.4259 12.2734L62.7293 14.8592C62.8402 14.9848 62.8977 15.1475 62.8897 15.3134C62.8817 15.4794 62.809 15.6361 62.6865 15.7509L61.1726 17.1459C61.1131 17.2016 61.0427 17.2447 60.9657 17.2728C60.8887 17.3008 60.8066 17.3132 60.7245 17.3091C60.6425 17.305 60.5621 17.2845 60.4884 17.2489C60.4146 17.2134 60.3491 17.1634 60.2957 17.1022L58.9687 15.6123C58.7975 15.4183 58.586 15.2624 58.3483 15.1551C58.1106 15.0479 57.8522 14.9917 57.5906 14.9905L54.7823 14.9887C54.1806 14.9887 53.6152 15.2841 53.2656 15.7828L52.3106 17.145C52.0847 17.4689 51.9641 17.8522 51.9646 18.2446V21.2206C51.9646 21.5461 52.0465 21.8652 52.2036 22.1488L52.4938 22.6739C52.6502 22.9635 52.8836 23.2061 53.1693 23.3761C53.455 23.5461 53.7823 23.6371 54.1165 23.6395H57.0029C57.3749 23.6395 57.7375 23.5264 58.0462 23.314L60.7523 21.4513C60.8195 21.4051 60.8956 21.3728 60.9759 21.3562C61.0562 21.3397 61.1391 21.3393 61.2196 21.3551C61.3001 21.3708 61.3765 21.4024 61.4442 21.448C61.5118 21.4935 61.5694 21.552 61.6134 21.6199L62.759 23.3395C62.8518 23.4785 62.8864 23.6473 62.8556 23.8106C62.8248 23.974 62.7309 24.1194 62.5935 24.2166L59.0543 26.6538V26.6529ZM24.1577 23.4152C23.888 23.5611 23.5867 23.6386 23.2807 23.6386H20.2809C19.9224 23.6355 19.5725 23.531 19.2732 23.3375C18.974 23.1441 18.7381 22.8699 18.594 22.5481C18.5327 22.4155 18.5191 22.2664 18.5556 22.1252C18.5921 21.984 18.6765 21.8592 18.7949 21.7713L19.8364 21.0173C20.1525 20.7893 20.5292 20.6662 20.916 20.6662H24.6142C24.7602 20.6662 24.9072 20.6845 25.0494 20.7191L26.4964 21.0729C26.6064 21.1015 26.7035 21.1653 26.7724 21.2541C26.8413 21.343 26.878 21.4518 26.8767 21.5634C26.8774 21.6759 26.8474 21.7865 26.7899 21.8838C26.7323 21.9811 26.6493 22.0616 26.5494 22.1169L24.1577 23.4152ZM30.8186 26.6356C30.9795 26.5862 31.1145 26.4773 31.1947 26.3318C31.275 26.1864 31.2942 26.016 31.2482 25.8569L30.2299 22.1734C30.1837 22.0064 30.1602 21.8341 30.1602 21.661V17.1751C30.1602 16.7812 30.0393 16.3964 29.8143 16.0755L27.2663 12.4412C27.0986 12.1977 26.8727 11.998 26.6084 11.8595C26.3441 11.7209 26.0493 11.6477 25.7497 11.6462L19.7592 11.6507C19.4086 11.6507 19.0655 11.751 18.7679 11.9416L15.9959 13.7177C15.8556 13.8103 15.7571 13.9523 15.7207 14.1143C15.6844 14.2762 15.713 14.4457 15.8006 14.5875L16.8895 16.3454C16.9319 16.415 16.988 16.4756 17.0546 16.5237C17.1212 16.5717 17.1969 16.6063 17.2773 16.6253C17.4372 16.6618 17.6065 16.6326 17.745 16.5432L19.7164 15.2814C20.014 15.0899 20.3581 14.9896 20.7077 14.9896L24.0582 14.9878C24.6598 14.9878 25.2261 15.2832 25.5758 15.781L26.8228 17.5617C26.8572 17.6109 26.8767 17.6711 26.8767 17.7313L25.44 17.3793C25.2971 17.3441 25.1503 17.3264 25.0029 17.3264H19.8671C19.4802 17.3264 19.1027 17.4495 18.7874 17.6775L15.5049 20.0526C14.7721 20.5833 14.5173 21.5707 14.8986 22.3986L16.5064 25.8879C16.6502 26.2097 16.8859 26.4839 17.185 26.6774C17.4841 26.8709 17.834 26.9754 18.1923 26.9784H24.1028C24.4087 26.9784 24.71 26.9018 24.9797 26.755L27.6792 25.2898L28.0865 26.7605C28.1296 26.9197 28.2348 27.056 28.3794 27.1398C28.5236 27.2218 28.6928 27.2428 28.8518 27.1972L30.8186 26.6356Z" fill="#C9CFD4"/>
<path fill-rule="evenodd" clip-rule="evenodd" d="M69.3108 11.9362C69.2433 11.9825 69.1669 12.0147 69.0862 12.031C69.0056 12.0473 68.9224 12.0472 68.8417 12.0308C68.7611 12.0144 68.6847 11.982 68.6173 11.9357C68.5499 11.8893 68.4929 11.8299 68.4497 11.7612L66.5071 8.79792C66.3579 8.56866 66.2821 8.30082 66.2896 8.02893C66.297 7.75705 66.3874 7.4936 66.549 7.27253L70.1514 2.38547C70.4797 1.94053 70.9046 1.57947 71.3938 1.33056L72.8965 0.566503C73.0136 0.507091 73.1474 0.486873 73.2773 0.508932C73.4073 0.53099 73.5263 0.594115 73.6162 0.68868L78.0686 5.13627C78.1349 5.20298 78.1855 5.28297 78.2172 5.37073C78.2489 5.45849 78.2608 5.55193 78.2522 5.64464C78.2435 5.73734 78.2145 5.82711 78.1671 5.90776C78.1197 5.98842 78.055 6.05804 77.9775 6.11186L76.2079 7.30627C76.0899 7.38627 75.9467 7.42249 75.8039 7.40846C75.6611 7.39442 75.5281 7.33105 75.4286 7.22968L73.2136 5.00224C73.1518 4.93853 73.0764 4.88899 72.9928 4.85715C72.9092 4.82532 72.8195 4.81197 72.7301 4.81806C72.6404 4.82509 72.5534 4.85126 72.4752 4.89473C72.397 4.9382 72.3294 4.99792 72.2772 5.06971L70.2825 7.77583C70.2051 7.88145 70.1617 8.00742 70.1581 8.13745C70.1544 8.26749 70.1907 8.39561 70.2621 8.50524L71.1827 9.90753C71.2738 10.047 71.3073 10.2175 71.2757 10.3817C71.2442 10.5442 71.1491 10.6882 71.0106 10.7828L69.3108 11.9353V11.9362Z" fill="#C9CFD4"/>
<path fill-rule="evenodd" clip-rule="evenodd" d="M99.3921 20.2642L96.2556 23.6615C96.1318 23.7981 95.9686 23.8948 95.7877 23.9387C95.6068 23.9827 95.4165 23.9718 95.2419 23.9076L91.3429 22.4661C91.0203 22.3449 90.7266 22.1599 90.48 21.9228C90.2333 21.6856 90.039 21.4014 89.9089 21.0876L87.891 16.3008C87.8589 16.2241 87.8433 16.1418 87.8452 16.0589C87.8471 15.9761 87.8665 15.8945 87.9022 15.8194C87.9368 15.7455 87.9873 15.6797 88.0502 15.6267C88.1132 15.5737 88.187 15.5346 88.2667 15.5121L90.8937 14.7864C91.5725 14.5985 92.2979 14.7134 92.8893 15.1009L99.2908 19.3908C99.3602 19.4385 99.4184 19.5001 99.4617 19.5715C99.505 19.6429 99.5324 19.7226 99.5419 19.8051C99.5515 19.8877 99.5431 19.9713 99.5173 20.0505C99.4915 20.1296 99.4488 20.2025 99.3921 20.2642ZM79.1518 16.3008L77.1348 21.0876C77.0048 21.4014 76.8105 21.6857 76.5638 21.9228C76.3172 22.16 76.0235 22.3449 75.7009 22.4661L71.8009 23.9067C71.6265 23.9708 71.4365 23.9817 71.2558 23.9379C71.075 23.8941 70.912 23.7978 70.7882 23.6615L67.6516 20.2642C67.5951 20.2024 67.5526 20.1295 67.5268 20.0504C67.5011 19.9713 67.4927 19.8877 67.5023 19.8052C67.5119 19.7227 67.5391 19.6431 67.5824 19.5716C67.6256 19.5002 67.6837 19.4386 67.753 19.3908L74.1545 15.1009C74.4439 14.9097 74.7724 14.7826 75.1169 14.7283C75.4615 14.6739 75.814 14.6938 76.15 14.7864L78.777 15.5121C78.8568 15.5346 78.9306 15.5737 78.9935 15.6267C79.0564 15.6797 79.1069 15.7455 79.1416 15.8194C79.1771 15.8946 79.1964 15.9762 79.1982 16.059C79.1999 16.1419 79.1841 16.2242 79.1518 16.3008ZM103.099 19.802L102.49 17.942C102.352 17.5166 102.071 17.1494 101.694 16.8998L94.697 12.3127C94.0158 11.8629 93.243 11.5638 92.4321 11.4359C91.6212 11.3081 90.7917 11.3546 90.001 11.5724L85.2241 12.8917C84.1113 13.1993 82.9334 13.1993 81.8206 12.8917L77.0437 11.5724C76.253 11.3546 75.4235 11.3081 74.6126 11.4359C73.8017 11.5638 73.0289 11.8629 72.3477 12.3127L65.3501 16.8989C64.9754 17.1451 64.6955 17.5134 64.5541 17.9429L63.945 19.8011C63.8614 20.0554 63.8448 20.3263 63.8969 20.5885C63.9489 20.8508 64.0678 21.0959 64.2426 21.3009L68.5527 26.3101C68.748 26.5381 68.9842 26.7232 69.2492 26.8572L70.4376 27.4617C70.8022 27.6477 71.2281 27.6732 71.6112 27.531L78.1596 25.1112C78.4821 24.9898 78.7758 24.8049 79.0224 24.5677C79.2691 24.3306 79.4634 24.0464 79.5935 23.7326L83.0816 15.4565C83.1168 15.3699 83.1776 15.2956 83.2561 15.243C83.3346 15.1904 83.4273 15.1619 83.5223 15.1611C83.7139 15.1611 83.8869 15.2769 83.9622 15.4565L87.4503 23.7326C87.7199 24.3745 88.2398 24.8723 88.8842 25.1112L95.4335 27.531C95.8166 27.6732 96.2416 27.6477 96.6061 27.4617L97.7945 26.8581C98.0596 26.7232 98.2967 26.5372 98.491 26.3111L102.802 21.3009C103.155 20.8906 103.268 20.3189 103.099 19.8011" fill="#C9CFD4"/>
<path fill-rule="evenodd" clip-rule="evenodd" d="M97.7303 11.9371C97.7974 11.983 97.8733 12.0149 97.9534 12.0311C98.0335 12.0472 98.1161 12.0472 98.1962 12.031C98.277 12.0143 98.3536 11.9819 98.4215 11.9357C98.4894 11.8895 98.5471 11.8305 98.5914 11.7621L100.534 8.79884C100.683 8.56958 100.759 8.30174 100.752 8.02986C100.744 7.75798 100.654 7.49453 100.492 7.27346L96.8897 2.3864C96.5653 1.94443 96.1398 1.58313 95.6473 1.33149L94.1437 0.567433C94.0278 0.508575 93.8957 0.488047 93.767 0.508918C93.6382 0.529789 93.5199 0.590938 93.4295 0.683227L93.4249 0.688698L88.9725 5.13629C88.9059 5.20294 88.855 5.28297 88.8231 5.37083C88.7912 5.4587 88.7792 5.55231 88.7879 5.64518C88.7966 5.73806 88.8257 5.82797 88.8733 5.90871C88.9209 5.98945 88.9858 6.05908 89.0636 6.11279L90.8323 7.3072C90.9505 7.38733 91.094 7.42354 91.2369 7.40934C91.3799 7.39513 91.5131 7.33145 91.6125 7.2297L93.8275 5.00226C93.8895 4.93877 93.965 4.8895 94.0487 4.85797C94.1323 4.82644 94.2221 4.81344 94.3115 4.81988C94.4009 4.82633 94.4877 4.85207 94.5658 4.89526C94.6438 4.93846 94.7112 4.99803 94.763 5.06973L96.7586 7.77676C96.9167 7.99102 96.9241 8.28279 96.7781 8.50617L95.8584 9.90937C95.7669 10.05 95.734 10.2197 95.7664 10.3835C95.7989 10.5476 95.8938 10.6917 96.0305 10.7847L97.7303 11.9371Z" fill="#C9CFD4"/>
<mask id="mask2_2501_57023" style="mask-type:alpha" maskUnits="userSpaceOnUse" x="123" y="11" width="77" height="16">
<path d="M123.508 11.6682H199.271V26.9403H123.509L123.508 11.6682Z" fill="white"/>
</mask>
<g mask="url(#mask2_2501_57023)">
<path fill-rule="evenodd" clip-rule="evenodd" d="M199.273 25.6083C199.273 26.344 198.542 26.9394 197.64 26.9394H129.025C127.4 26.9394 125.931 26.1535 125.284 24.9381L124.475 23.4209C123.845 22.2532 123.513 20.9528 123.508 19.6316V13.0004C123.508 12.2646 124.24 11.6692 125.141 11.6692H192.909C194.03 11.6692 195.101 12.0448 195.871 12.7086L198.155 14.6762C198.872 15.2944 199.273 16.114 199.273 16.9647V25.6083Z" fill="#C9CFD4"/>
</g>
<path fill-rule="evenodd" clip-rule="evenodd" d="M131.435 16.1111V18.8601H134.15L134.724 18.2884V16.6837L134.15 16.1111H131.435ZM136.242 22.7889L135.238 23.7134L132.033 20.1375H131.435V23.47H130.059V14.8338H134.796L136.099 16.1467V18.8236L134.796 20.1366H134.006L133.731 20.0162L133.708 20.0527L133.983 20.2715L136.242 22.7889ZM179.448 16.1111V18.8601H182.163L182.738 18.2884V16.6837L182.163 16.1111H179.448ZM184.256 22.7889L183.252 23.7134L180.047 20.1375H179.448V23.47H178.072V14.8338H182.809L184.113 16.1467V18.8236L182.809 20.1366H182.019L181.745 20.0162L181.72 20.0527L181.996 20.2715L184.256 22.7889ZM138.146 15.431C138.146 15.1665 138.359 14.9514 138.617 14.9514H143.172C143.433 14.9514 143.644 15.1675 143.644 15.431V15.7683C143.644 16.0318 143.432 16.247 143.172 16.247H140.013C139.886 16.2499 139.765 16.3019 139.677 16.3917C139.589 16.4816 139.541 16.6019 139.543 16.7266V18.014C139.543 18.2784 139.754 18.4936 140.013 18.4936H142.663C142.922 18.4936 143.134 18.7088 143.134 18.9732V19.3105C143.134 19.5731 142.922 19.7892 142.663 19.7892H140.013C139.886 19.7921 139.766 19.844 139.678 19.9336C139.589 20.0233 139.541 20.1434 139.543 20.2679V21.9382C139.543 22.2026 139.754 22.4178 140.013 22.4178H143.172C143.433 22.4178 143.644 22.6339 143.644 22.8974V23.2348C143.644 23.4983 143.432 23.7134 143.172 23.7134H138.617C138.49 23.7106 138.37 23.6585 138.281 23.5687C138.193 23.4789 138.145 23.3585 138.147 23.2338V15.431H138.146ZM150.517 21.6711C150.56 21.6268 150.612 21.5915 150.669 21.5673C150.726 21.5431 150.788 21.5305 150.851 21.5302C150.913 21.5299 150.975 21.542 151.033 21.5658C151.09 21.5895 151.143 21.6244 151.186 21.6683L151.474 21.9574C151.658 22.1425 151.659 22.447 151.476 22.633L150.747 23.3743C150.563 23.5612 150.201 23.7134 149.942 23.7134H147.426C147.167 23.7134 146.805 23.5612 146.621 23.3743L145.881 22.6211C145.698 22.4351 145.547 22.0659 145.547 21.8024V16.8624C145.547 16.598 145.698 16.2306 145.881 16.0446L146.621 15.2905C146.805 15.1036 147.167 14.9514 147.426 14.9514H149.797C150.056 14.9514 150.418 15.1036 150.601 15.2905L151.342 16.0446C151.525 16.2306 151.675 16.5989 151.675 16.8624V17.4341C151.675 17.6976 151.463 17.9137 151.205 17.9137H150.752C150.625 17.9111 150.504 17.8591 150.415 17.7693C150.327 17.6794 150.278 17.5589 150.28 17.4341V17.3675C150.28 17.1031 150.138 16.7439 149.964 16.567C149.791 16.391 149.437 16.2461 149.177 16.2461H148.046C147.785 16.2461 147.432 16.391 147.258 16.567C147.085 16.7439 146.943 17.104 146.943 17.3675V21.2954C146.943 21.5598 147.085 21.9191 147.259 22.096C147.432 22.2728 147.785 22.4169 148.046 22.4169H149.31C149.571 22.4169 149.933 22.2646 150.116 22.0777L150.517 21.6702V21.6711ZM158.33 16.5743C158.102 16.3793 157.814 16.2642 157.512 16.247H156.138C155.878 16.247 155.511 16.3947 155.321 16.5734L155.32 16.5752C155.13 16.7539 154.975 17.1168 154.975 17.3803V21.2963C154.975 21.5608 155.131 21.9209 155.32 22.0969C155.511 22.2738 155.878 22.4178 156.138 22.4178H157.512C157.773 22.4178 158.139 22.271 158.33 22.0914L158.331 22.0905C158.52 21.9109 158.676 21.548 158.676 21.2845V17.3803C158.676 17.1168 158.52 16.7539 158.331 16.5752L158.33 16.5734V16.5743ZM158.071 14.9514C158.331 14.9514 158.699 15.0973 158.89 15.275L159.724 16.0473C159.915 16.2251 160.071 16.5862 160.071 16.8497V21.8151C160.071 22.0786 159.915 22.4397 159.724 22.6175L158.89 23.3907C158.661 23.5833 158.373 23.6966 158.071 23.7134H155.579C155.32 23.7134 154.951 23.5676 154.761 23.3907L153.927 22.6175C153.736 22.4397 153.579 22.0786 153.579 21.8151V16.8506C153.579 16.5862 153.736 16.2251 153.927 16.0482L154.76 15.275C154.951 15.0973 155.32 14.9514 155.58 14.9514H158.071ZM165.372 21.9364C165.385 21.9364 165.426 21.7477 165.463 21.517C165.5 21.2863 165.595 20.8924 165.675 20.6417L167.423 15.1611C167.441 15.1021 167.47 15.0471 167.51 14.9994C167.549 14.9518 167.598 14.9123 167.654 14.8834C167.709 14.8546 167.77 14.8368 167.832 14.8313C167.895 14.8257 167.958 14.8324 168.017 14.8511L168.442 14.9897C168.563 15.0319 168.662 15.1184 168.718 15.2309C168.775 15.3433 168.785 15.473 168.745 15.5923L166.305 23.2576C166.226 23.5083 165.948 23.7134 165.689 23.7134H165.055C164.794 23.7134 164.517 23.5083 164.438 23.2576L161.998 15.5923C161.959 15.4731 161.969 15.3437 162.026 15.2314C162.082 15.1192 162.181 15.0328 162.301 14.9906L162.726 14.8511C162.786 14.8323 162.849 14.8254 162.912 14.8309C162.974 14.8364 163.035 14.8541 163.09 14.883C163.146 14.9119 163.195 14.9514 163.235 14.9992C163.274 15.0469 163.304 15.102 163.321 15.1611L165.069 20.6408C165.149 20.8924 165.244 21.2863 165.281 21.517C165.318 21.7477 165.359 21.9364 165.372 21.9364ZM170.672 15.431C170.672 15.1665 170.884 14.9514 171.144 14.9514H175.697C175.958 14.9514 176.169 15.1675 176.169 15.431V15.7683C176.169 16.0318 175.957 16.247 175.697 16.247H172.54C172.412 16.2496 172.291 16.3015 172.203 16.3914C172.115 16.4813 172.066 16.6018 172.068 16.7266V18.014C172.068 18.2784 172.28 18.4936 172.54 18.4936H175.188C175.448 18.4936 175.659 18.7088 175.659 18.9732V19.3105C175.659 19.5731 175.447 19.7892 175.188 19.7892H172.54C172.412 19.7918 172.292 19.8436 172.203 19.9333C172.115 20.023 172.066 20.1432 172.068 20.2679V21.9382C172.068 22.2026 172.28 22.4178 172.54 22.4178H175.697C175.958 22.4178 176.169 22.6339 176.169 22.8974V23.2348C176.169 23.4983 175.957 23.7134 175.697 23.7134H171.144C171.016 23.7108 170.895 23.6589 170.807 23.569C170.719 23.4791 170.67 23.3586 170.672 23.2338V15.431ZM188.897 20.7001L190.645 15.2203C190.662 15.1613 190.692 15.1064 190.731 15.0587C190.771 15.011 190.82 14.9716 190.875 14.9427C190.931 14.9138 190.991 14.8961 191.054 14.8905C191.116 14.885 191.179 14.8917 191.239 14.9103L191.664 15.0489C191.784 15.091 191.883 15.1773 191.94 15.2896C191.997 15.4018 192.007 15.5313 191.968 15.6507L189.528 23.3168" fill="#F1F3F3"/>
<path fill-rule="evenodd" clip-rule="evenodd" d="M191.216 17.9009L189.468 23.3806C189.45 23.4397 189.421 23.4946 189.381 23.5423C189.342 23.59 189.293 23.6294 189.237 23.6583C189.182 23.6872 189.121 23.7049 189.059 23.7105C188.996 23.716 188.933 23.7093 188.874 23.6906L188.449 23.5521C188.328 23.51 188.229 23.4236 188.172 23.3111C188.115 23.1986 188.106 23.0689 188.145 22.9494L190.585 15.2842" fill="#F1F3F3"/>
<path fill-rule="evenodd" clip-rule="evenodd" d="M189.043 23.1545L186.192 15.6379C186.099 15.3917 186.219 15.1127 186.461 15.0188L186.879 14.8565C186.937 14.8346 186.999 14.8244 187.062 14.8264C187.124 14.8285 187.186 14.8427 187.243 14.8684C187.3 14.894 187.351 14.9305 187.393 14.9758C187.435 15.021 187.468 15.0741 187.489 15.1319L189.531 20.5067" fill="#F1F3F3"/>
</g>
<defs>
<clipPath id="clip0_2501_57023">
<rect width="199" height="31" fill="white" transform="translate(0.371094 0.5)"/>
</clipPath>
</defs>
</svg>
