<svg width="56" height="60" viewBox="0 0 56 60" fill="none" xmlns="http://www.w3.org/2000/svg">
<path d="M54.2105 30.0053C54.2105 26.5171 49.8616 23.2112 43.1942 21.1613C44.7328 14.3351 44.049 8.90422 41.0358 7.16549C40.3412 6.75763 39.5293 6.56443 38.6423 6.56443V8.9579C39.1339 8.9579 39.5293 9.05448 39.8604 9.23695C41.3136 10.0741 41.944 13.2618 41.4525 17.3619C41.335 18.3707 41.1426 19.4333 40.9076 20.5174C38.8133 20.0021 36.5266 19.605 34.1226 19.3474C32.68 17.3619 31.1842 15.5586 29.6775 13.9809C33.1609 10.7288 36.4305 8.94716 38.653 8.94716V6.55371C35.7147 6.55371 31.868 8.65738 27.9786 12.3066C24.0893 8.67883 20.2427 6.59664 17.3042 6.59664V8.99009C19.516 8.99009 22.7963 10.761 26.2797 13.9917C24.7837 15.5694 23.2879 17.3619 21.8667 19.3474C19.452 19.605 17.1653 20.0021 15.071 20.5281C14.8253 19.4547 14.6436 18.4137 14.5154 17.4155C14.0132 13.3155 14.6329 10.1278 16.0754 9.27988C16.396 9.08669 16.8127 9.00082 17.3042 9.00082V6.60737C16.4067 6.60737 15.5946 6.80056 14.8893 7.20842C11.8869 8.94716 11.2137 14.3674 12.7631 21.172C6.11693 23.2327 1.78947 26.5278 1.78947 30.0053C1.78947 33.4935 6.1383 36.7993 12.8058 38.8492C11.2671 45.6754 11.951 51.1063 14.9642 52.8451C15.6587 53.2528 16.4707 53.4461 17.3684 53.4461C20.3067 53.4461 24.1533 51.3425 28.0428 47.6932C31.9321 51.321 35.7787 53.4031 38.7172 53.4031C39.6147 53.4031 40.4268 53.2099 41.1319 52.8021C44.1345 51.0634 44.8077 45.6433 43.2583 38.8385C49.883 36.7884 54.2105 33.4827 54.2105 30.0053ZM40.2986 22.8464C39.9032 24.231 39.4116 25.6584 38.8561 27.0859C38.418 26.2273 37.9584 25.3686 37.4563 24.51C36.9648 23.6513 36.4412 22.8142 35.9176 21.9984C37.4349 22.2238 38.8987 22.503 40.2986 22.8464ZM35.4048 34.2771C34.5713 35.7259 33.7166 37.0998 32.8296 38.377C31.2375 38.5166 29.6242 38.5917 28 38.5917C26.3865 38.5917 24.773 38.5166 23.1917 38.3877C22.3048 37.1105 21.4394 35.7474 20.6059 34.3091C19.7938 32.9032 19.0566 31.4757 18.3834 30.0374C19.0459 28.5992 19.7938 27.1611 20.5952 25.755C21.4287 24.3061 22.2834 22.9322 23.1704 21.655C24.7623 21.5154 26.3758 21.4403 28 21.4403C29.6135 21.4403 31.2268 21.5154 32.8083 21.6443C33.6952 22.9215 34.5606 24.2846 35.3941 25.7227C36.2062 27.1288 36.9434 28.5563 37.6166 29.9945C36.9434 31.4328 36.2062 32.871 35.4048 34.2771ZM38.8561 32.8817C39.433 34.32 39.9246 35.7581 40.3307 37.1534C38.9308 37.4968 37.4563 37.7867 35.9283 38.0121C36.4519 37.1856 36.9755 36.3377 37.467 35.4683C37.9586 34.6097 38.418 33.7403 38.8561 32.8817ZM28.0214 44.3338C27.0276 43.3034 26.034 42.1551 25.0509 40.8992C26.0126 40.9421 26.9957 40.9744 27.9893 40.9744C28.9937 40.9744 29.9874 40.953 30.9598 40.8992C29.9981 42.1551 29.0043 43.3034 28.0214 44.3338ZM20.0717 38.0121C18.5544 37.7867 17.0906 37.5077 15.6907 37.1642C16.0861 35.7797 16.5777 34.3522 17.1332 32.9246C17.5713 33.7832 18.0309 34.6419 18.533 35.5005C19.0352 36.3592 19.5481 37.1963 20.0717 38.0121ZM27.9679 15.6768C28.9617 16.7071 29.9553 17.8556 30.9384 19.1113C29.9767 19.0684 28.9937 19.0361 28 19.0361C26.9957 19.0361 26.0019 19.0577 25.0295 19.1113C25.9912 17.8556 26.985 16.7071 27.9679 15.6768ZM20.061 21.9984C19.5374 22.8249 19.0138 23.6728 18.5223 24.5422C18.0307 25.4008 17.5713 26.2595 17.1332 27.1181C16.5563 25.6798 16.0647 24.2417 15.6587 22.8464C17.0585 22.5137 18.533 22.2238 20.061 21.9984ZM10.391 35.4361C6.60845 33.8154 4.16156 31.6904 4.16156 30.0053C4.16156 28.3202 6.60845 26.1844 10.391 24.5744C11.3099 24.1772 12.3143 23.8231 13.3507 23.4904C13.9597 25.594 14.7611 27.7835 15.7549 30.0267C14.7718 32.2592 13.9811 34.438 13.3828 36.531C12.325 36.1982 11.3206 35.8333 10.391 35.4361ZM16.1396 50.7735C14.6864 49.9364 14.056 46.7487 14.5475 42.6487C14.665 41.6398 14.8574 40.5772 15.0924 39.4933C17.1867 40.0084 19.4733 40.4055 21.8774 40.6631C23.3199 42.6487 24.8158 44.4519 26.3225 46.0296C22.8391 49.2817 19.5695 51.0634 17.347 51.0634C16.8661 51.0527 16.46 50.956 16.1396 50.7735ZM41.4846 42.595C41.9868 46.6951 41.3671 49.8828 39.9246 50.7306C39.604 50.9238 39.1873 51.0097 38.6958 51.0097C36.484 51.0097 33.2037 49.2387 29.7203 46.0081C31.2163 44.4304 32.7121 42.6379 34.1332 40.6524C36.548 40.3948 38.8347 39.9977 40.929 39.4717C41.1747 40.5558 41.3671 41.5969 41.4846 42.595ZM45.5984 35.4361C44.6795 35.8333 43.675 36.1874 42.6386 36.5201C42.0296 34.4165 41.2282 32.227 40.2344 29.9838C41.2175 27.7514 42.0082 25.5725 42.6065 23.4797C43.6643 23.8124 44.6688 24.1772 45.6091 24.5744C49.3916 26.1951 51.8384 28.3202 51.8384 30.0053C51.8277 31.6904 49.3809 33.8263 45.5984 35.4361Z" fill="#61DAFB"/>
<path d="M27.989 34.9102C30.6859 34.9102 32.8721 32.7142 32.8721 30.0052C32.8721 27.2963 30.6859 25.1003 27.989 25.1003C25.2922 25.1003 23.106 27.2963 23.106 30.0052C23.106 32.7142 25.2922 34.9102 27.989 34.9102Z" fill="#61DAFB"/>
</svg>
