<svg width="171" height="32" viewBox="0 0 171 32" fill="none" xmlns="http://www.w3.org/2000/svg">
<path fill-rule="evenodd" clip-rule="evenodd" d="M47.7644 16.512L51.1033 9.31445H56.687L49.351 23.3537H46.1769L38.8145 9.31445H44.3973L47.7644 16.512ZM82.4671 13.1731C84.4924 13.1731 85.6694 14.6232 85.6694 16.3482C85.6694 18.126 84.4933 19.495 82.4671 19.495C80.4417 19.495 79.2647 18.126 79.2647 16.3482C79.2647 14.6241 80.4417 13.1731 82.4671 13.1731ZM85.5047 23.3537H90.4857V0.638559H85.5047V10.6826C84.4651 9.451 82.7684 8.8493 81.1535 8.8493C76.9935 8.8493 74.1198 12.2974 74.1198 16.3209C74.1198 20.3443 77.0481 23.8198 81.2081 23.8198C82.8503 23.8198 84.5744 23.1908 85.451 21.7944H85.5056L85.5047 23.3537ZM100.394 13.1731C102.42 13.1731 103.597 14.6232 103.597 16.3482C103.597 18.126 102.42 19.495 100.394 19.495C98.3688 19.495 97.1918 18.126 97.1918 16.3482C97.1918 14.6241 98.3688 13.1731 100.394 13.1731ZM108.412 9.31445H103.43V10.6826C102.389 9.451 100.694 8.8493 99.0797 8.8493C94.9197 8.8493 92.0441 12.2974 92.0441 16.3209C92.0441 20.3443 94.9743 23.8198 99.1343 23.8198C100.776 23.8198 102.5 23.1908 103.376 21.7944H103.43V23.3537H108.412V9.31445ZM116.651 23.3537H111.669V13.4189H109.918V9.31354H111.669V7.53576C111.669 5.59231 111.724 4.16954 113.091 2.60932C114.323 1.15924 116.103 0.365479 117.991 0.365479C118.757 0.365479 119.442 0.502021 120.126 0.857941V5.15446C119.55 4.90778 119.031 4.68932 118.373 4.68932C117.088 4.68932 116.65 5.45577 116.65 7.0433V9.31445H120.125V13.4198H116.65V23.3537H116.651ZM143.799 11.1204H143.855C145.003 9.42368 146.401 8.8493 148.344 8.8493C152.12 8.8493 153.626 11.2297 153.626 14.6787V23.3537H148.645V16.512C148.645 15.1712 148.863 12.8172 146.401 12.8172C144.375 12.8172 143.8 14.3228 143.8 16.0742V23.3537H138.818V9.31445H143.8V11.1204H143.799ZM160.385 14.2946C160.686 12.8445 161.891 12.0781 163.342 12.0781C164.683 12.0781 165.913 12.9538 166.16 14.2946H160.385ZM170.786 16.6495C170.786 11.8596 167.966 8.8493 163.095 8.8493C158.525 8.8493 155.322 11.6684 155.322 16.3491C155.322 21.1918 158.798 23.8198 163.451 23.8198C166.654 23.8198 169.8 22.316 170.595 19.0035H165.805C165.257 19.9329 164.492 20.2888 163.425 20.2888C161.371 20.2888 160.304 19.1956 160.304 17.1684H170.787V16.6495H170.786ZM72.2728 16.6905C72.2727 17.727 72.0684 18.7533 71.6716 19.7109C71.2749 20.6685 70.6934 21.5386 69.9604 22.2714C69.2273 23.0043 68.3571 23.5856 67.3995 23.9821C66.4418 24.3787 65.4154 24.5827 64.3789 24.5826C63.3423 24.5825 62.316 24.3782 61.3584 23.9814C60.4008 23.5847 59.5307 23.0032 58.7979 22.2701C58.065 21.5371 57.4837 20.6669 57.0872 19.7092C56.6906 18.7516 56.4866 17.7252 56.4867 16.6886C56.487 14.5953 57.3188 12.5877 58.7992 11.1077C60.2796 9.62761 62.2873 8.79626 64.3807 8.7965C66.474 8.79674 68.4816 9.62856 69.9616 11.109C71.4417 12.5894 72.2731 14.5971 72.2728 16.6905ZM59.974 16.6568C59.9742 17.5278 60.2325 18.3792 60.7164 19.1034C61.2002 19.8276 61.8879 20.3922 62.6925 20.7257C63.4971 21.0593 64.3825 21.1469 65.2368 20.9775C66.0912 20.808 66.8761 20.3892 67.4925 19.7738C68.1089 19.1584 68.5291 18.3741 68.6999 17.5201C68.8708 16.666 68.7847 15.7805 68.4524 14.9753C68.1202 14.1702 67.5568 13.4816 66.8333 12.9965C66.1099 12.5115 65.2589 12.2517 64.388 12.2501C65.0625 10.0254 66.6509 9.12147 66.6509 9.12147C63.3639 9.12147 60.5256 11.8514 59.9731 15.305C59.9239 15.6291 59.974 16.6568 59.974 16.6568ZM31.6297 16.0624C31.6297 24.6636 24.6578 31.6346 16.0575 31.6346C7.45622 31.6346 0.484375 24.6636 0.484375 16.0624C0.484375 7.46112 7.45622 0.489271 16.0575 0.489271C24.6578 0.489271 31.6297 7.46112 31.6297 16.0624ZM7.36428 15.995C7.36428 20.7949 11.2566 24.6873 16.0575 24.6873C20.8592 24.6873 24.7516 20.7958 24.7516 15.995C24.7516 11.1987 20.8683 7.31092 16.0748 7.30091C17.4065 2.91062 20.5397 1.1292 20.5397 1.1292C14.053 1.1292 8.4548 6.51352 7.36428 13.3279C7.26506 13.9687 7.36428 15.995 7.36428 15.995ZM121.334 16.0824C121.334 11.7231 124.867 8.19026 129.226 8.19026C130.787 8.19026 132.313 8.65312 133.611 9.52032C134.909 10.3875 135.92 11.6201 136.518 13.0622C137.115 14.5043 137.271 16.0911 136.967 17.6221C136.662 19.153 135.911 20.5592 134.807 21.663C133.703 22.7667 132.297 23.5184 130.766 23.8229C129.235 24.1274 127.648 23.9711 126.206 23.3738C124.764 22.7764 123.532 21.7649 122.664 20.467C121.797 19.1692 121.334 17.6433 121.334 16.0824ZM133.633 16.1161C133.633 15.2449 133.374 14.3933 132.891 13.669C132.407 12.9446 131.719 12.3799 130.914 12.0463C130.109 11.7126 129.224 11.625 128.369 11.7945C127.515 11.964 126.729 12.3829 126.113 12.9984C125.496 13.6139 125.076 14.3984 124.905 15.2526C124.734 16.1069 124.821 16.9926 125.153 17.7979C125.485 18.6032 126.049 19.2919 126.772 19.7771C127.496 20.2622 128.347 20.522 129.218 20.5237C128.543 22.7475 126.953 23.6514 126.953 23.6514C130.242 23.6514 133.079 20.9224 133.633 17.4678C133.683 17.1438 133.633 16.1161 133.633 16.1161Z" fill="#C9CFD4"/>
</svg>
