<svg width="17" height="19" viewBox="0 0 17 19" fill="none" xmlns="http://www.w3.org/2000/svg">
<path d="M16.625 17.3295C16.625 16.7318 16.0977 16.2045 15.5 16.2045L3.6875 16.2045C3.37109 16.2045 3.125 15.9584 3.125 15.642L3.125 1.57947C3.125 0.981811 2.59766 0.454467 2 0.454467C1.36719 0.454467 0.875001 0.981811 0.875001 1.57947L0.875 15.642C0.875 17.224 2.10547 18.4545 3.6875 18.4545L15.5 18.4545C16.0977 18.4545 16.625 17.9623 16.625 17.3295ZM13.25 13.9545C13.8477 13.9545 14.375 13.4623 14.375 12.8295L14.375 6.07947C14.375 5.48181 13.8477 4.95447 13.25 4.95447C12.6172 4.95447 12.125 5.48181 12.125 6.07947L12.125 12.8295C12.125 13.4623 12.6172 13.9545 13.25 13.9545ZM11 8.32947C11 7.73181 10.4727 7.20447 9.875 7.20447C9.24219 7.20447 8.75 7.73181 8.75 8.32947L8.75 12.8295C8.75 13.4623 9.24219 13.9545 9.875 13.9545C10.4727 13.9545 11 13.4623 11 12.8295L11 8.32947ZM7.625 3.82947C7.625 3.23181 7.09766 2.70447 6.5 2.70447C5.86719 2.70447 5.375 3.23181 5.375 3.82947L5.375 12.8295C5.375 13.4623 5.86719 13.9545 6.5 13.9545C7.09766 13.9545 7.625 13.4623 7.625 12.8295L7.625 3.82947Z" fill="#BABFC9"/>
</svg>
