<svg width="42" height="43" viewBox="0 0 42 43" fill="none" xmlns="http://www.w3.org/2000/svg">
    <path d="M16.2188 7.7002H25.7812V5.04395C25.7812 4.18066 26.4453 3.4502 27.375 3.4502C28.2383 3.4502 28.9688 4.18066 28.9688 5.04395V7.7002H31.625C33.9492 7.7002 35.875 9.62598 35.875 11.9502V33.2002C35.875 35.5908 33.9492 37.4502 31.625 37.4502H10.375C7.98438 37.4502 6.125 35.5908 6.125 33.2002V11.9502C6.125 9.62598 7.98438 7.7002 10.375 7.7002H13.0312V5.04395C13.0312 4.18066 13.6953 3.4502 14.625 3.4502C15.4883 3.4502 16.2188 4.18066 16.2188 5.04395V7.7002ZM9.3125 33.2002C9.3125 33.7979 9.77734 34.2627 10.375 34.2627H31.625C32.1562 34.2627 32.6875 33.7979 32.6875 33.2002V16.2002H9.3125V33.2002Z" fill="#ACAEB0"/>
</svg>
