<svg width="43" height="35" viewBox="0 0 43 35" fill="none" xmlns="http://www.w3.org/2000/svg">
<path d="M8.15234 11.9375C8.15234 10.4766 9.34766 9.28125 10.8086 9.28125C12.3359 9.28125 13.4648 10.4766 13.4648 11.9375C13.4648 13.4648 12.3359 14.5938 10.8086 14.5938C9.34766 14.5938 8.15234 13.4648 8.15234 11.9375ZM13.9961 1.84375L14.3945 3.70312C15.0586 3.96875 15.6562 4.30078 16.1875 4.69922L17.9805 4.16797C18.3789 4.03516 18.7773 4.16797 19.043 4.43359C20.1055 5.62891 20.9023 7.02344 21.4336 8.61719C21.5664 8.94922 21.4336 9.34766 21.168 9.61328L19.7734 10.875C19.8398 11.2734 19.8398 11.6719 19.8398 12.0039C19.8398 12.3359 19.8398 12.7344 19.8398 13.0664L21.168 14.3281C21.4336 14.5938 21.5664 14.9922 21.4336 15.3242C20.9023 16.918 20.1055 18.3125 19.043 19.5078C18.7773 19.7734 18.3789 19.9062 17.9805 19.7734L16.3203 19.2422C15.7227 19.707 15.0586 20.1055 14.3945 20.3711L13.9961 22.0977C13.8633 22.4961 13.5977 22.7617 13.2656 22.8945C12.4688 23.0273 11.6719 23.0938 10.8086 23.0938C10.0117 23.0938 9.21484 23.0273 8.41797 22.8945C8.08594 22.7617 7.82031 22.4961 7.6875 22.0977L7.28906 20.3711C6.625 20.1055 5.96094 19.707 5.36328 19.2422L3.70312 19.7734C3.30469 19.9062 2.90625 19.7734 2.64062 19.5078C1.57812 18.3125 0.78125 16.918 0.25 15.3242C0.117188 14.9922 0.25 14.5938 0.515625 14.3281L1.84375 13.0664C1.84375 12.7344 1.84375 12.3359 1.84375 12.0039C1.84375 11.6719 1.84375 11.2734 1.91016 10.875L0.515625 9.61328C0.25 9.34766 0.117188 8.94922 0.25 8.61719C0.78125 7.02344 1.57812 5.62891 2.64062 4.43359C2.90625 4.16797 3.30469 4.03516 3.70312 4.16797L5.49609 4.69922C6.02734 4.30078 6.625 3.96875 7.28906 3.70312L7.6875 1.84375C7.82031 1.44531 8.08594 1.17969 8.41797 1.04688C9.21484 0.914062 10.0117 0.78125 10.8086 0.78125C11.6719 0.78125 12.4688 0.914062 13.2656 1.04688C13.5977 1.17969 13.8633 1.44531 13.9961 1.84375ZM4.43359 12.0039C4.43359 12.2695 4.5 12.5352 4.5 12.7344L4.63281 14.0625L3.17188 15.457C3.37109 15.9883 3.63672 16.4531 3.96875 16.918L5.89453 16.3203L7.02344 17.1172C7.42188 17.4492 7.88672 17.7148 8.35156 17.9141L9.54688 18.4453L10.0117 20.4375C10.2773 20.4375 10.543 20.4375 10.8086 20.4375C11.1406 20.4375 11.4062 20.4375 11.6719 20.4375L12.1367 18.4453L13.332 17.9141C13.7969 17.7148 14.2617 17.4492 14.6602 17.1172L15.7891 16.3203L17.7148 16.918C18.0469 16.4531 18.3125 15.9883 18.5117 15.457L17.0508 14.0625L17.1836 12.7344C17.1836 12.5352 17.1836 12.2695 17.1836 12.0039C17.1836 11.7383 17.1836 11.4727 17.1836 11.207L16.9844 9.87891L18.5117 8.48438C18.3125 7.95312 18.0469 7.48828 17.7148 7.02344L15.6562 7.62109L14.5938 6.82422C14.1953 6.55859 13.7969 6.29297 13.332 6.09375L12.1367 5.5625L11.6719 3.50391C11.4062 3.50391 11.1406 3.4375 10.8086 3.4375C10.543 3.4375 10.2773 3.50391 10.0117 3.50391L9.54688 5.5625L8.35156 6.09375C7.88672 6.29297 7.48828 6.55859 7.08984 6.82422L6.02734 7.62109L3.96875 7.02344C3.63672 7.48828 3.37109 7.95312 3.17188 8.48438L4.69922 9.87891L4.5 11.207C4.5 11.4727 4.43359 11.7383 4.43359 12.0039ZM31.0625 20.9688C32.5234 20.9688 33.7188 22.1641 33.7188 23.625C33.7188 25.1523 32.5234 26.2812 31.0625 26.2812C29.5352 26.2812 28.4062 25.1523 28.4062 23.625C28.4062 22.1641 29.5352 20.9688 31.0625 20.9688ZM38.832 16.5195L38.3008 18.3125C38.6992 18.8438 39.0312 19.4414 39.2969 20.1055L41.1562 20.5039C41.5547 20.5703 41.8203 20.9023 41.9531 21.2344C42.0859 22.0312 42.2188 22.8281 42.2188 23.625C42.2188 24.4883 42.0859 25.2852 41.9531 26.0156C41.8203 26.4141 41.5547 26.6797 41.1562 26.8125L39.2969 27.2109C39.0312 27.875 38.6992 28.4727 38.3008 29.0039L38.832 30.7969C38.9648 31.1953 38.832 31.5938 38.5664 31.8594C37.3711 32.9219 35.9766 33.7188 34.3828 34.25C34.0508 34.3828 33.6523 34.25 33.3867 33.9844L32.0586 32.5898C31.7266 32.6562 31.3281 32.6562 30.9961 32.6562C30.6641 32.6562 30.2656 32.6562 29.9336 32.6562L28.6719 33.9844C28.4062 34.25 28.0078 34.3828 27.6758 34.25C26.082 33.7188 24.6875 32.9219 23.4922 31.8594C23.2266 31.5938 23.0938 31.1953 23.2266 30.7969L23.7578 29.1367C23.293 28.5391 22.8945 27.875 22.6289 27.2109L20.9023 26.8125C20.5039 26.6797 20.2383 26.4141 20.1055 26.0156C19.9727 25.2852 19.8398 24.4883 19.8398 23.625C19.8398 22.8281 19.9727 22.0312 20.1055 21.2344C20.2383 20.9023 20.5039 20.5703 20.9023 20.5039L22.6289 20.1055C22.8945 19.4414 23.293 18.7773 23.7578 18.1797L23.2266 16.5195C23.0938 16.1211 23.2266 15.7227 23.4922 15.457C24.6875 14.3945 26.082 13.5977 27.6758 13.0664C28.0078 12.9336 28.4062 13.0664 28.6719 13.332L29.9336 14.6602C30.2656 14.6602 30.6641 14.5938 30.9961 14.5938C31.3281 14.5938 31.7266 14.6602 32.0586 14.6602L33.3867 13.332C33.6523 13.0664 34.0508 12.9336 34.3828 13.0664C35.9766 13.5977 37.3711 14.3945 38.5664 15.457C38.832 15.7227 38.9648 16.1211 38.832 16.5195ZM30.9961 17.25C30.7305 17.25 30.4648 17.3164 30.2656 17.3164L28.9375 17.4492L27.543 15.9883C27.0117 16.1875 26.5469 16.4531 26.082 16.7852L26.6797 18.7109L25.8164 19.8398C25.5508 20.2383 25.2852 20.7031 25.0859 21.168L24.5547 22.3633L22.5625 22.8281C22.5625 23.0938 22.5625 23.3594 22.5625 23.625C22.5625 23.957 22.5625 24.2227 22.5625 24.4883L24.5547 24.9531L25.0859 26.1484C25.2852 26.6133 25.5508 27.0781 25.8164 27.4766L26.6797 28.5391L26.082 30.5312C26.5469 30.8633 27.0117 31.1289 27.543 31.3281L28.9375 29.8672L30.2656 30C30.4648 30 30.7305 30 30.9961 30C31.2617 30 31.5273 30 31.793 30L33.1211 29.8008L34.5156 31.3281C35.0469 31.1289 35.5117 30.8633 35.9766 30.5312L35.3789 28.4727L36.1758 27.4102C36.4414 27.0117 36.707 26.6133 36.9062 26.1484L37.4375 24.9531L39.4961 24.4883C39.4961 24.2227 39.5625 23.957 39.5625 23.625C39.5625 23.3594 39.4961 23.0938 39.4961 22.8281L37.4375 22.3633L36.9062 21.1016C36.707 20.7031 36.4414 20.2383 36.1758 19.9062L35.3789 18.8438L35.9766 16.7852C35.5117 16.4531 35.0469 16.1875 34.5156 15.9883L33.1211 17.5156L31.793 17.3164C31.5273 17.3164 31.2617 17.25 30.9961 17.25Z" fill="#ACAEB0"/>
</svg>
