<svg width="14" height="17" viewBox="0 0 14 17" fill="none" xmlns="http://www.w3.org/2000/svg">
<path d="M10.1562 9.5625L7 12.7188L3.8125 9.5625C1.6875 9.75 0 11.5312 0 13.7188V15C0 15.8438 0.65625 16.5 1.5 16.5H12.5C13.3125 16.5 14 15.8438 14 15V13.7188C14 11.5312 12.3125 9.75 10.1562 9.5625ZM1 6.5C1.84375 6.5 2.59375 6.15625 3.15625 5.59375C3.625 7.28125 5.15625 8.5 7 8.5C9.1875 8.5 11 6.71875 11 4.5C11 2.3125 9.1875 0.5 7 0.5C5.40625 0.5 4.0625 1.4375 3.40625 2.75C2.875 2 2 1.5 1 1.5C1 2.5625 1.53125 3.46875 2.34375 4C1.53125 4.5625 1 5.46875 1 6.5ZM5.5 3.5H8.5C9.03125 3.5 9.5 3.96875 9.5 4.5H4.5C4.5 3.96875 4.9375 3.5 5.5 3.5Z" fill="white"/>
</svg>
