<svg width="17" height="14" viewBox="0 0 17 14" fill="none" xmlns="http://www.w3.org/2000/svg">
<path d="M0.5 2C0.5 0.90625 1.375 0 2.5 0H14.5C15.5938 0 16.5 0.90625 16.5 2V12C16.5 13.125 15.5938 14 14.5 14H2.5C1.375 14 0.5 13.125 0.5 12V2ZM3.5 4C4.03125 4 4.5 3.5625 4.5 3C4.5 2.46875 4.03125 2 3.5 2C2.9375 2 2.5 2.46875 2.5 3C2.5 3.5625 2.9375 4 3.5 4ZM14.5 3C14.5 2.59375 14.1562 2.25 13.75 2.25H6.25C5.8125 2.25 5.5 2.59375 5.5 3C5.5 3.4375 5.8125 3.75 6.25 3.75H13.75C14.1562 3.75 14.5 3.4375 14.5 3Z" fill="#5D81FF"/>
</svg>
