<svg width="54" height="60" viewBox="0 0 54 60" fill="none" xmlns="http://www.w3.org/2000/svg">
<path d="M27.0596 60C26.2254 60 25.3913 59.8808 24.6763 59.4042L17.288 55.1142C16.2155 54.5184 16.8113 54.28 17.1688 54.1609C18.5988 53.565 18.9563 53.565 20.5055 52.6117C20.6246 52.4925 20.863 52.6117 20.9821 52.6117L26.7021 56.0675C26.8213 56.1867 27.1788 56.1867 27.2979 56.0675L49.3436 43.3168C49.5819 43.1976 49.7011 42.9593 49.7011 42.721V17.3386C49.7011 17.1003 49.5819 16.862 49.3436 16.7428L27.2979 3.99206C27.1788 3.87289 26.8213 3.87289 26.7021 3.99206L4.65641 16.7428C4.41808 16.862 4.29891 17.1003 4.29891 17.3386V42.721C4.29891 42.9593 4.41808 43.1976 4.65641 43.3168L10.7339 46.7726C13.9513 48.4409 15.9772 46.5343 15.9772 44.5084V19.4836C15.9772 19.1261 16.2155 18.8878 16.573 18.8878H19.433C19.7905 18.8878 20.0288 19.1261 20.0288 19.4836V44.5084C20.0288 48.9176 17.6455 51.4201 13.5938 51.4201C12.283 51.4201 11.2105 51.4201 8.46972 49.9901L2.74976 46.7726C1.31977 45.9384 0.36644 44.3893 0.36644 42.721V17.3386C0.36644 15.6703 1.31977 14.1212 2.74976 13.287L24.6763 0.536246C26.1063 -0.178749 27.8937 -0.178749 29.3237 0.536246L51.3694 13.287C52.7994 14.1212 53.6336 15.6703 53.6336 17.3386V42.721C53.6336 44.3893 52.7994 45.9384 51.3694 46.7726L29.3237 59.4042C28.6087 59.8808 27.7746 60 27.0596 60ZM44.8153 34.9752C44.8153 30.2085 41.5978 29.0169 34.8054 28.0636C28.0129 27.2294 27.2979 26.7527 27.2979 25.0844C27.2979 23.7736 27.8937 22.1053 32.8987 22.1053C37.427 22.1053 39.0953 23.0586 39.8103 26.0377C39.8103 26.3952 40.1678 26.6336 40.4062 26.6336H43.2661C43.5045 26.6336 43.6236 26.5144 43.7428 26.3952C43.862 26.2761 43.862 26.0377 43.862 25.9186C43.5045 20.6753 39.9295 18.1728 32.8987 18.1728C26.5829 18.1728 22.8888 20.7944 22.8888 25.3227C22.8888 30.0894 26.5829 31.4002 32.6604 31.996C39.8103 32.711 40.4062 33.7835 40.4062 35.2135C40.4062 37.716 38.3803 38.6693 33.852 38.6693C28.0129 38.6693 26.7021 37.2393 26.2254 34.3793C26.2254 34.0218 25.9871 33.7835 25.6296 33.7835H22.7696C22.4121 33.7835 22.1738 34.141 22.1738 34.4985C22.1738 38.1926 24.1996 42.6018 33.852 42.6018C40.7637 42.6018 44.8153 39.861 44.8153 34.9752Z" fill="#539E43"/>
</svg>
