<svg width="25" height="25" viewBox="0 0 25 25" fill="none" xmlns="http://www.w3.org/2000/svg">
<path d="M13.6636 0.0689253L0.382844 11.6587C0.26267 11.7635 0.166292 11.893 0.100238 12.0385C0.0341846 12.184 -5.53294e-07 12.3421 -5.46302e-07 12.5021C-5.39311e-07 12.662 0.0341846 12.8201 0.100238 12.9656C0.166292 13.1111 0.26267 13.2406 0.382844 13.3454L13.6636 24.9317C13.7036 24.9667 13.7528 24.9894 13.8053 24.9971C13.8578 25.0048 13.9114 24.9971 13.9597 24.9751C14.008 24.953 14.049 24.9174 14.0777 24.8726C14.1065 24.8277 14.1218 24.7755 14.1219 24.7222L14.1219 21.8937C14.1219 21.7331 14.0525 21.5794 13.931 21.4712L5.17086 13.8273L24.7222 13.8273C24.875 13.8273 25 13.7015 25 13.5479L25 11.4527C25 11.2991 24.875 11.1734 24.7222 11.1734L5.17086 11.1734L13.931 3.52946C14.0525 3.4247 14.1219 3.27105 14.1219 3.10693L14.1219 0.278444C14.1219 0.0409902 13.8442 -0.0882136 13.6636 0.0689253Z" fill="#BDFF00"/>
</svg>
