<svg width="343" height="257" viewBox="0 0 343 257" fill="none" xmlns="http://www.w3.org/2000/svg">
<path d="M5.50001 3.7959L3.00001 6.41797C1.60044 7.88588 1.60044 10.1942 3.00001 11.6621V11.6621C4.39957 13.13 4.39957 15.4383 3.00001 16.9062V16.9062C1.60044 18.3742 1.60044 20.6825 3.00001 22.1504V22.1504C4.39957 23.6183 4.39957 25.9266 3.00001 27.3945V27.3945C1.60044 28.8624 1.60044 31.1708 3.00001 32.6387V32.6387C4.39957 34.1066 4.39957 36.4149 3 37.8828V37.8828C1.60044 39.3507 1.60044 41.659 3 43.127V43.127C4.39957 44.5949 4.39957 46.9032 3 48.3711V48.3711C1.60044 49.839 1.60044 52.1473 3 53.6152V53.6152C4.39957 55.0831 4.39957 57.3915 3 58.8594V58.8594C1.60044 60.3273 1.60044 62.6356 3 64.1035V64.1035C4.39957 65.5714 4.39957 67.8797 3 69.3477V69.3477C1.60043 70.8156 1.60043 73.1239 3 74.5918V74.5918C4.39957 76.0597 4.39957 78.368 3 79.8359V79.8359C1.60043 81.3038 1.60043 83.6122 3 85.0801V85.0801C4.39957 86.548 4.39957 88.8563 3 90.3242V90.3242C1.60043 91.7921 1.60043 94.1005 3 95.5684V95.5684C4.39957 97.0363 4.39957 99.3446 3 100.812V100.812C1.60043 102.28 1.60043 104.589 3 106.057V106.057C4.39957 107.525 4.39957 109.833 3 111.301V111.301C1.60043 112.769 1.60043 115.077 3 116.545V116.545C4.39957 118.013 4.39957 120.321 3 121.789V121.789C1.60043 123.257 1.60043 125.565 3 127.033V127.033C4.39957 128.501 4.39957 130.809 3 132.277V132.277C1.60043 133.745 1.60043 136.054 3 137.521V137.521C4.39957 138.989 4.39957 141.298 3 142.766V142.766C1.60043 144.234 1.60043 146.542 3 148.01V148.01C4.39957 149.478 4.39957 151.786 3 153.254V153.254C1.60043 154.722 1.60043 157.03 3 158.498V158.498C4.39957 159.966 4.39957 162.274 3 163.742V163.742C1.60043 165.21 1.60043 167.518 3 168.986V168.986C4.39957 170.454 4.39957 172.763 3 174.23V174.23C1.60043 175.698 1.60043 178.007 3 179.475V179.475C4.39957 180.943 4.39957 183.251 3 184.719V184.719C1.60043 186.187 1.60043 188.495 3 189.963V189.963C4.39957 191.431 4.39957 193.739 3 195.207V195.207C1.60043 196.675 1.61542 198.999 3.01499 200.467V200.467C4.39787 201.917 4.41268 204.214 3.0298 205.664L2.91066 205.789C1.5701 207.195 1.61134 209.429 2.98502 210.802V210.802C4.36573 212.183 4.38071 214.437 3 215.817V215.817C1.61929 217.198 1.61929 219.437 3 220.817V220.817C4.38071 222.198 4.38071 224.437 3 225.817V225.817C1.61929 227.198 1.61929 229.437 3 230.817V230.817C4.38071 232.198 4.38071 234.437 3 235.817V235.817C1.61929 237.198 1.61929 239.437 3 240.817V240.817C4.38071 242.198 4.38071 244.437 3 245.817V245.817C1.61929 247.198 1.61929 249.437 3 250.817L5.5 253.317" stroke="#BDFF00" stroke-width="2"/>
<path d="M339.125 5.79596L336.503 3.29596C335.035 1.89639 332.727 1.89639 331.259 3.29596V3.29596C329.791 4.69553 327.483 4.69553 326.015 3.29596V3.29596C324.547 1.89639 322.238 1.89639 320.771 3.29596V3.29596C319.303 4.69553 316.994 4.69553 315.526 3.29596V3.29596C314.058 1.89639 311.75 1.89639 310.282 3.29596V3.29596C308.814 4.69553 306.506 4.69553 305.038 3.29596V3.29596C303.57 1.89639 301.262 1.89639 299.794 3.29596V3.29596C298.326 4.69553 296.018 4.69553 294.55 3.29596V3.29596C293.082 1.89639 290.774 1.89639 289.306 3.29596V3.29596C287.838 4.69553 285.529 4.69553 284.062 3.29596V3.29596C282.594 1.89639 280.285 1.89639 278.817 3.29596V3.29596C277.349 4.69553 275.041 4.69553 273.573 3.29596V3.29596C272.105 1.89639 269.797 1.89639 268.329 3.29596V3.29596C266.861 4.69553 264.553 4.69553 263.085 3.29596V3.29596C261.617 1.89639 259.309 1.89639 257.841 3.29596V3.29596C256.373 4.69553 254.065 4.69553 252.597 3.29596V3.29596C251.129 1.89639 248.82 1.89639 247.353 3.29596V3.29596C245.885 4.69553 243.576 4.69553 242.108 3.29596V3.29596C240.64 1.89639 238.332 1.89639 236.864 3.29596V3.29596C235.396 4.69553 233.088 4.69553 231.62 3.29596V3.29596C230.152 1.89639 227.844 1.89639 226.376 3.29596V3.29596C224.908 4.69553 222.6 4.69553 221.132 3.29596V3.29596C219.664 1.89639 217.356 1.89639 215.888 3.29596V3.29596C214.42 4.69553 212.111 4.69553 210.644 3.29596V3.29596C209.176 1.89639 206.867 1.89639 205.399 3.29596V3.29596C203.932 4.69553 201.623 4.69553 200.155 3.29596V3.29596C198.687 1.89639 196.379 1.89639 194.911 3.29596V3.29596C193.443 4.69553 191.135 4.69553 189.667 3.29596V3.29596C188.199 1.89639 185.891 1.89639 184.423 3.29596V3.29596C182.955 4.69553 180.647 4.69553 179.179 3.29596V3.29596C177.711 1.89639 175.402 1.89639 173.935 3.29596V3.29596C172.467 4.69553 170.158 4.69553 168.69 3.29596V3.29596C167.223 1.89639 164.914 1.89639 163.446 3.29596V3.29596C161.978 4.69553 159.67 4.69553 158.202 3.29596V3.29596C156.734 1.89639 154.426 1.89639 152.958 3.29596V3.29596C151.49 4.69553 149.182 4.69553 147.714 3.29596V3.29596C146.246 1.89639 143.938 1.89639 142.47 3.29596V3.29596C141.002 4.69553 138.693 4.69553 137.226 3.29596V3.29596C135.758 1.89639 133.449 1.89639 131.981 3.29596V3.29596C130.514 4.69553 128.205 4.69553 126.737 3.29596V3.29596C125.269 1.89639 122.961 1.89639 121.493 3.29596V3.29596C120.025 4.69553 117.717 4.69553 116.249 3.29596V3.29596C114.781 1.89639 112.473 1.89639 111.005 3.29596V3.29596C109.537 4.69553 107.229 4.69553 105.761 3.29596V3.29596C104.293 1.89639 101.985 1.89639 100.517 3.29596V3.29596C99.0487 4.69553 96.7404 4.69553 95.2725 3.29596V3.29596C93.8046 1.89639 91.4962 1.89639 90.0283 3.29596V3.29596C88.5604 4.69553 86.2521 4.69553 84.7842 3.29596V3.29596C83.3163 1.89639 81.0079 1.89639 79.54 3.29596V3.29596C78.0721 4.69553 75.7638 4.69553 74.2959 3.29596V3.29596C72.828 1.89639 70.5197 1.89639 69.0518 3.29596V3.29596C67.5839 4.69553 65.2755 4.69553 63.8076 3.29596V3.29596C62.3397 1.89639 60.0314 1.89639 58.5635 3.29596V3.29596C57.0956 4.69553 54.7872 4.69553 53.3193 3.29596V3.29596C51.8514 1.89639 49.5431 1.89639 48.0752 3.29596V3.29596C46.6073 4.69553 44.299 4.69553 42.8311 3.29596V3.29596C41.3631 1.89639 39.0548 1.89639 37.5869 3.29596V3.29596C36.119 4.69553 33.8107 4.69553 32.3428 3.29596V3.29596C30.8749 1.89639 28.5665 1.89639 27.0986 3.29596V3.29596C25.6307 4.69553 23.3224 4.69553 21.8545 3.29596V3.29596C20.3866 1.89639 18.0783 1.89639 16.6104 3.29596V3.29596C15.1424 4.69553 12.8253 4.68709 11.3574 3.28752V3.28752C9.89395 1.89224 7.58861 1.86842 6.10658 3.24392L5.38342 3.9151" stroke="#BDFF00" stroke-width="2"/>
<path d="M4.34943 252.204L6.9715 254.704C8.4394 256.104 10.7477 256.104 12.2156 254.704V254.704C13.6835 253.305 15.9919 253.305 17.4598 254.704V254.704C18.9277 256.104 21.236 256.104 22.7039 254.704V254.704C24.1718 253.305 26.4802 253.305 27.9481 254.704V254.704C29.416 256.104 31.7243 256.104 33.1922 254.704V254.704C34.6601 253.305 36.9684 253.305 38.4363 254.704V254.704C39.9042 256.104 42.2126 256.104 43.6805 254.704V254.704C45.1484 253.305 47.4567 253.305 48.9246 254.704V254.704C50.3925 256.104 52.7009 256.104 54.1688 254.704V254.704C55.6367 253.305 57.945 253.305 59.4129 254.704V254.704C60.8808 256.104 63.1891 256.104 64.657 254.704V254.704C66.125 253.305 68.4333 253.305 69.9012 254.704V254.704C71.3691 256.104 73.6774 256.104 75.1453 254.704V254.704C76.6132 253.305 78.9216 253.305 80.3895 254.704V254.704C81.8574 256.104 84.1657 256.104 85.6336 254.704V254.704C87.1015 253.305 89.4098 253.305 90.8777 254.704V254.704C92.3457 256.104 94.654 256.104 96.1219 254.704V254.704C97.5898 253.305 99.8981 253.305 101.366 254.704V254.704C102.834 256.104 105.142 256.104 106.61 254.704V254.704C108.078 253.305 110.386 253.305 111.854 254.704V254.704C113.322 256.104 115.631 256.104 117.098 254.704V254.704C118.566 253.305 120.875 253.305 122.343 254.704V254.704C123.81 256.104 126.119 256.104 127.587 254.704V254.704C129.055 253.305 131.363 253.305 132.831 254.704V254.704C134.299 256.104 136.607 256.104 138.075 254.704V254.704C139.543 253.305 141.851 253.305 143.319 254.704V254.704C144.787 256.104 147.095 256.104 148.563 254.704V254.704C150.031 253.305 152.34 253.305 153.807 254.704V254.704C155.275 256.104 157.584 256.104 159.052 254.704V254.704C160.519 253.305 162.828 253.305 164.296 254.704V254.704C165.764 256.104 168.072 256.104 169.54 254.704V254.704C171.008 253.305 173.316 253.305 174.784 254.704V254.704C176.252 256.104 178.56 256.104 180.028 254.704V254.704C181.496 253.305 183.804 253.305 185.272 254.704V254.704C186.74 256.104 189.049 256.104 190.516 254.704V254.704C191.984 253.305 194.293 253.305 195.761 254.704V254.704C197.228 256.104 199.537 256.104 201.005 254.704V254.704C202.473 253.305 204.781 253.305 206.249 254.704V254.704C207.717 256.104 210.025 256.104 211.493 254.704V254.704C212.961 253.305 215.269 253.305 216.737 254.704V254.704C218.205 256.104 220.513 256.104 221.981 254.704V254.704C223.449 253.305 225.757 253.305 227.225 254.704V254.704C228.693 256.104 231.002 256.104 232.47 254.704V254.704C233.937 253.305 236.246 253.305 237.714 254.704V254.704C239.182 256.104 241.49 256.104 242.958 254.704V254.704C244.426 253.305 246.734 253.305 248.202 254.704V254.704C249.67 256.104 251.978 256.104 253.446 254.704V254.704C254.914 253.305 257.222 253.305 258.69 254.704V254.704C260.158 256.104 262.466 256.104 263.934 254.704V254.704C265.402 253.305 267.711 253.305 269.179 254.704V254.704C270.646 256.104 272.955 256.104 274.423 254.704V254.704C275.891 253.305 278.199 253.305 279.667 254.704V254.704C281.135 256.104 283.443 256.104 284.911 254.704V254.704C286.379 253.305 288.687 253.305 290.155 254.704V254.704C291.623 256.104 293.931 256.104 295.399 254.704V254.704C296.867 253.305 299.175 253.305 300.643 254.704V254.704C302.111 256.104 304.42 256.104 305.888 254.704V254.704C307.355 253.305 309.664 253.305 311.132 254.704V254.704C312.6 256.104 314.908 256.104 316.376 254.704V254.704C317.844 253.305 320.168 253.32 321.636 254.719V254.719C323.086 256.102 325.382 256.117 326.833 254.734L327.219 254.366C328.48 253.164 330.469 253.187 331.701 254.419V254.419C332.913 255.631 334.864 255.677 336.131 254.522L337.758 253.038" stroke="#BDFF00" stroke-width="2"/>
<path d="M339.086 5.75699L339.948 6.63667C341.371 8.08984 341.387 10.4097 339.983 11.882V11.882C338.593 13.34 338.601 15.6416 339.992 17.0995V17.0995C341.391 18.5674 341.4 20.8847 340 22.3526V22.3526C338.6 23.8205 338.6 26.1288 340 27.5967V27.5967C341.4 29.0646 341.4 31.3729 340 32.8409V32.8409C338.6 34.3088 338.6 36.6171 340 38.085V38.085C341.4 39.5529 341.4 41.8612 340 43.3291V43.3291C338.6 44.797 338.6 47.1054 340 48.5733V48.5733C341.4 50.0412 341.4 52.3495 340 53.8174V53.8174C338.6 55.2853 338.6 57.5936 340 59.0616V59.0616C341.4 60.5295 341.4 62.8378 340 64.3057V64.3057C338.6 65.7736 338.6 68.0819 340 69.5498V69.5498C341.4 71.0177 341.4 73.3261 340 74.794V74.794C338.6 76.2619 338.6 78.5702 340 80.0381V80.0381C341.4 81.506 341.4 83.8143 340 85.2822V85.2822C338.6 86.7501 338.6 89.0585 340 90.5264V90.5264C341.4 91.9943 341.4 94.3026 340 95.7705V95.7705C338.6 97.2384 338.6 99.5467 340 101.015V101.015C341.4 102.483 341.4 104.791 340 106.259V106.259C338.6 107.727 338.6 110.035 340 111.503V111.503C341.4 112.971 341.4 115.279 340 116.747V116.747C338.6 118.215 338.6 120.523 340 121.991V121.991C341.4 123.459 341.4 125.767 340 127.235V127.235C338.6 128.703 338.6 131.012 340 132.479V132.479C341.4 133.947 341.4 136.256 340 137.724V137.724C338.6 139.192 338.6 141.5 340 142.968V142.968C341.4 144.436 341.4 146.744 340 148.212V148.212C338.6 149.68 338.6 151.988 340 153.456V153.456C341.4 154.924 341.4 157.232 340 158.7V158.7C338.6 160.168 338.6 162.476 340 163.944V163.944C341.4 165.412 341.4 167.721 340 169.188V169.188C338.6 170.656 338.6 172.965 340 174.433V174.433C341.4 175.901 341.4 178.209 340 179.677V179.677C338.6 181.145 338.6 183.453 340 184.921V184.921C341.4 186.389 341.4 188.697 340 190.165V190.165C338.6 191.633 338.615 193.957 340.015 195.425V195.425C341.398 196.875 341.413 199.172 340.03 200.622L339.911 200.747C338.57 202.153 338.611 204.387 339.985 205.76V205.76C341.366 207.141 341.381 209.395 340 210.775V210.775C338.619 212.156 338.619 214.395 340 215.775V215.775C341.381 217.156 341.381 219.395 340 220.775V220.775C338.619 222.156 338.619 224.395 340 225.775V225.775C341.381 227.156 341.381 229.395 340 230.775V230.775C338.619 232.156 338.619 234.395 340 235.775V235.775C341.381 237.156 341.381 239.395 340 240.775V240.775C338.619 242.156 338.619 244.395 340 245.775V245.775C341.381 247.156 341.381 249.395 340 250.775L337.5 253.275" stroke="#BDFF00" stroke-width="2"/>
</svg>
