<svg width="54" height="60" viewBox="0 0 54 60" fill="none" xmlns="http://www.w3.org/2000/svg">
<g clip-path="url(#clip0_1807_31013)">
<path d="M53.5742 17.6481C53.5738 16.642 53.3586 15.7529 52.9234 14.9899C52.496 14.2395 51.8558 13.6106 50.9972 13.1134C43.9093 9.02651 36.8146 4.95213 29.7291 0.861079C27.8189 -0.241728 25.9668 -0.201524 24.0707 0.917115C21.2495 2.58091 7.1249 10.6732 2.91595 13.1111C1.18258 14.1145 0.339123 15.6502 0.338707 17.6463C0.335999 25.8652 0.338707 34.084 0.335999 42.3032C0.336415 43.2873 0.542436 44.159 0.958436 44.9106C1.3861 45.6837 2.0352 46.3299 2.91366 46.8384C7.12282 49.2762 21.2493 57.3679 24.0699 59.0321C25.9668 60.1514 27.8189 60.1914 29.7297 59.0882C36.8155 54.9969 43.9106 50.9227 50.9995 46.8359C51.8779 46.3276 52.527 45.681 52.9547 44.9085C53.3701 44.157 53.5765 43.2852 53.5769 42.3009C53.5769 42.3009 53.5769 25.8673 53.5742 17.6481Z" fill="#5C8DBC"/>
<path d="M27.0379 29.8948L0.958435 44.9108C1.3861 45.6838 2.0352 46.33 2.91366 46.8385C7.12282 49.2764 21.2493 57.3681 24.0699 59.0323C25.9668 60.1515 27.8189 60.1915 29.7297 59.0883C36.8155 54.9971 43.9106 50.9229 50.9995 46.836C51.8779 46.3277 52.527 45.6811 52.9547 44.9087L27.0379 29.8948Z" fill="#1A4674"/>
<path d="M19.3135 34.3427C20.831 36.992 23.6839 38.7789 26.9565 38.7789C30.2493 38.7789 33.1183 36.9693 34.6282 34.2916L27.0379 29.8948L19.3135 34.3427Z" fill="#1A4674"/>
<path d="M53.5742 17.6483C53.5738 16.6421 53.3586 15.753 52.9234 14.99L27.0379 29.8947L52.9547 44.9087C53.3701 44.1571 53.5765 43.2853 53.5769 42.301C53.5769 42.301 53.5769 25.8674 53.5742 17.6483Z" fill="#1B598E"/>
<path d="M52.1492 30.9679H50.1239V32.9936H48.0983V30.9679H46.0733V28.9429H48.0983V26.9177H50.1239V28.9429H52.1492V30.9679ZM44.7593 30.9679H42.7343V32.9936H40.7091V30.9679H38.6838V28.9429H40.7091V26.9177H42.7343V28.9429H44.7593V30.9679Z" fill="white"/>
<path d="M34.6282 34.2916C33.1183 36.9693 30.2493 38.7789 26.9565 38.7789C23.6839 38.7789 20.831 36.992 19.3135 34.3426C18.5511 33.0133 18.1508 31.5072 18.1523 29.9747C18.1523 25.1125 22.0942 21.1708 26.9565 21.1708C30.208 21.1708 33.0459 22.9355 34.5709 25.5577L42.2662 21.1265C39.2075 15.8466 33.4971 12.2944 26.9565 12.2944C17.1916 12.2944 9.27594 20.2103 9.27594 29.9747C9.27594 33.1782 10.1281 36.1823 11.6176 38.7734C14.6685 44.0813 20.3952 47.6553 26.9565 47.6553C33.5298 47.6553 39.2654 44.0669 42.312 38.7435L34.6282 34.2916Z" fill="white"/>
</g>
<defs>
<clipPath id="clip0_1807_31013">
<rect width="53.328" height="60" fill="white" transform="translate(0.335999)"/>
</clipPath>
</defs>
</svg>
