<svg width="157" height="94" viewBox="0 0 157 94" fill="none" xmlns="http://www.w3.org/2000/svg">
<path d="M39.655 8.85388C39.839 8.84588 39.909 8.7749 39.963 8.6619C40.134 8.3039 39.78 7.75189 39.372 7.53189C39.255 7.46789 39.161 7.44189 39.084 7.44189C38.922 7.44189 38.834 7.5589 38.749 7.7009C38.564 8.0099 38.633 8.20488 38.714 8.34088C38.892 8.63888 39.307 8.87788 39.655 8.85388Z" fill="white"/>
<path d="M33.6271 11.531C33.5031 11.464 33.4051 11.437 33.3241 11.437C33.1541 11.437 33.0611 11.561 32.9721 11.71C32.7771 12.035 32.8501 12.241 32.9351 12.384C33.1221 12.698 33.5631 12.92 33.9251 12.924C34.1181 12.915 34.1921 12.84 34.2491 12.721C34.4301 12.344 34.0561 11.762 33.6271 11.531Z" fill="white"/>
<path d="M39.58 11.185C38.925 11.028 38.153 11.199 37.514 11.645C36.674 12.231 36.122 13.14 36.141 13.905C36.154 14.434 36.439 14.878 36.988 15.222C37.535 15.565 38.29 15.628 38.957 15.386C39.598 15.154 40.168 14.661 40.562 13.999C40.779 13.635 41.017 13.083 40.923 12.525C40.818 11.901 40.265 11.35 39.58 11.185Z" fill="white"/>
<path d="M123.821 60.531C141.875 58.971 149.287 49.533 152.103 44.005C153.841 40.592 155.021 36.683 155.818 31.703C157 24.316 156.662 18.219 154.787 13.065C152.422 6.564 147.341 1.68302 141.527 0.327023C136.811 -0.773977 133.35 1.07102 132.01 3.38702C131.066 5.01902 130.893 7.15802 131.523 9.40902C131.993 11.088 132.822 12.624 133.624 14.109L133.952 14.719C137.06 20.534 138.873 25.775 139.493 30.74C140.245 36.761 139.172 42.541 136.473 47.015C133.457 52.014 128.571 55.356 123.631 55.831C122.913 49.894 120.196 42.928 113.096 36.256C114.43 36.497 115.24 36.87 115.929 37.188C116.855 37.614 117.654 37.982 119.079 37.801C122.036 37.424 122.479 32.637 122.947 27.569C123.107 25.842 123.272 24.056 123.541 22.566C123.825 20.997 124.177 19.494 124.517 18.041C125.54 13.672 126.348 10.221 123.973 9.436C123.624 9.321 123.277 9.30402 122.946 9.38202C122.477 8.42002 121.582 7.84203 120.591 7.91803C120.382 7.93503 120.168 7.98402 119.956 8.06402C119.446 7.82102 118.914 7.76001 118.398 7.89401C117.625 8.09601 116.9 8.738 116.409 9.656C115.505 11.346 115.388 14.962 115.274 18.46C115.191 21.023 115.036 25.792 114.224 26.034C113.727 26.184 111.449 25.304 109.44 24.529C103.264 22.148 93.932 18.549 87.722 22.178C86.291 23.014 85.39 24.208 85.043 25.727C84.413 28.482 85.789 31.613 86.676 33.251C82.098 32.748 77.507 33.924 73.51 35.092C69.18 36.357 64.927 37.501 60.584 37.637C60.857 36.914 61.051 35.895 60.547 34.95C60.151 34.208 59.061 33.108 57.551 31.586C55.142 29.157 51.843 25.831 49.177 21.796C46.879 18.317 45.291 14.485 44.132 11.687C43.529 10.232 43.053 9.08202 42.642 8.38302C41.178 5.89402 39.432 4.67001 37.971 5.10601C37.461 5.25901 37.069 5.60601 36.862 6.05401C35.988 5.86901 35.052 6.127 34.283 6.794C33.641 7.351 33.254 8.08703 33.183 8.81003C32.365 8.78302 31.502 9.14302 30.94 9.83102C29.927 11.071 30.225 12.867 31.737 14.635C33.064 16.186 34.332 18.562 35.801 21.314C36.926 23.421 38.201 25.808 39.667 28.092C40.766 29.804 41.911 31.472 43.019 33.084C45.669 36.944 48.41 40.935 48.025 42.303C47.932 42.633 47.673 42.849 47.296 42.911C46.341 43.066 44.674 42.287 42.866 39.632C38.373 33.033 32.119 30.715 27.095 29.464C26.822 28.883 26.138 27.448 25.377 26.027C23.402 22.34 22.709 22.032 22.169 22.032C22.159 22.032 22.149 22.034 22.139 22.035C22.132 22.035 22.126 22.034 22.119 22.035C22.112 22.036 22.106 22.038 22.099 22.039C21.731 22.068 21.369 22.322 20.967 22.839C19.513 24.709 17.314 30.343 17.978 33.934C14.179 37.279 11.368 41.769 10.02 46.648C7.32899 47.428 0.291 50.188 0.0130005 52.19C0.00600049 52.227 0.00100708 52.265 0.00100708 52.303C0.00100708 52.305 0 52.308 0 52.311C0 52.32 0.0029978 52.329 0.0039978 52.338C0.0049978 52.365 0.00500977 52.391 0.0100098 52.418C0.0120098 52.427 0.0160054 52.436 0.0180054 52.445C0.196005 53.645 2.684 55.099 4.194 55.876C6.645 57.137 9.16999 57.976 11.029 58.154C17.058 66.595 23.533 68.918 29.251 70.969C32.18 72.02 34.966 73.019 37.406 74.756C30.763 76.502 22.247 74.899 17.872 70.961C17.829 70.921 17.784 70.883 17.738 70.845C18.137 70.034 18.159 69.118 17.771 68.251C17.515 67.679 17.102 67.192 16.598 66.83C16.625 65.248 15.15 64.103 13.735 64.023C12.51 63.958 11.236 64.52 10.151 65.618C7.923 67.872 7.201 71.61 8.354 74.922C9.341 77.757 11.587 80.29 14.68 82.055C17.606 83.725 20.851 84.523 23.64 85.085C31.098 86.586 48.99 86.663 50.604 85.201C51.493 84.396 51.654 83.209 51.635 82.365C53.299 82.887 57.172 84 62.912 85.03C69.873 86.279 80.964 87.617 94.497 86.972C94.691 89.256 96.339 91.878 99.818 93.091C101.169 93.562 102.585 93.734 103.991 93.734C105.598 93.734 107.191 93.509 108.656 93.248C112.155 92.624 115.941 91.253 119.603 89.927C122.854 88.75 126.216 87.532 129.271 86.887C135.639 85.543 141.2 86.573 147.59 88.533C147.742 88.58 147.894 88.628 148.047 88.676C149.046 88.992 150.081 89.318 151.187 89.275C152.038 89.242 152.762 88.921 153.227 88.371C153.512 88.034 153.819 87.456 153.776 86.575C153.825 86.513 153.865 86.457 153.894 86.409C154.462 85.501 154.264 84.259 153.455 83.249C153.722 82.971 153.959 82.537 153.959 81.873C153.959 80.81 153.503 79.88 152.605 79.109C148.206 75.336 133.196 76.213 126.616 77.229L126.221 77.29C124.914 77.496 123.563 77.708 122.295 77.507C121.269 77.344 119.941 76.757 119.388 75.628C120.126 74.41 122.927 69.414 123.67 62.543C123.741 61.899 123.793 61.227 123.821 60.531ZM120.568 13.294C120.58 13.225 120.871 11.596 121.617 10.494C121.783 10.249 122.115 10.186 122.36 10.351C122.605 10.517 122.669 10.85 122.503 11.094C121.884 12.008 121.625 13.463 121.622 13.478C121.577 13.738 121.351 13.921 121.095 13.921C121.064 13.921 121.033 13.918 121.002 13.913C120.712 13.862 120.518 13.585 120.568 13.294ZM118.796 9.04501C118.978 8.81201 119.315 8.77102 119.547 8.95202C119.78 9.13402 119.822 9.47 119.64 9.703C119.324 10.109 118.925 10.891 118.821 12.311C118.8 12.593 118.566 12.808 118.288 12.808C118.275 12.808 118.262 12.807 118.248 12.807C117.953 12.785 117.732 12.529 117.753 12.234C117.851 10.898 118.212 9.79501 118.796 9.04501ZM38.082 7.34802C38.473 6.69602 39.186 6.50002 39.856 6.86102C40.531 7.22402 41.025 8.10701 40.645 8.89901C40.438 9.33101 40.041 9.591 39.556 9.613C39.534 9.614 39.513 9.61401 39.491 9.61401C38.93 9.61401 38.35 9.28802 38.062 8.80502C37.791 8.35202 37.798 7.82102 38.082 7.34802ZM34.876 8.46801C35.267 7.81601 35.979 7.62001 36.649 7.98001C37.325 8.34301 37.818 9.226 37.438 10.018C37.231 10.45 36.834 10.71 36.349 10.732C36.327 10.733 36.306 10.733 36.284 10.733C35.724 10.733 35.144 10.407 34.855 9.92401C34.585 9.47201 34.592 8.94101 34.876 8.46801ZM34.897 12.93C34.69 13.362 34.293 13.622 33.808 13.644C33.787 13.645 33.765 13.645 33.743 13.645C33.183 13.645 32.602 13.319 32.314 12.836C32.043 12.383 32.051 11.852 32.334 11.379C32.725 10.727 33.438 10.531 34.108 10.892C34.783 11.255 35.277 12.138 34.897 12.93ZM41.483 14.545C40.963 15.419 40.196 16.075 39.323 16.392C38.932 16.534 38.524 16.604 38.123 16.604C37.515 16.604 36.922 16.443 36.42 16.129C35.333 15.447 35.087 14.558 35.071 13.931C35.043 12.804 35.762 11.562 36.902 10.767C37.802 10.139 38.869 9.91201 39.831 10.144C40.938 10.411 41.801 11.296 41.979 12.346C42.128 13.224 41.791 14.027 41.483 14.545ZM10.801 69.78C10.701 69.78 10.601 69.752 10.511 69.694C10.263 69.534 10.191 69.202 10.352 68.954C12.131 66.201 14.348 65.871 15.829 66.48C16.102 66.592 16.233 66.905 16.121 67.179C16.008 67.452 15.696 67.584 15.422 67.47C14.019 66.893 12.46 67.665 11.251 69.536C11.148 69.694 10.976 69.78 10.801 69.78ZM16.559 77.083C16.472 77.136 16.377 77.16 16.282 77.16C16.101 77.16 15.924 77.068 15.824 76.902C15.671 76.649 15.752 76.32 16.005 76.167C16.969 75.583 18.023 74.028 17.224 72.545C16.965 72.064 16.107 71.369 15.098 71.395C14.073 71.424 13.165 72.22 12.473 73.698C12.347 73.966 12.028 74.08 11.761 73.956C11.493 73.831 11.378 73.512 11.503 73.244C12.609 70.883 14.052 70.354 15.068 70.326C16.465 70.284 17.704 71.179 18.167 72.038C19.188 73.935 18.127 76.134 16.559 77.083ZM21.576 54.697C21.152 55.373 20.4 55.94 19.383 55.94C18.949 55.94 18.468 55.837 17.943 55.596C17.674 55.473 17.557 55.155 17.68 54.886C17.803 54.618 18.121 54.499 18.39 54.623C19.362 55.069 20.192 54.889 20.669 54.129C21.255 53.193 21.131 51.624 19.908 50.617C19.68 50.429 19.647 50.092 19.835 49.864C20.023 49.636 20.36 49.603 20.588 49.791C22.266 51.172 22.408 53.37 21.576 54.697ZM23.309 43.377C23.05 43.235 22.955 42.909 23.097 42.65C23.239 42.391 23.565 42.296 23.824 42.438C24.633 42.882 25.438 42.741 25.976 42.06C26.656 41.198 26.75 39.67 25.613 38.414C25.415 38.195 25.431 37.856 25.65 37.658C25.869 37.46 26.208 37.476 26.406 37.695C27.942 39.391 27.775 41.508 26.816 42.723C26.276 43.407 25.534 43.763 24.744 43.763C24.272 43.764 23.783 43.637 23.309 43.377ZM34.105 50.341C33.676 51.285 32.862 51.989 31.783 52.363C32.363 54.125 32.371 55.576 31.806 56.683C31.302 57.671 30.37 58.352 29.037 58.71C28.99 58.723 28.944 58.728 28.898 58.728C28.662 58.728 28.446 58.571 28.381 58.331C28.304 58.045 28.474 57.752 28.759 57.675C29.787 57.399 30.491 56.901 30.852 56.195C31.313 55.293 31.242 54.01 30.654 52.387L28.927 51.541C27.912 52.098 25.385 52.457 25.103 52.014C24.763 51.48 26.774 47.383 27.298 47.377C27.721 47.372 28.961 49.363 29.282 50.523L31.142 51.435C32.098 51.183 32.785 50.656 33.13 49.898C33.63 48.797 33.393 47.252 32.463 45.548C32.321 45.288 32.417 44.963 32.676 44.822C32.935 44.68 33.261 44.776 33.402 45.035C34.807 47.607 34.56 49.34 34.105 50.341ZM93.558 69.46C89.29 72.217 83.805 72.505 79.398 72.737C78.985 72.759 78.526 72.77 78.028 72.77C71.62 72.77 58.575 70.97 48.481 67.253C48.204 67.151 48.062 66.843 48.164 66.566C48.266 66.288 48.575 66.147 48.851 66.248C59.597 70.205 73.702 71.964 79.342 71.668C83.845 71.432 88.949 71.163 92.978 68.561C96.842 66.065 99.23 61.483 99.062 56.886C98.847 51.008 94.987 46.863 87.589 44.568C74.745 40.583 57.505 43.396 43.597 51.729C43.379 53.246 43.026 54.762 42.532 56.2C41.034 60.562 38.491 63.567 35.371 64.662C35.312 64.683 35.253 64.692 35.194 64.692C34.973 64.692 34.766 64.554 34.689 64.334C34.591 64.055 34.738 63.75 35.017 63.652C37.822 62.668 40.131 59.898 41.52 55.852C42.015 54.41 42.364 52.891 42.572 51.379C42.573 51.34 42.579 51.302 42.588 51.265C43.127 47.209 42.643 43.221 41.171 40.935C41.011 40.686 41.083 40.355 41.331 40.195C41.579 40.035 41.911 40.107 42.071 40.355C43.539 42.636 44.112 46.442 43.752 50.396C57.785 42.237 75.001 39.542 87.905 43.546C95.784 45.991 99.897 50.466 100.131 56.847C100.312 61.813 97.732 66.764 93.558 69.46ZM148.485 82.564C148.589 82.288 148.898 82.148 149.174 82.252C149.188 82.257 150.568 82.771 151.678 82.743C151.977 82.729 152.219 82.97 152.226 83.265C152.233 83.561 151.999 83.806 151.704 83.813C151.668 83.814 151.633 83.814 151.597 83.814C150.301 83.814 148.86 83.277 148.798 83.253C148.52 83.149 148.381 82.841 148.485 82.564ZM148.346 85.997C148.464 85.726 148.78 85.602 149.051 85.72C150.888 86.521 151.885 86.395 152.315 86.248C152.595 86.153 152.899 86.303 152.994 86.583C153.089 86.863 152.939 87.167 152.66 87.262C152.335 87.373 151.97 87.427 151.57 87.427C150.727 87.427 149.729 87.183 148.624 86.701C148.352 86.583 148.228 86.268 148.346 85.997Z" fill="white"/>
<path d="M36.435 9.94583C36.611 9.93783 36.679 9.86883 36.731 9.76083C36.896 9.41783 36.555 8.88782 36.163 8.67682C36.05 8.61582 35.961 8.59082 35.887 8.59082C35.732 8.59082 35.647 8.70384 35.566 8.83884C35.388 9.13584 35.455 9.32282 35.532 9.45282C35.704 9.73982 36.103 9.95483 36.435 9.94583Z" fill="white"/>
</svg>
