<svg width="91" height="118" viewBox="0 0 91 118" fill="none" xmlns="http://www.w3.org/2000/svg">
<path d="M39.8207 46.4162C39.2327 46.1112 38.6327 45.8302 38.0247 45.5762C37.8517 45.6392 37.6797 45.7002 37.5087 45.7572C37.9137 46.0132 38.3117 46.2842 38.7027 46.5672C39.0817 46.5162 39.4537 46.4662 39.8207 46.4162Z" fill="white"/>
<path d="M24.9797 52.8242C25.3197 52.9732 25.6567 53.1332 25.9907 53.3032C26.2547 52.5402 26.6697 51.7642 27.2287 51.0292C27.0167 50.9362 26.8027 50.8472 26.5887 50.7622C25.9877 51.4402 25.4487 52.1282 24.9797 52.8242Z" fill="white"/>
<path d="M37.1387 46.7912C36.7957 46.5682 36.4477 46.3582 36.0967 46.1592C34.8867 46.4452 33.7037 46.5782 32.5417 46.5782C32.1637 46.5782 31.7877 46.5602 31.4137 46.5342C32.0927 46.8082 32.7657 47.1102 33.4297 47.4402C34.5707 47.1942 35.8497 46.9812 37.1387 46.7912Z" fill="white"/>
<path d="M23.7377 44.3013C23.2977 44.3973 22.8637 44.5073 22.4347 44.6263C23.2087 44.6363 24.0047 44.6963 24.8127 44.7963C24.4527 44.6403 24.0947 44.4733 23.7377 44.3013Z" fill="white"/>
<path d="M25.6487 55.4266C25.6327 55.3576 25.6297 55.2856 25.6427 55.2136C25.6427 54.9426 25.6677 54.6616 25.7157 54.3746C25.2817 54.1466 24.8427 53.9356 24.3987 53.7466C23.8757 54.6286 23.4507 55.5196 23.1067 56.4106C25.5677 57.3636 28.0557 59.1096 29.9977 61.2496C30.7657 60.6896 31.4737 60.1146 32.1147 59.5386C31.9727 59.3786 31.8307 59.2206 31.6877 59.0666C31.1097 59.2006 30.5597 59.2706 30.0407 59.2706C29.4607 59.2706 28.9177 59.1866 28.4137 59.0176C27.2037 58.6116 26.2657 57.6896 25.8417 56.4866C25.7257 56.1626 25.6667 55.8046 25.6487 55.4266Z" fill="white"/>
<path d="M33.0557 58.6445C32.9787 58.6735 32.9017 58.7005 32.8257 58.7275C32.8487 58.7525 32.8707 58.7785 32.8937 58.8045C32.9487 58.7505 33.0027 58.6975 33.0557 58.6445Z" fill="white"/>
<path d="M26.5957 49.6143C26.6157 49.6203 26.6347 49.6283 26.6537 49.6373C27.0897 49.8043 27.5237 49.9862 27.9557 50.1812C28.5707 49.5482 29.2997 48.9673 30.1477 48.4883C30.5597 48.2553 31.1207 48.0453 31.7767 47.8513C27.1467 45.8283 22.0237 45.1643 18.3637 46.1693C16.9397 46.8673 15.5987 47.7023 14.3557 48.6553C18.5917 47.8133 22.6937 48.1353 26.5957 49.6143Z" fill="white"/>
<path d="M26.2377 64.7564C26.1847 64.7874 26.1277 64.8044 26.0707 64.8154C24.8027 65.4124 23.4497 65.9234 22.0267 66.3164C22.1537 67.4024 22.3407 68.4434 22.5537 69.4254C22.5697 69.4204 22.5847 69.4134 22.6017 69.4104C28.6357 68.1294 33.8917 64.5814 37.4487 59.4094C36.9067 58.6804 36.3357 57.9814 35.7397 57.3164C35.6837 57.3504 35.6277 57.3814 35.5727 57.4144C33.7817 59.7474 30.5237 62.6724 26.3107 64.7064C26.2877 64.7224 26.2647 64.7414 26.2377 64.7564Z" fill="white"/>
<path d="M21.9247 65.2314C23.0607 64.9074 24.1487 64.5064 25.1817 64.0444C24.2177 62.6174 23.0177 61.7724 21.9667 61.1934C21.8237 62.5754 21.8257 63.9294 21.9247 65.2314Z" fill="white"/>
<path d="M26.1617 63.5824C27.2127 63.0584 28.1987 62.4784 29.1117 61.8674C27.3227 59.9284 24.9817 58.2924 22.7497 57.4194C22.4677 58.3024 22.2577 59.1854 22.1147 60.0604C23.3897 60.7184 24.9477 61.7114 26.1617 63.5824Z" fill="white"/>
<path d="M38.1107 60.3281C34.4027 65.5561 29.0057 69.1431 22.8247 70.4551C22.8147 70.4571 22.8037 70.4571 22.7937 70.4581C23.0937 71.6821 23.4207 72.7941 23.7027 73.7531C23.7247 73.8271 23.7437 73.8941 23.7657 73.9671C26.3147 73.1211 28.8147 71.9611 31.1787 70.4991C34.7287 68.3041 37.6127 65.6401 39.6367 62.7561C39.6267 62.7421 39.6137 62.7301 39.6047 62.7141C39.1377 61.8921 38.6387 61.0961 38.1107 60.3281Z" fill="white"/>
<path d="M37.8517 79.5476C35.2207 81.3526 32.4047 82.7576 29.5417 83.7526C30.3157 84.7226 31.1297 85.6036 31.9807 86.3936C37.0117 85.0346 40.8537 82.4626 43.7117 78.5386C43.7427 77.2826 43.6827 75.9926 43.5237 74.6836C41.8847 76.4506 39.9867 78.0826 37.8517 79.5476Z" fill="white"/>
<path d="M50.7917 58.1934C50.7157 59.6484 50.5097 61.0854 50.1787 62.4964C50.1847 62.5064 50.1907 62.5154 50.1957 62.5264C51.5627 65.5524 52.2337 69.1194 52.1667 72.7694C52.7877 69.9614 52.8967 67.0504 52.4717 64.1534C52.1687 62.0864 51.6047 60.0894 50.7917 58.1934Z" fill="white"/>
<path d="M85.8417 79.7784C90.1377 70.7583 89.7047 55.6074 84.8607 47.0994C81.8047 41.7324 76.9397 36.9734 70.4037 32.9553C64.6247 29.4033 55.4817 25.2654 51.8187 23.6504C48.1477 22.0324 46.1987 20.1363 43.7317 17.7373C42.1717 16.2203 40.4067 14.5034 37.8657 12.4904C37.1437 8.55535 34.8157 1.29136 32.7397 0.75636C32.7297 0.75336 32.7207 0.749358 32.7107 0.747358C32.7077 0.746358 32.7047 0.745352 32.7017 0.744352C32.6957 0.743352 32.6887 0.74436 32.6827 0.74336C32.6527 0.73836 32.6217 0.735356 32.5917 0.736356C32.3337 0.716356 32.0567 0.817355 31.7477 1.05736C30.1207 2.31236 26.9937 7.89935 26.7127 11.1994C15.2027 18.2754 12.9547 28.9414 12.6847 30.4884C12.1687 30.9014 10.3227 32.3983 8.5957 34.0243C4.7877 37.6114 4.7397 38.8014 5.1507 39.4284C5.1507 39.4284 5.1507 39.4293 5.1517 39.4293C5.1517 39.4303 5.15271 39.4303 5.15371 39.4313C5.15771 39.4373 5.1617 39.4444 5.1657 39.4504C5.1707 39.4584 5.1797 39.4654 5.1847 39.4734C5.1957 39.4874 5.2067 39.5014 5.2197 39.5144C6.0107 40.4684 9.2887 40.7263 12.3867 40.7444C6.8037 45.3534 0.612703 54.5364 0.0267025 61.1114C-0.142298 63.0134 0.499705 64.9594 1.70271 66.1904C2.37571 66.8794 3.1707 67.2814 3.9817 67.3594C3.9697 68.6294 4.0517 69.9154 4.2407 71.2084C4.4297 72.4954 4.7197 73.7434 5.0917 74.9494C5.0997 74.9974 5.1127 75.0434 5.1357 75.0864C5.5847 76.5124 6.1567 77.8764 6.8377 79.1694C6.8547 79.2274 6.8837 79.2804 6.9217 79.3274C7.5807 80.5554 8.33671 81.7184 9.18071 82.8054C9.21071 82.8694 9.25471 82.9274 9.31271 82.9734C13.6847 88.5094 20.3127 92.0674 27.5787 92.4344C27.5897 92.4354 27.5997 92.4394 27.6107 92.4394C27.6157 92.4394 27.6197 92.4374 27.6247 92.4374C28.0247 92.4564 28.4257 92.4684 28.8287 92.4684C30.0237 92.4684 31.2357 92.3814 32.4537 92.2034C35.8567 91.7044 38.9977 90.5334 41.7637 88.8464C41.8107 88.8254 41.8557 88.7994 41.8937 88.7624C43.7537 87.6124 45.4377 86.2253 46.9187 84.6534C46.9817 84.6153 47.0337 84.5584 47.0727 84.4914C48.4157 83.0394 49.5837 81.4314 50.5497 79.7044L55.2867 79.3294C56.1197 80.6304 57.1617 81.8024 58.3807 82.7764C57.6737 82.8184 56.9667 82.8244 56.2737 82.8294C54.7687 82.8414 53.3477 82.8524 52.2657 83.2614C51.1287 83.6914 50.2007 84.8354 50.1067 85.9204C50.0377 86.7154 50.4027 87.4193 51.1297 87.9274C51.1387 88.0074 51.1507 88.0844 51.1667 88.1564C51.3637 89.0774 52.1547 89.7974 53.0317 89.9244C53.0557 90.0134 53.0827 90.1014 53.1177 90.1884C54.0577 92.5404 60.4617 91.2904 70.1267 89.1134C70.9977 88.9174 71.8527 88.7243 72.6767 88.5434C74.9217 88.0493 76.9527 87.7734 78.5857 87.5514C81.1957 87.1974 82.3657 87.0154 82.7627 86.4034C83.4307 85.3724 83.2707 84.4844 83.1437 83.7694C83.0537 83.2644 82.9887 82.9054 83.1677 82.5574C84.9077 84.9444 85.3377 88.3734 84.2477 91.4624C83.2137 94.3914 80.9097 97.0193 77.7597 98.8624C75.2017 100.359 72.1407 101.372 68.1267 102.05C58.3537 103.701 48.3317 102.606 39.1447 98.8844C38.5587 98.6474 37.9737 98.3984 37.3877 98.1494C34.8617 97.0754 32.2487 95.9644 29.4537 95.7334C26.1637 95.4623 21.9947 96.7834 20.6157 100.327C19.7097 102.656 20.2747 105.546 22.0897 107.871C23.7767 110.032 26.1667 111.401 28.2827 112.456C35.2417 115.924 42.9577 117.635 50.6757 117.635C60.5237 117.634 70.3747 114.849 78.6477 109.373C84.5487 105.468 88.4007 100.966 90.0977 95.9924C92.1217 90.0524 90.3317 83.3054 85.8417 79.7784ZM52.1707 87.1674C52.1087 87.4084 51.8907 87.5694 51.6527 87.5694C51.6087 87.5694 51.5637 87.5644 51.5187 87.5524C51.2327 87.4794 51.0597 87.1874 51.1337 86.9004C51.3477 86.0694 52.1147 84.6744 54.8507 84.7034C55.1467 84.7064 55.3837 84.9484 55.3807 85.2434C55.3777 85.5374 55.1387 85.7744 54.8457 85.7744C54.8227 85.7724 54.8017 85.7734 54.7807 85.7744C53.7397 85.7734 52.4657 86.0204 52.1707 87.1674ZM55.6487 87.7724C54.8487 87.7004 54.0917 88.2894 53.9637 89.0814C53.9207 89.3444 53.6937 89.5304 53.4357 89.5304C53.4077 89.5304 53.3787 89.5284 53.3497 89.5234C53.0577 89.4754 52.8597 89.2014 52.9067 88.9094C53.1267 87.5524 54.3707 86.5834 55.7437 86.7054C56.0387 86.7314 56.2557 86.9914 56.2297 87.2854C56.2027 87.5814 55.9437 87.7994 55.6487 87.7724ZM31.7557 2.29736C31.7817 2.00336 32.0407 1.78135 32.3357 1.81135C32.6297 1.83735 32.8477 2.09735 32.8217 2.39135C32.5897 5.03435 32.3727 9.58136 32.7807 10.5304C33.1427 11.3734 35.3327 11.7294 36.3357 11.7704C36.6307 11.7824 36.8607 12.0314 36.8487 12.3274C36.8367 12.6154 36.5997 12.8414 36.3147 12.8414C36.3077 12.8414 36.2997 12.8414 36.2927 12.8414C35.9087 12.8254 32.5227 12.6424 31.7977 10.9544C31.1497 9.44536 31.6917 3.02436 31.7557 2.29736ZM31.3417 22.9434C31.5457 22.7294 31.8847 22.7224 32.0987 22.9274C32.8797 23.6744 33.8317 23.7574 34.6477 23.1484C35.6647 22.3894 36.2277 20.7124 35.3357 18.9764C35.2007 18.7134 35.3047 18.3904 35.5667 18.2554C35.8297 18.1194 36.1527 18.2243 36.2877 18.4873C37.4517 20.7523 36.6657 22.9784 35.2877 24.0064C34.7367 24.4174 34.1227 24.6214 33.5097 24.6214C32.7527 24.6214 31.9967 24.3114 31.3587 23.7004C31.1447 23.4964 31.1367 23.1574 31.3417 22.9434ZM34.8537 28.4644C35.3067 28.6474 35.7417 31.3804 35.5397 32.6974L37.0597 34.4324C38.1977 34.5964 39.1727 34.3413 39.8837 33.6813C40.9007 32.7363 41.3347 31.0014 41.1037 28.7984C41.0727 28.5044 41.2867 28.2414 41.5807 28.2104C41.8747 28.1804 42.1377 28.3924 42.1687 28.6864C42.5107 31.9504 41.5117 33.6304 40.6127 34.4654C39.7537 35.2634 38.5907 35.6353 37.2947 35.5393C37.1417 37.6443 36.5247 39.1684 35.4577 40.0734C34.7087 40.7084 33.7627 41.0283 32.6367 41.0283C32.3497 41.0283 32.0517 41.0074 31.7427 40.9664C31.4497 40.9273 31.2437 40.6574 31.2837 40.3644C31.3227 40.0714 31.5927 39.8634 31.8857 39.9054C33.0967 40.0674 34.0667 39.8503 34.7657 39.2574C35.6577 38.5004 36.1517 37.1074 36.2437 35.1244L34.8247 33.5054C33.5637 33.6874 30.6517 32.9404 30.5487 32.3444C30.4257 31.6384 34.3047 28.2424 34.8537 28.4644ZM21.8597 34.7104C22.0487 34.4824 22.3857 34.4503 22.6137 34.6403C23.5727 35.4353 24.5657 35.4814 25.3367 34.7644C26.2717 33.8944 26.6037 32.1054 25.5417 30.6184C25.3697 30.3774 25.4257 30.0434 25.6657 29.8714C25.9057 29.6984 26.2407 29.7554 26.4127 29.9954C27.8177 31.9614 27.3397 34.3624 26.0667 35.5474C25.5727 36.0074 24.8897 36.3433 24.1087 36.3433C23.4377 36.3433 22.6927 36.0954 21.9307 35.4634C21.7017 35.2754 21.6707 34.9384 21.8597 34.7104ZM72.0257 59.4403C71.9257 59.7183 71.6187 59.8623 71.3407 59.7633C67.2677 58.2993 62.4337 59.0764 59.0257 61.7454C55.6177 64.4144 53.7047 68.9204 54.1507 73.2264C54.3167 74.8314 54.8007 76.3964 55.5877 77.8764C55.7267 78.1374 55.6267 78.4614 55.3667 78.6004C55.2867 78.6434 55.2007 78.6634 55.1157 78.6634C54.9237 78.6634 54.7387 78.5604 54.6427 78.3794C53.8117 76.8174 53.2957 75.1644 53.1027 73.4674C52.6977 75.1434 52.1207 76.7824 51.3667 78.3584C51.2747 78.5504 51.0827 78.6624 50.8837 78.6624C50.8067 78.6624 50.7277 78.6454 50.6537 78.6104C50.3867 78.4824 50.2737 78.1634 50.4017 77.8964C50.4587 77.7764 50.5117 77.6544 50.5667 77.5334C51.5077 72.9504 51.1927 68.1703 49.7167 64.1903C49.1917 65.8773 48.4857 67.5183 47.6057 69.0974C48.8437 75.1784 48.9037 79.4374 47.7997 82.9004C47.7267 83.1274 47.5167 83.2724 47.2897 83.2724C47.2357 83.2724 47.1807 83.2644 47.1267 83.2474C46.8447 83.1574 46.6897 82.8564 46.7797 82.5744C47.7547 79.5164 47.7597 75.7494 46.7837 70.4774C46.0927 71.5614 45.3157 72.6114 44.4597 73.6234C44.7227 75.3344 44.8257 77.0234 44.7797 78.6594C44.7847 78.7064 44.7837 78.7544 44.7757 78.8024C44.6707 81.9174 44.0137 84.8294 42.8277 87.2914C42.7357 87.4824 42.5437 87.5944 42.3447 87.5944C42.2667 87.5944 42.1877 87.5774 42.1127 87.5414C41.8467 87.4134 41.7347 87.0934 41.8627 86.8274C41.9327 86.6824 41.9967 86.5334 42.0627 86.3854C40.3727 87.8694 38.3107 89.0224 36.3167 89.5774C36.3947 89.7274 36.4007 89.9134 36.3157 90.0744C36.2197 90.2564 36.0337 90.3594 35.8417 90.3594C35.7577 90.3594 35.6717 90.3394 35.5917 90.2974C35.2877 90.1374 34.9887 89.9644 34.6917 89.7864C34.6897 89.7854 34.6877 89.7844 34.6867 89.7834C33.5817 89.1194 32.5237 88.3264 31.5137 87.4164C31.5087 87.4134 31.5057 87.4084 31.5017 87.4054C30.4297 86.4394 29.4107 85.3424 28.4567 84.1094C27.3447 84.4534 26.2277 84.7364 25.1137 84.9534C27.3187 87.4864 29.8117 89.3294 32.5327 90.4344C32.8067 90.5454 32.9387 90.8574 32.8277 91.1314C32.7437 91.3394 32.5427 91.4654 32.3317 91.4654C32.2647 91.4654 32.1967 91.4534 32.1307 91.4264C29.0817 90.1894 26.3127 88.0874 23.8987 85.1784C23.8957 85.1744 23.8937 85.1704 23.8907 85.1674C22.5717 85.3694 21.2627 85.4804 19.9747 85.4984C22.1957 88.0264 24.2447 89.7694 26.2217 90.8124C26.4837 90.9504 26.5837 91.2744 26.4457 91.5354C26.3497 91.7174 26.1637 91.8214 25.9717 91.8214C25.8877 91.8214 25.8017 91.8014 25.7227 91.7594C23.4607 90.5664 21.1337 88.5364 18.6097 85.5554C18.5907 85.5324 18.5747 85.5084 18.5597 85.4834C15.8347 85.3744 13.2337 84.8344 10.8887 83.8384C10.6167 83.7234 10.4897 83.4084 10.6047 83.1364C10.7197 82.8643 11.0347 82.7364 11.3067 82.8534C18.7497 86.0134 28.9317 84.3694 37.2477 78.6654C45.3117 73.1334 49.8447 65.1453 49.7547 56.6813C48.9387 56.6943 48.0817 56.6844 47.1977 56.6614C46.7937 63.3114 42.5187 69.9034 35.3927 74.8214C29.3057 79.0224 22.2257 81.2934 15.8657 81.2934C13.2827 81.2934 10.8177 80.9184 8.5867 80.1474C8.3077 80.0504 8.1597 79.7464 8.2557 79.4664C8.3527 79.1874 8.6567 79.0394 8.9367 79.1354C16.3517 81.7004 26.4977 79.6614 34.7847 73.9404C41.6257 69.2184 45.7317 62.9364 46.1277 56.6284C45.6637 56.6124 45.1967 56.5953 44.7247 56.5784C44.3627 56.5644 43.9987 56.5514 43.6357 56.5384C42.3917 62.0924 38.0837 67.4914 31.7437 71.4114C26.4317 74.6954 20.4487 76.5044 14.7137 76.6864C14.6997 76.6874 14.6847 76.6904 14.6697 76.6904C14.6637 76.6904 14.6577 76.6874 14.6517 76.6874C14.3547 76.6964 14.0577 76.7044 13.7617 76.7044C11.2617 76.7044 8.8207 76.3904 6.5127 75.7464C6.2277 75.6674 6.0617 75.3714 6.1407 75.0874C6.2197 74.8024 6.51571 74.6364 6.79971 74.7154C7.59371 74.9364 8.40571 75.1154 9.23071 75.2564C7.42271 71.4314 6.88871 66.6183 7.73671 61.5653C8.41971 57.4903 9.9767 53.5854 12.0187 50.7024C7.9827 54.7214 5.3937 60.1544 5.0237 66.1134C5.0057 66.3974 4.7707 66.6154 4.4897 66.6154C4.4787 66.6154 4.4677 66.6154 4.4557 66.6144C4.1607 66.5954 3.9367 66.3424 3.9547 66.0464C4.3597 59.5334 7.30171 53.6243 11.8557 49.3753C11.8807 49.3453 11.9097 49.3184 11.9417 49.2944C13.7047 47.6654 15.7057 46.2813 17.8937 45.2093C17.9227 45.1923 17.9537 45.1783 17.9857 45.1663C19.3497 44.5053 20.7867 43.9664 22.2817 43.5594C20.6847 42.7014 19.1027 41.7214 17.5207 40.6934C17.0477 40.7194 15.6837 40.7873 14.0517 40.8134C13.7557 40.8163 13.5127 40.5824 13.5077 40.2864C13.5027 39.9914 13.7387 39.7474 14.0347 39.7424C15.0857 39.7264 16.0207 39.6913 16.6747 39.6623C15.7377 38.3694 14.5177 36.9214 13.9387 36.7514C12.0977 36.2134 8.1567 38.3234 6.7937 39.1824C6.5437 39.3414 6.21271 39.2653 6.05571 39.0153C5.89771 38.7653 5.97271 38.4354 6.22271 38.2774C6.76571 37.9344 11.6047 34.9504 14.2407 35.7244C15.5127 36.0974 17.5237 38.9784 18.0497 39.7584C20.0217 41.0414 21.9917 42.2514 23.9907 43.2264C24.0397 43.2434 24.0867 43.2654 24.1297 43.2954C29.4577 45.8624 34.9937 46.7244 41.3017 42.7584C41.5517 42.6014 41.8827 42.6764 42.0397 42.9264C42.1967 43.1764 42.1217 43.5073 41.8717 43.6643C41.0327 44.1913 40.2077 44.6383 39.3947 45.0133C40.1457 45.3643 40.8807 45.7524 41.5937 46.1764C43.0817 45.9684 44.4177 45.7564 44.7137 45.5874C45.1497 45.1524 45.2007 43.8314 45.1557 43.2524C45.1327 42.9574 45.3537 42.7003 45.6487 42.6773C45.9407 42.6563 46.2007 42.8754 46.2237 43.1694C46.2417 43.4064 46.3737 45.5033 45.4287 46.3843C45.0157 46.7683 43.7447 46.9693 40.2157 47.4443C36.8687 47.8943 32.2857 48.5114 30.6777 49.4204C29.0417 50.3454 27.8807 51.6984 27.2517 53.0304C27.7697 52.5764 28.4267 52.1453 29.2497 51.8583C29.5287 51.7623 29.8337 51.9094 29.9317 52.1874C30.0287 52.4664 29.8817 52.7714 29.6027 52.8694C27.7807 53.5043 26.9167 55.0143 26.7147 55.4163C26.7317 55.6713 26.7777 55.9124 26.8547 56.1314C26.9287 56.3424 27.0887 56.7064 27.3887 57.0704C28.0117 55.9584 29.0327 55.0754 30.2367 54.6464C30.5147 54.5464 30.8207 54.6924 30.9207 54.9714C31.0197 55.2504 30.8747 55.5564 30.5957 55.6554C29.5707 56.0204 28.7097 56.7964 28.2257 57.7674C28.3857 57.8564 28.5607 57.9374 28.7557 58.0034C29.9857 58.4154 32.2667 58.3674 36.1477 55.7964C36.2047 55.7584 36.2687 55.7323 36.3367 55.7183C38.5037 55.2773 41.5457 55.3894 44.7667 55.5104C48.7997 55.6604 52.9687 55.8164 54.7937 54.7584C57.8937 52.9614 57.5247 45.9024 57.5207 45.8314C57.5037 45.5364 57.7287 45.2834 58.0237 45.2664C58.3187 45.2484 58.5717 45.4744 58.5887 45.7694C58.6067 46.0864 58.9987 53.5584 55.3307 55.6844C54.3547 56.2504 52.9307 56.5163 51.2477 56.6253C52.3847 58.9423 53.1557 61.4173 53.5347 64.0003C53.7027 65.1423 53.7867 66.2864 53.7977 67.4254C54.6727 64.8754 56.2537 62.5624 58.3697 60.9054C62.0607 58.0144 67.2957 57.1724 71.7067 58.7584C71.9807 58.8564 72.1257 59.1623 72.0257 59.4403Z" fill="white"/>
<path d="M32.9447 87.2363C33.6317 87.8003 34.3387 88.3133 35.0667 88.7623C37.8617 88.2913 41.0007 86.3713 42.9427 83.9293C43.2517 82.8183 43.4667 81.6433 43.5927 80.4263C40.8467 83.6863 37.3437 85.9273 32.9447 87.2363Z" fill="white"/>
<path d="M25.5137 50.3653C24.4087 49.9913 23.2887 49.7093 22.1527 49.5273C17.1817 56.7373 16.3297 66.2073 19.8567 75.0103C20.8217 74.8153 21.7857 74.5743 22.7437 74.2893C22.7207 74.2103 22.6997 74.1373 22.6757 74.0563C21.1047 68.7243 18.2187 58.9043 25.5137 50.3653Z" fill="white"/>
<path d="M16.3237 49.4253C15.5887 49.5133 14.8477 49.6413 14.1027 49.8043C8.91574 55.4783 6.32974 67.5383 10.5227 75.4443C11.6327 75.5763 12.7637 75.6373 13.9067 75.6323C10.4067 65.8903 11.2867 56.4493 16.3237 49.4253Z" fill="white"/>
<path d="M20.9607 49.3754C19.9027 49.2694 18.8327 49.2454 17.7507 49.3044C12.3717 56.1814 11.3877 65.7345 15.0367 75.6075C16.2777 75.5535 17.5297 75.4185 18.7827 75.2085C15.2877 66.3115 16.0947 56.7664 20.9607 49.3754Z" fill="white"/>
<path d="M36.6656 56.7434C38.0126 58.2664 39.2286 59.9534 40.2906 61.7694C41.3536 60.0624 42.1176 58.2914 42.5436 56.5044C40.3246 56.4424 38.2066 56.4494 36.6656 56.7434Z" fill="white"/>
</svg>
