<svg width="21" height="17" viewBox="0 0 21 17" fill="none" xmlns="http://www.w3.org/2000/svg">
<path d="M5.68066 4.5553C7.43066 2.8053 10.3057 2.8053 12.0557 4.5553C13.6182 6.1178 13.8369 8.58655 12.5557 10.399L12.5244 10.4303C12.2119 10.899 11.5869 10.9928 11.1182 10.6803C10.6807 10.3365 10.5557 9.71155 10.8994 9.27405L10.9307 9.2428C11.6494 8.21155 11.5244 6.8678 10.6494 5.9928C9.68066 4.9928 8.08691 4.9928 7.08691 5.9928L3.58691 9.4928C2.58691 10.4615 2.58691 12.0553 3.58691 13.0553C4.46191 13.9303 5.83691 14.024 6.83691 13.3365L6.86816 13.274C7.33691 12.9615 7.96191 13.0553 8.27441 13.524C8.58691 13.9615 8.49316 14.5865 8.05566 14.9303L7.99316 14.9615C6.18066 16.2428 3.74316 16.024 2.18066 14.4615C0.399414 12.7115 0.399414 9.83655 2.18066 8.08655L5.68066 4.5553ZM14.8994 12.3053C13.1494 14.0865 10.2744 14.0865 8.52441 12.3053C6.96191 10.7428 6.74316 8.3053 8.02441 6.4928L8.05566 6.46155C8.36816 5.9928 8.99316 5.89905 9.46191 6.21155C9.89941 6.52405 10.0244 7.14905 9.68066 7.6178L9.64941 7.64905C8.93066 8.64905 9.05566 10.024 9.93066 10.899C10.8994 11.899 12.4932 11.899 13.4932 10.899L16.9932 7.39905C17.9932 6.39905 17.9932 4.8053 16.9932 3.83655C16.1182 2.96155 14.7432 2.83655 13.7432 3.5553L13.7119 3.58655C13.2432 3.9303 12.6182 3.8053 12.3057 3.3678C11.9932 2.9303 12.0869 2.3053 12.5244 1.96155L12.5869 1.9303C14.3994 0.649048 16.8369 0.867798 18.3994 2.4303C20.1807 4.1803 20.1807 7.0553 18.3994 8.8053L14.8994 12.3053Z" fill="#737373"/>
</svg>
