<svg width="136" height="41" viewBox="0 0 136 41" fill="none" xmlns="http://www.w3.org/2000/svg">
<path d="M17.9009 17.4609L20.8909 17.4609L20.8909 35.2519L17.9009 35.2519L17.9009 17.4609Z" fill="#BABFC9"/>
<path d="M31.2897 29.6143C31.2897 32.3707 28.9496 32.6213 28.1696 32.6213C26.3496 32.6213 26.0896 30.9925 26.0896 30.1155L26.0896 23.2246L23.0996 23.2246L23.0996 29.9902C23.0996 31.619 23.6196 33.1224 24.6596 33.9994C25.5696 34.8765 26.7396 35.2523 28.1696 35.2523C29.2096 35.2523 30.5097 35.0018 31.2897 34.25L31.2897 35.2523L34.2797 35.2523L34.2797 23.2246L31.2897 23.2246L31.2897 29.6143Z" fill="#BABFC9"/>
<path d="M40.1302 18.8398L37.1402 18.8398L37.1402 23.2249L34.9302 23.2249L34.9302 25.9813L37.1402 25.9813L37.1402 35.2526L40.1302 35.2526L40.1302 25.9813L42.3402 25.9813L42.3402 23.2249L40.1302 23.2249L40.1302 18.8398Z" fill="#BABFC9"/>
<path d="M51.7004 31.6176C51.0504 32.1187 50.1404 32.4946 49.2304 32.4946C47.1504 32.4946 45.7204 30.9911 45.7204 28.9865C45.7204 26.9819 47.1504 25.6037 49.2304 25.6037C50.1404 25.6037 51.0504 25.8543 51.7004 26.4807L52.0904 26.8566L54.1704 24.9773L53.6504 24.6014C52.4804 23.5991 50.9204 22.9727 49.2304 22.9727C45.5904 22.9727 42.8604 25.6037 42.8604 29.1118C42.8604 32.6199 45.5904 35.251 49.2304 35.251C50.9204 35.251 52.4804 34.6245 53.6504 33.6222L54.1704 33.2463L52.0904 31.2417L51.7004 31.6176Z" fill="#BABFC9"/>
<path d="M64.7002 24.2265C63.7902 23.3495 62.8801 22.9736 61.4501 22.9736C60.4101 22.9736 59.3701 23.2242 58.5901 23.9759L58.5901 17.4609L55.6001 17.4609L55.6001 35.2519L58.5901 35.2519L58.5901 28.6116C58.5901 25.8553 60.5401 25.6047 61.3201 25.6047C63.1401 25.6047 63.0102 27.2334 63.0102 28.1105L63.0102 35.1266L66.0002 35.1266L66.0002 28.2358C66.0002 26.607 65.6102 25.1035 64.7002 24.2265Z" fill="#BABFC9"/>
<path d="M49.0996 31.1167C50.2483 31.1167 51.1796 30.2192 51.1796 29.112C51.1796 28.0049 50.2483 27.1074 49.0996 27.1074C47.9508 27.1074 47.0195 28.0049 47.0195 29.112C47.0195 30.2192 47.9508 31.1167 49.0996 31.1167Z" fill="#EF4335"/>
<path d="M13.7401 30.8665C12.7001 31.8688 11.1401 32.4953 9.45007 32.4953C6.20004 32.4953 3.86002 29.9895 3.86002 26.6067C3.86002 23.2239 6.20004 20.7181 9.58007 20.7181C11.1401 20.7181 12.7001 21.3445 13.8701 22.4721L14.2601 22.848L16.2101 20.9687L15.8201 20.5928C14.1301 18.9641 11.9201 18.087 9.58007 18.087C4.64003 17.9617 1 21.7204 1 26.6067C1 31.493 4.64003 35.2516 9.45007 35.2516C11.7901 35.2516 14.1301 34.3746 15.6901 32.7459L16.0801 32.37L14.1301 30.4907L13.7401 30.8665Z" fill="#BABFC9"/>
<path d="M76.056 36.2654C75.432 36.2654 74.8903 36.1527 74.431 35.9274C73.9717 35.702 73.6033 35.3944 73.326 35.0044C73.0573 34.6057 72.8927 34.155 72.832 33.6524H73.898C74.002 34.155 74.2447 34.5624 74.626 34.8744C75.0073 35.1777 75.4883 35.3294 76.069 35.3294C76.5023 35.3294 76.875 35.2297 77.187 35.0304C77.499 34.8224 77.7373 34.545 77.902 34.1984C78.0753 33.8517 78.162 33.466 78.162 33.0414C78.162 32.3654 77.9713 31.8194 77.59 31.4034C77.2087 30.9874 76.7147 30.7794 76.108 30.7794C75.6053 30.7794 75.1763 30.892 74.821 31.1174C74.4657 31.3427 74.2057 31.6374 74.041 32.0014H73.001L73.781 27.0094H78.552V27.9584H74.626L74.093 30.7274C74.301 30.476 74.587 30.268 74.951 30.1034C75.3237 29.9387 75.7483 29.8564 76.225 29.8564C76.823 29.8564 77.343 29.995 77.785 30.2724C78.2357 30.5497 78.5867 30.9267 78.838 31.4034C79.0893 31.88 79.215 32.4217 79.215 33.0284C79.215 33.609 79.0893 34.1464 78.838 34.6404C78.5953 35.1344 78.2357 35.5287 77.759 35.8234C77.291 36.118 76.7233 36.2654 76.056 36.2654ZM80.844 36.1744C80.6273 36.1744 80.4453 36.105 80.298 35.9664C80.1593 35.819 80.09 35.6414 80.09 35.4334C80.09 35.2254 80.1593 35.052 80.298 34.9134C80.4453 34.766 80.6273 34.6924 80.844 34.6924C81.052 34.6924 81.2253 34.766 81.364 34.9134C81.5113 35.052 81.585 35.2254 81.585 35.4334C81.585 35.6414 81.5113 35.819 81.364 35.9664C81.2253 36.105 81.052 36.1744 80.844 36.1744ZM85.7095 36.2654C84.9035 36.2654 84.2058 36.0704 83.6165 35.6804C83.0358 35.2817 82.5895 34.7314 82.2775 34.0294C81.9655 33.3187 81.8095 32.4954 81.8095 31.5594C81.8095 30.6234 81.9655 29.8044 82.2775 29.1024C82.5895 28.3917 83.0358 27.8414 83.6165 27.4514C84.2058 27.0527 84.9035 26.8534 85.7095 26.8534C86.5155 26.8534 87.2088 27.0527 87.7895 27.4514C88.3702 27.8414 88.8165 28.3917 89.1285 29.1024C89.4405 29.8044 89.5965 30.6234 89.5965 31.5594C89.5965 32.4954 89.4405 33.3187 89.1285 34.0294C88.8165 34.7314 88.3702 35.2817 87.7895 35.6804C87.2088 36.0704 86.5155 36.2654 85.7095 36.2654ZM85.7095 35.3034C86.2382 35.3034 86.7105 35.156 87.1265 34.8614C87.5512 34.558 87.8805 34.129 88.1145 33.5744C88.3572 33.011 88.4785 32.3394 88.4785 31.5594C88.4785 30.7794 88.3572 30.112 88.1145 29.5574C87.8805 29.0027 87.5512 28.578 87.1265 28.2834C86.7105 27.98 86.2382 27.8284 85.7095 27.8284C85.1722 27.8284 84.6955 27.98 84.2795 28.2834C83.8635 28.578 83.5342 29.0027 83.2915 29.5574C83.0488 30.112 82.9275 30.7794 82.9275 31.5594C82.9275 32.3394 83.0488 33.011 83.2915 33.5744C83.5342 34.129 83.8635 34.558 84.2795 34.8614C84.6955 35.156 85.1722 35.3034 85.7095 35.3034ZM93.8346 36.1094V27.0094H96.7726C97.4833 27.0094 98.064 27.1264 98.5146 27.3604C98.9653 27.5944 99.299 27.915 99.5156 28.3224C99.7323 28.7297 99.8406 29.1804 99.8406 29.6744C99.8406 30.2464 99.6846 30.762 99.3726 31.2214C99.0693 31.6807 98.5926 32.0057 97.9426 32.1964L99.9316 36.1094H98.6446L96.7986 32.3524H96.7206H94.9266V36.1094H93.8346ZM94.9266 31.4944H96.6946C97.3966 31.4944 97.908 31.3254 98.2286 30.9874C98.5493 30.6494 98.7096 30.216 98.7096 29.6874C98.7096 29.15 98.5493 28.7254 98.2286 28.4134C97.9166 28.0927 97.401 27.9324 96.6816 27.9324H94.9266V31.4944ZM100.579 36.1094L103.933 27.0094H105.09L108.431 36.1094H107.274L106.442 33.7694H102.568L101.723 36.1094H100.579ZM102.893 32.8854H106.117L104.505 28.3874L102.893 32.8854ZM110.497 36.1094V27.9064H107.78V27.0094H114.306V27.9064H111.589V36.1094H110.497ZM115.25 36.1094V27.0094H116.342V36.1094H115.25ZM117.881 36.1094V27.0094H118.973L123.822 34.3024V27.0094H124.914V36.1094H123.822L118.973 28.8164V36.1094H117.881ZM130.367 36.2654C129.518 36.2654 128.772 36.0704 128.131 35.6804C127.49 35.2817 126.991 34.7314 126.636 34.0294C126.281 33.3187 126.103 32.4997 126.103 31.5724C126.103 30.645 126.281 29.826 126.636 29.1154C127 28.4047 127.511 27.85 128.17 27.4514C128.837 27.0527 129.622 26.8534 130.523 26.8534C131.546 26.8534 132.395 27.1004 133.071 27.5944C133.756 28.0884 134.198 28.7687 134.397 29.6354H133.136C133.015 29.0894 132.724 28.656 132.265 28.3354C131.814 28.0147 131.234 27.8544 130.523 27.8544C129.856 27.8544 129.275 28.006 128.781 28.3094C128.287 28.604 127.901 29.0287 127.624 29.5834C127.355 30.138 127.221 30.801 127.221 31.5724C127.221 32.3437 127.355 33.0067 127.624 33.5614C127.893 34.116 128.265 34.545 128.742 34.8484C129.219 35.143 129.773 35.2904 130.406 35.2904C131.377 35.2904 132.109 35.0087 132.603 34.4454C133.097 33.8734 133.379 33.0934 133.448 32.1054H130.822V31.2474H134.566V36.1094H133.565L133.474 34.6144C133.145 35.143 132.742 35.5504 132.265 35.8364C131.788 36.1224 131.156 36.2654 130.367 36.2654Z" fill="#BABFC9"/>
<path d="M1.05055 11.1094V4.10937H3.31055C3.85721 4.10937 4.30388 4.19937 4.65055 4.37937C4.99721 4.55937 5.25388 4.80604 5.42055 5.11937C5.58721 5.43271 5.67055 5.77937 5.67055 6.15937C5.67055 6.59937 5.55055 6.99604 5.31055 7.34937C5.07721 7.70271 4.71055 7.95271 4.21055 8.09937L5.74055 11.1094H4.75055L3.33055 8.21937H3.27055H1.89055V11.1094H1.05055ZM1.89055 7.55937H3.25055C3.79055 7.55937 4.18388 7.42937 4.43055 7.16937C4.67721 6.90937 4.80055 6.57604 4.80055 6.16937C4.80055 5.75604 4.67721 5.42937 4.43055 5.18937C4.19055 4.94271 3.79388 4.81937 3.24055 4.81937H1.89055V7.55937ZM7.02828 11.1094V4.10937H11.3583V4.79937H7.86828V7.23937H11.0583V7.91937H7.86828V10.4194H11.3583V11.1094H7.02828ZM14.8328 11.1094L12.2028 4.10937H13.1128L15.3228 10.2194L17.5528 4.10937H18.4428L15.8128 11.1094H14.8328ZM19.4525 11.1094V4.10937H20.2925V11.1094H19.4525ZM21.8267 11.1094V4.10937H26.1567V4.79937H22.6667V7.23937H25.8567V7.91937H22.6667V10.4194H26.1567V11.1094H21.8267ZM28.9613 11.1194L27.0413 4.10937H27.9413L29.4513 10.1194L31.1713 4.10937H32.1013L33.7713 10.1194L35.3013 4.10937H36.2013L34.2413 11.1094H33.2813L31.6113 5.32937L29.9013 11.1094L28.9613 11.1194ZM37.2392 11.1094V4.10937H41.5692V4.79937H38.0792V7.23937H41.2692V7.91937H38.0792V10.4194H41.5692V11.1094H37.2392ZM42.9337 11.1094V4.10937H45.0837C46.3171 4.10937 47.2237 4.42271 47.8037 5.04937C48.3904 5.67604 48.6837 6.53604 48.6837 7.62937C48.6837 8.70271 48.3904 9.55271 47.8037 10.1794C47.2237 10.7994 46.3171 11.1094 45.0837 11.1094H42.9337ZM43.7737 10.4094H45.0637C45.7437 10.4094 46.2837 10.2994 46.6837 10.0794C47.0904 9.85271 47.3804 9.53271 47.5537 9.11937C47.7271 8.69937 47.8137 8.20271 47.8137 7.62937C47.8137 7.04271 47.7271 6.53937 47.5537 6.11937C47.3804 5.69937 47.0904 5.37604 46.6837 5.14937C46.2837 4.92271 45.7437 4.80937 45.0637 4.80937H43.7737V10.4094ZM55.8231 11.2294C55.1365 11.2294 54.5331 11.0794 54.0131 10.7794C53.4998 10.4727 53.0965 10.046 52.8031 9.49937C52.5165 8.95271 52.3731 8.32271 52.3731 7.60937C52.3731 6.89604 52.5165 6.26937 52.8031 5.72937C53.0965 5.18271 53.4998 4.75604 54.0131 4.44937C54.5331 4.14271 55.1365 3.98937 55.8231 3.98937C56.5165 3.98937 57.1198 4.14271 57.6331 4.44937C58.1531 4.75604 58.5565 5.18271 58.8431 5.72937C59.1298 6.26937 59.2731 6.89604 59.2731 7.60937C59.2731 8.32271 59.1298 8.95271 58.8431 9.49937C58.5565 10.046 58.1531 10.4727 57.6331 10.7794C57.1198 11.0794 56.5165 11.2294 55.8231 11.2294ZM55.8231 10.4894C56.3365 10.4894 56.7865 10.376 57.1731 10.1494C57.5665 9.91604 57.8698 9.58604 58.0831 9.15937C58.3031 8.72604 58.4131 8.20937 58.4131 7.60937C58.4131 7.00937 58.3031 6.49604 58.0831 6.06937C57.8698 5.64271 57.5665 5.31604 57.1731 5.08937C56.7865 4.85604 56.3365 4.73937 55.8231 4.73937C55.3098 4.73937 54.8565 4.85604 54.4631 5.08937C54.0765 5.31604 53.7731 5.64271 53.5531 6.06937C53.3398 6.49604 53.2331 7.00937 53.2331 7.60937C53.2331 8.20937 53.3398 8.72604 53.5531 9.15937C53.7731 9.58604 54.0765 9.91604 54.4631 10.1494C54.8565 10.376 55.3098 10.4894 55.8231 10.4894ZM60.5349 11.1094V4.10937H61.3749L65.1049 9.71937V4.10937H65.9449V11.1094H65.1049L61.3749 5.49937V11.1094H60.5349Z" fill="#BABFC9"/>
<path d="M77.3435 4.10938L79.1247 7.54259L82.6871 7.97174L80.2409 10.6153L80.9059 14.409L77.3435 12.6924L73.7812 14.409L74.4521 10.6153L72 7.97174L75.5624 7.54259L77.3435 4.10938Z" fill="#EF4335"/>
<path d="M90.385 4.10938L92.1662 7.54259L95.7285 7.97174L93.2824 10.6153L93.9474 14.409L90.385 12.6924L86.8227 14.409L87.4936 10.6153L85.0415 7.97174L88.6039 7.54259L90.385 4.10938Z" fill="#EF4335"/>
<path d="M103.427 4.10938L105.208 7.54259L108.77 7.97174L106.324 10.6153L106.989 14.409L103.427 12.6924L99.8642 14.409L100.535 10.6153L98.083 7.97174L101.645 7.54259L103.427 4.10938Z" fill="#EF4335"/>
<path d="M116.469 4.10938L118.25 7.54259L121.812 7.97174L119.366 10.6153L120.031 14.409L116.469 12.6924L112.906 14.409L113.577 10.6153L111.125 7.97174L114.687 7.54259L116.469 4.10938Z" fill="#EF4335"/>
<path d="M129.51 4.10938L131.291 7.54259L134.854 7.97174L132.407 10.6153L133.072 14.409L129.51 12.6924L125.948 14.409L126.619 10.6153L124.167 7.97174L127.729 7.54259L129.51 4.10938Z" fill="#EF4335"/>
</svg>
