<svg width="68" height="60" viewBox="0 0 68 60" fill="none" xmlns="http://www.w3.org/2000/svg">
<path d="M63.4158 24.2792C63.2488 24.1401 61.7461 22.9992 58.5181 22.9992C57.6833 22.9992 56.8206 23.0827 55.9858 23.2218C55.3736 18.9642 51.8395 16.9049 51.7003 16.7936L50.8377 16.2927L50.2811 17.0997C49.5854 18.185 49.0567 19.4094 48.7506 20.6617C48.1662 23.0827 48.528 25.3645 49.7524 27.3125C48.2775 28.1473 45.8844 28.3421 45.3835 28.3699H5.86824C4.83861 28.3699 4.00378 29.2047 4.00378 30.2344C3.94813 33.685 4.53251 37.1356 5.7291 40.3914C7.09265 43.9534 9.12407 46.597 11.7399 48.211C14.6896 50.0198 19.5038 51.0494 24.9302 51.0494C27.379 51.0494 29.8278 50.8268 32.2488 50.3816C35.616 49.7694 38.844 48.6006 41.8215 46.9031C44.2704 45.4839 46.4687 43.6751 48.3332 41.5602C51.4777 38.0261 53.3422 34.0746 54.7057 30.5683C54.9005 30.5683 55.0675 30.5683 55.2623 30.5683C58.6851 30.5683 60.8 29.2047 61.9687 28.036C62.7479 27.3125 63.3323 26.422 63.7497 25.4202L64.0002 24.6967L63.4158 24.2792Z" fill="#0091E2"/>
<path d="M9.54234 27.2283H14.8296C15.08 27.2283 15.3027 27.0336 15.3027 26.7553V22.0246C15.3027 21.7741 15.1079 21.5515 14.8296 21.5515H9.54234C9.2919 21.5515 9.06927 21.7463 9.06927 22.0246V26.7553C9.0971 27.0336 9.2919 27.2283 9.54234 27.2283Z" fill="#0091E2"/>
<path d="M16.833 27.2283H22.1202C22.3707 27.2283 22.5933 27.0336 22.5933 26.7553V22.0246C22.5933 21.7741 22.3985 21.5515 22.1202 21.5515H16.833C16.5825 21.5515 16.3599 21.7463 16.3599 22.0246V26.7553C16.3877 27.0336 16.5825 27.2283 16.833 27.2283Z" fill="#0091E2"/>
<path d="M24.2625 27.2283H29.5498C29.8002 27.2283 30.0228 27.0336 30.0228 26.7553V22.0246C30.0228 21.7741 29.8281 21.5515 29.5498 21.5515H24.2625C24.0121 21.5515 23.7895 21.7463 23.7895 22.0246V26.7553C23.7895 27.0336 23.9843 27.2283 24.2625 27.2283Z" fill="#0091E2"/>
<path d="M31.5809 27.2283H36.8682C37.1186 27.2283 37.3412 27.0336 37.3412 26.7553V22.0246C37.3412 21.7741 37.1464 21.5515 36.8682 21.5515H31.5809C31.3305 21.5515 31.1078 21.7463 31.1078 22.0246V26.7553C31.1078 27.0336 31.3305 27.2283 31.5809 27.2283Z" fill="#0091E2"/>
<path d="M16.833 20.4666H22.1202C22.3707 20.4666 22.5933 20.244 22.5933 19.9936V15.2629C22.5933 15.0124 22.3985 14.7898 22.1202 14.7898H16.833C16.5825 14.7898 16.3599 14.9846 16.3599 15.2629V19.9936C16.3877 20.244 16.5825 20.4666 16.833 20.4666Z" fill="#0091E2"/>
<path d="M24.2625 20.4666H29.5498C29.8002 20.4666 30.0228 20.244 30.0228 19.9936V15.2629C30.0228 15.0124 29.8281 14.7898 29.5498 14.7898H24.2625C24.0121 14.7898 23.7895 14.9846 23.7895 15.2629V19.9936C23.7895 20.244 23.9843 20.4666 24.2625 20.4666Z" fill="#0091E2"/>
<path d="M31.5809 20.4666H36.8682C37.1186 20.4666 37.3412 20.244 37.3412 19.9936V15.2629C37.3412 15.0124 37.1186 14.7898 36.8682 14.7898H31.5809C31.3305 14.7898 31.1078 14.9846 31.1078 15.2629V19.9936C31.1078 20.244 31.3305 20.4666 31.5809 20.4666Z" fill="#0091E2"/>
<path d="M31.5809 13.6768H36.8682C37.1186 13.6768 37.3412 13.482 37.3412 13.2038V8.47307C37.3412 8.22262 37.1186 8 36.8682 8H31.5809C31.3305 8 31.1078 8.1948 31.1078 8.47307V13.2038C31.1078 13.4542 31.3305 13.6768 31.5809 13.6768Z" fill="#0091E2"/>
<path d="M38.9554 27.2283H44.2426C44.4931 27.2283 44.7157 27.0336 44.7157 26.7553V22.0246C44.7157 21.7741 44.5209 21.5515 44.2426 21.5515H38.9554C38.7049 21.5515 38.4823 21.7463 38.4823 22.0246V26.7553C38.5101 27.0336 38.7049 27.2283 38.9554 27.2283Z" fill="#0091E2"/>
</svg>
