<svg width="43" height="43" viewBox="0 0 43 43" fill="none" xmlns="http://www.w3.org/2000/svg">
<path d="M9.14844 11.9502C10.3438 10.5557 13.2656 7.83301 17.3164 7.16895C18.8438 6.96973 20.3047 7.43457 21.5664 8.43066C22.6953 7.50098 24.2227 7.03613 25.75 7.23535C31.0625 8.09863 34.3828 12.5479 34.5156 12.7471C35.0469 13.4111 34.8477 14.4072 34.1836 14.9385C33.8516 15.1377 33.5195 15.2705 33.2539 15.2705C32.7227 15.2705 32.2578 15.0049 31.9258 14.6064C31.9258 14.54 29.2695 11.0205 25.2852 10.4229C24.7539 10.3564 24.2891 10.4229 23.8242 10.6885L27.6758 14.6729C28.5391 15.4697 29.0039 16.5322 29.0039 17.7275C29.0039 18.8564 28.6055 19.9854 27.7422 20.7822C26.8789 21.6455 25.8164 22.0439 24.6211 22.0439C23.4922 22.0439 22.3633 21.5791 21.5664 20.7158L20.7695 19.9854L12.5352 26.6924C12.4023 26.8252 12.4023 27.0244 12.5352 27.2236L14.3281 29.6143C14.4609 29.7471 14.7266 29.7471 14.8594 29.6807L16.3203 28.4189L18.0469 30.2783C18.1797 30.4775 18.3789 30.4775 18.5117 30.5439C18.6445 30.5439 18.7773 30.5439 18.9766 30.4111L21.1016 28.5518L22.1641 29.5479L22.3633 29.7471C22.6953 30.2119 23.293 30.4775 23.8906 30.5439C24.4883 30.6104 25.0859 30.4775 25.4844 30.1455L31.4609 24.7002H36.375V12.0166H42.75V28.9502H38.5C37.7695 28.9502 37.1055 28.5518 36.707 27.8877H32.7227L27.6094 32.5361C26.6133 33.333 25.418 33.7314 24.1562 33.7314C23.957 33.7314 23.7578 33.7314 23.5586 33.7314C22.6289 33.665 21.832 33.333 21.1016 32.8682H21.0352C20.2383 33.5322 19.1758 33.8643 18.1797 33.7314C17.3164 33.665 16.5195 33.2666 15.9219 32.7354C14.5273 33.2666 12.8672 32.8682 11.8711 31.6064L10.0117 29.2822C8.81641 27.7549 9.01562 25.4971 10.543 24.3018L18.5117 17.7939L17.9805 17.1963C17.3828 16.5986 17.3828 15.6025 17.9805 14.9385C18.5781 14.3408 19.5742 14.3408 20.2383 14.9385L23.8242 18.5244C24.2227 18.9893 25.0195 18.9893 25.418 18.5244C25.6836 18.3252 25.8164 18.0596 25.8164 17.7275C25.8164 17.3955 25.6836 17.1299 25.418 16.8643L19.707 11.0869C19.2422 10.5557 18.5117 10.29 17.7812 10.4229C13.8633 11.0205 11.1406 14.6064 11.1406 14.6064C10.9414 14.8721 10.6758 15.0713 10.3438 15.1377H6.625V26.8252C6.625 27.9541 5.69531 28.9502 4.56641 28.9502H0.25V12.0166L9.14844 11.9502ZM39.5625 26.8252C40.1602 26.8252 40.625 26.3604 40.625 25.8291C40.625 25.2314 40.1602 24.7666 39.5625 24.7666C39.0312 24.7666 38.5 25.2314 38.5 25.8291C38.5 26.3604 39.0312 26.8252 39.5625 26.8252ZM3.4375 26.8252C4.03516 26.8252 4.5 26.3604 4.5 25.8291C4.5 25.2314 4.03516 24.7666 3.4375 24.7666C2.90625 24.7666 2.375 25.2314 2.375 25.8291C2.375 26.3604 2.90625 26.8252 3.4375 26.8252Z" fill="#ACAEB0"/>
</svg>
