<svg width="42" height="43" viewBox="0 0 42 43" fill="none" xmlns="http://www.w3.org/2000/svg">
<path d="M31.0938 13.0127C31.0938 14.54 29.8984 15.6689 28.4375 15.6689C26.9102 15.6689 25.7812 14.54 25.7812 13.0127C25.7812 11.5518 26.9102 10.3564 28.4375 10.3564C29.8984 10.3564 31.0938 11.5518 31.0938 13.0127ZM5.52734 22.5752C4.99609 22.5752 4.46484 22.3096 4.19922 21.7783C3.86719 21.3135 3.86719 20.7158 4.19922 20.1846L7.65234 14.3408C8.51562 12.8799 10.1094 11.9502 11.7695 11.9502H17.2148C17.4141 11.6846 17.5469 11.4854 17.7461 11.2197C23.1914 3.18457 31.293 2.91895 36.0742 3.84863C36.8711 3.98145 37.4688 4.5791 37.6016 5.37598C38.5312 10.1572 38.2656 18.2588 30.2305 23.7041C29.9648 23.9033 29.6992 24.0361 29.5 24.2354V29.6807C29.5 31.3408 28.5703 32.9346 27.1094 33.7979L21.2656 37.251C20.7344 37.5166 20.1367 37.583 19.6719 37.251C19.1406 36.9854 18.8086 36.4541 18.8086 35.8564V29.4814C18.2773 29.7471 17.7461 29.9463 17.2812 30.1455C16.5508 30.4775 15.6211 30.2783 15.0234 29.6807L11.6367 26.3604C11.0391 25.6963 10.8398 24.833 11.2383 24.0361C11.3711 23.6377 11.5703 23.1064 11.8359 22.5752H5.52734ZM34.6133 6.83691C30.4297 6.23926 24.5195 6.90332 20.3359 13.0127C18.3438 16.001 15.8203 21.5127 14.4258 24.6338L16.75 26.958C19.8711 25.6299 25.4492 23.1064 28.4375 21.0479C34.5469 16.9307 35.2109 11.0205 34.6133 6.83691Z" fill="#ACAEB0"/>
</svg>
