<svg width="16" height="18" viewBox="0 0 16 18" fill="none" xmlns="http://www.w3.org/2000/svg">
<path d="M9.96333 2.00958C9.98091 1.98747 10.0028 1.96916 10.0277 1.95577C10.0526 1.94238 10.0799 1.93419 10.108 1.93169C10.1362 1.9292 10.1645 1.93245 10.1914 1.94126C10.2182 1.95006 10.243 1.96424 10.2642 1.98291L11.0317 2.65958L8.61583 5.68041H10.2167L11.9717 3.48708L13.3483 4.70125C13.389 4.73722 13.4141 4.78767 13.4181 4.84184C13.4222 4.89601 13.4049 4.94963 13.37 4.99125L12.795 5.68041H14.415C14.6157 5.38664 14.702 5.02965 14.6578 4.67665C14.6136 4.32364 14.4419 3.99897 14.175 3.76375L11.0917 1.04458C10.9429 0.913582 10.769 0.814281 10.5806 0.75274C10.3922 0.691199 10.1932 0.668711 9.99585 0.686649C9.79846 0.704586 9.60679 0.762573 9.43256 0.857068C9.25833 0.951563 9.1052 1.08058 8.9825 1.23625L5.48 5.68041H7.07167L9.96333 2.00958ZM2.375 5.26375C2.20924 5.26375 2.05027 5.32959 1.93306 5.4468C1.81585 5.56401 1.75 5.72299 1.75 5.88875C1.75 6.05451 1.81585 6.21348 1.93306 6.33069C2.05027 6.4479 2.20924 6.51375 2.375 6.51375H13.2083C13.9266 6.51375 14.6155 6.79909 15.1234 7.307C15.6313 7.81491 15.9167 8.50379 15.9167 9.22208V14.6387C15.9167 15.357 15.6313 16.0459 15.1234 16.5538C14.6155 17.0617 13.9266 17.3471 13.2083 17.3471H3.20833C2.49004 17.3471 1.80116 17.0617 1.29325 16.5538C0.785341 16.0459 0.5 15.357 0.5 14.6387V5.88875C0.5 5.39147 0.697544 4.91455 1.04917 4.56292C1.40081 4.21129 1.87772 4.01375 2.375 4.01375H5.975L4.98167 5.26375H2.375ZM10.9167 12.1387C10.9167 12.4837 11.1967 12.7637 11.5417 12.7637H13.2083C13.3741 12.7637 13.5331 12.6979 13.6503 12.5807C13.7675 12.4635 13.8333 12.3045 13.8333 12.1387C13.8333 11.973 13.7675 11.814 13.6503 11.6968C13.5331 11.5796 13.3741 11.5137 13.2083 11.5137H11.5417C11.3759 11.5137 11.2169 11.5796 11.0997 11.6968C10.9825 11.814 10.9167 11.973 10.9167 12.1387Z" fill="#737373"/>
</svg>
