<svg width="108" height="36" viewBox="0 0 108 36" fill="none" xmlns="http://www.w3.org/2000/svg">
<path d="M13.1712 20.8027H3.55165C0.0655285 21.6804 0 24.732 0 24.732V35.0446H3.69909V25.6434C3.6971 25.4223 3.76992 25.2073 3.90505 25.0354C4.04017 24.8636 4.22916 24.7455 4.43956 24.7016H13.1712V20.8027ZM5.86153 26.2308C5.86153 26.2308 5.14072 26.1565 5.14072 26.8283V29.8158H9.89482V30.7069C9.89807 30.7662 9.88924 30.8255 9.86891 30.881C9.84858 30.9366 9.81719 30.9871 9.77676 31.0294C9.73634 31.0717 9.68777 31.1048 9.63418 31.1266C9.58059 31.1483 9.52317 31.1583 9.46561 31.1559H5.14072V35.0379H10.324C10.324 35.0379 13.4661 34.5315 13.4923 31.1559V26.2308H5.86153Z" fill="#4385F4"/>
<path d="M30.2451 33.2156C29.9331 33.4328 29.7093 33.5889 29.5669 33.6839C29.0325 34.0195 28.4749 34.3166 27.8983 34.5729C27.2583 34.8641 26.5663 35.0234 25.8635 35.0412C24.9306 35.0702 24.0011 34.9149 23.1282 34.5842C22.2553 34.2535 21.4562 33.7538 20.7764 33.1138C20.1122 32.4932 19.5873 31.7384 19.2365 30.8995C18.8857 30.0606 18.717 29.1568 18.7416 28.2477C18.7117 26.4404 19.3686 24.689 20.5797 23.3477C21.1271 22.6978 21.8122 22.1779 22.5854 21.8258C23.3585 21.4736 24.2002 21.298 25.0496 21.3117C25.8466 21.305 26.6393 21.4288 27.3964 21.6782C28.365 21.9708 29.249 22.4922 29.9738 23.1984L28.8004 24.5558C28.2679 24.0393 27.6152 23.6638 26.9012 23.4631C26.2908 23.2864 25.6579 23.1996 25.0224 23.2052C24.4245 23.2021 23.834 23.3377 23.2973 23.6015C22.7607 23.8653 22.2924 24.25 21.9295 24.7254C21.0997 25.7561 20.6602 27.0467 20.6883 28.3699C20.6743 29.0083 20.7932 29.6426 21.0372 30.2326C21.2812 30.8225 21.6451 31.3554 22.1058 31.7972C22.58 32.2638 23.1433 32.6299 23.7622 32.8737C24.381 33.1174 25.0427 33.2337 25.7075 33.2156C26.3714 33.1986 27.0174 32.9964 27.5727 32.6319L28.3867 32.0144V29.0757H24.4391L25.0089 27.2637H30.2451V33.2156ZM42.1556 29.6729C42.1639 30.3465 42.0394 31.0151 41.7892 31.6405C41.5389 32.2658 41.1679 32.8357 40.6974 33.3174C40.2426 33.8016 39.6935 34.1875 39.084 34.4513C38.4745 34.7151 37.8175 34.8512 37.1534 34.8512C36.4893 34.8512 35.8322 34.7151 35.2227 34.4513C34.6132 34.1875 34.0641 33.8016 33.6094 33.3174C33.1263 32.8407 32.7455 32.2704 32.4901 31.6415C32.2347 31.0125 32.1101 30.3381 32.124 29.6594C32.1073 28.2946 32.6147 26.9756 33.5416 25.9742C33.9714 25.4761 34.505 25.0782 35.105 24.8085C35.705 24.5388 36.3567 24.4039 37.0143 24.4133C37.7019 24.3889 38.3868 24.5105 39.024 24.7702C39.6611 25.0299 40.2361 25.4218 40.7109 25.9199C41.1923 26.4156 41.5684 27.0037 41.8167 27.6487C42.065 28.2936 42.1803 28.9822 42.1556 29.6729ZM40.304 29.6729C40.3159 29.2298 40.24 28.7887 40.0805 28.3752C39.921 27.9616 39.6811 27.5838 39.3747 27.2637C39.0833 26.9433 38.7267 26.6892 38.3289 26.5183C37.9311 26.3474 37.5014 26.2637 37.0686 26.2728C36.6489 26.2695 36.2337 26.3591 35.8526 26.5351C35.4715 26.7111 35.134 26.9691 34.8642 27.2908C34.2796 27.9298 33.9575 28.766 33.9621 29.6322C33.9472 30.5069 34.276 31.3525 34.8778 31.9872C35.1658 32.3063 35.5189 32.5599 35.9132 32.7308C36.3075 32.9017 36.7339 32.9861 37.1635 32.9781C37.578 32.9796 37.9881 32.8932 38.3669 32.7248C38.7457 32.5564 39.0845 32.3096 39.3612 32.0008C39.6633 31.6993 39.9023 31.3405 40.0642 30.9455C40.2261 30.5504 40.3076 30.127 40.304 29.7001V29.6729ZM53.8694 29.6729C53.8777 30.3465 53.7532 31.0151 53.503 31.6405C53.2527 32.2658 52.8817 32.8357 52.4112 33.3174C51.9564 33.8016 51.4073 34.1875 50.7978 34.4513C50.1883 34.7151 49.5313 34.8512 48.8672 34.8512C48.2031 34.8512 47.546 34.7151 46.9365 34.4513C46.327 34.1875 45.778 33.8016 45.3232 33.3174C44.8402 32.8407 44.4593 32.2704 44.2039 31.6415C43.9485 31.0125 43.8239 30.3381 43.8378 29.6594C43.8211 28.2946 44.3285 26.9756 45.2554 25.9742C45.6852 25.4761 46.2188 25.0782 46.8188 24.8085C47.4188 24.5388 48.0705 24.4039 48.7281 24.4133C49.4157 24.3889 50.1006 24.5105 50.7378 24.7702C51.3749 25.0299 51.9499 25.4218 52.4247 25.9199C52.9122 26.4128 53.2945 26.9996 53.5487 27.6447C53.8029 28.2898 53.9235 28.9798 53.9034 29.6729H53.8694ZM52.0178 29.6729C52.0297 29.2298 51.9538 28.7887 51.7943 28.3752C51.6348 27.9616 51.3949 27.5838 51.0885 27.2637C50.7971 26.9433 50.4405 26.6892 50.0427 26.5183C49.645 26.3474 49.2152 26.2637 48.7824 26.2728C48.3627 26.2695 47.9475 26.3591 47.5664 26.5351C47.1853 26.7111 46.8478 26.9691 46.578 27.2908C45.9935 27.9298 45.6713 28.766 45.6759 29.6322C45.661 30.5069 45.9898 31.3525 46.5916 31.9872C46.8796 32.3063 47.2327 32.5599 47.627 32.7308C48.0213 32.9017 48.4477 32.9861 48.8773 32.9781C49.2918 32.9796 49.7019 32.8932 50.0807 32.7248C50.4595 32.5564 50.7983 32.3096 51.075 32.0008C51.3833 31.7021 51.6286 31.3447 51.7963 30.9495C51.9641 30.5543 52.0509 30.1294 52.0517 29.7001L52.0178 29.6729ZM64.7761 34.5729L63.0736 34.8376V33.1613L62.7074 33.5889C62.3883 33.8953 62.0247 34.1516 61.6289 34.349C61.0507 34.6247 60.4177 34.7663 59.7772 34.763C59.1371 34.7739 58.5022 34.6455 57.9166 34.3865C57.331 34.1275 56.8087 33.7442 56.3858 33.2631C55.4889 32.2856 55.0031 30.9997 55.0293 29.6729C55.0014 28.3174 55.4859 27.0013 56.3858 25.9878C56.7948 25.5023 57.3061 25.1136 57.8831 24.8496C58.4602 24.5855 59.0885 24.4528 59.723 24.4608C60.4007 24.4423 61.0743 24.572 61.6967 24.8408C62.0749 25.0164 62.4176 25.2603 62.7074 25.5602L62.9922 25.9606V21.5357L64.8372 21.271V34.5797L64.7761 34.5729ZM63.1822 29.8223C63.1944 29.3586 63.113 28.8972 62.9429 28.4657C62.7727 28.0342 62.5173 27.6416 62.1919 27.3112C61.9108 26.9897 61.5647 26.7315 61.1766 26.5536C60.7884 26.3758 60.3669 26.2824 59.94 26.2796C59.5115 26.2635 59.0848 26.3429 58.6907 26.5119C58.2966 26.6809 57.9449 26.9353 57.661 27.2569C57.1138 27.889 56.8191 28.701 56.8335 29.5372C56.7991 30.4469 57.1037 31.337 57.6881 32.0347C57.9505 32.3501 58.2808 32.6019 58.6544 32.7712C59.028 32.9405 59.4351 33.0228 59.845 33.012C60.6962 33.0081 61.5128 32.6749 62.1241 32.0822C62.4536 31.8048 62.7189 31.459 62.9016 31.0687C63.0843 30.6785 63.18 30.2532 63.1822 29.8223ZM74.333 23.3817H69.2731V26.9108H73.2003V28.7228H69.2731V34.5729L67.2993 34.8716V21.5493H73.9396L74.333 23.3817ZM78.4026 22.3569L77.1885 23.9314L76.0083 22.3569L77.236 20.8027L78.4026 22.3569ZM78.0432 34.5729L76.2322 34.824V24.9833L78.0432 24.6983V34.5729ZM86.1825 24.5897L85.3346 26.6257C85.2217 26.6179 85.1084 26.6179 84.9955 26.6257C84.8183 26.6258 84.6415 26.6394 84.4664 26.6664C84.2703 26.7046 84.0807 26.7709 83.9035 26.8633C83.4605 27.1064 83.1118 27.4911 82.9132 27.9559C82.6021 28.5893 82.4419 29.2862 82.4452 29.9919V34.5729L80.6342 34.8716V24.9833L82.3095 24.6712V26.7072C82.5266 26.3475 82.7504 25.9946 82.9878 25.6281C83.2772 25.2765 83.6504 25.0034 84.073 24.834C84.4624 24.7121 84.866 24.6414 85.2736 24.6236C85.5811 24.5787 85.8923 24.5628 86.2028 24.5761L86.1825 24.5897ZM99.6666 34.5729L97.8556 34.8376V28.0509C97.8999 27.5629 97.7541 27.0766 97.4486 26.6936C97.2893 26.5425 97.1003 26.4264 96.8935 26.3528C96.6868 26.2791 96.4669 26.2496 96.248 26.266C95.953 26.2587 95.6617 26.3335 95.4066 26.4821C95.1515 26.6307 94.9426 26.8472 94.8033 27.1076C94.5886 27.4571 94.4715 27.8579 94.4642 28.2681V34.5729L92.66 34.9123V28.1256C92.6903 27.6412 92.5512 27.1613 92.2666 26.7682C92.1334 26.6142 91.9674 26.4922 91.7807 26.4111C91.594 26.3301 91.3915 26.2921 91.1881 26.3H91.0118C90.7301 26.2887 90.4513 26.3606 90.2102 26.5066C89.969 26.6526 89.776 26.8663 89.6552 27.1211C89.4222 27.6123 89.3105 28.1523 89.3297 28.6957V34.5729L87.4508 34.9123V24.9833L89.1397 24.6847V25.9471C89.2973 25.689 89.4839 25.4499 89.6959 25.2344C89.9181 25.0145 90.1819 24.8412 90.4719 24.7246C90.762 24.6081 91.0723 24.5507 91.3848 24.5558C91.9411 24.5179 92.4967 24.6404 92.9855 24.9087C93.3806 25.2164 93.6929 25.6175 93.8944 26.076C94.1556 25.6029 94.5418 25.2108 95.0107 24.9427C95.4797 24.6746 96.0134 24.5407 96.5533 24.5558C97.0216 24.5197 97.4917 24.5992 97.9222 24.7873C98.3527 24.9755 98.7304 25.2665 99.0222 25.6349C99.5231 26.4128 99.7609 27.3311 99.7005 28.2545L99.6666 34.5729ZM107.928 31.58C107.941 31.9979 107.865 32.4138 107.704 32.7999C107.544 33.1861 107.304 33.5337 106.999 33.8196C106.685 34.1157 106.315 34.3462 105.911 34.4977C105.507 34.6492 105.076 34.7186 104.645 34.7019C103.968 34.7084 103.302 34.5301 102.719 34.1861C102.196 33.909 101.75 33.5054 101.423 33.012L102.692 31.8583C102.769 31.978 102.855 32.0914 102.949 32.1976C103.163 32.4358 103.424 32.6261 103.717 32.7559C104.009 32.8858 104.325 32.9522 104.645 32.9509C105.042 32.9725 105.431 32.8386 105.73 32.5777C105.866 32.4473 105.971 32.2883 106.038 32.1123C106.105 31.9362 106.132 31.7474 106.117 31.5596C106.117 31.0642 105.812 30.7249 105.188 30.5416C103.96 30.1548 103.295 29.9444 103.2 29.9037C102.722 29.6785 102.302 29.3464 101.973 28.9332C101.663 28.4434 101.514 27.8694 101.545 27.2908C101.536 26.8917 101.613 26.4953 101.771 26.1287C101.93 25.7621 102.165 25.4339 102.461 25.1666C103.047 24.6133 103.826 24.3134 104.632 24.3318C105.249 24.3247 105.858 24.4742 106.402 24.7662C106.87 24.9862 107.273 25.3255 107.568 25.7502L106.49 26.9515C106.327 26.788 106.152 26.6361 105.968 26.4968C105.611 26.2136 105.174 26.0497 104.72 26.0285C104.391 26.0168 104.066 26.1069 103.79 26.2864C103.647 26.3946 103.532 26.5367 103.456 26.7001C103.38 26.8635 103.346 27.0431 103.356 27.2229C103.343 27.3931 103.374 27.5638 103.448 27.7176C103.522 27.8714 103.636 28.0028 103.777 28.0984C104.272 28.3423 104.8 28.5137 105.344 28.6074C106.057 28.7581 106.71 29.1144 107.223 29.6322C107.467 29.893 107.656 30.2006 107.779 30.5366C107.901 30.8725 107.954 31.2298 107.935 31.5868L107.928 31.58Z" fill="#4385F4"/>
<path d="M13.818 0.109375L16.0007 4.92302L21.2533 5.51145L17.3497 9.07487L18.4132 14.2522L13.818 11.6409L9.22268 14.2522L10.2862 9.07487L6.38264 5.51145L11.6352 4.92302L13.818 0.109375Z" fill="#FDC900"/>
<path d="M33.6588 0.109375L35.8415 4.92302L41.0941 5.51145L37.1905 9.07487L38.2541 14.2522L33.6588 11.6409L29.0635 14.2522L30.127 9.07487L26.2235 5.51145L31.476 4.92302L33.6588 0.109375Z" fill="#FDC900"/>
<path d="M53.4996 0.109375L55.6824 4.92302L60.9349 5.51145L57.0314 9.07487L58.0949 14.2522L53.4996 11.6409L48.9043 14.2522L49.9678 9.07487L46.0643 5.51145L51.3168 4.92302L53.4996 0.109375Z" fill="#FDC900"/>
<path d="M93.1822 0.109375L95.365 4.92302L100.618 5.51145L96.714 9.07487L97.7775 14.2522L93.1822 11.6409L88.5869 14.2522L89.6504 9.07487L85.7469 5.51145L90.9995 4.92302L93.1822 0.109375Z" fill="#FDC900"/>
<path d="M73.3409 0.109375L75.5237 4.92302L80.7762 5.51145L76.8727 9.07487L77.9362 14.2522L73.3409 11.6409L68.7456 14.2522L69.8091 9.07487L65.9056 5.51145L71.1581 4.92302L73.3409 0.109375Z" fill="#FDC900"/>
</svg>
