<svg width="18" height="15" viewBox="0 0 18 15" fill="none" xmlns="http://www.w3.org/2000/svg">
<path d="M11 7.42859L9.4375 10.5536C9.25 10.9286 8.71875 10.8973 8.53125 10.5223L6.75 6.58484L5.8125 8.80359H2.875L8.59375 14.6473C8.8125 14.8661 9.15625 14.8661 9.375 14.6473L15.0938 8.80359H11.6875L11 7.42859ZM15.7812 2.11609L15.7188 2.05359C14.0938 0.397339 11.4688 0.397339 9.84375 2.05359L9 2.92859L8.125 2.05359C6.5 0.397339 3.875 0.397339 2.25 2.05359L2.1875 2.11609C0.65625 3.67859 0.59375 6.14734 1.96875 7.80359H5.15625L6.28125 5.11609C6.4375 4.70984 7 4.70984 7.1875 5.11609L9 9.14734L10.5312 6.08484C10.7188 5.70984 11.25 5.70984 11.4375 6.08484L12.3125 7.80359H16.0312C17.375 6.14734 17.3125 3.67859 15.7812 2.11609Z" fill="white"/>
</svg>
