<svg width="64" height="60" viewBox="0 0 64 60" fill="none" xmlns="http://www.w3.org/2000/svg">
<g clip-path="url(#clip0_1716_31703)">
<path d="M20.8765 59.0161C19.436 59.0161 18.0756 58.3796 17.1552 57.2256L3.15045 39.9161C2.23005 38.762 1.87003 37.29 2.23005 35.8572L7.23182 14.2502C7.55187 12.8177 8.51225 11.6636 9.83289 11.0271L30.0801 1.3972C30.7204 1.07918 31.4407 0.919922 32.161 0.919922C32.8813 0.919922 33.6013 1.07893 34.2416 1.39744L54.4891 10.9873C55.8095 11.6239 56.7699 12.7779 57.0899 14.2105L62.0917 35.8174C62.412 37.25 62.0917 38.7223 61.1715 39.8763L47.1663 57.1858C46.2459 58.2999 44.8855 58.9764 43.445 58.9764L20.877 59.0161H20.8765Z" fill="#326DE6"/>
<path d="M32.1211 1.91549C32.6815 1.91549 33.2417 2.03475 33.7618 2.27351L54.0093 11.8634C55.0496 12.3807 55.8498 13.3357 56.0899 14.45L61.0917 36.057C61.3718 37.211 61.0917 38.4048 60.3314 39.3198L46.3265 56.6296C45.6062 57.5446 44.4857 58.0619 43.3254 58.0619H20.8771C19.7166 58.0619 18.5964 57.5446 17.8761 56.6296L3.87111 39.3198C3.15082 38.4048 2.87051 37.211 3.11085 36.057L8.11262 14.45C8.39269 13.296 9.15295 12.3409 10.1933 11.8634L30.441 2.234C30.9611 2.03499 31.5612 1.91573 32.1214 1.91573L32.1211 1.91549ZM32.1211 0.045166C31.2809 0.045166 30.4407 0.244173 29.6402 0.602192L9.39304 10.2321C7.79233 10.9881 6.67205 12.3807 6.27181 14.0918L1.27004 35.6989C0.870042 37.41 1.27004 39.1608 2.39056 40.5536L16.3955 57.8631C17.4761 59.2159 19.1165 59.972 20.8372 59.972H43.2852C45.0058 59.972 46.6465 59.2159 47.7268 57.8631L61.732 40.5534C62.8523 39.2006 63.2525 37.41 62.8523 35.6987L57.8505 14.0918C57.4505 12.3807 56.33 10.9881 54.7295 10.2321L34.5621 0.601951C33.8018 0.244173 32.9616 0.045166 32.1211 0.045166Z" fill="white"/>
<path d="M52.4075 34.3447C52.3675 34.3447 52.3675 34.3447 52.4075 34.3447H52.3675C52.3275 34.3447 52.2876 34.3447 52.2876 34.3049C52.2076 34.3049 52.1277 34.2652 52.0475 34.2652C51.7674 34.2254 51.5273 34.1856 51.2872 34.1856C51.167 34.1856 51.0471 34.1856 50.887 34.1457H50.847C50.0068 34.0662 49.3265 33.9866 48.6861 33.7876C48.4061 33.6681 48.3261 33.5091 48.2459 33.3499C48.2459 33.3101 48.206 33.3101 48.206 33.2704L47.6858 33.1114C47.9315 31.2395 47.8367 29.3389 47.4057 27.5004C46.9688 25.6466 46.2105 23.8827 45.1649 22.2877L45.5652 21.9296V21.8501C45.5652 21.6511 45.6051 21.4521 45.765 21.2531C46.2452 20.8153 46.8456 20.4573 47.5659 20.0196C47.6858 19.94 47.8057 19.9003 47.9259 19.8205C48.166 19.7013 48.3661 19.582 48.6062 19.4228C48.6462 19.383 48.7261 19.3433 48.8063 19.2638C48.8463 19.2238 48.8863 19.2238 48.8863 19.184C49.4464 18.7065 49.5666 17.9107 49.1663 17.3932C48.9662 17.1147 48.6062 16.9557 48.2459 16.9557C47.9261 16.9557 47.6458 17.0749 47.3657 17.2739L47.2858 17.3534C47.2058 17.3932 47.1656 17.4729 47.0857 17.5127C46.8856 17.7117 46.7254 17.8707 46.5655 18.0697C46.4856 18.1492 46.4056 18.2687 46.2854 18.3482C45.7251 18.9453 45.2049 19.4228 44.6847 19.7808C44.5648 19.8603 44.4449 19.9003 44.3247 19.9003C44.2447 19.9003 44.1646 19.9003 44.0846 19.8603H44.0047L43.5242 20.1788C43.0041 19.6218 42.4439 19.1443 41.8838 18.6667C39.4718 16.7919 36.569 15.6454 33.5207 15.3639L33.4807 14.8466L33.4008 14.7671C33.2806 14.6476 33.1207 14.5283 33.0805 14.2498C33.0405 13.613 33.1207 12.8967 33.2006 12.101V12.0612C33.2006 11.9417 33.2406 11.7827 33.2806 11.6632C33.3206 11.4247 33.3605 11.1857 33.4008 10.9072V10.5491C33.4008 9.83286 32.8404 9.23608 32.1603 9.23608C31.84 9.23608 31.52 9.3951 31.2799 9.63386C31.04 9.87262 30.9199 10.1909 30.9199 10.5491V10.8674C30.9199 11.1459 30.9598 11.3847 31.0398 11.6234C31.0798 11.7429 31.0798 11.8622 31.1197 12.0215V12.0612C31.1997 12.857 31.3198 13.5733 31.2399 14.21C31.1999 14.4886 31.0398 14.6078 30.9199 14.7273L30.8399 14.8068L30.7997 15.3241C30.0794 15.4036 29.3591 15.4831 28.6388 15.6424C25.5578 16.3189 22.8368 17.871 20.7162 20.0991L20.3159 19.8205H20.236C20.156 19.8205 20.0758 19.8603 19.9959 19.8603C19.8757 19.8603 19.7558 19.8205 19.6356 19.741C19.1155 19.383 18.5953 18.8655 18.0352 18.2687C17.9552 18.1892 17.8753 18.0697 17.7551 17.9902C17.595 17.7912 17.4348 17.632 17.2347 17.4332C17.1947 17.3932 17.1148 17.3537 17.0348 17.2739C16.9948 17.2342 16.9549 17.2342 16.9549 17.1944C16.7069 16.9907 16.396 16.8783 16.0744 16.8759C15.7142 16.8759 15.3541 17.0352 15.154 17.3137C14.7538 17.831 14.874 18.6267 15.4341 19.1043C15.4741 19.1043 15.4741 19.1443 15.514 19.1443C15.594 19.184 15.6342 19.2635 15.7142 19.3033C15.9543 19.4623 16.1544 19.5818 16.3945 19.7013C16.5146 19.741 16.6346 19.8205 16.7547 19.9003C17.4748 20.3378 18.0751 20.6961 18.5553 21.1338C18.7554 21.3326 18.7554 21.5316 18.7554 21.7306V21.8101L19.1554 22.1684C19.0755 22.2877 18.9955 22.3674 18.9553 22.4867C16.9546 25.6303 16.1944 29.3309 16.7145 32.9919L16.1944 33.1509C16.1944 33.1909 16.1544 33.1909 16.1544 33.2304C16.0744 33.3896 15.9543 33.5489 15.7142 33.6681C15.1141 33.8671 14.3938 33.9469 13.5536 34.0264H13.5133C13.3934 34.0264 13.2333 34.0264 13.1133 34.0662C12.8732 34.0662 12.6332 34.1059 12.3531 34.1457C12.2731 34.1457 12.1932 34.1856 12.113 34.1856C12.073 34.1856 12.033 34.1857 11.9928 34.2254C11.2725 34.3844 10.8323 35.0609 10.9525 35.6975C11.0727 36.2547 11.5928 36.613 12.2329 36.613C12.3531 36.613 12.433 36.613 12.5532 36.573C12.5932 36.573 12.6332 36.573 12.6332 36.5333C12.7131 36.5333 12.7931 36.4935 12.873 36.4935C13.1533 36.414 13.3534 36.3345 13.5935 36.215C13.7135 36.1752 13.8334 36.0955 13.9536 36.056H13.9935C14.7538 35.7772 15.4341 35.5385 16.0744 35.459H16.1544C16.3945 35.459 16.5546 35.5782 16.6745 35.658C16.7145 35.658 16.7145 35.6977 16.7545 35.6977L17.3149 35.6182C18.2753 38.5626 20.1158 41.189 22.5567 43.099C23.1169 43.5366 23.677 43.8948 24.2774 44.2531L24.0373 44.7701C24.0373 44.8101 24.0773 44.8101 24.0773 44.8496C24.1572 45.0089 24.2372 45.2079 24.1572 45.4864C23.9174 46.0834 23.5571 46.6802 23.1169 47.3567V47.3965C23.0369 47.516 22.957 47.5955 22.877 47.7147C22.7169 47.9137 22.5967 48.1128 22.4366 48.3515C22.3966 48.3913 22.3566 48.4708 22.3167 48.5505C22.3167 48.5903 22.2767 48.63 22.2767 48.63C21.9566 49.3066 22.1967 50.0626 22.7968 50.3411C22.9567 50.4206 23.1169 50.4606 23.277 50.4606C23.7572 50.4606 24.2374 50.1421 24.4775 49.7043C24.4775 49.6646 24.5175 49.6248 24.5175 49.6248C24.5575 49.5453 24.5974 49.4658 24.6374 49.4258C24.7576 49.1473 24.7976 48.9483 24.8775 48.7095L24.9977 48.3515C25.2777 47.5557 25.4779 46.919 25.8379 46.3619C25.9978 46.1232 26.1981 46.0834 26.358 46.0037C26.398 46.0037 26.398 46.0037 26.438 45.9639L26.7183 45.4466C28.4789 46.1232 30.3997 46.4812 32.3202 46.4812C33.4807 46.4812 34.6812 46.3619 35.8017 46.0834C36.5068 45.9266 37.2016 45.7272 37.8824 45.4864L38.1222 45.9242C38.1624 45.9242 38.1624 45.9242 38.2024 45.9639C38.4025 46.0037 38.5624 46.0834 38.7226 46.3222C39.0426 46.8792 39.2827 47.5557 39.5628 48.3118V48.3515L39.6829 48.7095C39.7629 48.9483 39.8029 49.1871 39.9228 49.4258C39.963 49.5053 40.003 49.5453 40.043 49.6248C40.043 49.6646 40.0832 49.7043 40.0832 49.7043C40.323 50.1818 40.8032 50.4606 41.2834 50.4606C41.4436 50.4606 41.6037 50.4206 41.7636 50.3411C42.0437 50.1821 42.2838 49.9431 42.364 49.6248C42.4439 49.3066 42.4439 48.9483 42.284 48.63C42.284 48.5903 42.2438 48.5903 42.2438 48.5505C42.2038 48.471 42.1638 48.3915 42.1239 48.3515C42.0037 48.1128 41.8438 47.9137 41.6837 47.7147C41.6037 47.5955 41.5238 47.516 41.4438 47.3967V47.3567C41.0034 46.6802 40.6031 46.0834 40.4032 45.4864C40.3233 45.2079 40.4032 45.0489 40.4432 44.8499C40.4432 44.8101 40.4832 44.8101 40.4832 44.7704L40.2831 44.2928C42.4039 43.0593 44.2045 41.3082 45.5652 39.1596C46.2854 38.0453 46.8456 36.8118 47.2456 35.5782L47.7258 35.6577C47.766 35.6577 47.766 35.618 47.8057 35.618C47.9659 35.5385 48.086 35.4192 48.3261 35.4192H48.4061C49.0464 35.4987 49.7265 35.7372 50.487 36.016H50.527C50.6469 36.0557 50.7668 36.1352 50.887 36.175C51.1271 36.2945 51.3272 36.374 51.6073 36.4538C51.6872 36.4538 51.7672 36.4935 51.8474 36.4935C51.8873 36.4935 51.9273 36.4935 51.9673 36.5333C52.0874 36.573 52.1674 36.573 52.2876 36.573C52.8877 36.573 53.4078 36.1752 53.568 35.658C53.568 35.1804 53.1278 34.5437 52.4075 34.3449V34.3447ZM33.8807 32.3948L32.1201 33.2306L30.3595 32.3948L29.9195 30.5247L31.1197 29.0127H33.0805L34.2809 30.5247L33.8809 32.3948H33.8807ZM44.3247 28.2566C44.6351 29.5725 44.7297 30.9295 44.6048 32.2753L38.4825 30.5247C37.9223 30.3657 37.6023 29.8085 37.7222 29.2514C37.7622 29.0922 37.8424 28.9329 37.9623 28.8137L42.8042 24.4762C43.4842 25.5905 44.0044 26.8638 44.3247 28.2564V28.2566ZM40.8834 22.0889L35.6416 25.7895C35.2013 26.0681 34.601 25.9883 34.241 25.5508C34.121 25.4313 34.0811 25.272 34.0408 25.113L33.6808 18.6267C36.406 18.9388 38.9446 20.1591 40.8834 22.0889ZM29.2792 18.8255C29.7194 18.746 30.1194 18.6665 30.5596 18.587L30.1996 24.9535C30.1596 25.5105 29.7194 25.9881 29.119 25.9881C28.9591 25.9881 28.759 25.9483 28.6388 25.8688L23.317 22.0889C24.9577 20.4573 26.9984 19.343 29.2792 18.8258V18.8255ZM21.3962 24.476L26.1579 28.6939C26.5981 29.0522 26.6381 29.7285 26.2781 30.1662C26.1579 30.3253 25.998 30.4448 25.7979 30.4848L19.5957 32.2753C19.3556 29.5695 19.9557 26.8238 21.3962 24.476ZM20.3157 35.2597L26.6783 34.1852C27.1985 34.1454 27.6787 34.5037 27.7986 35.021C27.8386 35.2595 27.8386 35.4587 27.7586 35.6577L25.3177 41.507C23.0769 40.0744 21.2763 37.8858 20.3159 35.2597H20.3157ZM34.9213 43.1783C34.0009 43.3773 33.0805 43.4966 32.1201 43.4966C30.7197 43.4966 29.3591 43.258 28.0789 42.86L31.2399 37.1698C31.5599 36.8115 32.0801 36.6525 32.5203 36.8913C32.7072 37.0051 32.8702 37.1536 33.0005 37.3288L36.0815 42.86C35.7215 42.9793 35.3213 43.059 34.921 43.1783H34.9213ZM42.724 37.6473C41.7236 39.2389 40.403 40.5122 38.8827 41.507L36.3618 35.4982C36.2417 35.021 36.4418 34.5037 36.922 34.2647C37.0819 34.1852 37.282 34.1454 37.4821 34.1454L43.8845 35.22C43.6444 36.0953 43.2442 36.8913 42.724 37.6473Z" fill="white"/>
</g>
<defs>
<clipPath id="clip0_1716_31703">
<rect width="62.0225" height="60" fill="white" transform="translate(0.98877)"/>
</clipPath>
</defs>
</svg>
