<svg width="24" height="24" viewBox="0 0 24 24" fill="none" xmlns="http://www.w3.org/2000/svg">
<path d="M16.125 10.875C16.7344 10.875 17.25 11.3906 17.25 12C17.25 12.6562 16.7344 13.125 16.125 13.125H7.875C7.21875 13.125 6.75 12.6562 6.75 12C6.75 11.3906 7.21875 10.875 7.875 10.875H16.125ZM24 12C24 18.6562 18.6094 24 12 24C5.34375 24 0 18.6562 0 12C0 5.39062 5.34375 0 12 0C18.6094 0 24 5.39062 24 12ZM12 2.25C6.60938 2.25 2.25 6.65625 2.25 12C2.25 17.3906 6.60938 21.75 12 21.75C17.3438 21.75 21.75 17.3906 21.75 12C21.75 6.65625 17.3438 2.25 12 2.25Z" fill="#494949"/>
</svg>
