<svg width="194" height="53" viewBox="0 0 194 53" fill="none" xmlns="http://www.w3.org/2000/svg">
<path d="M24.0195 22.0121H28.1278V47.5691H24.0195V22.0121Z" fill="#2D2D32"/>
<path d="M42.4171 39.4693C42.4171 43.4288 39.2019 43.7888 38.1302 43.7888C35.6295 43.7888 35.2723 41.4491 35.2723 40.1892V30.2904H31.1641V40.0093C31.1641 42.349 31.8785 44.5087 33.3075 45.7686C34.5578 47.0284 36.1654 47.5684 38.1302 47.5684C39.5592 47.5684 41.3453 47.2084 42.4171 46.1285V47.5684H46.5253V30.2904H42.4171V39.4693Z" fill="#2D2D32"/>
<path d="M54.5588 23.9916H50.4506V30.2908H47.4141V34.2504H50.4506V47.5688H54.5588V34.2504H57.5953V30.2908H54.5588V23.9916Z" fill="#2D2D32"/>
<path d="M70.4586 42.3494C69.5655 43.0693 68.3152 43.6093 67.0648 43.6093C64.2069 43.6093 62.2421 41.4495 62.2421 38.5699C62.2421 35.6902 64.2069 33.7104 67.0648 33.7104C68.3152 33.7104 69.5655 34.0704 70.4586 34.9703L70.9944 35.5102L73.8523 32.8105L73.1379 32.2706C71.5303 30.8308 69.3869 29.9309 67.0648 29.9309C62.0635 29.9309 58.3125 33.7104 58.3125 38.7498C58.3125 43.7892 62.0635 47.5688 67.0648 47.5688C69.3869 47.5688 71.5303 46.6689 73.1379 45.2291L73.8523 44.6891L70.9944 41.8095L70.4586 42.3494Z" fill="#2D2D32"/>
<path d="M88.3236 31.7309C87.0733 30.4711 85.823 29.9312 83.8582 29.9312C82.4292 29.9312 81.0003 30.2911 79.9285 31.371V22.0121H75.8203V47.5691H79.9285V38.0302C79.9285 34.0707 82.6078 33.7107 83.6795 33.7107C86.1802 33.7107 86.0016 36.0504 86.0016 37.3103V47.3891H90.1098V37.4903C90.1098 35.1505 89.574 32.9908 88.3236 31.7309Z" fill="#2D2D32"/>
<path d="M66.8852 41.6288C68.4636 41.6288 69.7432 40.3396 69.7432 38.7492C69.7432 37.1588 68.4636 35.8695 66.8852 35.8695C65.3069 35.8695 64.0273 37.1588 64.0273 38.7492C64.0273 40.3396 65.3069 41.6288 66.8852 41.6288Z" fill="#EF4335"/>
<path d="M18.3015 41.2698C16.8726 42.7096 14.7292 43.6095 12.4071 43.6095C7.94163 43.6095 4.72649 40.0099 4.72649 35.1505C4.72649 30.2911 7.94163 26.6915 12.5857 26.6915C14.7292 26.6915 16.8726 27.5914 18.4802 29.2112L19.016 29.7512L21.6953 27.0515L21.1594 26.5115C18.8374 24.1718 15.8009 22.912 12.5857 22.912C5.7982 22.732 0.796875 28.1313 0.796875 35.1505C0.796875 42.1697 5.7982 47.569 12.4071 47.569C15.6222 47.569 18.8374 46.3092 20.9808 43.9695L21.5167 43.4295L18.8374 40.7299L18.3015 41.2698Z" fill="#2D2D32"/>
<path d="M1.78711 5.55713H4.61133C5.25195 5.55713 5.79297 5.65479 6.23438 5.8501C6.67969 6.04541 7.01758 6.33447 7.24805 6.71729C7.48242 7.09619 7.59961 7.56299 7.59961 8.11768C7.59961 8.5083 7.51953 8.86572 7.35938 9.18994C7.20312 9.51025 6.97656 9.78369 6.67969 10.0103C6.38672 10.2329 6.03516 10.3989 5.625 10.5083L5.30859 10.6313H2.6543L2.64258 9.71143H4.64648C5.05273 9.71143 5.39062 9.64111 5.66016 9.50049C5.92969 9.35596 6.13281 9.1626 6.26953 8.92041C6.40625 8.67822 6.47461 8.41064 6.47461 8.11768C6.47461 7.78955 6.41016 7.50244 6.28125 7.25635C6.15234 7.01025 5.94922 6.8208 5.67188 6.68799C5.39844 6.55127 5.04492 6.48291 4.61133 6.48291H2.91797V14.0884H1.78711V5.55713ZM6.77344 14.0884L4.69922 10.2212L5.87695 10.2153L7.98047 14.0181V14.0884H6.77344ZM14.6616 13.1685V14.0884H10.144V13.1685H14.6616ZM10.3725 5.55713V14.0884H9.24164V5.55713H10.3725ZM14.0639 9.2251V10.145H10.144V9.2251H14.0639ZM14.603 5.55713V6.48291H10.144V5.55713H14.603ZM18.8759 12.7935L21.3895 5.55713H22.6141L19.4559 14.0884H18.5829L18.8759 12.7935ZM16.5262 5.55713L19.0165 12.7935L19.327 14.0884H18.454L15.3016 5.55713H16.5262ZM25.0355 5.55713V14.0884H23.9046V5.55713H25.0355ZM32.572 13.1685V14.0884H28.0545V13.1685H32.572ZM28.283 5.55713V14.0884H27.1521V5.55713H28.283ZM31.9744 9.2251V10.145H28.0545V9.2251H31.9744ZM32.5134 5.55713V6.48291H28.0545V5.55713H32.5134ZM36.2766 11.5103L37.9699 5.55713H38.7902L38.3156 7.87158L36.4934 14.0884H35.6789L36.2766 11.5103ZM34.5246 5.55713L35.8723 11.3931L36.2766 14.0884H35.468L33.3996 5.55713H34.5246ZM40.9816 11.3872L42.3 5.55713H43.4309L41.3684 14.0884H40.5598L40.9816 11.3872ZM38.9133 5.55713L40.5598 11.5103L41.1574 14.0884H40.343L38.5852 7.87158L38.1047 5.55713H38.9133ZM50.1647 13.1685V14.0884H45.6471V13.1685H50.1647ZM45.8756 5.55713V14.0884H44.7448V5.55713H45.8756ZM49.567 9.2251V10.145H45.6471V9.2251H49.567ZM50.1061 5.55713V6.48291H45.6471V5.55713H50.1061ZM53.9337 14.0884H52.1524L52.1641 13.1685H53.9337C54.543 13.1685 55.0509 13.0415 55.4571 12.7876C55.8634 12.5298 56.168 12.1704 56.3712 11.7095C56.5782 11.2446 56.6817 10.7017 56.6817 10.0806V9.55908C56.6817 9.0708 56.6231 8.63721 56.5059 8.2583C56.3887 7.87549 56.2169 7.55322 55.9903 7.2915C55.7637 7.02588 55.4864 6.82471 55.1583 6.68799C54.8341 6.55127 54.461 6.48291 54.0391 6.48291H52.1173V5.55713H54.0391C54.5977 5.55713 55.1075 5.65088 55.5684 5.83838C56.0294 6.02197 56.4259 6.28955 56.7579 6.64111C57.0938 6.98877 57.3516 7.41064 57.5313 7.90674C57.711 8.39893 57.8009 8.95361 57.8009 9.5708V10.0806C57.8009 10.6978 57.711 11.2544 57.5313 11.7505C57.3516 12.2427 57.0919 12.6626 56.752 13.0103C56.4161 13.3579 56.0098 13.6255 55.5333 13.813C55.0606 13.9966 54.5274 14.0884 53.9337 14.0884ZM52.7559 5.55713V14.0884H51.6251V5.55713H52.7559ZM69.165 9.55322V10.0923C69.165 10.7329 69.0849 11.3071 68.9248 11.8149C68.7646 12.3228 68.5341 12.7544 68.2334 13.1099C67.9326 13.4653 67.5713 13.7368 67.1494 13.9243C66.7314 14.1118 66.2627 14.2056 65.7431 14.2056C65.2392 14.2056 64.7763 14.1118 64.3545 13.9243C63.9365 13.7368 63.5732 13.4653 63.2646 13.1099C62.9599 12.7544 62.7236 12.3228 62.5556 11.8149C62.3877 11.3071 62.3037 10.7329 62.3037 10.0923V9.55322C62.3037 8.9126 62.3857 8.34033 62.5498 7.83643C62.7177 7.32861 62.9541 6.89697 63.2588 6.5415C63.5634 6.18213 63.9248 5.90869 64.3427 5.72119C64.7646 5.53369 65.2275 5.43994 65.7314 5.43994C66.2509 5.43994 66.7197 5.53369 67.1377 5.72119C67.5595 5.90869 67.9209 6.18213 68.2216 6.5415C68.5263 6.89697 68.7588 7.32861 68.9189 7.83643C69.083 8.34033 69.165 8.9126 69.165 9.55322ZM68.0459 10.0923V9.5415C68.0459 9.03369 67.9931 8.58447 67.8877 8.19385C67.7861 7.80322 67.6357 7.4751 67.4365 7.20947C67.2373 6.94385 66.9931 6.74268 66.7041 6.60596C66.4189 6.46924 66.0947 6.40088 65.7314 6.40088C65.3798 6.40088 65.0615 6.46924 64.7763 6.60596C64.4951 6.74268 64.2529 6.94385 64.0498 7.20947C63.8505 7.4751 63.6963 7.80322 63.5869 8.19385C63.4775 8.58447 63.4228 9.03369 63.4228 9.5415V10.0923C63.4228 10.604 63.4775 11.0571 63.5869 11.4517C63.6963 11.8423 63.8525 12.1724 64.0556 12.4419C64.2627 12.7075 64.5068 12.9087 64.788 13.0454C65.0732 13.1821 65.3916 13.2505 65.7431 13.2505C66.1103 13.2505 66.4365 13.1821 66.7216 13.0454C67.0068 12.9087 67.247 12.7075 67.4423 12.4419C67.6416 12.1724 67.792 11.8423 67.8935 11.4517C67.9951 11.0571 68.0459 10.604 68.0459 10.0923ZM77.4809 5.55713V14.0884H76.3441L72.0492 7.5083V14.0884H70.9184V5.55713H72.0492L76.3617 12.1548V5.55713H77.4809Z" fill="#2D2D32"/>
<path d="M106.726 39.4312L105.57 39.1343L106.14 33.4702H111.976V34.8062H107.367L107.023 37.8999C107.232 37.7801 107.495 37.6681 107.812 37.564C108.135 37.4598 108.505 37.4077 108.922 37.4077C109.448 37.4077 109.919 37.4989 110.336 37.6812C110.752 37.8582 111.107 38.1134 111.398 38.4468C111.695 38.7801 111.922 39.1812 112.078 39.6499C112.234 40.1187 112.312 40.6421 112.312 41.2202C112.312 41.7671 112.237 42.2697 112.086 42.728C111.94 43.1864 111.719 43.5874 111.422 43.9312C111.125 44.2697 110.75 44.5327 110.297 44.7202C109.849 44.9077 109.32 45.0015 108.711 45.0015C108.252 45.0015 107.817 44.939 107.406 44.814C107 44.6838 106.635 44.4884 106.312 44.228C105.995 43.9624 105.734 43.6343 105.531 43.2437C105.333 42.8478 105.208 42.3843 105.156 41.853H106.531C106.594 42.2801 106.719 42.6395 106.906 42.9312C107.094 43.2228 107.338 43.4442 107.64 43.5952C107.948 43.741 108.304 43.814 108.711 43.814C109.054 43.814 109.359 43.7541 109.625 43.6343C109.89 43.5145 110.114 43.3426 110.297 43.1187C110.479 42.8947 110.617 42.6239 110.711 42.3062C110.81 41.9884 110.859 41.6317 110.859 41.2358C110.859 40.8765 110.81 40.5431 110.711 40.2358C110.612 39.9285 110.463 39.6603 110.265 39.4312C110.073 39.202 109.836 39.0249 109.554 38.8999C109.273 38.7697 108.95 38.7046 108.586 38.7046C108.101 38.7046 107.734 38.7697 107.484 38.8999C107.239 39.0301 106.987 39.2072 106.726 39.4312ZM114.158 44.0796C114.158 43.8348 114.233 43.6291 114.384 43.4624C114.541 43.2905 114.765 43.2046 115.056 43.2046C115.348 43.2046 115.569 43.2905 115.72 43.4624C115.877 43.6291 115.955 43.8348 115.955 44.0796C115.955 44.3192 115.877 44.5223 115.72 44.689C115.569 44.8556 115.348 44.939 115.056 44.939C114.765 44.939 114.541 44.8556 114.384 44.689C114.233 44.5223 114.158 44.3192 114.158 44.0796ZM125.418 38.2515V39.9858C125.418 40.9181 125.334 41.7046 125.168 42.3452C125.001 42.9858 124.761 43.5015 124.449 43.8921C124.136 44.2827 123.759 44.5666 123.316 44.7437C122.879 44.9155 122.384 45.0015 121.832 45.0015C121.394 45.0015 120.99 44.9468 120.621 44.8374C120.251 44.728 119.918 44.5535 119.621 44.314C119.329 44.0692 119.079 43.7515 118.871 43.3608C118.662 42.9702 118.504 42.4963 118.394 41.939C118.285 41.3817 118.23 40.7306 118.23 39.9858V38.2515C118.23 37.3192 118.313 36.5379 118.48 35.9077C118.652 35.2775 118.894 34.7723 119.207 34.3921C119.519 34.0067 119.894 33.7306 120.332 33.564C120.774 33.3973 121.269 33.314 121.816 33.314C122.259 33.314 122.665 33.3687 123.035 33.478C123.41 33.5822 123.743 33.7515 124.035 33.9858C124.326 34.215 124.574 34.5223 124.777 34.9077C124.985 35.2879 125.144 35.7541 125.254 36.3062C125.363 36.8582 125.418 37.5067 125.418 38.2515ZM123.964 40.2202V38.0093C123.964 37.4989 123.933 37.0509 123.871 36.6655C123.813 36.2749 123.727 35.9416 123.613 35.6655C123.498 35.3895 123.352 35.1655 123.175 34.9937C123.004 34.8218 122.803 34.6968 122.574 34.6187C122.35 34.5353 122.097 34.4937 121.816 34.4937C121.472 34.4937 121.168 34.5588 120.902 34.689C120.636 34.814 120.412 35.0145 120.23 35.2905C120.053 35.5666 119.918 35.9285 119.824 36.3765C119.73 36.8244 119.683 37.3687 119.683 38.0093V40.2202C119.683 40.7306 119.712 41.1812 119.769 41.5718C119.832 41.9624 119.923 42.3009 120.043 42.5874C120.162 42.8687 120.308 43.1004 120.48 43.2827C120.652 43.465 120.85 43.6004 121.074 43.689C121.303 43.7723 121.556 43.814 121.832 43.814C122.186 43.814 122.496 43.7463 122.761 43.6108C123.027 43.4754 123.248 43.2645 123.425 42.978C123.608 42.6864 123.743 42.314 123.832 41.8608C123.92 41.4025 123.964 40.8556 123.964 40.2202ZM131.781 33.4702H135.546C136.4 33.4702 137.122 33.6004 137.71 33.8608C138.304 34.1213 138.755 34.5067 139.062 35.0171C139.374 35.5223 139.531 36.1447 139.531 36.8843C139.531 37.4051 139.424 37.8817 139.21 38.314C139.002 38.741 138.7 39.1056 138.304 39.4077C137.914 39.7046 137.445 39.9259 136.898 40.0718L136.476 40.2358H132.937L132.921 39.0093H135.593C136.135 39.0093 136.585 38.9155 136.945 38.728C137.304 38.5353 137.575 38.2775 137.757 37.9546C137.94 37.6317 138.031 37.2749 138.031 36.8843C138.031 36.4468 137.945 36.064 137.773 35.7358C137.601 35.4077 137.33 35.1551 136.96 34.978C136.596 34.7957 136.124 34.7046 135.546 34.7046H133.289V44.8452H131.781V33.4702ZM138.429 44.8452L135.664 39.689L137.234 39.6812L140.039 44.7515V44.8452H138.429ZM145.931 34.478L142.165 44.8452H140.626L144.962 33.4702H145.954L145.931 34.478ZM149.087 44.8452L145.314 34.478L145.29 33.4702H146.283L150.634 44.8452H149.087ZM148.892 40.6343V41.8687H142.501V40.6343H148.892ZM155.425 33.4702V44.8452H153.941V33.4702H155.425ZM159.081 33.4702V34.7046H150.292V33.4702H159.081ZM162.466 33.4702V44.8452H160.958V33.4702H162.466ZM174.038 33.4702V44.8452H172.523L166.796 36.0718V44.8452H165.288V33.4702H166.796L172.546 42.2671V33.4702H174.038ZM185.196 39.1812V43.3452C185.056 43.5535 184.832 43.7879 184.524 44.0483C184.217 44.3035 183.793 44.5275 183.251 44.7202C182.715 44.9077 182.022 45.0015 181.173 45.0015C180.48 45.0015 179.842 44.8817 179.259 44.6421C178.681 44.3973 178.178 44.0431 177.751 43.5796C177.329 43.1108 177.001 42.5431 176.767 41.8765C176.537 41.2046 176.423 40.4442 176.423 39.5952V38.7124C176.423 37.8634 176.522 37.1056 176.72 36.439C176.923 35.7723 177.22 35.2072 177.61 34.7437C178.001 34.2749 178.48 33.9207 179.048 33.6812C179.616 33.4364 180.267 33.314 181.001 33.314C181.871 33.314 182.597 33.465 183.181 33.7671C183.769 34.064 184.228 34.4754 184.556 35.0015C184.889 35.5275 185.103 36.1265 185.196 36.7983H183.689C183.621 36.3869 183.485 36.0119 183.282 35.6733C183.084 35.3348 182.8 35.064 182.431 34.8608C182.061 34.6525 181.584 34.5483 181.001 34.5483C180.475 34.5483 180.019 34.6447 179.634 34.8374C179.248 35.0301 178.931 35.3062 178.681 35.6655C178.431 36.0249 178.243 36.4598 178.118 36.9702C177.998 37.4806 177.939 38.0562 177.939 38.6968V39.5952C177.939 40.2515 178.014 40.8374 178.165 41.353C178.321 41.8687 178.543 42.3088 178.829 42.6733C179.116 43.0327 179.457 43.3062 179.853 43.4937C180.254 43.6812 180.696 43.7749 181.181 43.7749C181.717 43.7749 182.152 43.7306 182.485 43.6421C182.819 43.5483 183.079 43.439 183.267 43.314C183.454 43.1838 183.597 43.0614 183.696 42.9468V40.3999H181.064V39.1812H185.196Z" fill="#2D2D32"/>
<path d="M104.006 1.3374L106.829 7.02745L112.476 7.7387L108.599 12.12L109.653 18.4075L104.006 15.5625L98.3587 18.4075L99.4222 12.12L95.5352 7.7387L101.182 7.02745L104.006 1.3374Z" fill="#FFBA00"/>
<path d="M124.338 1.3374L127.161 7.02745L132.808 7.7387L128.931 12.12L129.985 18.4075L124.338 15.5625L118.691 18.4075L119.754 12.12L115.867 7.7387L121.514 7.02745L124.338 1.3374Z" fill="#FFBA00"/>
<path d="M144.666 1.3374L147.489 7.02745L153.136 7.7387L149.259 12.12L150.313 18.4075L144.666 15.5625L139.019 18.4075L140.082 12.12L136.195 7.7387L141.842 7.02745L144.666 1.3374Z" fill="#FFBA00"/>
<path d="M164.994 1.3374L167.818 7.02745L173.465 7.7387L169.587 12.12L170.641 18.4075L164.994 15.5625L159.347 18.4075L160.41 12.12L156.523 7.7387L162.17 7.02745L164.994 1.3374Z" fill="#FFBA00"/>
<path d="M185.322 1.3374L188.146 7.02745L193.793 7.7387L189.915 12.12L190.969 18.4075L185.322 15.5625L179.675 18.4075L180.739 12.12L176.852 7.7387L182.499 7.02745L185.322 1.3374Z" fill="#FFBA00"/>
</svg>
