<svg width="21" height="21" viewBox="0 0 21 21" fill="none" xmlns="http://www.w3.org/2000/svg">
    <path d="M9.93845 3.55278C10.864 2.63208 12.113 2.10992 13.4185 2.09787C14.7239 2.08582 15.9823 2.58485 16.9248 3.48831C17.8672 4.39176 18.4189 5.62799 18.4619 6.9328C18.5049 8.23761 18.0359 9.50751 17.1551 10.4711L16.9976 10.6353L9.66428 17.9669L9.63428 17.9919C9.06333 18.506 8.32196 18.7899 7.55369 18.7888C6.78542 18.7876 6.0449 18.5015 5.4755 17.9857C4.9061 17.4699 4.54833 16.7612 4.47144 15.9968C4.39454 15.2324 4.60401 14.4666 5.05928 13.8478C5.07913 13.8093 5.10287 13.773 5.13011 13.7395L5.17512 13.6894L5.24762 13.6161L5.36511 13.4928L5.36762 13.4953L11.5643 7.28362C11.67 7.17764 11.8102 7.11313 11.9595 7.10182C12.1088 7.0905 12.2571 7.13313 12.3776 7.22195L12.4476 7.28278C12.5536 7.3885 12.6181 7.52874 12.6294 7.678C12.6407 7.82726 12.5981 7.97563 12.5093 8.09612L12.4493 8.16612L6.12012 14.5103C5.82719 14.8697 5.67919 15.3256 5.7052 15.7886C5.7312 16.2515 5.92932 16.688 6.26066 17.0123C6.59199 17.3367 7.03261 17.5254 7.49599 17.5415C7.95937 17.5577 8.41204 17.4 8.76512 17.0994L16.1259 9.74112C16.808 9.04739 17.1939 8.11585 17.2022 7.14303C17.2106 6.17021 16.8407 5.23219 16.1706 4.52688C15.5006 3.82157 14.5827 3.40413 13.6107 3.36263C12.6388 3.32113 11.6887 3.65882 10.9609 4.30445L10.8209 4.43778L10.8109 4.44945L2.86345 12.3961C2.75193 12.5079 2.60221 12.5734 2.44439 12.5793C2.28657 12.5853 2.13235 12.5312 2.01275 12.4281C1.89314 12.325 1.81702 12.1804 1.79968 12.0234C1.78234 11.8664 1.82507 11.7087 1.91928 11.5819L1.98011 11.5119L9.93762 3.55362H9.93845V3.55278Z" fill="#BABFC9"/>
</svg>
