<svg width="1081" height="217" viewBox="0 0 1081 217" fill="none" xmlns="http://www.w3.org/2000/svg">
<path d="M4.92639 212.68L6.99544 214.457C8.70291 215.923 11.2214 215.936 12.9437 214.487V214.487C14.6525 213.05 17.1553 213.056 18.8641 214.494V214.494C20.5817 215.939 23.0975 215.945 24.8151 214.5V214.5C26.5328 213.055 29.0409 213.055 30.7585 214.5L30.8518 214.578C32.5155 215.978 34.9449 215.978 36.6086 214.578L36.9877 214.26C38.5164 212.973 40.768 213.043 42.2139 214.422L42.2956 214.5C43.7635 215.9 46.0719 215.9 47.5398 214.5V214.5C49.0077 213.1 51.316 213.1 52.7839 214.5V214.5C54.2518 215.9 56.5601 215.9 58.028 214.5V214.5C59.4959 213.1 61.8043 213.1 63.2722 214.5V214.5C64.7401 215.9 67.0484 215.9 68.5163 214.5V214.5C69.9842 213.1 72.2925 213.1 73.7604 214.5V214.5C75.2283 215.9 77.5367 215.9 79.0046 214.5V214.5C80.4725 213.1 82.7808 213.1 84.2487 214.5V214.5C85.7166 215.9 88.025 215.9 89.4929 214.5V214.5C90.9608 213.1 93.2691 213.1 94.737 214.5V214.5C96.2049 215.9 98.5132 215.9 99.9811 214.5V214.5C101.449 213.1 103.757 213.1 105.225 214.5V214.5C106.693 215.9 109.002 215.9 110.469 214.5V214.5C111.937 213.1 114.246 213.1 115.714 214.5V214.5C117.181 215.9 119.49 215.9 120.958 214.5V214.5C122.426 213.1 124.734 213.1 126.202 214.5V214.5C127.67 215.9 129.978 215.9 131.446 214.5V214.5C132.914 213.1 135.222 213.1 136.69 214.5V214.5C138.158 215.9 140.466 215.9 141.934 214.5V214.5C143.402 213.1 145.711 213.1 147.178 214.5V214.5C148.646 215.9 150.955 215.9 152.423 214.5V214.5C153.89 213.1 156.199 213.1 157.667 214.5V214.5C159.135 215.9 161.443 215.9 162.911 214.5V214.5C164.379 213.1 166.687 213.1 168.155 214.5V214.5C169.623 215.9 171.931 215.9 173.399 214.5V214.5C174.867 213.1 177.175 213.1 178.643 214.5V214.5C180.111 215.9 182.419 215.9 183.887 214.5V214.5C185.355 213.1 187.664 213.1 189.132 214.5V214.5C190.599 215.9 192.908 215.9 194.376 214.5V214.5C195.844 213.1 198.152 213.1 199.62 214.5V214.5C201.088 215.9 203.396 215.9 204.864 214.5V214.5C206.332 213.1 208.64 213.1 210.108 214.5V214.5C211.576 215.9 213.884 215.9 215.352 214.5V214.5C216.82 213.1 219.128 213.1 220.596 214.5V214.5C222.064 215.9 224.373 215.9 225.841 214.5V214.5C227.308 213.1 229.617 213.1 231.085 214.5V214.5C232.553 215.9 234.861 215.9 236.329 214.5V214.5C237.797 213.1 240.105 213.1 241.573 214.5V214.5C243.041 215.9 245.349 215.9 246.817 214.5V214.5C248.285 213.1 250.593 213.1 252.061 214.5V214.5C253.529 215.9 255.837 215.9 257.305 214.5V214.5C258.773 213.1 261.082 213.1 262.55 214.5V214.5C264.017 215.9 266.326 215.9 267.794 214.5V214.5C269.262 213.1 271.57 213.1 273.038 214.5V214.5C274.506 215.9 276.814 215.9 278.282 214.5V214.5C279.75 213.1 282.058 213.1 283.526 214.5V214.5C284.994 215.9 287.302 215.9 288.77 214.5V214.5C290.238 213.1 292.546 213.1 294.014 214.5V214.5C295.482 215.9 297.791 215.9 299.258 214.5V214.5C300.726 213.1 303.035 213.1 304.503 214.5V214.5C305.971 215.9 308.279 215.9 309.747 214.5V214.5C311.215 213.1 313.523 213.1 314.991 214.5V214.5C316.459 215.9 318.767 215.9 320.235 214.5V214.5C321.703 213.1 324.011 213.1 325.479 214.5V214.5C326.947 215.9 329.255 215.9 330.723 214.5V214.5C332.191 213.1 334.5 213.1 335.967 214.5V214.5C337.435 215.9 339.744 215.9 341.212 214.5V214.5C342.68 213.1 344.988 213.1 346.456 214.5V214.5C347.924 215.9 350.232 215.9 351.7 214.5V214.5C353.168 213.1 355.476 213.1 356.944 214.5V214.5C358.412 215.9 360.72 215.9 362.188 214.5V214.5C363.656 213.1 365.964 213.1 367.432 214.5V214.5C368.9 215.9 371.209 215.9 372.676 214.5V214.5C374.144 213.1 376.453 213.1 377.921 214.5V214.5C379.389 215.9 381.697 215.9 383.165 214.5V214.5C384.633 213.1 386.941 213.1 388.409 214.5V214.5C389.877 215.9 392.185 215.9 393.653 214.5V214.5C395.121 213.1 397.429 213.1 398.897 214.5V214.5C400.365 215.9 402.673 215.9 404.141 214.5V214.5C405.609 213.1 407.918 213.1 409.385 214.5V214.5C410.853 215.9 413.162 215.9 414.63 214.5V214.5C416.097 213.1 418.406 213.1 419.874 214.5V214.5C421.342 215.9 423.65 215.9 425.118 214.5V214.5C426.586 213.1 428.894 213.1 430.362 214.5V214.5C431.83 215.9 434.138 215.9 435.606 214.5V214.5C437.074 213.1 439.382 213.1 440.85 214.5V214.5C442.318 215.9 444.627 215.9 446.094 214.5V214.5C447.562 213.1 449.871 213.1 451.339 214.5V214.5C452.806 215.9 455.115 215.9 456.583 214.5V214.5C458.051 213.1 460.359 213.1 461.827 214.5V214.5C463.295 215.9 465.603 215.9 467.071 214.5V214.5C468.539 213.1 470.847 213.1 472.315 214.5V214.5C473.783 215.9 476.091 215.9 477.559 214.5V214.5C479.027 213.1 481.335 213.1 482.803 214.5V214.5C484.271 215.9 486.58 215.9 488.048 214.5V214.5C489.515 213.1 491.824 213.1 493.292 214.5V214.5C494.76 215.9 497.068 215.9 498.536 214.5V214.5C500.004 213.1 502.312 213.1 503.78 214.5V214.5C505.248 215.9 507.556 215.9 509.024 214.5V214.5C510.492 213.1 512.8 213.1 514.268 214.5V214.5C515.736 215.9 518.045 215.9 519.512 214.5V214.5C520.98 213.1 523.289 213.1 524.757 214.5V214.5C526.224 215.9 528.533 215.9 530.001 214.5V214.5C531.469 213.1 533.777 213.1 535.245 214.5V214.5C536.713 215.9 539.021 215.9 540.489 214.5V214.5C541.957 213.1 544.265 213.1 545.733 214.5V214.5C547.201 215.9 549.509 215.9 550.977 214.5V214.5C552.445 213.1 554.753 213.1 556.221 214.5V214.5C557.689 215.9 559.998 215.9 561.466 214.5V214.5C562.933 213.1 565.242 213.1 566.71 214.5V214.5C568.178 215.9 570.486 215.9 571.954 214.5V214.5C573.422 213.1 575.73 213.1 577.198 214.5V214.5C578.666 215.9 580.974 215.9 582.442 214.5V214.5C583.91 213.1 586.218 213.1 587.686 214.5V214.5C589.154 215.9 591.462 215.9 592.93 214.5V214.5C594.398 213.1 596.707 213.1 598.174 214.5V214.5C599.642 215.9 601.951 215.9 603.419 214.5V214.5C604.887 213.1 607.195 213.1 608.663 214.5V214.5C610.131 215.9 612.439 215.9 613.907 214.5V214.5C615.375 213.1 617.683 213.1 619.151 214.5V214.5C620.619 215.9 622.927 215.9 624.395 214.5V214.5C625.863 213.1 628.171 213.1 629.639 214.5V214.5C631.107 215.9 633.416 215.9 634.883 214.5V214.5C636.351 213.1 638.66 213.1 640.128 214.5V214.5C641.596 215.9 643.904 215.9 645.372 214.5V214.5C646.84 213.1 649.148 213.1 650.616 214.5V214.5C652.084 215.9 654.392 215.9 655.86 214.5V214.5C657.328 213.1 659.636 213.1 661.104 214.5V214.5C662.572 215.9 664.88 215.9 666.348 214.5V214.5C667.816 213.1 670.125 213.1 671.592 214.5V214.5C673.06 215.9 675.369 215.9 676.837 214.5V214.5C678.305 213.1 680.613 213.1 682.081 214.5V214.5C683.549 215.9 685.857 215.9 687.325 214.5V214.5C688.793 213.1 691.101 213.1 692.569 214.5V214.5C694.037 215.9 696.345 215.9 697.813 214.5V214.5C699.281 213.1 701.589 213.1 703.057 214.5V214.5C704.525 215.9 706.834 215.9 708.301 214.5V214.5C709.769 213.1 712.078 213.1 713.546 214.5V214.5C715.014 215.9 717.322 215.9 718.79 214.5V214.5C720.258 213.1 722.566 213.1 724.034 214.5V214.5C725.502 215.9 727.81 215.9 729.278 214.5V214.5C730.746 213.1 733.054 213.1 734.522 214.5V214.5C735.99 215.9 738.298 215.9 739.766 214.5V214.5C741.234 213.1 743.543 213.1 745.01 214.5V214.5C746.478 215.9 748.787 215.9 750.255 214.5V214.5C751.722 213.1 754.031 213.1 755.499 214.5V214.5C756.967 215.9 759.275 215.9 760.743 214.5V214.5C762.211 213.1 764.519 213.1 765.987 214.5V214.5C767.455 215.9 769.763 215.9 771.231 214.5V214.5C772.699 213.1 775.007 213.1 776.475 214.5V214.5C777.943 215.9 780.252 215.9 781.719 214.5V214.5C783.187 213.1 785.496 213.1 786.964 214.5V214.5C788.431 215.9 790.74 215.9 792.208 214.5V214.5C793.676 213.1 795.984 213.1 797.452 214.5V214.5C798.92 215.9 801.228 215.9 802.696 214.5V214.5C804.164 213.1 806.472 213.1 807.94 214.5V214.5C809.408 215.9 811.716 215.9 813.184 214.5V214.5C814.652 213.1 816.96 213.1 818.428 214.5V214.5C819.896 215.9 822.205 215.9 823.673 214.5V214.5C825.14 213.1 827.449 213.1 828.917 214.5V214.5C830.385 215.9 832.693 215.9 834.161 214.5V214.5C835.629 213.1 837.937 213.1 839.405 214.5V214.5C840.873 215.9 843.181 215.9 844.649 214.5V214.5C846.117 213.1 848.425 213.1 849.893 214.5V214.5C851.361 215.9 853.669 215.9 855.137 214.5V214.5C856.605 213.1 858.914 213.1 860.382 214.5V214.5C861.849 215.9 864.158 215.9 865.626 214.5V214.5C867.094 213.1 869.402 213.1 870.87 214.5V214.5C872.338 215.9 874.646 215.9 876.114 214.5V214.5C877.582 213.1 879.89 213.1 881.358 214.5V214.5C882.826 215.9 885.134 215.9 886.602 214.5V214.5C888.07 213.1 890.378 213.1 891.846 214.5V214.5C893.314 215.9 895.623 215.9 897.091 214.5V214.5C898.558 213.1 900.867 213.1 902.335 214.5V214.5C903.803 215.9 906.111 215.9 907.579 214.5V214.5C909.047 213.1 911.355 213.1 912.823 214.5V214.5C914.291 215.9 916.599 215.9 918.067 214.5V214.5C919.535 213.1 921.843 213.1 923.311 214.5V214.5C924.779 215.9 927.087 215.9 928.555 214.5V214.5C930.023 213.1 932.332 213.1 933.799 214.5V214.5C935.267 215.9 937.576 215.9 939.044 214.5V214.5C940.512 213.1 942.82 213.1 944.288 214.5V214.5C945.756 215.9 948.064 215.9 949.532 214.5V214.5C951 213.1 953.308 213.1 954.776 214.5V214.5C956.244 215.9 958.552 215.9 960.02 214.5V214.5C961.488 213.1 963.796 213.1 965.264 214.5V214.5C966.732 215.9 969.041 215.9 970.508 214.5V214.5C971.976 213.1 974.285 213.1 975.753 214.5V214.5C977.221 215.9 979.529 215.9 980.997 214.5V214.5C982.465 213.1 984.773 213.1 986.241 214.5V214.5C987.709 215.9 990.017 215.9 991.485 214.5V214.5C992.953 213.1 995.261 213.1 996.729 214.5V214.5C998.197 215.9 1000.51 215.9 1001.97 214.5V214.5C1003.44 213.1 1005.75 213.1 1007.22 214.5V214.5C1008.69 215.9 1010.99 215.9 1012.46 214.5V214.5C1013.93 213.1 1016.24 213.1 1017.71 214.5V214.5C1019.17 215.9 1021.48 215.9 1022.95 214.5V214.5C1024.42 213.1 1026.73 213.1 1028.19 214.5V214.5C1029.66 215.9 1031.97 215.9 1033.44 214.5V214.5C1034.91 213.1 1037.21 213.1 1038.68 214.5V214.5C1040.15 215.9 1042.46 215.9 1043.93 214.5V214.5C1045.39 213.1 1047.7 213.1 1049.17 214.5V214.5C1050.64 215.9 1052.95 215.9 1054.41 214.5V214.5C1055.88 213.1 1058.19 213.1 1059.66 214.5V214.5C1061.13 215.9 1063.44 215.9 1064.9 214.5V214.5C1066.37 213.1 1068.68 213.1 1070.15 214.5V214.5C1071.62 215.9 1073.92 215.9 1075.39 214.5L1078.01 212" stroke="#BDFF00" stroke-width="2"/>
<path d="M5.01331 212.766L2.51331 210.144C1.11374 208.676 1.11374 206.367 2.51331 204.899V204.899C3.91287 203.432 3.91287 201.123 2.51331 199.655V199.655C1.11374 198.187 1.11374 195.879 2.51331 194.411V194.411C3.91287 192.943 3.91288 190.635 2.51331 189.167V189.167C1.11374 187.699 1.11374 185.391 2.51331 183.923V183.923C3.91288 182.455 3.91288 180.147 2.51331 178.679V178.679C1.11374 177.211 1.11374 174.902 2.51331 173.435V173.435C3.91288 171.967 3.91288 169.658 2.51331 168.19V168.19C1.11374 166.723 1.11374 164.414 2.51331 162.946V162.946C3.91288 161.478 3.91288 159.17 2.51331 157.702V157.702C1.11374 156.234 1.11374 153.926 2.51331 152.458V152.458C3.91288 150.99 3.91288 148.682 2.51331 147.214V147.214C1.11374 145.746 1.11374 143.438 2.51331 141.97V141.97C3.91288 140.502 3.91288 138.193 2.51331 136.726V136.726C1.11374 135.258 1.11374 132.949 2.51331 131.481V131.481C3.91288 130.014 3.91288 127.705 2.51331 126.237V126.237C1.11374 124.769 1.11374 122.461 2.51331 120.993V120.993C3.91288 119.525 3.91288 117.217 2.51331 115.749V115.749C1.11374 114.281 1.11374 111.973 2.51331 110.505V110.505C3.91288 109.037 3.91288 106.729 2.51331 105.261V105.261C1.11374 103.793 1.11374 101.485 2.51331 100.017V100.017C3.91288 98.5487 3.91288 96.2404 2.51331 94.7725V94.7725C1.11374 93.3046 1.11374 90.9962 2.51331 89.5283V89.5283C3.91288 88.0604 3.91288 85.7521 2.51331 84.2842V84.2842C1.11374 82.8163 1.11374 80.5079 2.51331 79.04V79.04C3.91288 77.5721 3.91288 75.2638 2.51331 73.7959V73.7959C1.11374 72.328 1.11374 70.0197 2.51331 68.5518V68.5518C3.91288 67.0839 3.91288 64.7755 2.51331 63.3076V63.3076C1.11374 61.8397 1.11374 59.5314 2.51331 58.0635V58.0635C3.91288 56.5956 3.91288 54.2872 2.51331 52.8193V52.8193C1.11374 51.3514 1.11374 49.0431 2.51331 47.5752V47.5752C3.91288 46.1073 3.91288 43.799 2.51331 42.3311V42.3311C1.11374 40.8631 1.11374 38.5548 2.51331 37.0869V37.0869C3.91288 35.619 3.91288 33.3107 2.51331 31.8428V31.8428C1.11375 30.3749 1.11375 28.0665 2.51331 26.5986V26.5986C3.91288 25.1307 3.91288 22.8224 2.51331 21.3545V21.3545C1.11375 19.8866 1.11375 17.5783 2.51331 16.1104V16.1104C3.91288 14.6424 3.91288 12.3341 2.51331 10.8662V10.8662C1.11375 9.3983 1.11375 7.08998 2.51331 5.62207L5.01331 3" stroke="#BDFF00" stroke-width="2"/>
<path d="M1077.76 212.356L1078.7 210.341C1079.48 208.689 1079.16 206.73 1077.9 205.41L1077.49 204.978C1076.09 203.51 1076.09 201.202 1077.49 199.734V199.734C1078.89 198.266 1078.89 195.958 1077.49 194.49V194.49C1076.09 193.022 1076.09 190.714 1077.49 189.246V189.246C1078.89 187.778 1078.89 185.47 1077.49 184.002V184.002C1076.09 182.534 1076.09 180.226 1077.49 178.758V178.758C1078.89 177.29 1078.89 174.981 1077.49 173.513V173.513C1076.09 172.046 1076.09 169.737 1077.49 168.269V168.269C1078.89 166.801 1078.89 164.493 1077.49 163.025V163.025C1076.09 161.557 1076.09 159.249 1077.49 157.781V157.781C1078.89 156.313 1078.89 154.005 1077.49 152.537V152.537C1076.09 151.069 1076.09 148.761 1077.49 147.293V147.293C1078.89 145.825 1078.89 143.517 1077.49 142.049V142.049C1076.09 140.581 1076.09 138.272 1077.49 136.804V136.804C1078.89 135.337 1078.89 133.028 1077.49 131.56V131.56C1076.09 130.092 1076.09 127.784 1077.49 126.316V126.316C1078.89 124.848 1078.89 122.54 1077.49 121.072V121.072C1076.09 119.604 1076.09 117.296 1077.49 115.828V115.828C1078.89 114.36 1078.89 112.052 1077.49 110.584V110.584C1076.09 109.116 1076.09 106.808 1077.49 105.34V105.34C1078.89 103.872 1078.89 101.563 1077.49 100.096V100.096C1076.09 98.6276 1076.09 96.3193 1077.49 94.8514V94.8514C1078.89 93.3835 1078.89 91.0751 1077.49 89.6072V89.6072C1076.09 88.1393 1076.09 85.831 1077.49 84.3631V84.3631C1078.89 82.8952 1078.89 80.5869 1077.49 79.119V79.119C1076.09 77.6511 1076.09 75.3427 1077.49 73.8748V73.8748C1078.89 72.4069 1078.89 70.0986 1077.49 68.6307V68.6307C1076.09 67.1628 1076.09 64.8544 1077.49 63.3865V63.3865C1078.89 61.9186 1078.89 59.6103 1077.49 58.1424V58.1424C1076.09 56.6745 1076.09 54.3662 1077.49 52.8983V52.8983C1078.89 51.4303 1078.89 49.122 1077.49 47.6541V47.6541C1076.09 46.1862 1076.09 43.8779 1077.49 42.41V42.41C1078.89 40.9421 1078.89 38.6337 1077.49 37.1658V37.1658C1076.09 35.6979 1076.09 33.3896 1077.49 31.9217V31.9217C1078.89 30.4538 1078.89 28.1455 1077.49 26.6776V26.6776C1076.09 25.2096 1076.09 22.9013 1077.49 21.4334V21.4334C1078.89 19.9655 1078.89 17.6572 1077.49 16.1893V16.1893C1076.09 14.7214 1076.11 12.3939 1077.5 10.926V10.926C1078.9 9.46795 1078.95 7.16646 1077.6 5.66884L1076.89 4.87691" stroke="#BDFF00" stroke-width="2"/>
<path d="M1077.01 5L1074.04 2.5C1072.32 1.055 1069.82 1.055 1068.1 2.5V2.5C1066.38 3.945 1063.87 3.945 1062.15 2.5V2.5C1060.44 1.055 1057.93 1.055 1056.21 2.5V2.5C1054.49 3.945 1051.99 3.945 1050.27 2.5L1050.17 2.42153C1048.51 1.02189 1046.08 1.02189 1044.42 2.42153L1044.04 2.74042C1042.51 4.02653 1040.26 3.95652 1038.81 2.57793L1038.73 2.5C1037.26 1.10043 1034.95 1.10043 1033.49 2.5V2.5C1032.02 3.89957 1029.71 3.89957 1028.24 2.5V2.5C1026.77 1.10043 1024.47 1.10043 1023 2.5V2.5C1021.53 3.89957 1019.22 3.89957 1017.75 2.5V2.5C1016.29 1.10043 1013.98 1.10043 1012.51 2.5V2.5C1011.04 3.89957 1008.73 3.89957 1007.27 2.5V2.5C1005.8 1.10043 1003.49 1.10043 1002.02 2.5V2.5C1000.55 3.89957 998.246 3.89957 996.778 2.5V2.5C995.31 1.10043 993.002 1.10043 991.534 2.5V2.5C990.066 3.89957 987.758 3.89957 986.29 2.5V2.5C984.822 1.10043 982.513 1.10043 981.046 2.5V2.5C979.578 3.89957 977.269 3.89957 975.801 2.5V2.5C974.333 1.10043 972.025 1.10043 970.557 2.5V2.5C969.089 3.89957 966.781 3.89957 965.313 2.5V2.5C963.845 1.10043 961.537 1.10043 960.069 2.5V2.5C958.601 3.89957 956.293 3.89957 954.825 2.5V2.5C953.357 1.10043 951.049 1.10043 949.581 2.5V2.5C948.113 3.89957 945.804 3.89957 944.337 2.5V2.5C942.869 1.10043 940.56 1.10043 939.092 2.5V2.5C937.625 3.89957 935.316 3.89957 933.848 2.5V2.5C932.38 1.10043 930.072 1.10043 928.604 2.5V2.5C927.136 3.89957 924.828 3.89957 923.36 2.5V2.5C921.892 1.10043 919.584 1.10043 918.116 2.5V2.5C916.648 3.89957 914.34 3.89957 912.872 2.5V2.5C911.404 1.10043 909.095 1.10043 907.628 2.5V2.5C906.16 3.89957 903.851 3.89957 902.383 2.5V2.5C900.916 1.10043 898.607 1.10043 897.139 2.5V2.5C895.671 3.89957 893.363 3.89957 891.895 2.5V2.5C890.427 1.10043 888.119 1.10043 886.651 2.5V2.5C885.183 3.89957 882.875 3.89957 881.407 2.5V2.5C879.939 1.10043 877.631 1.10043 876.163 2.5V2.5C874.695 3.89957 872.386 3.89957 870.919 2.5V2.5C869.451 1.10043 867.142 1.10043 865.674 2.5V2.5C864.207 3.89957 861.898 3.89957 860.43 2.5V2.5C858.962 1.10043 856.654 1.10043 855.186 2.5V2.5C853.718 3.89957 851.41 3.89957 849.942 2.5V2.5C848.474 1.10043 846.166 1.10043 844.698 2.5V2.5C843.23 3.89957 840.922 3.89957 839.454 2.5V2.5C837.986 1.10043 835.678 1.10043 834.21 2.5V2.5C832.742 3.89957 830.433 3.89957 828.965 2.5V2.5C827.498 1.10043 825.189 1.10043 823.721 2.5V2.5C822.253 3.89957 819.945 3.89957 818.477 2.5V2.5C817.009 1.10043 814.701 1.10043 813.233 2.5V2.5C811.765 3.89957 809.457 3.89957 807.989 2.5V2.5C806.521 1.10043 804.213 1.10043 802.745 2.5V2.5C801.277 3.89957 798.969 3.89957 797.501 2.5V2.5C796.033 1.10043 793.724 1.10043 792.256 2.5V2.5C790.789 3.89957 788.48 3.89957 787.012 2.5V2.5C785.544 1.10043 783.236 1.10043 781.768 2.5V2.5C780.3 3.89957 777.992 3.89957 776.524 2.5V2.5C775.056 1.10043 772.748 1.10043 771.28 2.5V2.5C769.812 3.89957 767.504 3.89957 766.036 2.5V2.5C764.568 1.10043 762.26 1.10043 760.792 2.5V2.5C759.324 3.89957 757.015 3.89957 755.547 2.5V2.5C754.08 1.10043 751.771 1.10043 750.303 2.5V2.5C748.835 3.89957 746.527 3.89957 745.059 2.5V2.5C743.591 1.10043 741.283 1.10043 739.815 2.5V2.5C738.347 3.89957 736.039 3.89957 734.571 2.5V2.5C733.103 1.10043 730.795 1.10043 729.327 2.5V2.5C727.859 3.89957 725.551 3.89957 724.083 2.5V2.5C722.615 1.10043 720.306 1.10043 718.839 2.5V2.5C717.371 3.89957 715.062 3.89957 713.594 2.5V2.5C712.126 1.10043 709.818 1.10043 708.35 2.5V2.5C706.882 3.89957 704.574 3.89957 703.106 2.5V2.5C701.638 1.10043 699.33 1.10043 697.862 2.5V2.5C696.394 3.89957 694.086 3.89957 692.618 2.5V2.5C691.15 1.10043 688.842 1.10043 687.374 2.5V2.5C685.906 3.89957 683.597 3.89957 682.13 2.5V2.5C680.662 1.10043 678.353 1.10043 676.885 2.5V2.5C675.417 3.89957 673.109 3.89957 671.641 2.5V2.5C670.173 1.10043 667.865 1.10043 666.397 2.5V2.5C664.929 3.89957 662.621 3.89957 661.153 2.5V2.5C659.685 1.10043 657.377 1.10043 655.909 2.5V2.5C654.441 3.89957 652.133 3.89957 650.665 2.5V2.5C649.197 1.10043 646.888 1.10043 645.421 2.5V2.5C643.953 3.89957 641.644 3.89957 640.176 2.5V2.5C638.708 1.10043 636.4 1.10043 634.932 2.5V2.5C633.464 3.89957 631.156 3.89957 629.688 2.5V2.5C628.22 1.10043 625.912 1.10043 624.444 2.5V2.5C622.976 3.89957 620.668 3.89957 619.2 2.5V2.5C617.732 1.10043 615.424 1.10043 613.956 2.5V2.5C612.488 3.89957 610.179 3.89957 608.712 2.5V2.5C607.244 1.10043 604.935 1.10043 603.467 2.5V2.5C602 3.89957 599.691 3.89957 598.223 2.5V2.5C596.755 1.10043 594.447 1.10043 592.979 2.5V2.5C591.511 3.89957 589.203 3.89957 587.735 2.5V2.5C586.267 1.10043 583.959 1.10043 582.491 2.5V2.5C581.023 3.89957 578.715 3.89957 577.247 2.5V2.5C575.779 1.10043 573.47 1.10043 572.003 2.5V2.5C570.535 3.89957 568.226 3.89957 566.758 2.5V2.5C565.291 1.10043 562.982 1.10043 561.514 2.5V2.5C560.046 3.89957 557.738 3.89957 556.27 2.5V2.5C554.802 1.10043 552.494 1.10043 551.026 2.5V2.5C549.558 3.89957 547.25 3.89957 545.782 2.5V2.5C544.314 1.10043 542.006 1.10043 540.538 2.5V2.5C539.07 3.89957 536.761 3.89957 535.294 2.5V2.5C533.826 1.10043 531.517 1.10043 530.049 2.5V2.5C528.582 3.89957 526.273 3.89957 524.805 2.5V2.5C523.337 1.10043 521.029 1.10043 519.561 2.5V2.5C518.093 3.89957 515.785 3.89957 514.317 2.5V2.5C512.849 1.10043 510.541 1.10043 509.073 2.5V2.5C507.605 3.89957 505.297 3.89957 503.829 2.5V2.5C502.361 1.10043 500.053 1.10043 498.585 2.5V2.5C497.117 3.89957 494.808 3.89957 493.34 2.5V2.5C491.873 1.10043 489.564 1.10043 488.096 2.5V2.5C486.628 3.89957 484.32 3.89957 482.852 2.5V2.5C481.384 1.10043 479.076 1.10043 477.608 2.5V2.5C476.14 3.89957 473.832 3.89957 472.364 2.5V2.5C470.896 1.10043 468.588 1.10043 467.12 2.5V2.5C465.652 3.89957 463.344 3.89957 461.876 2.5V2.5C460.408 1.10043 458.099 1.10043 456.631 2.5V2.5C455.164 3.89957 452.855 3.89957 451.387 2.5V2.5C449.919 1.10043 447.611 1.10043 446.143 2.5V2.5C444.675 3.89957 442.367 3.89957 440.899 2.5V2.5C439.431 1.10043 437.123 1.10043 435.655 2.5V2.5C434.187 3.89957 431.879 3.89957 430.411 2.5V2.5C428.943 1.10043 426.635 1.10043 425.167 2.5V2.5C423.699 3.89957 421.39 3.89957 419.922 2.5V2.5C418.455 1.10043 416.146 1.10043 414.678 2.5V2.5C413.21 3.89957 410.902 3.89957 409.434 2.5V2.5C407.966 1.10043 405.658 1.10043 404.19 2.5V2.5C402.722 3.89957 400.414 3.89957 398.946 2.5V2.5C397.478 1.10043 395.17 1.10043 393.702 2.5V2.5C392.234 3.89957 389.926 3.89957 388.458 2.5V2.5C386.99 1.10043 384.681 1.10043 383.214 2.5V2.5C381.746 3.89957 379.437 3.89957 377.969 2.5V2.5C376.501 1.10043 374.193 1.10043 372.725 2.5V2.5C371.257 3.89957 368.949 3.89957 367.481 2.5V2.5C366.013 1.10043 363.705 1.10043 362.237 2.5V2.5C360.769 3.89957 358.461 3.89957 356.993 2.5V2.5C355.525 1.10043 353.217 1.10043 351.749 2.5V2.5C350.281 3.89957 347.972 3.89957 346.505 2.5V2.5C345.037 1.10043 342.728 1.10043 341.26 2.5V2.5C339.792 3.89957 337.484 3.89957 336.016 2.5V2.5C334.548 1.10043 332.24 1.10043 330.772 2.5V2.5C329.304 3.89957 326.996 3.89957 325.528 2.5V2.5C324.06 1.10043 321.752 1.10043 320.284 2.5V2.5C318.816 3.89957 316.508 3.89957 315.04 2.5V2.5C313.572 1.10043 311.263 1.10043 309.796 2.5V2.5C308.328 3.89957 306.019 3.89957 304.551 2.5V2.5C303.083 1.10043 300.775 1.10043 299.307 2.5V2.5C297.839 3.89957 295.531 3.89957 294.063 2.5V2.5C292.595 1.10043 290.287 1.10043 288.819 2.5V2.5C287.351 3.89957 285.043 3.89957 283.575 2.5V2.5C282.107 1.10043 279.799 1.10043 278.331 2.5V2.5C276.863 3.89957 274.554 3.89957 273.087 2.5V2.5C271.619 1.10043 269.31 1.10043 267.842 2.5V2.5C266.375 3.89957 264.066 3.89957 262.598 2.5V2.5C261.13 1.10043 258.822 1.10043 257.354 2.5V2.5C255.886 3.89957 253.578 3.89957 252.11 2.5V2.5C250.642 1.10043 248.334 1.10043 246.866 2.5V2.5C245.398 3.89957 243.09 3.89957 241.622 2.5V2.5C240.154 1.10043 237.845 1.10043 236.378 2.5V2.5C234.91 3.89957 232.601 3.89957 231.133 2.5V2.5C229.666 1.10043 227.357 1.10043 225.889 2.5V2.5C224.421 3.89957 222.113 3.89957 220.645 2.5V2.5C219.177 1.10043 216.869 1.10043 215.401 2.5V2.5C213.933 3.89957 211.625 3.89957 210.157 2.5V2.5C208.689 1.10043 206.381 1.10043 204.913 2.5V2.5C203.445 3.89957 201.136 3.89957 199.669 2.5V2.5C198.201 1.10043 195.892 1.10043 194.424 2.5V2.5C192.957 3.89957 190.648 3.89957 189.18 2.5V2.5C187.712 1.10043 185.404 1.10043 183.936 2.5V2.5C182.468 3.89957 180.16 3.89957 178.692 2.5V2.5C177.224 1.10043 174.916 1.10043 173.448 2.5V2.5C171.98 3.89957 169.672 3.89957 168.204 2.5V2.5C166.736 1.10043 164.428 1.10043 162.96 2.5V2.5C161.492 3.89957 159.183 3.89957 157.715 2.5V2.5C156.248 1.10043 153.939 1.10043 152.471 2.5V2.5C151.003 3.89957 148.695 3.89957 147.227 2.5V2.5C145.759 1.10043 143.451 1.10043 141.983 2.5V2.5C140.515 3.89957 138.207 3.89957 136.739 2.5V2.5C135.271 1.10043 132.963 1.10043 131.495 2.5V2.5C130.027 3.89957 127.719 3.89957 126.251 2.5V2.5C124.783 1.10043 122.474 1.10043 121.006 2.5V2.5C119.539 3.89957 117.23 3.89957 115.762 2.5V2.5C114.294 1.10043 111.986 1.10043 110.518 2.5V2.5C109.05 3.89957 106.742 3.89957 105.274 2.5V2.5C103.806 1.10043 101.498 1.10043 100.03 2.5V2.5C98.562 3.89957 96.2537 3.89957 94.7858 2.5V2.5C93.3179 1.10043 91.0095 1.10043 89.5416 2.5V2.5C88.0737 3.89957 85.7654 3.89957 84.2975 2.5V2.5C82.8296 1.10043 80.5213 1.10043 79.0533 2.5V2.5C77.5854 3.89957 75.2771 3.89957 73.8092 2.5V2.5C72.3413 1.10043 70.033 1.10043 68.5651 2.5V2.5C67.0972 3.89957 64.7888 3.89957 63.3209 2.5V2.5C61.853 1.10043 59.5447 1.10043 58.0768 2.5V2.5C56.6089 3.89957 54.3005 3.89957 52.8326 2.5V2.5C51.3647 1.10043 49.0564 1.10043 47.5885 2.5V2.5C46.1206 3.89957 43.8123 3.89957 42.3444 2.5V2.5C40.8765 1.10043 38.5681 1.10043 37.1002 2.5V2.5C35.6323 3.89957 33.324 3.89957 31.8561 2.5V2.5C30.3882 1.10043 28.0798 1.10043 26.6119 2.5V2.5C25.144 3.89957 22.8357 3.89957 21.3678 2.5V2.5C19.8999 1.10043 17.5916 1.10043 16.1237 2.5V2.5C14.6558 3.89957 12.3386 3.89113 10.8707 2.49156V2.49156C9.40725 1.09628 7.10192 1.07247 5.61989 2.44796L4.89673 3.11914" stroke="#BDFF00" stroke-width="2"/>
</svg>
