<svg width="288" height="59" viewBox="0 0 288 59" fill="none" xmlns="http://www.w3.org/2000/svg">
    <path d="M0.587189 36.572C1.71722 36.572 2.39523 36.042 3.22391 35.7771C3.29926 35.7108 3.3746 35.7108 3.44992 35.6446C4.20328 35.1809 3.97726 34.386 4.57996 33.8561C4.73062 33.7899 4.88132 33.6574 5.03198 33.5912C5.86066 33.1275 5.86066 33.1275 4.95663 32.7963C4.80594 32.73 4.65527 32.6638 4.57996 32.5976C3.97726 32.1339 3.44992 31.6039 2.84726 31.074C2.01855 30.8091 2.24454 30.2129 2.24454 29.8155C2.24454 29.3518 2.92258 29.3518 3.3746 29.3518C4.12793 29.2855 4.6553 28.8881 5.18265 28.6232C5.33331 28.5569 5.5593 28.5569 5.70996 28.4907C5.93597 28.3582 6.31265 28.2257 6.31265 27.9608C6.31265 27.0996 6.91534 26.6359 7.97003 26.371C8.1207 26.3047 8.34671 26.2385 8.27136 26.106C7.89468 25.6423 8.49738 25.4436 8.79871 25.1787C9.02472 24.98 9.47675 24.715 9.17542 24.5163C8.12073 23.7876 9.47672 23.7876 9.77808 23.4564C9.92874 23.3239 10.3808 23.324 10.6821 23.1915C10.9835 23.059 11.1341 22.8603 11.0588 22.5953C10.9834 22.3303 10.6821 22.3966 10.3808 22.4628C10.0041 22.529 9.77808 22.4628 9.47672 22.3304C7.97003 21.8004 6.46332 21.0055 4.57996 21.403C4.42926 21.403 4.27859 21.3367 4.12793 21.2705C3.75125 20.9393 3.22391 20.6081 2.99792 20.1444C2.69656 19.8794 2.47058 19.6808 2.0939 19.5483C1.41589 19.2171 1.41589 18.6209 1.64188 18.1572C1.79257 17.7598 2.39523 17.6273 3.07324 17.826C3.22391 17.8923 3.3746 17.7598 3.44992 17.6936C3.52527 17.6273 3.67593 17.6273 3.75125 17.5611C3.8266 17.4948 3.8266 17.3623 3.90195 17.2961C4.65527 16.8324 5.48398 16.3688 5.78531 15.5739C5.86066 15.3089 6.16199 15.0439 6.46335 14.8452C7.36737 14.249 8.34671 13.6529 7.97003 12.5931C7.89468 12.3944 8.19604 12.3281 8.27136 12.1956C8.57272 11.7319 9.62741 11.7982 9.77808 11.2683C9.92874 10.4734 10.5314 10.3409 11.4355 10.4072C11.5108 10.4072 11.6615 10.4072 11.7368 10.4072C12.0381 10.0097 12.5655 9.74473 13.0175 9.54601C13.0175 9.47977 13.0175 9.41356 13.0175 9.41356C13.9215 9.1486 13.6202 8.35371 14.0722 7.95627C14.7502 7.49259 15.8049 7.29388 15.8802 6.43276C15.8802 6.43276 16.0309 6.36649 16.1063 6.36649C16.1816 6.36649 16.1816 6.36651 16.2569 6.30027C16.2569 6.10155 16.3322 5.90284 16.3322 5.77036C16.2569 4.97548 16.7089 4.44553 17.7636 4.37929C18.517 4.31305 18.5923 4.11435 18.5923 3.65067C18.8183 3.45195 18.8936 3.05452 19.421 3.12076C20.1743 3.25324 21.0784 2.65707 21.7564 3.31947C21.8317 3.45195 22.2837 3.38569 22.5097 3.38569C23.0371 3.38569 23.6397 3.45196 24.1671 3.45196C27.4065 3.31948 30.7213 3.12075 33.9607 2.98827C46.165 2.32587 58.3693 1.99464 70.5736 1.5972C77.5044 1.33224 84.5106 1.13355 91.4414 1.00107C100.331 0.868588 109.221 0.802332 118.11 0.736092C122.329 0.736092 126.548 0.669844 130.766 0.603604C136.718 0.537364 142.669 0.272428 148.545 0.338668C158.414 0.404908 168.283 0.404892 178.152 0.404892C188.548 0.471132 199.02 0.86858 209.416 0.86858C214.539 0.86858 219.662 1.19978 224.785 1.53098C229.907 1.86218 235.03 2.06091 240.153 2.32587C242.79 2.45835 245.502 2.59083 248.139 2.65707C253.261 2.72331 258.384 2.78954 263.507 3.18698C264.185 3.25322 264.863 3.31945 265.39 3.71689C265.842 4.04809 266.52 4.04812 266.897 4.44556C266.897 4.5118 266.897 4.578 266.822 4.578C266.822 4.578 266.822 4.578 266.897 4.578C266.897 4.51177 266.897 4.44553 266.897 4.37929C270.136 4.57801 273.376 4.7105 276.54 5.17418C277.896 5.3729 279.252 5.63786 280.608 5.83658C281.135 5.90282 281.738 5.57164 281.964 5.77036C282.642 6.23404 283.621 6.36649 284.149 7.02889C284.525 7.55881 285.204 7.69129 285.957 7.55881C286.56 7.42633 287.238 7.29387 287.69 7.62507C288.217 8.02251 287.991 8.48617 287.614 8.88361C287.539 9.08233 287.69 9.28108 287.388 9.41356C287.464 9.94348 286.484 10.1422 286.635 10.7384C285.505 11.2683 284.525 11.9306 283.998 12.858C283.697 13.3217 283.471 13.7191 282.717 13.8516C282.341 13.9178 281.964 14.0503 282.341 14.4478C282.793 14.9115 282.717 15.2427 281.889 15.5739C281.437 15.7064 281.06 15.9051 280.533 15.9051C279.93 15.9051 279.478 16.1038 279.704 16.6337C279.93 17.1636 279.855 17.6273 279.026 17.9585C278.8 18.091 278.649 18.3559 278.951 18.4222C279.93 18.5547 280.382 19.3495 281.437 19.482C282.19 19.5483 282.868 19.747 283.621 19.8132C284.224 19.8794 284.375 20.0119 284.299 20.4756C284.149 21.3367 283.621 22.0654 283.094 22.7278C283.019 22.7278 282.943 22.7278 282.868 22.7278C282.265 23.2577 281.135 23.3239 280.909 24.0526C280.834 24.1188 280.759 24.1188 280.683 24.1851C280.533 24.3176 280.382 24.3838 280.307 24.5163C280.081 25.2449 279.553 25.7748 278.499 26.0398C278.122 26.106 277.745 26.371 277.821 26.7684C277.896 27.2321 278.423 27.0334 278.8 27.2321C278.122 27.4308 277.67 27.9608 276.841 27.6296C276.691 27.5633 276.465 27.6958 276.314 27.8283C275.937 28.0932 275.561 28.3582 275.184 28.6232C275.711 28.8219 276.239 29.0206 275.937 29.4843C275.711 29.948 275.109 29.9479 274.506 29.7492C273.828 29.5505 273.15 29.5505 272.397 29.7492C272.246 30.0142 271.568 30.0142 271.643 30.4116C271.643 30.8091 271.342 31.0078 270.965 31.2728C271.342 31.8689 272.095 32.2001 272.773 32.5976C273.602 32.5313 274.431 32.6638 275.259 32.73C275.787 32.73 275.937 32.995 275.937 33.26C275.937 33.5249 275.937 33.8561 275.636 34.1211C275.711 34.7835 274.883 35.1809 274.506 35.7771C274.506 35.7771 274.506 35.7771 274.506 35.8433C274.431 35.9095 274.431 35.9758 274.355 36.1083C274.355 36.1745 274.054 36.1745 273.903 36.2408C273.753 36.5057 273.225 36.4395 273.075 36.7707C272.698 37.4331 271.794 37.8967 271.568 38.6254C271.493 38.8241 271.116 38.8904 270.739 38.8904C269.986 38.9566 270.061 39.2215 270.362 39.619C270.89 40.2814 271.493 40.6126 272.698 40.5464C274.581 40.4139 274.732 40.6788 274.28 41.9374C274.205 42.0699 274.205 42.2023 274.129 42.3348C273.753 42.8647 274.054 43.1297 274.807 42.9972C275.485 42.931 275.636 43.196 275.561 43.5272C275.485 44.1233 275.335 44.7857 274.883 45.2494C274.431 45.7131 274.28 46.4417 273.301 46.6404C272.698 47.2366 272.02 47.7665 271.417 48.3627C271.342 48.8264 271.116 49.2238 270.362 49.29C269.76 49.2238 269.609 49.555 269.308 49.82C269.308 49.9524 269.308 50.0849 269.534 50.0849C269.835 50.1511 270.136 50.1511 270.136 50.4161C270.136 50.6811 269.835 50.8136 269.609 51.0123C269.006 51.476 268.404 51.211 267.726 51.1448C267.424 51.4097 267.349 51.6747 267.5 52.0721C267.801 52.7345 266.972 53.4632 266.219 53.1982C265.39 52.9332 264.562 52.9332 263.733 52.867C262.452 52.9995 261.096 52.867 259.816 52.8008C258.535 52.7345 257.329 52.6683 256.877 53.7944C256.802 53.8606 256.727 53.8606 256.651 53.9268C256.425 54.3243 255.672 54.1918 255.371 54.523C255.145 54.788 254.165 55.1854 255.597 55.1854C255.898 55.1854 255.898 55.3841 255.898 55.5828C255.295 55.8478 254.843 56.2452 254.015 56.2452C253.111 56.2452 252.734 56.6427 253.035 57.3051C253.337 57.835 252.809 58.2987 251.981 58.2987C247.913 58.2987 243.844 58.3649 239.701 58.2987C232.921 58.2324 226.216 58.0999 219.436 58.0337C212.128 57.9675 204.746 58.0999 197.438 57.9012C184.254 57.57 170.995 56.9739 157.812 56.5102C152.388 56.3115 146.888 56.1128 141.464 55.9803C134.232 55.914 126.924 55.7815 119.692 55.914C115.775 55.9803 111.933 55.8478 108.015 55.7816C98.6736 55.7153 89.332 55.7153 79.9905 55.6491C74.265 55.5828 68.5395 55.3841 62.8894 55.2516C60.328 55.1854 57.7666 55.1854 55.2052 55.3179C55.0545 55.3841 54.8285 55.4504 54.6778 55.4504C53.6232 55.3841 52.5685 55.4504 51.5138 55.5166C50.6098 55.5166 49.6304 55.5166 48.7264 55.6491C48.5757 55.6491 48.5004 55.6491 48.3497 55.6491C47.8224 55.8478 47.295 55.5828 46.6923 55.5828C44.5076 55.7815 42.3229 55.7816 40.1382 55.8478C36.8988 55.914 33.6593 55.9803 30.3446 56.1128C27.7079 56.2453 24.9958 56.5102 22.3591 56.5102C18.969 56.5102 15.5789 56.6427 12.1888 56.6427C11.8121 56.6427 11.2848 56.7752 11.1341 56.3115C11.0588 56.2452 10.9834 56.2452 10.9834 56.179C10.6821 56.1128 10.4561 56.1127 10.1548 56.0465C9.17538 55.6491 8.19608 55.3179 7.06604 55.4504C5.78534 55.6491 5.33331 54.9867 4.80597 54.3905C4.73062 54.3243 4.73062 54.258 4.65527 54.258C4.35394 54.0593 3.97729 53.8606 3.67593 53.7281C2.99792 53.3969 3.29926 52.867 3.22391 52.4696C3.14859 52.0721 3.8266 52.1383 4.20328 52.0721C4.57996 52.0059 4.9566 52.0721 5.25797 51.8072C5.40863 51.7409 5.55933 51.6084 5.86066 51.6747C6.16199 51.5422 6.388 51.4097 6.68933 51.2772C6.68933 51.2772 6.68933 51.2772 6.61401 51.2772C7.21667 50.6811 7.06604 49.8199 7.81937 49.29C7.6687 48.7601 6.99069 48.9588 6.61401 49.0251C5.48398 49.2238 4.80594 48.8926 4.27859 48.2302C4.20328 48.164 4.12793 48.0977 4.12793 48.0977C4.12793 48.0315 4.12793 47.9652 4.12793 47.8328C3.97726 47.634 3.8266 47.4353 3.60059 47.3691C2.62125 46.9054 2.62125 46.3092 2.77191 45.5806C3.67593 45.7793 4.42926 45.7793 4.88129 45.1832C5.25797 44.587 6.388 44.6532 6.68933 43.9908C6.68933 43.9246 6.68933 43.9246 6.68933 43.8584C6.53867 43.3284 6.99066 43.0635 7.51804 42.8648C8.27136 42.5998 9.10007 42.4673 8.64804 41.6724C8.64804 41.6062 8.87405 41.4737 9.02472 41.3412C9.17538 41.2087 9.62741 41.1425 9.4014 40.8776C9.17538 40.6788 8.87408 40.7451 8.57272 40.8113C7.29202 41.275 6.46332 40.4801 5.63464 40.0827C5.25797 39.884 4.88129 39.6852 4.50461 39.7515C3.8266 39.8177 3.14859 39.619 2.47058 39.884C2.24457 39.9502 2.0939 39.884 2.01855 39.7515C1.56656 39.0891 0.813202 38.6254 0.135162 38.1617C-0.0908203 37.698 -0.0908203 36.572 0.587189 36.572Z" fill="#343434"/>
    <path d="M13.8057 56.4067C27.2751 56.4067 40.7445 56.4067 54.2139 56.4067C63.004 56.4067 71.7941 56.4067 80.5841 56.4067C91.1541 56.4067 101.646 56.9198 112.214 56.9198C145.195 56.9198 178.175 56.9198 211.156 56.9198" stroke="#343434" stroke-width="3" stroke-linecap="round"/>
</svg>
