<svg width="60" height="60" viewBox="0 0 60 60" fill="none" xmlns="http://www.w3.org/2000/svg">
<g clip-path="url(#clip0_1807_31117)">
<path d="M4.26398 29.9993C4.26398 40.1867 10.184 48.9896 18.7686 53.1619L6.49213 19.5256C5.02047 22.8211 4.26119 26.3902 4.26398 29.9993ZM47.3736 28.7006C47.3736 25.52 46.2312 23.3173 45.2512 21.6029C43.9467 19.483 42.7243 17.6876 42.7243 15.5678C42.7243 13.202 44.5182 10.9998 47.0455 10.9998C47.1595 10.9998 47.2678 11.014 47.3794 11.0204C42.8002 6.82555 36.7 4.2644 29.9998 4.2644C21.0088 4.2644 13.0987 8.87741 8.49698 15.8645C9.10078 15.8827 9.67031 15.8948 10.1532 15.8948C12.8451 15.8948 17.0119 15.5683 17.0119 15.5683C18.3993 15.4865 18.5628 17.5241 17.1775 17.6882C17.1775 17.6882 15.7828 17.8522 14.2314 17.9335L23.6034 45.8099L29.2359 28.9186L25.2258 17.933C23.8399 17.8517 22.527 17.6876 22.527 17.6876C21.1401 17.6065 21.3027 15.4859 22.6896 15.5678C22.6896 15.5678 26.9397 15.8944 29.4685 15.8944C32.16 15.8944 36.3273 15.5678 36.3273 15.5678C37.7157 15.4859 37.8787 17.5237 36.4924 17.6876C36.4924 17.6876 35.0952 17.8517 33.5467 17.933L42.8472 45.5984L45.4138 37.0202C46.5268 33.4606 47.3736 30.9038 47.3736 28.7006Z" fill="#00749A"/>
<path d="M30.4516 32.2502L22.7299 54.6875C25.0907 55.3832 27.5391 55.7365 30.0001 55.7365C32.9971 55.7365 35.8712 55.2178 38.5464 54.2776C38.4747 54.1652 38.4134 54.0466 38.3633 53.9231L30.4516 32.2502ZM52.5824 17.6516C52.6931 18.4714 52.7558 19.3519 52.7558 20.2981C52.7558 22.9096 52.2679 25.8454 50.7988 29.5162L42.9377 52.2449C50.5887 47.7832 55.7351 39.4939 55.7351 29.999C55.742 25.6832 54.6575 21.4358 52.5824 17.6516Z" fill="#00749A"/>
<path d="M30.0005 0C13.4588 0 0.000244141 13.4576 0.000244141 29.9993C0.000244141 46.5429 13.4583 60.0005 30.0005 60.0005C46.5417 60.0005 60.0023 46.5435 60.0023 29.9993C60.0017 13.4576 46.5417 0 30.0005 0ZM30.0005 58.625C14.2173 58.625 1.37582 45.7835 1.37582 29.9993C1.37582 14.2166 14.2168 1.37607 30.0005 1.37607C45.7832 1.37607 58.6236 14.2166 58.6236 29.9993C58.6236 45.7835 45.7827 58.625 30.0005 58.625Z" fill="#00749A"/>
</g>
<defs>
<clipPath id="clip0_1807_31117">
<rect width="60" height="60" fill="white"/>
</clipPath>
</defs>
</svg>
