<svg width="136" height="43" viewBox="0 0 136 43" fill="none" xmlns="http://www.w3.org/2000/svg">
    <path d="M0.0578706 10.8434L1.84797 2.89722C1.85439 2.86869 1.89639 2.87337 1.89639 2.90261C1.89639 2.91757 1.90968 2.92904 1.92448 2.92686L17.5945 0.611925C17.7353 0.591126 17.8779 0.585414 18.0199 0.594885L38.9451 1.9906L70.9547 0.580638L77.649 0L110.309 1.65874L133.04 0.680559C134.262 0.627964 135.245 1.67517 135.114 2.89156L133.867 14.5492C133.844 14.7592 133.855 14.9715 133.899 15.1781L135.904 24.6032C135.967 24.9014 135.961 25.2102 135.887 25.5059L133.893 33.4563C133.853 33.6154 133.833 33.7789 133.833 33.943V39.8909C133.833 40.9057 133.073 41.7596 132.065 41.8774L122.616 42.981C122.508 42.9937 122.4 42.9975 122.291 42.9924L94.008 41.6708L70.3423 42.9902C70.2259 42.9967 70.1091 42.993 69.9933 42.9792L59.2371 41.6921C59.1191 41.6779 59.0001 41.6744 58.8815 41.6814L36.5737 43L3.46582 41.731C2.54458 41.6957 1.76684 41.0352 1.58271 40.1319L0.0646779 32.6841C0.0218383 32.4739 0.0130892 32.2582 0.0387661 32.0453L1.8416 17.0928C1.87766 16.7938 1.84571 16.4904 1.74813 16.2055L0.085306 11.3495C0.0295302 11.1866 0.020033 11.0114 0.0578706 10.8434Z" fill="#B4F00A"/>
</svg>
