<svg width="17" height="17" viewBox="0 0 17 17" fill="none" xmlns="http://www.w3.org/2000/svg">
<path d="M16.4062 1.45459L13.1562 0.70459C12.8125 0.61084 12.4375 0.79834 12.2812 1.14209L10.7812 4.64209C10.6562 4.95459 10.75 5.29834 11 5.51709L12.9062 7.07959C11.7812 9.45459 9.8125 11.4546 7.375 12.6108L5.8125 10.7046C5.59375 10.4546 5.25 10.3608 4.9375 10.4858L1.4375 11.9858C1.09375 12.1421 0.9375 12.5171 1 12.8608L1.75 16.1108C1.84375 16.4546 2.125 16.6733 2.5 16.6733C10.5 16.6733 17 10.2046 17 2.17334C17 1.82959 16.75 1.54834 16.4062 1.45459Z" fill="white"/>
</svg>
