<svg width="14" height="17" viewBox="0 0 14 17" fill="none" xmlns="http://www.w3.org/2000/svg">
<path d="M11 12.5H9.90625C9.28125 13.0625 8.6875 13.5625 8.1875 13.9375C7.84375 14.1875 7.4375 14.3438 7 14.3438C6.53125 14.3438 6.125 14.1875 5.78125 13.9375C5.28125 13.5625 4.6875 13.0625 4.0625 12.5H3C1.34375 12.5 0 13.875 0 15.5C0 16.0625 0.4375 16.5 1 16.5H13C13.5312 16.5 14 16.0625 14 15.5C14 13.875 12.625 12.5 11 12.5ZM6.40625 13.1562C6.5625 13.2812 6.75 13.3438 6.96875 13.3438C7.21875 13.3438 7.40625 13.2812 7.5625 13.1562C9 12.0938 12.5 9.1875 12.5 6.3125C12.5 2.71875 10.0312 0.5 7 0.5C3.9375 0.5 1.5 2.71875 1.5 6.3125C1.5 9.1875 4.96875 12.0938 6.40625 13.1562ZM7.5 8.375C7.5 7.34375 8.3125 6.5 9.375 6.5H10.125C10.3125 6.5 10.5 6.6875 10.5 6.875V7.125C10.5 8.1875 9.65625 9 8.625 9H7.875C7.65625 9 7.5 8.84375 7.5 8.625V8.375ZM3.5 7.125V6.875C3.5 6.6875 3.65625 6.5 3.875 6.5H4.625C5.65625 6.5 6.5 7.34375 6.5 8.375V8.625C6.5 8.84375 6.3125 9 6.125 9H5.375C4.3125 9 3.5 8.1875 3.5 7.125Z" fill="white"/>
</svg>
