<svg width="14" height="17" viewBox="0 0 14 17" fill="none" xmlns="http://www.w3.org/2000/svg">
<path d="M11.9688 10.1562L12.7188 8.1875C12.8438 7.875 12.625 7.5 12.25 7.5H10.4375C10.7812 6.9375 11 6.25 11 5.5C12.2188 5.25 13 4.90625 13 4.5C13 4.09375 12.125 3.71875 10.8125 3.46875C10.5 2.46875 9.96875 1.4375 9.53125 0.90625C9.21875 0.53125 8.71875 0.40625 8.28125 0.625L7.4375 1.0625C7.15625 1.1875 6.8125 1.1875 6.53125 1.0625L5.6875 0.625C5.25 0.40625 4.75 0.53125 4.4375 0.90625C4.03125 1.4375 3.46875 2.46875 3.1875 3.46875C1.84375 3.71875 1 4.09375 1 4.5C1 4.90625 1.75 5.25 3 5.5C3 6.25 3.1875 6.9375 3.53125 7.5H1.75C1.375 7.5 1.15625 7.875 1.28125 8.21875L2.09375 10.0938C0.84375 10.8125 0 12.1562 0 13.7188V15.125C0 15.875 0.625 16.5 1.375 16.5H12.5938C13.3438 16.5 14 15.875 14 15.125V13.7188C14 12.1875 13.1875 10.875 11.9688 10.1562ZM5.5 15.5L4.1875 9.5L5.75 10.5L6.5 11.75L5.5 15.5ZM8.5 15.5L7.5 11.75L8.25 10.5L9.78125 9.5L8.5 15.5ZM9.78125 6.1875C9.65625 6.5625 9.5625 6.96875 9.28125 7.21875C8.96875 7.53125 7.78125 7.9375 7.28125 6.4375C7.1875 6.1875 6.78125 6.1875 6.6875 6.4375C6.15625 8.03125 4.9375 7.46875 4.6875 7.21875C4.40625 6.96875 4.3125 6.5625 4.1875 6.1875C4.15625 6.09375 4 6 4 6V5.65625C4.875 5.78125 5.90625 5.84375 7 5.84375C8.09375 5.84375 9.09375 5.78125 10 5.65625V6C10 6 9.8125 6.09375 9.78125 6.1875Z" fill="white"/>
</svg>
