<svg width="16" height="17" viewBox="0 0 16 17" fill="none" xmlns="http://www.w3.org/2000/svg">
<path d="M8.5 1.10913C8.21875 0.827881 7.75 0.827881 7.46875 1.10913C5.96875 2.54663 1.65625 6.67163 1 7.42163C0.375 8.10913 0 8.98413 0 9.95288C0 12.1404 1.6875 13.8904 3.84375 13.8904C5 13.9216 6.03125 13.4216 6.75 12.6404C6.71875 13.7654 6.71875 14.2654 5.09375 14.9841C4.65625 15.1716 4.40625 15.6716 4.5 16.1404C4.625 16.5779 5.03125 16.8904 5.5 16.8904H10.4688C10.9688 16.8904 11.375 16.5779 11.4688 16.0779C11.5625 15.6404 11.3125 15.1716 10.9062 14.9841C9.28125 14.2654 9.25 13.7966 9.25 12.6404C9.96875 13.4216 11.0312 13.9216 12.2188 13.8904C14.3438 13.8591 16 12.1404 16 10.0154C16 9.01538 15.625 8.10913 15 7.42163C14.3125 6.67163 10 2.54663 8.5 1.10913Z" fill="white"/>
</svg>
