<svg width="72" height="35" viewBox="0 0 72 35" fill="none" xmlns="http://www.w3.org/2000/svg">
    <path d="M63.8059 18.8081V15.5446H64.9672V18.8081H63.8059ZM65.8548 18.8081V16.9194C65.8548 16.7815 65.8125 16.6747 65.728 16.599C65.6434 16.519 65.5389 16.4789 65.4143 16.4789C65.3253 16.4789 65.2475 16.4967 65.1807 16.5323C65.114 16.5679 65.0606 16.6191 65.0206 16.6858C64.985 16.7481 64.9672 16.826 64.9672 16.9194L64.5133 16.7392C64.5133 16.4767 64.5712 16.252 64.6869 16.0651C64.8025 15.8783 64.9583 15.7337 65.154 15.6313C65.3498 15.529 65.5723 15.4778 65.8214 15.4778C66.0439 15.4778 66.2441 15.5312 66.4221 15.638C66.6045 15.7403 66.7491 15.8849 66.8559 16.0718C66.9626 16.2587 67.016 16.4789 67.016 16.7325V18.8081H65.8548ZM67.9036 18.8081V16.9194C67.9036 16.7815 67.8614 16.6747 67.7768 16.599C67.6923 16.519 67.5878 16.4789 67.4632 16.4789C67.3786 16.4789 67.3008 16.4967 67.2296 16.5323C67.1629 16.5679 67.1095 16.6191 67.0694 16.6858C67.0338 16.7481 67.016 16.826 67.016 16.9194L66.3353 16.886C66.3442 16.5924 66.4087 16.341 66.5288 16.1319C66.649 15.9228 66.8136 15.7626 67.0227 15.6514C67.2363 15.5357 67.4765 15.4778 67.7435 15.4778C67.9971 15.4778 68.224 15.5312 68.4242 15.638C68.6244 15.7448 68.7801 15.9005 68.8914 16.1052C69.0071 16.3054 69.0649 16.5457 69.0649 16.826V18.8081H67.9036Z" fill="white"/>
    <path d="M61.3297 18.8815C60.9782 18.8815 60.6646 18.8081 60.3887 18.6613C60.1173 18.51 59.9015 18.3053 59.7414 18.0473C59.5812 17.7848 59.5011 17.4911 59.5011 17.1663C59.5011 16.8415 59.579 16.5523 59.7347 16.2987C59.8949 16.0407 60.1129 15.8382 60.3887 15.6914C60.6646 15.5401 60.976 15.4645 61.3231 15.4645C61.6701 15.4645 61.9793 15.5401 62.2507 15.6914C62.5266 15.8382 62.7446 16.0407 62.9048 16.2987C63.0649 16.5523 63.145 16.8415 63.145 17.1663C63.145 17.4911 63.0649 17.7848 62.9048 18.0473C62.749 18.3053 62.5332 18.51 62.2574 18.6613C61.986 18.8081 61.6768 18.8815 61.3297 18.8815ZM61.3231 17.8471C61.4521 17.8471 61.5633 17.8204 61.6567 17.767C61.7546 17.7091 61.8303 17.6291 61.8837 17.5267C61.937 17.4244 61.9637 17.3065 61.9637 17.173C61.9637 17.0395 61.9348 16.9239 61.877 16.826C61.8236 16.7236 61.7502 16.6458 61.6567 16.5924C61.5633 16.5345 61.4521 16.5056 61.3231 16.5056C61.1985 16.5056 61.0872 16.5345 60.9894 16.5924C60.8915 16.6502 60.8158 16.7303 60.7625 16.8326C60.7091 16.9305 60.6824 17.0462 60.6824 17.1797C60.6824 17.3087 60.7091 17.4244 60.7625 17.5267C60.8158 17.6291 60.8915 17.7091 60.9894 17.767C61.0872 17.8204 61.1985 17.8471 61.3231 17.8471Z" fill="white"/>
    <path d="M57.8775 18.8815C57.5305 18.8815 57.2168 18.8081 56.9365 18.6613C56.6607 18.5145 56.4427 18.312 56.2825 18.054C56.1223 17.7959 56.0422 17.5045 56.0422 17.1797C56.0422 16.8504 56.1223 16.5568 56.2825 16.2987C56.4471 16.0407 56.6674 15.8382 56.9432 15.6914C57.2235 15.5401 57.5394 15.4645 57.8909 15.4645C58.1445 15.4645 58.3759 15.5068 58.585 15.5913C58.7941 15.6758 58.9854 15.8026 59.1589 15.9717L58.4248 16.7058C58.3581 16.6391 58.2802 16.5902 58.1912 16.559C58.1067 16.5234 58.0066 16.5056 57.8909 16.5056C57.7663 16.5056 57.6529 16.5345 57.5505 16.5924C57.4526 16.6458 57.3726 16.7214 57.3103 16.8193C57.2524 16.9172 57.2235 17.0351 57.2235 17.173C57.2235 17.3065 57.2524 17.4244 57.3103 17.5267C57.3726 17.6246 57.4526 17.7025 57.5505 17.7603C57.6529 17.8181 57.7663 17.8471 57.8909 17.8471C58.0155 17.8471 58.1222 17.827 58.2112 17.787C58.3002 17.747 58.3781 17.6891 58.4448 17.6135L59.1856 18.3476C59.0032 18.5256 58.8052 18.6591 58.5916 18.748C58.3825 18.837 58.1445 18.8815 57.8775 18.8815Z" fill="white"/>
    <path d="M54.7877 18.8815C54.592 18.8815 54.4318 18.817 54.3072 18.688C54.1826 18.5589 54.1204 18.3988 54.1204 18.2075C54.1204 18.0161 54.1826 17.856 54.3072 17.7269C54.4318 17.5979 54.592 17.5334 54.7877 17.5334C54.9791 17.5334 55.137 17.5979 55.2616 17.7269C55.3862 17.856 55.4485 18.0161 55.4485 18.2075C55.4485 18.3988 55.3862 18.5589 55.2616 18.688C55.137 18.817 54.9791 18.8815 54.7877 18.8815Z" fill="white"/>
    <path d="M51.7268 18.8148L50.4187 15.5446H51.66L52.4609 18.2342H51.9737L52.7812 15.5446H54.0226L52.6811 18.8081L51.7268 18.8148ZM50.9526 20.1896L51.9203 18.0606L52.6811 18.8081L52.1205 20.1896H50.9526Z" fill="white"/>
    <path d="M48.7769 18.8081V16.9661C48.7769 16.8148 48.7324 16.6969 48.6434 16.6124C48.5544 16.5234 48.4409 16.4789 48.303 16.4789C48.2096 16.4789 48.125 16.4989 48.0494 16.539C47.9782 16.579 47.9226 16.6346 47.8826 16.7058C47.8425 16.777 47.8225 16.8638 47.8225 16.9661L47.3687 16.7525C47.3687 16.49 47.4265 16.2654 47.5422 16.0785C47.6579 15.8872 47.8158 15.7403 48.016 15.638C48.2207 15.5312 48.4521 15.4778 48.7101 15.4778C48.9459 15.4778 49.155 15.5335 49.3375 15.6447C49.5243 15.7515 49.6712 15.8961 49.7779 16.0785C49.8847 16.2609 49.9381 16.4678 49.9381 16.6992V18.8081H48.7769ZM46.6613 18.8081V15.5446H47.8225V18.8081H46.6613Z" fill="white"/>
    <path d="M43.8013 18.8748C43.4988 18.8748 43.2296 18.8014 42.9938 18.6546C42.758 18.5078 42.5733 18.3076 42.4398 18.0539C42.3064 17.7959 42.2396 17.5045 42.2396 17.1797C42.2396 16.8504 42.3064 16.5568 42.4398 16.2987C42.5733 16.0407 42.758 15.8405 42.9938 15.6981C43.2296 15.5513 43.4988 15.4778 43.8013 15.4778C44.006 15.4778 44.1928 15.5157 44.3619 15.5913C44.531 15.6625 44.6689 15.7648 44.7757 15.8983C44.8869 16.0318 44.9537 16.183 44.9759 16.3521V17.9939C44.9537 18.1674 44.8869 18.3209 44.7757 18.4544C44.6689 18.5834 44.531 18.6857 44.3619 18.7614C44.1928 18.837 44.006 18.8748 43.8013 18.8748ZM44.0482 17.8404C44.2396 17.8404 44.393 17.7781 44.5087 17.6535C44.6289 17.5289 44.6889 17.3688 44.6889 17.173C44.6889 17.044 44.6622 16.9305 44.6088 16.8326C44.5554 16.7348 44.4798 16.6569 44.3819 16.599C44.2885 16.5412 44.1795 16.5123 44.0549 16.5123C43.9303 16.5123 43.8191 16.5412 43.7212 16.599C43.6278 16.6569 43.5521 16.737 43.4943 16.8393C43.4409 16.9372 43.4142 17.0484 43.4142 17.173C43.4142 17.302 43.4409 17.4177 43.4943 17.52C43.5477 17.6179 43.6233 17.6958 43.7212 17.7536C43.8191 17.8115 43.9281 17.8404 44.0482 17.8404ZM44.6422 18.8081V17.9338L44.8091 17.133L44.6422 16.3454V15.5446H45.7834V18.8081H44.6422Z" fill="white"/>
    <path d="M40.1603 18.8748C39.9512 18.8748 39.7577 18.837 39.5797 18.7614C39.4018 18.6857 39.2549 18.5834 39.1393 18.4544C39.0236 18.3209 38.9524 18.1674 38.9257 17.9939V16.4055C38.9524 16.232 39.0236 16.0763 39.1393 15.9383C39.2594 15.796 39.4062 15.6847 39.5797 15.6046C39.7577 15.5201 39.9512 15.4778 40.1603 15.4778C40.4762 15.4778 40.7543 15.5513 40.9946 15.6981C41.2348 15.8405 41.4217 16.0407 41.5552 16.2987C41.6931 16.5568 41.7621 16.8504 41.7621 17.1797C41.7621 17.5045 41.6931 17.7959 41.5552 18.0539C41.4217 18.3076 41.2348 18.5078 40.9946 18.6546C40.7543 18.8014 40.4762 18.8748 40.1603 18.8748ZM39.9401 17.8404C40.0691 17.8404 40.1826 17.8115 40.2805 17.7536C40.3784 17.6958 40.454 17.6179 40.5074 17.52C40.5608 17.4177 40.5875 17.302 40.5875 17.173C40.5875 17.044 40.5608 16.9305 40.5074 16.8326C40.454 16.7348 40.3784 16.6569 40.2805 16.599C40.1826 16.5412 40.0714 16.5123 39.9468 16.5123C39.8267 16.5123 39.7177 16.5412 39.6198 16.599C39.5219 16.6524 39.4462 16.7303 39.3929 16.8326C39.3395 16.9305 39.3128 17.044 39.3128 17.173C39.3128 17.302 39.3395 17.4177 39.3929 17.52C39.4462 17.6179 39.5197 17.6958 39.6131 17.7536C39.711 17.8115 39.82 17.8404 39.9401 17.8404ZM38.2183 20.1896V15.5446H39.3795V16.3655L39.186 17.153L39.3528 17.9472V20.1896H38.2183Z" fill="white"/>
    <path d="M32.1523 18.8081V15.5446H33.3136V18.8081H32.1523ZM34.2012 18.8081V16.9194C34.2012 16.7815 34.1589 16.6747 34.0744 16.599C33.9899 16.519 33.8853 16.4789 33.7607 16.4789C33.6718 16.4789 33.5939 16.4967 33.5272 16.5323C33.4604 16.5679 33.407 16.6191 33.367 16.6858C33.3314 16.7481 33.3136 16.826 33.3136 16.9194L32.8598 16.7392C32.8598 16.4767 32.9176 16.252 33.0333 16.0651C33.149 15.8783 33.3047 15.7337 33.5005 15.6313C33.6962 15.529 33.9187 15.4778 34.1678 15.4778C34.3903 15.4778 34.5905 15.5312 34.7685 15.638C34.9509 15.7403 35.0955 15.8849 35.2023 16.0718C35.3091 16.2587 35.3625 16.4789 35.3625 16.7325V18.8081H34.2012ZM36.2501 18.8081V16.9194C36.2501 16.7815 36.2078 16.6747 36.1233 16.599C36.0387 16.519 35.9342 16.4789 35.8096 16.4789C35.7251 16.4789 35.6472 16.4967 35.576 16.5323C35.5093 16.5679 35.4559 16.6191 35.4159 16.6858C35.3803 16.7481 35.3625 16.826 35.3625 16.9194L34.6817 16.886C34.6906 16.5924 34.7551 16.341 34.8753 16.1319C34.9954 15.9228 35.16 15.7626 35.3691 15.6514C35.5827 15.5357 35.823 15.4778 36.0899 15.4778C36.3435 15.4778 36.5704 15.5312 36.7706 15.638C36.9709 15.7448 37.1266 15.9005 37.2378 16.1052C37.3535 16.3054 37.4113 16.5457 37.4113 16.826V18.8081H36.2501Z" fill="white"/>
    <path d="M29.676 18.8815C29.3246 18.8815 29.0109 18.8081 28.735 18.6613C28.4636 18.51 28.2478 18.3053 28.0877 18.0473C27.9275 17.7848 27.8474 17.4911 27.8474 17.1663C27.8474 16.8415 27.9253 16.5523 28.081 16.2987C28.2412 16.0407 28.4592 15.8382 28.735 15.6914C29.0109 15.5401 29.3223 15.4645 29.6694 15.4645C30.0164 15.4645 30.3256 15.5401 30.597 15.6914C30.8729 15.8382 31.0909 16.0407 31.2511 16.2987C31.4112 16.5523 31.4913 16.8415 31.4913 17.1663C31.4913 17.4911 31.4112 17.7848 31.2511 18.0473C31.0953 18.3053 30.8796 18.51 30.6037 18.6613C30.3323 18.8081 30.0231 18.8815 29.676 18.8815ZM29.6694 17.8471C29.7984 17.8471 29.9096 17.8204 30.0031 17.767C30.1009 17.7091 30.1766 17.6291 30.23 17.5267C30.2834 17.4244 30.3101 17.3065 30.3101 17.173C30.3101 17.0395 30.2811 16.9239 30.2233 16.826C30.1699 16.7236 30.0965 16.6458 30.0031 16.5924C29.9096 16.5345 29.7984 16.5056 29.6694 16.5056C29.5448 16.5056 29.4336 16.5345 29.3357 16.5924C29.2378 16.6502 29.1622 16.7303 29.1088 16.8326C29.0554 16.9305 29.0287 17.0462 29.0287 17.1797C29.0287 17.3087 29.0554 17.4244 29.1088 17.5267C29.1622 17.6291 29.2378 17.7091 29.3357 17.767C29.4336 17.8204 29.5448 17.8471 29.6694 17.8471Z" fill="white"/>
    <path d="M26.224 18.8815C25.8769 18.8815 25.5633 18.8081 25.283 18.6613C25.0071 18.5145 24.7891 18.312 24.6289 18.054C24.4688 17.7959 24.3887 17.5045 24.3887 17.1797C24.3887 16.8504 24.4688 16.5568 24.6289 16.2987C24.7936 16.0407 25.0138 15.8382 25.2896 15.6914C25.5699 15.5401 25.8858 15.4645 26.2373 15.4645C26.4909 15.4645 26.7223 15.5068 26.9314 15.5913C27.1405 15.6758 27.3318 15.8026 27.5054 15.9717L26.7712 16.7058C26.7045 16.6391 26.6266 16.5902 26.5376 16.559C26.4531 16.5234 26.353 16.5056 26.2373 16.5056C26.1127 16.5056 25.9993 16.5345 25.897 16.5924C25.7991 16.6458 25.719 16.7214 25.6567 16.8193C25.5989 16.9172 25.5699 17.0351 25.5699 17.173C25.5699 17.3065 25.5989 17.4244 25.6567 17.5267C25.719 17.6246 25.7991 17.7025 25.897 17.7603C25.9993 17.8181 26.1127 17.8471 26.2373 17.8471C26.3619 17.8471 26.4687 17.827 26.5577 17.787C26.6467 17.747 26.7245 17.6891 26.7913 17.6135L27.5321 18.3476C27.3496 18.5256 27.1516 18.6591 26.9381 18.748C26.729 18.837 26.4909 18.8815 26.224 18.8815Z" fill="white"/>
    <path d="M67.5907 10.9263V9.93188H70V10.9263H67.5907Z" fill="white"/>
    <path d="M65.1719 12.1343V7.52264H66.3332V12.1343H65.1719ZM64.4512 9.83847V8.87076H67.054V9.83847H64.4512Z" fill="white"/>
    <path d="M62.7885 12.1343V10.2923C62.7885 10.141 62.744 10.0231 62.655 9.93857C62.566 9.84959 62.4525 9.80509 62.3146 9.80509C62.2212 9.80509 62.1366 9.82511 62.061 9.86516C61.9898 9.9052 61.9342 9.96082 61.8942 10.032C61.8541 10.1032 61.8341 10.19 61.8341 10.2923L61.3803 10.0787C61.3803 9.81622 61.4381 9.59153 61.5538 9.40466C61.6695 9.21334 61.8274 9.06652 62.0276 8.96419C62.2323 8.85741 62.4637 8.80402 62.7217 8.80402C62.9575 8.80402 63.1666 8.85963 63.3491 8.97086C63.5359 9.07764 63.6828 9.22224 63.7895 9.40466C63.8963 9.58708 63.9497 9.79397 63.9497 10.0253V12.1343H62.7885ZM60.6729 12.1343V8.87075H61.8341V12.1343H60.6729Z" fill="white"/>
    <path d="M58.4258 12.2077C58.061 12.2077 57.7384 12.1365 57.4581 11.9941C57.1778 11.8473 56.9576 11.6448 56.7974 11.3868C56.6372 11.1287 56.5571 10.8329 56.5571 10.4992C56.5571 10.1699 56.635 9.8785 56.7907 9.6249C56.9464 9.36684 57.1578 9.1644 57.4247 9.01758C57.6961 8.8663 58.0009 8.79066 58.339 8.79066C58.6683 8.79066 58.9597 8.86185 59.2133 9.00423C59.4714 9.14215 59.6716 9.3357 59.814 9.58485C59.9608 9.82956 60.0342 10.1099 60.0342 10.4258C60.0342 10.4925 60.0298 10.5615 60.0209 10.6326C60.0164 10.6994 60.0031 10.7772 59.9808 10.8662L57.1044 10.8796V10.1321L59.5203 10.1121L58.9998 10.4391C58.9953 10.2567 58.9686 10.1076 58.9197 9.99196C58.8707 9.87183 58.7995 9.78062 58.7061 9.71833C58.6127 9.65604 58.4948 9.6249 58.3524 9.6249C58.2056 9.6249 58.0788 9.66049 57.972 9.73168C57.8652 9.80286 57.7829 9.90297 57.7251 10.032C57.6672 10.161 57.6383 10.3168 57.6383 10.4992C57.6383 10.686 57.6694 10.8462 57.7317 10.9797C57.794 11.1087 57.883 11.2066 57.9987 11.2733C58.1144 11.3401 58.2567 11.3734 58.4258 11.3734C58.586 11.3734 58.7261 11.3467 58.8463 11.2934C58.9708 11.24 59.0821 11.1577 59.1799 11.0464L59.7873 11.6537C59.6271 11.8362 59.4313 11.9741 59.2 12.0675C58.9731 12.161 58.715 12.2077 58.4258 12.2077Z" fill="white"/>
    <path d="M50.7114 12.1343V8.87075H51.8727V12.1343H50.7114ZM52.7603 12.1343V10.2456C52.7603 10.1076 52.718 10.0009 52.6335 9.92522C52.549 9.84514 52.4444 9.80509 52.3198 9.80509C52.2308 9.80509 52.153 9.82289 52.0862 9.85848C52.0195 9.89408 51.9661 9.94524 51.9261 10.012C51.8905 10.0743 51.8727 10.1521 51.8727 10.2456L51.4189 10.0654C51.4189 9.80287 51.4767 9.57818 51.5924 9.39131C51.7081 9.20445 51.8638 9.05985 52.0595 8.95751C52.2553 8.85518 52.4778 8.80402 52.7269 8.80402C52.9494 8.80402 53.1496 8.85741 53.3276 8.96419C53.51 9.06652 53.6546 9.21112 53.7614 9.39799C53.8682 9.58486 53.9215 9.80509 53.9215 10.0587V12.1343H52.7603ZM54.8092 12.1343V10.2456C54.8092 10.1076 54.7669 10.0009 54.6824 9.92522C54.5978 9.84514 54.4933 9.80509 54.3687 9.80509C54.2842 9.80509 54.2063 9.82289 54.1351 9.85848C54.0684 9.89408 54.015 9.94524 53.9749 10.012C53.9393 10.0743 53.9215 10.1521 53.9215 10.2456L53.2408 10.2122C53.2497 9.91855 53.3142 9.66717 53.4344 9.45805C53.5545 9.24894 53.7191 9.08877 53.9282 8.97754C54.1418 8.86186 54.382 8.80402 54.649 8.80402C54.9026 8.80402 55.1295 8.85741 55.3297 8.96419C55.5299 9.07097 55.6857 9.22669 55.7969 9.43136C55.9126 9.63157 55.9704 9.87183 55.9704 10.1521V12.1343H54.8092Z" fill="white"/>
    <path d="M48.432 12.201C48.2228 12.201 48.0293 12.1632 47.8513 12.0875C47.6734 12.0119 47.5265 11.9096 47.4109 11.7805C47.2952 11.6471 47.224 11.4936 47.1973 11.3201V9.73168C47.224 9.55816 47.2952 9.40244 47.4109 9.26451C47.531 9.12214 47.6778 9.0109 47.8513 8.93082C48.0293 8.84628 48.2228 8.80402 48.432 8.80402C48.7479 8.80402 49.0259 8.87743 49.2662 9.02425C49.5064 9.16663 49.6933 9.36684 49.8268 9.6249C49.9647 9.88295 50.0337 10.1766 50.0337 10.5058C50.0337 10.8306 49.9647 11.1221 49.8268 11.3801C49.6933 11.6337 49.5064 11.8339 49.2662 11.9808C49.0259 12.1276 48.7479 12.201 48.432 12.201ZM48.2117 11.1666C48.3407 11.1666 48.4542 11.1376 48.5521 11.0798C48.65 11.022 48.7256 10.9441 48.779 10.8462C48.8324 10.7439 48.8591 10.6282 48.8591 10.4992C48.8591 10.3701 48.8324 10.2567 48.779 10.1588C48.7256 10.0609 48.65 9.98306 48.5521 9.92522C48.4542 9.86738 48.343 9.83846 48.2184 9.83846C48.0983 9.83846 47.9893 9.86738 47.8914 9.92522C47.7935 9.97861 47.7179 10.0565 47.6645 10.1588C47.6111 10.2567 47.5844 10.3701 47.5844 10.4992C47.5844 10.6282 47.6111 10.7439 47.6645 10.8462C47.7179 10.9441 47.7913 11.022 47.8847 11.0798C47.9826 11.1376 48.0916 11.1666 48.2117 11.1666ZM46.4899 13.5157V8.87075H47.6511V9.69164L47.4576 10.4792L47.6244 11.2733V13.5157H46.4899Z" fill="white"/>
    <path d="M44.0138 12.2077C43.6623 12.2077 43.3487 12.1343 43.0728 11.9874C42.8014 11.8362 42.5856 11.6315 42.4254 11.3734C42.2653 11.1109 42.1852 10.8173 42.1852 10.4925C42.1852 10.1677 42.263 9.8785 42.4188 9.6249C42.5789 9.36684 42.7969 9.1644 43.0728 9.01758C43.3487 8.8663 43.6601 8.79066 44.0071 8.79066C44.3542 8.79066 44.6634 8.8663 44.9348 9.01758C45.2107 9.1644 45.4287 9.36684 45.5888 9.6249C45.749 9.8785 45.8291 10.1677 45.8291 10.4925C45.8291 10.8173 45.749 11.1109 45.5888 11.3734C45.4331 11.6315 45.2173 11.8362 44.9415 11.9874C44.6701 12.1343 44.3609 12.2077 44.0138 12.2077ZM44.0071 11.1732C44.1362 11.1732 44.2474 11.1465 44.3408 11.0931C44.4387 11.0353 44.5144 10.9552 44.5677 10.8529C44.6211 10.7505 44.6478 10.6326 44.6478 10.4992C44.6478 10.3657 44.6189 10.25 44.5611 10.1521C44.5077 10.0498 44.4343 9.97193 44.3408 9.91854C44.2474 9.8607 44.1362 9.83178 44.0071 9.83178C43.8826 9.83178 43.7713 9.8607 43.6734 9.91854C43.5756 9.97638 43.4999 10.0565 43.4465 10.1588C43.3931 10.2567 43.3665 10.3724 43.3665 10.5058C43.3665 10.6349 43.3931 10.7505 43.4465 10.8529C43.4999 10.9552 43.5756 11.0353 43.6734 11.0931C43.7713 11.1465 43.8826 11.1732 44.0071 11.1732Z" fill="white"/>
    <path d="M40.3607 12.1343V7.26904H41.522V12.1343H40.3607Z" fill="white"/>
    <path d="M38.1135 12.2077C37.7487 12.2077 37.4261 12.1365 37.1458 11.9941C36.8655 11.8473 36.6453 11.6448 36.4851 11.3868C36.325 11.1287 36.2449 10.8329 36.2449 10.4992C36.2449 10.1699 36.3227 9.8785 36.4785 9.6249C36.6342 9.36684 36.8455 9.1644 37.1125 9.01758C37.3839 8.8663 37.6886 8.79066 38.0268 8.79066C38.356 8.79066 38.6475 8.86185 38.9011 9.00423C39.1591 9.14215 39.3593 9.3357 39.5017 9.58485C39.6485 9.82956 39.7219 10.1099 39.7219 10.4258C39.7219 10.4925 39.7175 10.5615 39.7086 10.6326C39.7041 10.6994 39.6908 10.7772 39.6686 10.8662L36.7921 10.8796V10.1321L39.2081 10.1121L38.6875 10.4391C38.6831 10.2567 38.6564 10.1076 38.6074 9.99196C38.5585 9.87183 38.4873 9.78062 38.3938 9.71833C38.3004 9.65604 38.1825 9.6249 38.0401 9.6249C37.8933 9.6249 37.7665 9.66049 37.6597 9.73168C37.5529 9.80286 37.4706 9.90297 37.4128 10.032C37.355 10.161 37.326 10.3168 37.326 10.4992C37.326 10.686 37.3572 10.8462 37.4195 10.9797C37.4818 11.1087 37.5707 11.2066 37.6864 11.2733C37.8021 11.3401 37.9445 11.3734 38.1135 11.3734C38.2737 11.3734 38.4139 11.3467 38.534 11.2934C38.6586 11.24 38.7698 11.1577 38.8677 11.0464L39.475 11.6537C39.3148 11.8362 39.1191 11.9741 38.8877 12.0675C38.6608 12.161 38.4027 12.2077 38.1135 12.2077Z" fill="white"/>
    <path d="M33.6549 12.1343L32.3268 8.87076H33.5681L34.4157 11.6204H33.9419L34.7828 8.87076H36.0107L34.6826 12.1276L33.6549 12.1343Z" fill="white"/>
    <path d="M30.4788 12.2077C30.1139 12.2077 29.7914 12.1365 29.5111 11.9941C29.2308 11.8473 29.0105 11.6448 28.8504 11.3868C28.6902 11.1287 28.6101 10.8329 28.6101 10.4992C28.6101 10.1699 28.688 9.8785 28.8437 9.6249C28.9994 9.36684 29.2108 9.1644 29.4777 9.01758C29.7491 8.8663 30.0539 8.79066 30.392 8.79066C30.7213 8.79066 31.0127 8.86185 31.2663 9.00423C31.5244 9.14215 31.7246 9.3357 31.8669 9.58485C32.0138 9.82956 32.0872 10.1099 32.0872 10.4258C32.0872 10.4925 32.0827 10.5615 32.0738 10.6326C32.0694 10.6994 32.056 10.7772 32.0338 10.8662L29.1574 10.8796V10.1321L31.5733 10.1121L31.0527 10.4391C31.0483 10.2567 31.0216 10.1076 30.9726 9.99196C30.9237 9.87183 30.8525 9.78062 30.7591 9.71833C30.6657 9.65604 30.5477 9.6249 30.4054 9.6249C30.2585 9.6249 30.1317 9.66049 30.025 9.73168C29.9182 9.80286 29.8359 9.90297 29.778 10.032C29.7202 10.161 29.6913 10.3168 29.6913 10.4992C29.6913 10.686 29.7224 10.8462 29.7847 10.9797C29.847 11.1087 29.936 11.2066 30.0517 11.2733C30.1673 11.3401 30.3097 11.3734 30.4788 11.3734C30.639 11.3734 30.7791 11.3467 30.8992 11.2934C31.0238 11.24 31.135 11.1577 31.2329 11.0464L31.8402 11.6537C31.6801 11.8362 31.4843 11.9741 31.2529 12.0675C31.026 12.161 30.768 12.2077 30.4788 12.2077Z" fill="white"/>
    <path d="M26.0104 12.201C25.6945 12.201 25.4164 12.1276 25.1762 11.9808C24.9359 11.834 24.7468 11.6337 24.6089 11.3801C24.4754 11.1221 24.4087 10.8306 24.4087 10.5059C24.4087 10.1766 24.4754 9.88296 24.6089 9.62491C24.7468 9.36685 24.9337 9.16664 25.1695 9.02426C25.4098 8.87744 25.6901 8.80403 26.0104 8.80403C26.2151 8.80403 26.4064 8.84185 26.5844 8.91748C26.7623 8.98867 26.9114 9.091 27.0315 9.22448C27.1516 9.35796 27.2228 9.50923 27.2451 9.6783V11.2733C27.2228 11.4424 27.1516 11.5981 27.0315 11.7405C26.9114 11.8829 26.7623 11.9963 26.5844 12.0809C26.4064 12.161 26.2151 12.201 26.0104 12.201ZM26.2173 11.1666C26.3463 11.1666 26.4576 11.1399 26.551 11.0865C26.6444 11.0286 26.7178 10.9508 26.7712 10.8529C26.8291 10.7506 26.858 10.6327 26.858 10.4992C26.858 10.3702 26.8313 10.2567 26.7779 10.1588C26.7245 10.0609 26.6489 9.98307 26.551 9.92523C26.4576 9.86739 26.3486 9.83847 26.224 9.83847C26.0994 9.83847 25.9882 9.86739 25.8903 9.92523C25.7969 9.98307 25.7212 10.0632 25.6634 10.1655C25.61 10.2634 25.5833 10.3746 25.5833 10.4992C25.5833 10.6282 25.61 10.7439 25.6634 10.8462C25.7168 10.9441 25.7924 11.022 25.8903 11.0798C25.9882 11.1376 26.0972 11.1666 26.2173 11.1666ZM27.9525 12.1343H26.8113V11.26L26.9781 10.4591L26.7913 9.67163V7.26904H27.9525V12.1343Z" fill="white"/>
    <path d="M55.5455 4.25246V3.25806H57.9548V4.25246H55.5455Z" fill="white"/>
    <path d="M53.1483 5.53384C52.7835 5.53384 52.4609 5.46266 52.1806 5.32028C51.9003 5.17346 51.6801 4.97102 51.5199 4.71296C51.3597 4.45491 51.2797 4.15903 51.2797 3.82534C51.2797 3.4961 51.3575 3.20467 51.5132 2.95107C51.669 2.69301 51.8803 2.49057 52.1473 2.34375C52.4187 2.19247 52.7234 2.11684 53.0616 2.11684C53.3908 2.11684 53.6822 2.18802 53.9359 2.3304C54.1939 2.46833 54.3941 2.66187 54.5365 2.91102C54.6833 3.15573 54.7567 3.43603 54.7567 3.75193C54.7567 3.81867 54.7523 3.88763 54.7434 3.95882C54.7389 4.02556 54.7256 4.10342 54.7033 4.1924L51.8269 4.20575V3.45828L54.2428 3.43826L53.7223 3.76528C53.7178 3.58286 53.6911 3.43381 53.6422 3.31813C53.5933 3.198 53.5221 3.10679 53.4286 3.0445C53.3352 2.98221 53.2173 2.95107 53.0749 2.95107C52.9281 2.95107 52.8013 2.98666 52.6945 3.05785C52.5877 3.12904 52.5054 3.22914 52.4476 3.35817C52.3897 3.4872 52.3608 3.64292 52.3608 3.82534C52.3608 4.01221 52.392 4.17238 52.4543 4.30586C52.5165 4.43488 52.6055 4.53277 52.7212 4.59951C52.8369 4.66624 52.9793 4.69961 53.1483 4.69961C53.3085 4.69961 53.4487 4.67292 53.5688 4.61953C53.6934 4.56614 53.8046 4.48383 53.9025 4.37259L54.5098 4.97991C54.3496 5.16233 54.1539 5.30026 53.9225 5.39369C53.6956 5.48713 53.4375 5.53384 53.1483 5.53384Z" fill="white"/>
    <path d="M48.4778 5.46042V2.19691H49.639V5.46042H48.4778ZM49.639 3.68518L49.1185 3.2447C49.2475 2.87542 49.4188 2.59734 49.6324 2.41047C49.8459 2.22361 50.124 2.13017 50.4666 2.13017C50.6223 2.13017 50.7558 2.15019 50.867 2.19024C50.9827 2.23028 51.0806 2.29257 51.1607 2.3771L50.4866 3.27807C50.451 3.23803 50.3998 3.20689 50.3331 3.18464C50.2708 3.15794 50.1996 3.1446 50.1195 3.1446C49.9683 3.1446 49.8504 3.19131 49.7658 3.28475C49.6813 3.37373 49.639 3.50721 49.639 3.68518Z" fill="white"/>
    <path d="M45.6177 5.52716C45.3152 5.52716 45.046 5.45375 44.8102 5.30692C44.5744 5.1601 44.3897 4.95988 44.2562 4.70628C44.1228 4.44822 44.056 4.1568 44.056 3.832C44.056 3.50276 44.1228 3.20911 44.2562 2.95106C44.3897 2.693 44.5744 2.49278 44.8102 2.35041C45.046 2.20358 45.3152 2.13017 45.6177 2.13017C45.8224 2.13017 46.0092 2.16799 46.1783 2.24363C46.3474 2.31482 46.4853 2.41715 46.5921 2.55062C46.7033 2.6841 46.7701 2.83538 46.7923 3.00445V4.64621C46.7701 4.81973 46.7033 4.97323 46.5921 5.10671C46.4853 5.23573 46.3474 5.33807 46.1783 5.4137C46.0092 5.48934 45.8224 5.52716 45.6177 5.52716ZM45.8646 4.49271C46.056 4.49271 46.2095 4.43042 46.3251 4.30585C46.4453 4.18127 46.5053 4.02109 46.5053 3.82533C46.5053 3.6963 46.4786 3.58285 46.4252 3.48496C46.3719 3.38708 46.2962 3.30922 46.1983 3.25138C46.1049 3.19354 45.9959 3.16462 45.8713 3.16462C45.7467 3.16462 45.6355 3.19354 45.5376 3.25138C45.4442 3.30922 45.3686 3.3893 45.3107 3.49164C45.2573 3.58952 45.2306 3.70075 45.2306 3.82533C45.2306 3.95436 45.2573 4.07004 45.3107 4.17237C45.3641 4.27025 45.4397 4.34811 45.5376 4.40595C45.6355 4.46379 45.7445 4.49271 45.8646 4.49271ZM46.4586 5.46042V4.58615L46.6255 3.78529L46.4586 2.99777V2.19691H47.5998V5.46042H46.4586Z" fill="white"/>
    <path d="M39.4911 5.46042L38.4567 2.19691H39.5779L40.1919 4.5728L39.8582 4.57948L40.5856 2.19691H41.6201L42.3475 4.57948L42.0138 4.5728L42.6345 2.19691H43.7557L42.7212 5.46042H41.6735L40.9794 3.20466H41.2397L40.5256 5.46042H39.4911Z" fill="white"/>
    <path d="M36.2867 5.46043V0.848801H37.4479V5.46043H36.2867ZM35.5659 3.16462V2.19692H38.1687V3.16462H35.5659Z" fill="white"/>
    <path d="M33.211 5.46042V1.99003C33.211 1.71417 33.2711 1.46724 33.3912 1.24923C33.5114 1.02677 33.6827 0.848798 33.9051 0.715322C34.132 0.581845 34.4034 0.515106 34.7193 0.515106C34.9551 0.515106 35.162 0.555149 35.34 0.635235C35.518 0.710872 35.6715 0.813205 35.8005 0.942232L35.073 1.66968C35.0375 1.62964 34.993 1.60072 34.9396 1.58292C34.8906 1.56067 34.8328 1.54955 34.7661 1.54955C34.6459 1.54955 34.5503 1.58515 34.4791 1.65633C34.4079 1.72752 34.3723 1.82318 34.3723 1.94331V5.46042H33.211ZM32.517 3.16462V2.19691H35.2933V3.16462H32.517Z" fill="white"/>
    <path d="M30.3866 5.53384C30.0351 5.53384 29.7215 5.46043 29.4456 5.31361C29.1742 5.16233 28.9584 4.95767 28.7982 4.69961C28.6381 4.43711 28.558 4.14346 28.558 3.81867C28.558 3.49387 28.6358 3.20467 28.7916 2.95107C28.9517 2.69301 29.1698 2.49057 29.4456 2.34375C29.7215 2.19247 30.0329 2.11684 30.3799 2.11684C30.727 2.11684 31.0362 2.19247 31.3076 2.34375C31.5835 2.49057 31.8015 2.69301 31.9616 2.95107C32.1218 3.20467 32.2019 3.49387 32.2019 3.81867C32.2019 4.14346 32.1218 4.43711 31.9616 4.69961C31.8059 4.95767 31.5901 5.16233 31.3143 5.31361C31.0429 5.46043 30.7337 5.53384 30.3866 5.53384ZM30.3799 4.4994C30.509 4.4994 30.6202 4.4727 30.7136 4.41931C30.8115 4.36147 30.8872 4.28139 30.9405 4.17905C30.9939 4.07672 31.0206 3.95882 31.0206 3.82534C31.0206 3.69186 30.9917 3.57618 30.9339 3.4783C30.8805 3.37597 30.8071 3.29811 30.7136 3.24472C30.6202 3.18688 30.509 3.15796 30.3799 3.15796C30.2554 3.15796 30.1441 3.18688 30.0462 3.24472C29.9484 3.30256 29.8727 3.38264 29.8193 3.48497C29.7659 3.58286 29.7393 3.69854 29.7393 3.83201C29.7393 3.96104 29.7659 4.07672 29.8193 4.17905C29.8727 4.28139 29.9484 4.36147 30.0462 4.41931C30.1441 4.4727 30.2554 4.4994 30.3799 4.4994Z" fill="white"/>
    <path d="M26.1706 5.53384C25.7746 5.53384 25.4298 5.47378 25.1361 5.35365C24.8469 5.23352 24.5822 5.04443 24.3419 4.78637L25.0961 4.02555C25.2607 4.19907 25.4364 4.33255 25.6233 4.42598C25.8102 4.51497 26.0215 4.55946 26.2573 4.55946C26.4575 4.55946 26.611 4.52609 26.7178 4.45935C26.829 4.38817 26.8847 4.29251 26.8847 4.17238C26.8847 4.06115 26.8446 3.96994 26.7645 3.89875C26.6844 3.82311 26.5777 3.7586 26.4442 3.70521C26.3152 3.64737 26.1706 3.59398 26.0104 3.54504C25.8547 3.49165 25.6967 3.42936 25.5365 3.35817C25.3808 3.28253 25.2362 3.19132 25.1027 3.08454C24.9737 2.97776 24.8692 2.84428 24.7891 2.68411C24.709 2.52394 24.6689 2.32595 24.6689 2.09014C24.6689 1.78759 24.7401 1.52954 24.8825 1.31597C25.0293 1.10241 25.2318 0.93779 25.4898 0.82211C25.7479 0.70643 26.0482 0.64859 26.3908 0.64859C26.7334 0.64859 27.0493 0.70643 27.3385 0.82211C27.6277 0.93779 27.8657 1.09796 28.0526 1.30263L27.2918 2.05677C27.1494 1.9144 27.0048 1.80761 26.858 1.73643C26.7111 1.66524 26.551 1.62964 26.3774 1.62964C26.2128 1.62964 26.0838 1.65856 25.9904 1.7164C25.8969 1.77424 25.8502 1.85656 25.8502 1.96334C25.8502 2.07012 25.8903 2.15688 25.9703 2.22362C26.0504 2.29036 26.155 2.35042 26.284 2.40381C26.4175 2.45275 26.5621 2.50392 26.7178 2.55731C26.878 2.6107 27.0359 2.67299 27.1916 2.74418C27.3474 2.81536 27.4897 2.90657 27.6188 3.0178C27.7523 3.12903 27.859 3.26918 27.9391 3.43826C28.0192 3.60733 28.0592 3.81199 28.0592 4.05225C28.0592 4.52387 27.8924 4.8887 27.5587 5.14676C27.2295 5.40481 26.7667 5.53384 26.1706 5.53384Z" fill="white"/>
    <path d="M15.7992 19.4148H3.61565C1.62026 19.4148 0 17.7977 0 15.7992V3.61565C0 1.62027 1.61711 0 3.61565 0H15.7992C17.7945 0 19.4148 1.61711 19.4148 3.61565V15.7992C19.4148 17.7977 17.7945 19.4148 15.7992 19.4148Z" fill="#CF3930"/>
    <path d="M9.90467 11.4137H6.50023L3.28491 7.91149L6.50023 4.41248H9.90467L6.6736 7.91149L9.90467 11.4137Z" fill="white"/>
    <path d="M7.20801 11.4136H3.80357L0.588257 7.91146L3.80357 4.41245H7.20801L3.97694 7.91146L7.20801 11.4136Z" fill="#CF3930"/>
    <path d="M9.16736 7.73164H12.5718L15.7871 11.2307L12.5718 14.7328H9.16736L12.3984 11.2307L9.16736 7.73164Z" fill="white"/>
    <path d="M11.8636 7.73174H15.2681L18.4834 11.2308L15.2681 14.7329H11.8636L15.0947 11.2308L11.8636 7.73174Z" fill="#CF3930"/>
    <path d="M2.93091 32.2856C2.52024 32.2856 2.16557 32.2136 1.86691 32.0696C1.57357 31.9256 1.34157 31.7283 1.17091 31.4776C1.00557 31.2216 0.909573 30.9336 0.882906 30.6136H1.88291C1.93091 30.8429 2.04824 31.0349 2.23491 31.1896C2.42157 31.3389 2.65357 31.4136 2.93091 31.4136C3.22957 31.4136 3.47224 31.3043 3.65891 31.0856C3.85091 30.8669 3.94691 30.5949 3.94691 30.2696C3.94691 29.9336 3.85091 29.6669 3.65891 29.4696C3.47224 29.2723 3.23491 29.1736 2.94691 29.1736C2.70691 29.1736 2.49891 29.2323 2.32291 29.3496C2.14691 29.4669 2.02157 29.6136 1.94691 29.7896H0.962906L1.44291 26.5896H4.54691V27.4856H2.21091L1.95491 28.7816C2.07224 28.6536 2.23224 28.5496 2.43491 28.4696C2.63757 28.3843 2.86424 28.3416 3.11491 28.3416C3.51491 28.3416 3.84824 28.4323 4.11491 28.6136C4.38157 28.7896 4.58424 29.0243 4.72291 29.3176C4.86157 29.6056 4.93091 29.9203 4.93091 30.2616C4.93091 30.6509 4.84557 30.9976 4.67491 31.3016C4.50957 31.6056 4.27491 31.8456 3.97091 32.0216C3.67224 32.1976 3.32557 32.2856 2.93091 32.2856ZM6.29984 32.2456C6.11318 32.2456 5.95851 32.1869 5.83584 32.0696C5.71851 31.9523 5.65984 31.8109 5.65984 31.6456C5.65984 31.4749 5.71851 31.3309 5.83584 31.2136C5.95851 31.0963 6.11318 31.0376 6.29984 31.0376C6.48651 31.0376 6.63851 31.0963 6.75584 31.2136C6.87851 31.3309 6.93984 31.4749 6.93984 31.6456C6.93984 31.8109 6.87851 31.9523 6.75584 32.0696C6.63851 32.1869 6.48651 32.2456 6.29984 32.2456ZM9.78141 32.2856C9.26407 32.2856 8.82141 32.1656 8.45341 31.9256C8.08541 31.6803 7.80007 31.3416 7.59741 30.9096C7.40007 30.4723 7.30141 29.9656 7.30141 29.3896C7.30141 28.8189 7.40007 28.3149 7.59741 27.8776C7.80007 27.4403 8.08541 27.1016 8.45341 26.8616C8.82141 26.6163 9.26407 26.4936 9.78141 26.4936C10.2987 26.4936 10.7414 26.6163 11.1094 26.8616C11.4774 27.1016 11.7601 27.4403 11.9574 27.8776C12.1601 28.3149 12.2614 28.8189 12.2614 29.3896C12.2614 29.9656 12.1601 30.4723 11.9574 30.9096C11.7601 31.3416 11.4774 31.6803 11.1094 31.9256C10.7414 32.1656 10.2987 32.2856 9.78141 32.2856ZM9.78141 31.3656C10.2027 31.3656 10.5467 31.1896 10.8134 30.8376C11.0801 30.4856 11.2134 30.0029 11.2134 29.3896C11.2134 28.7763 11.0801 28.2936 10.8134 27.9416C10.5467 27.5896 10.2027 27.4136 9.78141 27.4136C9.35474 27.4136 9.00807 27.5896 8.74141 27.9416C8.48007 28.2936 8.34941 28.7763 8.34941 29.3896C8.34941 30.0029 8.48007 30.4856 8.74141 30.8376C9.00807 31.1896 9.35474 31.3656 9.78141 31.3656Z" fill="white"/>
    <path d="M21.5 24.6896L22.9548 27.1873L25.7798 27.799L23.8539 29.9544L24.145 32.8302L21.5 31.6646L18.855 32.8302L19.1461 29.9544L17.2202 27.799L20.0452 27.1873L21.5 24.6896Z" fill="#FFCE58"/>
    <path d="M32.8257 24.6896L34.2805 27.1873L37.1054 27.799L35.1795 29.9544L35.4707 32.8302L32.8257 31.6646L30.1806 32.8302L30.4718 29.9544L28.5459 27.799L31.3709 27.1873L32.8257 24.6896Z" fill="#FFCE58"/>
    <path d="M44.1512 24.6896L45.606 27.1873L48.431 27.799L46.5051 29.9544L46.7963 32.8302L44.1512 31.6646L41.5062 32.8302L41.7974 29.9544L39.8715 27.799L42.6965 27.1873L44.1512 24.6896Z" fill="#FFCE58"/>
    <path d="M55.4769 24.6896L56.9317 27.1873L59.7567 27.799L57.8308 29.9544L58.122 32.8302L55.4769 31.6646L52.8319 32.8302L53.1231 29.9544L51.1972 27.799L54.0222 27.1873L55.4769 24.6896Z" fill="#FFCE58"/>
    <path d="M66.8025 24.6896L68.2573 27.1873L71.0822 27.799L69.1564 29.9544L69.4475 32.8302L66.8025 31.6646L64.1575 32.8302L64.4486 29.9544L62.5227 27.799L65.3477 27.1873L66.8025 24.6896Z" fill="#FFCE58"/>
</svg>
